<svg width="82" height="81" viewBox="0 0 82 81" fill="none" xmlns="http://www.w3.org/2000/svg">
<path d="M15.3589 25.9866L4.87183 57.5393L31.9162 66.5285L40.3103 41.273" stroke="#301320" stroke-width="5"/>
<path d="M7.86672 48.5242L34.9111 57.5134" stroke="#301320" stroke-width="5"/>
<path d="M31.3887 37.9902L27.893 48.5077" stroke="#301320" stroke-width="5"/>
<path d="M22.375 34.9932L18.8793 45.5107" stroke="#301320" stroke-width="5"/>
<path d="M15.3555 25.9865L7.84313 23.4895C7.84313 23.4895 5.34621 31.0021 3.84805 35.5096C1.35113 43.0221 8.36408 47.0216 8.36408 47.0216" stroke="#301320" stroke-width="5"/>
<path d="M41.1562 21.2144L25.3761 15.9693C22.0569 14.8661 18.4718 16.6625 17.3686 19.9817L15.371 25.9918L34.6463 32.3986" stroke="#301320" stroke-width="5"/>
<path d="M66.3471 26.0216L76.8342 57.5743L49.7898 66.5634L40.8826 39.7642" stroke="#301320" stroke-width="5"/>
<path d="M73.8403 48.5592L46.7959 57.5483" stroke="#301320" stroke-width="5"/>
<path d="M50.3213 38.0244L53.817 48.542" stroke="#301320" stroke-width="5"/>
<path d="M59.334 35.0278L62.8297 45.5453" stroke="#301320" stroke-width="5"/>
<path d="M66.3496 26.0215L73.8619 23.5246C73.8619 23.5246 76.3589 31.0371 77.857 35.5446C80.354 43.0572 73.341 47.0567 73.341 47.0567" stroke="#301320" stroke-width="5"/>
<path d="M43.8812 33.4897L43.0927 31.1173L41.5834 31.619L41.3982 33.1987L43.8812 33.4897ZM43.6102 35.8011L41.1272 35.5101L43.6102 35.8011ZM38.2547 40.0328L38.5458 37.5498L38.5458 37.5498L38.2547 40.0328ZM34.0231 34.6772L36.5061 34.9682L34.0231 34.6772ZM34.9036 27.1663L37.3866 27.4574L37.3912 27.4181L37.3946 27.3788L34.9036 27.1663ZM39.2183 21.6917L40.0068 24.064L39.2183 21.6917ZM56.3292 16.0042L55.5407 13.6318L56.3292 16.0042ZM66.3342 26.0267L67.1227 28.3991L69.4951 27.6105L68.7066 25.2381L66.3342 26.0267ZM41.3982 33.1987L41.1272 35.5101L46.0932 36.0922L46.3642 33.7808L41.3982 33.1987ZM41.1272 35.5101C40.9776 36.7862 39.8219 37.6994 38.5458 37.5498L37.9635 42.5158C41.9823 42.9869 45.6221 40.111 46.0932 36.0922L41.1272 35.5101ZM38.5458 37.5498C37.2697 37.4002 36.3565 36.2443 36.5061 34.9682L31.5401 34.3861C31.069 38.4049 33.9448 42.0446 37.9635 42.5158L38.5458 37.5498ZM36.5061 34.9682L37.3866 27.4574L32.4206 26.8753L31.5401 34.3861L36.5061 34.9682ZM37.3946 27.3788C37.5213 25.8929 38.5112 24.5611 40.0068 24.064L38.4297 19.3193C34.9712 20.4688 32.7032 23.5482 32.4127 26.9539L37.3946 27.3788ZM40.0068 24.064L57.1177 18.3766L55.5407 13.6318L38.4297 19.3193L40.0068 24.064ZM57.1177 18.3766C59.1267 17.7089 61.2966 18.7961 61.9643 20.8051L66.7091 19.228C65.1704 14.5986 60.1701 12.0931 55.5407 13.6318L57.1177 18.3766ZM61.9643 20.8051L63.9619 26.8152L68.7066 25.2381L66.7091 19.228L61.9643 20.8051ZM65.5457 23.6543L43.0927 31.1173L44.6697 35.8621L67.1227 28.3991L65.5457 23.6543Z" fill="#301320"/>
</svg>
