<svg width="81" height="82" viewBox="0 0 81 82" fill="none" xmlns="http://www.w3.org/2000/svg">
<path d="M54.173 68.8536C54.503 68.1863 54.6885 67.4348 54.6885 66.64C54.6885 63.8785 52.4499 61.64 49.6885 61.64C46.9271 61.64 44.6885 63.8785 44.6885 66.64C44.6885 67.4348 44.8739 68.1863 45.2039 68.8536" stroke="#FABB00" stroke-width="5"/>
<path d="M18.9948 3.23358L33.7083 3.23358C38.7709 3.23358 42.875 7.33764 42.875 12.4002C42.875 17.4629 38.7709 21.5669 33.7083 21.5669L18.9948 21.5669" stroke="#FABB00" stroke-width="5"/>
<path d="M17.2118 68.8536C16.8818 68.1863 16.6963 67.4348 16.6963 66.64C16.6963 63.8785 18.9349 61.64 21.6963 61.64C23.5265 61.64 25.1271 62.6233 25.9984 64.0905" stroke="#FABB00" stroke-width="5"/>
<path d="M63.6791 68.8779C63.7947 68.1489 63.8548 67.4015 63.8548 66.64C63.8548 58.816 57.5122 52.4733 49.6882 52.4733C41.8641 52.4733 35.5215 58.816 35.5215 66.64C35.5215 67.4015 35.5816 68.1489 35.6972 68.8779" stroke="#FABB00" stroke-width="5"/>
<path d="M7.70603 68.8779C7.59035 68.1489 7.53027 67.4015 7.53027 66.64C7.53027 58.816 13.8729 52.4733 21.6969 52.4733C24.4896 52.4733 27.0935 53.2814 29.2877 54.6764" stroke="#FABB00" stroke-width="5"/>
<path d="M73.2381 69.1799C73.3271 68.3454 73.3727 67.498 73.3727 66.64C73.3727 53.5592 62.7686 42.9551 49.6878 42.9551C36.607 42.9551 26.0029 53.5592 26.0029 66.64C26.0029 67.498 26.0486 68.3454 26.1375 69.1799" stroke="#FABB00" stroke-width="5"/>
<path d="M5.375 69.0048H75.375M5.375 69.0048L12.0417 79.0048H68.7083L75.375 69.0048M5.375 69.0048H0.375M75.375 69.0048H80.375" stroke="#FABB00" stroke-width="5"/>
<path d="M21.4883 53.1514V3.0202" stroke="#FABB00" stroke-width="5"/>
<path d="M19.6104 12.4003H80.3737" stroke="#FABB00" stroke-width="5"/>
<path d="M31.1826 53.1514V3.0202" stroke="#FABB00" stroke-width="5"/>
<path d="M40.5674 33.0698H43.7215C46.7903 33.0698 49.2781 35.5576 49.2781 38.6265V41.7806H46.124C43.0552 41.7806 40.5674 39.2928 40.5674 36.2239V33.0698Z" stroke="#FABB00" stroke-width="5"/>
<path d="M58.8809 33.0698H55.7268C52.6579 33.0698 50.1701 35.5576 50.1701 38.6265V41.7806H53.3242C56.3931 41.7806 58.8809 39.2928 58.8809 36.2239V33.0698Z" stroke="#FABB00" stroke-width="5"/>
</svg>
