<?xml version="1.0" encoding="utf-8"?>
<!-- Generator: Adobe Illustrator 27.0.0, SVG Export Plug-In . SVG Version: 6.00 Build 0)  -->
<svg version="1.1" id="Livello_1" xmlns="http://www.w3.org/2000/svg" xmlns:xlink="http://www.w3.org/1999/xlink" x="0px" y="0px"
	 viewBox="0 0 71 80" style="enable-background:new 0 0 71 80;" xml:space="preserve">
<style type="text/css">
	.st0{fill:#FFFFFF;}
	.st1{fill:none;stroke:#FFFFFF;stroke-width:5;}
	.st2{fill:none;stroke:#FFFFFF;stroke-width:5;stroke-linejoin:bevel;}
</style>
<path class="st0" d="M14.6,21.5l-1.7-1.8L11,21.4l-7.3,6.8l-1.8,1.7l1.7,1.8 M30,38.1L14.6,21.5 M41.9,38.2
	c-1.4,1.7-3.5,2.9-5.9,2.9c-2.4,0-4.5-1.1-5.9-2.8l-0.1-0.1 M60.9,21.5l-1.8-1.7l-1.7,1.8L42,38.1L42,38.1l-0.1,0.1 M3.6,31.8
	l17.3,18.5v26.4v2.5h2.5h25.3h2.5v-2.5V50.3l17.2-18.4L70,30l-1.8-1.7l-7.3-6.8 M46.8,47.6l-0.7,0.7v1v24.9H25.8V49.3v-1l-0.7-0.7
	L8.9,30.2l3.7-3.4l13.8,14.7l0,0c2.3,2.8,5.8,4.6,9.6,4.6c3.9,0,7.4-1.8,9.7-4.6l0,0l13.6-14.6l3.7,3.4L46.8,47.6"/>
<circle class="st1" cx="36" cy="33.6" r="10"/>
<path class="st2" d="M40.5,10.6c0,0,2.2,0.8,5.4,4c3.2,3.2,4,5.4,4,5.4s0.8-2.2,4-5.4c3.2-3.2,5.4-4,5.4-4s-2.2-0.8-5.4-4
	c-3.2-3.2-4-5.4-4-5.4s-0.8,2.2-4,5.4C42.7,9.8,40.5,10.6,40.5,10.6z"/>
<path class="st2" d="M1.5,60.6c0,0,2.2,0.8,5.4,4c3.2,3.2,4,5.4,4,5.4s0.8-2.2,4-5.4c3.2-3.2,5.4-4,5.4-4s-2.2-0.8-5.4-4
	c-3.2-3.2-4-5.4-4-5.4s-0.8,2.2-4,5.4C3.7,59.8,1.5,60.6,1.5,60.6z"/>
<path class="st1" d="M22.7,65.6h26.7"/>
</svg>
