<svg width="71" height="80" viewBox="0 0 71 80" fill="none" xmlns="http://www.w3.org/2000/svg">
<path d="M43.864 39.7651L42.0356 38.0601L41.9644 38.1365L41.8997 38.2186L43.864 39.7651ZM28.1846 39.8201L30.138 38.2599L30.0782 38.1851L30.0129 38.1151L28.1846 39.8201ZM12.7256 23.2424L14.554 21.5374L12.849 19.7091L11.0207 21.414L12.7256 23.2424ZM5.41211 30.0624L3.70711 28.234L1.87873 29.939L3.58373 31.7674L5.41211 30.0624ZM23.3398 49.2875H25.8398V48.3027L25.1682 47.5825L23.3398 49.2875ZM23.3398 76.6665H20.8398V79.1665H23.3398V76.6665ZM48.6653 76.6665V79.1665H51.1653V76.6665H48.6653ZM48.6653 49.2791L46.8369 47.5741L46.1653 48.2943V49.2791H48.6653ZM66.5005 30.1532L68.3289 31.8582L70.0339 30.0298L68.2055 28.3248L66.5005 30.1532ZM59.1869 23.3332L60.8919 21.5048L59.0636 19.7998L57.3586 21.6282L59.1869 23.3332ZM41.8997 38.2186C40.5223 39.9681 38.3934 41.0841 36.0025 41.0841V46.0841C39.9908 46.0841 43.5436 44.2134 45.8283 41.3116L41.8997 38.2186ZM36.0025 41.0841C33.6303 41.0841 31.5163 39.9857 30.138 38.2599L26.2311 41.3803C28.5175 44.2429 32.0458 46.0841 36.0025 46.0841V41.0841ZM30.0129 38.1151L14.554 21.5374L10.8973 24.9474L26.3562 41.5251L30.0129 38.1151ZM11.0207 21.414L3.70711 28.234L7.11711 31.8908L14.4306 25.0708L11.0207 21.414ZM3.58373 31.7674L21.5114 50.9925L25.1682 47.5825L7.24049 28.3574L3.58373 31.7674ZM20.8398 49.2875V76.6665H25.8398V49.2875H20.8398ZM23.3398 79.1665H48.6653V74.1665H23.3398V79.1665ZM51.1653 76.6665V49.2791H46.1653V76.6665H51.1653ZM50.4937 50.9841L68.3289 31.8582L64.6721 28.4482L46.8369 47.5741L50.4937 50.9841ZM68.2055 28.3248L60.8919 21.5048L57.4819 25.1616L64.7955 31.9816L68.2055 28.3248ZM57.3586 21.6282L42.0356 38.0601L45.6924 41.4701L61.0153 25.0382L57.3586 21.6282Z" fill="white"/>
<circle cx="36" cy="33.584" r="10" stroke="white" stroke-width="5"/>
<path d="M40.4668 10.5666C40.4668 10.5666 42.7001 11.3333 45.9001 14.5666C49.1001 17.7666 49.9001 20 49.9001 20C49.9001 20 50.6668 17.7666 53.9001 14.5666C57.1001 11.3666 59.3335 10.5666 59.3335 10.5666C59.3335 10.5666 57.1001 9.79997 53.9001 6.56663C50.6668 3.36663 49.9001 1.1333 49.9001 1.1333C49.9001 1.1333 49.1335 3.36663 45.9001 6.56663C42.7001 9.76663 40.4668 10.5666 40.4668 10.5666Z" stroke="white" stroke-width="5" stroke-linejoin="bevel"/>
<path d="M1.47266 60.5666C1.47266 60.5666 3.70599 61.3333 6.90599 64.5666C10.106 67.7666 10.906 70 10.906 70C10.906 70 11.6727 67.7666 14.906 64.5666C18.106 61.3666 20.3393 60.5666 20.3393 60.5666C20.3393 60.5666 18.106 59.8 14.906 56.5666C11.6727 53.3666 10.906 51.1333 10.906 51.1333C10.906 51.1333 10.1393 53.3666 6.90599 56.5666C3.70599 59.7666 1.47266 60.5666 1.47266 60.5666Z" stroke="white" stroke-width="5" stroke-linejoin="bevel"/>
<path d="M22.667 65.5815H49.3337" stroke="white" stroke-width="5"/>
</svg>
