<svg width="81" height="81" viewBox="0 0 81 81" fill="none" xmlns="http://www.w3.org/2000/svg">
<path d="M48.4642 40.5217L46.6358 38.8167L46.5645 38.8932L46.4998 38.9753L48.4642 40.5217ZM32.786 40.5793L34.739 39.0186L34.6795 38.944L34.6144 38.8743L32.786 40.5793ZM17.3253 23.9996L19.1536 22.2946L17.4486 20.4663L15.6203 22.1712L17.3253 23.9996ZM10.0117 30.8196L8.30672 28.9912L6.47834 30.6962L8.18333 32.5246L10.0117 30.8196ZM27.9394 50.0447H30.4394V49.0599L29.7678 48.3397L27.9394 50.0447ZM27.9394 77.4237H25.4394V79.9237H27.9394V77.4237ZM53.2649 77.4237V79.9237H55.7649V77.4237H53.2649ZM53.2649 50.0363L51.4365 48.3313L50.7649 49.0515V50.0363H53.2649ZM71.1001 30.9104L72.9285 32.6154L74.6335 30.787L72.8051 29.082L71.1001 30.9104ZM63.7866 24.0904L65.4915 22.262L63.6632 20.557L61.9582 22.3854L63.7866 24.0904ZM46.4998 38.9753C45.1224 40.725 42.9934 41.8412 40.6022 41.8412V46.8412C44.5908 46.8412 48.1439 44.9702 50.4285 42.0681L46.4998 38.9753ZM40.6022 41.8412C38.2308 41.8412 36.1174 40.7434 34.739 39.0186L30.833 42.14C33.1194 45.0011 36.6468 46.8412 40.6022 46.8412V41.8412ZM34.6144 38.8743L19.1536 22.2946L15.4969 25.7046L30.9576 42.2843L34.6144 38.8743ZM15.6203 22.1712L8.30672 28.9912L11.7167 32.648L19.0303 25.828L15.6203 22.1712ZM8.18333 32.5246L26.111 51.7497L29.7678 48.3397L11.8401 29.1146L8.18333 32.5246ZM25.4394 50.0447V77.4237H30.4394V50.0447H25.4394ZM27.9394 79.9237H53.2649V74.9237H27.9394V79.9237ZM55.7649 77.4237V50.0363H50.7649V77.4237H55.7649ZM55.0933 51.7413L72.9285 32.6154L69.2717 29.2054L51.4365 48.3313L55.0933 51.7413ZM72.8051 29.082L65.4915 22.262L62.0816 25.9188L69.3951 32.7388L72.8051 29.082ZM61.9582 22.3854L46.6358 38.8167L50.2925 42.2267L65.6149 25.7954L61.9582 22.3854Z" fill="#301320"/>
<circle cx="40.5996" cy="34.3412" r="10" stroke="#301320" stroke-width="5"/>
<path d="M45.0664 11.324C45.0664 11.324 47.2997 12.0906 50.4997 15.324C53.6997 18.524 54.4997 20.7573 54.4997 20.7573C54.4997 20.7573 55.2664 18.524 58.4997 15.324C61.6997 12.124 63.9331 11.324 63.9331 11.324C63.9331 11.324 61.6997 10.5573 58.4997 7.32396C55.2664 4.12396 54.4997 1.89062 54.4997 1.89062C54.4997 1.89062 53.7331 4.12396 50.4997 7.32396C47.2997 10.524 45.0664 11.324 45.0664 11.324Z" stroke="#301320" stroke-width="5" stroke-linejoin="bevel"/>
<path d="M6.07227 61.324C6.07227 61.324 8.3056 62.0906 11.5056 65.324C14.7056 68.524 15.5056 70.7573 15.5056 70.7573C15.5056 70.7573 16.2723 68.524 19.5056 65.324C22.7056 62.124 24.9389 61.324 24.9389 61.324C24.9389 61.324 22.7056 60.5573 19.5056 57.324C16.2723 54.124 15.5056 51.8906 15.5056 51.8906C15.5056 51.8906 14.7389 54.124 11.5056 57.324C8.3056 60.524 6.07227 61.324 6.07227 61.324Z" stroke="#301320" stroke-width="5" stroke-linejoin="bevel"/>
<path d="M27.2666 66.3389H53.9333" stroke="#301320" stroke-width="5"/>
</svg>
