<svg width="81" height="81" viewBox="0 0 81 81" fill="none" xmlns="http://www.w3.org/2000/svg">
<circle cx="40.3734" cy="53.2653" r="4.15853" stroke="#301320" stroke-width="5"/>
<path d="M40.375 36.4011L40.375 51.7498" stroke="#301320" stroke-width="5"/>
<path d="M25.0752 63.4104L38.8925 54.0905" stroke="#301320" stroke-width="5"/>
<path d="M55.6709 63.4104L41.8536 54.0905" stroke="#301320" stroke-width="5"/>
<circle cx="66.7243" cy="51.3757" r="6.67155" stroke="#301320" stroke-width="5"/>
<path d="M69.5037 57.7765C74.2616 59.0094 77.7751 63.3321 77.7751 68.4755V75.1837H55.6719V68.4755C55.6719 63.3321 59.1854 59.0094 63.9433 57.7765" stroke="#301320" stroke-width="5"/>
<circle cx="14.026" cy="51.3756" r="6.67155" stroke="#301320" stroke-width="5"/>
<path d="M16.8045 57.7764C21.5624 59.0093 25.0759 63.332 25.0759 68.4754V75.1837H2.97266V68.4754C2.97266 63.332 6.4862 59.0093 11.2441 57.7764" stroke="#301320" stroke-width="5"/>
<circle cx="40.3737" cy="12.5931" r="6.67155" stroke="#301320" stroke-width="5"/>
<path d="M43.1522 18.9939C47.91 20.2268 51.4236 24.5495 51.4236 29.6929V36.4012H29.3203V29.6929C29.3203 24.5495 32.8339 20.2268 37.5917 18.9939" stroke="#301320" stroke-width="5"/>
</svg>
