<?xml version="1.0" encoding="utf-8"?>
<!-- Generator: Adobe Illustrator 27.0.0, SVG Export Plug-In . SVG Version: 6.00 Build 0)  -->
<svg version="1.1" id="Livello_1" xmlns="http://www.w3.org/2000/svg" xmlns:xlink="http://www.w3.org/1999/xlink" x="0px" y="0px"
	 viewBox="0 0 82 82" style="enable-background:new 0 0 82 82;" xml:space="preserve">
<style type="text/css">
	.st0{fill:#301320;}
</style>
<path class="st0" d="M42.2,80.3L41,81l-1.3-0.7L27.1,73v-3.2H12.4V56.1L0.9,49.5V34.9v-1.4l1.2-0.8l10.2-5.9V12.4h14.7v-2l0-1.4
	l1.3-0.7L41,0.8l12.7,7.3l1.2,0.8l0,1.4v2h14.7v14.5l10.2,5.9l1.2,0.7v1.5v14.6l-11.4,6.6v13.7H54.9V73L42.2,80.3z M32.1,70.1
	l6.4,3.7v-7.4l-6.4-3.7V70.1z M43.5,66.4v7.4l6.4-3.7v-7.4L43.5,66.4z M54.9,64.8h9.7v-8.7l-11.4-6.6V34.9l0-1.4l1.3-0.8l10.2-5.9
	v-9.5h-9.7v7.6l-12.7,7.3L41,33l-1.2-0.7l-12.7-7.3v-7.6h-9.7v9.5l10.2,5.9l1.2,0.7l0.1,1.4v14.6l-11.4,6.6v8.7h9.7v-6.4L27,56.9
	l1.3-0.7L41,48.9l12.7,7.3l1.2,0.8l0,1.4V64.8z M34.6,58.4l6.4,3.7l6.4-3.7L41,54.7L34.6,58.4z M58.2,46.7l6.4,3.7v-7.4l-6.4-3.7
	V46.7z M17.4,42.9v7.4l6.4-3.7v-7.4L17.4,42.9z M69.7,42.9v7.4l6.4-3.7v-7.4L69.7,42.9z M5.9,46.7l6.4,3.7v-7.4l-6.4-3.7V46.7z
	 M60.7,34.9l6.4,3.7l6.4-3.7l-6.4-3.7L60.7,34.9z M8.4,34.9l6.4,3.7l6.4-3.7l-6.4-3.7L8.4,34.9z M32.1,22.1l6.4,3.7v-7.4l-6.4-3.7
	V22.1z M43.5,18.3v7.4l6.4-3.7v-7.4L43.5,18.3z M41,16.9L41,16.9z M34.6,10.3L41,14l6.4-3.7L41,6.6L34.6,10.3z"/>
</svg>
