<svg width="82" height="82" viewBox="0 0 82 82" fill="none" xmlns="http://www.w3.org/2000/svg">
<path d="M67.1504 29.2234V14.8505H52.2988M14.8525 29.2234V14.8505H29.7041M52.7756 67.3172H67.1484V52.4657M29.2264 67.3172H14.8535L14.8535 52.4657M52.4217 10.3067L40.998 3.71118L29.5742 10.3067M52.4217 10.3067V23.4977L40.998 30.0932M52.4217 10.3067L40.998 16.9022M40.998 30.0932L29.5742 23.4977V10.3067M40.998 30.0932V16.9022M29.5742 10.3067L40.998 16.9022M52.4217 58.3733L40.998 51.7778L29.5742 58.3733M52.4217 58.3733V71.5643L40.998 78.1598M52.4217 58.3733L40.998 64.9688M40.998 78.1598L29.5742 71.5643V58.3733M40.998 78.1598V64.9688M29.5742 58.3733L40.998 64.9688M78.5741 34.9041L67.1503 28.3086L55.7266 34.9041M78.5741 34.9041V48.0951L67.1503 54.6906M78.5741 34.9041L67.1503 41.4996M67.1503 54.6906L55.7266 48.0951V34.9041M67.1503 54.6906V41.4996M55.7266 34.9041L67.1503 41.4996M26.2753 34.9041L14.8515 28.3086L3.42773 34.9041M26.2753 34.9041V48.0951L14.8515 54.6906M26.2753 34.9041L14.8515 41.4996M14.8515 54.6906L3.42773 48.0951V34.9041M14.8515 54.6906V41.4996M3.42773 34.9041L14.8515 41.4996" stroke="white" stroke-width="5"/>
</svg>
