<svg width="32" height="32" viewBox="0 0 32 32" fill="none" xmlns="http://www.w3.org/2000/svg">
<g clip-path="url(#clip0_2508_5118)">
<rect width="32" height="32" rx="8" fill="#213147"/>
<path fill-rule="evenodd" clip-rule="evenodd" d="M16 2.49414C16.3545 2.49414 16.7091 2.58796 17.0304 2.77017L26.9752 8.49185C27.6066 8.85634 27.9999 9.5354 28 10.2642V21.7183C28 22.4528 27.6124 23.127 26.9752 23.4915L17.0248 29.2181C16.709 29.4003 16.3545 29.4941 16 29.4941C15.6455 29.4941 15.291 29.4003 14.9752 29.2181L5.02478 23.4915C4.3932 23.127 4 22.4473 4 21.7183V10.2642C4.00008 9.53543 4.39343 8.86211 5.02478 8.49762L14.9752 2.77017C15.291 2.58799 15.6455 2.49414 16 2.49414ZM16 4.16763C15.9392 4.16763 15.8727 4.184 15.8173 4.21707L5.86692 9.94452C5.75079 10.0108 5.67869 10.1319 5.67861 10.2642V21.7241C5.67868 21.8564 5.75078 21.9774 5.86692 22.0438L7.3952 22.9238L12.2201 9.74017C12.281 9.56345 12.4528 9.44766 12.6412 9.44766H15.1619C15.3222 9.44791 15.4272 9.60174 15.3777 9.74512L10.0048 24.4267L10.0073 24.4283L10.3386 23.5244L11.2988 24.3204L16.636 9.74017C16.6969 9.56354 16.8689 9.44778 17.0571 9.44766H19.5779C19.733 9.44766 19.844 9.60182 19.7888 9.75089L13.6506 26.5262L15.8117 27.7712C15.8726 27.8043 15.9336 27.8206 16 27.8206C16.0664 27.8206 16.133 27.8043 16.1883 27.7712L18.3704 26.5138L16.6983 21.9391C16.6596 21.8398 16.6596 21.7295 16.6983 21.6301L18.0116 18.0458C18.0836 17.8471 18.3606 17.8471 18.4327 18.0458L20.9793 25.0109L22.0145 24.4143L18.903 15.9084C18.8643 15.8091 18.8643 15.6988 18.903 15.5995L20.2163 12.0152C20.2883 11.8164 20.5654 11.8164 20.6374 12.0152L24.6234 22.9114L26.1387 22.0388C26.2551 21.9726 26.327 21.8508 26.327 21.7183V10.2642C26.327 10.1319 26.2548 10.0108 26.1387 9.94452L16.1883 4.21707C16.1274 4.18396 16.0664 4.16763 16 4.16763Z" fill="#F8FCFC"/>
</g>
<defs>
<clipPath id="clip0_2508_5118">
<rect width="32" height="32" rx="8" fill="white"/>
</clipPath>
</defs>
</svg>
