<svg width="32" height="32" viewBox="0 0 32 32" fill="none" xmlns="http://www.w3.org/2000/svg">
<g clip-path="url(#clip0_2508_5068)">
<g clip-path="url(#clip1_2508_5068)">
<path d="M0 2.528C0 1.6621 0 1.22914 0.163156 0.896098C0.319372 0.577222 0.577222 0.319372 0.896098 0.163156C1.22914 0 1.6621 0 2.528 0H29.472C30.3379 0 30.7709 0 31.1039 0.163156C31.4227 0.319372 31.6806 0.577222 31.8368 0.896098C32 1.22914 32 1.6621 32 2.528V29.472C32 30.3379 32 30.7709 31.8368 31.1039C31.6806 31.4227 31.4227 31.6806 31.1039 31.8368C30.7709 32 30.3379 32 29.472 32H2.528C1.6621 32 1.22914 32 0.896098 31.8368C0.577222 31.6806 0.319372 31.4227 0.163156 31.1039C0 30.7709 0 30.3379 0 29.472V2.528Z" fill="#0000FF"/>
</g>
</g>
<defs>
<clipPath id="clip0_2508_5068">
<rect width="32" height="32" rx="8" fill="white"/>
</clipPath>
<clipPath id="clip1_2508_5068">
<rect width="32" height="32" fill="white"/>
</clipPath>
</defs>
</svg>
