<svg width="32" height="32" viewBox="0 0 32 32" fill="none" xmlns="http://www.w3.org/2000/svg">
<rect width="32" height="32" rx="8" fill="#182232"/>
<path d="M26 12.582V27.9407H19.5751V23.4177C19.5751 21.4305 17.9649 19.8194 15.9866 19.8194C14.0082 19.8194 12.3981 21.4305 12.3981 23.4177V27.9407H6V12.582H9.7445V14.8012C9.7445 15.7509 10.5152 16.5189 11.4607 16.5189C12.4062 16.5189 13.177 15.7509 13.177 14.8012V12.582H18.7937V14.7918C18.7937 15.7415 19.5645 16.5095 20.5099 16.5095C21.4554 16.5095 22.2262 15.7415 22.2262 14.7918V12.582H26Z" fill="#7F8CFF"/>
<path d="M15.1133 4.48673V14.0169H16.783V9.74414C16.783 9.74414 17.2096 8.86656 18.7649 9.25368C20.8231 9.766 23.3589 9.41883 24.9867 6.47262C20.0539 8.0973 19.9218 2.51426 15.1133 4.48673Z" fill="#7F8CFF"/>
</svg>
