<svg width="32" height="32" viewBox="0 0 32 32" fill="none" xmlns="http://www.w3.org/2000/svg">
<g clip-path="url(#clip0_2508_5093)">
<rect width="32" height="32" fill="black"/>
<path fill-rule="evenodd" clip-rule="evenodd" d="M5.52432 6.5798C11.829 2.97479 19.4153 3.92292 22.5546 4.88332C23.1399 5.06238 23.4684 5.67942 23.2884 6.26154C23.1084 6.84364 22.4879 7.17038 21.9026 6.99132C19.0787 6.1274 12.1963 5.3088 6.62961 8.4918C6.50713 8.56184 6.43826 8.69008 6.44471 8.8237C6.65617 13.2024 8.94456 21.5583 16.8286 25.926C17.3636 26.2224 17.5557 26.894 17.2577 27.426C16.9597 27.958 16.2845 28.1491 15.7495 27.8527C6.93699 22.9707 4.46102 13.7196 4.22969 8.9295C4.18301 7.96279 4.68655 7.05883 5.52432 6.5798Z" fill="#F8FCFC"/>
<path fill-rule="evenodd" clip-rule="evenodd" d="M26.577 6.49031C27.1885 6.45836 27.7103 6.92548 27.7424 7.53367C28.1643 15.5192 23.9953 21.376 21.3082 23.8534C20.6344 24.4745 19.6281 24.7168 18.7074 24.3232C16.7972 23.5063 14.9482 21.7879 13.4466 20.074C11.9227 18.3348 10.6504 16.4758 9.90858 15.2277C9.59697 14.7035 9.77169 14.0272 10.2988 13.7174C10.826 13.4074 11.5059 13.5812 11.8176 14.1055C12.4993 15.2523 13.694 16.9994 15.1185 18.6252C16.5652 20.2764 18.1455 21.6822 19.5834 22.297C19.6228 22.3139 19.7078 22.3215 19.8006 22.2359C22.1534 20.0668 25.906 14.8044 25.5279 7.64939C25.4958 7.04121 25.9654 6.52226 26.577 6.49031Z" fill="#F8FCFC"/>
<path fill-rule="evenodd" clip-rule="evenodd" d="M14.6611 10.7226C12.6835 10.9255 11.0329 11.3982 10.1738 11.7482C9.60712 11.9791 8.95958 11.7093 8.72748 11.1457C8.49538 10.5822 8.7666 9.93814 9.33327 9.7073C10.4021 9.27191 12.2606 8.75166 14.4336 8.5288C16.6081 8.30577 19.1728 8.37267 21.6151 9.17912C22.6635 9.5253 23.4019 10.5263 23.3253 11.677C23.1665 14.0626 22.0657 16.5018 19.8727 19.2971C19.496 19.7772 18.7992 19.8628 18.3165 19.4881C17.8336 19.1135 17.7476 18.4205 18.1243 17.9403C20.1661 15.3378 20.9939 13.3135 21.1125 11.5313C21.1189 11.4367 21.059 11.3194 20.9163 11.2722C18.8645 10.5947 16.6372 10.52 14.6611 10.7226Z" fill="#F8FCFC"/>
<path fill-rule="evenodd" clip-rule="evenodd" d="M5.623 6.52374C5.59012 6.54226 5.55713 6.56104 5.52432 6.5798C5.52294 6.58059 5.5217 6.58124 5.52031 6.58204C5.48884 6.6001 5.45785 6.61877 5.42733 6.63803C4.648 7.12977 4.18484 8.00075 4.22969 8.9295C4.46102 13.7196 6.93699 22.9707 15.7495 27.8527C16.2845 28.1491 16.9597 27.958 17.2577 27.426C17.5557 26.894 17.3636 26.2224 16.8286 25.926C8.94456 21.5583 6.65617 13.2024 6.44471 8.8237C6.43826 8.69008 6.50713 8.56184 6.62961 8.4918C12.1963 5.3088 19.0787 6.1274 21.9026 6.99132C22.4879 7.17038 23.1084 6.84364 23.2884 6.26154C23.4684 5.67942 23.1399 5.06238 22.5546 4.88332C19.4316 3.92792 11.9081 2.98451 5.623 6.52374ZM5.41149 6.38382C11.7917 2.73563 19.45 3.69706 22.6214 4.66729C23.3263 4.88295 23.7223 5.62631 23.5053 6.32785C23.2884 7.0293 22.541 7.42268 21.8362 7.20706C20.4487 6.7826 18.047 6.36507 15.3018 6.44956C12.5573 6.53403 9.4845 7.11977 6.74273 8.6875C6.69362 8.71558 6.66909 8.76425 6.67143 8.81271C6.88085 13.149 9.14987 21.4134 16.939 25.7285C17.5835 26.0855 17.8151 26.8947 17.4559 27.5358C17.097 28.1769 16.2836 28.4069 15.6393 28.05C6.73175 23.1152 4.23661 13.7723 4.00325 8.94021C3.95244 7.88803 4.5006 6.90466 5.41149 6.38382ZM26.5661 6.26459C27.3025 6.22611 27.9312 6.78867 27.97 7.52163C28.3963 15.5924 24.1845 21.51 21.4633 24.0189C20.7305 24.6945 19.6301 24.9629 18.6189 24.5305C16.6603 23.693 14.7838 21.9427 13.2766 20.2223C11.7426 18.4714 10.4623 16.601 9.71435 15.3426C9.33884 14.7108 9.54949 13.896 10.1845 13.5227C10.8194 13.1495 11.6383 13.3586 12.0137 13.9902C12.6893 15.1268 13.8762 16.8624 15.2904 18.4765C16.7203 20.1086 18.2603 21.4738 19.6414 22.0753C19.6432 22.0739 19.6453 22.0721 19.6474 22.07C21.966 19.9325 25.6759 14.7311 25.3024 7.66108C25.2637 6.9281 25.8297 6.30308 26.5661 6.26459ZM14.6856 10.9471C12.7279 11.1479 11.0986 11.6159 10.2609 11.9571C9.57852 12.2351 8.79849 11.9103 8.51883 11.2313C8.23911 10.5521 8.56607 9.77616 9.2486 9.49812C10.3389 9.05399 12.2187 8.52889 14.4116 8.30398C16.6064 8.07888 19.2056 8.14498 21.6877 8.9646C22.8282 9.34118 23.6367 10.4323 23.5529 11.6919C23.3899 14.1393 22.2611 16.621 20.0527 19.436C19.5989 20.0143 18.7597 20.1173 18.1782 19.666C17.5966 19.2147 17.4929 18.3797 17.9468 17.8012C19.9724 15.2193 20.7723 13.2379 20.8873 11.5181C20.8873 11.5181 20.8864 11.5145 20.8838 11.5105C20.8805 11.5058 20.8713 11.4948 20.8461 11.4864C18.8342 10.8221 16.6414 10.7466 14.6856 10.9471ZM26.578 6.49013C27.1895 6.45817 27.7113 6.9253 27.7434 7.53349C28.1653 15.519 23.9963 21.3758 21.3092 23.8532C20.6354 24.4744 19.6291 24.7167 18.7084 24.323C16.7981 23.5061 14.9492 21.7877 13.4475 20.0738C11.9237 18.3346 10.6514 16.4757 9.90958 15.2276C9.59796 14.7033 9.77269 14.0271 10.2998 13.7172C10.827 13.4072 11.5069 13.581 11.8186 14.1053C12.5003 15.2522 13.695 16.9992 15.1194 18.625C16.5662 20.2762 18.1465 21.682 19.5843 22.2968C19.6238 22.3137 19.7088 22.3214 19.8016 22.2358C22.1544 20.0666 25.9069 14.8042 25.5289 7.64921C25.4968 7.04103 25.9664 6.52208 26.578 6.49013ZM10.175 11.7481C11.0342 11.3981 12.6848 10.9253 14.6623 10.7225C16.6384 10.5198 18.8658 10.5946 20.9176 11.2721C21.0602 11.3192 21.1201 11.4365 21.1138 11.5312C20.9952 13.3134 20.1674 15.3377 18.1256 17.9402C17.7489 18.4203 17.8349 19.1133 18.3177 19.488C18.8005 19.8626 19.4972 19.7771 19.8739 19.2969C22.0669 16.5017 23.1677 14.0625 23.3265 11.6769C23.4031 10.5262 22.6647 9.52514 21.6163 9.17896C19.174 8.37252 16.6094 8.30561 14.4348 8.52864C12.2618 8.7515 10.4034 9.27175 9.33451 9.70715C8.76783 9.93798 8.49661 10.582 8.72871 11.1456C8.96082 11.7092 9.60835 11.9789 10.175 11.7481Z" fill="#F8FCFC"/>
</g>
<defs>
<clipPath id="clip0_2508_5093">
<rect width="32" height="32" rx="8" fill="white"/>
</clipPath>
</defs>
</svg>
