<svg width="32" height="32" viewBox="0 0 32 32" fill="none" xmlns="http://www.w3.org/2000/svg">
<g clip-path="url(#clip0_2508_5113)">
<rect width="32" height="32" fill="#E7E2CD"/>
<path d="M6.94422 16.88C7.28743 16.9136 7.59111 16.6548 7.62319 16.3044C7.93582 12.8676 10.2391 9.97887 13.393 8.92843C13.8056 9.9888 14.8173 10.7384 16.0007 10.7384C17.5503 10.7384 18.8061 9.45366 18.8061 7.86884C18.8061 6.28327 17.5503 5 16.0007 5C14.451 5 13.3117 6.17029 13.2042 7.6528C9.47954 8.80324 6.74799 12.1683 6.38164 16.186C6.34881 16.5372 6.60174 16.8487 6.94422 16.88Z" fill="black"/>
<path d="M25.4364 19.2512C25.5864 18.5565 25.6625 17.8412 25.6625 17.1159C25.6625 13.7967 24.0531 10.7584 21.4186 8.9308C21.1328 8.73307 20.7463 8.80865 20.5531 9.10027C20.359 9.39189 20.4329 9.78809 20.7187 9.98581C23.0145 11.579 24.4164 14.225 24.4164 17.1159C24.4164 17.6488 24.3688 18.1771 24.2762 18.6924C23.119 18.4412 21.8863 18.9611 21.2649 20.0657C20.4904 21.4375 20.95 23.1925 22.2915 23.9857C23.6331 24.7773 25.3484 24.3079 26.1244 22.9353C26.8287 21.6871 26.5108 20.1199 25.4364 19.2527V19.2512Z" fill="black"/>
<path d="M19.736 24.8304C18.5847 25.4152 17.3141 25.7236 15.9994 25.7236C13.8693 25.7236 11.8666 24.9113 10.3356 23.483C11.175 22.5853 11.3742 21.1952 10.7355 20.0646C9.96105 18.6927 8.24496 18.2224 6.90343 19.0141C5.56191 19.8073 5.10155 21.5615 5.87602 22.9342C6.56619 24.1586 8.00546 24.664 9.25969 24.1991C11.0474 25.9793 13.4439 27 15.9994 27C17.5081 27 18.9675 26.6458 20.2911 25.9733C20.5992 25.816 20.7253 25.4335 20.5717 25.1182C20.418 24.8022 20.0449 24.6739 19.736 24.8304Z" fill="black"/>
</g>
<defs>
<clipPath id="clip0_2508_5113">
<rect width="32" height="32" rx="8" fill="white"/>
</clipPath>
</defs>
</svg>
