<svg width="32" height="32" viewBox="0 0 32 32" fill="none" xmlns="http://www.w3.org/2000/svg">
<rect width="32" height="32" rx="8" fill="black"/>
<g clip-path="url(#clip0_2508_5103)">
<path d="M18.2439 14.3148C18.2439 13.0868 17.2485 12.0913 16.0204 12.0913C14.7924 12.0913 13.7969 13.0868 13.7969 14.3148C13.7969 15.1741 14.2851 15.9181 14.9986 16.2883L14.1745 19.8518H17.8662L17.0422 16.2883C17.7557 15.9181 18.2439 15.1741 18.2439 14.3148Z" fill="#F8FCFC"/>
<path d="M24.7185 18.7737C24.2866 22.1267 21.4157 24.7264 17.9471 24.7264H14.096C10.3301 24.7264 7.26638 21.6626 7.26638 17.8968V14.0458C7.26638 10.2799 10.3301 7.21616 14.096 7.21616H17.9471C21.4157 7.21616 24.2865 9.81604 24.7185 13.169H27C26.5574 8.5633 22.6668 4.94971 17.9471 4.94971H14.096C9.08043 4.94971 5 9.03022 5 14.0458V17.8968C5 22.9124 9.08044 26.9929 14.096 26.9929H17.9471C22.6668 26.9929 26.5574 23.3792 27 18.7737H24.7185Z" fill="#F8FCFC"/>
</g>
<defs>
<clipPath id="clip0_2508_5103">
<rect width="22" height="22.1009" fill="white" transform="translate(5 4.94971)"/>
</clipPath>
</defs>
</svg>
