<svg width="32" height="32" viewBox="0 0 32 32" fill="none" xmlns="http://www.w3.org/2000/svg">
<g clip-path="url(#clip0_2508_5078)">
<g clip-path="url(#clip1_2508_5078)">
<rect width="32" height="32" fill="#0080BC"/>
<path d="M32 16C32 7.16344 24.8366 0 16 0C7.16344 0 0 7.16344 0 16C0 24.8366 7.16344 32 16 32C24.8366 32 32 24.8366 32 16Z" fill="#0080BC"/>
<path d="M15.7548 5.57351L9.8653 15.2297C9.81913 15.3054 9.7118 15.3139 9.65452 15.2461C9.13602 14.6326 7.20441 12.0229 9.59458 9.64426C11.7757 7.47377 14.5538 5.92622 15.5834 5.39137C15.7002 5.3307 15.8232 5.46145 15.7548 5.57351Z" fill="#F6F6F6"/>
<path d="M15.4297 26.598C15.5472 26.68 15.6921 26.5402 15.6133 26.4208C14.2978 24.4271 9.92486 17.7935 9.32079 16.7978C8.72499 15.8156 7.55311 14.1832 7.45535 12.7867C7.44559 12.6473 7.25212 12.619 7.20345 12.7501C7.12495 12.9615 7.0414 13.2139 6.96351 13.5022C5.98031 17.1415 7.40822 21.0034 10.5093 23.1663L15.4297 26.5981V26.598Z" fill="#F6F6F6"/>
<path d="M16.2384 26.4266L22.1279 16.7704C22.1741 16.6947 22.2814 16.6862 22.3387 16.7541C22.8572 17.3675 24.7888 19.9772 22.3986 22.3558C20.2175 24.5264 17.4395 26.0739 16.4099 26.6087C16.2931 26.6694 16.17 26.5387 16.2384 26.4266Z" fill="#F6F6F6"/>
<path d="M16.5693 5.40053C16.4518 5.31854 16.307 5.45835 16.3857 5.57774C17.7012 7.57147 22.0741 14.205 22.6782 15.2008C23.274 16.183 24.4459 17.8153 24.5436 19.2118C24.5534 19.3512 24.7469 19.3796 24.7955 19.2485C24.874 19.037 24.9576 18.7846 25.0355 18.4963C26.0187 14.857 24.5908 10.9952 21.4897 8.8323L16.5693 5.40053Z" fill="#F6F6F6"/>
</g>
</g>
<defs>
<clipPath id="clip0_2508_5078">
<rect width="32" height="32" rx="8" fill="white"/>
</clipPath>
<clipPath id="clip1_2508_5078">
<rect width="32" height="32" fill="white"/>
</clipPath>
</defs>
</svg>
