<svg width="32" height="32" viewBox="0 0 32 32" fill="none" xmlns="http://www.w3.org/2000/svg">
<rect width="32" height="32" rx="8" fill="#222839"/>
<path d="M16.7469 9.7085C15.9924 9.78236 15.2968 10.1464 14.808 10.7231C14.3193 11.2998 14.0761 12.0435 14.1303 12.796C14.1431 12.9962 14.0998 13.1961 14.0054 13.3735C13.9111 13.5508 13.7693 13.6987 13.5957 13.8008C13.4197 13.9077 13.2173 13.964 13.0111 13.9634C12.8158 13.9591 12.6249 13.9045 12.4571 13.8049C11.9944 13.5139 11.4586 13.3586 10.9112 13.3569C10.7973 13.3591 10.6835 13.3673 10.5705 13.3818C9.85653 13.4934 9.20994 13.8655 8.75664 14.4256C8.30334 14.9857 8.0758 15.6936 8.11833 16.4115C8.16086 17.1294 8.47041 17.8058 8.9867 18.309C9.50299 18.8122 10.189 19.1061 10.9112 19.1336C11.0037 19.1357 11.0963 19.1316 11.1882 19.1212C11.8631 19.0568 12.4942 18.7599 12.9725 18.2817C13.4507 17.8035 13.7461 17.1742 13.8076 16.5023C13.8201 16.3491 13.8201 16.1951 13.8076 16.042C13.7947 15.8415 13.838 15.6414 13.9326 15.464C14.0273 15.2866 14.1696 15.1388 14.3436 15.0372C14.5154 14.9315 14.7138 14.8766 14.9157 14.8786C15.1119 14.8771 15.3044 14.9322 15.4698 15.0372C15.9362 15.3283 16.4761 15.4817 17.0267 15.4796C17.1402 15.4858 17.254 15.4858 17.3675 15.4796C18.0967 15.3844 18.7626 15.018 19.2312 14.4539C19.6998 13.8899 19.9363 13.1702 19.8931 12.4397C19.8499 11.7091 19.5303 11.022 18.9984 10.5165C18.4666 10.0111 17.7621 9.72481 17.0267 9.71539C16.9345 9.70931 16.842 9.70931 16.7497 9.71539" fill="#FCD15A"/>
<path d="M22.8663 13.3648C22.1116 13.4386 21.4157 13.8029 20.9269 14.3799C20.4381 14.9569 20.1951 15.701 20.2497 16.4537C20.2596 16.6506 20.2162 16.8464 20.1241 17.021C20.032 17.1955 19.8946 17.3423 19.7261 17.4461L19.7136 17.4585C19.5378 17.5652 19.335 17.6197 19.1291 17.6156C18.934 17.6109 18.7433 17.5568 18.575 17.4585C18.1225 17.1705 17.5983 17.0137 17.0612 17.0055C16.5241 16.9973 15.9954 17.1381 15.5341 17.4122C15.073 17.6862 14.6976 18.0826 14.4501 18.557C14.2026 19.0314 14.0927 19.565 14.1328 20.098C14.1455 20.2983 14.1023 20.4981 14.0079 20.6754C13.9136 20.8528 13.7717 21.0007 13.5981 21.1028C13.4208 21.2117 13.2164 21.269 13.008 21.2682C12.8127 21.2638 12.6218 21.2092 12.454 21.1097C11.9913 20.8186 11.4555 20.6633 10.9081 20.6617C10.7942 20.6638 10.6804 20.6721 10.5674 20.6865C9.84779 20.7909 9.19361 21.1597 8.73372 21.7202C8.27383 22.2807 8.04161 22.9923 8.0828 23.7147C8.12399 24.4371 8.43562 25.118 8.95627 25.6232C9.47692 26.1283 10.1688 26.4211 10.8957 26.4438C10.9882 26.4458 11.0807 26.4416 11.1727 26.4314C11.8459 26.3666 12.475 26.0691 12.9508 25.5907C13.4265 25.1122 13.7187 24.4831 13.7768 23.8126C13.7893 23.6598 13.7893 23.5064 13.7768 23.3536C13.766 23.155 13.8103 22.9572 13.9048 22.7819C13.9994 22.6067 14.1406 22.4606 14.3129 22.3598L14.3253 22.3474C14.5022 22.2411 14.706 22.1875 14.9127 22.1931C15.1086 22.1919 15.3008 22.2464 15.4667 22.3502C15.9291 22.642 16.4651 22.7974 17.0126 22.7981C17.122 22.7981 17.2314 22.7871 17.3409 22.7871C18.0889 22.712 18.7773 22.3474 19.2577 21.7719C19.7381 21.1965 19.972 20.4562 19.9089 19.7107C19.9008 19.56 19.9238 19.4093 19.9765 19.2679C20.0292 19.1264 20.1106 18.9972 20.2155 18.8883C20.3204 18.7794 20.4467 18.6931 20.5864 18.6347C20.7262 18.5763 20.8766 18.547 21.0282 18.5487C21.2241 18.5475 21.4164 18.6021 21.5822 18.7058C22.0446 18.9975 22.5806 19.1528 23.1281 19.1538C23.242 19.1517 23.3558 19.1434 23.4688 19.129C24.1981 19.0339 24.8639 18.6674 25.3326 18.1034C25.8011 17.5393 26.0377 16.8197 25.9945 16.0891C25.9513 15.3586 25.6316 14.6714 25.0998 14.1659C24.568 13.6605 23.8635 13.3742 23.1281 13.3648C23.0394 13.3524 22.9494 13.3524 22.8607 13.3648" fill="#FCD15A"/>
<path d="M13.0129 10.6417L12.8896 10.0421H12.9021C12.9516 10.0225 12.9966 9.99322 13.0345 9.95604C13.0725 9.91886 13.1026 9.87452 13.1231 9.82561C13.1436 9.77671 13.1541 9.72422 13.154 9.67123C13.1539 9.61824 13.1431 9.5658 13.1224 9.517L13.5892 9.21101C13.6141 9.23582 13.639 9.24822 13.6515 9.27165L13.0739 10.6555C13.0545 10.6476 13.0338 10.6434 13.0129 10.6431V10.6417ZM13.024 8.45017L13.4908 8.75616C13.4548 8.85501 13.4548 8.96329 13.4908 9.06215L13.024 9.36676C12.9531 9.29753 12.8597 9.25585 12.7606 9.24928C12.6615 9.24271 12.5633 9.27167 12.4838 9.33092L12.2386 9.11039C12.2802 9.0494 12.3025 8.97737 12.3025 8.90364C12.3025 8.82991 12.2802 8.75788 12.2386 8.69689L12.4838 8.47635C12.556 8.52788 12.6416 8.55755 12.7304 8.56181C12.7844 8.56598 12.8388 8.55827 12.8895 8.53922C12.9403 8.52016 12.9862 8.49023 13.024 8.45154V8.45017ZM11.8328 7.4495L11.9062 7.41228L12.4104 7.9264C12.3687 7.98069 12.3422 8.04496 12.3334 8.11271C12.3247 8.18046 12.334 8.24932 12.3605 8.31234C12.373 8.33576 12.373 8.34817 12.3854 8.37298L12.1444 8.588C12.0762 8.53556 11.993 8.50608 11.9068 8.50385C11.8207 8.50162 11.736 8.52675 11.6652 8.57559L11.2496 8.1621C11.2987 8.09159 11.3239 8.00736 11.3217 7.92162C11.3195 7.83587 11.2898 7.75307 11.2371 7.68519L11.4712 7.41642C11.525 7.45202 11.5866 7.47402 11.6508 7.4805C11.715 7.48699 11.7799 7.47776 11.8397 7.45363L11.8328 7.4495ZM13.1057 8.32198C13.1263 8.27297 13.1368 8.22038 13.1368 8.16728C13.1368 8.11418 13.1261 8.06161 13.1055 8.01263C13.0849 7.96365 13.0547 7.91924 13.0167 7.88195C12.9787 7.84467 12.9336 7.81527 12.8841 7.79546H12.8647L12.988 7.17245C13.0131 7.17442 13.0383 7.17016 13.0614 7.16004L13.6266 8.57559C13.6016 8.588 13.5781 8.61143 13.5531 8.62384L13.1057 8.32198ZM9.00148 7.21931C9.05134 7.19588 9.19817 7.12145 9.22311 7.00016L9.77717 7.10904C9.77517 7.19159 9.79323 7.27339 9.82981 7.3475L9.32699 7.84232C9.25973 7.79484 9.17952 7.76888 9.09705 7.76789L9.00148 7.21931ZM12.0059 7.30339C12.0562 7.22744 12.0818 7.13794 12.0793 7.04702L12.6209 6.92435C12.6401 6.9723 12.6692 7.01566 12.7065 7.05154C12.7437 7.08742 12.7882 7.11501 12.837 7.13248L12.7179 7.761C12.6636 7.76271 12.6097 7.77057 12.5572 7.78443C12.5354 7.79431 12.515 7.80681 12.4963 7.82165L12.0059 7.30339ZM11.0598 6.33856L11.3784 6.79616C11.3122 6.86646 11.2733 6.95793 11.2688 7.05417C11.2642 7.15041 11.2942 7.24512 11.3535 7.32131L11.1208 7.59698C11.0573 7.5616 10.9858 7.54303 10.913 7.54303C10.8403 7.54303 10.7687 7.5616 10.7052 7.59698L10.4933 7.3475C10.5528 7.2684 10.582 7.1707 10.5754 7.07209C10.5687 6.97347 10.5269 6.88048 10.4573 6.80995L10.7593 6.35096C10.7992 6.36406 10.8406 6.37193 10.8825 6.37439C10.9417 6.37506 11.0004 6.36283 11.0543 6.33856H11.0598ZM9.23557 6.8513V6.77825L10.5556 6.20348C10.5792 6.22829 10.6041 6.26413 10.6291 6.28894L10.3215 6.75344C10.2722 6.73237 10.219 6.72137 10.1653 6.7211C10.1116 6.72082 10.0583 6.73128 10.0087 6.75184C9.95916 6.7724 9.91421 6.80266 9.87658 6.84081C9.83894 6.87897 9.80938 6.92424 9.78964 6.97397L9.23557 6.8513ZM11.1748 6.2531C11.1957 6.2317 11.2122 6.20641 11.2233 6.17867L12.5877 6.69279V6.77825L12.0475 6.91608C12.0265 6.86779 11.9962 6.82408 11.9583 6.78747C11.9203 6.75086 11.8755 6.72206 11.8263 6.70273C11.7772 6.68339 11.7246 6.6739 11.6718 6.6748C11.6189 6.67569 11.5668 6.68696 11.5183 6.70795H11.5059L11.1748 6.2531ZM10.8798 5.56393C10.7861 5.56546 10.6959 5.59906 10.6242 5.65906C10.5526 5.71906 10.5039 5.80181 10.4864 5.89336C10.4739 5.95011 10.4739 6.00889 10.4864 6.06565L9.17878 6.63214C9.16234 6.60442 9.1418 6.57933 9.11783 6.55771C9.03778 6.50492 8.94181 6.48134 8.84626 6.491C8.7507 6.50066 8.66146 6.54296 8.59371 6.6107C8.52596 6.67844 8.48389 6.76744 8.47464 6.86257C8.46539 6.95769 8.48954 7.05307 8.54299 7.13248C8.55545 7.14488 8.56792 7.15729 8.58039 7.15729C8.2525 7.57756 8.05123 8.08182 8 8.61143V8.90502C8 9.68 8.30939 10.4232 8.8601 10.9712C9.41081 11.5192 10.1577 11.8271 10.9366 11.8271C11.0348 11.8247 11.1328 11.8169 11.2302 11.8037C11.7784 11.7453 12.2987 11.533 12.7304 11.1917C12.7304 11.2041 12.7414 11.2041 12.7414 11.2165C12.8066 11.2814 12.8951 11.3178 12.9873 11.3178C13.0795 11.3178 13.168 11.2814 13.2332 11.2165C13.2984 11.1516 13.335 11.0636 13.335 10.9718C13.335 10.8801 13.2984 10.7921 13.2332 10.7272C13.2192 10.7122 13.2028 10.6996 13.1847 10.69L13.7623 9.31163C13.8649 9.33262 13.9716 9.31337 14.0602 9.25791C14.1488 9.20245 14.2125 9.11506 14.2378 9.014C14.2632 8.91295 14.2484 8.80604 14.1964 8.71561C14.1445 8.62518 14.0594 8.55823 13.959 8.52873H13.9451C13.9132 8.5197 13.88 8.51597 13.8468 8.51771C13.8218 8.51583 13.7967 8.51959 13.7734 8.52873L13.2082 7.10767C13.2659 7.08627 13.318 7.05242 13.3608 7.00855C13.4037 6.96468 13.4363 6.91189 13.4562 6.85399C13.476 6.79608 13.4828 6.73451 13.4758 6.6737C13.4689 6.6129 13.4485 6.55439 13.4161 6.50238C13.3837 6.45038 13.3401 6.40617 13.2885 6.37296C13.2368 6.33975 13.1784 6.31836 13.1174 6.31034C13.0565 6.30232 12.9945 6.30786 12.9359 6.32656C12.8774 6.34527 12.8237 6.37666 12.7788 6.4185C12.7211 6.45127 12.6733 6.49888 12.6403 6.55633L11.2801 6.03257C11.2905 5.9811 11.2904 5.92808 11.2798 5.87664C11.2693 5.8252 11.2485 5.77639 11.2187 5.73309C11.1888 5.68978 11.1506 5.65287 11.1062 5.62453C11.0618 5.59619 11.0121 5.57699 10.9601 5.56807C10.9366 5.56807 10.9116 5.55566 10.8867 5.55566L10.8798 5.56393Z" fill="#FCD15A"/>
</svg>
