<svg width="32" height="32" viewBox="0 0 32 32" fill="none" xmlns="http://www.w3.org/2000/svg">
<g clip-path="url(#clip0_2508_5073)">
<rect width="32" height="32" fill="#FF2670"/>
<path d="M15.9986 8.45595C18.5404 8.45595 20.6008 7.2346 20.6008 5.72798C20.6008 4.22136 18.5404 3 15.9986 3C13.457 3 11.3965 4.22136 11.3965 5.72798C11.3965 7.2346 13.457 8.45595 15.9986 8.45595Z" fill="#F8FCFC"/>
<path d="M15.9986 29C18.5404 29 20.6008 27.7786 20.6008 26.272C20.6008 24.7654 18.5404 23.544 15.9986 23.544C13.457 23.544 11.3965 24.7654 11.3965 26.272C11.3965 27.7786 13.457 29 15.9986 29Z" fill="#F8FCFC"/>
<path d="M9.58551 12.228C10.8564 9.98581 10.8485 7.55767 9.56786 6.80455C8.28724 6.05143 6.21886 7.25853 4.948 9.50067C3.67714 11.7428 3.68504 14.1709 4.96566 14.9241C6.24627 15.6772 8.31465 14.4701 9.58551 12.228Z" fill="#F8FCFC"/>
<path d="M27.0521 22.4997C28.323 20.2575 28.3148 17.8292 27.0339 17.076C25.753 16.3226 23.6843 17.5295 22.4135 19.7717C21.1426 22.0138 21.1508 24.4421 22.4317 25.1955C23.7126 25.9488 25.7812 24.7418 27.0521 22.4997Z" fill="#F8FCFC"/>
<path d="M9.56827 25.1958C10.8492 24.4426 10.8574 22.0143 9.58652 19.7721C8.31565 17.53 6.24701 16.323 4.96607 17.0763C3.68514 17.8296 3.67697 20.2579 4.94783 22.5001C6.21869 24.7422 8.28734 25.9492 9.56827 25.1958Z" fill="#F8FCFC"/>
<path d="M27.0339 14.9231C28.3149 14.1698 28.323 11.7415 27.0521 9.49934C25.7813 7.2572 23.7126 6.05025 22.4317 6.80356C21.1508 7.55687 21.1426 9.98517 22.4135 12.2273C23.6843 14.4695 25.753 15.6764 27.0339 14.9231Z" fill="#F8FCFC"/>
</g>
<defs>
<clipPath id="clip0_2508_5073">
<rect width="32" height="32" rx="8" fill="white"/>
</clipPath>
</defs>
</svg>
