<svg width="360" height="216" viewBox="0 0 360 216" fill="none" xmlns="http://www.w3.org/2000/svg">
<path d="M73.4416 166L41.3359 119.694L47.9974 115.076L73.4506 151.79L98.9487 115.076L105.601 119.694L73.4416 166Z" fill="#FE304C"/>
<path d="M69.3725 128.948V98.6693H77.4743V115.228L96.347 104.827L63.9668 54.3795L70.7858 50L107.843 107.739L69.3725 128.948Z" fill="#FE304C"/>
<path d="M62.6122 120.756L39 107.739L65.0653 67.1309L71.8843 71.5058L50.5001 104.827L66.5191 113.658L62.6122 120.756Z" fill="#FE304C"/>
<path d="M131.502 119.401H151.235V126.134H123.162V89.8789H150.56V96.6124H131.498V119.401H131.502ZM130.877 104.431H148.332V111.007H130.877V104.431Z" fill="#FE304C"/>
<path d="M165.426 126.134V96.7159H153.822V89.8789H185.419V96.7159H173.816V126.134H165.426Z" fill="#FE304C"/>
<path d="M198.368 126.134H189.924V89.8789H198.368V126.134ZM215.408 111.268H197.693V104.17H215.408V111.268ZM214.787 89.8789H223.177V126.134H214.787V89.8789Z" fill="#FE304C"/>
<path d="M249.127 126.391C246.436 126.391 243.938 125.932 241.642 125.018C239.347 124.105 237.353 122.817 235.66 121.161C233.968 119.505 232.658 117.56 231.722 115.332C230.79 113.104 230.322 110.665 230.322 108.005C230.322 105.345 230.79 102.905 231.722 100.677C232.654 98.449 233.977 96.5091 235.683 94.8527C237.393 93.1963 239.387 91.9091 241.665 90.9954C243.942 90.0817 246.431 89.6226 249.123 89.6226C251.815 89.6226 254.07 90.0366 256.298 90.8648C258.526 91.693 260.434 92.9533 262.023 94.6457L260.366 96.356C258.814 94.8392 257.094 93.741 255.213 93.0658C253.331 92.3907 251.337 92.0576 249.231 92.0576C246.917 92.0576 244.766 92.4537 242.781 93.2504C240.796 94.047 239.068 95.1678 237.6 96.6171C236.133 98.0664 234.994 99.7588 234.184 101.694C233.374 103.63 232.969 105.736 232.969 108.014C232.969 110.291 233.374 112.398 234.184 114.333C234.994 116.268 236.133 117.956 237.6 119.41C239.068 120.859 240.796 121.985 242.781 122.777C244.766 123.574 246.917 123.97 249.231 123.97C251.337 123.97 253.331 123.632 255.213 122.961C257.094 122.286 258.814 121.175 260.366 119.622L262.023 121.332C260.434 123.024 258.526 124.294 256.298 125.14C254.07 125.986 251.68 126.409 249.123 126.409L249.127 126.391Z" fill="#FE304C"/>
<path d="M270.051 126.135V87.7007H272.639V126.135H270.051Z" fill="#FE304C"/>
<path d="M294.549 126.342C292.235 126.342 290.232 125.919 288.54 125.073C286.848 124.226 285.542 122.948 284.629 121.238C283.715 119.527 283.256 117.412 283.256 114.891V99.0928H285.844V114.684C285.844 117.722 286.623 120.036 288.175 121.625C289.728 123.214 291.92 124.006 294.751 124.006C296.79 124.006 298.55 123.574 300.036 122.71C301.521 121.845 302.66 120.63 303.456 119.059C304.249 117.488 304.649 115.634 304.649 113.491V99.0928H307.237V126.13H304.753V118.618L305.117 119.5C304.321 121.607 303.002 123.272 301.156 124.501C299.311 125.725 297.105 126.337 294.553 126.337L294.549 126.342Z" fill="#FE304C"/>
<path d="M313.766 136.388C312.695 136.388 311.66 136.239 310.66 135.947C309.661 135.654 308.828 135.195 308.176 134.574L309.211 132.657C310.35 133.656 311.817 134.16 313.613 134.16C315.166 134.16 316.368 133.692 317.214 132.76C318.06 131.828 318.483 130.483 318.483 128.718V99.0927H321.071V128.822C321.071 131.099 320.441 132.931 319.181 134.313C317.92 135.695 316.116 136.383 313.766 136.383V136.388ZM319.775 92.5167C319.185 92.5167 318.686 92.3097 318.272 91.8956C317.857 91.4815 317.65 90.9999 317.65 90.4462C317.65 89.8611 317.857 89.357 318.272 88.9429C318.686 88.5288 319.185 88.3218 319.775 88.3218C320.396 88.3218 320.905 88.5198 321.301 88.9159C321.697 89.312 321.895 89.8071 321.895 90.3922C321.895 90.9774 321.697 91.4815 321.301 91.8956C320.905 92.3097 320.396 92.5167 319.775 92.5167Z" fill="#FE304C"/>
</svg>
