<svg width="360" height="217" viewBox="0 0 360 217" fill="none" xmlns="http://www.w3.org/2000/svg">
<path d="M107.328 109.667L83.7431 150.522L70.2979 173.813L57.0017 150.781L33.2676 109.667L70.2979 45.54L107.328 109.667Z" fill="#CBE4FA" stroke="#1615AF" stroke-width="3.34049" stroke-miterlimit="10"/>
<path d="M101.751 119.188C91.6235 137.039 81.4956 154.889 71.3677 172.739L71.3101 172.825L71.2525 172.739L57.283 151.989C51.8671 142.663 46.4511 133.337 41.0352 124.011C41.0573 124.036 41.0795 124.061 41.1017 124.086C45.5203 121.081 51.0034 119.464 56.6443 119.502L85.5752 119.706C86.6988 119.679 87.8857 119.611 89.1272 119.487C92.9391 119.106 96.2258 118.305 98.9019 117.435C99.8517 118.019 100.802 118.604 101.751 119.188Z" fill="#B0D5F3"/>
<path d="M60.5453 76.8838C63.3296 76.8838 65.5867 74.6267 65.5867 71.8424C65.5867 69.0581 63.3296 66.801 60.5453 66.801C57.761 66.801 55.5039 69.0581 55.5039 71.8424C55.5039 74.6267 57.761 76.8838 60.5453 76.8838Z" fill="white"/>
<path d="M65.5863 71.8428C68.3706 71.8428 70.6278 69.5857 70.6278 66.8014C70.6278 64.0171 68.3706 61.76 65.5863 61.76C62.802 61.76 60.5449 64.0171 60.5449 66.8014C60.5449 69.5857 62.802 71.8428 65.5863 71.8428Z" fill="white"/>
<path d="M69.7484 76.0079C72.5327 76.0079 74.7899 73.7508 74.7899 70.9665C74.7899 68.1822 72.5327 65.925 69.7484 65.925C66.9641 65.925 64.707 68.1822 64.707 70.9665C64.707 73.7508 66.9641 76.0079 69.7484 76.0079Z" fill="white"/>
<path d="M94.1899 110.53C96.9741 110.53 99.2313 108.272 99.2313 105.488C99.2313 102.704 96.9741 100.447 94.1899 100.447C91.4056 100.447 89.1484 102.704 89.1484 105.488C89.1484 108.272 91.4056 110.53 94.1899 110.53Z" fill="white"/>
<path d="M56.3438 150.735V130.146H84.4004V150.477L70.2975 174.907L56.3438 150.735Z" fill="#836BAE"/>
<path d="M83.7421 130.805V150.302L70.2969 173.593L57.0007 150.56V130.805H83.7421ZM85.0573 129.49H55.6855V150.913L55.8617 151.218L69.1579 174.251L70.2969 176.224L71.4359 174.251L84.8811 150.959L85.0573 150.654V129.49Z" fill="#1615AF"/>
<path d="M84.4023 117.874H56.3457V129.431H84.4023V117.874Z" fill="#836BAE"/>
<path d="M83.7441 118.532V128.775H57.0027V118.532H83.7441ZM85.0592 117.217H55.6875V130.09H85.0592V117.217Z" fill="#1615AF"/>
<path d="M83.5258 108.166H57.2227V115.618H83.5258V108.166Z" fill="#836BAE"/>
<path d="M82.8675 108.825V114.962H57.8796V108.825H82.8675ZM84.1826 107.51H56.5645V116.277H84.1826V107.51Z" fill="#1615AF"/>
<path d="M71.0456 56.9359C71.0456 56.5727 70.7512 56.2783 70.388 56.2783C70.0249 56.2783 69.7305 56.5727 69.7305 56.9359V91.9841C69.7305 92.3473 70.0249 92.6417 70.388 92.6417C70.7512 92.6417 71.0456 92.3473 71.0456 91.9841V56.9359Z" fill="#1615AF"/>
<path d="M60.291 114.415V112.962C60.291 112.548 60.6274 112.212 61.0409 112.212H61.7372C62.1507 112.212 62.4871 112.548 62.4871 112.962V114.415H60.291Z" fill="#836BAE"/>
<path d="M61.7366 112.871C61.7875 112.871 61.829 112.912 61.829 112.963V113.758H60.948V112.963C60.948 112.912 60.9894 112.871 61.0403 112.871H61.7366ZM61.7366 111.556H61.0403C60.263 111.556 59.6328 112.186 59.6328 112.963V114.551C59.6328 114.84 59.8668 115.074 60.1554 115.074H62.6215C62.9101 115.074 63.1441 114.84 63.1441 114.551V112.963C63.1441 112.186 62.5139 111.556 61.7366 111.556Z" fill="#1615AF"/>
<path d="M64.7832 114.415V112.298C64.7832 111.885 65.1196 111.548 65.5331 111.548H66.2294C66.6429 111.548 66.9792 111.885 66.9792 112.298V114.415H64.7832Z" fill="#836BAE"/>
<path d="M66.2288 112.207C66.2797 112.207 66.3211 112.249 66.3211 112.3V113.759H65.4401V112.3C65.4401 112.249 65.4816 112.207 65.5325 112.207H66.2288ZM66.2288 110.892H65.5325C64.7552 110.892 64.125 111.522 64.125 112.3V114.551C64.125 114.84 64.359 115.074 64.6476 115.074H67.1137C67.4023 115.074 67.6363 114.84 67.6363 114.551V112.3C67.6363 111.522 67.0061 110.892 66.2288 110.892Z" fill="#1615AF"/>
<path d="M69.2754 114.415V111.767C69.2754 111.354 69.6118 111.018 70.0253 111.018H70.7216C71.1351 111.018 71.4715 111.354 71.4715 111.767V114.415H69.2754Z" fill="#836BAE"/>
<path d="M70.721 111.676C70.7719 111.676 70.8133 111.718 70.8133 111.769V113.759H69.9323V111.769C69.9323 111.718 69.9738 111.676 70.0247 111.676H70.721ZM70.721 110.361H70.0247C69.2473 110.361 68.6172 110.991 68.6172 111.769V114.551C68.6172 114.84 68.8512 115.074 69.1398 115.074H71.6059C71.8945 115.074 72.1285 114.84 72.1285 114.551V111.769C72.1285 110.991 71.4983 110.361 70.721 110.361Z" fill="#1615AF"/>
<path d="M73.7676 114.415V112.298C73.7676 111.885 74.104 111.548 74.5175 111.548H75.2138C75.6273 111.548 75.9637 111.885 75.9637 112.298V114.415H73.7676Z" fill="#836BAE"/>
<path d="M75.2132 112.207C75.2641 112.207 75.3055 112.249 75.3055 112.3V113.759H74.4245V112.3C74.4245 112.249 74.466 112.207 74.5169 112.207H75.2132ZM75.2132 110.892H74.5169C73.7395 110.892 73.1094 111.522 73.1094 112.3V114.551C73.1094 114.84 73.3434 115.074 73.632 115.074H76.0981C76.3867 115.074 76.6207 114.84 76.6207 114.551V112.3C76.6207 111.522 75.9905 110.892 75.2132 110.892Z" fill="#1615AF"/>
<path d="M78.2598 114.415V112.962C78.2598 112.548 78.5962 112.212 79.0097 112.212H79.706C80.1195 112.212 80.4559 112.548 80.4559 112.962V114.415H78.2598Z" fill="#836BAE"/>
<path d="M79.7054 112.871C79.7563 112.871 79.7977 112.912 79.7977 112.963V113.758H78.9167V112.963C78.9167 112.912 78.9581 112.871 79.0091 112.871H79.7054ZM79.7054 111.556H79.0091C78.2317 111.556 77.6016 112.186 77.6016 112.963V114.551C77.6016 114.84 77.8356 115.074 78.1242 115.074H80.5902C80.8789 115.074 81.1129 114.84 81.1129 114.551V112.963C81.1129 112.186 80.4827 111.556 79.7054 111.556Z" fill="#1615AF"/>
<path d="M79.0097 134.919C78.5962 134.919 78.2598 134.583 78.2598 134.17V132.717H80.4559V134.17C80.4559 134.583 80.1195 134.919 79.706 134.919H79.0097Z" fill="#836BAE"/>
<path d="M79.7977 133.376V134.171C79.7977 134.222 79.7563 134.263 79.7054 134.263H79.0091C78.9581 134.263 78.9167 134.222 78.9167 134.171V133.376H79.7977ZM80.5902 132.061L78.1242 132.061C77.8356 132.061 77.6016 132.295 77.6016 132.583V134.171C77.6016 134.948 78.2317 135.578 79.0091 135.578H79.7054C80.4827 135.578 81.1129 134.948 81.1129 134.171V132.583C81.1129 132.295 80.8789 132.061 80.5902 132.061Z" fill="#1615AF"/>
<path d="M74.5175 135.583C74.104 135.583 73.7676 135.247 73.7676 134.833V132.717H75.9637V134.833C75.9637 135.247 75.6274 135.583 75.2139 135.583H74.5175Z" fill="#836BAE"/>
<path d="M75.3055 133.375L75.3055 134.834C75.3055 134.885 75.2641 134.927 75.2132 134.927H74.5169C74.466 134.927 74.4245 134.885 74.4245 134.834V133.375H75.3055ZM76.0981 132.06H73.632C73.3434 132.06 73.1094 132.294 73.1094 132.583L73.1094 134.834C73.1094 135.612 73.7395 136.242 74.5169 136.242H75.2132C75.9905 136.242 76.6207 135.612 76.6207 134.834L76.6207 132.583C76.6207 132.294 76.3867 132.06 76.0981 132.06Z" fill="#1615AF"/>
<path d="M70.0253 136.114C69.6118 136.114 69.2754 135.778 69.2754 135.364V132.717H71.4715V135.364C71.4715 135.778 71.1351 136.114 70.7216 136.114H70.0253Z" fill="#836BAE"/>
<path d="M70.8133 133.376V135.366C70.8133 135.417 70.7719 135.458 70.721 135.458H70.0247C69.9738 135.458 69.9323 135.417 69.9323 135.366V133.376H70.8133ZM71.6059 132.061H69.1398C68.8512 132.061 68.6172 132.295 68.6172 132.583V135.366C68.6172 136.143 69.2473 136.773 70.0247 136.773H70.721C71.4983 136.773 72.1285 136.143 72.1285 135.366V132.583C72.1285 132.295 71.8945 132.061 71.6059 132.061Z" fill="#1615AF"/>
<path d="M65.5331 135.583C65.1196 135.583 64.7832 135.247 64.7832 134.833V132.717H66.9792V134.833C66.9792 135.247 66.6429 135.583 66.2294 135.583H65.5331Z" fill="#836BAE"/>
<path d="M66.3211 133.376V134.835C66.3211 134.886 66.2797 134.927 66.2288 134.927H65.5325C65.4816 134.927 65.4401 134.886 65.4401 134.835V133.376H66.3211ZM67.1137 132.061H64.6476C64.359 132.061 64.125 132.295 64.125 132.583V134.835C64.125 135.612 64.7552 136.242 65.5325 136.242H66.2288C67.0061 136.242 67.6363 135.612 67.6363 134.835V132.583C67.6363 132.295 67.4023 132.061 67.1137 132.061Z" fill="#1615AF"/>
<path d="M61.0409 134.919C60.6274 134.919 60.291 134.583 60.291 134.169V132.717H62.4871V134.169C62.4871 134.583 62.1507 134.919 61.7372 134.919H61.0409Z" fill="#836BAE"/>
<path d="M61.829 133.375V134.171C61.829 134.222 61.7875 134.263 61.7366 134.263H61.0403C60.9894 134.263 60.948 134.222 60.948 134.171V133.375H61.829ZM62.6215 132.06H60.1554C59.8668 132.06 59.6328 132.294 59.6328 132.583V134.171C59.6328 134.948 60.263 135.578 61.0403 135.578H61.7366C62.514 135.578 63.1441 134.948 63.1441 134.171V132.583C63.1441 132.294 62.9101 132.06 62.6215 132.06Z" fill="#1615AF"/>
<path d="M61.8656 127.267H59.3008C58.9998 127.267 58.7559 127.023 58.7559 126.722V124.358C58.7559 123.547 59.4129 122.89 60.2234 122.89H60.9429C61.7534 122.89 62.4105 123.547 62.4105 124.358V126.722C62.4105 127.023 62.1665 127.267 61.8656 127.267Z" fill="#1615AF"/>
<path d="M66.7601 127.267H64.1953C63.8943 127.267 63.6504 127.023 63.6504 126.722V123.531C63.6504 122.721 64.3074 122.064 65.1179 122.064H65.8375C66.648 122.064 67.305 122.721 67.305 123.531V126.722C67.305 127.023 67.061 127.267 66.7601 127.267Z" fill="#1615AF"/>
<path d="M71.5924 127.342H69.152C68.8167 127.342 68.5449 127.07 68.5449 126.735V121.699C68.5449 120.796 69.2769 120.064 70.1799 120.064H70.5646C71.4675 120.064 72.1995 120.796 72.1995 121.699V126.735C72.1995 127.07 71.9277 127.342 71.5924 127.342Z" fill="#1615AF"/>
<path d="M76.9886 127.267H74.4238C74.1229 127.267 73.8789 127.023 73.8789 126.722V123.531C73.8789 122.721 74.5359 122.064 75.3464 122.064H76.066C76.8765 122.064 77.5335 122.721 77.5335 123.531V126.722C77.5335 127.023 77.2895 127.267 76.9886 127.267Z" fill="#1615AF"/>
<path d="M82.3226 127.267H79.7578C79.4569 127.267 79.2129 127.023 79.2129 126.722V124.358C79.2129 123.547 79.8699 122.89 80.6804 122.89H81.4C82.2105 122.89 82.8675 123.547 82.8675 124.358V126.722C82.8675 127.023 82.6235 127.267 82.3226 127.267Z" fill="#1615AF"/>
<path d="M70.3731 82.7998L56.3105 108.03H84.4356L70.3731 82.7998Z" fill="#1914B2"/>
<path d="M54.4219 127.854H86.3272C87.0052 127.854 87.5557 128.404 87.5557 129.082V129.231C87.5557 129.909 87.0052 130.459 86.3271 130.459H54.4219C53.7439 130.459 53.1934 129.909 53.1934 129.231V129.082C53.1934 128.404 53.7438 127.854 54.4219 127.854Z" fill="#836BAE"/>
<path d="M86.3266 128.512C86.642 128.512 86.8976 128.768 86.8976 129.083V129.232C86.8976 129.547 86.642 129.803 86.3266 129.803H54.4213C54.1059 129.803 53.8503 129.547 53.8503 129.232V129.083C53.8503 128.768 54.1059 128.512 54.4213 128.512H86.3266ZM86.3266 127.197H54.4213C53.3813 127.197 52.5352 128.043 52.5352 129.083V129.232C52.5352 130.272 53.3813 131.118 54.4213 131.118H86.3266C87.3666 131.118 88.2128 130.272 88.2128 129.232V129.083C88.2128 128.043 87.3666 127.197 86.3266 127.197Z" fill="#1615AF"/>
<path d="M56.1427 114.263H84.6032C85.2641 114.263 85.8007 114.799 85.8007 115.46V115.671C85.8007 116.332 85.2641 116.868 84.6032 116.868H56.1428C55.4819 116.868 54.9453 116.332 54.9453 115.671V115.46C54.9453 114.799 55.4819 114.263 56.1427 114.263Z" fill="#836BAE"/>
<path d="M84.6026 114.922C84.9008 114.922 85.1425 115.164 85.1425 115.462V115.672C85.1425 115.971 84.9008 116.212 84.6026 116.212H56.1421C55.8439 116.212 55.6023 115.971 55.6023 115.672V115.462C55.6023 115.164 55.8439 114.922 56.1421 114.922H84.6026ZM84.6026 113.607H56.1421C55.1192 113.607 54.2871 114.439 54.2871 115.462V115.672C54.2871 116.695 55.1192 117.527 56.1421 117.527H84.6026C85.6255 117.527 86.4576 116.695 86.4576 115.672V115.462C86.4576 114.439 85.6255 113.607 84.6026 113.607Z" fill="#1615AF"/>
<path d="M84.6033 105.714H56.1427C55.4814 105.714 54.9453 106.25 54.9453 106.911V107.122C54.9453 107.783 55.4814 108.319 56.1427 108.319H84.6033C85.2646 108.319 85.8007 107.783 85.8007 107.122V106.911C85.8007 106.25 85.2646 105.714 84.6033 105.714Z" fill="#836BAE"/>
<path d="M84.6026 106.373C84.9008 106.373 85.1425 106.614 85.1425 106.913V107.123C85.1425 107.422 84.9008 107.663 84.6026 107.663H56.1421C55.8439 107.663 55.6023 107.422 55.6023 107.123V106.913C55.6023 106.614 55.8439 106.373 56.1421 106.373H84.6026ZM84.6026 105.058H56.1421C55.1192 105.058 54.2871 105.89 54.2871 106.913V107.123C54.2871 108.146 55.1192 108.978 56.1421 108.978H84.6026C85.6255 108.978 86.4576 108.146 86.4576 107.123V106.913C86.4576 105.89 85.6255 105.058 84.6026 105.058Z" fill="#1615AF"/>
<path d="M78.7363 90.0321H82.9958C83.1702 90.0321 83.3374 89.9628 83.4607 89.8395L87.3029 85.9973" fill="#836BAE"/>
<path d="M83.2682 90.69H79.3938C79.0307 90.69 78.7363 90.3957 78.7363 90.0325V90.0324C78.7363 89.6693 79.0307 89.3749 79.3938 89.3749H82.7235C82.8978 89.3749 83.0651 89.3056 83.1884 89.1823L86.373 85.9978C86.6298 85.741 87.0461 85.741 87.3029 85.9978C87.5597 86.2545 87.5597 86.6708 87.3029 86.9276L83.7331 90.4975C83.6098 90.6208 83.4426 90.69 83.2682 90.69Z" fill="#1615AF"/>
<path d="M75.668 83.8997H79.9275C80.1018 83.8997 80.2691 83.8305 80.3924 83.7071L84.2346 79.865" fill="#836BAE"/>
<path d="M80.1999 84.5577H76.3255C75.9623 84.5577 75.668 84.2633 75.668 83.9002V83.9001C75.668 83.5369 75.9623 83.2426 76.3255 83.2426H79.6551C79.8295 83.2426 79.9967 83.1733 80.12 83.05L83.3047 79.8654C83.5615 79.6087 83.9778 79.6087 84.2346 79.8654C84.4913 80.1222 84.4913 80.5385 84.2346 80.7953L80.6648 84.3651C80.5415 84.4884 80.3743 84.5577 80.1999 84.5577Z" fill="#1615AF"/>
<path d="M51.1191 91.3504H55.3786C55.553 91.3504 55.7202 91.2811 55.8436 91.1578L59.6857 87.3157" fill="#836BAE"/>
<path d="M55.651 92.0084H51.7767C51.4135 92.0084 51.1191 91.714 51.1191 91.3509V91.3508C51.1191 90.9876 51.4135 90.6933 51.7767 90.6933H55.1063C55.2807 90.6933 55.4479 90.624 55.5712 90.5007L58.7559 87.3161C59.0126 87.0593 59.4289 87.0593 59.6857 87.3161C59.9425 87.5729 59.9425 87.9892 59.6857 88.246L56.116 91.8158C55.9927 91.9391 55.8254 92.0084 55.651 92.0084Z" fill="#1615AF"/>
<path d="M107.328 109.667L83.7431 150.522L70.2979 173.813L57.0017 150.781L33.2676 109.667L70.2979 45.54L107.328 109.667Z" stroke="#1615AF" stroke-width="3.34049" stroke-miterlimit="10"/>
<path d="M74.1905 79.7398L70.2632 86.5432L66.3359 79.7398L70.2632 72.9387L74.1905 79.7398Z" fill="#836BAE" stroke="#1615AF" stroke-width="2.33834" stroke-miterlimit="10"/>
<path d="M127.133 100.81C127.133 100.432 127.317 100.242 127.685 100.242H141.692C142.08 100.242 142.274 100.432 142.274 100.81V103.587C142.274 103.966 142.08 104.154 141.692 104.154H131.314V108.5H139.228C139.427 108.5 139.584 108.547 139.698 108.642C139.812 108.736 139.87 108.883 139.87 109.082V111.8C139.87 112.178 139.656 112.367 139.228 112.367H131.314V117.623H141.96C142.358 117.623 142.558 117.812 142.558 118.191V120.953C142.558 121.332 142.358 121.52 141.96 121.52H127.685C127.317 121.52 127.133 121.332 127.133 120.953V100.81Z" fill="#1914B2"/>
<path d="M145.5 100.803C145.5 100.425 145.689 100.236 146.067 100.236H161.403C161.771 100.236 161.955 100.425 161.955 100.803V103.506C161.955 103.894 161.771 104.088 161.403 104.088H155.758V120.961C155.758 121.34 155.569 121.529 155.191 121.529H152.115C151.736 121.529 151.547 121.34 151.547 120.961V104.088H146.067C145.689 104.088 145.5 103.894 145.5 103.506V100.803Z" fill="#1914B2"/>
<path d="M178.621 112.337H169.079V120.938C169.079 121.326 168.875 121.52 168.467 121.52H165.451C165.083 121.52 164.898 121.326 164.898 120.938V100.84C164.898 100.67 164.943 100.529 165.033 100.414C165.122 100.3 165.262 100.242 165.451 100.242H168.542C168.661 100.242 168.781 100.28 168.9 100.354C169.02 100.429 169.079 100.581 169.079 100.81V108.306H178.621V100.84C178.621 100.67 178.666 100.529 178.755 100.414C178.845 100.3 178.984 100.242 179.173 100.242H182.264C182.384 100.242 182.503 100.28 182.623 100.354C182.742 100.429 182.802 100.581 182.802 100.81V120.938C182.802 121.326 182.598 121.52 182.19 121.52H179.173C178.805 121.52 178.621 121.326 178.621 120.938V112.337Z" fill="#1914B2"/>
<path d="M185.744 100.84C185.744 100.442 185.933 100.242 186.312 100.242H189.343C189.721 100.242 189.91 100.442 189.91 100.84V120.938C189.91 121.326 189.721 121.52 189.343 121.52H186.312C185.933 121.52 185.744 121.326 185.744 120.938V100.84Z" fill="#836BAE"/>
<path d="M192.883 117.81C192.808 117.631 192.876 117.442 193.085 117.243L195.011 115.361C195.13 115.252 195.259 115.197 195.399 115.197C195.498 115.197 195.595 115.227 195.69 115.287C195.785 115.346 195.887 115.421 195.996 115.511C196.295 115.8 196.621 116.091 196.974 116.384C197.328 116.678 197.708 116.942 198.117 117.176C198.525 117.41 198.965 117.601 199.438 117.751C199.911 117.9 200.421 117.975 200.969 117.975C201.536 117.975 202.044 117.898 202.492 117.743C202.94 117.589 203.318 117.38 203.627 117.116C203.935 116.852 204.172 116.554 204.336 116.22C204.5 115.887 204.582 115.541 204.582 115.182C204.582 114.724 204.445 114.336 204.172 114.018C203.898 113.699 203.557 113.433 203.149 113.219C202.74 113.005 202.303 112.828 201.835 112.689C201.367 112.549 200.944 112.43 200.565 112.33C199.401 111.982 198.375 111.601 197.49 111.188C196.603 110.775 195.862 110.31 195.265 109.792C194.667 109.274 194.214 108.692 193.906 108.045C193.597 107.398 193.443 106.666 193.443 105.85C193.443 104.964 193.63 104.158 194.003 103.431C194.376 102.704 194.904 102.079 195.586 101.557C196.267 101.034 197.084 100.629 198.035 100.34C198.985 100.051 200.038 99.9067 201.193 99.9067C201.82 99.9067 202.439 99.9866 203.052 100.146C203.664 100.305 204.254 100.524 204.821 100.803C205.389 101.082 205.928 101.407 206.441 101.781C206.954 102.154 207.419 102.555 207.837 102.983C208.176 103.341 208.171 103.71 207.823 104.088L206.24 105.7C206.11 105.82 205.981 105.88 205.851 105.88C205.732 105.88 205.615 105.845 205.501 105.775C205.386 105.706 205.269 105.621 205.15 105.521C204.921 105.332 204.657 105.123 204.358 104.894C204.06 104.665 203.736 104.451 203.388 104.252C203.039 104.053 202.668 103.886 202.275 103.752C201.882 103.617 201.476 103.55 201.058 103.55C200.69 103.55 200.309 103.58 199.916 103.64C199.523 103.7 199.167 103.817 198.848 103.991C198.53 104.165 198.266 104.404 198.057 104.707C197.848 105.011 197.743 105.412 197.743 105.909C197.743 106.308 197.845 106.641 198.049 106.91C198.253 107.179 198.542 107.415 198.916 107.619C199.289 107.823 199.732 108.003 200.244 108.157C200.757 108.311 201.317 108.473 201.924 108.642C202.89 108.931 203.801 109.252 204.657 109.605C205.513 109.959 206.264 110.392 206.912 110.904C207.559 111.417 208.071 112.029 208.45 112.741C208.828 113.453 209.017 114.311 209.017 115.317C209.017 116.302 208.798 117.198 208.36 118.004C207.922 118.811 207.335 119.5 206.598 120.072C205.861 120.645 205.013 121.086 204.052 121.394C203.091 121.702 202.094 121.857 201.058 121.857C200.312 121.857 199.575 121.772 198.848 121.603C198.122 121.434 197.42 121.195 196.743 120.886C196.066 120.578 195.429 120.207 194.832 119.774C194.234 119.341 193.697 118.861 193.219 118.333C193.07 118.164 192.958 117.99 192.883 117.81Z" fill="#836BAE"/>
<path d="M211.959 100.803C211.959 100.425 212.148 100.236 212.526 100.236H227.862C228.23 100.236 228.414 100.425 228.414 100.803V103.506C228.414 103.894 228.23 104.088 227.862 104.088H222.217V120.961C222.217 121.34 222.028 121.529 221.65 121.529H218.574C218.195 121.529 218.006 121.34 218.006 120.961V104.088H212.526C212.148 104.088 211.959 103.894 211.959 103.506V100.803Z" fill="#836BAE"/>
<path d="M239.525 100.788C239.675 100.42 239.914 100.236 240.242 100.236H242.631C242.969 100.236 243.213 100.42 243.363 100.788L251.441 120.916C251.521 121.116 251.521 121.267 251.441 121.372C251.361 121.476 251.227 121.529 251.038 121.529H247.902C247.564 121.529 247.33 121.355 247.2 121.006L245.812 117.572H237.032L235.658 120.991C235.588 121.19 235.494 121.33 235.374 121.409C235.255 121.489 235.11 121.529 234.941 121.529H231.805C231.616 121.529 231.484 121.476 231.41 121.372C231.335 121.267 231.337 121.116 231.417 120.916L239.525 100.788ZM241.436 105.745L238.375 113.868H244.453L241.436 105.745Z" fill="#836BAE"/>
<path d="M258.475 106.447V120.946C258.475 121.334 258.271 121.529 257.863 121.529H254.996C254.627 121.529 254.443 121.334 254.443 120.946V100.803C254.443 100.664 254.488 100.534 254.578 100.415C254.667 100.295 254.807 100.236 254.996 100.236H258.341C258.669 100.236 258.953 100.415 259.192 100.773L268.808 114.615V100.803C268.808 100.644 268.855 100.509 268.95 100.4C269.044 100.29 269.191 100.236 269.39 100.236H272.242C272.382 100.236 272.519 100.288 272.653 100.392C272.787 100.497 272.855 100.634 272.855 100.803V120.946C272.855 121.334 272.65 121.529 272.242 121.529H269.211C269.052 121.529 268.902 121.489 268.763 121.409C268.624 121.33 268.489 121.195 268.36 121.006L258.475 106.447Z" fill="#836BAE"/>
<path d="M275.797 100.803C275.797 100.425 275.981 100.236 276.349 100.236H285.592C286.408 100.236 287.17 100.39 287.877 100.698C288.584 101.007 289.198 101.428 289.721 101.96C290.244 102.493 290.654 103.12 290.953 103.842C291.252 104.563 291.401 105.342 291.401 106.179C291.401 106.995 291.267 107.741 290.998 108.418C290.729 109.095 290.321 109.673 289.773 110.15C290.181 110.419 290.545 110.743 290.863 111.121C291.182 111.499 291.455 111.912 291.685 112.36C291.913 112.808 292.088 113.286 292.207 113.794C292.327 114.301 292.386 114.819 292.386 115.347C292.386 116.173 292.234 116.959 291.931 117.706C291.627 118.453 291.212 119.11 290.684 119.677C290.156 120.244 289.539 120.695 288.832 121.028C288.126 121.362 287.364 121.529 286.548 121.529H276.349C275.981 121.529 275.797 121.34 275.797 120.961V100.803ZM279.978 103.7V108.881H284.487C285.323 108.881 285.993 108.65 286.496 108.187C286.998 107.724 287.25 107.089 287.25 106.283C287.25 105.895 287.185 105.542 287.056 105.223C286.926 104.904 286.742 104.633 286.503 104.409C286.264 104.185 285.975 104.011 285.637 103.886C285.299 103.762 284.925 103.7 284.517 103.7H279.978ZM279.978 112.181V118.035H285.413C285.851 118.035 286.239 117.95 286.578 117.781C286.916 117.612 287.2 117.392 287.429 117.124C287.658 116.855 287.829 116.551 287.944 116.213C288.058 115.874 288.116 115.536 288.116 115.197C288.116 114.77 288.038 114.371 287.884 114.003C287.73 113.635 287.526 113.316 287.272 113.047C287.018 112.778 286.725 112.567 286.391 112.413C286.057 112.258 285.712 112.181 285.353 112.181H279.978Z" fill="#836BAE"/>
<path d="M299.541 112.911C299.541 113.728 299.668 114.447 299.922 115.069C300.175 115.691 300.519 116.216 300.952 116.644C301.385 117.072 301.89 117.396 302.468 117.615C303.045 117.834 303.652 117.943 304.289 117.943C304.946 117.943 305.563 117.824 306.141 117.585C306.718 117.346 307.223 117.008 307.656 116.57C308.09 116.132 308.43 115.604 308.679 114.987C308.928 114.37 309.053 113.678 309.053 112.911V100.667C309.053 100.498 309.105 100.356 309.209 100.242C309.314 100.127 309.461 100.07 309.65 100.07H312.636C312.835 100.07 312.987 100.129 313.092 100.249C313.196 100.368 313.248 100.508 313.248 100.667V112.896C313.248 114.43 313.007 115.748 312.524 116.853C312.041 117.958 311.392 118.869 310.576 119.586C309.759 120.303 308.808 120.833 307.724 121.176C306.639 121.52 305.494 121.691 304.289 121.691C303.085 121.691 301.94 121.517 300.855 121.169C299.77 120.82 298.819 120.283 298.003 119.556C297.187 118.83 296.537 117.911 296.054 116.801C295.571 115.691 295.33 114.375 295.33 112.852V100.652C295.33 100.493 295.377 100.356 295.472 100.242C295.566 100.127 295.693 100.07 295.853 100.07H298.988C299.207 100.07 299.354 100.125 299.429 100.234C299.503 100.344 299.541 100.483 299.541 100.652V112.911Z" fill="#836BAE"/>
<path d="M316.189 100.833C316.189 100.644 316.242 100.497 316.346 100.392C316.451 100.288 316.583 100.236 316.742 100.236H319.818C320.186 100.236 320.37 100.435 320.37 100.833V117.572H329.404C329.802 117.572 330.001 117.756 330.001 118.124V120.961C330.001 121.34 329.802 121.529 329.404 121.529H316.742C316.374 121.529 316.189 121.34 316.189 120.961V100.833Z" fill="#836BAE"/>
</svg>
