<svg width="360" height="217" viewBox="0 0 360 217" fill="none" xmlns="http://www.w3.org/2000/svg">
<g clip-path="url(#clip0_801_871)">
<mask id="mask0_801_871" style="mask-type:luminance" maskUnits="userSpaceOnUse" x="30" y="81" width="300" height="57">
<path d="M329.184 81.7119H30.7578V137.309H329.184V81.7119Z" fill="white"/>
</mask>
<g mask="url(#mask0_801_871)">
<path fill-rule="evenodd" clip-rule="evenodd" d="M73.2422 83.7977C72.5171 83.6565 71.7735 83.5835 71.02 83.5835H64.1279C59.9662 83.5835 56.1124 85.8106 53.9865 89.444L37.7768 117.149C33.6166 124.26 37.653 133.057 45.0443 134.901L73.2422 83.7977ZM53.0127 135.25H87.4273C96.6025 135.25 102.265 125.079 97.5365 117.094L81.1289 89.3892C80.6633 88.6031 80.1169 87.8837 79.504 87.2393L53.0127 135.25Z" fill="white"/>
<mask id="mask1_801_871" style="mask-type:luminance" maskUnits="userSpaceOnUse" x="122" y="86" width="208" height="47">
<path d="M329.3 86.5361H122.234V132.483H329.3V86.5361Z" fill="white"/>
</mask>
<g mask="url(#mask1_801_871)">
<mask id="mask2_801_871" style="mask-type:luminance" maskUnits="userSpaceOnUse" x="122" y="90" width="34" height="43">
<path d="M155.73 90.9497H122.234V132.478H155.73V90.9497Z" fill="white"/>
</mask>
<g mask="url(#mask2_801_871)">
<path d="M122.551 132.478V90.9897H138.781C141.925 90.9897 144.559 91.4252 146.682 92.296C148.805 93.1254 150.418 94.3901 151.52 96.0903C152.623 97.749 153.174 99.8431 153.174 102.373C153.174 104.197 152.765 105.69 151.949 106.851C151.173 108.012 150.214 108.945 149.07 109.65C147.968 110.314 146.927 110.894 145.947 111.392L145.028 109.65C146.906 109.816 148.621 110.334 150.173 111.205C151.766 112.035 153.031 113.196 153.97 114.689C154.909 116.181 155.379 118.006 155.379 120.162C155.379 123.023 154.705 125.366 153.358 127.191C152.051 129.016 150.254 130.363 147.968 131.234C145.722 132.063 143.17 132.478 140.312 132.478H122.551ZM130.88 125.76H139.883C141.108 125.76 142.252 125.594 143.313 125.263C144.375 124.931 145.232 124.33 145.886 123.459C146.539 122.588 146.866 121.386 146.866 119.851C146.866 118.649 146.661 117.695 146.253 116.99C145.845 116.244 145.294 115.684 144.599 115.311C143.905 114.896 143.13 114.626 142.272 114.502C141.455 114.336 140.598 114.253 139.7 114.253H130.88V125.76ZM130.88 107.784H139.455C140.312 107.784 141.149 107.66 141.966 107.411C142.782 107.121 143.436 106.644 143.926 105.98C144.457 105.275 144.722 104.301 144.722 103.057C144.722 101.025 144.171 99.6358 143.069 98.8894C141.966 98.143 140.557 97.7697 138.842 97.7697H130.88V107.784Z" fill="white"/>
</g>
<mask id="mask3_801_871" style="mask-type:luminance" maskUnits="userSpaceOnUse" x="160" y="99" width="29" height="34">
<path d="M188.792 99.7917H160.951V132.484H188.792V99.7917Z" fill="white"/>
</mask>
<g mask="url(#mask3_801_871)">
<path d="M175.063 132.092C172.205 132.092 169.714 131.635 167.591 130.723C165.509 129.77 163.876 128.36 162.692 126.494C161.548 124.628 160.977 122.243 160.977 119.341V99.8093H168.755V118.532C168.755 120.854 169.266 122.575 170.286 123.695C171.307 124.814 172.899 125.374 175.063 125.374C177.309 125.374 178.922 124.814 179.902 123.695C180.923 122.575 181.433 120.854 181.433 118.532V99.8093H188.782V119.341C188.782 123.653 187.558 126.867 185.108 128.982C182.699 131.055 179.351 132.092 175.063 132.092Z" fill="white"/>
</g>
<mask id="mask4_801_871" style="mask-type:luminance" maskUnits="userSpaceOnUse" x="194" y="89" width="9" height="44">
<path d="M202.712 89.6292H194.012V132.483H202.712V89.6292Z" fill="white"/>
</mask>
<g mask="url(#mask4_801_871)">
<path d="M194.567 132.485L194.383 99.7914H198.579H202.529L202.406 132.485H194.567ZM194.383 96.4702V90.0012H202.529V96.4702H194.383Z" fill="white"/>
</g>
<path d="M224.196 132.041C222.078 132.041 220.062 131.791 218.146 131.29C216.231 130.79 214.54 129.915 213.073 128.665C211.606 127.415 210.446 125.686 209.59 123.477C208.775 121.269 208.367 118.456 208.367 115.039C208.367 109.997 209.569 106.017 211.973 103.1C214.377 100.183 218.024 98.7246 222.913 98.7246C223.606 98.7246 224.503 98.808 225.603 98.9747C226.702 99.1413 227.823 99.433 228.964 99.8497C230.145 100.225 231.164 100.829 232.02 101.662L230.308 104.163V86.5359H237.948V123.727C237.948 125.144 237.541 126.373 236.726 127.415C235.951 128.457 234.892 129.332 233.547 130.04C232.203 130.707 230.716 131.207 229.086 131.54C227.457 131.873 225.827 132.041 224.196 132.041ZM224.441 125.29C226.112 125.29 227.497 125.081 228.597 124.665C229.738 124.248 230.308 123.644 230.308 122.852V106.85C229.412 106.309 228.454 105.913 227.436 105.663C226.417 105.413 225.439 105.288 224.503 105.288C222.628 105.288 221.08 105.642 219.858 106.35C218.635 107.017 217.718 108.101 217.107 109.601C216.496 111.059 216.19 112.934 216.19 115.226C216.19 117.226 216.435 118.977 216.924 120.477C217.412 121.977 218.248 123.165 219.43 124.04C220.652 124.873 222.322 125.29 224.441 125.29Z" fill="white"/>
<mask id="mask5_801_871" style="mask-type:luminance" maskUnits="userSpaceOnUse" x="243" y="86" width="8" height="47">
<path d="M250.998 86.5347H243.168V132.481H250.998V86.5347Z" fill="white"/>
</mask>
<g mask="url(#mask5_801_871)">
<path d="M250.998 132.029H243.168V85.1726H247.083H250.998V132.029Z" fill="white"/>
</g>
<mask id="mask6_801_871" style="mask-type:luminance" maskUnits="userSpaceOnUse" x="256" y="124" width="9" height="9">
<path d="M264.484 124.085H256.219V132.479H264.484V124.085Z" fill="white"/>
</mask>
<g mask="url(#mask6_801_871)">
<path d="M256.285 132.478V124.454H264.37V132.478H256.285Z" fill="white"/>
</g>
<mask id="mask7_801_871" style="mask-type:luminance" maskUnits="userSpaceOnUse" x="269" y="98" width="25" height="35">
<path d="M293.194 98.907H269.703V132.483H293.194V98.907Z" fill="white"/>
</mask>
<g mask="url(#mask7_801_871)">
<path d="M280.078 132.088C277.873 132.088 275.995 131.839 274.444 131.341C272.892 130.885 271.401 130.326 269.973 129.662V122.571C270.912 123.193 271.891 123.794 272.912 124.375C273.974 124.914 275.097 125.349 276.281 125.681C277.506 126.013 278.813 126.179 280.201 126.179C281.834 126.179 283.038 125.868 283.814 125.246C284.63 124.582 285.039 123.794 285.039 122.882C285.039 122.011 284.733 121.348 284.12 120.892C283.508 120.394 282.712 119.979 281.732 119.648C280.752 119.316 279.711 118.984 278.608 118.652C277.587 118.404 276.546 118.072 275.484 117.657C274.464 117.242 273.525 116.683 272.667 115.978C271.81 115.273 271.115 114.381 270.585 113.303C270.095 112.183 269.85 110.836 269.85 109.26C269.85 107.394 270.217 105.818 270.953 104.533C271.687 103.247 272.647 102.21 273.831 101.423C275.015 100.635 276.322 100.075 277.751 99.7432C279.18 99.37 280.568 99.1833 281.916 99.1833C284.243 99.2663 286.121 99.5565 287.55 100.054C288.979 100.51 290.327 101.112 291.593 101.858L291.654 108.265C290.225 107.477 288.836 106.772 287.489 106.15C286.141 105.486 284.611 105.155 282.896 105.155C281.303 105.155 280.058 105.445 279.159 106.025C278.302 106.565 277.873 107.332 277.873 108.327C277.873 109.198 278.139 109.903 278.67 110.442C279.201 110.981 279.894 111.396 280.752 111.686C281.609 111.976 282.548 112.266 283.569 112.557C284.59 112.847 285.652 113.179 286.754 113.552C287.857 113.884 288.877 114.381 289.817 115.045C290.755 115.708 291.511 116.6 292.082 117.719C292.695 118.798 293.001 120.249 293.001 122.073C292.96 124.479 292.327 126.428 291.103 127.92C289.878 129.372 288.265 130.429 286.264 131.093C284.304 131.757 282.243 132.088 280.078 132.088Z" fill="white"/>
</g>
<mask id="mask8_801_871" style="mask-type:luminance" maskUnits="userSpaceOnUse" x="298" y="98" width="32" height="35">
<path d="M329.298 98.907H298.412V132.483H329.298V98.907Z" fill="white"/>
</mask>
<g mask="url(#mask8_801_871)">
<path d="M313.797 132.091C308.734 132.091 304.936 130.66 302.405 127.799C299.873 124.937 298.607 120.811 298.607 115.421C298.607 109.657 299.894 105.468 302.466 102.856C305.079 100.243 308.836 98.9373 313.735 98.9373C317.166 98.9373 320.023 99.5593 322.31 100.803C324.597 102.006 326.291 103.83 327.393 106.277C328.537 108.724 329.108 111.772 329.108 115.421C329.108 120.811 327.781 124.937 325.128 127.799C322.514 130.66 318.737 132.091 313.797 132.091ZM313.797 125.622C315.593 125.622 317.043 125.207 318.145 124.378C319.288 123.548 320.126 122.387 320.657 120.894C321.187 119.36 321.453 117.535 321.453 115.421C321.453 113.057 321.167 111.129 320.595 109.636C320.064 108.143 319.227 107.044 318.084 106.339C316.981 105.634 315.552 105.282 313.797 105.282C312 105.282 310.551 105.655 309.448 106.401C308.346 107.148 307.529 108.267 306.998 109.76C306.508 111.253 306.263 113.14 306.263 115.421C306.263 118.738 306.856 121.268 308.04 123.009C309.224 124.751 311.143 125.622 313.797 125.622Z" fill="white"/>
</g>
</g>
</g>
</g>
<defs>
<clipPath id="clip0_801_871">
<rect width="298.426" height="55.5971" fill="white" transform="translate(30.7598 81.7102)"/>
</clipPath>
</defs>
</svg>
