<svg width="360" height="216" viewBox="0 0 360 216" fill="none" xmlns="http://www.w3.org/2000/svg">
<g clip-path="url(#clip0_801_714)">
<path fill-rule="evenodd" clip-rule="evenodd" d="M132.276 110.543L91.8608 43.4849L51.4424 110.359L91.8575 134.396L132.276 110.543ZM75.8805 122.579H107.964L91.8591 132.083L75.8805 122.579ZM92.8523 120.589V117.172H104.459L102.263 120.589H92.8523ZM105.737 115.182H92.8523V111.765H107.932L105.737 115.182ZM109.209 109.775H92.8523V106.358H111.404L109.209 109.775ZM112.684 104.368H92.8539V100.951H114.879L112.684 104.368ZM116.156 98.9616H92.8539V95.5444H118.351L116.156 98.9616ZM93.7791 80.7513V86.2859H89.939V80.7513H93.7791ZM99.5689 88.2755V90.2999H84.1507V88.2755H99.5689ZM104.823 92.2896V93.5548H78.8964V92.2896H104.823ZM106.813 90.2999V93.553H119.714L92.8539 48.9879V78.7617H95.7687V86.2859H101.559V90.2999H106.813ZM90.8643 78.7617H87.951V86.2859H82.1611V90.2999H76.9068V93.5548H63.9242L90.8643 48.9796V78.7617ZM90.8659 95.5444V98.9616H67.5487L65.3617 95.5444H90.8659ZM90.8659 100.951V104.368H71.009L68.8221 100.951H90.8659ZM90.8659 106.358V109.775H74.4695L72.2824 106.358H90.8659ZM90.8659 111.765V115.182H77.9282L75.7411 111.765H90.8659ZM90.8659 117.172V120.589H81.3868L79.1999 117.172H90.8659ZM111.338 120.589H104.631L120.819 95.3852L129.537 109.85L111.338 120.589ZM62.8564 95.3188L79.0242 120.589H72.5361L54.1815 109.673L62.8564 95.3188ZM91.8544 139.338L49.3105 114.321L91.8544 174.301L134.399 114.321L91.8544 139.338ZM92.8492 141.06L127.405 120.743L92.8492 169.461V141.06ZM90.8596 141.06V169.459L56.3042 120.743L90.8596 141.06ZM297.791 113.434L291.526 135.359H295.034L296.475 130.191H305.057L306.496 135.359H309.973L303.741 113.434H297.791ZM304.211 127.059H297.321L300.516 115.533H301.016L304.211 127.059ZM283.015 135.359L276.907 113.434H280.415L285.739 133.229H286.146L291.44 113.434H294.948L288.871 135.359H283.015ZM268.032 113.434L261.767 135.359H265.277L266.716 130.191H275.299L276.74 135.359H280.217L273.982 113.434H268.032ZM274.452 127.059H267.562L270.757 115.533H271.258L274.452 127.059ZM245.584 135.359V113.434H248.966V132.289H259.521V135.359H245.584ZM230.86 134.92C232.134 135.504 233.595 135.797 235.245 135.797C236.895 135.797 238.325 135.525 239.536 134.982C240.747 134.419 241.676 133.646 242.323 132.665C242.992 131.683 243.326 130.535 243.326 129.219C243.326 127.904 243.012 126.829 242.386 125.993C241.76 125.158 240.903 124.5 239.818 124.02C238.732 123.519 237.479 123.112 236.059 122.799L234.9 122.517C233.961 122.308 233.178 122.068 232.551 121.796C231.925 121.525 231.445 121.18 231.111 120.763C230.797 120.324 230.641 119.771 230.641 119.103C230.641 118.121 231.006 117.359 231.737 116.816C232.489 116.253 233.533 115.971 234.869 115.971C235.788 115.971 236.592 116.106 237.281 116.378C237.97 116.649 238.502 117.078 238.878 117.662C239.275 118.247 239.473 119.009 239.473 119.949V121.076H242.825V119.949C242.825 118.403 242.48 117.119 241.791 116.096C241.102 115.073 240.152 114.3 238.941 113.778C237.751 113.256 236.393 112.995 234.869 112.995C233.345 112.995 232.019 113.246 230.891 113.747C229.764 114.248 228.876 114.958 228.229 115.877C227.603 116.795 227.289 117.902 227.289 119.197C227.289 120.471 227.571 121.514 228.135 122.329C228.699 123.143 229.492 123.801 230.516 124.302C231.56 124.782 232.781 125.189 234.18 125.524L235.339 125.805C236.299 126.035 237.124 126.286 237.813 126.557C238.502 126.808 239.035 127.152 239.41 127.591C239.786 128.029 239.974 128.593 239.974 129.282C239.974 130.326 239.578 131.182 238.784 131.85C237.991 132.498 236.811 132.821 235.245 132.821C233.7 132.821 232.457 132.435 231.518 131.662C230.599 130.89 230.14 129.731 230.14 128.186V127.403H226.788V128.186C226.788 129.815 227.143 131.203 227.853 132.351C228.584 133.479 229.586 134.335 230.86 134.92ZM221.047 135.359V113.434H224.43V135.359H221.047ZM208.475 116.504V135.359H211.858V116.504H218.592V113.434H201.741V116.504H208.475ZM183.473 135.359L189.737 113.434H195.688L201.921 135.359H198.444L197.003 130.191H188.422L186.981 135.359H183.473ZM189.267 127.059H196.158L192.963 115.533H192.462L189.267 127.059ZM165.723 113.434V135.359H169.106V126.714H175.777C176.425 126.714 176.895 126.881 177.187 127.216C177.479 127.55 177.625 127.998 177.625 128.562V135.359H181.039V128.092C181.039 127.174 180.799 126.474 180.319 125.994C179.839 125.493 179.202 125.221 178.408 125.18V124.679C179.348 124.344 180.141 123.77 180.789 122.956C181.457 122.121 181.791 121.014 181.791 119.636V119.291C181.791 118.08 181.499 117.036 180.914 116.159C180.35 115.282 179.546 114.614 178.502 114.155C177.479 113.675 176.289 113.434 174.932 113.434H165.723ZM174.556 123.645H169.106V116.504H174.556C175.788 116.504 176.728 116.817 177.375 117.443C178.043 118.049 178.377 118.884 178.377 119.949V120.2C178.377 121.265 178.043 122.11 177.375 122.737C176.707 123.342 175.767 123.645 174.556 123.645ZM145.794 135.359V132.352H148.738V116.441H145.794V113.434H156.913C158.229 113.434 159.377 113.664 160.358 114.123C161.34 114.562 162.102 115.199 162.645 116.034C163.209 116.848 163.491 117.819 163.491 118.947V119.26C163.491 120.262 163.303 121.087 162.927 121.734C162.551 122.382 162.092 122.883 161.549 123.238C161.027 123.593 160.525 123.843 160.045 123.99V124.491C160.525 124.616 161.037 124.866 161.58 125.242C162.144 125.597 162.614 126.098 162.989 126.746C163.386 127.393 163.585 128.239 163.585 129.283V129.596C163.585 130.807 163.303 131.841 162.739 132.697C162.175 133.553 161.392 134.21 160.39 134.67C159.408 135.129 158.27 135.359 156.976 135.359H145.794ZM152.152 132.289H156.569C157.696 132.289 158.584 132.018 159.231 131.475C159.878 130.932 160.202 130.181 160.202 129.22V128.938C160.202 127.978 159.878 127.226 159.231 126.683C158.605 126.14 157.717 125.869 156.569 125.869H152.152V132.289ZM152.152 122.768H156.569C157.634 122.768 158.49 122.507 159.137 121.985C159.784 121.442 160.108 120.711 160.108 119.793V119.479C160.108 118.561 159.784 117.84 159.137 117.318C158.511 116.775 157.654 116.504 156.569 116.504H152.152V122.768ZM180.662 82.1134V104.038H184.045V94.5791H193.253V104.038H196.636V82.1134H193.253V91.5098H184.045V82.1134H180.662ZM168.609 104.038V85.1829H161.875V82.1134H178.726V85.1829H171.992V104.038H168.609ZM145.882 82.1134V104.038H159.851V100.969H149.265V94.5478H158.818V91.4785H149.265V85.1829H159.695V82.1134H145.882Z" fill="white"/>
</g>
<defs>
<clipPath id="clip0_801_714">
<rect width="261.634" height="130.817" fill="white" transform="translate(49.3105 43.4847)"/>
</clipPath>
</defs>
</svg>
