<svg width="121" height="72" viewBox="0 0 121 72" fill="none" xmlns="http://www.w3.org/2000/svg">
<path d="M50.7666 56.4725C51.1043 56.3132 51.4738 56.2431 51.8498 56.2622C52.6908 56.3068 53.4427 56.8357 53.825 57.6512L55.7174 61.71L58.9924 52.7132C58.4891 52.5858 58.0112 52.3882 57.5588 52.127L56.1315 51.3051C55.4115 50.8909 54.596 50.6679 53.7613 50.6679H52.1174C51.2636 50.6679 50.4161 50.4767 49.6452 50.1072L46.625 58.4031L50.7666 56.4725Z" fill="#EAC9F8"/>
<path d="M55.9916 62.1688C55.9533 62.2771 55.8578 62.3472 55.7431 62.3472H55.7303C55.622 62.3472 55.5264 62.2834 55.4818 62.1879L53.4429 57.8233C53.1307 57.1543 52.5126 56.7146 51.8245 56.6764C51.5186 56.6573 51.2128 56.721 50.9388 56.8484L46.4914 58.9192C46.3512 58.9829 46.1856 58.9256 46.1218 58.7854C46.09 58.7217 46.09 58.6452 46.1155 58.5751L49.2694 49.9097C48.97 49.744 48.6896 49.5465 48.4284 49.3298L44.8539 59.155C44.6882 59.601 44.924 60.098 45.37 60.2636C45.5866 60.3401 45.8224 60.3337 46.0326 60.2381L51.3657 57.7532C51.799 57.5557 52.3087 57.7404 52.5126 58.1737L54.9976 63.5004C55.2015 63.9337 55.7112 64.1185 56.1445 63.921C56.3547 63.8254 56.514 63.647 56.5905 63.4303L60.4199 52.8916C60.0758 52.8916 59.7381 52.8597 59.4004 52.796L55.9916 62.1688Z" fill="#EAC9F8"/>
<path d="M46.1902 58.8746C46.273 58.9511 46.3941 58.9702 46.496 58.9192L50.9434 56.8484C51.2174 56.721 51.5233 56.6573 51.8291 56.6764C52.5109 56.7146 53.1353 57.1543 53.4475 57.8233L55.4864 62.1879C55.531 62.2835 55.6266 62.3472 55.7349 62.3472H55.7477C55.8624 62.3408 55.9579 62.2707 55.9962 62.1688L59.3986 52.7961C59.2585 52.7706 59.1247 52.7387 58.9845 52.7069L55.7094 61.7037L53.8171 57.6449C53.4411 56.8357 52.6829 56.3069 51.8418 56.2559C51.4659 56.2368 51.0964 56.3069 50.7587 56.4661L46.6234 58.3904L49.6436 50.0945C49.5162 50.0308 49.3887 49.967 49.2677 49.9033L46.1137 58.5688C46.0755 58.6835 46.1073 58.7982 46.1902 58.8746Z" fill="white"/>
<path d="M67.1701 57.5685C67.3103 57.2691 67.5142 57.0014 67.769 56.7912C67.8009 56.7657 67.8327 56.7402 67.8646 56.7147C68.5336 56.2114 69.4575 56.1285 70.2667 56.5045L74.3255 58.3905L71.2926 50.0754C70.5088 50.4577 69.6423 50.6553 68.7694 50.6553H67.1255C66.2908 50.6553 65.4752 50.8783 64.7552 51.2924L63.328 52.1144C62.8947 52.3629 62.4296 52.5604 61.9453 52.6878L65.2331 61.7037L67.1701 57.5685Z" fill="#EAC9F8"/>
<path d="M74.8445 58.5687C74.8955 58.7152 74.8254 58.8681 74.6788 58.9255C74.6087 58.951 74.5323 58.9446 74.4686 58.9191L70.0976 56.8865C69.4286 56.5743 68.6703 56.638 68.1224 57.0458C68.0969 57.0649 68.065 57.0904 68.0395 57.1095C67.8293 57.2816 67.6636 57.4982 67.5489 57.7467L65.4781 62.1941C65.4335 62.2897 65.338 62.3534 65.2296 62.3534H65.2169C65.1022 62.3471 65.0066 62.277 64.9684 62.175L61.5468 52.7896C61.2091 52.8533 60.8714 52.8915 60.5273 52.8915L64.3695 63.4302C64.5351 63.8763 65.0321 64.1056 65.4781 63.94C65.6884 63.8635 65.8668 63.7042 65.9624 63.494L68.4473 58.1609C68.6512 57.7276 69.161 57.5428 69.5942 57.7403L74.9209 60.2189C75.3542 60.4228 75.8703 60.2317 76.0679 59.7984C76.1634 59.5881 76.1762 59.3524 76.0933 59.1357L72.5125 49.2915C72.2512 49.5145 71.9709 49.712 71.6714 49.8841L74.8445 58.5687Z" fill="#EAC9F8"/>
<path d="M65.217 62.3536H65.2297C65.338 62.3536 65.4336 62.2899 65.4782 62.1943L67.549 57.7469C67.6637 57.4984 67.8293 57.2818 68.0396 57.1098C68.0651 57.0906 68.0906 57.0652 68.1224 57.046C68.6704 56.6319 69.4286 56.5745 70.0977 56.8867L74.4686 58.9193C74.6088 58.983 74.7745 58.9257 74.8382 58.7855C74.87 58.7218 74.87 58.6453 74.8446 58.5752L71.6778 49.8843C71.5568 49.9544 71.4293 50.0181 71.3019 50.0818L74.3348 58.3968L70.2761 56.5108C69.4669 56.1349 68.543 56.2113 67.8739 56.7211C67.8421 56.7466 67.8102 56.7721 67.7784 56.7975C67.5235 57.0078 67.3196 57.2754 67.1794 57.5749L65.2488 61.7101L61.961 52.6942C61.8272 52.7324 61.6871 52.7643 61.5469 52.7898L64.9685 62.1752C65.0067 62.2772 65.1086 62.3473 65.217 62.3536Z" fill="white"/>
<path d="M81.2146 32.8208C82.0557 31.3553 82.0557 29.5521 81.2146 28.0803L80.3927 26.653C79.8829 25.7737 79.6153 24.7798 79.6153 23.7603V22.1164C79.6153 20.4215 78.7105 18.8605 77.2451 18.013L75.8178 17.1911C74.9385 16.6814 74.2121 15.955 73.7024 15.0757L72.8805 13.6484C72.033 12.183 70.472 11.2846 68.7771 11.2782H67.1332C66.1201 11.2782 65.1198 11.0106 64.2405 10.5008L62.8132 9.67889C61.3477 8.83783 59.5445 8.83783 58.0727 9.67889L56.6518 10.5008C55.7725 11.0106 54.7722 11.2782 53.7591 11.2782H52.1152C50.4203 11.2782 48.8592 12.183 48.0118 13.6484L47.1899 15.0757C46.6801 15.955 45.9538 16.6877 45.0745 17.1911L43.6472 18.013C42.1817 18.8605 41.2833 20.4215 41.277 22.1164V23.7603C41.277 24.7734 41.0093 25.7737 40.4996 26.653L39.6777 28.0803C38.8366 29.5458 38.8366 31.3489 39.6777 32.8208L40.4996 34.2481C41.0093 35.1274 41.277 36.1213 41.277 37.1408V38.7783C41.277 40.4732 42.1817 42.0342 43.6472 42.8817L45.0745 43.7036C45.9538 44.2134 46.6865 44.9397 47.1899 45.819L48.0118 47.2463C48.8592 48.7118 50.4203 49.6102 52.1152 49.6165H53.7591C54.7722 49.6165 55.7725 49.8841 56.6518 50.3939L58.0791 51.2158C59.5445 52.0569 61.3477 52.0569 62.8196 51.2158L64.2405 50.3939C65.1198 49.8841 66.1137 49.6165 67.1332 49.6165H68.7771C70.472 49.6165 72.033 48.7118 72.8805 47.2463L73.7024 45.819C74.2121 44.9397 74.9385 44.207 75.8178 43.7036L77.2451 42.8817C78.7105 42.0342 79.6153 40.4668 79.6153 38.7783V37.1344C79.6153 36.1213 79.8829 35.121 80.3927 34.2417L81.2146 32.8208ZM61.233 35.0955L63.7753 26.7996C63.8008 26.7231 63.8391 26.6467 63.89 26.5893C63.9537 26.532 64.0366 26.5001 64.1194 26.5065H64.8203C64.9031 26.5001 64.986 26.532 65.0497 26.5893C65.1006 26.653 65.1452 26.7231 65.1644 26.7996L67.7003 35.0955C67.713 35.1401 67.7194 35.1911 67.7194 35.242C67.7194 35.3121 67.7003 35.3758 67.6557 35.4332C67.6175 35.4842 67.5601 35.516 67.4964 35.516H66.9803C66.9038 35.5224 66.8337 35.4905 66.7891 35.4332C66.7573 35.3886 66.7318 35.3376 66.7127 35.2866L66.2093 33.6682C66.1711 33.5535 66.0691 33.4771 65.9481 33.4771H63.0044C62.8833 33.4771 62.7814 33.5535 62.7431 33.6682L62.2398 35.2866C62.227 35.344 62.2015 35.3886 62.1633 35.4332C62.1123 35.4905 62.0422 35.5224 61.9658 35.516H61.4433C61.3796 35.516 61.3222 35.4842 61.284 35.4332C61.2394 35.3758 61.2203 35.3121 61.2203 35.242C61.2267 35.1847 61.233 35.1401 61.233 35.0955ZM54.0012 30.2021L56.1994 26.6212C56.3715 26.3408 56.7346 26.258 57.015 26.43C57.0915 26.481 57.1615 26.5447 57.2061 26.6212L59.4107 30.2084C59.6274 30.5652 59.6337 31.0113 59.4299 31.3681L57.2444 35.1911C57.1424 35.3758 56.9449 35.4905 56.7346 35.4905C56.5244 35.4905 56.3332 35.3822 56.2249 35.1974L53.9884 31.3744C53.7718 31.0113 53.7782 30.5589 54.0012 30.2021ZM47.9226 32.0052C47.7952 32.0052 47.6869 32.1072 47.6869 32.241V35.1974C47.6869 35.2803 47.6677 35.3567 47.6168 35.4204C47.5722 35.4778 47.5021 35.5097 47.4256 35.5097H46.884C46.8076 35.5097 46.7375 35.4778 46.6993 35.4204C46.6547 35.3567 46.6355 35.2803 46.6355 35.1974V27.3412C46.6355 26.876 47.0115 26.5001 47.4766 26.5001H49.4964C50.0062 26.5001 50.4522 26.6021 50.8217 26.8123C51.1977 27.0226 51.5035 27.3475 51.6946 27.7362C51.8985 28.144 52.0069 28.6537 52.0069 29.2654C52.0069 29.8771 51.9049 30.3868 51.6946 30.7882C51.5035 31.1769 51.1977 31.4955 50.8217 31.7058C50.4458 31.9097 49.9998 32.018 49.4964 32.018L47.9226 32.0052ZM74.8684 30.7819C74.6773 31.1705 74.3714 31.4891 73.9955 31.6994C73.6196 31.9033 73.1736 32.0116 72.6702 32.0116H71.1028C70.9753 32.0116 70.867 32.1136 70.867 32.2474V35.2038C70.867 35.2866 70.8479 35.3631 70.7969 35.4268C70.7523 35.4842 70.6822 35.516 70.6058 35.516H70.0642C69.9877 35.516 69.9176 35.4842 69.873 35.4268C69.8284 35.3631 69.8029 35.2866 69.8093 35.2038V27.3412C69.8093 26.876 70.1852 26.5065 70.644 26.5001H72.6638C73.1736 26.5001 73.6196 26.6021 73.9891 26.8123C74.3651 27.0226 74.6709 27.3475 74.862 27.7362C75.0659 28.144 75.1679 28.6537 75.1679 29.2654C75.1679 29.8771 75.0723 30.3805 74.8684 30.7819Z" fill="white"/>
<path d="M71.1054 30.8964H72.6219C73.1189 30.8964 73.5012 30.7563 73.7496 30.4759C73.9981 30.1956 74.1256 29.7878 74.1256 29.2526C74.1256 28.7173 74.0045 28.3159 73.7624 28.0356C73.5203 27.7552 73.138 27.6023 72.6282 27.6023H71.1181C70.9843 27.6023 70.876 27.7106 70.876 27.8444V30.6416C70.8633 30.7881 70.9716 30.8964 71.1054 30.8964Z" fill="white"/>
<path d="M49.4344 27.6089H47.9179C47.7841 27.6089 47.6758 27.7172 47.6758 27.851V30.6482C47.6758 30.782 47.7841 30.8903 47.9179 30.8903H49.4344C49.9314 30.8903 50.3137 30.7501 50.5621 30.4698C50.8106 30.1894 50.9381 29.7816 50.9381 29.2528C50.9381 28.7239 50.817 28.3161 50.5749 28.0358C50.3328 27.7554 49.9505 27.6089 49.4344 27.6089Z" fill="white"/>
<path d="M63.2468 32.3367H65.6999C65.7318 32.3367 65.7636 32.324 65.7827 32.2985C65.8019 32.273 65.8082 32.2411 65.7955 32.2093L64.5721 28.176C64.553 28.125 64.4957 28.0932 64.4447 28.1123C64.4128 28.125 64.3937 28.1442 64.381 28.176L63.1512 32.2093C63.1385 32.2603 63.1704 32.3176 63.2213 32.3303C63.2277 32.3303 63.2405 32.3303 63.2468 32.3367Z" fill="white"/>
<path d="M82.1206 27.5578L81.2987 26.1306C80.8845 25.4106 80.6615 24.595 80.6615 23.7603V22.1164C80.6552 20.052 79.5592 18.1405 77.7688 17.1083L76.3479 16.2864C75.6279 15.8722 75.029 15.2733 74.6148 14.5533L73.7929 13.126C72.7543 11.3419 70.8492 10.2396 68.7847 10.2333H67.1345C66.2998 10.2333 65.4842 10.0103 64.7642 9.5961L63.337 8.77416C61.5465 7.74195 59.3419 7.74195 57.5515 8.77416L56.1306 9.5961C55.4106 10.0103 54.595 10.2333 53.7603 10.2333H52.1164C50.052 10.2333 48.1405 11.3356 47.1083 13.126L46.2864 14.5533C45.8722 15.2733 45.2733 15.8722 44.5533 16.2864L43.126 17.1083C41.3419 18.1405 40.2396 20.052 40.2333 22.1164V23.7603C40.2333 24.595 40.0103 25.4106 39.5961 26.1306L38.7742 27.5578C37.7419 29.3483 37.7419 31.5529 38.7742 33.3433L39.5961 34.7642C40.0103 35.4842 40.2333 36.2998 40.2333 37.1345V38.7784C40.2396 40.8428 41.3356 42.7543 43.126 43.7865L44.5469 44.6148C45.2669 45.029 45.8658 45.6279 46.28 46.3479L47.1019 47.7752C47.618 48.6672 48.3635 49.4063 49.2619 49.916C49.383 49.9861 49.5104 50.0499 49.6379 50.1072C50.4088 50.4768 51.2563 50.6679 52.1101 50.6679H53.754C54.5886 50.6679 55.4042 50.8909 56.1242 51.3051L57.5515 52.127C57.9975 52.3883 58.4817 52.5858 58.9851 52.7132C59.1189 52.7514 59.2591 52.7769 59.3993 52.8024C59.737 52.8661 60.0747 52.898 60.4187 52.898H60.4442H60.527C60.8711 52.8916 61.2088 52.8598 61.5465 52.796C61.6867 52.7706 61.8205 52.7387 61.9607 52.7005C62.4449 52.573 62.9101 52.3755 63.3433 52.127L64.7706 51.3051C65.4906 50.8909 66.3062 50.6679 67.1408 50.6679H68.7847C69.6577 50.6679 70.5178 50.4704 71.3079 50.0881C71.4354 50.0244 71.5628 49.9606 71.6838 49.8906C72.5631 49.3808 73.2895 48.6545 73.7992 47.7752L74.6212 46.3479C75.0353 45.6279 75.6407 45.029 76.3607 44.6148L77.7879 43.7929C79.5783 42.7543 80.6743 40.8492 80.6806 38.7784V37.1345C80.6806 36.2998 80.9037 35.4842 81.3178 34.7642L82.1398 33.337C83.1529 31.5529 83.1529 29.3483 82.1206 27.5578ZM79.6166 38.7784C79.6166 40.4732 78.7118 42.0343 77.2463 42.8817L75.8191 43.7037C74.9398 44.2134 74.2134 44.9398 73.7037 45.8191L72.8817 47.2463C72.0343 48.7118 70.4732 49.6102 68.7784 49.6166H67.1345C66.1214 49.6166 65.121 49.8842 64.2417 50.3939L62.8145 51.2159C61.349 52.0569 59.5458 52.0569 58.074 51.2159L56.6467 50.3939C55.7674 49.8842 54.7671 49.6166 53.754 49.6166H52.1101C50.4152 49.6166 48.8541 48.7118 48.0067 47.2463L47.1848 45.8191C46.675 44.9398 45.9487 44.207 45.0694 43.7037L43.6421 42.8817C42.1766 42.0343 41.2782 40.4669 41.2719 38.7784V37.1345C41.2719 36.1214 41.0042 35.121 40.4945 34.2417L39.6726 32.8145C38.8315 31.349 38.8315 29.5458 39.6726 28.074L40.4945 26.6467C41.0042 25.7674 41.2719 24.7734 41.2719 23.754V22.1101C41.2719 20.4152 42.1766 18.8541 43.6421 18.0067L45.0694 17.1848C45.9487 16.675 46.6814 15.9487 47.1848 15.0694L48.0067 13.6421C48.8541 12.1766 50.4152 11.2782 52.1101 11.2719H53.754C54.7671 11.2719 55.7674 11.0042 56.6467 10.4945L58.074 9.67256C59.5394 8.8315 61.3426 8.8315 62.8145 9.67256L64.2354 10.4945C65.1147 11.0042 66.115 11.2719 67.1281 11.2719H68.772C70.4669 11.2719 72.0279 12.1766 72.8753 13.6421L73.6973 15.0694C74.207 15.9487 74.9334 16.6814 75.8127 17.1848L77.2399 18.0067C78.7054 18.8541 79.6038 20.4152 79.6102 22.1101V23.754C79.6102 24.7671 79.8778 25.7674 80.3876 26.6467L81.2095 28.074C82.0506 29.5394 82.0506 31.3426 81.2095 32.8145L80.3876 34.2417C79.8778 35.121 79.6102 36.115 79.6102 37.1345V38.7784H79.6166Z" fill="#5E58A5"/>
<path d="M50.8151 31.6996C51.191 31.4893 51.4969 31.1707 51.688 30.782C51.8919 30.3806 52.0002 29.8709 52.0002 29.2592C52.0002 28.6475 51.8983 28.1378 51.688 27.73C51.4969 27.3413 51.191 27.0164 50.8151 26.8061C50.4392 26.6022 49.9931 26.4939 49.4898 26.4939H47.47C47.0048 26.4939 46.6289 26.8698 46.6289 27.335V35.1976C46.6289 35.2741 46.648 35.3569 46.6926 35.4206C46.7372 35.478 46.8073 35.5162 46.8774 35.5098H47.419C47.4955 35.5098 47.5655 35.478 47.6101 35.4206C47.6611 35.3569 47.6802 35.2804 47.6802 35.1976V32.2411C47.6802 32.1137 47.7822 32.0054 47.916 32.0054H49.4834C49.9931 32.0054 50.4392 31.9034 50.8151 31.6996ZM50.9425 29.2592C50.9425 29.7881 50.8151 30.2022 50.5666 30.4826C50.3181 30.7629 49.9358 30.9031 49.4388 30.9031H47.9224C47.7885 30.9031 47.6802 30.7948 47.6802 30.661V27.8638C47.6802 27.73 47.7885 27.6217 47.9224 27.6217H49.4388C49.9485 27.6217 50.3308 27.7682 50.573 28.055C50.8151 28.3417 50.9362 28.7367 50.9425 29.2592Z" fill="#5E58A5"/>
<path d="M61.451 35.5096H61.9735C62.05 35.516 62.12 35.4841 62.171 35.4268C62.2092 35.3886 62.2347 35.3376 62.2475 35.2802L62.7508 33.6618C62.7827 33.5471 62.891 33.4707 63.0121 33.4707H65.9494C66.0705 33.4707 66.1724 33.5471 66.2107 33.6618L66.714 35.2802C66.7331 35.3312 66.7586 35.3822 66.7905 35.4268C66.8351 35.4841 66.9052 35.516 66.9816 35.5096H67.5041C67.5678 35.5096 67.6252 35.4778 67.6634 35.4268C67.708 35.3694 67.7271 35.3057 67.7271 35.2356C67.7271 35.1847 67.7207 35.1401 67.708 35.0891L65.1784 26.7932C65.153 26.7167 65.1147 26.6466 65.0638 26.5829C65 26.5256 64.9172 26.4937 64.8344 26.5001H64.1335C64.0507 26.4937 63.9678 26.5256 63.9041 26.5829C63.8531 26.6466 63.8085 26.7167 63.7894 26.7932L61.2471 35.0891C61.2407 35.1337 61.2407 35.1847 61.2344 35.2293C61.2344 35.2994 61.2535 35.3631 61.2981 35.4204C61.33 35.4778 61.3873 35.5096 61.451 35.5096ZM63.1523 32.2027L64.382 28.1695C64.4011 28.1185 64.4584 28.0866 64.5094 28.1057C64.5413 28.1185 64.5604 28.1376 64.5731 28.1695L65.7965 32.2027C65.8029 32.2346 65.7965 32.2664 65.7838 32.2919C65.7646 32.3174 65.7328 32.3302 65.7009 32.3302H63.2478C63.1905 32.3302 63.1459 32.2856 63.1459 32.2282C63.1459 32.2218 63.1523 32.2155 63.1523 32.2027Z" fill="#5E58A5"/>
<path d="M56.2207 35.1974C56.329 35.3822 56.5202 35.4905 56.7305 35.4905C56.9407 35.4905 57.1382 35.3758 57.2402 35.1911L59.4257 31.3681C59.6296 31.0049 59.6232 30.5589 59.4066 30.2084L57.202 26.6212C57.0299 26.3408 56.6667 26.258 56.3864 26.43C56.3099 26.481 56.2398 26.5447 56.1952 26.6212L53.997 30.202C53.774 30.5589 53.774 31.0112 53.9843 31.3744L56.2207 35.1974ZM56.8579 28.1631L58.4508 30.75C58.4827 30.8073 58.4827 30.8774 58.4508 30.9348L56.877 33.6873C56.826 33.7765 56.7177 33.802 56.6285 33.7511C56.603 33.7383 56.5775 33.7128 56.5648 33.6873L54.9528 30.9348C54.9209 30.8774 54.9209 30.8073 54.9528 30.75L56.5457 28.1631C56.5967 28.0803 56.7113 28.0548 56.7942 28.1058C56.826 28.1185 56.8451 28.1376 56.8579 28.1631Z" fill="#5E58A5"/>
<path d="M56.5504 28.1633L54.9575 30.7502C54.9256 30.8076 54.9256 30.8777 54.9575 30.935L56.5695 33.6876C56.6205 33.7768 56.7288 33.8022 56.818 33.7513C56.8435 33.7385 56.869 33.713 56.8817 33.6876L58.4555 30.935C58.4874 30.8777 58.4874 30.8076 58.4555 30.7502L56.8626 28.1633C56.8116 28.0805 56.697 28.0486 56.6141 28.106C56.5823 28.1187 56.5631 28.1378 56.5504 28.1633Z" fill="white"/>
<path d="M73.9957 26.8125C73.6198 26.6086 73.1738 26.5002 72.6704 26.5002H70.6506C70.1855 26.5002 69.8096 26.8762 69.8096 27.3413V35.1976C69.8032 35.274 69.8287 35.3569 69.8733 35.4206C69.9179 35.4779 69.988 35.5162 70.0644 35.5098H70.606C70.6825 35.5098 70.7526 35.4779 70.7972 35.4206C70.8481 35.3569 70.8673 35.2804 70.8673 35.1976V32.2411C70.8673 32.1137 70.9692 32.0054 71.103 32.0054H72.6704C73.1802 32.0054 73.6262 31.9034 73.9957 31.6932C74.3717 31.4829 74.6775 31.1643 74.8687 30.7756C75.0726 30.3742 75.1745 29.8645 75.1745 29.2528C75.1745 28.6411 75.0726 28.1314 74.8687 27.7236C74.6775 27.3413 74.3717 27.0227 73.9957 26.8125ZM70.8609 27.8574C70.8609 27.7236 70.9692 27.6153 71.103 27.6153H72.6195C73.1292 27.6153 73.5115 27.7618 73.7536 28.0486C73.9957 28.3353 74.1168 28.7431 74.1168 29.2656C74.1168 29.788 73.9894 30.2086 73.7409 30.4889C73.4924 30.7693 73.1165 30.9094 72.6131 30.9094H71.103C70.9692 30.9094 70.8609 30.8011 70.8609 30.6673V27.8574Z" fill="#5E58A5"/>
</svg>
