<svg width="121" height="72" viewBox="0 0 121 72" fill="none" xmlns="http://www.w3.org/2000/svg">
<path d="M101.158 45.3816C100.376 45.3816 99.7497 45.1469 99.2802 44.6774C98.828 44.2079 98.602 43.5819 98.602 42.7995V34.7921H95.0547V32.5229H98.602V28.2715H101.289V32.5229H105.123V34.7921H101.289V42.33C101.289 42.8516 101.532 43.1125 102.019 43.1125H104.705V45.3816H101.158Z" fill="white"/>
<path d="M81.6875 45.3784V32.5197H84.3219V34.4498H84.7391C84.9826 33.9281 85.4173 33.4413 86.0433 32.9892C86.6692 32.5371 87.5994 32.311 88.8341 32.311C89.8078 32.311 90.6685 32.5284 91.4162 32.9631C92.1814 33.3978 92.7814 34.0151 93.2158 34.815C93.6506 35.5974 93.8681 36.5451 93.8681 37.658V45.3784H91.1815V37.8666C91.1815 36.7538 90.9032 35.9365 90.3467 35.4149C89.7906 34.8758 89.0253 34.6063 88.0517 34.6063C86.9387 34.6063 86.0433 34.9715 85.365 35.7018C84.7043 36.4321 84.3741 37.4928 84.3741 38.8839V45.3784H81.6875Z" fill="white"/>
<path d="M73.3917 45.7445C72.0875 45.7445 70.9486 45.475 69.9749 44.936C69.0012 44.3796 68.236 43.6058 67.6795 42.6146C67.1406 41.6061 66.8711 40.4411 66.8711 39.1196V38.8066C66.8711 37.4677 67.1406 36.3026 67.6795 35.3115C68.2188 34.303 68.9662 33.5292 69.9227 32.9902C70.8963 32.4338 72.0181 32.1555 73.2872 32.1555C74.5219 32.1555 75.6001 32.4338 76.5216 32.9902C77.4605 33.5292 78.191 34.2856 78.7124 35.2594C79.2342 36.2331 79.4949 37.372 79.4949 38.6762V39.6934H69.6097C69.6444 40.8236 70.0184 41.7278 70.7314 42.406C71.4616 43.0667 72.3658 43.3971 73.4437 43.3971C74.4524 43.3971 75.2089 43.171 75.7131 42.7189C76.2346 42.2669 76.6345 41.7452 76.9128 41.154L79.1299 42.3016C78.8864 42.7885 78.53 43.3015 78.0605 43.8405C77.6082 44.3796 77.0085 44.8317 76.2608 45.1968C75.5131 45.562 74.5567 45.7445 73.3917 45.7445ZM69.6357 37.6329H76.7563C76.6868 36.6591 76.3391 35.9027 75.7131 35.3637C75.0872 34.8073 74.2697 34.529 73.2612 34.529C72.2528 34.529 71.4268 34.8073 70.7834 35.3637C70.1574 35.9027 69.7749 36.6591 69.6357 37.6329Z" fill="white"/>
<path d="M61.8672 45.3794V27.1216H64.5538V45.3794H61.8672Z" fill="white"/>
<path d="M51.8487 45.7445C50.9272 45.7445 50.1013 45.588 49.3708 45.2751C48.6581 44.962 48.0841 44.5013 47.6494 43.8927C47.2322 43.2841 47.0234 42.5451 47.0234 41.6757C47.0234 40.7889 47.2322 40.0585 47.6494 39.4847C48.0841 38.8935 48.6666 38.4501 49.3971 38.1545C50.1448 37.8589 50.988 37.7111 51.9269 37.7111H55.8395V36.8765C55.8395 36.1288 55.6135 35.5289 55.1613 35.0768C54.7093 34.6247 54.0136 34.3986 53.0746 34.3986C52.1532 34.3986 51.449 34.616 50.962 35.0507C50.475 35.4854 50.1536 36.0505 49.9971 36.746L47.4929 35.9375C47.7017 35.2419 48.0322 34.616 48.4841 34.0596C48.9536 33.4857 49.5708 33.0249 50.336 32.6772C51.101 32.3294 52.0227 32.1555 53.1006 32.1555C54.77 32.1555 56.083 32.5815 57.0391 33.4336C57.9956 34.2856 58.4738 35.4941 58.4738 37.0591V42.3538C58.4738 42.8755 58.717 43.1363 59.204 43.1363H60.2995V45.3794H58.2911C57.6826 45.3794 57.1869 45.2229 56.8044 44.9099C56.4219 44.5969 56.2307 44.1709 56.2307 43.6318V43.5536H55.8395C55.7002 43.8144 55.4918 44.1187 55.2135 44.4665C54.9353 44.8143 54.5265 45.1185 53.9876 45.3794C53.4486 45.6228 52.7356 45.7445 51.8487 45.7445ZM52.2399 43.5275C53.3181 43.5275 54.1876 43.2232 54.8483 42.6146C55.509 41.9886 55.8395 41.1366 55.8395 40.0585V39.7977H52.0834C51.3707 39.7977 50.7967 39.9542 50.362 40.2672C49.9273 40.5628 49.7101 41.0062 49.7101 41.5974C49.7101 42.1886 49.936 42.6581 50.3883 43.0059C50.8402 43.3536 51.4574 43.5275 52.2399 43.5275Z" fill="white"/>
<path d="M41.8064 45.3816C41.024 45.3816 40.398 45.1469 39.9285 44.6774C39.4764 44.2079 39.2503 43.5819 39.2503 42.7995V34.7921H35.7031V32.5229H39.2503V28.2715H41.9369V32.5229H45.7709V34.7921H41.9369V42.33C41.9369 42.8516 42.1804 43.1125 42.6671 43.1125H45.3537V45.3816H41.8064Z" fill="white"/>
<path d="M13.1685 31.7703C13.6394 32.2399 14.2673 32.4746 15.0522 32.4746H23.0796L22.1755 29.8921H15.7848C15.2964 29.8921 15.0522 29.6313 15.0522 29.1096V22.7562L12.4883 21.8838V29.8921C12.4883 30.6747 12.715 31.3008 13.1685 31.7703Z" fill="white"/>
<path d="M13.1685 44.6819C13.6394 45.1515 14.2673 45.3862 15.0522 45.3862H23.0796L22.1755 42.8037H15.7848C15.2964 42.8037 15.0522 42.5429 15.0522 42.0212V35.6678L12.4883 34.7954V42.8037C12.4883 43.5863 12.715 44.2124 13.1685 44.6819Z" fill="white"/>
</svg>
