<svg width="360" height="216" viewBox="0 0 360 216" fill="none" xmlns="http://www.w3.org/2000/svg">
<path d="M57.4575 112.837C57.3679 112.783 57.2532 112.796 57.1786 112.87C57.1041 112.943 57.0885 113.058 57.1407 113.148L69.1858 134.052C69.2361 134.139 69.337 134.183 69.4345 134.161L69.4439 134.159C69.4721 134.152 69.4978 134.139 69.5203 134.122C69.5456 134.104 69.5674 134.08 69.5838 134.051L81.6288 113.033C81.681 112.942 81.665 112.827 81.5899 112.754C81.5149 112.681 81.3999 112.668 81.3104 112.722L69.3837 120.001L57.4575 112.837Z" fill="white"/>
<path d="M69.7161 86.6834C69.7018 86.6561 69.6766 86.6351 69.6454 86.6264C69.6377 86.6242 69.6299 86.6229 69.6221 86.6224C69.6157 86.622 69.6094 86.6221 69.6032 86.6227C69.5966 86.6234 69.5901 86.6246 69.5835 86.6264C69.5523 86.6351 69.5272 86.6563 69.5128 86.6837L56.0991 108.939C56.0834 108.965 56.0787 108.997 56.086 109.026C56.0934 109.056 56.1122 109.081 56.1383 109.097L69.5509 117.154L69.5583 117.159C69.5709 117.166 69.5845 117.171 69.5983 117.172C69.6107 117.174 69.6234 117.174 69.6358 117.172C69.648 117.169 69.66 117.165 69.6712 117.159L69.6789 117.154L83.0915 108.969C83.1455 108.936 83.1626 108.865 83.1298 108.811L69.7161 86.6834Z" fill="white"/>
<path fill-rule="evenodd" clip-rule="evenodd" d="M37.5406 54.2973C37.7409 53.9551 38.1073 53.7449 38.5035 53.7449H55.3035C55.7047 53.7449 56.0751 53.9605 56.2735 54.3097L69.269 77.1803L82.9004 54.29C83.1017 53.952 83.4659 53.7449 83.859 53.7449H99.9893C100.385 53.7449 100.752 53.955 100.952 54.2971C101.152 54.6392 101.157 55.062 100.963 55.408L86.2688 81.6946L101.588 109.099C101.778 109.438 101.778 109.851 101.588 110.191L86.1946 137.699L101.142 164.432C101.335 164.778 101.331 165.201 101.131 165.543C100.93 165.885 100.564 166.095 100.168 166.095H83.1745C82.7735 166.095 82.4033 165.88 82.2048 165.531L69.2777 142.815L56.7869 165.517C56.5907 165.874 56.2161 166.095 55.8094 166.095H38.3249C37.9287 166.095 37.5622 165.885 37.3619 165.542C37.1617 165.2 37.1577 164.777 37.3514 164.431L52.3129 137.713L36.9196 110.19C36.73 109.851 36.7299 109.438 36.9195 109.099L52.2387 81.6949L37.5298 55.4084C37.3362 55.0624 37.3403 54.6395 37.5406 54.2973ZM40.408 55.9797L54.4915 81.1485C54.6812 81.4876 54.6813 81.9011 54.4917 82.2404L39.1724 109.644L54.566 137.167C54.7558 137.507 54.7557 137.92 54.5657 138.26L40.2301 163.86H55.15L68.2838 139.99C68.4786 139.636 68.8494 139.415 69.2533 139.412C69.6571 139.409 70.031 139.625 70.231 139.976L83.8231 163.86H98.2641L83.9417 138.244C83.752 137.905 83.7521 137.491 83.9419 137.152L99.3352 109.644L84.016 82.2404C83.8265 81.9013 83.8265 81.488 84.016 81.1489L98.0858 55.9797H84.4929L70.205 79.9725C70.0016 80.314 69.6322 80.5216 69.235 80.5176C68.8379 80.5135 68.4728 80.2984 68.2764 79.9528L54.6544 55.9797H40.408Z" fill="white"/>
<path d="M122.378 78.3566H138.118V83.1287H131.944C130.648 83.1287 129.458 83.0944 128.26 82.6385L127.65 83.2642C128.327 84.2431 128.654 85.1072 128.654 86.2216V87.336C128.654 88.3148 128.297 89.1805 127.65 90.1578L128.26 90.8163C129.422 90.4304 130.648 90.2949 131.944 90.2949H137.73V95.3053H131.944C130.618 95.3053 129.391 95.2352 128.26 94.7853L127.65 95.4498C128.394 96.4927 128.654 97.3985 128.654 98.6157V99.8672C128.654 100.95 128.334 101.816 127.65 102.793L128.26 103.419C129.458 103.002 130.648 102.93 131.944 102.93H138.57V107.838H122.378V78.3566Z" fill="white"/>
<path d="M147.625 107.838H153.827V86.7116C153.827 85.5971 153.537 84.7315 152.86 83.7542L153.44 83.1284C154.638 83.5858 155.83 83.6171 157.126 83.6171H160.193V78.3654H141.289V83.6171H144.326C145.652 83.6171 146.851 83.5456 148.012 83.1284L148.592 83.7542C147.915 84.7315 147.625 85.5971 147.625 86.7116V107.838Z" fill="white"/>
<path d="M170.112 86.8548C170.112 88.1778 170.083 89.2594 169.144 90.5109L169.724 91.1679C170.922 90.7835 172.114 90.6465 173.41 90.6465C174.704 90.6465 175.965 90.7195 177.222 91.1679L177.834 90.5109C176.828 89.1551 176.828 88.002 176.828 86.6149V78.3641H183.127V107.844H176.828V99.6348C176.828 98.2075 176.828 97.0931 177.834 95.7388L177.222 95.0728C176.062 95.49 174.832 95.5943 173.471 95.5943C172.212 95.5943 170.983 95.5615 169.718 95.0728L169.135 95.7388C170.103 97.0931 170.103 98.2075 170.103 99.6348V107.844H163.797V78.3566H170.103V86.8473L170.112 86.8548Z" fill="white"/>
<path fill-rule="evenodd" clip-rule="evenodd" d="M136.794 112.453C135.118 111.588 132.981 111.515 130.301 111.515H122.378V140.996H129.362C132.952 140.996 135.148 140.819 136.861 139.953C139.154 138.767 140.77 136.017 140.77 132.505C140.77 128.088 138.698 125.786 134.529 125.577V124.776C137.992 124.319 140.026 121.817 140.026 118.371C140.026 115.797 138.7 113.463 136.794 112.453ZM128.654 119.517C128.654 118.474 128.297 117.641 127.65 116.662L128.26 116.005C128.483 116.142 128.967 116.245 129.517 116.349C130.005 116.448 130.384 116.469 130.743 116.49C131.146 116.513 131.524 116.535 132.005 116.662C132.883 116.944 134.045 117.745 134.045 119.797C134.045 122.058 132.914 123.101 131.687 123.413C131.395 123.488 131.055 123.519 130.672 123.553C129.997 123.613 129.186 123.686 128.26 124.038L127.65 123.381C128.297 122.403 128.654 121.497 128.654 120.56V119.517ZM127.65 135.768C128.461 134.654 128.654 133.675 128.654 132.425V131.382C128.654 130.509 128.453 129.29 127.65 128.247L128.26 127.583C129.251 127.873 129.971 127.979 130.68 128.084C131.009 128.133 131.336 128.181 131.687 128.247C132.401 128.384 134.597 129.113 134.597 132.176C134.597 135.857 132.241 136.068 128.883 136.369C128.679 136.387 128.471 136.405 128.26 136.425L127.65 135.768Z" fill="white"/>
<path d="M164.005 131.246C164.005 138.518 161.288 141.477 154.37 141.477C149.784 141.477 146.94 140.154 145.577 136.954C144.804 135.111 144.708 132.954 144.708 130.341V111.516H151.007V130.798C151.007 134.661 151.876 136.538 154.303 136.538C156.925 136.538 157.729 134.453 157.729 130.589V111.516H163.998V131.246H164.005Z" fill="white"/>
<path d="M184.941 120.287H186.989V113.568C184.532 111.86 182.239 111.027 179.686 111.027C172.738 111.027 168.665 116.318 168.665 126.236C168.665 136.154 172.835 141.477 179.395 141.477C182.172 141.477 184.465 140.675 186.989 138.903V132.185H184.949C183.721 134.726 182.232 135.976 180.422 135.976C177.318 135.976 175.412 132.842 175.412 126.34C175.412 119.838 177.287 116.495 180.452 116.495C182.224 116.495 183.714 117.745 184.941 120.287Z" fill="white"/>
<path d="M197.846 120.005C197.846 121.328 197.816 122.412 196.877 123.663L197.458 124.32C198.657 123.936 199.847 123.797 201.144 123.797C202.44 123.797 203.697 123.872 204.956 124.32L205.573 123.663C204.569 122.309 204.569 121.154 204.569 119.767V111.516H210.875V140.995H204.569V132.785C204.569 131.358 204.569 130.244 205.573 128.889L204.956 128.225C203.794 128.642 202.566 128.745 201.203 128.745C199.946 128.745 198.717 128.714 197.45 128.225L196.87 128.889C197.839 130.244 197.839 131.358 197.839 132.785V140.995H191.531V111.516H197.839V120.005H197.846Z" fill="white"/>
<path fill-rule="evenodd" clip-rule="evenodd" d="M229.898 111.516H221.336V111.509L214.293 140.989H220.205L220.882 138.134C221.139 137.036 220.955 135.603 220.885 135.063L220.882 135.04L221.239 134.727C222.431 135.217 223.242 135.248 225.052 135.248C226.697 135.248 227.635 135.072 228.671 134.727L229.057 135.113C228.894 135.737 228.767 136.819 228.961 137.756L229.638 140.996H235.81L229.898 111.516ZM221.79 130.551C223.116 127.488 223.951 122.236 224.568 114.788H225.796C226.251 122.926 227.315 128.249 228.321 130.551L227.933 131.144C226.995 130.831 226.095 130.759 225.186 130.759C224.218 130.759 223.212 130.831 222.178 131.144L221.79 130.551Z" fill="white"/>
<path fill-rule="evenodd" clip-rule="evenodd" d="M247.359 111.516C250.299 111.516 252.592 111.653 254.469 112.839C256.762 114.299 257.991 116.775 257.991 119.903C257.991 123.831 256.181 126.06 253.531 126.582L253.405 127.383L260.224 140.989H252.92L247.909 128.945C246.97 128.945 246.1 128.737 245.229 128.353L244.714 129.019C245.586 130.205 245.586 131.839 245.586 134.204V140.995H239.288V111.516H247.359ZM244.194 116.662C244.677 117.184 245.036 118.507 245.036 119.652V121.081C245.036 122.541 244.967 123.654 244.127 124.664L244.64 125.29C245.445 125.128 246.235 125.072 246.994 125.018C247.85 124.957 248.667 124.899 249.421 124.695C250.939 124.278 252.042 122.717 252.042 120.801C252.042 118.885 251.132 117.456 249.518 116.83C248.896 116.596 248.194 116.546 247.431 116.493C246.605 116.434 245.708 116.371 244.767 116.062L244.186 116.656L244.194 116.662Z" fill="white"/>
<path d="M279.324 111.516H263.585V140.995H279.777V136.088H273.151C271.855 136.088 270.663 136.16 269.465 136.577L268.854 135.951C269.54 134.974 269.86 134.107 269.86 133.025V131.777C269.86 130.558 269.599 129.651 268.854 128.608L269.465 127.943C270.596 128.393 271.825 128.463 273.151 128.463H278.935V123.454H273.151C271.855 123.454 270.626 123.588 269.465 123.974L268.854 123.316C269.502 122.339 269.86 121.473 269.86 120.494V119.38C269.86 118.265 269.532 117.401 268.854 116.422L269.465 115.797C270.663 116.252 271.855 116.287 273.151 116.287H279.324V111.516Z" fill="white"/>
<path d="M300.038 119.692H298.005C296.777 117.079 294.871 115.756 293.159 115.756C291.126 115.756 289.799 117.081 289.799 118.717C289.799 121.102 292.126 122.294 295.343 123.941C295.974 124.264 296.64 124.605 297.328 124.976C299.071 125.914 301.497 128.487 301.497 132.321C301.497 137.402 297.646 141.476 291.474 141.476C288.891 141.476 286.337 140.746 283.522 139.455L283.745 132.112H285.622C286.821 134.894 289.114 136.498 291.437 136.498C293.633 136.498 295.087 135.038 295.087 133.226C295.087 130.746 293.064 129.795 290.845 128.751C290.387 128.536 289.922 128.317 289.464 128.08C285.555 126.027 283.611 123.204 283.611 119.548C283.611 114.465 286.971 111.02 292.987 111.02C295.347 111.02 297.611 111.613 300.03 112.654V119.687L300.038 119.692Z" fill="white"/>
<path d="M310.9 140.995H317.102V119.87C317.102 118.755 316.812 117.89 316.135 116.912L316.715 116.287C317.913 116.744 319.105 116.775 320.401 116.775H323.468V111.516H304.564V116.775H307.601C308.927 116.775 310.126 116.704 311.287 116.287L311.867 116.912C311.19 117.89 310.9 118.755 310.9 119.87V140.995Z" fill="white"/>
</svg>
