<svg width="360" height="217" viewBox="0 0 360 217" fill="none" xmlns="http://www.w3.org/2000/svg">
<path d="M82.0282 60.8512C86.4039 60.8512 89.9942 64.4346 89.9942 68.8018C89.9942 73.1691 86.4039 76.6405 82.0282 76.6405C77.6525 76.6405 74.0622 73.0571 74.0622 68.6898C74.0622 64.3226 77.6525 60.7392 82.0282 60.8512ZM86.8527 91.8698C84.4965 88.2865 79.5598 88.2865 77.0915 91.8698C71.5938 100.044 63.5156 113.258 63.5156 120.425C63.5156 131.175 71.706 139.91 81.8038 139.91C91.9015 139.91 100.204 131.287 100.204 120.537C100.204 113.258 92.2381 100.044 86.8527 91.8698Z" fill="#FFCC00"/>
<path d="M103.795 67.0101C101.775 66.0022 99.4193 66.7861 98.4095 68.6898C97.3997 70.5934 98.1851 73.057 100.092 73.9529C113.444 80.7837 121.747 94.3333 121.747 109.227C121.747 115.834 120.064 122.105 117.034 127.592C117.483 125.464 117.707 123.336 117.707 121.097C117.707 112.474 114.566 104.076 108.844 97.5808C107.385 95.9011 104.917 95.7891 103.234 97.2448C101.551 98.7006 101.439 101.164 102.897 102.844C107.385 107.883 109.854 114.378 109.854 121.097C109.741 135.878 97.9607 147.86 83.2629 148.532C82.8141 148.532 82.2531 148.532 81.8043 148.532C81.3555 148.532 80.7945 148.532 80.3458 148.532C65.6479 147.748 53.8672 135.654 53.9794 120.873C53.9794 114.49 56.1111 108.555 60.1502 103.628C61.4966 101.948 61.2722 99.4845 59.5893 98.0287C57.9063 96.6849 55.3258 96.9089 53.9794 98.5886C48.7061 104.972 45.9012 112.81 45.9012 120.873C45.9012 123.112 46.1256 125.352 46.4622 127.48C43.545 121.993 41.8621 115.722 41.8621 109.115C41.9743 94.2214 50.2769 80.7837 63.7406 74.0648C65.7601 73.057 66.5455 70.7054 65.5357 68.8017C64.5259 66.8981 62.1698 66.1142 60.1502 67.0101C44.106 74.9607 34.0083 91.0859 34.0083 109.003C33.8961 134.422 54.316 155.363 79.897 156.371C80.4579 156.371 81.1311 156.371 81.6921 156.483C108.171 156.595 129.713 135.43 129.825 109.339C129.825 91.4219 119.951 75.2966 103.795 67.0101Z" fill="#25E899"/>
<path d="M158.885 108.22L172.124 94.67H178.968L163.597 110.011L179.08 128.6H172.236L160.007 113.483L158.997 114.491V128.488H153.836V94.67H158.997V108.22H158.885ZM204.549 99.4851H190.973V107.66H204.213V112.475H190.973V123.785H204.549V128.6H185.812V94.67H204.549V99.4851ZM225.081 114.155L235.628 128.6H229.345L219.584 114.715H218.686V128.6H213.525V94.67H219.584C224.071 94.67 227.325 95.5658 229.345 97.2455C231.589 99.1492 232.598 101.613 232.598 104.636C232.598 106.988 231.925 109.115 230.579 110.795C229.233 112.475 227.325 113.595 225.081 114.155ZM218.686 110.235H220.369C225.193 110.235 227.662 108.332 227.662 104.636C227.662 101.165 225.306 99.3731 220.593 99.3731H218.798V110.235H218.686ZM243.033 128.6V92.3184L267.828 118.186V94.67H272.989V130.616L248.194 104.748V128.488L243.033 128.6ZM302.049 99.4851H288.473V107.66H301.712V112.475H288.473V123.785H302.049V128.6H283.312V94.67H302.049V99.4851ZM316.185 94.67V123.785H326.171V128.6H311.024V94.67H316.185Z" fill="white"/>
</svg>
