<svg width="377" height="227" viewBox="0 0 377 227" fill="none" xmlns="http://www.w3.org/2000/svg">
<g clip-path="url(#clip0_801_721)">
<path d="M86.9503 74.5167C86.3215 75.8908 82.9625 78.4538 79.2507 80.5227C70.9069 85.1545 55.661 92.1331 54.0352 92.1331C51.4891 92.1331 40.0623 98.8339 37.7923 101.598C32.2707 108.484 29.7246 113.501 25.4607 126.301C23.7428 131.427 21.7489 136.244 21.0127 137.139C18.5739 139.687 19.3868 143.145 23.5588 147.576C27.3626 151.606 29.7246 153.181 37.7923 156.917C44.8631 160.267 47.9614 160.962 58.2071 161.549C70.4468 162.336 73.7137 162.738 75.8917 164.019C78.3304 165.393 81.5974 165.285 81.1526 163.71C80.8765 163.124 79.9716 162.336 78.9746 162.244C75.1555 161.456 75.7077 160.067 79.7875 160.067C82.8705 160.067 84.0515 159.681 84.0515 158.693C84.0515 156.824 81.9655 156.13 77.9777 156.824C74.3426 157.411 74.1585 156.423 77.7016 155.636C79.4194 155.25 81.6894 153.181 81.0606 152.594C80.9686 152.486 76.9807 152.795 72.3487 153.181C67.5479 153.675 61.5508 153.582 58.7439 153.088C55.9371 152.594 53.391 152.193 53.0382 152.193C52.5781 152.193 52.302 151.807 52.302 151.313C52.302 150.818 58.2071 150.232 65.3699 150.031C76.7046 149.738 78.6986 149.444 80.3397 147.87C82.9625 145.307 82.6864 141.169 79.7875 137.432C79.6342 137.216 78.8519 136.166 77.4255 134.283L80.2477 131.226L83.1465 128.076C83.1465 130.855 83.1465 132.399 83.1465 132.708C83.1465 135.256 83.5913 138.421 84.1435 139.795C85.2325 142.25 91.5824 147.375 98.193 151.019C102.104 153.181 113.531 155.944 116.062 155.342C118.516 154.756 117.887 153.181 114.881 152.486C110.709 151.606 110.709 150.324 114.881 149.63C119.789 148.75 119.513 147.267 114.436 147.267C109.712 147.267 109.083 146.001 113.071 144.427C116.246 143.238 116.798 140.875 113.792 141.663C112.626 141.956 110.801 142.45 109.712 142.651C108.623 142.944 106.905 143.732 105.816 144.318C103.193 145.801 101.552 145.013 96.4752 140.088C96.1991 139.795 94.7727 138.359 92.2113 135.75C93.3002 132.862 93.9138 131.257 94.0211 130.932C94.9414 128.277 96.1991 124.232 96.7513 121.978C97.2881 119.615 100.202 114.397 103.822 109.178C111.445 98.2472 115.617 89.7709 116.154 83.9657C116.614 78.4538 115.617 77.2804 107.81 74.5167C104.635 73.436 100.647 71.5678 99.0213 70.487C95.3862 68.0167 94.2972 68.0167 90.8462 70.2863C89.4044 71.2744 87.5945 73.2352 86.9503 74.5167Z" fill="white"/>
<path d="M244.072 70.1009C246.404 72.9418 247.692 74.5166 247.953 74.8254C251.434 79.1485 251.849 83.2708 251.849 113.532C251.849 144.828 251.434 147.7 247.753 149.969C241.005 154.292 243.459 155.527 258.183 155.527C272.095 155.527 276.788 153.057 268.414 150.386C264.932 149.352 264.318 147.298 264.318 138.436C264.334 137.726 264.395 134.159 264.518 127.736C268.076 132.059 270.055 134.468 270.453 134.947C273.72 138.853 278.629 145.229 281.083 148.734C285.178 154.709 286.819 155.527 295.608 155.527C305.225 155.527 308.492 152.856 301.743 150.587C299.703 149.969 292.54 143.176 285.791 135.765C284.978 134.854 280.96 130.253 273.72 121.978C279.119 117.16 282.126 114.474 282.724 113.949C287.831 109.626 293.568 105.504 295.608 104.886C297.448 104.268 299.089 102.616 299.089 101.381C299.089 99.7447 294.994 98.911 286.819 98.911C278.843 98.911 274.549 99.7447 274.549 101.381C274.549 102.616 275.776 104.068 277.202 104.685C278.843 105.303 277.003 108.592 272.095 113.532C271.573 114.073 268.981 116.744 264.318 121.561C264.318 103.898 264.318 94.0939 264.318 92.1176C264.318 60.0035 264.732 60.6211 251.634 66.5962C250.622 67.0594 248.106 68.2328 244.072 70.1009Z" fill="white"/>
<path d="M309.918 101.998C309.535 102.199 307.633 103.156 304.197 104.885L309.918 105.704L315.44 106.321C315.44 119.043 315.44 126.115 315.44 127.535C315.44 151.404 317.495 155.527 329.152 155.527C337.741 155.527 341.622 153.674 344.275 148.733C346.331 145.028 346.116 144.611 340.395 145.846C329.965 147.915 327.71 143.592 327.925 123.413C327.925 122.255 328.002 116.496 328.124 106.121C332.91 106.121 335.563 106.121 336.1 106.121C346.944 106.121 347.143 100.362 336.514 99.5279C329.351 98.9103 328.738 98.2928 328.124 92.117C327.312 83.687 325.057 83.687 319.735 92.3331C317.495 96.2393 312.986 100.562 309.918 101.998Z" fill="white"/>
<path d="M142.857 108.946C145.097 110.799 145.925 115.955 145.925 128.708C145.925 143.746 145.311 146.217 141.83 148.471C134.882 153.01 137.121 154.245 152.06 154.245C165.956 154.245 170.665 151.775 162.275 149.088C158.395 147.853 157.98 146.217 158.594 128.924C158.64 127.658 158.839 121.344 159.207 109.98C164.484 109.98 167.429 109.98 168.011 109.98C174.545 109.98 177.414 108.946 179.055 106.074C183.349 98.2462 169.238 93.3056 161.876 100.099C158.395 103.187 158.195 103.187 158.195 100.099C158.195 95.7759 155.128 95.7759 146.538 100.099C138.961 104.005 138.348 105.24 142.857 108.946Z" fill="white"/>
<path d="M186.602 128.972C186.602 145.446 197.031 155.528 214.01 155.528C221.373 155.528 224.64 154.292 229.962 149.552C233.643 146.264 236.296 142.975 235.683 142.358C235.069 141.74 230.575 142.759 225.667 144.411C218.504 146.881 216.05 146.881 211.556 144.828C206.035 142.142 198.258 129.589 200.099 126.301C200.712 125.467 208.903 124.649 218.504 124.649C237.523 124.649 238.137 124.031 233.444 110.444C229.762 100.146 215.652 95.0049 203.995 99.9455C194.577 103.852 186.602 117.037 186.602 128.972ZM221.986 114.351C223.014 118.056 221.986 118.473 211.97 118.473C199.7 118.473 197.645 115.586 205.007 108.175C209.915 103.234 210.943 103.234 216.664 107.156C218.919 108.792 221.373 112.096 221.986 114.351Z" fill="white"/>
</g>
<defs>
<clipPath id="clip0_801_721">
<rect width="328.231" height="108.076" fill="white" transform="translate(18.4355 56.9014)"/>
</clipPath>
</defs>
</svg>
