<svg width="360" height="217" viewBox="0 0 360 217" fill="none" xmlns="http://www.w3.org/2000/svg">
<g clip-path="url(#clip0_801_853)">
<ellipse cx="259.729" cy="74.0511" rx="8.39345" ry="8.30184" fill="white"/>
<path d="M87.0664 54.678V61.008C99.8201 65.8874 101.552 72.4482 92.2278 80.9295C97.972 83.5753 101.152 87.9189 100.061 94.1748C98.871 101.016 93.2601 103.217 87.133 104.618C87.0248 106.637 86.9249 108.525 86.825 110.503C84.902 111.69 82.9373 111.319 80.7063 110.799C80.5065 108.937 80.3067 107.09 80.1069 105.219C78.009 104.272 76.0444 104.428 73.8383 105.071C73.6468 106.942 73.4637 108.788 73.2722 110.651C71.2825 111.648 69.3928 111.146 67.6612 111.121C65.963 109.242 67.3532 106.901 66.1045 105.038C64.0649 104.206 61.8422 104.717 59.6777 104.585V61.2223C61.9088 61.1234 64.2231 61.7663 66.3792 60.6783C66.7871 58.6013 66.937 56.6396 66.3126 54.678H73.78C73.497 56.7715 73.1723 58.865 74.0797 60.9668C76.1442 61.3295 78.1006 61.6427 80.4149 60.5217V54.678H87.0498H87.0664ZM70.2752 98.0734C75.4699 97.925 80.4066 98.6668 85.2932 97.5788C88.6398 96.837 90.5379 94.8424 90.4963 91.2488C90.4546 87.6305 88.3734 85.6358 85.1018 85.0341C80.2401 84.144 75.3201 84.5643 70.192 84.7622C69.8424 89.4108 69.7008 93.5484 70.2752 98.0734ZM70.4334 77.748C74.754 77.748 78.7416 77.9046 82.7125 77.6903C85.235 77.5584 87.1497 76.3139 87.3661 73.4291C87.5909 70.4454 86.1091 68.8711 83.287 68.2282C79.0579 67.2721 74.8206 67.8408 70.3418 67.7914C69.8257 71.1789 69.6592 74.2286 70.4417 77.7398L70.4334 77.748Z" fill="#FFB800"/>
<path d="M59.6855 116.849C62.5576 116.553 65.4297 116.289 68.9428 117.163V154.467H91.5197C92.0358 157.187 92.1274 159.412 91.3782 162.206C80.8306 162.141 70.2664 162.8 59.6855 161.844V116.849Z" fill="#FFB800"/>
<path d="M292.798 143.101V117.138C295.987 116.38 298.642 116.339 301.564 117.122V161.539C295.088 163.41 293.564 162.85 290.309 157.501C286.33 150.956 282.376 144.404 278.338 137.901C277.672 136.829 277.381 135.346 275.383 134.736V161.589C272.269 162.71 269.589 162.306 266.625 161.968V117.427C272.885 115.424 274.808 116.067 277.905 121.144C282.442 128.579 286.971 136.021 291.508 143.464C291.941 143.341 292.374 143.225 292.798 143.101Z" fill="#FFB800"/>
<path d="M199.751 138.626C203.589 141.288 205.82 144.429 205.795 148.987C205.762 155.506 203.064 159.726 196.646 161.317C188.804 163.262 180.804 162.051 172.537 162.257V116.636C181.303 116.974 189.911 115.391 198.394 117.979C205.57 120.172 208.7 132.617 199.751 138.618V138.626ZM181.861 154.336C185.532 154.36 189.054 154.962 192.55 153.973C195.272 153.207 196.629 151.303 196.637 148.558C196.637 145.805 195.256 143.695 192.55 143.151C188.97 142.434 185.299 142.558 181.611 143.093C181.495 147.041 181.162 150.52 181.861 154.336ZM181.703 134.868C184.908 135.799 188.055 135.56 191.151 135.148C194.032 134.769 195.947 133.236 196.071 130.112C196.196 126.807 194.315 125.002 191.293 124.482C188.213 123.955 185.066 123.98 181.828 124.581C181.203 128.101 181.386 131.422 181.703 134.868Z" fill="#FFB800"/>
<path d="M252.929 139.516C252.929 142.648 253.154 145.804 252.888 148.912C252.213 156.701 245.878 162.38 237.945 162.553C224.075 162.866 218.273 157.228 218.273 143.455C218.273 139.639 218.19 135.823 218.306 132.007C218.598 122.363 225.441 116.108 235.589 116.091C245.961 116.066 252.63 122.034 253.021 131.751C253.121 134.339 253.037 136.928 253.037 139.516C253.004 139.516 252.971 139.516 252.938 139.516H252.929ZM243.888 139.606C243.888 136.886 244.055 134.15 243.855 131.446C243.514 126.773 240.325 123.913 235.747 123.897C231.226 123.88 228.071 126.386 227.788 131.018C227.447 136.573 227.447 142.178 227.747 147.733C227.996 152.448 231.468 155.299 235.93 155.168C240.384 155.036 243.572 152.003 243.88 147.362C244.055 144.791 243.913 142.194 243.897 139.606H243.888Z" fill="#FFB800"/>
<path d="M125.57 147.526C128.625 146.833 131.206 147.015 133.754 147.287C136.501 153.839 139.747 155.858 145.533 154.729C147.897 154.268 149.679 153.13 150.187 150.699C150.728 148.111 149.163 146.471 147.048 145.539C143.152 143.817 139.09 142.457 135.185 140.767C127.76 137.544 124.929 132.846 126.17 126.137C127.21 120.516 132.913 116.419 140.097 116.098C146.416 115.818 152.268 116.906 156.539 122.008C158.711 124.604 159.752 127.637 158.886 131.165C156.247 131.964 153.65 131.552 151.103 131.47C148.239 125.14 145.883 123.45 140.588 123.912C137.941 124.142 135.635 124.991 135.111 127.942C134.619 130.67 136.193 132.368 138.549 133.341C142.361 134.915 146.266 136.267 150.079 137.841C157.629 140.94 160.443 145.259 159.311 151.812C158.262 157.903 152.867 162.139 145.525 162.502C140.955 162.724 136.409 162.708 132.247 160.334C127.318 157.523 125.187 153.345 125.579 147.526H125.57Z" fill="#FFB800"/>
<path d="M215.709 76.1335V64.2482C218.407 63.6053 220.663 63.8196 222.827 64.0257C223.784 67.5286 223.918 98.742 223.027 103.209C220.271 103.448 217.358 104.784 214.968 101.94C206.535 106.861 197.145 102.525 196.521 90.8707C196.454 89.6508 196.454 88.4145 196.521 87.1946C197.087 76.2242 204.629 71.5756 215.718 76.1253L215.709 76.1335ZM204.762 88.9502C204.854 89.8981 204.845 90.8624 205.045 91.7773C205.67 94.6044 206.885 97.1348 210.29 97.0936C213.512 97.0523 214.544 94.6044 215.152 91.9174C215.776 89.1728 215.56 86.5105 214.511 83.9307C213.795 82.1669 212.438 81.013 210.448 80.9388C208.309 80.8563 206.719 81.9031 205.861 83.8071C205.137 85.4225 204.687 87.1452 204.754 88.9585L204.762 88.9502Z" fill="#FFB800"/>
<path d="M131.097 103.225C126.879 103.686 123.965 103.222 122.356 101.832C117.577 104.395 112.674 105.145 107.929 101.98C104.74 99.8538 104.357 96.3508 105.39 93.1363C108.195 84.3501 116.378 87.3997 122.489 86.1469C123.388 84.0534 122.913 82.4956 121.099 81.4571C119.284 80.4186 117.386 80.5092 115.563 81.4901C111.317 83.7649 110.551 83.8473 106.089 82.3308C105.531 81.5065 105.989 80.7153 106.322 80.0312C108.628 75.2589 115.18 73.0088 122.331 74.4759C128.017 75.6463 131.047 79.2729 131.088 85.1331C131.138 91.1005 131.097 97.0679 131.097 103.233V103.225ZM122.564 91.2241C118.884 91.6198 114.389 89.4933 113.157 94.6364C112.541 97.1998 115.055 98.1888 117.527 98.1311C121.373 98.0405 123.072 95.8975 122.572 91.2324L122.564 91.2241Z" fill="#FFB800"/>
<path d="M192.016 91.5045H173.685C174.751 97.9829 179.388 98.972 186.922 94.719C188.562 95.4608 189.777 96.6971 190.693 98.2054C187.713 103.505 180.07 105.599 173.585 102.953C166.826 100.192 163.596 91.5704 166.085 82.9243C167.924 76.5283 174.376 73.0089 181.894 74.3029C188.545 75.4486 192.741 82.2237 192.016 91.4962V91.5045ZM183.875 85.7019C183.334 82.1495 181.394 80.6989 178.464 80.839C175.708 80.9709 173.852 82.3803 174.002 85.6195C177.173 86.147 180.27 85.9987 183.883 85.7019H183.875Z" fill="#FFB800"/>
<path d="M283.233 103.421H276.49V74.9113C279.296 74.5239 282.209 73.3535 284.632 76.1394C294.622 71.2682 301.631 75.447 301.69 86.335C301.714 91.8821 301.69 97.4291 301.69 103.026C298.926 103.899 296.636 103.603 293.614 103.331C293.614 99.0034 293.614 94.7091 293.614 90.4067C293.614 88.7747 293.706 87.1263 293.523 85.5108C293.207 82.7991 291.841 80.7962 288.803 80.821C285.831 80.8539 284.224 82.6755 284.099 85.4943C283.916 89.5742 284.008 93.6624 283.924 97.7423C283.891 99.4896 284.241 101.278 283.242 103.413L283.233 103.421Z" fill="#FFB800"/>
<path d="M160.525 83.5735C157.387 83.6971 154.423 85.2219 152.275 81.6943C151.393 80.2436 149.461 80.0128 147.771 80.2271C146.29 80.4167 144.541 80.6393 144.25 82.4773C143.925 84.5378 145.765 84.7769 147.172 85.2219C150.569 86.3017 154.173 86.8045 157.278 88.7002C162.282 91.7498 162.49 98.2447 157.686 101.632C153.274 104.74 143.484 104.665 139.205 101.41C137.041 99.7613 135.484 97.7749 136.491 94.6758C139.621 94.1648 142.627 93.2911 144.841 96.8188C145.732 98.2364 147.738 98.2447 149.436 98.0551C151.002 97.882 152.575 97.4452 152.758 95.6072C152.941 93.8021 151.285 93.4889 150.011 93.1098C146.839 92.1784 143.617 91.3954 140.712 89.7799C134.943 86.5737 134.66 79.8892 140.121 76.2049C147.871 70.9711 159.318 74.7955 160.533 83.557L160.525 83.5735Z" fill="#FFB800"/>
<path d="M261.364 98.527C262.738 99.8457 264.761 99.6891 265.085 102.137C262.48 104.824 258.717 104.89 255.995 103.118C252.282 100.695 256.819 100.118 258.193 98.222C255.87 93.8454 253.372 89.2132 250.958 84.5481C249.71 82.1414 248.178 79.8583 247.886 77.0395C247.32 71.5501 249.793 66.7614 254.496 64.503C259.033 62.3271 264.42 63.0936 267.966 66.407C271.745 69.9346 273.077 75.5476 270.821 80.2787C268.482 85.1993 265.751 89.9468 263.212 94.7768C262.58 95.9719 262.014 97.2 261.364 98.527ZM259.616 67.4702C255.787 67.5609 252.84 70.6105 252.965 74.3442C253.089 78.0862 256.195 81.004 259.966 80.9215C263.82 80.8309 266.592 77.9131 266.526 74.0145C266.459 70.1654 263.512 67.3795 259.616 67.4785V67.4702Z" fill="#FFB800"/>
<path d="M112.215 161.809C109.718 162.625 107.029 162.461 104.049 161.834V117.268C106.488 116.09 109.077 116.7 112.215 116.749V161.809Z" fill="#FFB800"/>
</g>
<defs>
<clipPath id="clip0_801_853">
<rect width="242.011" height="107.924" fill="white" transform="translate(59.6855 54.6797)"/>
</clipPath>
</defs>
</svg>
