<svg width="360" height="252" viewBox="0 0 360 252" fill="none" xmlns="http://www.w3.org/2000/svg">
<path d="M168.238 127.944C164.531 127.332 161.04 126.684 157.729 125.988C160.044 128.843 163.559 130.679 167.518 130.679H169.558C169.03 129.815 168.586 128.903 168.238 127.944Z" fill="white"/>
<path d="M168.573 116.93C156.576 102.726 143.367 84.5621 140.092 70.1776C136.612 69.4337 133.241 70.2735 130.146 73.3208C115.821 87.3814 148.31 108.1 167.925 118.73C168.105 118.118 168.321 117.518 168.573 116.93Z" fill="white"/>
<path d="M167.337 123.094C146.199 111.793 132.45 101.379 126.271 92.0096C124.856 92.9214 123.644 94.2771 122.696 96.1726C114.718 112.105 147.554 120.227 167.361 123.61C167.361 123.442 167.349 123.262 167.337 123.094Z" fill="white"/>
<path d="M172.756 111.38C166.878 92.784 161.431 70.1095 163.459 54.4533C159.979 51.502 155.852 50.5542 150.934 52.6177C130.946 61.0277 155.504 94.8955 170.873 113.251C171.437 112.579 172.072 111.943 172.756 111.38Z" fill="white"/>
<path d="M232.799 73.3188C229.716 70.2956 226.369 69.4438 222.914 70.1636C222.914 70.1756 222.902 70.1996 222.902 70.2116C222.734 70.9554 222.542 71.7232 222.314 72.503C222.194 72.9349 222.038 73.3788 221.894 73.8227C221.738 74.3026 221.582 74.7825 221.402 75.2864C221.234 75.7423 221.066 76.2102 220.886 76.678C220.67 77.2299 220.442 77.7818 220.214 78.3456C220.01 78.8255 219.818 79.2934 219.602 79.7853C219.219 80.6491 218.811 81.5249 218.367 82.4127C218.139 82.8686 217.899 83.3244 217.671 83.7923C217.347 84.4162 217.011 85.052 216.663 85.6999C216.411 86.1677 216.159 86.6356 215.883 87.1035C215.439 87.8833 214.984 88.6751 214.504 89.4669C214.3 89.8029 214.12 90.1268 213.916 90.4747C213.244 91.5785 212.536 92.6942 211.792 93.8339C211.516 94.2658 211.228 94.6977 210.941 95.1296C210.401 95.9454 209.837 96.7732 209.261 97.613C208.961 98.0569 208.661 98.4888 208.349 98.9327C207.581 100.024 206.802 101.116 205.974 102.244C205.842 102.424 205.734 102.592 205.602 102.76C204.654 104.043 203.658 105.363 202.627 106.695C202.315 107.103 201.991 107.511 201.667 107.93C200.887 108.938 200.083 109.946 199.255 110.978L198.248 112.237C197.3 113.401 196.316 114.589 195.32 115.777C195.704 116.484 196.016 117.24 196.292 118.008C215.991 107.211 246.812 87.0795 232.799 73.3188Z" fill="white"/>
<path d="M196.293 127.668C195.933 128.724 195.453 129.731 194.865 130.667H195.597C199.58 130.667 203.107 128.808 205.423 125.94C202.531 126.552 199.484 127.128 196.293 127.668Z" fill="white"/>
<path d="M240.248 96.1726C239.3 94.2771 238.088 92.9214 236.672 92.0096C230.626 101.139 217.369 111.289 197.082 122.302C197.094 122.494 197.106 122.674 197.106 122.866C197.106 123.034 197.082 123.19 197.082 123.358C217.009 119.819 248.034 111.721 240.248 96.1726Z" fill="white"/>
<path d="M190.465 110.472C191.305 111.036 192.084 111.684 192.804 112.404C208.197 93.8685 231.723 60.9004 212.036 52.6224C207.105 50.5469 202.966 51.5067 199.487 54.47C201.466 69.9103 196.211 92.1409 190.465 110.472Z" fill="white"/>
<path d="M192.356 122.858C192.356 125.55 191.286 128.131 189.383 130.035C187.48 131.938 184.898 133.008 182.206 133.008C179.514 133.008 176.933 131.938 175.029 130.035C173.126 128.131 172.057 125.55 172.057 122.858C172.057 120.166 173.126 117.585 175.029 115.681C176.933 113.778 179.514 112.708 182.206 112.708C184.898 112.708 187.48 113.778 189.383 115.681C191.286 117.585 192.356 120.166 192.356 122.858Z" fill="white"/>
<path d="M182.214 107.978C183.786 107.978 185.297 108.23 186.713 108.674C194.295 84.2955 204.973 39.6302 181.458 39.6302C157.776 39.6302 168.777 84.9193 176.36 109.177C178.159 108.398 180.139 107.978 182.214 107.978Z" fill="white"/>
<path d="M95.4783 160.38C97.5024 160.38 97.7531 160.134 97.7531 162.413V163.43C97.7531 163.764 98.1988 163.89 98.3706 163.602C99.2202 162.172 100.051 160.714 100.664 159.628V158.235C100.664 157.938 100.367 157.896 100.158 158.026C98.7234 158.699 97.0382 159.205 95.5201 159.628C94.8469 159.79 95.0558 160.38 95.4783 160.38Z" fill="white"/>
<path d="M110.651 159.153C109.547 158.355 108.219 157.928 106.858 157.932C104.411 157.932 101.969 159.279 100.665 161.6V161.591C99.8243 163.062 98.7472 164.85 97.7583 166.451V174.748C97.7583 176.981 96.5373 176.6 95.1028 176.855C94.7221 176.939 94.7221 177.57 95.1445 177.57H103.278C103.701 177.57 103.701 176.939 103.32 176.855C101.886 176.605 100.665 176.981 100.665 174.748V164.845C100.665 161.642 103.571 159.325 106.017 159.325C107.197 159.325 108.25 159.873 108.798 161.224C109.137 162.069 109.685 162.403 110.233 162.403C111.496 162.398 112.675 160.63 110.651 159.153Z" fill="white"/>
<path d="M136.864 158.902C135.472 159.153 134.042 158.902 133.155 161.01V160.926C132.482 162.57 131.809 164.172 131.131 165.815L127.041 175.509C126.367 177.152 125.694 178.754 125.016 180.397C123.754 183.387 121.813 185.583 118.526 185.583C116.251 185.583 114.65 184.404 113.93 183.095C113.132 181.577 114.055 180.606 115.026 180.606C115.657 180.606 116.288 181.029 116.46 181.953C116.711 183.429 117.347 184.311 118.907 184.311C121.771 184.311 123.081 181.739 124.046 179.464C124.552 178.16 124.046 177.018 123.707 176.261L117.259 160.88C116.372 158.814 114.984 159.153 113.591 158.898C113.169 158.856 113.169 158.224 113.633 158.224H122.356C122.779 158.224 122.779 158.856 122.398 158.898C121.052 159.148 119.826 158.981 120.374 160.583C122.523 165.68 123.029 167.199 125.685 173.438C125.936 174.07 126.233 174.07 126.484 173.438L131.878 160.625C132.468 158.939 130.574 159.148 129.181 158.898C128.8 158.856 128.8 158.224 129.223 158.224H136.809C137.287 158.229 137.287 158.861 136.864 158.902Z" fill="white"/>
<path d="M158.899 167.79C158.899 173.607 155.189 177.99 149.247 177.99C146.675 177.99 144.739 177.019 143.555 175.59V185.283C143.555 187.516 144.818 187.182 146.211 187.433C146.633 187.474 146.633 188.148 146.169 188.148H138.077C137.654 188.148 137.613 187.474 138.035 187.433C139.47 187.182 140.691 187.516 140.691 185.283V162.864C140.691 160.589 140.393 160.631 138.416 160.631C137.993 160.631 137.784 160.042 138.457 159.874C139.976 159.452 141.661 158.988 143.095 158.273C143.304 158.147 143.56 158.189 143.56 158.482V160.464C145.12 158.737 147.311 157.934 150.092 157.934C155.612 157.929 158.899 162.27 158.899 167.79ZM155.737 168.004C155.862 163.496 153.671 159.113 148.783 159.113C146.127 159.113 143.555 161.012 143.555 162.697V171.337C143.555 175.594 146.336 177.024 148.908 176.982C152.998 176.978 155.612 172.47 155.737 168.004Z" fill="white"/>
<path d="M171.498 176.896C170.063 177.611 168.462 178.075 167.074 178.075C164.799 178.075 162.942 176.813 162.984 173.312V159.319H160.286C159.571 159.319 159.571 158.391 160.286 158.391C163.49 158.349 164.627 157.462 164.836 152.704C164.836 152.365 165.087 152.198 165.342 152.198C165.593 152.198 165.848 152.365 165.848 152.704V158.391H169.01C169.766 158.391 169.766 159.319 169.01 159.319H165.848V173.229C165.848 175.759 166.693 176.729 168.253 176.729C169.051 176.729 170.022 176.474 171.159 176.014C171.837 175.717 172.213 176.562 171.498 176.896Z" fill="white"/>
<path d="M182.495 177.993C169.515 177.993 169.515 157.932 182.495 157.932C195.518 157.932 195.518 177.993 182.495 177.993ZM182.495 158.777C173.688 158.777 173.73 177.152 182.495 177.152C191.26 177.152 191.302 158.777 182.495 158.777Z" fill="white"/>
<path d="M262.557 177.567H254.423C254 177.567 254.001 176.936 254.381 176.852C255.816 176.602 257.037 176.978 257.037 174.745V163.533C257.037 160.794 254.804 159.531 252.315 159.531C249.409 159.531 246.164 161.341 246.164 164.717V174.749C246.164 176.982 247.385 176.602 248.819 176.857C249.242 176.94 249.2 177.572 248.778 177.572H240.686C240.221 177.572 240.221 176.94 240.644 176.857C242.037 176.606 243.258 176.982 243.258 174.749V162.609C243.258 160.334 243.002 160.376 240.983 160.376C240.56 160.376 240.351 159.786 241.025 159.619C242.584 159.197 244.27 158.691 245.662 158.017C245.871 157.892 246.169 157.934 246.169 158.226V161.43C247.645 159.071 250.468 157.934 253.165 157.934C256.661 157.934 259.952 159.833 259.952 163.537V174.749C259.952 176.982 261.173 176.602 262.608 176.857C262.979 176.936 262.979 177.567 262.557 177.567Z" fill="white"/>
<path d="M282.115 177.57C281.651 177.696 281.145 177.779 280.639 177.779C279.246 177.779 277.9 177.231 277.9 175.379V173.271C276.929 175.802 274.613 177.951 270.397 177.951C266.646 177.951 264.58 175.634 264.58 173.188C264.622 168.132 270.397 167.12 274.441 166.906C276.423 166.781 277.895 166.865 277.895 166.567V163.239C277.895 160.286 275.407 159.023 272.839 159.023C271.744 159.023 270.69 159.232 269.761 159.655C268.076 160.5 268.201 162.143 268.707 163.281C269.297 164.673 268.368 165.597 267.445 165.597C266.646 165.597 265.843 164.966 265.801 163.448C265.801 163.109 265.885 162.774 266.01 162.394V162.31C266.052 162.227 266.094 162.143 266.135 162.055C266.261 161.674 266.432 161.256 266.683 160.959C266.85 160.709 267.022 160.495 267.189 160.286C267.231 160.244 267.231 160.244 267.273 160.244C267.398 160.035 267.57 159.905 267.737 159.78C269.255 158.517 271.405 157.881 273.512 157.881C277.18 157.881 280.759 159.734 280.759 163.234V174.864C280.759 176.591 281.265 176.888 282.064 176.888C282.491 176.897 282.579 177.445 282.115 177.57ZM277.9 168.931V167.626C274.274 167.626 267.867 167.965 267.867 173.23C267.867 175.082 269.172 176.6 271.279 176.6C273.851 176.605 277.774 175.045 277.9 168.931Z" fill="white"/>
<path d="M292.606 177.57H284.514C284.092 177.57 284.05 176.939 284.473 176.855C285.907 176.605 287.128 176.981 287.128 174.748V152.282C287.128 150.049 286.831 150.049 284.853 150.049C284.431 150.049 284.222 149.501 284.895 149.293C286.413 148.912 288.098 148.406 289.491 147.733C289.742 147.607 289.997 147.607 289.997 147.9V174.748C289.997 176.981 291.26 176.6 292.653 176.855C293.066 176.939 293.066 177.57 292.606 177.57Z" fill="white"/>
<path d="M100.367 162.159C100.163 162.521 99.9356 162.869 99.722 163.222C99.5038 163.584 99.2856 163.947 99.0674 164.313C98.6264 165.047 98.1807 165.78 97.7257 166.505C97.2661 167.234 96.7972 167.948 96.3051 168.654C95.8182 169.356 95.304 170.039 94.7637 170.702C94.2315 171.358 93.6627 171.984 93.0599 172.577C92.4575 173.17 91.8154 173.72 91.1379 174.225C90.3859 174.788 89.5858 175.284 88.747 175.706C88.3477 175.906 87.9485 176.087 87.526 176.231C87.1871 176.347 86.8389 176.444 86.4907 176.523C85.6736 176.714 84.8426 176.82 84.0069 176.867C83.6355 176.89 83.2595 176.899 82.8881 176.899C68.1387 176.899 68.4729 151.444 82.8881 151.444C84.2808 151.444 86.0497 151.57 87.396 152.034C90.1351 153.297 89.6709 154.689 90.2187 155.785C90.6829 156.672 91.3561 157.006 91.9457 157.006C93.1667 157.006 94.2206 155.488 92.8742 153.886C92.1175 152.999 89.7544 151.57 88.5752 151.314C86.9317 150.725 85.0329 150.344 82.8881 150.344C63.5425 150.344 63.5425 177.949 82.8881 177.949C83.8398 177.949 84.7962 177.879 85.734 177.721C86.6439 177.568 87.5399 177.326 88.3988 176.992C89.2391 176.663 90.0423 176.249 90.8083 175.776C91.4814 175.358 92.1268 174.889 92.735 174.383C93.3387 173.874 93.9123 173.33 94.4527 172.754C94.9959 172.173 95.5066 171.565 95.9894 170.938C96.4768 170.302 96.9365 169.648 97.3729 168.979C97.8124 168.307 98.2334 167.622 98.6356 166.927C99.0395 166.235 99.4295 165.534 99.8056 164.829C100.182 164.132 100.548 163.431 100.915 162.73C100.952 162.656 100.989 162.586 101.031 162.512C101.235 162.08 100.599 161.755 100.367 162.159Z" fill="white"/>
<path d="M238.245 176.895C237.446 176.895 236.94 176.598 236.94 174.871V163.241C236.94 159.74 233.356 157.888 229.693 157.888C227.586 157.888 225.436 158.519 223.918 159.787C223.751 159.912 223.579 160.038 223.454 160.251C223.412 160.251 223.412 160.251 223.37 160.293C223.203 160.502 223.031 160.715 222.864 160.966C222.613 161.259 222.442 161.681 222.316 162.062C222.274 162.145 222.233 162.229 222.191 162.317V162.401C222.066 162.781 221.982 163.116 221.982 163.454C222.024 164.973 222.827 165.604 223.625 165.604C224.554 165.604 225.478 164.675 224.888 163.287C224.382 162.15 224.257 160.506 225.942 159.661C226.871 159.239 227.924 159.03 229.02 159.03C231.592 159.03 234.076 160.293 234.076 163.246V166.574C234.076 166.709 233.807 166.737 233.718 166.751C233.393 166.802 233.059 166.811 232.73 166.82C231.481 166.867 230.232 166.927 228.988 167.02C228.166 167.08 227.344 167.22 226.555 167.461C225.45 167.795 224.382 168.246 223.393 168.849C221.652 169.908 220.394 171.481 218.988 172.921C217.539 174.397 215.91 175.59 213.927 176.226C212 176.844 209.911 177.048 207.91 176.732C207.014 176.588 206.132 176.338 205.306 175.957C203.337 175.047 201.764 173.478 200.701 171.602C199.605 169.671 199.038 167.456 198.908 165.246C198.778 163.004 199.094 160.72 199.897 158.617C200.668 156.607 201.912 154.754 203.635 153.44C205.413 152.089 207.595 151.444 209.814 151.444C211.207 151.444 212.975 151.57 214.322 152.034C217.061 153.297 216.597 154.689 217.144 155.785C217.609 156.672 218.282 157.006 218.871 157.006C220.092 157.006 221.146 155.488 219.8 153.886C219.043 152.999 216.68 151.57 215.501 151.314C213.858 150.725 211.959 150.344 209.814 150.344C190.468 150.344 190.468 177.949 209.814 177.949C211.183 177.949 212.562 177.777 213.909 177.429C214.754 177.206 215.58 176.918 216.374 176.551C217.59 175.985 218.723 175.237 219.749 174.374C220.761 173.524 221.592 172.503 222.572 171.621C223.319 170.948 224.113 170.33 224.963 169.792C226.16 169.03 227.465 168.441 228.844 168.106C229.354 167.981 229.874 167.888 230.394 167.818C230.608 167.791 230.817 167.763 231.03 167.744C231.592 167.693 232.158 167.702 232.72 167.656C232.827 167.647 234.076 167.61 234.076 167.623V168.928C233.951 175.038 230.032 176.598 227.46 176.598C225.636 176.598 224.415 175.455 224.118 173.947C224.062 173.673 224.071 173.376 224.08 173.092C224.085 172.986 224.09 172.879 224.104 172.777C224.113 172.698 224.136 172.619 224.118 172.54C224.103 172.481 224.073 172.428 224.03 172.385C223.987 172.342 223.934 172.312 223.875 172.297C223.817 172.282 223.755 172.283 223.697 172.301C223.639 172.318 223.587 172.351 223.547 172.396C223.036 172.967 222.483 173.496 222.005 174.044C221.699 174.388 221.406 174.722 221.151 175.033C221.936 176.663 223.825 177.944 226.573 177.944C230.789 177.944 233.106 175.794 234.076 173.264V175.372C234.076 177.224 235.427 177.772 236.815 177.772C237.321 177.772 237.827 177.689 238.291 177.563C238.751 177.443 238.667 176.895 238.245 176.895Z" fill="white"/>
</svg>
