<svg width="360" height="217" viewBox="0 0 360 217" fill="none" xmlns="http://www.w3.org/2000/svg">
<g clip-path="url(#clip0_801_833)">
<path d="M265.44 180.479C263.613 180.479 261.967 180.347 260.503 180.082C259.052 179.817 257.793 179.413 256.728 178.871C255.676 178.317 254.871 177.618 254.315 176.774C253.77 175.931 253.498 174.931 253.498 173.774C253.498 172.654 253.776 171.69 254.333 170.883C254.889 170.076 255.706 169.413 256.783 168.895C257.86 168.377 259.166 167.991 260.703 167.738C262.24 167.485 263.976 167.359 265.912 167.359H276.057V166.744C276.057 166.009 275.748 165.389 275.131 164.883C274.514 164.377 273.643 163.991 272.518 163.726C271.393 163.449 270.062 163.311 268.525 163.311C267.327 163.311 266.196 163.425 265.131 163.654C264.079 163.871 263.171 164.19 262.409 164.612C261.647 165.034 261.096 165.546 260.758 166.148L253.934 163.166C254.381 162.491 255.101 161.883 256.093 161.341C257.085 160.787 258.247 160.323 259.578 159.949C260.921 159.576 262.355 159.287 263.879 159.082C265.404 158.877 266.928 158.775 268.453 158.775C271.623 158.775 274.308 159.106 276.511 159.769C278.713 160.419 280.394 161.383 281.556 162.66C282.717 163.925 283.298 165.503 283.298 167.395V180.208H276.928L276.42 176.811C276.105 177.256 275.621 177.696 274.968 178.13C274.315 178.564 273.516 178.961 272.572 179.323C271.629 179.672 270.558 179.955 269.36 180.172C268.162 180.377 266.855 180.479 265.44 180.479ZM266.692 176.25C268.144 176.25 269.493 176.1 270.739 175.799C271.985 175.497 273.05 175.088 273.933 174.57C274.829 174.052 275.482 173.503 275.893 172.925V170.973H266.62C265.736 170.973 264.932 171.021 264.206 171.118C263.492 171.202 262.875 171.341 262.355 171.534C261.846 171.714 261.453 171.979 261.175 172.329C260.897 172.666 260.758 173.088 260.758 173.594C260.758 174.1 260.903 174.521 261.193 174.859C261.483 175.196 261.895 175.467 262.427 175.672C262.972 175.865 263.607 176.009 264.333 176.106C265.059 176.202 265.845 176.25 266.692 176.25Z" fill="#F8FAFC"/>
<path d="M241.766 169.472C241.766 167.316 241.215 165.792 240.114 164.9C239.013 164.009 237.543 163.563 235.704 163.563C233.575 163.563 231.85 164.129 230.532 165.262C229.225 166.382 228.572 167.743 228.572 169.346L225.813 167.087C225.813 165.195 226.908 163.346 229.098 161.539C231.3 159.719 234.313 158.81 238.136 158.81C241.766 158.81 244.488 159.641 246.303 161.304C248.118 162.954 249.025 165.677 249.025 169.472H241.766ZM221.385 180.207V158.991H227.083L228.626 163.49V180.207H221.385Z" fill="#F8FAFC"/>
<path d="M201.314 180.444C196.693 180.444 192.93 179.546 190.026 177.751C187.074 175.932 185.598 173.227 185.598 169.636C185.598 166.07 187.08 163.365 190.044 161.522C192.996 159.679 196.674 158.757 201.078 158.757C205.7 158.757 209.433 159.709 212.276 161.612C215.071 163.54 216.469 166.209 216.469 169.618C216.469 170.365 216.396 171.022 216.251 171.588H191.768V167.432H209.155C208.901 166.106 208.217 165.082 207.104 164.359C205.604 163.456 203.601 163.004 201.097 163.004C198.653 163.004 196.596 163.534 194.926 164.594C193.268 165.63 192.44 167.323 192.44 169.673C192.44 171.974 193.268 173.624 194.926 174.624C196.572 175.648 198.701 176.16 201.314 176.16V180.444ZM201.314 176.16C202.839 176.16 204.115 176.046 205.144 175.817C206.184 175.576 207.019 175.257 207.648 174.859C208.253 174.438 208.786 173.938 209.245 173.359L215.289 176.124C214.817 176.956 213.873 177.709 212.458 178.383C211.042 179.082 209.493 179.594 207.812 179.919C206.118 180.269 203.952 180.444 201.314 180.444V176.16Z" fill="#F8FAFC"/>
<path d="M151.662 188.286V158.991H157.361L158.903 162.931V188.286H151.662ZM169.212 180.37C165.522 180.37 162.376 179.635 159.775 178.165C157.173 176.696 155.873 175.431 155.873 174.37L158.903 170.973C158.903 172.093 159.72 173.153 161.353 174.153C162.987 175.141 164.868 175.635 166.998 175.635C169.272 175.635 171.075 175.129 172.406 174.117C173.737 173.105 174.402 171.593 174.402 169.581C174.402 167.569 173.737 166.057 172.406 165.045C171.075 164.033 169.272 163.527 166.998 163.527C164.868 163.527 162.987 164.021 161.353 165.009C159.72 165.997 158.903 167.045 158.903 168.154L155.873 164.792C155.873 163.732 157.173 162.467 159.775 160.997C162.376 159.527 165.522 158.792 169.212 158.792C172.89 158.792 175.903 159.684 178.25 161.467C180.609 163.238 181.789 165.931 181.789 169.545C181.789 173.159 180.609 175.87 178.25 177.677C175.903 179.473 172.89 180.37 169.212 180.37Z" fill="#F8FAFC"/>
<path d="M131.233 180.37C126.841 180.37 123.139 179.461 120.126 177.641C117.114 175.81 115.607 173.081 115.607 169.455C115.607 165.828 117.114 163.136 120.126 161.377C123.139 159.618 126.841 158.738 131.233 158.738C135.65 158.738 139.358 159.618 142.359 161.377C145.371 163.136 146.878 165.828 146.878 169.455C146.878 173.081 145.371 175.81 142.359 177.641C139.358 179.461 135.65 180.37 131.233 180.37ZM131.233 175.726C133.581 175.726 135.565 175.232 137.186 174.244C138.82 173.256 139.636 171.684 139.636 169.527C139.636 167.346 138.82 165.774 137.186 164.81C135.565 163.846 133.581 163.364 131.233 163.364C128.91 163.364 126.932 163.846 125.299 164.81C123.665 165.774 122.849 167.346 122.849 169.527C122.849 171.684 123.665 173.256 125.299 174.244C126.932 175.232 128.91 175.726 131.233 175.726Z" fill="#F8FAFC"/>
<path d="M80.0195 180.208V155.811H87.3516V165.823H103.141V155.811H110.473V180.208H103.141V170.576H87.3516V180.208H80.0195Z" fill="#F8FAFC"/>
<path d="M175.9 33.5725V71.228C173.404 70.9126 170.972 70.3906 168.623 69.6781C168.503 69.6422 168.383 69.6051 168.264 69.568C160.859 67.2226 155.263 61.8145 152.459 55.1755C150.786 51.2109 150.11 46.8059 150.644 42.3552C150.644 42.3515 150.645 42.3478 150.645 42.3441C150.645 42.3391 150.647 42.3354 150.647 42.3305C150.654 42.2426 150.664 42.1548 150.676 42.067C150.684 42.0126 150.691 41.9581 150.701 41.9037C150.702 41.8889 150.705 41.8728 150.707 41.8579C150.707 41.8542 150.709 41.8517 150.709 41.848C151.484 37.1833 156.807 33.5725 163.257 33.5725H175.9Z" fill="url(#paint0_radial_801_833)"/>
<path d="M175.9 132.532V94.877C173.404 95.1924 170.972 95.7144 168.623 96.4269C168.503 96.4628 168.383 96.4999 168.264 96.537C160.859 98.8824 155.263 104.291 152.459 110.929C150.786 114.894 150.11 119.299 150.644 123.75C150.644 123.753 150.645 123.757 150.645 123.761C150.645 123.766 150.647 123.77 150.647 123.775C150.654 123.862 150.664 123.95 150.676 124.038C150.684 124.092 150.691 124.147 150.701 124.201C150.702 124.216 150.705 124.232 150.707 124.247C150.707 124.251 150.709 124.253 150.709 124.257C151.484 128.922 156.807 132.532 163.257 132.532H175.9Z" fill="url(#paint1_radial_801_833)"/>
<path d="M187.195 33.5725V71.228C189.691 70.9126 192.123 70.3906 194.472 69.6781C194.593 69.6422 194.712 69.6051 194.831 69.568C202.236 67.2226 207.833 61.8145 210.636 55.1755C212.31 51.2109 212.986 46.8059 212.451 42.3552C212.451 42.3515 212.45 42.3478 212.45 42.3441C212.45 42.3404 212.449 42.3354 212.449 42.3305C212.441 42.2426 212.432 42.1548 212.419 42.067C212.412 42.0126 212.404 41.9581 212.394 41.9037C212.393 41.8889 212.391 41.8728 212.388 41.8579C212.388 41.8542 212.387 41.8517 212.387 41.848C211.612 37.1833 206.289 33.5725 199.839 33.5725H187.195Z" fill="url(#paint2_radial_801_833)"/>
<path d="M187.195 132.532V94.877C189.691 95.1924 192.123 95.7144 194.472 96.4269C194.593 96.4628 194.712 96.4999 194.831 96.537C202.236 98.8824 207.833 104.291 210.636 110.929C212.31 114.894 212.986 119.299 212.451 123.75C212.451 123.753 212.45 123.757 212.45 123.761C212.45 123.765 212.449 123.77 212.449 123.775C212.441 123.862 212.432 123.95 212.419 124.038C212.412 124.092 212.404 124.147 212.394 124.201C212.393 124.216 212.391 124.232 212.388 124.247C212.388 124.251 212.387 124.253 212.387 124.257C211.612 128.922 206.289 132.532 199.839 132.532H187.195Z" fill="url(#paint3_radial_801_833)"/>
<path d="M214.245 57.2743C214.09 55.587 213.919 53.9047 213.733 52.2274C213.357 48.8219 212.918 45.435 212.419 42.0679C212.431 42.1557 212.441 42.2435 212.449 42.3314C212.449 42.3363 212.45 42.34 212.45 42.345C212.45 42.3487 212.451 42.3524 212.451 42.3561C212.985 46.8068 212.309 51.2118 210.636 55.1764C207.832 61.8153 202.236 67.2235 194.831 69.5689C194.712 69.606 194.593 69.6431 194.472 69.6789C192.123 70.3915 189.691 70.9135 187.195 71.2289C185.345 71.4639 183.461 71.5839 181.548 71.5839C179.635 71.5839 177.75 71.4639 175.9 71.2289C173.405 70.9135 170.972 70.3915 168.623 69.6789C168.503 69.6431 168.384 69.606 168.264 69.5689C160.859 67.2235 155.263 61.8153 152.459 55.1764C150.786 51.2118 150.11 46.8068 150.644 42.3561C150.644 42.3524 150.646 42.3487 150.646 42.345C150.646 42.34 150.647 42.3363 150.647 42.3314C150.654 42.2435 150.664 42.1557 150.677 42.0679C150.177 45.435 149.739 48.8219 149.362 52.2274C149.176 53.9047 149.006 55.587 148.851 57.2743C148.068 65.7601 147.668 74.356 147.668 83.046V83.0608C147.668 91.7507 148.068 100.347 148.851 108.832C149.006 110.52 149.176 112.202 149.362 113.879C149.739 117.285 150.177 120.672 150.677 124.039C150.664 123.951 150.654 123.863 150.647 123.775C150.647 123.77 150.646 123.767 150.646 123.762C150.646 123.758 150.644 123.754 150.644 123.751C150.11 119.3 150.786 114.895 152.459 110.93C155.263 104.291 160.859 98.8833 168.264 96.5379C168.384 96.5008 168.503 96.4637 168.623 96.4278C170.972 95.7153 173.405 95.1933 175.9 94.8779C177.75 94.6428 179.635 94.5228 181.548 94.5228C183.461 94.5228 185.345 94.6428 187.195 94.8779C189.691 95.1933 192.123 95.7153 194.472 96.4278C194.593 96.4637 194.712 96.5008 194.831 96.5379C202.236 98.8833 207.832 104.291 210.636 110.93C212.309 114.895 212.985 119.3 212.451 123.751C212.451 123.754 212.45 123.758 212.45 123.762C212.45 123.767 212.449 123.77 212.449 123.775C212.441 123.863 212.431 123.951 212.419 124.039C212.918 120.672 213.357 117.285 213.733 113.879C213.919 112.202 214.09 110.52 214.245 108.832C215.027 100.347 215.427 91.7507 215.427 83.0608V83.046C215.427 74.356 215.027 65.7601 214.245 57.2743Z" fill="#FFA500"/>
</g>
<defs>
<radialGradient id="paint0_radial_801_833" cx="0" cy="0" r="1" gradientUnits="userSpaceOnUse" gradientTransform="translate(169.406 72.538) rotate(-115.853) scale(43.2989 114.025)">
<stop stop-color="#481D05"/>
<stop offset="0.517739" stop-color="#A45207"/>
<stop offset="1" stop-color="#CB9301"/>
</radialGradient>
<radialGradient id="paint1_radial_801_833" cx="0" cy="0" r="1" gradientUnits="userSpaceOnUse" gradientTransform="translate(169.841 93.8131) rotate(116.513) scale(43.2699 113.94)">
<stop stop-color="#481D05"/>
<stop offset="0.517739" stop-color="#A45207"/>
<stop offset="1" stop-color="#CB9301"/>
</radialGradient>
<radialGradient id="paint2_radial_801_833" cx="0" cy="0" r="1" gradientUnits="userSpaceOnUse" gradientTransform="translate(194.005 71.9195) rotate(-64.0856) scale(42.6339 112.273)">
<stop stop-color="#481D05"/>
<stop offset="0.517739" stop-color="#A45207"/>
<stop offset="1" stop-color="#CB9301"/>
</radialGradient>
<radialGradient id="paint3_radial_801_833" cx="0" cy="0" r="1" gradientUnits="userSpaceOnUse" gradientTransform="translate(195.265 95.0071) rotate(65.1979) scale(41.1589 108.402)">
<stop stop-color="#481D05"/>
<stop offset="0.517739" stop-color="#A45207"/>
<stop offset="1" stop-color="#CB9301"/>
</radialGradient>
<clipPath id="clip0_801_833">
<rect width="360" height="216" fill="white" transform="translate(0 0.333252)"/>
</clipPath>
</defs>
</svg>
