<svg width="144" height="144" viewBox="0 0 144 144" fill="none" xmlns="http://www.w3.org/2000/svg">
<path fill-rule="evenodd" clip-rule="evenodd" d="M119.435 41.6H78.2725C78.2234 40.0086 78.6117 38.6454 79.4309 37.5851C80.5851 36.0918 82.6096 35.2 84.8795 35.2L94.968 35.0912L94.8997 28.6912L91.2688 28.7296C92.4677 26.1355 95.0939 24.3329 98.1339 24.3329C102.3 24.3329 105.69 27.7248 105.69 31.8912C105.69 33.6363 107.09 35.0592 108.835 35.0912L113.391 35.1723C117.417 35.1723 118.921 38.4406 119.435 41.6ZM75.5419 48H122.876C124.645 48 126.076 46.5686 126.076 44.8C126.076 32.9814 119.525 28.7723 113.449 28.7723L111.734 28.7403C110.302 22.5579 104.747 17.9329 98.1339 17.9329C91.4992 17.9329 85.929 22.5878 84.521 28.8022C80.3845 28.8897 76.6981 30.6561 74.3664 33.6726C71.9387 36.815 71.2581 41.0518 72.4464 45.6086C72.8133 47.0166 74.0869 48 75.5419 48ZM67.2008 120.534H86.8407L81.1319 94.9336H75.8626L75.8277 94.9335L75.8277 94.9336L75.8076 94.9332L75.7699 94.9323C37.0185 94.0506 18.894 100.312 14.6296 106.648L13.1277 120.534H20.2695V112H26.6695V120.534H33.0695V107.733H39.4695V120.534H45.8695V105.6H52.2695V120.534H60.8008V103.467H67.2008V120.534ZM67.2008 88.4567C68.8531 88.4469 70.4604 88.4517 72.0095 88.4676L69.2855 73.6003H66.6906C38.2248 74.33 19.964 81.03 16.187 92.2489L15.6285 97.4125C20.2134 94.6699 26.3136 92.7291 33.0695 91.3726V86.4003H39.4695V90.2797C41.5758 89.977 43.7167 89.72 45.8695 89.5032V82.1336H52.2695V88.9719C55.1499 88.7804 58.0117 88.6504 60.8008 88.5683V77.8667H67.2008V88.4567ZM39.4695 70.1548C41.5054 69.7007 43.6391 69.2972 45.8695 68.9446V58.6665H52.2695V68.1012C54.4477 67.8674 56.7041 67.6756 59.0379 67.5263L54.7109 49.3155C41.9116 51.1047 22.4889 59.5108 18.6991 69.0235L17.5423 79.7185C21.4375 76.481 26.6311 73.8508 33.0695 71.8481V65.0667H39.4695V70.1548ZM65.5394 67.2003H66.4895C68.2812 67.156 70.1125 67.1337 71.9829 67.1337V67.2005C73.5143 67.215 74.8234 68.3133 75.101 69.8222L78.5293 88.5336H83.6983C85.1981 88.5336 86.4951 89.5747 86.8215 91.0382L93.9554 123.038C94.1666 123.985 93.9362 124.977 93.3282 125.735C92.7202 126.492 91.8028 126.934 90.8322 126.934H9.56286C8.65406 126.934 7.78789 126.548 7.18203 125.871C6.57403 125.195 6.28389 124.293 6.38203 123.388L14.0471 52.5379C14.9239 39.5033 29.4541 28.3438 51.9522 23.5395C53.6525 23.1811 55.3314 24.2371 55.7346 25.931L65.5394 67.2003ZM19.9605 57.3614C28.6569 49.9503 42.549 44.6495 53.2247 43.061L50.2412 30.5048C32.6519 34.8995 21.0636 43.6014 20.4215 53.099L19.9605 57.3614ZM117.204 96.52C124.457 98.4138 128.577 101.46 130.119 104.437L131.701 114.134H119.225L117.204 96.52ZM92.6008 88.4567C94.5465 88.3357 96.407 88.2618 98.186 88.2309L95.7277 66.804C90.8672 66.4977 85.263 66.3779 78.8096 66.4899L78.7008 60.0899C113.254 59.5032 130.263 65.1758 132.284 77.9566L138.624 116.817C138.775 117.743 138.513 118.69 137.905 119.405C137.297 120.122 136.405 120.534 135.467 120.534H97.0667V114.134H112.782L110.616 95.26C105.739 94.6196 99.896 94.4159 92.9976 94.8439L92.6008 88.4567ZM128.46 94.2668C123.72 91.4096 116.273 88.8447 104.637 88.3141L102.234 67.3699C120.116 69.4069 125.253 74.47 125.965 78.972L128.46 94.2668Z" fill="#FABB00"/>
</svg>
