<svg width="144" height="144" viewBox="0 0 144 144" fill="none" xmlns="http://www.w3.org/2000/svg">
<path fill-rule="evenodd" clip-rule="evenodd" d="M88.5313 136H98.895C99.7633 136 100.593 135.648 101.197 135.023C101.801 134.4 102.125 133.557 102.093 132.691L101.406 112.535H112.552C112.478 132.62 112.572 133.077 112.65 133.451C112.957 134.935 114.267 136 115.782 136H126.933V129.6H118.935C118.919 125.747 118.933 118.805 118.954 112.535H122.293C123.199 112.535 124.063 112.151 124.671 111.475C125.279 110.801 125.569 109.901 125.473 108.998L120.641 63.2917C122.885 59.9498 123.821 55.9596 124.08 52.147L131.092 63.1653L128.613 85.512C128.594 85.689 128.588 85.8662 128.598 86.0432L129.068 94.5766L135.459 94.2246L135.002 85.9557L137.575 62.7536C137.656 62.0283 137.488 61.2966 137.097 60.6822L122.164 37.2155L122.163 37.216C121.817 36.6714 121.309 36.2384 120.702 35.9827L114.153 33.2328C113.363 32.9021 112.474 32.9 111.68 33.2328C110.889 33.5634 110.264 34.1971 109.944 34.9949C105.7 45.597 98.2788 49.0905 93.1974 50.2091C93.0297 49.7523 91.6322 45.6876 91.0658 33.8694C90.9975 32.4759 90.0314 31.2837 88.6803 30.9298C87.325 30.5766 85.9021 31.1406 85.1575 32.3242L68.3602 59.0933C67.8788 59.8615 67.7452 60.7992 67.9964 61.6703L73.8949 82.3652C74.1304 83.1869 74.6836 83.8805 75.4308 84.2917L81.6491 87.7083L84.7296 82.1012L79.6841 79.3253L74.5413 61.2866L85.4582 43.8887C85.8575 47.1636 86.3074 49.3524 86.6786 50.7638C86.1767 50.8907 85.7091 51.1389 85.3163 51.4941C84.6465 52.1 84.2625 52.9619 84.2625 53.8664V68.7997C84.2625 70.3251 85.3398 71.6392 86.8353 71.9379C87.2385 72.0189 91.5116 72.8445 97.0348 72.8445C102.577 72.8445 109.376 72.0129 114.783 68.7622L118.736 106.135H91.5661L94.9048 77.7064L88.5518 76.9597L84.7907 108.962C84.684 109.868 84.9699 110.779 85.5779 111.462C86.1837 112.145 87.0563 112.535 87.9693 112.535H95.0031L95.5862 129.6H88.5313V136ZM99.2 19.7331C99.2 16.7912 101.594 14.3997 104.533 14.3997C107.473 14.3997 109.867 16.7912 109.867 19.7331C109.867 22.6749 107.473 25.0664 104.533 25.0664C101.594 25.0664 99.2 22.6749 99.2 19.7331ZM92.8 19.7331C92.8 26.2035 98.0651 31.4664 104.533 31.4664C111.002 31.4664 116.267 26.2035 116.267 19.7331C116.267 13.2627 111.002 7.99974 104.533 7.99974C98.0651 7.99974 92.8 13.2627 92.8 19.7331ZM90.6625 66.0435C96.2006 66.7155 109.208 67.4258 114.829 60.4008C118.929 55.2786 117.843 45.8963 116.766 41.2712L114.554 40.3432C107.868 53.7149 96.4182 56.4755 90.6625 56.9854V66.0435ZM97.0875 100.403L103.436 101.196L105.57 84.1294L99.2208 83.3359L97.0875 100.403Z" fill="#FABB00"/>
<path fill-rule="evenodd" clip-rule="evenodd" d="M39.02 136H28.6562V129.6H35.7112L35.1281 112.535H28.0943C27.1813 112.535 26.3087 112.145 25.7029 111.462C25.0949 110.779 24.809 109.868 24.9157 108.962L28.6768 76.9597L35.0298 77.7064L31.6911 106.135H58.8613L54.9078 68.7622C49.5009 72.0129 42.7019 72.8445 37.1598 72.8445C31.6366 72.8445 27.3635 72.0189 26.9603 71.9379C25.4648 71.6392 24.3875 70.3251 24.3875 68.7997V53.8664C24.3875 52.9619 24.7715 52.1 25.4414 51.4941C25.8341 51.1389 26.3017 50.8907 26.8036 50.7638C26.4324 49.3524 25.9825 47.1636 25.5832 43.8887L14.6663 61.2866L19.8091 79.3253L24.8546 82.1012L21.7741 87.7083L15.5558 84.2917C14.8086 83.8805 14.2554 83.1869 14.0199 82.3652L8.12142 61.6703C7.87015 60.7992 8.00376 59.8615 8.48522 59.0933L25.2825 32.3242C26.0271 31.1406 27.45 30.5766 28.8053 30.9298C30.1564 31.2837 31.1225 32.4759 31.1908 33.8694C31.7572 45.6876 33.1547 49.7523 33.3224 50.2091C38.4038 49.0905 45.8248 45.597 50.0685 34.9949C50.3885 34.1971 51.0136 33.5634 51.8051 33.2328C52.5987 32.9 53.4883 32.9021 54.2777 33.2328L60.827 35.9827C61.708 36.3539 62.3801 37.0984 62.6531 38.0158C62.8481 38.6747 67.2267 53.6699 60.7661 63.2918L65.5983 108.998C65.6943 109.901 65.4042 110.801 64.7962 111.475C64.1882 112.151 63.3242 112.535 62.4175 112.535H59.0788C59.0575 118.805 59.0438 125.747 59.0597 129.6H67.0576V136H55.9066C54.392 136 53.0821 134.935 52.7749 133.451C52.6968 133.077 52.6025 132.62 52.6773 112.535H41.531L42.2178 132.691C42.2498 133.557 41.9256 134.4 41.3219 135.023C40.7181 135.648 39.8883 136 39.02 136ZM44.6583 14.3997C41.7186 14.3997 39.325 16.7912 39.325 19.7331C39.325 22.6749 41.7186 25.0664 44.6583 25.0664C47.5981 25.0664 49.9917 22.6749 49.9917 19.7331C49.9917 16.7912 47.5981 14.3997 44.6583 14.3997ZM44.6583 31.4664C38.1901 31.4664 32.925 26.2035 32.925 19.7331C32.925 13.2627 38.1901 7.99974 44.6583 7.99974C51.1266 7.99974 56.3917 13.2627 56.3917 19.7331C56.3917 26.2035 51.1266 31.4664 44.6583 31.4664ZM54.9539 60.4008C49.3326 67.4258 36.3256 66.7155 30.7875 66.0435V56.9854C36.5432 56.4755 47.9928 53.7149 54.6787 40.3432L56.891 41.2712C57.9683 45.8963 59.0542 55.2786 54.9539 60.4008ZM37.2125 100.403L43.5612 101.196L45.6946 84.1294L39.3458 83.3359L37.2125 100.403Z" fill="#FABB00"/>
</svg>
