<svg width="160" height="96" viewBox="0 0 160 96" fill="none" xmlns="http://www.w3.org/2000/svg">
<path d="M63.3574 56.9792H68.9116V48.5442H63.7528V44.6093H73.0781V56.9792H77.8378V60.9141H63.3574V56.9792ZM74.1026 39.7729C74.1059 40.1969 74.0214 40.6169 73.8545 41.007C73.698 41.3779 73.4681 41.7136 73.1786 41.9943C72.8849 42.2728 72.5426 42.4959 72.1686 42.6525C71.7844 42.8155 71.371 42.8995 70.9535 42.8995C70.5358 42.8995 70.1225 42.8155 69.7383 42.6525C69.3713 42.493 69.0354 42.2702 68.7462 41.9943C68.4555 41.7146 68.2255 41.3786 68.0703 41.007C67.9072 40.6159 67.8232 40.1965 67.8232 39.7729C67.8232 39.3493 67.9072 38.93 68.0703 38.5388C68.2265 38.1678 68.4564 37.8319 68.7462 37.5515C69.0355 37.2766 69.3714 37.055 69.7383 36.8968C70.122 36.7316 70.5356 36.6465 70.9535 36.6465C71.3715 36.6465 71.7849 36.7316 72.1686 36.8968C72.5425 37.0523 72.8848 37.274 73.1786 37.5515C73.4662 37.8298 73.6958 38.1616 73.8545 38.5281C74.0224 38.9216 74.1069 39.3454 74.1026 39.7729Z" fill="white"/>
<path d="M83.4277 37.8984H98.0411V42.0444H87.792V47.31H97.6456V51.4524H87.792V56.7717H98.4365V60.9177H83.4277V37.8984Z" fill="white"/>
<path d="M114.404 44.6094H119.002L115.048 52.2753V52.8655L119.247 60.9284H114.44L111.363 54.5467H110.77L107.696 60.9284H102.9L107.099 52.8655V52.2753L103.098 44.6094H107.728L110.77 50.5976H111.363L114.404 44.6094Z" fill="white"/>
<path d="M127.433 54.1176C127.454 54.5831 127.577 55.0383 127.792 55.4519C128.004 55.858 128.298 56.216 128.655 56.5036C129.029 56.8062 129.454 57.04 129.91 57.194C130.394 57.3605 130.904 57.4438 131.416 57.4408C132.245 57.4913 133.071 57.3039 133.796 56.9007C134.305 56.5831 134.716 56.1327 134.986 55.5986L138.556 57.5733C138.328 58.0345 138.051 58.4699 137.729 58.8718C137.342 59.3547 136.878 59.7716 136.355 60.1059C135.721 60.5114 135.031 60.8222 134.306 61.0287C133.387 61.2829 132.435 61.4035 131.481 61.3864C130.329 61.4003 129.186 61.1988 128.109 60.7926C127.121 60.4151 126.225 59.8321 125.481 59.0828C124.721 58.304 124.135 57.3738 123.762 56.3534C123.336 55.1832 123.128 53.9457 123.148 52.7011V52.5008C123.133 51.3294 123.353 50.1668 123.795 49.0809C124.196 48.0915 124.798 47.1951 125.564 46.4481C126.321 45.7196 127.214 45.1437 128.191 44.7525C129.22 44.3421 130.319 44.1356 131.427 44.1445C132.68 44.111 133.924 44.3656 135.061 44.8885C136.02 45.3362 136.876 45.9742 137.578 46.763C138.225 47.4935 138.72 48.3447 139.034 49.267C139.333 50.1182 139.49 51.0124 139.497 51.9141V54.1176H127.433ZM131.366 47.9005C130.438 47.8594 129.526 48.1443 128.788 48.7054C128.173 49.176 127.722 49.8266 127.498 50.5655H135.234C135.166 50.1813 135.021 49.8146 134.808 49.4871C134.595 49.1595 134.318 48.878 133.994 48.659C133.224 48.129 132.301 47.8629 131.366 47.9005Z" fill="white"/>
<path d="M160 54.9401C159.69 56.7601 158.747 58.4137 157.336 59.6119C155.939 60.8043 154.071 61.4004 151.735 61.4004C150.581 61.4094 149.434 61.2193 148.345 60.8389C147.336 60.4912 146.408 59.9435 145.616 59.2291C144.828 58.5035 144.208 57.6161 143.798 56.6285C143.341 55.5115 143.116 54.3142 143.136 53.1086V52.7151C143.118 51.4991 143.343 50.2917 143.798 49.163C144.214 48.1453 144.84 47.2253 145.635 46.4621C146.424 45.7139 147.356 45.1322 148.377 44.7522C149.451 44.3525 150.589 44.1513 151.735 44.1584C154.023 44.1584 155.88 44.7547 157.304 45.9471C158.73 47.1372 159.686 48.7928 160 50.6188L155.899 51.692C155.776 50.7401 155.334 49.8572 154.643 49.188C153.939 48.4726 152.947 48.1147 151.667 48.1147C151.089 48.1123 150.516 48.2242 149.981 48.4439C149.46 48.6599 148.987 48.9787 148.593 49.3811C148.182 49.8066 147.862 50.3103 147.651 50.862C147.408 51.486 147.286 52.1498 147.292 52.8188V53.0191C147.283 53.6768 147.406 54.3295 147.651 54.9401C147.859 55.4697 148.181 55.9481 148.593 56.3423C148.991 56.7156 149.464 57.0008 149.981 57.1795C150.523 57.3674 151.093 57.4617 151.667 57.4584C152.947 57.4584 153.922 57.1401 154.594 56.5033C155.301 55.8036 155.759 54.8928 155.899 53.9099L160 54.9401Z" fill="white"/>
<path d="M22.6979 31.7773C20.7398 31.9691 18.9344 32.9138 17.6659 34.4105C16.3975 35.9072 15.7664 37.8374 15.9071 39.7903C15.9401 40.31 15.8279 40.8287 15.5829 41.289C15.3381 41.7492 14.97 42.1331 14.5195 42.398C14.0627 42.6755 13.5375 42.8217 13.0024 42.8202C12.4954 42.8089 12 42.6671 11.5644 42.4087C10.3636 41.6534 8.97306 41.2504 7.55244 41.2462C7.25671 41.2517 6.96149 41.2731 6.6681 41.3106C4.81525 41.6004 3.13717 42.5661 1.96073 44.0197C0.784285 45.4732 0.193732 47.3105 0.304108 49.1736C0.414484 51.0367 1.21788 52.7922 2.55781 54.0981C3.89772 55.404 5.67822 56.1669 7.55244 56.2382C7.79257 56.2438 8.0328 56.2331 8.27144 56.206C10.023 56.039 11.6608 55.2684 12.9021 54.0274C14.1433 52.7863 14.9099 51.153 15.0694 49.4093C15.1018 49.0116 15.1018 48.6121 15.0694 48.2146C15.0359 47.6943 15.1482 47.175 15.3939 46.7145C15.6395 46.2542 16.0089 45.8706 16.4606 45.6068C16.9065 45.3326 17.4214 45.1901 17.9454 45.1954C18.4546 45.1915 18.954 45.3344 19.3833 45.6068C20.5938 46.3623 21.9951 46.7606 23.424 46.7551C23.7186 46.7711 24.0138 46.7711 24.3084 46.7551C26.2009 46.5081 27.9291 45.557 29.1453 44.0932C30.3614 42.6294 30.9753 40.7615 30.8631 38.8655C30.7511 36.9696 29.9214 35.1863 28.5411 33.8744C27.161 32.5626 25.3326 31.8197 23.424 31.7952C23.1847 31.7794 22.9445 31.7794 22.7051 31.7952" fill="#FCD15A"/>
<path d="M38.5867 41.2684C36.628 41.46 34.822 42.4053 33.5534 43.9029C32.2849 45.4003 31.6543 47.3314 31.7958 49.2848C31.8214 49.7959 31.7088 50.3043 31.4698 50.7572C31.2308 51.2102 30.8742 51.5912 30.4371 51.8605L30.4046 51.8926C29.9484 52.1697 29.422 52.3111 28.8875 52.3004C28.3813 52.2882 27.8864 52.148 27.4496 51.8926C26.2752 51.1453 24.9146 50.7383 23.5208 50.717C22.1269 50.6958 20.7546 51.0612 19.5576 51.7724C18.3608 52.4837 17.3865 53.5125 16.7442 54.7437C16.1017 55.9747 15.8166 57.3597 15.9208 58.7429C15.9536 59.2627 15.8415 59.7814 15.5966 60.2416C15.3518 60.702 14.9836 61.0857 14.533 61.3508C14.0729 61.6334 13.5424 61.782 13.0016 61.78C12.4946 61.7687 11.9992 61.627 11.5636 61.3686C10.3629 60.6132 8.97232 60.2102 7.5517 60.206C7.25597 60.2115 6.96073 60.2329 6.66736 60.2704C4.79985 60.5413 3.10204 61.4984 1.90849 62.9532C0.714954 64.4077 0.112253 66.2546 0.219163 68.1294C0.326072 70.0044 1.13484 71.7715 2.48607 73.0825C3.83732 74.3934 5.63304 75.1533 7.51935 75.2123C7.75946 75.2174 7.99965 75.2066 8.23834 75.1801C9.98554 75.0119 11.6183 74.2398 12.853 72.9982C14.0876 71.7564 14.8461 70.1237 14.9968 68.3835C15.0291 67.987 15.0291 67.5887 14.9968 67.1922C14.9687 66.6767 15.0837 66.1635 15.3291 65.7086C15.5744 65.2537 15.9408 64.8747 16.388 64.6131L16.4203 64.5809C16.8795 64.3051 17.4084 64.166 17.9447 64.1803C18.4531 64.1773 18.9521 64.3187 19.3826 64.5881C20.5825 65.3455 21.9736 65.7487 23.3945 65.7507C23.6785 65.7507 23.9626 65.722 24.2466 65.722C26.1879 65.5272 27.9745 64.5809 29.2213 63.0874C30.468 61.5938 31.0751 59.6726 30.9115 57.7378C30.8904 57.3468 30.95 56.9557 31.0869 56.5885C31.2237 56.2214 31.4348 55.8862 31.7071 55.6036C31.9793 55.3209 32.3071 55.0968 32.6697 54.9452C33.0326 54.7936 33.4227 54.7176 33.8163 54.7221C34.3247 54.7191 34.8237 54.8607 35.2542 55.1299C36.4543 55.8869 37.8453 56.2899 39.2661 56.2925C39.5619 56.2871 39.857 56.2656 40.1505 56.2282C42.043 55.9813 43.7712 55.0302 44.9874 53.5663C46.2035 52.1025 46.8174 50.2348 46.7052 48.3387C46.5932 46.4427 45.7635 44.6594 44.3832 43.3476C43.003 42.0357 41.1746 41.2928 39.2661 41.2684C39.0359 41.2361 38.8025 41.2361 38.5723 41.2684" fill="#FCD15A"/>
<path d="M13.01 34.1998L12.6901 32.6437H12.7224C12.8508 32.5927 12.9676 32.5168 13.0661 32.4203C13.1646 32.3238 13.2428 32.2087 13.296 32.0818C13.3492 31.9549 13.3765 31.8186 13.3761 31.6811C13.3758 31.5436 13.3479 31.4075 13.294 31.2808L14.5055 30.4867C14.5703 30.5511 14.6349 30.5833 14.6673 30.6441L13.1682 34.2356C13.118 34.2151 13.0643 34.2041 13.01 34.2034V34.1998ZM13.0388 28.5121L14.2503 29.3062C14.1569 29.5628 14.1569 29.8438 14.2503 30.1004L13.0388 30.8909C12.8548 30.7113 12.6123 30.6031 12.3551 30.586C12.0979 30.569 11.8431 30.6441 11.6368 30.7979L11.0005 30.2256C11.1085 30.0673 11.1663 29.8803 11.1663 29.689C11.1663 29.4976 11.1085 29.3107 11.0005 29.1524L11.6368 28.5801C11.8241 28.7138 12.0464 28.7908 12.2767 28.8018C12.417 28.8127 12.558 28.7926 12.6898 28.7432C12.8215 28.6937 12.9406 28.6161 13.0388 28.5157V28.5121ZM9.94716 25.9151L10.1377 25.8185L11.4462 27.1528C11.3381 27.2937 11.2692 27.4604 11.2465 27.6363C11.2238 27.8121 11.248 27.9908 11.3168 28.1544C11.3492 28.2152 11.3492 28.2474 11.3815 28.3118L10.756 28.8698C10.579 28.7337 10.363 28.6572 10.1394 28.6514C9.91574 28.6456 9.69606 28.7108 9.51218 28.8376L8.43369 27.7645C8.56109 27.5815 8.62662 27.3629 8.62081 27.1403C8.61499 26.9178 8.53811 26.7029 8.40133 26.5267L9.00887 25.8292C9.1483 25.9216 9.3083 25.9787 9.47496 25.9955C9.64162 26.0124 9.80989 25.9884 9.96513 25.9258L9.94716 25.9151ZM13.2509 28.1794C13.3042 28.0522 13.3316 27.9157 13.3315 27.7779C13.3314 27.6401 13.3038 27.5037 13.2503 27.3766C13.1968 27.2494 13.1184 27.1342 13.0198 27.0374C12.9212 26.9406 12.8042 26.8643 12.6757 26.8129H12.6254L12.9453 25.196C13.0105 25.2012 13.076 25.1901 13.1359 25.1638L14.6026 28.8376C14.5379 28.8698 14.4768 28.9306 14.412 28.9628L13.2509 28.1794ZM2.59912 25.3177C2.72854 25.2568 3.10961 25.0637 3.17432 24.7489L4.61229 25.0315C4.60708 25.2457 4.65396 25.458 4.7489 25.6503L3.44394 26.9346C3.26937 26.8113 3.0612 26.7439 2.84718 26.7414L2.59912 25.3177ZM10.3965 25.5359C10.527 25.3388 10.5936 25.1065 10.5871 24.8705L11.9927 24.5521C12.0423 24.6766 12.118 24.7891 12.2147 24.8822C12.3114 24.9754 12.4269 25.047 12.5535 25.0923L12.2443 26.7235C12.1034 26.7279 11.9635 26.7483 11.8273 26.7843C11.7708 26.8099 11.7177 26.8424 11.6691 26.8809L10.3965 25.5359ZM7.94118 23.0318L8.76802 24.2195C8.59618 24.4019 8.49527 24.6393 8.48341 24.8891C8.47156 25.1388 8.54952 25.3846 8.70331 25.5824L8.09936 26.2978C7.93462 26.206 7.74894 26.1578 7.56013 26.1578C7.37131 26.1578 7.18563 26.206 7.02089 26.2978L6.47086 25.6503C6.6254 25.4451 6.70093 25.1915 6.6838 24.9356C6.66664 24.6796 6.55796 24.4383 6.3774 24.2552L7.16109 23.064C7.26464 23.098 7.37219 23.1185 7.48104 23.1248C7.63467 23.1266 7.78681 23.0948 7.92681 23.0318H7.94118ZM3.20668 24.3625V24.173L6.63263 22.6813C6.69375 22.7457 6.75846 22.8387 6.82317 22.9031L6.02509 24.1086C5.89694 24.0539 5.75905 24.0254 5.61962 24.0246C5.48018 24.0239 5.34202 24.0511 5.2133 24.1044C5.08459 24.1578 4.96795 24.2363 4.87027 24.3353C4.77258 24.4344 4.69587 24.5519 4.64465 24.6809L3.20668 24.3625ZM8.23956 22.8101C8.29384 22.7545 8.3366 22.6889 8.36539 22.6169L11.9064 23.9512V24.173L10.5044 24.5307C10.45 24.4054 10.3713 24.2919 10.2728 24.1969C10.1744 24.1019 10.058 24.0272 9.93042 23.977C9.80283 23.9268 9.66656 23.9022 9.5294 23.9045C9.39224 23.9068 9.25689 23.9361 9.13111 23.9905H9.09875L8.23956 22.8101ZM7.47385 21.0215C7.23083 21.0254 6.99661 21.1126 6.81064 21.2683C6.62467 21.4241 6.49832 21.6388 6.45289 21.8764C6.42045 22.0237 6.42045 22.1762 6.45289 22.3236L3.05928 23.7938C3.01662 23.7218 2.9633 23.6567 2.9011 23.6006C2.69334 23.4636 2.44428 23.4024 2.19629 23.4275C1.94829 23.4525 1.71669 23.5623 1.54086 23.7381C1.36503 23.9139 1.25583 24.1449 1.23182 24.3918C1.20782 24.6387 1.2705 24.8862 1.40921 25.0923C1.44157 25.1245 1.47392 25.1567 1.50628 25.1567C0.655301 26.2474 0.132965 27.5561 0 28.9306V29.6926C0 31.7039 0.80295 33.6328 2.23221 35.055C3.66146 36.4773 5.59996 37.2762 7.62124 37.2762C7.87622 37.2701 8.13067 37.2499 8.38337 37.2154C9.80618 37.0638 11.1564 36.513 12.2767 35.6271C12.2767 35.6594 12.3054 35.6594 12.3054 35.6915C12.4747 35.8599 12.7042 35.9545 12.9435 35.9545C13.1829 35.9545 13.4124 35.8599 13.5816 35.6915C13.7509 35.5231 13.8459 35.2947 13.8459 35.0566C13.8459 34.8184 13.7509 34.59 13.5816 34.4216C13.5454 34.3826 13.5029 34.35 13.4558 34.325L14.9549 30.7478C15.221 30.8023 15.498 30.7524 15.7279 30.6084C15.9579 30.4645 16.1232 30.2377 16.1891 29.9754C16.2548 29.7131 16.2164 29.4357 16.0815 29.201C15.9467 28.9663 15.726 28.7925 15.4653 28.716H15.4294C15.3464 28.6925 15.2603 28.6829 15.1742 28.6874C15.1093 28.6825 15.0441 28.6923 14.9836 28.716L13.5169 25.0279C13.6664 24.9724 13.8017 24.8845 13.913 24.7707C14.0242 24.6568 14.1087 24.5198 14.1603 24.3695C14.212 24.2192 14.2294 24.0594 14.2114 23.9016C14.1934 23.7439 14.1405 23.592 14.0564 23.457C13.9723 23.322 13.8592 23.2073 13.7251 23.1211C13.5911 23.0349 13.4395 22.9794 13.2812 22.9586C13.123 22.9378 12.9621 22.9522 12.8102 23.0007C12.6582 23.0493 12.519 23.1307 12.4025 23.2393C12.2526 23.3244 12.1285 23.4479 12.043 23.597L8.51279 22.2377C8.53976 22.1041 8.53954 21.9665 8.51216 21.833C8.4848 21.6995 8.43079 21.5728 8.35338 21.4605C8.27597 21.3481 8.1767 21.2523 8.06145 21.1787C7.94619 21.1052 7.81729 21.0553 7.68236 21.0322C7.62124 21.0322 7.55653 21 7.49182 21L7.47385 21.0215Z" fill="#FCD15A"/>
</svg>
