<svg width="160" height="96" viewBox="0 0 160 96" fill="none" xmlns="http://www.w3.org/2000/svg">
<g clip-path="url(#clip0_1224_2482)">
<path d="M72.8048 63.1248H68.7091V32.8748H72.8048V63.1248ZM134.638 63.1248H130.543V32.8748H134.638V63.1248ZM80.3233 63.1248H76.2313V32.8748H80.3233V63.1248ZM99.2255 63.1248H95.3395L95.2937 63.0788L84.2307 51.8058L87.5753 48.6356L99.2255 60.8282V63.1248ZM82.423 50.6472V44.9893L95.304 32.8748H98.8234V35.1296L98.7733 35.175L82.423 50.6472ZM44.3765 63.1248H40.9219V60.9794L61.3855 32.885H65.4067V50.7144H61.311V39.5824L44.3771 63.1248H44.3765Z" fill="white"/>
<path d="M65.4085 63.1248H61.3128V56.5968H51.5736L54.4666 52.7817H65.4195L65.4085 63.1248ZM32.6328 36.6899H25V32.8748H32.6328V36.6899ZM38.8276 63.1248H34.7289V32.8748H47.2726V36.6899H38.8276V63.1248ZM104.024 63.1248H100.626V60.6763L111.076 37.3487L113.372 42.2244L113.34 42.291L104.024 63.1248ZM123.829 50.545H119.3L112.233 34.8229L113.108 32.8748H115.888L123.829 50.545ZM128.434 63.1248H124.958L121.944 56.4316H109.322L110.998 52.6232H124.766L128.434 60.7967V63.1248Z" fill="white"/>
</g>
<defs>
<clipPath id="clip0_1224_2482">
<rect width="110" height="30.25" fill="white" transform="translate(25 32.875)"/>
</clipPath>
</defs>
</svg>
