<svg width="121" height="72" viewBox="0 0 121 72" fill="none" xmlns="http://www.w3.org/2000/svg">
<path d="M43.4456 47.29C43.9109 47.29 44.2915 46.9065 44.2915 46.4379C44.2915 43.9659 44.2915 41.494 44.2915 39.022C45.772 39.022 47.2523 39.022 48.7327 39.022C53.8505 39.022 57.6149 35.2301 57.6149 30.0749C57.6149 24.9198 53.8505 21.1279 48.7327 21.1279H41.1193C40.6541 21.1279 40.2734 21.5114 40.2734 21.98V46.4379C40.2734 46.9065 40.6541 47.29 41.1193 47.29H43.4456ZM44.2915 34.9746C44.2915 31.7081 44.2915 28.4418 44.2915 25.1754C45.772 25.1754 47.2523 25.1754 48.7327 25.1754C51.5243 25.1754 53.4698 27.1778 53.4698 30.0749C53.4698 32.9721 51.5243 34.9746 48.7327 34.9746C47.2523 34.9746 45.772 34.9746 44.2915 34.9746Z" fill="#FF8271"/>
<path d="M63.0975 47.2898C63.5628 47.2898 63.9435 46.9063 63.9435 46.4376V36.2125C63.9435 31.6963 66.9465 29.9922 70.2879 29.9922H71.1338C71.599 29.9922 71.9797 29.6087 71.9797 29.1401V26.8394C71.9797 26.3707 71.599 25.9873 71.1338 25.9873H70.2879C65.2114 25.9873 63.4581 29.5092 63.4581 29.5092C63.4581 29.5092 63.4581 27.313 63.4581 26.8394C63.4581 26.1671 63.0774 25.9873 62.6121 25.9873H60.9827C60.5174 25.9873 60.1367 26.3707 60.1367 26.8394V46.4376C60.1367 46.9063 60.5174 47.2898 60.9827 47.2898H63.0975Z" fill="#FF8271"/>
<path d="M77.432 47.2898C77.8973 47.2898 78.2779 46.9063 78.2779 46.4376V26.8394C78.2779 26.3707 77.8973 25.9873 77.432 25.9873H75.2326C74.7674 25.9873 74.3867 26.3707 74.3867 26.8394V46.4376C74.3867 46.9063 74.7674 47.2898 75.2326 47.2898H77.432Z" fill="#FF8271"/>
<path d="M91.432 47.2898C91.8127 47.2898 92.0666 47.0768 92.2357 46.6506L99.5529 27.3081C99.6375 27.095 99.7221 26.8394 99.7221 26.5838C99.7221 26.2855 99.3838 25.9873 98.8762 25.9873H96.2538C95.8732 25.9873 95.6194 26.1577 95.4502 26.6264C93.7382 31.5769 90.2423 41.1591 90.2423 41.1591C90.2423 41.1591 86.7613 31.5883 85.0453 26.6264C84.8761 26.1577 84.6224 25.9873 84.2417 25.9873H81.6193C81.1118 25.9873 80.7734 26.2855 80.7734 26.6264C80.7734 26.8394 80.858 27.095 80.9426 27.3081L88.3021 46.6506C88.4713 47.0768 88.725 47.2898 89.1057 47.2898H91.432Z" fill="#FF8271"/>
<path d="M108.988 54.1131C109.368 54.1131 109.622 53.9427 109.791 53.474L119.707 27.3081C119.792 27.095 119.876 26.8394 119.876 26.6264C119.876 26.2855 119.538 25.9873 119.031 25.9873H116.451C116.07 25.9873 115.816 26.1577 115.647 26.6264C114.06 31.1834 110.656 41.1591 110.656 41.1591C110.656 41.1591 107.014 31.2303 105.284 26.6264C105.115 26.1577 104.861 25.9873 104.481 25.9873H101.901C101.393 25.9873 101.055 26.2855 101.055 26.6264C101.055 26.8394 101.139 27.095 101.224 27.3081L108.287 45.3725C108.372 45.5856 108.414 45.7134 108.414 45.7986C108.414 45.9264 108.372 46.0116 108.287 46.2673L105.985 52.8775C105.9 53.0905 105.858 53.261 105.858 53.4314C105.858 53.7722 106.154 54.1131 106.704 54.1131H108.988Z" fill="#FF8271"/>
<path d="M29.5778 51.612C29.5778 53.159 23.7007 54.413 16.451 54.413C9.20125 54.413 3.32422 53.159 3.32422 51.612C3.32422 50.0651 9.20125 48.811 16.451 48.811C23.7007 48.811 29.5778 50.0651 29.5778 51.612Z" fill="#FF8271"/>
<path fill-rule="evenodd" clip-rule="evenodd" d="M2.41633 39.148C2.41633 43.6697 6.58639 45.6972 10.6637 45.71C20.2036 45.71 30.7585 39.8477 30.7036 30.037C30.6641 22.964 24.1631 16.9425 16.4702 17.0004C9.15008 17.0004 2.00048 21.7786 2 28.288C2 30.0361 3.00315 31.7272 5.62544 31.9177C3.439 34.0822 2.41633 36.6756 2.41633 39.148ZM16.4954 32.7555C18.0247 32.7555 19.2643 31.2664 19.2643 29.4294C19.2643 27.5924 18.0247 26.1032 16.4954 26.1032C14.9662 26.1032 13.7266 27.5924 13.7266 29.4294C13.7266 31.2664 14.9662 32.7555 16.4954 32.7555ZM24.4345 32.7555C25.9637 32.7555 27.2033 31.2664 27.2033 29.4294C27.2033 27.5924 25.9637 26.1032 24.4345 26.1032C22.9052 26.1032 21.6656 27.5924 21.6656 29.4294C21.6656 31.2664 22.9052 32.7555 24.4345 32.7555Z" fill="#FF8271"/>
</svg>
