<svg width="144" height="34" viewBox="0 0 144 34" fill="none" xmlns="http://www.w3.org/2000/svg">
<path d="M54.6082 16.7586L62.7544 5.75781H56.4348L51.3572 13.1283L46.2064 5.75781H39.5946L47.6312 17.0153L39.1562 28.5294H45.4393L50.9188 20.7555L56.3617 28.5294H63.0102L54.6082 16.7586Z" fill="#EFEBE6"/>
<path d="M80.5087 21.599H80.4357L75.2896 5.75781H66.6641V28.566H71.9974V11.7716H72.1434L77.7691 28.566H82.7736L88.3626 11.7716H88.5088V28.566H94.2074V5.75781H85.696L80.5087 21.599Z" fill="#EFEBE6"/>
<path d="M98.0078 5.72217V10.5258H106.028L106.008 28.5305H111.743L111.754 10.5258H119.743V5.72217H98.0078Z" fill="#EFEBE6"/>
<path d="M134.801 5.72217H123.477V28.5305H129.212V21.4167H134.691C140.511 21.4167 144.006 18.6144 144.006 13.4594C144.006 8.36691 140.504 5.75485 134.809 5.75485L134.801 5.72217ZM129.212 16.6862V10.5258H134.253C136.65 10.5258 138.234 11.3308 138.234 13.6427C138.234 15.9233 136.665 16.6496 134.143 16.6496L129.212 16.6862Z" fill="#EFEBE6"/>
<path d="M0.00390625 16.9417C0.00390625 7.58532 7.55986 0.000488281 16.8806 0.000488281C26.1953 0.000488281 33.392 7.44433 33.6112 16.8683C33.6112 19.8752 32.5883 22.4053 30.0313 24.7889C27.8705 26.8031 24.1865 27.099 21.4836 25.5956C19.5543 24.4785 18.0675 22.0993 16.8075 20.3519L14.4696 23.9455H9.42857L14.1774 16.868L9.57468 9.90118H14.7619L16.8441 13.4948L18.8897 9.90118H24.1136L19.3647 16.8683C19.3647 16.8683 21.6295 20.3519 22.8715 21.7087C24.1136 23.0655 26.3784 23.1021 27.8395 21.6353C29.4461 20.0226 29.8056 18.7385 29.8122 16.8683C29.8372 9.62941 24.1092 3.81409 16.8806 3.81409C9.65805 3.81409 3.80299 9.6915 3.80299 16.9417C3.80299 24.1918 9.65805 30.0693 16.8806 30.0693C17.8796 30.0693 18.8371 29.985 19.7665 29.7758L20.5702 33.4795C19.2478 33.7771 18.1795 33.8829 16.8806 33.8829C7.55986 33.8829 0.00390625 26.298 0.00390625 16.9417Z" fill="#FC4F37"/>
</svg>
