<svg width="160" height="96" viewBox="0 0 160 96" fill="none" xmlns="http://www.w3.org/2000/svg">
<g clip-path="url(#clip0_2367_1485)">
<path d="M0 40.2065C0 39.3952 0 38.9896 0.157041 38.6775C0.307402 38.3787 0.555589 38.1371 0.862513 37.9908C1.18307 37.8379 1.5998 37.8379 2.43325 37.8379H28.3674C29.2009 37.8379 29.6176 37.8379 29.9381 37.9908C30.245 38.1371 30.4933 38.3787 30.6436 38.6775C30.8007 38.9896 30.8007 39.3952 30.8007 40.2065V65.4522C30.8007 66.2635 30.8007 66.6692 30.6436 66.9812C30.4933 67.28 30.245 67.5216 29.9381 67.6679C29.6176 67.8209 29.2009 67.8209 28.3674 67.8209H2.43325C1.5998 67.8209 1.18307 67.8209 0.862513 67.6679C0.555589 67.5216 0.307402 67.28 0.157041 66.9812C0 66.6692 0 66.2635 0 65.4522V40.2065Z" fill="#0000FF"/>
</g>
<g clip-path="url(#clip1_2367_1485)">
<path d="M57.6088 67.7896C54.5066 67.7896 51.5173 66.6614 49.7688 63.6721H48.7535V66.9436H41.7031V28.0254H48.7535V42.1826H49.7688C51.5737 39.0804 54.9579 37.8959 58.0036 37.8959C65.6181 37.8959 70.7509 43.9875 70.7509 52.5608C70.7509 61.3032 65.1104 67.7896 57.6088 67.7896ZM56.0859 61.4725C60.429 61.4725 63.5312 57.9189 63.5312 52.8428C63.5312 47.7665 60.3726 44.2131 56.0859 44.2131C51.8557 44.2131 48.7535 47.5973 48.7535 52.8428C48.7535 58.0882 51.8557 61.4725 56.0859 61.4725Z" fill="#EFEBE6"/>
<path d="M83.617 67.7902C78.2023 67.7902 73.8027 64.5187 73.8027 59.1605C73.8027 52.8433 78.6534 50.8128 84.5195 50.1924L92.8106 49.3463V47.767C92.8106 45.3417 90.8366 43.6496 87.3395 43.6496C84.0117 43.6496 82.0941 45.1161 81.4735 47.3158H74.7052C75.382 41.9575 79.838 37.8965 87.3395 37.8965C94.5591 37.8965 99.3534 41.3935 99.3534 48.2183V61.9805C99.3534 63.7291 99.5227 66.1544 99.6355 66.8312V66.9441H92.867C92.8106 65.9852 92.8106 65.0827 92.8106 64.1241H91.7952C90.047 66.9441 87.0012 67.7902 83.617 67.7902ZM80.9095 58.822C80.9095 61.1345 82.8273 62.4883 85.5345 62.4883C90.1598 62.4883 92.8106 58.9912 92.8106 55.438V54.0278L86.6063 54.761C82.7709 55.2123 80.9095 56.3402 80.9095 58.822Z" fill="#EFEBE6"/>
<path d="M116.481 67.7902C109.374 67.7902 104.297 64.2369 103.508 58.653H110.446C111.235 61.1345 113.83 62.2062 116.537 62.2062C119.301 62.2062 121.557 61.0219 121.557 58.9348C121.557 56.848 119.414 56.2841 116.481 55.7763L113.491 55.2687C107.851 54.3098 104.354 51.9409 104.354 46.8646C104.354 41.3371 109.205 37.8965 115.917 37.8965C122.459 37.8965 126.802 40.9423 127.987 46.2441H121.218C120.429 44.1572 118.342 43.3112 115.973 43.3112C113.096 43.3112 111.235 44.552 111.235 46.3006C111.235 48.1055 112.702 48.6695 115.747 49.1771L118.737 49.6847C124.208 50.5872 128.382 52.8433 128.382 58.3144C128.382 64.293 123.418 67.7902 116.481 67.7902Z" fill="#EFEBE6"/>
<path d="M145.863 67.7902C137.177 67.7902 131.424 61.8677 131.424 52.7869C131.424 43.8752 137.515 37.8965 145.919 37.8965C154.718 37.8965 159.795 44.4393 159.795 53.0689V54.3098H138.305C138.643 58.9912 141.915 61.7551 145.863 61.7551C149.134 61.7551 151.108 60.627 152.067 58.653H159.287C157.82 63.9548 152.575 67.7902 145.863 67.7902ZM138.418 49.6284H152.913C152.349 45.8493 149.36 43.6496 145.863 43.6496C142.197 43.6496 139.095 45.7929 138.418 49.6284Z" fill="#EFEBE6"/>
</g>
<defs>
<clipPath id="clip0_2367_1485">
<rect width="30.8007" height="29.983" fill="white" transform="translate(0 37.8379)"/>
</clipPath>
<clipPath id="clip1_2367_1485">
<rect width="118.296" height="39.7956" fill="white" transform="translate(41.7031 28.0254)"/>
</clipPath>
</defs>
</svg>
