<svg width="121" height="72" viewBox="0 0 121 72" fill="none" xmlns="http://www.w3.org/2000/svg">
<g clip-path="url(#clip0_1635_6255)">
<path d="M2 37.3966L4.52682 36.2692L5.55202 37.2247L4.52682 42.3616L7.99574 40.8149C7.99574 40.8149 8.73662 37.0773 8.96696 36.3497L9.70592 36.1727L10.673 35.383L9.70592 34.654L8.96696 34.5077C8.52507 32.9858 7.99574 30.5939 7.99574 30.5939L4.52682 28.6675L5.55202 33.3962L4.52682 34.5077L2.19344 33.3962L2 37.3966Z" fill="url(#paint0_linear_1635_6255)"/>
<path d="M18.2879 43.249L16.0522 41.6302L16.3681 40.2673L21.3256 38.5856L18.2572 36.3628C18.2572 36.3628 14.6526 37.5908 13.908 37.7554L13.3863 37.2057L12.2206 36.7652L12.0717 37.9647L12.3136 38.6759C11.2166 39.8182 9.41016 41.4706 9.41016 41.4706L9.47228 45.4291L13.0542 42.1806L14.5275 42.5105L14.7288 45.0811L18.2879 43.249Z" fill="url(#paint1_linear_1635_6255)"/>
<path d="M18.1654 28.0404L15.9555 29.6944L16.293 31.0521L21.2765 32.6552L18.2436 34.9263C18.2436 34.9263 14.6201 33.7554 13.8729 33.6026L13.36 34.1605L12.2014 34.6193L12.0336 33.4224L12.2642 32.7074C11.1492 31.5827 9.31687 29.959 9.31687 29.959L9.31641 26L12.9492 29.1914L14.4171 28.8383L14.5777 26.2648L18.1654 28.0404Z" fill="url(#paint2_linear_1635_6255)"/>
<path d="M30.4678 29.186V36.0413L30.1242 36.677V38.481L30.4678 39.2026V42.4154H28.2344V29.186H30.4678ZM29.5745 37.5532C29.7806 36.5338 30.1357 35.6404 30.6397 34.873C31.1553 34.1055 31.7852 33.5099 32.5297 33.0861C33.2741 32.6623 34.0932 32.4504 34.9866 32.4504C35.9256 32.4504 36.7618 32.668 37.495 33.1033C38.2394 33.5271 38.8179 34.1285 39.2302 34.9073C39.6425 35.6747 39.8487 36.5567 39.8487 37.5532C39.8487 38.5497 39.6425 39.4374 39.2302 40.2163C38.8179 40.9837 38.2394 41.585 37.495 42.0203C36.7618 42.4441 35.9256 42.656 34.9866 42.656C34.0932 42.656 33.2741 42.4441 32.5297 42.0203C31.7965 41.5965 31.1722 41.0008 30.657 40.2334C30.153 39.466 29.7921 38.5726 29.5745 37.5532ZM37.5809 37.5532C37.5809 36.9118 37.4435 36.3391 37.1686 35.8351C36.905 35.3311 36.5329 34.9417 36.0519 34.6668C35.5821 34.3804 35.0495 34.2373 34.4538 34.2373C33.5604 34.2373 32.7473 34.5408 32.0141 35.1479C31.2927 35.7549 30.7427 36.5567 30.3649 37.5532C30.7427 38.5611 31.2927 39.3687 32.0141 39.9757C32.7358 40.5713 33.5489 40.8691 34.4538 40.8691C35.0495 40.8691 35.5821 40.7317 36.0519 40.4568C36.5329 40.1704 36.905 39.7753 37.1686 39.2713C37.4435 38.7673 37.5809 38.1946 37.5809 37.5532Z" fill="#F8F7F8"/>
<path d="M50.4006 38.8077L50.8471 37.5534L50.4006 36.3164L50.7784 32.6912H53.0809L52.5654 37.5534L53.0809 42.4157H50.7784L50.4006 38.8077ZM51.4659 37.5534C51.2482 38.5729 50.8816 39.4663 50.3661 40.2337C49.8624 41.0011 49.2379 41.5967 48.4934 42.0205C47.7605 42.4443 46.9471 42.6562 46.0538 42.6562C45.1144 42.6562 44.2725 42.4443 43.5281 42.0205C42.7952 41.5853 42.2225 40.9839 41.8102 40.2165C41.3978 39.4376 41.1914 38.5499 41.1914 37.5534C41.1914 36.5569 41.3978 35.675 41.8102 34.9075C42.2225 34.1287 42.7952 33.5274 43.5281 33.1035C44.2725 32.6683 45.1144 32.4507 46.0538 32.4507C46.9471 32.4507 47.766 32.6626 48.5107 33.0864C49.2551 33.5102 49.8793 34.1058 50.3834 34.8732C50.8989 35.6406 51.2597 36.534 51.4659 37.5534ZM43.4594 37.5534C43.4594 38.1949 43.5911 38.7676 43.8545 39.2715C44.1294 39.7755 44.5017 40.1707 44.9712 40.457C45.4525 40.7319 45.9908 40.8694 46.5863 40.8694C47.4911 40.8694 48.3045 40.5716 49.0259 39.976C49.7476 39.3689 50.2974 38.5614 50.6755 37.5534C50.2974 36.5569 49.7419 35.7551 49.009 35.1481C48.2873 34.541 47.4799 34.2375 46.5863 34.2375C45.9908 34.2375 45.4525 34.3807 44.9712 34.667C44.5017 34.9419 44.1294 35.3314 43.8545 35.8353C43.5911 36.3393 43.4594 36.912 43.4594 37.5534Z" fill="#F8F7F8"/>
<path d="M56.9991 32.6912L57.5834 36.1961V42.4157H55.3499V35.8697L54.7656 32.6912H56.9991ZM61.4492 32.4507C62.354 32.4507 63.1272 32.6339 63.7687 33.0005C64.4214 33.367 64.9139 33.8939 65.246 34.5811C65.5899 35.2684 65.7615 36.0873 65.7615 37.038V42.4157H63.528V37.3988C63.528 36.3908 63.2876 35.6234 62.8063 35.0965C62.3368 34.5697 61.6438 34.3062 60.7275 34.3062C60.0975 34.3062 59.542 34.4494 59.061 34.7357C58.5915 35.0107 58.2249 35.4001 57.9615 35.9041C57.7093 36.408 57.5834 36.9979 57.5834 37.6737L56.793 37.2442C56.8847 36.2591 57.1423 35.4058 57.5661 34.6842C57.99 33.9626 58.534 33.4128 59.1984 33.0348C59.8741 32.6454 60.6246 32.4507 61.4492 32.4507Z" fill="#F8F7F8"/>
<path d="M76.7278 38.7215L77.2261 37.5704L76.745 36.2474L77.4665 29.186H79.7687L78.8926 37.4158L79.3909 42.4154H77.1056L76.7278 38.7215ZM77.7586 37.5532C77.5409 38.5726 77.1743 39.466 76.6591 40.2334C76.155 41.0008 75.5308 41.5965 74.7864 42.0203C74.0532 42.4441 73.2401 42.656 72.3465 42.656C71.4074 42.656 70.5655 42.4441 69.8208 42.0203C69.0879 41.585 68.5152 40.9837 68.1028 40.2163C67.6905 39.4374 67.4844 38.5497 67.4844 37.5532C67.4844 36.5567 67.6905 35.6747 68.1028 34.9073C68.5152 34.1285 69.0879 33.5271 69.8208 33.1033C70.5655 32.668 71.4074 32.4504 72.3465 32.4504C73.2401 32.4504 74.059 32.6623 74.8034 33.0861C75.5481 33.5099 76.1723 34.1055 76.6761 34.873C77.1916 35.6404 77.5524 36.5338 77.7586 37.5532ZM69.7521 37.5532C69.7521 38.1946 69.8841 38.7673 70.1475 39.2713C70.4223 39.7753 70.7947 40.1704 71.2642 40.4568C71.7452 40.7317 72.2835 40.8691 72.8792 40.8691C73.7841 40.8691 74.5972 40.5713 75.3189 39.9757C76.0406 39.3687 76.5904 38.5611 76.9682 37.5532C76.5904 36.5567 76.0349 35.7549 75.3017 35.1479C74.58 34.5408 73.7726 34.2373 72.8792 34.2373C72.2835 34.2373 71.7452 34.3804 71.2642 34.6668C70.7947 34.9417 70.4223 35.3311 70.1475 35.8351C69.8841 36.3391 69.7521 36.9118 69.7521 37.5532Z" fill="#F8F7F8"/>
<path d="M90.2324 38.8077L90.6792 37.5534L90.2324 36.3164L90.6105 32.6912H92.9127L92.3972 37.5534L92.9127 42.4157H90.6105L90.2324 38.8077ZM91.2976 37.5534C91.08 38.5729 90.7134 39.4663 90.1981 40.2337C89.6941 41.0011 89.0699 41.5967 88.3252 42.0205C87.5923 42.4443 86.7789 42.6562 85.8855 42.6562C84.9465 42.6562 84.1046 42.4443 83.3599 42.0205C82.627 41.5853 82.0542 40.9839 81.6419 40.2165C81.2296 39.4376 81.0234 38.5499 81.0234 37.5534C81.0234 36.5569 81.2296 35.675 81.6419 34.9075C82.0542 34.1287 82.627 33.5274 83.3599 33.1035C84.1046 32.6683 84.9465 32.4507 85.8855 32.4507C86.7789 32.4507 87.598 32.6626 88.3424 33.0864C89.0871 33.5102 89.7114 34.1058 90.2151 34.8732C90.7306 35.6406 91.0915 36.534 91.2976 37.5534ZM83.2912 37.5534C83.2912 38.1949 83.4229 38.7676 83.6865 39.2715C83.9614 39.7755 84.3335 40.1707 84.8033 40.457C85.2843 40.7319 85.8226 40.8694 86.4183 40.8694C87.3232 40.8694 88.1363 40.5716 88.858 39.976C89.5794 39.3689 90.1294 38.5614 90.5072 37.5534C90.1294 36.5569 89.5739 35.7551 88.8407 35.1481C88.119 34.541 87.3117 34.2375 86.4183 34.2375C85.8226 34.2375 85.2843 34.3807 84.8033 34.667C84.3335 34.9419 83.9614 35.3314 83.6865 35.8353C83.4229 36.3393 83.2912 36.912 83.2912 37.5534Z" fill="#F8F7F8"/>
<path d="M103.79 38.7215L104.289 37.5704L103.808 36.2474L104.529 29.186H106.831L105.955 37.4158L106.453 42.4154H104.168L103.79 38.7215ZM104.821 37.5532C104.604 38.5726 104.237 39.466 103.722 40.2334C103.218 41.0008 102.593 41.5965 101.849 42.0203C101.116 42.4441 100.303 42.656 99.4092 42.656C98.4699 42.656 97.628 42.4441 96.8836 42.0203C96.1504 41.585 95.5779 40.9837 95.1656 40.2163C94.753 39.4374 94.5469 38.5497 94.5469 37.5532C94.5469 36.5567 94.753 35.6747 95.1656 34.9073C95.5779 34.1285 96.1504 33.5271 96.8836 33.1033C97.628 32.668 98.4699 32.4504 99.4092 32.4504C100.303 32.4504 101.121 32.6623 101.866 33.0861C102.611 33.5099 103.235 34.1055 103.739 34.873C104.254 35.6404 104.615 36.5338 104.821 37.5532ZM96.8149 37.5532C96.8149 38.1946 96.9466 38.7673 97.21 39.2713C97.4848 39.7753 97.8572 40.1704 98.3267 40.4568C98.8077 40.7317 99.3463 40.8691 99.9418 40.8691C100.847 40.8691 101.66 40.5713 102.381 39.9757C103.103 39.3687 103.653 38.5611 104.031 37.5532C103.653 36.5567 103.097 35.7549 102.364 35.1479C101.643 34.5408 100.835 34.2373 99.9418 34.2373C99.3463 34.2373 98.8077 34.3804 98.3267 34.6668C97.8572 34.9417 97.4848 35.3311 97.21 35.8351C96.9466 36.3391 96.8149 36.9118 96.8149 37.5532Z" fill="#F8F7F8"/>
<path d="M117.295 38.8077L117.742 37.5534L117.295 36.3164L117.673 32.6912H119.975L119.46 37.5534L119.975 42.4157H117.673L117.295 38.8077ZM118.36 37.5534C118.142 38.5729 117.776 39.4663 117.261 40.2337C116.757 41.0011 116.132 41.5967 115.388 42.0205C114.655 42.4443 113.842 42.6562 112.948 42.6562C112.009 42.6562 111.167 42.4443 110.423 42.0205C109.689 41.5853 109.117 40.9839 108.704 40.2165C108.292 39.4376 108.086 38.5499 108.086 37.5534C108.086 36.5569 108.292 35.675 108.704 34.9075C109.117 34.1287 109.689 33.5274 110.423 33.1035C111.167 32.6683 112.009 32.4507 112.948 32.4507C113.842 32.4507 114.661 32.6626 115.405 33.0864C116.15 33.5102 116.774 34.1058 117.278 34.8732C117.793 35.6406 118.154 36.534 118.36 37.5534ZM110.354 37.5534C110.354 38.1949 110.486 38.7676 110.749 39.2715C111.024 39.7755 111.396 40.1707 111.866 40.457C112.347 40.7319 112.885 40.8694 113.481 40.8694C114.386 40.8694 115.199 40.5716 115.92 39.976C116.642 39.3689 117.192 38.5614 117.57 37.5534C117.192 36.5569 116.636 35.7551 115.904 35.1481C115.182 34.541 114.374 34.2375 113.481 34.2375C112.885 34.2375 112.347 34.3807 111.866 34.667C111.396 34.9419 111.024 35.3314 110.749 35.8353C110.486 36.3393 110.354 36.912 110.354 37.5534Z" fill="#F8F7F8"/>
</g>
<defs>
<linearGradient id="paint0_linear_1635_6255" x1="5.09185" y1="26.0004" x2="21.4826" y2="27.5642" gradientUnits="userSpaceOnUse">
<stop stop-color="#FF5242"/>
<stop offset="1" stop-color="#EB179B"/>
</linearGradient>
<linearGradient id="paint1_linear_1635_6255" x1="5.09336" y1="26.0005" x2="21.4841" y2="27.5642" gradientUnits="userSpaceOnUse">
<stop stop-color="#FF5242"/>
<stop offset="1" stop-color="#EB179B"/>
</linearGradient>
<linearGradient id="paint2_linear_1635_6255" x1="5.09201" y1="26" x2="21.4828" y2="27.5638" gradientUnits="userSpaceOnUse">
<stop stop-color="#FF5242"/>
<stop offset="1" stop-color="#EB179B"/>
</linearGradient>
<clipPath id="clip0_1635_6255">
<rect width="118" height="19.4385" fill="white" transform="translate(2 26)"/>
</clipPath>
</defs>
</svg>
