<svg width="131" height="58" viewBox="0 0 131 58" fill="none" xmlns="http://www.w3.org/2000/svg">
<g clip-path="url(#clip0_2391_1441)">
<mask id="mask0_2391_1441" style="mask-type:luminance" maskUnits="userSpaceOnUse" x="0" y="0" width="131" height="58">
<path d="M130.648 0.505371H0.0234375V57.9711H130.648V0.505371Z" fill="white"/>
</mask>
<g mask="url(#mask0_2391_1441)">
<path d="M6.76941 14.0261C7.30819 13.028 8.08574 12.1771 9.03349 11.5484L24.9391 0.505371L8.64188 27.2989C8.64188 27.2989 7.21792 24.9064 6.66258 23.6958C5.97054 22.1736 5.62153 20.5196 5.63996 18.8492C5.65841 17.1789 6.04392 15.5327 6.76941 14.0261ZM0.204948 32.5091C0.384533 35.0714 1.11265 37.5659 2.34054 39.8256C3.56843 42.0855 5.26775 44.0583 7.32472 45.6121L24.9177 57.8091C24.9177 57.8091 13.9105 42.0373 4.62634 26.3434C3.6864 24.6853 3.05452 22.8725 2.76094 20.9917C2.63099 20.1401 2.63099 19.2737 2.76094 18.4221C2.51887 18.8681 2.04897 19.7813 2.04897 19.7813C1.10759 21.6901 0.466463 23.7313 0.147991 25.8337C-0.0353191 28.056 -0.0162556 30.2901 0.204948 32.5091ZM45.0596 34.6327C44.4898 33.4222 43.0802 31.0295 43.0802 31.0295L26.8116 57.8091L42.7171 46.773C43.6648 46.1444 44.4424 45.2936 44.9813 44.2955C45.7067 42.7888 46.0921 41.1426 46.1107 39.4724C46.1291 37.802 45.7801 36.1478 45.088 34.6257L45.0596 34.6327ZM51.5171 25.8124C51.3375 23.2502 50.6094 20.7556 49.3816 18.4958C48.1537 16.2361 46.4543 14.2632 44.3973 12.7094L26.8328 0.505371C26.8328 0.505371 37.8329 16.2771 47.1243 31.971C48.0617 33.6296 48.6911 35.4424 48.9825 37.3227C49.1124 38.1743 49.1124 39.0407 48.9825 39.8924C49.2246 39.4463 49.6945 38.5331 49.6945 38.5331C50.6359 36.6243 51.2771 34.5831 51.5954 32.4807C51.7811 30.2586 51.7645 28.0245 51.5457 25.8054L51.5171 25.8124Z" fill="url(#paint0_linear_2391_1441)"/>
<path d="M81.2758 41.853H64.6211V15.512H81.2758V20.4799H68.3818L69.9936 18.9788V26.1985H80.0222V30.9163H69.9936V38.3861L68.3818 36.885H81.2758V41.853Z" fill="white"/>
<path d="M91.0398 41.853H85.7031V15.512H91.0398L104.22 35.3839H102.609V15.512H107.909V41.853H102.609L89.3922 22.0168H91.0398V41.853Z" fill="white"/>
<path d="M111.402 23.0534C111.402 21.4808 111.808 20.0988 112.62 18.9075C113.455 17.6923 114.589 16.7392 116.022 16.0482C117.479 15.3572 119.138 15.0117 121.001 15.0117C122.863 15.0117 124.463 15.3453 125.8 16.0125C127.161 16.6558 128.212 17.5732 128.952 18.7645C129.716 19.9559 130.098 21.3736 130.098 23.0177H124.761C124.737 22.0169 124.379 21.2306 123.687 20.6588C123.018 20.0869 122.099 19.801 120.929 19.801C119.663 19.801 118.649 20.075 117.885 20.623C117.144 21.1711 116.774 21.9216 116.774 22.8747C116.774 23.7325 117.001 24.3997 117.455 24.8762C117.932 25.3289 118.661 25.6625 119.64 25.877L123.687 26.7347C126.003 27.2113 127.722 28.0333 128.844 29.2009C129.967 30.3684 130.528 31.9767 130.528 34.0259C130.528 35.6938 130.122 37.1592 129.31 38.422C128.498 39.661 127.34 40.626 125.836 41.317C124.355 41.9842 122.612 42.3178 120.607 42.3178C118.696 42.3178 117.013 41.9961 115.557 41.3528C114.124 40.6856 113.014 39.7563 112.226 38.565C111.438 37.3498 111.032 35.944 111.008 34.3475H116.38C116.38 35.3483 116.75 36.1346 117.491 36.7064C118.255 37.2545 119.305 37.5285 120.642 37.5285C122.027 37.5285 123.126 37.2664 123.938 36.7422C124.749 36.1942 125.155 35.4674 125.155 34.562C125.155 33.7519 124.952 33.1324 124.546 32.7035C124.141 32.2507 123.46 31.9291 122.505 31.7385L118.422 30.8807C116.106 30.4041 114.351 29.5106 113.157 28.2001C111.987 26.8896 111.402 25.174 111.402 23.0534Z" fill="white"/>
</g>
</g>
<defs>
<linearGradient id="paint0_linear_2391_1441" x1="86.95" y1="64.6005" x2="56.4953" y2="-57.4786" gradientUnits="userSpaceOnUse">
<stop stop-color="#44BCF0"/>
<stop offset="0.378795" stop-color="#7298F8"/>
<stop offset="1" stop-color="#A099FF"/>
</linearGradient>
<clipPath id="clip0_2391_1441">
<rect width="130.625" height="57.4657" fill="white" transform="translate(0.0234375 0.504883)"/>
</clipPath>
</defs>
</svg>
