<svg width="189" height="70" viewBox="0 0 189 70" fill="none" xmlns="http://www.w3.org/2000/svg">
<path d="M81.9141 17.4763H89.012V46.8747H96.1099V10.1267H89.012C85.1081 10.1267 81.9141 13.434 81.9141 17.4763Z" fill="white"/>
<path d="M103.211 24.8259V46.8747H110.309V32.1755C110.309 28.1332 107.115 24.8259 103.211 24.8259Z" fill="white"/>
<path d="M131.602 24.8259H117.406V46.8747H124.504V32.1755H131.602V39.5251C131.602 43.5674 134.796 46.8747 138.7 46.8747V32.1755C138.7 28.1332 135.506 24.8259 131.602 24.8259Z" fill="white"/>
<path d="M181.286 24.8259H174.189V17.4763C174.189 13.434 170.994 10.1267 167.091 10.1267V39.5251H152.895V32.1755H159.993V24.8259H152.895C148.991 24.8259 145.797 28.1332 145.797 32.1755V39.5251C145.797 43.5674 148.991 46.8747 152.895 46.8747H174.189V32.1755H181.286V39.5251C181.286 43.5674 184.481 46.8747 188.384 46.8747V32.1755C188.384 28.1332 185.19 24.8259 181.286 24.8259Z" fill="white"/>
<path d="M103.211 10.1267V17.4763H110.309C110.309 13.434 107.115 10.1267 103.211 10.1267Z" fill="white"/>
<path d="M53.3277 7.57327C53.3277 7.57327 56.2378 7.70188 59.2545 8.05099C52.4405 2.50204 45.9813 0.88513 40.7466 0.88513C33.5245 0.88513 28.6447 3.95359 28.3608 4.13733L30.6321 0.407407C30.6321 0.407407 21.5468 -0.492918 18.3527 9.44741C17.5364 7.3344 16.7734 4.26595 16.7734 4.26595C16.7734 4.26595 12.0533 8.54709 14.2714 15.6578C8.85921 13.6183 1.12248 10.7703 0.838561 10.7152C0.43043 10.6601 0.306216 10.8438 0.306216 10.8438C0.306216 10.8438 0.182003 11.0276 0.5369 11.3216C1.17571 11.8728 13.4019 21.2068 16.0636 23.0074C15.478 25.1756 15.478 26.2045 16.0636 27.2334C16.8799 28.6115 16.9331 29.3464 16.8266 30.3754C16.7024 31.4043 15.6555 40.2606 15.4248 41.3447C15.1941 42.4287 12.7453 46.2873 12.8695 47.4265C12.9938 48.5656 14.5021 53.4531 15.8329 53.986C16.8266 54.3535 19.2577 55.1252 20.8902 55.1252C21.4758 55.1252 21.9904 54.9965 22.2211 54.7577C23.2148 53.8574 23.4987 53.6736 24.1907 53.6736H24.3682C24.6521 53.6736 25.007 53.7287 25.4151 53.7287C26.3379 53.7287 27.5622 53.545 28.4495 52.6998C29.7271 51.3769 31.9452 49.5578 32.6373 48.731C33.5067 47.5918 33.9681 46.0117 33.7374 44.4499C33.56 42.9983 34.323 41.7305 35.1925 40.4811C36.2927 38.9744 38.3333 36.2551 38.3333 36.2551C42.3437 39.397 44.8457 44.1559 44.8457 49.4476C44.8457 58.8551 36.9315 66.4435 27.1541 66.4435C25.6458 66.4435 24.1907 66.2598 22.7357 65.8923C27.2073 67.5276 31.0047 68.0604 34.0746 68.0604C40.6579 68.0604 44.1359 65.5983 44.1359 65.5983C44.1359 65.5983 42.9115 67.2336 40.9418 69.0894H40.9951C51.8726 67.5276 57.1783 58.2487 57.1783 58.2487C57.1783 58.2487 56.7702 61.2621 56.2556 63.3016C70.7354 52.0383 68.3043 37.9455 68.2333 37.4494C68.3575 37.6331 69.8126 39.4338 70.5579 40.4076C72.9357 15.5843 53.3277 7.57327 53.3277 7.57327Z" fill="#1B314F"/>
<path d="M52.6384 47.9407C52.7626 47.463 53.2772 47.1506 53.8628 46.8567C54.2709 46.6178 54.7855 46.3054 54.8565 46.1401C55.0872 44.762 55.2114 43.3656 55.2114 41.9875C55.2114 41.6936 54.75 41.1975 54.3419 40.8484C53.8806 40.3706 53.4192 39.8929 53.3482 39.3968C52.9401 35.4831 51.5382 31.6797 49.2669 28.5562C49.4443 30.7243 49.3911 33.3701 48.8055 36.457C52.9933 44.1005 50.3848 53.7469 44.9727 59.5898C48.6103 56.6867 51.343 52.5893 52.6384 47.9407Z" fill="white"/>
<path d="M31.6825 44.5052C31.0437 41.9145 28.5416 40.5364 27.7254 40.5916C26.8027 40.7202 25.5073 40.8855 25.0992 41.1979C25.8622 39.9852 26.9091 39.3973 27.9561 39.0849C28.8256 36.4942 30.6888 31.1841 31.0969 30.835C31.3276 30.6512 31.9132 30.4675 32.9069 30.1735C33.4924 30.0449 34.3087 29.806 34.4152 29.6958C34.6459 29.3283 36.9704 23.5589 37.1479 23.1363C37.0946 22.7137 35.9235 19.6452 34.6991 16.687C31.7357 18.9102 28.5239 18.3223 28.5239 18.3223C28.5239 18.3223 30.7952 17.6608 33.1198 14.0963C35.3911 10.5501 33.244 5.6626 33.244 5.6626C33.244 5.6626 25.2766 18.065 24.2829 18.3223C23.2892 18.5611 22.5971 17.2933 22.5971 17.2933C22.5971 17.2933 20.5032 22.9525 19.9177 25.0104C19.3321 27.0499 20.0419 28.9792 20.5565 29.953C21.1421 30.9085 22.3665 33.3338 20.6807 35.7959C20.9114 34.7119 19.8644 33.0215 19.1014 31.9925C18.8175 34.6384 18.0545 40.9774 17.8238 41.988C17.6996 42.7046 17.2914 43.4947 16.5994 44.8727C16.2445 45.5893 15.5524 46.8571 15.375 47.4634C15.6057 48.5475 16.4752 51.1382 17.0608 51.9283C17.877 52.2223 19.0304 52.5346 20.0241 52.7184C20.4855 52.7184 21.0711 52.4795 21.8873 51.6895C23.3957 50.2379 24.3894 49.4662 24.6733 47.886C24.9572 46.3794 24.8507 44.0275 25.5428 43.366C26.1816 42.7046 27.5834 42.4106 28.6836 42.7046C27.8141 42.7046 26.8204 43.1272 26.8204 43.1272C26.8204 43.1272 28.5062 42.8332 29.145 44.0826C29.7838 45.3504 29.2692 46.067 28.2222 46.802C27.3527 47.4083 24.7975 50.1828 23.9103 51.3771H24.4426H24.6733H25.0282H25.667C26.359 51.3771 26.8381 51.2485 27.0688 51.0096C27.6544 50.4033 28.3997 49.7418 29.1095 49.0803C29.8015 48.4189 30.7952 47.5186 31.0259 47.2062C31.4873 46.4896 31.7889 45.5709 31.6647 44.6155V44.5052H31.6825ZM28.7723 15.2354L32.6762 9.2639C32.6762 9.2639 33.2085 11.6709 31.8599 13.3062C30.1742 15.2906 28.7191 15.2354 28.7723 15.2354ZM18.019 48.915C17.2559 48.9701 16.972 48.0147 17.1495 47.4634C17.3269 46.9857 19.2434 43.4947 19.2434 43.4947L18.782 45.9016C18.782 45.9016 19.7047 45.773 19.7047 46.8571C19.7047 47.7023 18.7643 48.8415 18.019 48.915ZM24.1232 31.0738C23.7683 32.4519 20.8049 31.8639 21.9051 27.4542C21.9051 27.4542 22.4374 29.5672 22.952 29.3834C23.4844 29.1997 29.4111 19.5717 29.4111 19.5717C29.4111 19.5717 28.6481 22.1073 28.1335 23.3751C30.1742 23.7977 30.7597 26.2598 29.6418 27.6011C28.5416 28.8506 25.7557 30.6512 24.1232 31.0738Z" fill="white"/>
<path d="M37.4484 13.3616C37.0403 14.023 36.6321 14.6294 36.224 15.1071C37.0935 17.3304 39.3648 23.1733 39.3648 23.4856C39.3648 23.8531 38.2647 26.793 38.1405 26.9216C38.0162 26.9767 36.6854 27.1053 36.1708 27.1053C35.5852 28.5569 34.9996 29.9349 34.8932 30.1187C34.7157 30.3575 34.2011 30.5413 33.0832 30.8352C32.4976 31.019 31.6281 31.2578 31.5039 31.3865C31.22 31.7539 29.6407 36.0167 28.5938 39.03C29.9956 38.7912 31.22 39.0852 31.5039 39.2138C33.7752 34.7489 35.5852 32.3419 36.0466 32.3419C36.5079 32.2868 42.0443 33.132 44.1914 27.7668C46.2853 22.4567 43.2687 17.9551 43.1445 17.7713C43.2687 17.8265 47.9178 20.0681 49.0713 27.2891C51.6975 30.725 53.3832 34.8775 53.8446 39.2873C53.8446 39.5813 54.306 40.0039 54.6076 40.3713C55.14 40.9226 55.6546 41.4554 55.6546 42.0066C55.6546 43.4582 55.5304 44.8913 55.2997 46.2878C55.1755 46.7655 54.6076 47.133 54.0221 47.427C53.6672 47.6658 53.1526 47.9782 53.0993 48.1435C51.8217 52.9024 48.9116 57.1284 45.1319 60.1418C53.1526 56.173 58.6889 47.6658 58.6889 37.9092C58.6889 25.1761 49.3729 14.6845 37.4484 13.3616Z" fill="white"/>
<path d="M28.309 44.9831C28.309 44.1379 27.2089 43.9541 26.7298 44.0828C26.2684 44.2114 26.1442 44.9831 26.0909 45.4057C26.0377 45.8283 26.0909 47.1512 25.5586 47.9413C25.6828 47.8127 26.4813 46.9124 26.8895 46.4898C27.4928 45.9569 28.309 45.7732 28.309 44.9831Z" fill="white"/>
<path d="M18.8868 21.0779C19.2949 20.2878 18.94 19.755 18.6028 19.4426C18.5496 19.3875 18.4786 19.314 18.4786 19.314C17.7866 18.9465 13.4214 17.2745 9.10938 15.6943C12.889 18.2851 17.0768 20.8207 17.7866 21.1698C18.3012 21.427 18.6561 21.5005 18.8868 21.0779Z" fill="white"/>
<path d="M35.3708 18.3223C35.1579 17.7895 34.9272 17.2382 34.6965 16.687C31.8041 18.8551 28.6988 18.3407 28.5391 18.3223C28.6988 18.3407 31.7864 19.3512 35.3708 18.3223Z" fill="#94A6C3"/>
<path d="M41.4396 14.1698C40.1443 13.7839 38.8134 13.5083 37.447 13.3613C37.0389 14.0228 36.6308 14.6291 36.2227 15.1069C36.4711 15.7316 36.826 16.6319 37.1986 17.6241C38.6359 16.9075 40.1088 15.8234 41.4396 14.1698Z" fill="#94A6C3"/>
<path d="M31.6798 44.5054C31.041 41.9147 28.539 40.5366 27.7227 40.5918C26.8 40.7204 25.5046 40.8857 25.0965 41.1981C25.8595 39.9854 26.9064 39.3974 27.9534 39.0851C28.255 38.2031 28.6632 37.0088 29.089 35.7961C28.0953 36.3474 24.5819 38.2766 24.2802 38.4787C23.9253 38.7176 22.7009 41.2532 21.7782 43.8991C21.2458 42.2087 20.0924 41.1797 20.0392 41.1246C20.0924 41.4186 21.3168 46.4347 20.9087 47.9413C20.5006 49.5031 17.9453 50.8996 17.9453 50.8996L21.7959 51.7815C21.8314 51.7448 21.8669 51.708 21.9024 51.6713C23.4107 50.2197 24.4044 49.448 24.6883 47.8679C24.9723 46.3612 24.8658 44.0093 25.5578 43.3478C26.1966 42.6864 27.5985 42.3924 28.6987 42.6864C28.3793 42.6864 28.0598 42.7415 27.7582 42.815C28.7519 42.8334 30.065 43.2192 30.0295 45.2771C30.0295 46.8389 28.3438 46.9675 26.658 48.4191C26.3209 48.7131 25.9482 49.0438 25.5756 49.4113C24.9013 50.1646 24.2802 50.8996 23.9253 51.3773H25.6643C26.3563 51.3773 26.8355 51.2487 27.0661 51.0098C27.6517 50.4035 28.397 49.742 29.1068 49.0805C29.7988 48.4191 30.7926 47.5187 31.0232 47.2064C31.4846 46.4898 31.7863 45.5711 31.662 44.6157V44.5054H31.6798Z" fill="#94A6C3"/>
<path d="M36.5075 30.7801C34.4669 30.7801 31.7342 32.1581 31.7342 32.1581L29.0547 38.9565C30.2436 38.8463 31.2373 39.0851 31.5035 39.1954C33.7748 34.7305 35.5848 32.3235 36.0461 32.3235C36.5075 32.2684 42.0439 33.1136 44.191 27.7484C46.2849 22.4383 43.2683 17.9367 43.1441 17.7529C45.5928 26.0763 40.1807 30.7066 36.5075 30.7801Z" fill="#94A6C3"/>
<path d="M52.6384 47.9405C52.7626 47.4627 53.2772 47.1504 53.8628 46.8564C54.2709 46.6175 54.7855 46.3052 54.8565 46.1398C55.0872 44.7618 55.2114 43.3653 55.2114 41.9873C55.2114 41.6933 54.75 41.1972 54.3419 40.8481C53.8806 40.3704 53.4192 39.8743 53.3482 39.3966C52.9401 35.4829 51.5382 31.6795 49.2669 28.5559C49.4443 30.724 49.3911 33.3699 48.8055 36.4384C52.9933 44.0819 50.3848 53.7283 44.9727 59.5712C48.6103 56.6865 51.343 52.5891 52.6384 47.9405Z" fill="#94A6C3"/>
<path d="M58.0342 36.623C55.9581 24.4594 44.069 18.1938 43.1641 17.7712C43.5367 17.955 47.76 20.1782 49.0021 26.848C51.8945 30.339 53.7045 34.7121 54.2013 39.3239C54.2013 39.6179 54.6095 40.0405 55.0176 40.408C55.5499 40.9592 56.0645 41.4921 56.0645 42.0433C56.0645 43.4948 55.9403 44.928 55.7096 46.3244C55.5854 46.8021 55.0176 47.1145 54.432 47.4636C54.0771 47.7025 53.5625 48.0148 53.5093 48.1802C52.3204 52.5348 49.8361 56.4117 46.5356 59.3516C46.2694 59.5904 46.0032 59.8109 45.7193 60.0498C51.9832 56.375 56.4017 50.7893 57.839 44.4319C58.3891 41.9147 58.4956 39.2872 58.0342 36.623Z" fill="#94A6C3"/>
<path d="M24.582 29.9348L27.6164 24.5696C27.6164 24.5696 29.3554 25.4699 28.4859 26.9214C27.368 28.6119 24.582 29.9348 24.582 29.9348Z" fill="#FFD923"/>
<path d="M59.0259 29.2732C59.3098 29.8244 66.4787 43.4947 58.9727 58.4327C60.1438 57.22 61.1198 55.9706 62.007 54.7579C67.011 47.5369 66.319 37.5966 60.5519 30.9636C60.0728 30.4124 59.5582 29.806 59.0259 29.2732Z" fill="#D82122"/>
<path d="M68.98 35.5391C68.8557 27.822 66.3537 21.2073 61.5271 15.8973C61.4739 15.8421 61.4739 15.8421 61.4029 15.7686C57.1619 11.1384 50.9335 8.9519 44.7583 9.8706C42.4337 10.1646 40.1092 10.6607 38.2992 11.2486C38.0153 11.3038 37.7136 11.3773 37.4297 11.4875H37.5539C38.0153 11.4324 46.515 11.0098 54.4292 16.4301C62.6451 22.0342 66.3537 28.2446 68.98 35.5391Z" fill="#D82122"/>
<path d="M52.5667 5.71738C48.7338 3.73299 44.7057 2.70405 40.6954 2.64893C39.1871 2.64893 37.7853 2.77754 36.5076 3.01641C31.965 3.86161 28.2386 7.24242 26.9609 11.7441C26.9609 11.7441 27.8837 10.2374 30.1018 8.6756C30.918 7.53641 32.1957 5.71738 33.42 4.21072C33.7749 5.0008 34.1831 5.95624 34.2895 6.43397C38.3176 4.87218 43.9072 4.02697 52.5667 5.71738Z" fill="#D82122"/>
<path d="M16.0851 8.36377C15.9609 8.84149 13.7073 17.0363 20.5035 17.2752C16.5642 14.813 16.0851 8.41889 16.0851 8.36377Z" fill="#D82122"/>
<path d="M27.2127 2.52051C26.8046 2.70425 18.0209 5.66246 23.025 13.5449C23.025 13.5449 21.978 5.7727 27.2127 2.52051Z" fill="#D82122"/>
</svg>
