<svg width="160" height="96" viewBox="0 0 160 96" fill="none" xmlns="http://www.w3.org/2000/svg">
<g clip-path="url(#clip0_2298_641)">
<path d="M69.5353 70.2553H63.5779V26H69.5353V70.2553ZM159.475 70.2553H153.517V26H159.475V70.2553ZM80.4713 70.2553H74.5193V26H80.4713V70.2553ZM107.965 70.2553H102.313L102.246 70.188L86.1548 53.6959L91.0197 49.0579L107.965 66.8955V70.2553ZM83.5255 52.0009V43.7234L102.261 26H107.381V29.2988L107.308 29.3652L83.5255 52.0009ZM28.185 70.2553H23.1602V67.1167L52.9255 26.015H58.7744V52.0991H52.817V35.8132L28.1859 70.2553H28.185Z" fill="white"/>
<path d="M58.776 70.2553H52.8187V60.705H38.6524L42.8604 55.1235H58.792L58.776 70.2553ZM11.1022 31.5815H0V26H11.1022V31.5815ZM20.1129 70.2553H14.1511V26H32.3964V31.5815H20.1129V70.2553ZM114.944 70.2553H110.001V66.6733L125.202 32.5454L128.54 39.6784L128.494 39.7758L114.944 70.2553ZM143.752 51.8513H137.164L126.884 28.85L128.157 26H132.2L143.752 51.8513ZM150.45 70.2553H145.393L141.009 60.4634H122.651L125.088 54.8916H145.114L150.45 66.8494V70.2553Z" fill="white"/>
</g>
<defs>
<clipPath id="clip0_2298_641">
<rect width="160" height="44.2553" fill="white" transform="translate(0 26)"/>
</clipPath>
</defs>
</svg>
