<svg width="141" height="29" viewBox="0 0 141 29" fill="none" xmlns="http://www.w3.org/2000/svg">
<path d="M40.716 18.8819C40.6056 18.8401 40.5904 18.7851 40.5904 18.7382C40.5904 18.6624 40.6089 18.6415 40.6218 18.6259C40.6346 18.6074 40.6713 18.5685 40.7817 18.5135C42.2351 17.6915 42.9742 16.4705 42.9742 14.889C42.9742 13.3076 42.4631 12.1884 41.4547 11.3479C40.4514 10.4975 39.0889 10.0642 37.4018 10.0642H30.4883V27.7014H37.3966C39.1465 27.7014 40.5452 27.2681 41.546 26.4177C42.5706 25.5616 43.0889 24.33 43.0889 22.7543C43.0889 20.8131 42.2898 19.5081 40.7131 18.8794L40.716 18.8819ZM39.5215 16.9616C38.9923 17.3659 38.1956 17.5697 37.1558 17.5697H33.1291V12.4529H37.1558C38.1956 12.4529 38.9923 12.6563 39.5239 13.0611C40.0606 13.4579 40.3333 14.1125 40.3333 15.0104C40.3333 15.9082 40.0611 16.5629 39.5239 16.9596L39.5215 16.9616ZM33.1291 19.957H37.1558C38.2613 19.957 39.097 20.1684 39.6442 20.5884C40.1816 20.9852 40.4538 21.6739 40.4538 22.6343C40.4538 23.5948 40.1816 24.2939 39.6442 24.7035C39.0993 25.1079 38.2613 25.3117 37.1558 25.3117H33.1291V19.9546V19.957Z" fill="white"/>
<path d="M54.5412 21.5453C54.5412 22.9964 54.2056 24.1052 53.5479 24.8409C52.9088 25.5558 51.9684 25.9184 50.7582 25.9184C49.6921 25.9184 48.8669 25.6288 48.3059 25.0547C47.7447 24.4806 47.4597 23.625 47.4597 22.5134V14.9045H45.0625V22.8765C45.0625 24.5124 45.5313 25.7989 46.4536 26.7019C47.3759 27.605 48.6595 28.0639 50.2708 28.0639C52.0126 28.0639 53.3642 27.4713 54.2813 26.3156L54.4018 26.1957C54.4279 26.1697 54.4546 26.154 54.4726 26.154C54.5274 26.154 54.5378 26.1644 54.5378 26.2194V27.7041H56.935V14.905H54.5378V21.5459L54.5412 21.5453Z" fill="white"/>
<path d="M62.0494 14.905H59.6523V27.7013H62.0494V14.905Z" fill="white"/>
<path d="M60.8478 10.0198C60.0016 10.0198 59.3125 10.7062 59.3125 11.5514V11.6481C59.3125 12.4909 60.0016 13.1797 60.8478 13.1797C61.694 13.1797 62.3831 12.4934 62.3831 11.6481V11.5514C62.3831 10.709 61.694 10.0198 60.8478 10.0198Z" fill="white"/>
<path d="M74.8502 16.3898C74.8502 16.4785 74.824 16.4785 74.7845 16.4785C74.7612 16.4785 74.6931 16.4785 74.5984 16.3453C73.5952 15.1474 72.1595 14.5396 70.339 14.5396C69.2569 14.5396 68.2275 14.7952 67.2766 15.3014C66.3234 15.7921 65.5324 16.5539 64.9271 17.5692C64.3374 18.5818 64.0391 19.8366 64.0391 21.3009C64.0391 22.7648 64.3374 24.02 64.9294 25.0349C65.5348 26.0475 66.3258 26.8173 67.2794 27.326C68.2304 27.8165 69.2598 28.0645 70.3415 28.0645C72.1646 28.0645 73.5976 27.4563 74.6066 26.2537C74.6955 26.1285 74.766 26.1285 74.7898 26.1285C74.8265 26.1285 74.855 26.1285 74.855 26.2172V27.7019H77.2521V10.0647H74.855V16.3898H74.8502ZM73.7866 17.9163C74.5723 18.7146 74.9706 19.8551 74.9706 21.3033C74.9706 22.7514 74.5723 23.9025 73.7842 24.7164C73.0142 25.5147 71.9766 25.9195 70.7008 25.9195C69.4254 25.9195 68.3774 25.5151 67.5941 24.7192C66.824 23.9053 66.4309 22.7543 66.4309 21.3061C66.4309 19.858 66.8212 18.715 67.5916 17.9167C68.3773 17.1028 69.4225 16.6904 70.6984 16.6904C71.9738 16.6904 73.0113 17.1028 73.7818 17.9167L73.7866 17.9163Z" fill="white"/>
<path d="M82.3386 10.0647H79.9414V27.7018H82.3386V10.0647Z" fill="white"/>
<path d="M90.637 12.9449C91.5881 12.3761 92.7068 12.0889 93.9622 12.0889C95.6594 12.0889 96.9588 12.5117 97.8257 13.3413C98.6935 14.1737 99.199 15.3086 99.3244 16.7126L99.3329 16.8065H101.967L101.962 16.697C101.913 15.4916 101.59 14.3457 101.001 13.2868C100.411 12.2249 99.5126 11.356 98.3368 10.7061C97.176 10.0382 95.7437 9.69873 94.0802 9.69873C92.2725 9.69873 90.6614 10.0851 89.2918 10.8498C87.9184 11.5988 86.8419 12.679 86.09 14.0618C85.356 15.4423 84.9844 17.0625 84.9844 18.8786C84.9844 20.6946 85.3484 22.3153 86.0661 23.6952C86.8024 25.078 87.8713 26.1688 89.244 26.9334C90.6136 27.6796 92.2406 28.0607 94.082 28.0607C96.4158 28.0607 98.2629 27.4578 99.5725 26.2656C100.901 25.0729 101.577 23.408 101.577 21.3232V19.4991H92.5205V21.8868H98.9369C98.9125 23.0141 98.525 23.93 97.7817 24.6112C97.0112 25.3155 95.8092 25.6729 94.2084 25.6729C92.8407 25.6729 91.6462 25.3938 90.6642 24.8406C89.6812 24.2717 88.9192 23.4706 88.398 22.4632C87.8898 21.4326 87.6304 20.2272 87.6304 18.8781C87.6304 17.5289 87.895 16.3495 88.4214 15.319C88.9454 14.2936 89.6924 13.4925 90.6426 12.9417L90.637 12.9449Z" fill="white"/>
<path d="M113.174 21.5458C113.174 22.9968 112.838 24.1057 112.181 24.8413C111.542 25.5563 110.601 25.9189 109.391 25.9189C108.322 25.9189 107.5 25.6292 106.939 25.0551C106.378 24.4811 106.093 23.6255 106.093 22.5139V14.905H103.695V22.877C103.695 24.5129 104.164 25.7994 105.089 26.7024C106.011 27.6055 107.295 28.0644 108.906 28.0644C110.648 28.0644 112.003 27.4718 112.916 26.3161L113.037 26.1962C113.063 26.1701 113.09 26.1545 113.108 26.1545C113.163 26.1545 113.174 26.1649 113.174 26.2199V27.7046H115.571V14.9055H113.174V21.5458Z" fill="white"/>
<path d="M120.683 14.905H118.285V27.7013H120.683V14.905Z" fill="white"/>
<path d="M119.479 10.0198C118.633 10.0198 117.941 10.7061 117.941 11.5514V11.648C117.941 12.4909 118.63 13.1797 119.479 13.1797C120.328 13.1797 121.018 12.4933 121.018 11.648V11.5514C121.017 10.709 120.328 10.0198 119.479 10.0198Z" fill="white"/>
<path d="M133.482 16.3898C133.482 16.4785 133.456 16.4785 133.417 16.4785C133.394 16.4785 133.326 16.4785 133.231 16.3453C132.228 15.1474 130.793 14.5396 128.971 14.5396C127.89 14.5396 126.86 14.7952 125.91 15.3014C124.956 15.7921 124.165 16.5539 123.559 17.5692C122.971 18.5818 122.672 19.8366 122.672 21.3009C122.672 22.7648 122.971 24.02 123.562 25.0349C124.168 26.0475 124.959 26.8173 125.912 27.326C126.863 27.8165 127.893 28.0645 128.975 28.0645C130.798 28.0645 132.231 27.4563 133.239 26.2537C133.328 26.1285 133.399 26.1285 133.423 26.1285C133.459 26.1285 133.488 26.1285 133.488 26.2172V27.7019H135.886V10.0647H133.488V16.3898H133.482ZM132.42 17.9163C133.205 18.7146 133.603 19.8551 133.603 21.3033C133.603 22.7514 133.205 23.9025 132.417 24.7164C131.647 25.5147 130.609 25.9195 129.333 25.9195C128.058 25.9195 127.01 25.5151 126.226 24.7192C125.457 23.9053 125.064 22.7543 125.064 21.3061C125.064 19.858 125.454 18.715 126.225 17.9167C127.01 17.1028 128.056 16.6904 129.331 16.6904C130.607 16.6904 131.644 17.1028 132.414 17.9167L132.42 17.9163Z" fill="white"/>
<path d="M140.972 10.0647H138.574V27.7019H140.972V10.0647Z" fill="white"/>
<path d="M23.2749 10.1138V27.73H15.9121V22.5422C15.9121 20.2629 14.0669 18.415 11.7998 18.415C9.53267 18.415 7.68753 20.2629 7.68753 22.5422V27.73H0.355469V10.1138H4.64655V12.6592C4.64655 13.7485 5.52981 14.6293 6.6133 14.6293C7.6968 14.6293 8.58005 13.7485 8.58005 12.6592V10.1138H15.0167V12.6484C15.0167 13.7377 15.9 14.6185 16.9834 14.6185C18.0669 14.6185 18.9502 13.7377 18.9502 12.6484V10.1138H23.2749Z" fill="#7F8CFF"/>
<path d="M10.8008 0.828151V11.7592H12.7142V6.85831C12.7142 6.85831 13.203 5.85181 14.9854 6.29577C17.3441 6.88343 20.25 6.48521 22.1154 3.10595C16.4626 4.96939 16.3111 -1.43425 10.8008 0.828151Z" fill="#7F8CFF"/>
</svg>
