<svg width="160" height="96" viewBox="0 0 160 96" fill="none" xmlns="http://www.w3.org/2000/svg">
<g clip-path="url(#clip0_2333_653)">
<path fill-rule="evenodd" clip-rule="evenodd" d="M43.4743 60.2227L44.9787 53.1513C45.805 53.2481 46.8815 53.3384 48.3795 53.3384C51.8796 53.3384 54.7363 52.3827 56.7212 50.6892C58.7089 48.993 59.8086 46.5681 59.8086 43.662C59.8086 41.6909 59.2823 40.0336 58.2917 38.7433C57.301 37.4531 55.8548 36.5417 54.0351 36.0471C52.9764 35.7586 51.7911 35.6104 50.4931 35.6104C49.1183 35.6104 46.4277 35.9793 44.8054 36.2532L44.7009 36.2704L39.5938 60.2237H43.4735L43.4743 60.2227ZM48.2116 49.7706C47.6845 49.7706 47.2155 49.7624 46.7841 49.7426C46.4036 49.7245 46.0524 49.6973 45.7157 49.6576L47.9043 39.3979C48.6029 39.2985 49.5846 39.1773 50.594 39.1773C51.2167 39.1773 51.7849 39.2279 52.2985 39.3256C53.2873 39.5137 54.0735 39.8762 54.6621 40.3844C55.5519 41.1529 56.0084 42.2741 56.0084 43.6955C56.0084 45.5174 55.3544 47.0283 54.0654 48.087C52.7728 49.1494 50.8236 49.7706 48.2116 49.7706Z" fill="white"/>
<path d="M77.6306 60.2225L82.7858 36.0405H78.9045L73.75 60.2225H77.6315H77.6306Z" fill="white"/>
<path fill-rule="evenodd" clip-rule="evenodd" d="M126.626 44.7733L128.504 36.0408H132.389L128.984 51.8936C128.682 53.2824 128.417 54.8593 128.417 55.7887C128.417 56.1695 128.467 56.4606 128.567 56.6513C128.615 56.7444 128.674 56.8096 128.741 56.8521C128.808 56.8946 128.892 56.9199 129 56.9199C129.142 56.9199 129.317 56.8547 129.523 56.7165C129.728 56.5799 129.948 56.381 130.177 56.1378C130.625 55.6622 131.088 55.0311 131.5 54.4027C131.497 54.324 131.496 54.2445 131.496 54.1631C131.496 51.5699 132.423 48.909 134.031 46.8945C135.64 44.8791 137.937 43.5029 140.678 43.5029C142.578 43.5029 144.098 44.1693 145.141 45.3112C146.184 46.4514 146.739 48.0509 146.739 49.8945C146.739 54.2988 144.098 58.8928 139.968 60.2147C139.211 60.457 138.397 60.589 137.558 60.589C136.718 60.589 135.952 60.4588 135.268 60.2129C134.086 59.7907 133.154 59.0266 132.513 58.0139C131.719 59.0185 130.833 59.7843 129.843 60.2092C129.271 60.4561 128.657 60.589 128.028 60.589C127.399 60.589 126.84 60.4597 126.364 60.2038C125.358 59.6604 124.773 58.5691 124.694 57.0365C123.809 58.4905 122.613 59.6478 121.084 60.2129C120.427 60.4552 119.712 60.5872 118.935 60.5872C118.208 60.5872 117.541 60.4552 116.943 60.2102C115.692 59.6983 114.757 58.7019 114.209 57.4334C113.376 58.8114 112.468 59.7328 111.445 60.2074C110.897 60.4625 110.307 60.5872 109.709 60.5872C109.11 60.5872 108.578 60.4543 108.13 60.202C107.171 59.6622 106.619 58.6044 106.517 57.2491C105.691 58.5826 104.586 59.6686 103.144 60.212C102.5 60.4543 101.794 60.5872 101.018 60.5872C100.295 60.5872 99.623 60.457 99.0174 60.211C98.2635 59.9054 97.673 59.4045 97.2201 58.7797C96.4143 59.5818 95.4709 60.1667 94.4607 60.4805C93.335 60.8296 92.0996 60.8422 90.9454 60.3648C89.7761 59.8802 88.8462 58.9561 88.2539 57.7147C87.9511 57.079 87.6456 56.3241 87.3516 55.5962C87.2695 55.3919 87.1873 55.1893 87.1069 54.9922C86.9282 54.5563 86.7495 54.1296 86.5646 53.7183C86.1466 53.8051 85.7446 53.8637 85.3649 53.8982L84.0133 60.2391H80.0078L85.189 35.9341H89.1955L86.3217 49.4125C88.3432 48.8239 91.1303 47.1584 93.0456 43.0463L96.8387 44.8564C95.069 48.6567 92.6196 50.9868 90.2201 52.3339C90.3934 52.7273 90.5543 53.1143 90.7051 53.4831C90.8052 53.7281 90.8999 53.9615 90.9901 54.1847C91.2742 54.8864 91.5154 55.4849 91.762 56.0004C91.9799 56.457 92.2318 56.6377 92.4212 56.7155C92.6266 56.8005 92.9268 56.8332 93.3207 56.7111C94.1149 56.4642 95.1628 55.5934 95.6809 53.9244L96.0605 52.2417C96.2088 51.1341 96.4885 50.1259 96.8431 49.3836C98.5394 45.8338 101.929 43.4342 105.681 43.4342C106.903 43.4342 108.178 43.7298 109.293 44.1765C110.407 44.6232 111.375 45.2262 111.973 45.852L112.032 45.9134L112.013 45.9966C111.894 46.5228 111.745 47.1648 111.582 47.8691C111.316 49.0102 111.014 50.3158 110.738 51.5645C110.517 52.5735 110.315 53.5419 110.168 54.3502C110.02 55.1631 109.932 55.8023 109.932 56.1595C109.932 56.4289 109.987 56.6215 110.071 56.7426C110.15 56.8565 110.262 56.9172 110.413 56.9172C110.628 56.9172 110.881 56.7987 111.174 56.5248C111.466 56.2527 111.779 55.843 112.112 55.3014C112.775 54.2182 113.5 52.6314 114.268 50.6269C115.684 46.3266 119.32 43.502 122.964 43.502C124.636 43.502 125.801 44.0029 126.63 44.7715L126.626 44.7733ZM107.072 50.5031L107.783 47.4975C107.121 47.1024 106.369 46.8348 105.411 46.8348C103.744 46.8348 102.276 47.766 101.219 49.154C100.162 50.5418 99.5284 52.372 99.5284 54.1314C99.5284 55.0229 99.741 55.7462 100.128 56.2435C100.511 56.7364 101.076 57.0221 101.822 57.0221C102.938 57.0221 104.005 56.4516 104.919 55.3466C105.833 54.2399 106.589 52.6052 107.072 50.5039V50.5031ZM125.76 48.7109L125.943 47.8257C125.27 47.2995 124.354 46.9035 123.162 46.9035C121.564 46.9035 120.154 47.8085 119.138 49.1739C118.123 50.54 117.512 52.3529 117.512 54.1314C117.512 55.0582 117.726 55.7815 118.1 56.2707C118.471 56.7544 119.012 57.0229 119.706 57.0229C120.978 57.0229 122.22 56.2038 123.288 54.7372C124.353 53.2734 125.227 51.1875 125.76 48.7118V48.7109ZM135.976 56.1468C136.388 56.684 137.028 57.0211 137.959 57.0211C139.296 57.0211 140.521 56.135 141.421 54.8114C142.318 53.4903 142.87 51.7598 142.87 50.1332C142.87 49.2561 142.672 48.4903 142.257 47.9469C141.846 47.4098 141.206 47.0716 140.274 47.0716C138.937 47.0716 137.712 47.9659 136.813 49.2941C135.916 50.6196 135.364 52.3511 135.364 53.9615C135.364 54.8386 135.561 55.6034 135.976 56.1468Z" fill="white"/>
<path d="M159.923 55.6706L159.833 55.8025C159.122 56.8549 158.154 58.0286 157.494 58.6172C156.956 59.1001 156.337 59.5485 155.655 59.8958C154.831 60.3171 153.912 60.5884 152.93 60.5884C152.094 60.5884 151.372 60.4382 150.763 60.1597C149.112 59.4047 148.344 57.7275 148.344 55.6877C148.344 54.8803 148.435 54.0937 148.538 53.4761V53.4707L148.541 53.4572C148.578 53.241 148.614 53.0448 148.65 52.8767L149.851 47.241H147.195L147.919 43.8431H150.556L151.963 37.3149H155.846L154.431 43.8431H159.134L158.412 47.241H153.694L152.478 53.0095C152.476 53.0221 152.474 53.0339 152.471 53.0457V53.0502L152.47 53.052C152.467 53.0656 152.466 53.0783 152.463 53.0918H152.462L152.46 53.1045C152.301 53.9156 152.179 54.6453 152.179 55.2473C152.179 55.8053 152.293 56.2347 152.494 56.5196C152.69 56.7981 152.978 56.9535 153.366 56.9535C153.81 56.9535 154.214 56.7927 154.668 56.4662C155.123 56.137 155.617 55.6479 156.239 55.0041C156.287 54.9491 156.592 54.5756 156.921 54.1705L157.187 53.845L159.923 55.6706Z" fill="white"/>
<path fill-rule="evenodd" clip-rule="evenodd" d="M67.8377 43.5039C65.0979 43.5039 62.7994 44.8792 61.1906 46.8954C59.5826 48.9099 58.6562 51.57 58.6562 54.164C58.6562 57.0655 60.0088 59.3495 62.4305 60.2148C63.1138 60.4598 63.8785 60.5891 64.7174 60.5891C65.5562 60.5891 66.3673 60.458 67.1231 60.2166C71.2556 58.8975 73.8997 54.3015 73.8997 49.8955C73.8997 48.0519 73.3441 46.4523 72.3015 45.3123C71.2574 44.1712 69.7378 43.5039 67.8377 43.5039ZM65.1202 57.0212C64.1894 57.0212 63.5498 56.6831 63.1381 56.1469C62.7217 55.6035 62.5252 54.8386 62.5252 53.9616C62.5252 52.3512 63.0773 50.6207 63.9742 49.2941C64.8737 47.966 66.0985 47.0717 67.4358 47.0717C68.3674 47.0717 69.007 47.4099 69.4179 47.947C69.8342 48.4904 70.0308 49.2562 70.0308 50.1333C70.0308 51.7599 69.4787 53.4904 68.5818 54.8115C67.6831 56.1351 66.4575 57.0212 65.1202 57.0212Z" fill="white"/>
<path d="M17.6186 38.2525C20.9548 38.2525 23.6592 36.6596 23.6592 34.6946C23.6592 32.7297 20.9548 31.1367 17.6186 31.1367C14.2826 31.1367 11.5781 32.7297 11.5781 34.6946C11.5781 36.6596 14.2826 38.2525 17.6186 38.2525Z" fill="white"/>
<path d="M17.6186 65.0465C20.9548 65.0465 23.6592 63.4536 23.6592 61.4886C23.6592 59.5236 20.9548 57.9307 17.6186 57.9307C14.2826 57.9307 11.5781 59.5236 11.5781 61.4886C11.5781 63.4536 14.2826 65.0465 17.6186 65.0465Z" fill="white"/>
<path d="M9.19839 43.1718C10.8664 40.2475 10.8561 37.0806 9.17522 36.0984C7.49436 35.1161 4.77953 36.6905 3.11147 39.6148C1.44341 42.539 1.4538 45.7059 3.13465 46.6881C4.81551 47.6704 7.53034 46.096 9.19839 43.1718Z" fill="white"/>
<path d="M32.1255 56.5688C33.7936 53.6445 33.7828 50.4775 32.1015 49.495C30.4203 48.5125 27.7051 50.0866 26.037 53.0109C24.3689 55.9352 24.3797 59.1022 26.061 60.0848C27.7422 61.0672 30.4574 59.4931 32.1255 56.5688Z" fill="white"/>
<path d="M9.17576 60.0857C10.857 59.1033 10.8678 55.9362 9.19972 53.0119C7.53165 50.0876 4.81648 48.5135 3.13519 49.496C1.45392 50.4785 1.44319 53.6456 3.11125 56.5699C4.7793 59.4942 7.49449 61.0683 9.17576 60.0857Z" fill="white"/>
<path d="M32.1015 46.6873C33.7829 45.7049 33.7936 42.5378 32.1255 39.6135C30.4575 36.6892 27.7422 35.1151 26.061 36.0975C24.3797 37.08 24.3689 40.2471 26.037 43.1714C27.7051 46.0957 30.4203 47.6699 32.1015 46.6873Z" fill="white"/>
</g>
<defs>
<clipPath id="clip0_2333_653">
<rect width="160" height="34.0484" fill="white" transform="translate(0 31)"/>
</clipPath>
</defs>
</svg>
