<svg width="160" height="96" viewBox="0 0 160 96" fill="none" xmlns="http://www.w3.org/2000/svg">
<path d="M28.9656 62.541V76.3212L12.0586 51.7717L28.9656 62.541Z" fill="url(#paint0_linear_1266_913)"/>
<path d="M45.7558 51.7717L28.9648 76.3212V62.541L45.7558 51.7717Z" fill="url(#paint1_linear_1266_913)"/>
<path d="M45.7558 48.2975L28.9648 38.6863V59.0668L45.7558 48.2975Z" fill="url(#paint2_linear_1266_913)"/>
<path d="M45.7558 48.2974L28.9648 19V38.6862L45.7558 48.2974Z" fill="url(#paint3_linear_1266_913)"/>
<path d="M28.9656 19V38.6862L12.0586 48.2974L28.9656 19Z" fill="url(#paint4_linear_1266_913)"/>
<path d="M28.9656 38.6863V59.0668L12.0586 48.2975L28.9656 38.6863Z" fill="url(#paint5_linear_1266_913)"/>
<path d="M54.1016 29.4495C54.1016 28.4895 54.2982 27.639 54.6914 26.8984C55.0847 26.1582 55.6341 25.5857 56.34 25.1805C57.0455 24.7757 57.8613 24.5732 58.787 24.5732C59.6776 24.5732 60.4731 24.7814 61.1733 25.1982C61.873 25.6146 62.4199 26.199 62.8131 26.9508C63.2064 27.703 63.403 28.5589 63.403 29.5193V30.248H56.5829C56.6176 30.8266 56.8374 31.2951 57.2425 31.6536C57.6474 32.0125 58.1794 32.1914 58.839 32.1914C59.3017 32.1914 59.7296 32.0902 60.1233 31.8878C60.5165 31.6854 60.9445 31.3355 61.4075 30.8382L62.9519 32.4174C62.4195 33.0076 61.8065 33.4674 61.1125 33.797C60.4186 34.1266 59.6602 34.2915 58.839 34.2915C57.9018 34.2915 57.0748 34.0887 56.3574 33.6839C55.6399 33.279 55.0847 32.7094 54.6914 31.9746C54.2982 31.2401 54.1016 30.3983 54.1016 29.4495ZM60.9043 28.4429C60.8581 27.934 60.6354 27.5118 60.236 27.176C59.837 26.8406 59.3537 26.6729 58.787 26.6729C58.1971 26.6729 57.711 26.8348 57.3293 27.1587C56.9476 27.4825 56.7105 27.9108 56.618 28.4429H60.9043Z" fill="white"/>
<path d="M64.9805 29.432C64.9805 28.4836 65.1771 27.6418 65.5704 26.907C65.9636 26.1725 66.5163 25.5996 67.2276 25.189C67.9389 24.7784 68.7518 24.5728 69.6659 24.5728C70.7419 24.5728 71.6672 24.8677 72.4425 25.4579C73.2175 26.0478 73.7441 26.8405 74.0217 27.8355L71.6271 28.4948C71.5114 27.9859 71.2913 27.5836 70.9675 27.2887C70.6436 26.9937 70.2095 26.8463 69.6659 26.8463C68.9719 26.8463 68.4308 27.0747 68.0434 27.5316C67.6555 27.9888 67.4622 28.622 67.4622 29.4317C67.4622 30.2413 67.6559 30.8749 68.0434 31.3318C68.4308 31.789 68.9719 32.0171 69.6659 32.0171C70.2095 32.0171 70.6432 31.8696 70.9675 31.5747C71.2913 31.2798 71.5111 30.8778 71.6271 30.3685L74.0217 31.0278C73.7441 32.0229 73.2175 32.8152 72.4425 33.4054C71.6672 33.9953 70.7419 34.2906 69.6659 34.2906C68.7518 34.2906 67.9393 34.0849 67.2276 33.6743C66.5159 33.2637 65.9632 32.6912 65.5704 31.9564C65.1771 31.2219 64.9805 30.3801 64.9805 29.4313V29.432Z" fill="white"/>
<path d="M75.5156 29.432C75.5156 28.4836 75.7122 27.6418 76.1055 26.907C76.4988 26.1725 77.0514 25.5996 77.7627 25.189C78.4741 24.7784 79.287 24.5728 80.2011 24.5728C81.1264 24.5728 81.945 24.7784 82.6564 25.189C83.368 25.5996 83.9203 26.1725 84.3136 26.907C84.7068 27.6418 84.9038 28.4836 84.9038 29.432C84.9038 30.3805 84.7068 31.2226 84.3136 31.9571C83.9203 32.6919 83.368 33.2645 82.6564 33.6751C81.9447 34.0857 81.1264 34.2913 80.2011 34.2913C79.287 34.2913 78.4744 34.0857 77.7627 33.6751C77.051 33.2645 76.4984 32.6919 76.1055 31.9571C75.7122 31.2226 75.5156 30.3808 75.5156 29.432ZM82.4221 29.432C82.4221 28.6224 82.2284 27.9888 81.8409 27.5319C81.4535 27.075 80.9066 26.8466 80.2011 26.8466C79.5071 26.8466 78.966 27.075 78.5785 27.5319C78.1907 27.9891 77.9973 28.6224 77.9973 29.432C77.9973 30.2417 78.1911 30.8753 78.5785 31.3322C78.966 31.7894 79.5071 32.0175 80.2011 32.0175C80.895 32.0175 81.4386 31.7861 81.8323 31.3235C82.2255 30.8608 82.4221 30.2301 82.4221 29.432Z" fill="white"/>
<path d="M86.293 30.994L88.5491 30.4735C88.7107 31.0522 89.0031 31.4946 89.4253 31.8011C89.8478 32.1076 90.3824 32.2608 91.0304 32.2608C91.6091 32.2608 92.0512 32.1914 92.358 32.0527C92.6645 31.9139 92.8178 31.7172 92.8178 31.4624C92.8178 31.1736 92.6617 30.9506 92.3494 30.7945C92.0371 30.6383 91.4642 30.4793 90.631 30.3173C89.2662 30.0629 88.291 29.7098 87.7069 29.2587C87.1229 28.8072 86.8304 28.1888 86.8304 27.4019C86.8304 26.8464 86.9924 26.3552 87.3166 25.9269C87.6404 25.4989 88.0944 25.1664 88.6789 24.9289C89.263 24.6918 89.9313 24.5732 90.6835 24.5732C91.7132 24.5732 92.627 24.8281 93.4254 25.3366C94.2235 25.8459 94.7613 26.5229 95.0392 27.3672L92.9049 28.0612C92.7314 27.5985 92.4506 27.24 92.0631 26.9852C91.6756 26.7307 91.2101 26.6031 90.6665 26.6031C90.215 26.6031 89.8565 26.6758 89.5904 26.8204C89.3241 26.9649 89.1914 27.1648 89.1914 27.4189C89.1914 27.6506 89.3389 27.8385 89.6338 27.9831C89.9288 28.1277 90.4641 28.2694 91.239 28.4082C92.6505 28.6742 93.66 29.0414 94.2672 29.5099C94.8748 29.9783 95.1784 30.6293 95.1784 31.4621C95.1784 32.0292 95.0074 32.5265 94.6666 32.9545C94.3254 33.3828 93.8392 33.7124 93.2089 33.9434C92.5782 34.1747 91.8524 34.2904 91.0312 34.2904C89.7816 34.2904 88.7432 34.0012 87.9162 33.4229C87.0889 32.8442 86.5481 32.0346 86.2937 30.9933L86.293 30.994Z" fill="white"/>
<path d="M100.037 33.6665L96.375 24.8335H98.9781L101.269 30.7164H101.304L103.577 24.8335H106.18L100.835 37.9356H98.2495L100.037 33.6665Z" fill="white"/>
<path d="M106.664 30.994L108.92 30.4735C109.082 31.0522 109.374 31.4946 109.796 31.8011C110.219 32.1076 110.753 32.2608 111.402 32.2608C111.98 32.2608 112.422 32.1914 112.729 32.0527C113.036 31.9139 113.189 31.7172 113.189 31.4624C113.189 31.1736 113.033 30.9506 112.72 30.7945C112.408 30.6383 111.835 30.4793 111.002 30.3173C109.637 30.0629 108.662 29.7098 108.078 29.2587C107.494 28.8072 107.202 28.1888 107.202 27.4019C107.202 26.8464 107.363 26.3552 107.688 25.9269C108.012 25.4989 108.466 25.1664 109.05 24.9289C109.634 24.6918 110.302 24.5732 111.055 24.5732C112.084 24.5732 112.998 24.8281 113.796 25.3366C114.595 25.8459 115.132 26.5229 115.41 27.3672L113.276 28.0612C113.103 27.5985 112.822 27.24 112.434 26.9852C112.047 26.7307 111.581 26.6031 111.038 26.6031C110.586 26.6031 110.228 26.6758 109.962 26.8204C109.695 26.9649 109.562 27.1648 109.562 27.4189C109.562 27.6506 109.71 27.8385 110.005 27.9831C110.3 28.1277 110.835 28.2694 111.61 28.4082C113.022 28.6742 114.031 29.0414 114.638 29.5099C115.246 29.9783 115.549 30.6293 115.549 31.4621C115.549 32.0292 115.379 32.5265 115.038 32.9545C114.696 33.3828 114.21 33.7124 113.58 33.9434C112.949 34.1747 112.223 34.2904 111.402 34.2904C110.153 34.2904 109.114 34.0012 108.287 33.4229C107.46 32.8442 106.919 32.0346 106.665 30.9933L106.664 30.994Z" fill="white"/>
<path d="M121.519 27.0545V30.751C121.519 31.0633 121.591 31.2888 121.736 31.428C121.88 31.5668 122.12 31.6362 122.456 31.6362H124.556V34.0307H122.23C121.212 34.0307 120.425 33.7907 119.87 33.3104C119.315 32.8304 119.037 32.1451 119.037 31.2541V27.0545H116.781V24.833H119.037V22.4905H121.519V24.833H125.128V27.0545H121.519Z" fill="white"/>
<path d="M126.797 29.4495C126.797 28.4895 126.994 27.639 127.387 26.8984C127.78 26.1582 128.33 25.5857 129.036 25.1805C129.741 24.7757 130.557 24.5732 131.483 24.5732C132.374 24.5732 133.169 24.7814 133.869 25.1982C134.569 25.6149 135.116 26.199 135.509 26.9508C135.902 27.703 136.099 28.5589 136.099 29.5193V30.248H129.279C129.314 30.8266 129.533 31.2951 129.939 31.6536C130.343 32.0125 130.876 32.1914 131.535 32.1914C131.997 32.1914 132.426 32.0902 132.819 31.8878C133.213 31.6854 133.641 31.3355 134.104 30.8382L135.648 32.4174C135.116 33.0076 134.503 33.4674 133.808 33.797C133.114 34.1266 132.356 34.2915 131.535 34.2915C130.598 34.2915 129.77 34.0887 129.053 33.6839C128.336 33.279 127.781 32.7094 127.388 31.9746C126.994 31.2401 126.798 30.3983 126.798 29.4495H126.797ZM133.599 28.4429C133.553 27.934 133.33 27.5118 132.931 27.176C132.532 26.8406 132.049 26.6729 131.482 26.6729C130.892 26.6729 130.406 26.8348 130.025 27.1587C129.643 27.4825 129.405 27.9108 129.313 28.4429H133.599H133.599Z" fill="white"/>
<path d="M137.762 24.8333H139.948V25.6314H139.983C140.18 25.3191 140.431 25.0791 140.738 24.911C141.044 24.7436 141.383 24.6594 141.753 24.6594C142.482 24.6594 143.066 25.0006 143.506 25.6834H143.541C144.004 25.001 144.64 24.6594 145.45 24.6594C146.121 24.6594 146.665 24.8965 147.081 25.3708C147.498 25.8453 147.706 26.4641 147.706 27.2275V34.0303H145.415V27.662C145.415 27.3959 145.346 27.1935 145.207 27.0547C145.068 26.9159 144.871 26.8465 144.617 26.8465C144.374 26.8465 144.18 26.9246 144.036 27.0808C143.891 27.2369 143.819 27.4483 143.819 27.714V34.031H141.649V27.662C141.649 27.4075 141.583 27.2083 141.45 27.0634C141.317 26.9188 141.129 26.8465 140.886 26.8465C140.631 26.8465 140.428 26.9246 140.278 27.0808C140.128 27.2369 140.053 27.4483 140.053 27.714V34.031H137.762V24.8333H137.762Z" fill="white"/>
<path d="M54.3441 49.7891L56.5999 49.2687C56.7618 49.8477 57.0539 50.2897 57.4764 50.5963C57.8986 50.9031 58.4335 51.056 59.0816 51.056C59.6599 51.056 60.1027 50.987 60.4092 50.8478C60.7157 50.709 60.8689 50.5124 60.8689 50.2579C60.8689 49.9688 60.7128 49.7458 60.4005 49.5896C60.0882 49.4331 59.5157 49.2744 58.6826 49.1125C57.3174 48.8581 56.3425 48.5049 55.7585 48.0538C55.1744 47.6028 54.8823 46.984 54.8823 46.1971C54.8823 45.6415 55.0442 45.1503 55.3681 44.722C55.6919 44.2941 56.1459 43.9615 56.7304 43.7241C57.3145 43.487 57.9824 43.3684 58.7346 43.3684C59.764 43.3684 60.6781 43.6232 61.4765 44.1318C62.2746 44.6411 62.8128 45.3181 63.0904 46.1624L60.9561 46.8567C60.7826 46.3941 60.5017 46.0352 60.1142 45.7807C59.7264 45.5262 59.2609 45.3987 58.7173 45.3987C58.2662 45.3987 57.9073 45.4713 57.6412 45.6159C57.3748 45.7605 57.2422 45.9603 57.2422 46.2144C57.2422 46.4461 57.3897 46.6341 57.6846 46.7783C57.9795 46.9229 58.5145 47.0646 59.2898 47.2037C60.7012 47.4697 61.7108 47.837 62.318 48.3058C62.9252 48.7742 63.2292 49.4252 63.2292 50.2579C63.2292 50.8247 63.0582 51.3224 62.717 51.7504C62.3758 52.1787 61.8897 52.5083 61.2593 52.7393C60.6286 52.9706 59.9028 53.0863 59.0812 53.0863C57.8317 53.0863 56.7933 52.7975 55.9663 52.2188C55.1389 51.6405 54.5986 50.8305 54.3441 49.7891Z" fill="white"/>
<path d="M64.8086 49.7024V43.6287H67.2903V49.1299C67.2903 50.2522 67.8455 50.8131 68.9562 50.8131C69.4535 50.8131 69.85 50.6599 70.145 50.3534C70.4399 50.0469 70.5874 49.6392 70.5874 49.1299V43.6287H73.0691V52.826H70.6915V52.0102H70.6568C70.402 52.3341 70.0521 52.5947 69.6068 52.7913C69.1611 52.988 68.6956 53.0859 68.2098 53.0859C67.1222 53.0859 66.2837 52.7884 65.6938 52.1924C65.1039 51.5964 64.8086 50.7665 64.8086 49.7017V49.7024Z" fill="white"/>
<path d="M75.864 43.6285H78.2416V44.4266H78.2763C78.9587 43.7211 79.8208 43.3679 80.8621 43.3679C81.6714 43.3679 82.3979 43.5707 83.0398 43.9752C83.6817 44.3803 84.182 44.95 84.5405 45.6844C84.8991 46.4193 85.0787 47.2665 85.0787 48.2265C85.0787 49.1525 84.8991 49.9853 84.5405 50.7255C84.182 51.4661 83.6785 52.0444 83.0308 52.4612C82.3827 52.8772 81.6482 53.0858 80.8267 53.0858C80.3062 53.0858 79.8377 53.0048 79.421 52.8429C79.0046 52.6813 78.6576 52.4612 78.3797 52.1836H78.345V56.7302H75.8633V43.6282L75.864 43.6285ZM82.597 48.2272C82.597 47.4407 82.4 46.8132 82.0068 46.3444C81.6135 45.876 81.0699 45.6418 80.3756 45.6418C79.8204 45.6418 79.3433 45.8359 78.9439 46.223C78.5449 46.6108 78.3453 47.0821 78.3453 47.6373V48.8344C78.3453 49.1818 78.4379 49.5053 78.6229 49.806C78.808 50.1071 79.0653 50.35 79.395 50.535C79.725 50.7205 80.0918 50.813 80.497 50.813C81.1447 50.813 81.6569 50.5788 82.0328 50.1103C82.4087 49.6415 82.597 49.0144 82.597 48.2272Z" fill="white"/>
<path d="M86.7429 43.6285H89.1205V44.4266H89.1552C89.838 43.7211 90.6997 43.3679 91.741 43.3679C92.5503 43.3679 93.2768 43.5707 93.9187 43.9752C94.5606 44.3803 95.0609 44.95 95.4194 45.6844C95.778 46.4193 95.9576 47.2665 95.9576 48.2265C95.9576 49.1525 95.778 49.9853 95.4194 50.7255C95.0609 51.4661 94.5574 52.0444 93.9097 52.4612C93.2616 52.8772 92.5271 53.0858 91.7056 53.0858C91.1851 53.0858 90.7167 53.0048 90.2999 52.8429C89.8835 52.6813 89.5365 52.4612 89.2586 52.1836H89.2239V56.7302H86.7422V43.6282L86.7429 43.6285ZM93.4763 48.2272C93.4763 47.4407 93.2793 46.8132 92.8861 46.3444C92.4928 45.876 91.9492 45.6418 91.2548 45.6418C90.6997 45.6418 90.2226 45.8359 89.8232 46.223C89.4241 46.6108 89.2246 47.0821 89.2246 47.6373V48.8344C89.2246 49.1818 89.3171 49.5053 89.5022 49.806C89.6873 50.1071 89.945 50.35 90.2746 50.535C90.6042 50.7205 90.9715 50.813 91.3767 50.813C92.0244 50.813 92.5365 50.5788 92.9124 50.1103C93.2883 49.6415 93.4767 49.0144 93.4767 48.2272H93.4763Z" fill="white"/>
<path d="M97.625 48.2273C97.625 47.2789 97.8216 46.4374 98.2152 45.7026C98.6081 44.9682 99.1608 44.3953 99.8725 43.9847C100.584 43.5741 101.397 43.3684 102.31 43.3684C103.236 43.3684 104.054 43.5741 104.766 43.9847C105.478 44.3953 106.03 44.9682 106.423 45.7026C106.817 46.4374 107.014 47.2789 107.014 48.2273C107.014 49.1758 106.817 50.0179 106.423 50.7524C106.03 51.4872 105.478 52.0597 104.766 52.4704C104.054 52.881 103.236 53.0863 102.31 53.0863C101.397 53.0863 100.584 52.881 99.8725 52.4704C99.1608 52.0597 98.6081 51.4872 98.2152 50.7524C97.8216 50.0179 97.625 49.1761 97.625 48.2273ZM104.532 48.2273C104.532 47.4181 104.338 46.7844 103.95 46.3272C103.563 45.8703 103.016 45.6419 102.31 45.6419C101.616 45.6419 101.075 45.8703 100.688 46.3272C100.3 46.7844 100.107 47.4181 100.107 48.2273C100.107 49.0366 100.3 49.671 100.688 50.1278C101.075 50.585 101.616 50.8131 102.31 50.8131C103.004 50.8131 103.548 50.5818 103.942 50.1188C104.335 49.6565 104.532 49.0258 104.532 48.2273H104.532Z" fill="white"/>
<path d="M108.922 43.6287H111.299V44.4791H111.334C111.727 44.0859 112.136 43.8021 112.558 43.6287C112.98 43.4552 113.463 43.3684 114.007 43.3684C114.805 43.3684 115.493 43.6026 116.072 44.0711C116.651 44.5395 117.056 45.1789 117.287 45.9889L114.961 46.7526C114.695 46.0005 114.146 45.6246 113.312 45.6246C112.687 45.6246 112.213 45.8067 111.889 46.1711C111.566 46.5354 111.403 47.036 111.403 47.6722V52.8264H108.922V43.629L108.922 43.6287Z" fill="white"/>
<path d="M123.253 45.8498V49.5463C123.253 49.8586 123.325 50.0841 123.47 50.2229C123.615 50.3621 123.855 50.4311 124.19 50.4311H126.29V52.826H123.965C122.947 52.826 122.16 52.586 121.605 52.106C121.049 51.626 120.771 50.9404 120.771 50.0498V45.8501H118.516V43.6287H120.771V41.2861H123.253V43.6287H126.863V45.8501H123.253V45.8498Z" fill="white"/>
<path d="M54.4492 62.4237H56.8268V63.2221H56.8615C57.5439 62.5166 58.406 62.1631 59.4473 62.1631C60.2569 62.1631 60.9831 62.3659 61.625 62.7707C62.2673 63.1759 62.7675 63.7455 63.1261 64.48C63.4847 65.2148 63.6639 66.062 63.6639 67.022C63.6639 67.948 63.4843 68.7808 63.1261 69.521C62.7672 70.2617 62.2641 70.84 61.6163 71.2567C60.9683 71.6727 60.2338 71.8813 59.4126 71.8813C58.8921 71.8813 58.4233 71.8003 58.0069 71.6384C57.5905 71.4768 57.2436 71.2567 56.9656 70.9791H56.9309V75.5258H54.4492V62.4237ZM61.1822 67.0224C61.1822 66.2359 60.9856 65.6084 60.5924 65.1396C60.1991 64.6712 59.6551 64.4369 58.9612 64.4369C58.406 64.4369 57.9289 64.6307 57.5295 65.0182C57.1304 65.406 56.9309 65.8773 56.9309 66.4325V67.6296C56.9309 67.977 57.0234 68.3004 57.2085 68.6012C57.3936 68.9023 57.6509 69.1451 57.9805 69.3302C58.3105 69.5156 58.6774 69.6082 59.0826 69.6082C59.7303 69.6082 60.2421 69.3739 60.6184 68.9055C60.9943 68.4367 61.1822 67.8096 61.1822 67.0224Z" fill="white"/>
<path d="M65.3984 62.4237H67.776V63.2742H67.8107C68.204 62.8809 68.6117 62.5975 69.0342 62.4237C69.4564 62.2502 69.9393 62.1631 70.4833 62.1631C71.2813 62.1631 71.9699 62.3973 72.5482 62.8661C73.1269 63.3345 73.5313 63.9736 73.763 64.7836L71.4375 65.5473C71.1715 64.7951 70.6221 64.4192 69.7889 64.4192C69.164 64.4192 68.6898 64.6014 68.3659 64.9661C68.0421 65.3304 67.8801 65.831 67.8801 66.4668V71.6211H65.3984V62.4237Z" fill="white"/>
<path d="M74.8203 67.0225C74.8203 66.0741 75.0169 65.2326 75.4102 64.4978C75.8034 63.7633 76.3561 63.1908 77.0674 62.7798C77.7787 62.3692 78.5916 62.1636 79.5057 62.1636C80.431 62.1636 81.2497 62.3692 81.9614 62.7798C82.6731 63.1908 83.225 63.7633 83.6183 64.4978C84.0115 65.2326 84.2085 66.0741 84.2085 67.0225C84.2085 67.9709 84.0115 68.8131 83.6183 69.5476C83.225 70.2824 82.6731 70.8549 81.9614 71.2655C81.2497 71.6761 80.431 71.8814 79.5057 71.8814C78.5916 71.8814 77.7791 71.6761 77.0674 71.2655C76.3557 70.8549 75.8031 70.2824 75.4102 69.5476C75.0169 68.8131 74.8203 67.9713 74.8203 67.0225ZM81.7272 67.0225C81.7272 66.2132 81.5331 65.5796 81.1456 65.1224C80.7582 64.6655 80.2116 64.4371 79.5061 64.4371C78.8121 64.4371 78.271 64.6659 77.8836 65.1224C77.4957 65.5796 77.3024 66.2132 77.3024 67.0225C77.3024 67.8318 77.4961 68.4661 77.8836 68.923C78.271 69.3802 78.8121 69.6083 79.5061 69.6083C80.2001 69.6083 80.7441 69.377 81.1373 68.9139C81.5306 68.4517 81.7276 67.8209 81.7276 67.0225H81.7272Z" fill="white"/>
<path d="M86.3772 73.6686L88.2687 72.2286C88.6157 72.726 88.9656 73.0759 89.3183 73.2783C89.6715 73.4807 90.1081 73.5823 90.6286 73.5823C91.2766 73.5823 91.7913 73.4026 92.173 73.0441C92.5547 72.6855 92.7456 72.1882 92.7456 71.5517V70.8924H92.7109C92.3751 71.2394 92.0194 71.4909 91.6439 71.6474C91.2676 71.8036 90.8133 71.8813 90.2812 71.8813C89.4481 71.8813 88.7107 71.676 88.0688 71.2654C87.4269 70.8548 86.9292 70.2823 86.5764 69.5474C86.2229 68.813 86.0469 67.9712 86.0469 67.0224C86.0469 66.0855 86.229 65.2498 86.5937 64.5147C86.9581 63.7802 87.4612 63.2044 88.1035 62.788C88.7458 62.3716 89.4774 62.1631 90.2986 62.1631C90.8191 62.1631 91.2647 62.2386 91.6348 62.389C92.005 62.5394 92.3465 62.7707 92.6588 63.083H92.6935V62.4237H95.0885V71.6558C95.0885 72.4654 94.9001 73.1832 94.5242 73.8078C94.148 74.4327 93.6246 74.9182 92.9534 75.2652C92.2825 75.6125 91.5072 75.7856 90.6278 75.7856C88.8231 75.7856 87.4059 75.0801 86.3762 73.6686H86.3772ZM92.6071 67.6123V66.4151C92.6071 65.8137 92.4217 65.3333 92.0519 64.9748C91.6818 64.6166 91.2072 64.4369 90.6286 64.4369C89.9805 64.4369 89.4687 64.6686 89.0928 65.1313C88.7169 65.5939 88.5289 66.2243 88.5289 67.0224C88.5289 67.798 88.7194 68.4226 89.1015 68.8968C89.4835 69.3714 89.9863 69.6085 90.6112 69.6085C90.9586 69.6085 91.285 69.5189 91.5918 69.3396C91.8983 69.1603 92.1441 68.9174 92.3292 68.6106C92.5142 68.3041 92.6071 67.9708 92.6071 67.6123Z" fill="white"/>
<path d="M97.6918 62.4237H100.069V63.2742H100.104C100.497 62.8809 100.905 62.5975 101.327 62.4237C101.75 62.2502 102.233 62.1631 102.777 62.1631C103.575 62.1631 104.263 62.3973 104.842 62.8661C105.42 63.3345 105.825 63.9736 106.056 64.7836L103.731 65.5473C103.464 64.7951 102.915 64.4192 102.082 64.4192C101.457 64.4192 100.983 64.6014 100.659 64.9661C100.335 65.3304 100.173 65.831 100.173 66.4668V71.6211H97.6914L97.6918 62.4237Z" fill="white"/>
<path d="M107.342 69.1572C107.342 68.3009 107.635 67.6359 108.219 67.1617C108.803 66.6874 109.778 66.3404 111.143 66.1203C111.86 66.005 112.349 65.8745 112.61 65.73C112.87 65.5854 113 65.3913 113 65.1488C113 64.8708 112.873 64.6514 112.618 64.4891C112.364 64.3276 112.017 64.2462 111.577 64.2462C111.079 64.2462 110.649 64.397 110.284 64.6973C109.92 64.9984 109.686 65.3978 109.582 65.8948L107.273 65.3743C107.389 64.7494 107.649 64.1942 108.054 63.7084C108.459 63.2226 108.968 62.8435 109.582 62.5716C110.195 62.2998 110.86 62.1636 111.577 62.1636C112.757 62.1636 113.7 62.4936 114.405 63.1529C115.111 63.8121 115.464 64.6915 115.464 65.7907V71.6215H113.243V70.5976H113.208C112.942 71.0027 112.569 71.3179 112.089 71.5435C111.608 71.769 111.068 71.8818 110.466 71.8818C109.865 71.8818 109.326 71.7661 108.852 71.5348C108.378 71.3035 108.008 70.9796 107.742 70.5632C107.475 70.1468 107.342 69.678 107.342 69.1572ZM113.104 68.2026V67.1613H113.069C112.965 67.3344 112.791 67.4736 112.549 67.5777C112.305 67.6818 111.924 67.7859 111.403 67.89C110.755 68.0288 110.31 68.1762 110.067 68.3324C109.824 68.4889 109.703 68.7054 109.703 68.9833C109.703 69.2494 109.809 69.4518 110.024 69.5909C110.238 69.7297 110.547 69.7991 110.952 69.7991C111.322 69.7991 111.675 69.7268 112.011 69.5819C112.346 69.4377 112.612 69.2411 112.809 68.992C113.006 68.7433 113.104 68.4802 113.104 68.2026Z" fill="white"/>
<path d="M117.738 62.4237H119.925V63.2222H119.96C120.156 62.9099 120.408 62.6699 120.714 62.5018C121.021 62.3341 121.359 62.2502 121.73 62.2502C122.459 62.2502 123.043 62.5914 123.483 63.2742H123.517C123.98 62.5914 124.617 62.2502 125.426 62.2502C126.097 62.2502 126.641 62.4874 127.058 62.9619C127.475 63.4365 127.683 64.0549 127.683 64.819V71.6215H125.392V65.2528C125.392 64.9868 125.323 64.784 125.184 64.6452C125.045 64.5064 124.848 64.437 124.593 64.437C124.351 64.437 124.157 64.5151 124.012 64.6712C123.868 64.8274 123.795 65.0388 123.795 65.3045V71.6215H121.626V65.2528C121.626 64.9983 121.559 64.7988 121.426 64.6542C121.293 64.5096 121.105 64.437 120.862 64.437C120.608 64.437 120.405 64.5151 120.255 64.6712C120.104 64.8274 120.029 65.0388 120.029 65.3045V71.6215H117.739V62.4241L117.738 62.4237Z" fill="white"/>
<defs>
<linearGradient id="paint0_linear_1266_913" x1="11.6823" y1="52.148" x2="32.4106" y2="72.8762" gradientUnits="userSpaceOnUse">
<stop stop-color="#F47D51"/>
<stop offset="0.96" stop-color="#DF72AC"/>
</linearGradient>
<linearGradient id="paint1_linear_1266_913" x1="32.3603" y1="59.0466" x2="39.3065" y2="65.9928" gradientUnits="userSpaceOnUse">
<stop stop-color="#F15D4C"/>
<stop offset="1" stop-color="#C36CA1"/>
</linearGradient>
<linearGradient id="paint2_linear_1266_913" x1="25.646" y1="41.9682" x2="37.4664" y2="53.7886" gradientUnits="userSpaceOnUse">
<stop stop-color="#B46947"/>
<stop offset="0.896" stop-color="#AE5262"/>
</linearGradient>
<linearGradient id="paint3_linear_1266_913" x1="37.3602" y1="19" x2="37.3602" y2="48.2974" gradientUnits="userSpaceOnUse">
<stop stop-color="#FFD663"/>
<stop offset="1" stop-color="#F26C7D"/>
</linearGradient>
<linearGradient id="paint4_linear_1266_913" x1="17.4145" y1="30.5511" x2="27.2574" y2="40.394" gradientUnits="userSpaceOnUse">
<stop stop-color="#FFF171"/>
<stop offset="1" stop-color="#FAB382"/>
</linearGradient>
<linearGradient id="paint5_linear_1266_913" x1="18.6882" y1="41.6682" x2="32.4897" y2="55.4697" gradientUnits="userSpaceOnUse">
<stop stop-color="#D48A3D"/>
<stop offset="0.795" stop-color="#DB474E"/>
</linearGradient>
</defs>
</svg>
