<svg width="160" height="96" viewBox="0 0 160 96" fill="none" xmlns="http://www.w3.org/2000/svg">
<g clip-path="url(#clip0_2279_1272)">
<path d="M0 40.1812C0 39.3698 0 38.9642 0.157041 38.6521C0.307402 38.3533 0.555589 38.1117 0.862513 37.9654C1.18307 37.8125 1.5998 37.8125 2.43325 37.8125H28.3674C29.2009 37.8125 29.6176 37.8125 29.9381 37.9654C30.245 38.1117 30.4933 38.3533 30.6436 38.6521C30.8007 38.9642 30.8007 39.3698 30.8007 40.1812V65.4268C30.8007 66.2382 30.8007 66.6438 30.6436 66.9558C30.4933 67.2546 30.245 67.4962 29.9381 67.6425C29.6176 67.7955 29.2009 67.7955 28.3674 67.7955H2.43325C1.5998 67.7955 1.18307 67.7955 0.862513 67.6425C0.555589 67.4962 0.307402 67.2546 0.157041 66.9558C0 66.6438 0 66.2382 0 65.4268V40.1812Z" fill="white"/>
</g>
<g clip-path="url(#clip1_2279_1272)">
<path d="M57.6088 67.7642C54.5066 67.7642 51.5173 66.636 49.7688 63.6467H48.7535V66.9182H41.7031V28H48.7535V42.1572H49.7688C51.5737 39.055 54.9579 37.8706 58.0036 37.8706C65.6181 37.8706 70.7509 43.9621 70.7509 52.5354C70.7509 61.2778 65.1104 67.7642 57.6088 67.7642ZM56.0859 61.4471C60.429 61.4471 63.5312 57.8936 63.5312 52.8174C63.5312 47.7411 60.3726 44.1877 56.0859 44.1877C51.8557 44.1877 48.7535 47.5719 48.7535 52.8174C48.7535 58.0628 51.8557 61.4471 56.0859 61.4471Z" fill="white"/>
<path d="M83.615 67.7643C78.2004 67.7643 73.8008 64.4929 73.8008 59.1346C73.8008 52.8174 78.6515 50.7869 84.5175 50.1665L92.8086 49.3204V47.7412C92.8086 45.3158 90.8346 43.6237 87.3375 43.6237C84.0097 43.6237 82.0922 45.0902 81.4715 47.2899H74.7033C75.3801 41.9316 79.8361 37.8706 87.3375 37.8706C94.5572 37.8706 99.3514 41.3676 99.3514 48.1924V61.9547C99.3514 63.7032 99.5207 66.1286 99.6336 66.8054V66.9182H92.865C92.8086 65.9593 92.8086 65.0568 92.8086 64.0982H91.7933C90.045 66.9182 86.9993 67.7643 83.615 67.7643ZM80.9076 58.7961C80.9076 61.1086 82.8254 62.4625 85.5326 62.4625C90.1578 62.4625 92.8086 58.9654 92.8086 55.4121V54.0019L86.6043 54.7351C82.769 55.1864 80.9076 56.3143 80.9076 58.7961Z" fill="white"/>
<path d="M116.481 67.7643C109.374 67.7643 104.297 64.211 103.508 58.6271H110.446C111.235 61.1086 113.83 62.1804 116.537 62.1804C119.301 62.1804 121.557 60.996 121.557 58.9089C121.557 56.8221 119.414 56.2582 116.481 55.7504L113.491 55.2428C107.851 54.2839 104.354 51.915 104.354 46.8387C104.354 41.3112 109.205 37.8706 115.917 37.8706C122.459 37.8706 126.802 40.9164 127.987 46.2183H121.218C120.429 44.1313 118.342 43.2853 115.973 43.2853C113.096 43.2853 111.235 44.5262 111.235 46.2747C111.235 48.0796 112.702 48.6436 115.747 49.1512L118.737 49.6589C124.208 50.5613 128.382 52.8174 128.382 58.2886C128.382 64.2672 123.418 67.7643 116.481 67.7643Z" fill="white"/>
<path d="M145.865 67.7643C137.179 67.7643 131.426 61.8418 131.426 52.761C131.426 43.8493 137.517 37.8706 145.921 37.8706C154.72 37.8706 159.796 44.4134 159.796 53.043V54.2839H138.307C138.645 58.9654 141.917 61.7292 145.865 61.7292C149.136 61.7292 151.11 60.6011 152.069 58.6271H159.289C157.822 63.9289 152.577 67.7643 145.865 67.7643ZM138.42 49.6025H152.915C152.351 45.8234 149.362 43.6237 145.865 43.6237C142.199 43.6237 139.097 45.7671 138.42 49.6025Z" fill="white"/>
</g>
<defs>
<clipPath id="clip0_2279_1272">
<rect width="30.8007" height="29.983" fill="white" transform="translate(0 37.8125)"/>
</clipPath>
<clipPath id="clip1_2279_1272">
<rect width="118.296" height="39.7956" fill="white" transform="translate(41.7031 28)"/>
</clipPath>
</defs>
</svg>
