<svg width="160" height="96" viewBox="0 0 160 96" fill="none" xmlns="http://www.w3.org/2000/svg">
<g clip-path="url(#clip0_1266_913)">
<path d="M22.996 63.7397V79.1652L4.07031 51.6846L22.996 63.7397Z" fill="url(#paint0_linear_1266_913)"/>
<path d="M41.788 51.6846L22.9922 79.1652V63.7397L41.788 51.6846Z" fill="url(#paint1_linear_1266_913)"/>
<path d="M41.788 47.7949L22.9922 37.0361V59.8501L41.788 47.7949Z" fill="url(#paint2_linear_1266_913)"/>
<path d="M41.788 47.7955L22.9922 15V37.0367L41.788 47.7955Z" fill="url(#paint3_linear_1266_913)"/>
<path d="M22.996 15V37.0367L4.07031 47.7955L22.996 15Z" fill="url(#paint4_linear_1266_913)"/>
<path d="M22.996 37.0361V59.8501L4.07031 47.7949L22.996 37.0361Z" fill="url(#paint5_linear_1266_913)"/>
<path d="M51.125 26.6973C51.125 25.6226 51.3451 24.6706 51.7853 23.8416C52.2255 23.013 52.8405 22.3721 53.6307 21.9185C54.4205 21.4653 55.3337 21.2388 56.3699 21.2388C57.3668 21.2388 58.2573 21.4718 59.0411 21.9383C59.8244 22.4044 60.4365 23.0587 60.8767 23.9002C61.3169 24.7422 61.5371 25.7003 61.5371 26.7754V27.591H53.9026C53.9414 28.2388 54.1874 28.7632 54.641 29.1645C55.0942 29.5663 55.6897 29.7666 56.4281 29.7666C56.946 29.7666 57.4251 29.6533 57.8657 29.4267C58.3059 29.2001 58.7849 28.8085 59.3032 28.2518L61.0321 30.0195C60.4361 30.6802 59.7499 31.1948 58.9731 31.5638C58.1963 31.9328 57.3474 32.1173 56.4281 32.1173C55.379 32.1173 54.4533 31.8903 53.6501 31.4372C52.847 30.984 52.2255 30.3464 51.7853 29.5238C51.3451 28.7017 51.125 27.7594 51.125 26.6973ZM58.74 25.5704C58.6882 25.0008 58.439 24.5282 57.9919 24.1523C57.5452 23.7768 57.0043 23.5891 56.3699 23.5891C55.7096 23.5891 55.1654 23.7704 54.7381 24.1329C54.3108 24.4954 54.0454 24.9749 53.9418 25.5704H58.74Z" fill="white"/>
<path d="M63.3047 26.6783C63.3047 25.6166 63.5248 24.6743 63.965 23.8517C64.4052 23.0295 65.0238 22.3882 65.8201 21.9286C66.6164 21.469 67.5263 21.2388 68.5496 21.2388C69.7541 21.2388 70.7898 21.5689 71.6577 22.2296C72.5252 22.89 73.1147 23.7772 73.4254 24.8911L70.7449 25.6291C70.6155 25.0594 70.3691 24.6091 70.0065 24.279C69.644 23.9488 69.1581 23.7837 68.5496 23.7837C67.7727 23.7837 67.167 24.0394 66.7333 24.5508C66.2992 25.0627 66.0827 25.7715 66.0827 26.6778C66.0827 27.5842 66.2996 28.2934 66.7333 28.8048C67.167 29.3167 67.7727 29.572 68.5496 29.572C69.1581 29.572 69.6436 29.4069 70.0065 29.0767C70.3691 28.7466 70.6151 28.2967 70.7449 27.7266L73.4254 28.4646C73.1147 29.5784 72.5252 30.4653 71.6577 31.1261C70.7898 31.7864 69.7541 32.1169 68.5496 32.1169C67.5263 32.1169 66.6168 31.8867 65.8201 31.4271C65.0234 30.9674 64.4048 30.3266 63.965 29.504C63.5248 28.6818 63.3047 27.7395 63.3047 26.6774V26.6783Z" fill="white"/>
<path d="M75.0977 26.6783C75.0977 25.6166 75.3178 24.6743 75.758 23.8517C76.1982 23.0295 76.8168 22.3882 77.6131 21.9286C78.4093 21.469 79.3193 21.2388 80.3425 21.2388C81.3783 21.2388 82.2947 21.469 83.091 21.9286C83.8877 22.3882 84.5059 23.0295 84.9461 23.8517C85.3863 24.6743 85.6068 25.6166 85.6068 26.6783C85.6068 27.7399 85.3863 28.6827 84.9461 29.5048C84.5059 30.3274 83.8877 30.9683 83.091 31.4279C82.2943 31.8875 81.3783 32.1177 80.3425 32.1177C79.3193 32.1177 78.4097 31.8875 77.6131 31.4279C76.8164 30.9683 76.1978 30.3274 75.758 29.5048C75.3178 28.6827 75.0977 27.7403 75.0977 26.6783ZM82.8288 26.6783C82.8288 25.7719 82.6119 25.0627 82.1782 24.5513C81.7445 24.0398 81.1323 23.7841 80.3425 23.7841C79.5657 23.7841 78.96 24.0398 78.5263 24.5513C78.0921 25.0631 77.8757 25.7719 77.8757 26.6783C77.8757 27.5846 78.0925 28.2938 78.5263 28.8053C78.96 29.3171 79.5657 29.5724 80.3425 29.5724C81.1194 29.5724 81.7279 29.3134 82.1685 28.7955C82.6087 28.2776 82.8288 27.5716 82.8288 26.6783Z" fill="white"/>
<path d="M87.1602 28.4261L89.6857 27.8435C89.8665 28.4913 90.1939 28.9865 90.6664 29.3296C91.1394 29.6727 91.7378 29.8443 92.4633 29.8443C93.1111 29.8443 93.6059 29.7666 93.9494 29.6112C94.2925 29.4559 94.4641 29.2357 94.4641 28.9505C94.4641 28.6272 94.2893 28.3776 93.9397 28.2028C93.5901 28.028 92.9488 27.85 92.0162 27.6687C90.4884 27.3839 89.3968 26.9886 88.743 26.4836C88.0891 25.9783 87.7618 25.286 87.7618 24.4052C87.7618 23.7833 87.9431 23.2335 88.306 22.754C88.6685 22.275 89.1767 21.9027 89.8309 21.6369C90.4848 21.3715 91.2329 21.2388 92.0749 21.2388C93.2276 21.2388 94.2504 21.524 95.1442 22.0933C96.0376 22.6634 96.6396 23.4212 96.9507 24.3664L94.5616 25.1432C94.3674 24.6253 94.053 24.2239 93.6192 23.9387C93.1855 23.6538 92.6644 23.511 92.0559 23.511C91.5505 23.511 91.1491 23.5923 90.8514 23.7542C90.5532 23.916 90.4047 24.1398 90.4047 24.4242C90.4047 24.6836 90.5697 24.894 90.8999 25.0558C91.2301 25.2176 91.8293 25.3762 92.6967 25.5316C94.2767 25.8294 95.4068 26.2405 96.0865 26.7648C96.7666 27.2892 97.1065 28.0179 97.1065 28.9501C97.1065 29.5849 96.9151 30.1417 96.5336 30.6207C96.1516 31.1002 95.6075 31.4692 94.9018 31.7277C94.1958 31.9866 93.3834 32.1161 92.4641 32.1161C91.0654 32.1161 89.903 31.7924 88.9772 31.1451C88.0511 30.4973 87.4458 29.591 87.161 28.4253L87.1602 28.4261Z" fill="white"/>
<path d="M102.544 31.4175L98.4453 21.5298H101.359L103.923 28.1151H103.962L106.507 21.5298H109.421L103.438 36.1962H100.544L102.544 31.4175Z" fill="white"/>
<path d="M109.965 28.4261L112.49 27.8435C112.671 28.4913 112.999 28.9865 113.471 29.3296C113.944 29.6727 114.543 29.8443 115.268 29.8443C115.916 29.8443 116.411 29.7666 116.754 29.6112C117.097 29.4559 117.269 29.2357 117.269 28.9505C117.269 28.6272 117.094 28.3776 116.744 28.2028C116.395 28.028 115.753 27.85 114.821 27.6687C113.293 27.3839 112.201 26.9886 111.548 26.4836C110.894 25.9783 110.566 25.286 110.566 24.4052C110.566 23.7833 110.748 23.2335 111.111 22.754C111.473 22.275 111.981 21.9027 112.636 21.6369C113.289 21.3715 114.038 21.2388 114.88 21.2388C116.032 21.2388 117.055 21.524 117.949 22.0933C118.842 22.6634 119.444 23.4212 119.755 24.3664L117.366 25.1432C117.172 24.6253 116.858 24.2239 116.424 23.9387C115.99 23.6538 115.469 23.511 114.861 23.511C114.355 23.511 113.954 23.5923 113.656 23.7542C113.358 23.916 113.209 24.1398 113.209 24.4242C113.209 24.6836 113.374 24.894 113.705 25.0558C114.035 25.2176 114.634 25.3762 115.501 25.5316C117.081 25.8294 118.211 26.2405 118.891 26.7648C119.571 27.2892 119.911 28.0179 119.911 28.9501C119.911 29.5849 119.72 30.1417 119.338 30.6207C118.956 31.1002 118.412 31.4692 117.707 31.7277C117 31.9866 116.188 32.1161 115.269 32.1161C113.87 32.1161 112.708 31.7924 111.782 31.1451C110.856 30.4973 110.25 29.591 109.966 28.4253L109.965 28.4261Z" fill="white"/>
<path d="M126.588 24.0161V28.154C126.588 28.5036 126.669 28.7561 126.831 28.9118C126.993 29.0672 127.262 29.1449 127.637 29.1449H129.988V31.8254H127.385C126.245 31.8254 125.364 31.5567 124.743 31.019C124.121 30.4817 123.81 29.7146 123.81 28.7172V24.0161H121.285V21.5295H123.81V18.9072H126.588V21.5295H130.629V24.0161H126.588Z" fill="white"/>
<path d="M132.5 26.6973C132.5 25.6226 132.72 24.6706 133.161 23.8416C133.601 23.013 134.216 22.3721 135.006 21.9185C135.796 21.4653 136.709 21.2388 137.745 21.2388C138.743 21.2388 139.633 21.4718 140.416 21.9383C141.2 22.4048 141.812 23.0587 142.252 23.9002C142.692 24.7422 142.913 25.7003 142.913 26.7754V27.591H135.279C135.318 28.2388 135.563 28.7632 136.017 29.1645C136.47 29.5663 137.066 29.7666 137.804 29.7666C138.321 29.7666 138.801 29.6533 139.242 29.4267C139.682 29.2001 140.161 28.8085 140.679 28.2518L142.408 30.0195C141.812 30.6802 141.126 31.1948 140.348 31.5638C139.572 31.9328 138.723 32.1173 137.804 32.1173C136.755 32.1173 135.829 31.8903 135.026 31.4372C134.223 30.984 133.601 30.3464 133.162 29.5238C132.721 28.7017 132.501 27.7594 132.501 26.6973H132.5ZM140.115 25.5704C140.063 25.0008 139.814 24.5282 139.367 24.1523C138.92 23.7768 138.379 23.5891 137.744 23.5891C137.084 23.5891 136.54 23.7704 136.113 24.1329C135.685 24.4954 135.42 24.9749 135.316 25.5704H140.114H140.115Z" fill="white"/>
<path d="M144.777 21.5301H147.225V22.4234H147.264C147.484 22.0738 147.765 21.8052 148.109 21.6171C148.452 21.4297 148.831 21.3354 149.245 21.3354C150.061 21.3354 150.715 21.7174 151.208 22.4817H151.247C151.764 21.7178 152.477 21.3354 153.383 21.3354C154.134 21.3354 154.743 21.6009 155.21 22.1317C155.676 22.663 155.909 23.3556 155.909 24.2102V31.8252H153.345V24.6965C153.345 24.3987 153.267 24.1721 153.112 24.0168C152.956 23.8614 152.736 23.7837 152.451 23.7837C152.179 23.7837 151.962 23.8711 151.8 24.0459C151.639 24.2207 151.558 24.4574 151.558 24.7547V31.826H149.129V24.6965C149.129 24.4116 149.054 24.1887 148.906 24.0265C148.757 23.8646 148.546 23.7837 148.274 23.7837C147.989 23.7837 147.763 23.8711 147.594 24.0459C147.426 24.2207 147.342 24.4574 147.342 24.7547V31.826H144.778V21.5301H144.777Z" fill="white"/>
<path d="M51.3949 49.4657L53.9201 48.8831C54.1013 49.5312 54.4282 50.0261 54.9012 50.3692C55.3738 50.7127 55.9726 50.8838 56.6981 50.8838C57.3454 50.8838 57.8411 50.8065 58.1842 50.6508C58.5273 50.4954 58.6988 50.2753 58.6988 49.9905C58.6988 49.6668 58.524 49.4171 58.1745 49.2423C57.8249 49.0672 57.184 48.8895 56.2514 48.7083C54.7232 48.4234 53.632 48.0281 52.9781 47.5232C52.3243 47.0182 51.9974 46.3256 51.9974 45.4447C51.9974 44.8229 52.1787 44.273 52.5412 43.7936C52.9037 43.3145 53.4119 42.9423 54.0661 42.6765C54.72 42.411 55.4677 42.2783 56.3096 42.2783C57.462 42.2783 58.4852 42.5636 59.379 43.1328C60.2723 43.7029 60.8748 44.4608 61.1855 45.4059L58.7963 46.1831C58.6021 45.6653 58.2878 45.2635 57.854 44.9786C57.4199 44.6938 56.8988 44.551 56.2902 44.551C55.7853 44.551 55.3835 44.6323 55.0857 44.7941C54.7875 44.956 54.639 45.1797 54.639 45.4642C54.639 45.7235 54.8041 45.9339 55.1343 46.0953C55.4644 46.2572 56.0632 46.4158 56.9311 46.5716C58.5111 46.8694 59.6412 47.2804 60.3209 47.8052C61.0006 48.3296 61.3409 49.0583 61.3409 49.9905C61.3409 50.6249 61.1495 51.182 60.7676 51.6611C60.3856 52.1405 59.8414 52.5095 59.1358 52.7681C58.4298 53.027 57.6173 53.1565 56.6977 53.1565C55.299 53.1565 54.1365 52.8332 53.2108 52.1854C52.2847 51.5381 51.6798 50.6313 51.3949 49.4657Z" fill="white"/>
<path d="M63.1133 49.3683V42.5693H65.8913V48.7274C65.8913 49.9837 66.5128 50.6116 67.7561 50.6116C68.3128 50.6116 68.7567 50.4401 69.0868 50.097C69.417 49.7539 69.5821 49.2975 69.5821 48.7274V42.5693H72.3601V52.8649H69.6986V51.9517H69.6598C69.3745 52.3142 68.9829 52.6059 68.4844 52.826C67.9855 53.0461 67.4644 53.1558 66.9206 53.1558C65.7031 53.1558 64.7645 52.8228 64.1041 52.1556C63.4438 51.4884 63.1133 50.5594 63.1133 49.3675V49.3683Z" fill="white"/>
<path d="M75.4852 42.5696H78.1467V43.4629H78.1855C78.9494 42.6731 79.9144 42.2778 81.08 42.2778C81.9859 42.2778 82.7992 42.5048 83.5178 42.9576C84.2363 43.4111 84.7963 44.0488 85.1977 44.8709C85.599 45.6935 85.8001 46.6419 85.8001 47.7165C85.8001 48.7531 85.599 49.6853 85.1977 50.5139C84.7963 51.343 84.2327 51.9903 83.5077 52.4568C82.7822 52.9225 81.96 53.156 81.0404 53.156C80.4578 53.156 79.9334 53.0654 79.4669 52.8841C79.0008 52.7032 78.6124 52.4568 78.3012 52.1461H78.2624V57.2356H75.4844V42.5691L75.4852 42.5696ZM83.0221 47.7173C83.0221 46.8369 82.8016 46.1345 82.3614 45.6097C81.9212 45.0854 81.3127 44.8232 80.5354 44.8232C79.914 44.8232 79.3799 45.0405 78.9328 45.4738C78.4861 45.9079 78.2628 46.4355 78.2628 47.057V48.397C78.2628 48.7859 78.3664 49.148 78.5735 49.4846C78.7807 49.8217 79.0688 50.0935 79.4377 50.3007C79.8072 50.5083 80.2178 50.6118 80.6714 50.6118C81.3964 50.6118 81.9698 50.3497 82.3905 49.8253C82.8113 49.3005 83.0221 48.5985 83.0221 47.7173Z" fill="white"/>
<path d="M87.6649 42.5696H90.3264V43.4629H90.3652C91.1295 42.6731 92.0941 42.2778 93.2597 42.2778C94.1656 42.2778 94.9789 42.5048 95.6975 42.9576C96.416 43.4111 96.976 44.0488 97.3774 44.8709C97.7787 45.6935 97.9798 46.6419 97.9798 47.7165C97.9798 48.7531 97.7787 49.6853 97.3774 50.5139C96.976 51.343 96.4124 51.9903 95.6873 52.4568C94.9619 52.9225 94.1397 53.156 93.2201 53.156C92.6374 53.156 92.1131 53.0654 91.6466 52.8841C91.1805 52.7032 90.792 52.4568 90.4809 52.1461H90.4421V57.2356H87.6641V42.5691L87.6649 42.5696ZM95.2022 47.7173C95.2022 46.8369 94.9817 46.1345 94.5415 45.6097C94.1013 45.0854 93.4928 44.8232 92.7155 44.8232C92.0941 44.8232 91.56 45.0405 91.1129 45.4738C90.6662 45.9079 90.4429 46.4355 90.4429 47.057V48.397C90.4429 48.7859 90.5465 49.148 90.7536 49.4846C90.9608 49.8217 91.2492 50.0935 91.6182 50.3007C91.9872 50.5083 92.3983 50.6118 92.8519 50.6118C93.5769 50.6118 94.1503 50.3497 94.571 49.8253C94.9918 49.3005 95.2026 48.5985 95.2026 47.7173H95.2022Z" fill="white"/>
<path d="M99.8438 47.7174C99.8438 46.6557 100.064 45.7138 100.504 44.8912C100.944 44.0691 101.563 43.4278 102.36 42.9682C103.156 42.5085 104.066 42.2783 105.089 42.2783C106.125 42.2783 107.041 42.5085 107.837 42.9682C108.634 43.4278 109.252 44.0691 109.693 44.8912C110.133 45.7138 110.353 46.6557 110.353 47.7174C110.353 48.7791 110.133 49.7218 109.693 50.544C109.252 51.3665 108.634 52.0074 107.837 52.467C107.041 52.9267 106.125 53.1565 105.089 53.1565C104.066 53.1565 103.156 52.9267 102.36 52.467C101.563 52.0074 100.944 51.3665 100.504 50.544C100.064 49.7218 99.8438 48.7795 99.8438 47.7174ZM107.575 47.7174C107.575 46.8115 107.358 46.1022 106.924 45.5904C106.491 45.079 105.878 44.8233 105.089 44.8233C104.312 44.8233 103.706 45.079 103.273 45.5904C102.839 46.1022 102.622 46.8115 102.622 47.7174C102.622 48.6233 102.839 49.3334 103.273 49.8448C103.706 50.3566 104.312 50.6119 105.089 50.6119C105.865 50.6119 106.474 50.353 106.915 49.8347C107.355 49.3172 107.575 48.6112 107.575 47.7174H107.575Z" fill="white"/>
<path d="M112.493 42.5696H115.154V43.5217H115.193C115.633 43.0815 116.09 42.7638 116.562 42.5696C117.035 42.3754 117.576 42.2783 118.185 42.2783C119.078 42.2783 119.848 42.5405 120.496 43.0649C121.144 43.5892 121.597 44.305 121.856 45.2117L119.253 46.0666C118.955 45.2246 118.34 44.8039 117.407 44.8039C116.707 44.8039 116.177 45.0078 115.814 45.4156C115.451 45.8235 115.27 46.3838 115.27 47.0959V52.8656H112.492V42.57L112.493 42.5696Z" fill="white"/>
<path d="M128.534 45.0553V49.1932C128.534 49.5427 128.614 49.7952 128.776 49.9506C128.938 50.1064 129.207 50.1836 129.583 50.1836H131.933V52.8645H129.33C128.19 52.8645 127.31 52.5959 126.688 52.0586C126.067 51.5213 125.756 50.7537 125.756 49.7568V45.0557H123.23V42.569H125.756V39.9468H128.534V42.569H132.574V45.0557H128.534V45.0553Z" fill="white"/>
<path d="M51.5156 63.6086H54.1771V64.5024H54.2159C54.9798 63.7126 55.9448 63.3169 57.1105 63.3169C58.0168 63.3169 58.8296 63.5439 59.5482 63.997C60.2672 64.4506 60.8272 65.0882 61.2285 65.9104C61.6299 66.733 61.8306 67.6813 61.8306 68.756C61.8306 69.7926 61.6295 70.7248 61.2285 71.5534C60.8268 72.3824 60.2635 73.0298 59.5385 73.4963C58.813 73.962 57.9909 74.1955 57.0716 74.1955C56.489 74.1955 55.9642 74.1048 55.4981 73.9236C55.032 73.7427 54.6436 73.4963 54.3325 73.1856H54.2936V78.2751H51.5156V63.6086ZM59.0526 68.7564C59.0526 67.876 58.8325 67.1736 58.3923 66.6488C57.952 66.1244 57.3431 65.8623 56.5663 65.8623C55.9448 65.8623 55.4107 66.0791 54.9637 66.5129C54.517 66.947 54.2936 67.4746 54.2936 68.0961V69.4361C54.2936 69.8249 54.3972 70.1871 54.6044 70.5237C54.8115 70.8607 55.0996 71.1326 55.4686 71.3398C55.838 71.5473 56.2487 71.6509 56.7022 71.6509C57.4273 71.6509 58.0002 71.3887 58.4214 70.8644C58.8422 70.3396 59.0526 69.6376 59.0526 68.7564Z" fill="white"/>
<path d="M63.7734 63.6086H66.4349V64.5606H66.4738C66.914 64.1204 67.3704 63.8032 67.8433 63.6086C68.3159 63.4144 68.8565 63.3169 69.4654 63.3169C70.3588 63.3169 71.1295 63.5791 71.7769 64.1038C72.4247 64.6282 72.8774 65.3436 73.1368 66.2503L70.5335 67.1052C70.2358 66.2632 69.6208 65.8424 68.6882 65.8424C67.9886 65.8424 67.4578 66.0463 67.0952 66.4546C66.7327 66.8624 66.5514 67.4228 66.5514 68.1345V73.9041H63.7734V63.6086Z" fill="white"/>
<path d="M74.3164 68.756C74.3164 67.6943 74.5365 66.7524 74.9767 65.9298C75.4169 65.1077 76.0356 64.4668 76.8318 64.0067C77.6281 63.5471 78.538 63.3169 79.5613 63.3169C80.5971 63.3169 81.5135 63.5471 82.3102 64.0067C83.1068 64.4668 83.7246 65.1077 84.1649 65.9298C84.6051 66.7524 84.8256 67.6943 84.8256 68.756C84.8256 69.8177 84.6051 70.7604 84.1649 71.5825C83.7246 72.4051 83.1068 73.046 82.3102 73.5056C81.5135 73.9652 80.5971 74.195 79.5613 74.195C78.538 74.195 77.6285 73.9652 76.8318 73.5056C76.0352 73.046 75.4165 72.4051 74.9767 71.5825C74.5365 70.7604 74.3164 69.8181 74.3164 68.756ZM82.048 68.756C82.048 67.8501 81.8307 67.1408 81.397 66.629C80.9632 66.1176 80.3515 65.8618 79.5617 65.8618C78.7848 65.8618 78.1792 66.118 77.7454 66.629C77.3113 67.1408 77.0948 67.8501 77.0948 68.756C77.0948 69.6619 77.3117 70.372 77.7454 70.8834C78.1792 71.3952 78.7848 71.6505 79.5617 71.6505C80.3385 71.6505 80.9474 71.3916 81.3877 70.8733C81.8279 70.3558 82.0484 69.6497 82.0484 68.756H82.048Z" fill="white"/>
<path d="M87.2526 76.1962L89.3699 74.5843C89.7583 75.141 90.15 75.5327 90.5449 75.7592C90.9402 75.9858 91.4289 76.0995 92.0116 76.0995C92.737 76.0995 93.3132 75.8984 93.7404 75.4971C94.1677 75.0957 94.3813 74.539 94.3813 73.8265V73.0885H94.3425C93.9666 73.4769 93.5685 73.7585 93.1481 73.9337C92.7269 74.1085 92.2183 74.1955 91.6227 74.1955C90.6901 74.1955 89.8647 73.9656 89.1462 73.506C88.4276 73.0464 87.8704 72.4055 87.4756 71.5829C87.0799 70.7608 86.8828 69.8185 86.8828 68.7564C86.8828 67.7076 87.0867 66.7722 87.495 65.9492C87.9028 65.1271 88.466 64.4826 89.185 64.0165C89.904 63.5504 90.7229 63.3169 91.6422 63.3169C92.2248 63.3169 92.7237 63.4015 93.138 63.5698C93.5523 63.7381 93.9346 63.997 94.2842 64.3466H94.3231V63.6086H97.004V73.943C97.004 74.8493 96.7932 75.6528 96.3724 76.352C95.9512 77.0515 95.3653 77.5949 94.614 77.9834C93.863 78.3722 92.9951 78.566 92.0107 78.566C89.9906 78.566 88.4041 77.7762 87.2514 76.1962H87.2526ZM94.2264 69.4167V68.0766C94.2264 67.4034 94.0188 66.8657 93.6049 66.4643C93.1906 66.0633 92.6593 65.8623 92.0116 65.8623C91.2861 65.8623 90.7132 66.1216 90.2924 66.6395C89.8716 67.1574 89.6612 67.863 89.6612 68.7564C89.6612 69.6247 89.8744 70.3238 90.3021 70.8547C90.7298 71.3859 91.2926 71.6513 91.9921 71.6513C92.381 71.6513 92.7463 71.551 93.0898 71.3503C93.4329 71.1496 93.7081 70.8777 93.9152 70.5342C94.1224 70.1911 94.2264 69.8181 94.2264 69.4167Z" fill="white"/>
<path d="M99.9223 63.6086H102.583V64.5606H102.622C103.062 64.1204 103.519 63.8032 103.992 63.6086C104.465 63.4144 105.005 63.3169 105.614 63.3169C106.508 63.3169 107.278 63.5791 107.926 64.1038C108.574 64.6282 109.027 65.3436 109.286 66.2503L106.682 67.1052C106.384 66.2632 105.769 65.8424 104.837 65.8424C104.137 65.8424 103.606 66.0463 103.244 66.4546C102.881 66.8624 102.699 67.4228 102.699 68.1345V73.9041H99.9219L99.9223 63.6086Z" fill="white"/>
<path d="M110.722 71.1456C110.722 70.1871 111.049 69.4426 111.703 68.9117C112.357 68.3809 113.448 67.9925 114.976 67.7461C115.779 67.617 116.326 67.471 116.618 67.3091C116.909 67.1473 117.055 66.93 117.055 66.6585C117.055 66.3474 116.912 66.1018 116.627 65.9201C116.343 65.7393 115.954 65.6482 115.462 65.6482C114.905 65.6482 114.423 65.8169 114.015 66.1532C113.607 66.4902 113.345 66.9373 113.228 67.4936L110.645 66.911C110.774 66.2114 111.065 65.59 111.518 65.0462C111.972 64.5024 112.541 64.078 113.228 63.7737C113.915 63.4694 114.659 63.3169 115.462 63.3169C116.783 63.3169 117.838 63.6863 118.628 64.4243C119.418 65.1623 119.813 66.1467 119.813 67.3771V73.9041H117.327V72.7579H117.288C116.99 73.2115 116.572 73.5643 116.035 73.8167C115.497 74.0692 114.892 74.1955 114.218 74.1955C113.545 74.1955 112.943 74.066 112.412 73.807C111.881 73.5481 111.466 73.1856 111.168 72.7195C110.871 72.2534 110.722 71.7286 110.722 71.1456ZM117.171 70.077V68.9113H117.132C117.016 69.1051 116.821 69.2609 116.55 69.3774C116.277 69.494 115.85 69.6105 115.268 69.727C114.542 69.8824 114.044 70.0475 113.772 70.2223C113.5 70.3974 113.364 70.6398 113.364 70.9509C113.364 71.2487 113.483 71.4753 113.723 71.6311C113.963 71.7865 114.309 71.8641 114.763 71.8641C115.176 71.8641 115.572 71.7832 115.948 71.621C116.323 71.4595 116.621 71.2394 116.841 70.9607C117.061 70.6823 117.171 70.3877 117.171 70.077Z" fill="white"/>
<path d="M122.359 63.6088H124.807V64.5025H124.846C125.066 64.153 125.347 63.8843 125.691 63.6962C126.034 63.5084 126.413 63.4146 126.827 63.4146C127.643 63.4146 128.297 63.7965 128.79 64.5608H128.829C129.346 63.7965 130.059 63.4146 130.965 63.4146C131.716 63.4146 132.325 63.68 132.792 64.2112C133.258 64.7425 133.491 65.4347 133.491 66.2901V73.9047H130.927V66.7756C130.927 66.4778 130.849 66.2508 130.694 66.0955C130.538 65.9401 130.318 65.8624 130.033 65.8624C129.761 65.8624 129.544 65.9498 129.382 66.1246C129.221 66.2994 129.14 66.5361 129.14 66.8334V73.9047H126.711V66.7756C126.711 66.4908 126.636 66.2674 126.488 66.1056C126.339 65.9437 126.128 65.8624 125.856 65.8624C125.572 65.8624 125.345 65.9498 125.176 66.1246C125.008 66.2994 124.924 66.5361 124.924 66.8334V73.9047H122.36V63.6092L122.359 63.6088Z" fill="white"/>
</g>
<defs>
<linearGradient id="paint0_linear_1266_913" x1="3.64912" y1="52.1058" x2="26.8523" y2="75.3089" gradientUnits="userSpaceOnUse">
<stop stop-color="#F47D51"/>
<stop offset="0.96" stop-color="#DF72AC"/>
</linearGradient>
<linearGradient id="paint1_linear_1266_913" x1="26.793" y1="59.828" x2="34.5687" y2="67.6037" gradientUnits="userSpaceOnUse">
<stop stop-color="#F15D4C"/>
<stop offset="1" stop-color="#C36CA1"/>
</linearGradient>
<linearGradient id="paint2_linear_1266_913" x1="19.2771" y1="40.7099" x2="32.5089" y2="53.9417" gradientUnits="userSpaceOnUse">
<stop stop-color="#B46947"/>
<stop offset="0.896" stop-color="#AE5262"/>
</linearGradient>
<linearGradient id="paint3_linear_1266_913" x1="32.3899" y1="15" x2="32.3899" y2="47.7955" gradientUnits="userSpaceOnUse">
<stop stop-color="#FFD663"/>
<stop offset="1" stop-color="#F26C7D"/>
</linearGradient>
<linearGradient id="paint4_linear_1266_913" x1="10.0657" y1="27.9303" x2="21.0839" y2="38.9485" gradientUnits="userSpaceOnUse">
<stop stop-color="#FFF171"/>
<stop offset="1" stop-color="#FAB382"/>
</linearGradient>
<linearGradient id="paint5_linear_1266_913" x1="11.4915" y1="40.3741" x2="26.9409" y2="55.8235" gradientUnits="userSpaceOnUse">
<stop stop-color="#D48A3D"/>
<stop offset="0.795" stop-color="#DB474E"/>
</linearGradient>
<clipPath id="clip0_1266_913">
<rect width="152.238" height="65.6266" fill="white" transform="translate(4 15)"/>
</clipPath>
</defs>
</svg>
