<svg width="160" height="96" viewBox="0 0 160 96" fill="none" xmlns="http://www.w3.org/2000/svg">
<g clip-path="url(#clip0_761_24177)">
<path d="M45.2843 41.6709C45.2843 40.7609 45.4602 39.9568 45.8119 39.2552C46.1384 38.5832 46.651 38.0189 47.2888 37.629C47.9212 37.2461 48.6529 37.0547 49.4815 37.0547C50.2797 37.0547 50.9922 37.2518 51.619 37.6459C52.2458 38.0401 52.7351 38.5919 53.088 39.3037C53.4408 40.0154 53.6167 40.8274 53.6167 41.7362V42.4254H47.5064C47.5379 42.9738 47.7352 43.4164 48.0971 43.7565C48.4601 44.0966 48.937 44.2656 49.5289 44.2656C49.9304 44.2693 50.3262 44.1704 50.6788 43.9784C51.0305 43.7869 51.4138 43.457 51.8287 42.984L53.212 44.4807C52.7362 45.0381 52.1861 45.4739 51.5649 45.787C50.9323 46.1014 50.2342 46.2615 49.5277 46.2544C48.6878 46.2544 47.9472 46.0629 47.3046 45.68C46.6614 45.296 46.143 44.7344 45.8119 44.0628C45.4602 43.3658 45.2832 42.5695 45.2832 41.672V41.6697L45.2843 41.6709ZM51.3777 40.717C51.3618 40.4879 51.3008 40.2641 51.1983 40.0585C51.0958 39.8529 50.9537 39.6695 50.7802 39.5188C50.4235 39.2012 49.9592 39.0309 49.4815 39.0424C48.9517 39.0424 48.5176 39.1967 48.1749 39.503C47.8333 39.8093 47.6214 40.2147 47.5379 40.7193H51.3777V40.717ZM60.3798 39.4039V42.9029C60.3798 43.198 60.444 43.4119 60.5737 43.5426C60.7033 43.6743 60.9187 43.7396 61.2185 43.7396H63.1001V46.0077H61.0167C60.1047 46.0077 59.4001 45.7803 58.9029 45.3253C58.4046 44.8714 58.1566 44.2216 58.1566 43.3793V39.4039H56.1352V37.3002H58.1566V35.0816H60.3798V37.3002H63.6131V39.4039H60.3798ZM66.4428 34.0152H68.6659V38.1054H68.6975C69.277 37.4049 70.0706 37.0547 71.0762 37.0547C71.6437 37.0453 72.2011 37.2053 72.6771 37.5142C73.1438 37.8216 73.5057 38.2541 73.765 38.8126C74.0243 39.3701 74.1539 40.0176 74.1539 40.7508V46.0077H71.9308V41.0639C71.9308 40.4828 71.791 40.0278 71.5114 39.7001C71.2307 39.3712 70.8474 39.2068 70.3615 39.2068C69.8316 39.2068 69.4167 39.369 69.1169 39.6911C68.8159 40.0143 68.6659 40.4614 68.6659 41.0312V46.0089H66.4428V34.014V34.0152ZM76.4391 41.6709C76.4391 40.7609 76.615 39.9568 76.9678 39.2552C77.2943 38.5832 77.8069 38.0189 78.4447 37.629C79.076 37.2461 79.8066 37.0547 80.6363 37.0547C81.4345 37.0547 82.147 37.2518 82.7738 37.6459C83.4017 38.0401 83.891 38.5919 84.2439 39.3037C84.5945 40.0154 84.7726 40.8274 84.7726 41.7362V42.4254H78.6623C78.6938 42.9738 78.89 43.4164 79.253 43.7565C79.616 44.0966 80.0929 44.2656 80.6836 44.2656C81.0974 44.2656 81.4818 44.171 81.8336 43.9784C82.1864 43.7869 82.5697 43.457 82.9835 42.984L84.3679 44.4807C83.9122 45.0221 83.352 45.4664 82.7208 45.787C82.0885 46.101 81.3909 46.2612 80.6848 46.2544C79.8449 46.2544 79.1031 46.0629 78.4616 45.68C77.8184 45.296 77.3 44.7344 76.969 44.0628C76.6161 43.3658 76.4391 42.5684 76.4391 41.6709ZM82.5337 40.717C82.5178 40.4878 82.4568 40.2641 82.3543 40.0585C82.2518 39.8529 82.1097 39.6695 81.9362 39.5188C81.5794 39.2012 81.1152 39.0309 80.6374 39.0424C80.1087 39.0424 79.6735 39.1967 79.3308 39.503C78.9892 39.8093 78.7761 40.2147 78.6938 40.7193H82.5337V40.717ZM87.8199 37.3002H89.9495V38.1054H89.9799C90.3328 37.7338 90.698 37.4646 91.0768 37.3002C91.4556 37.1358 91.8874 37.0524 92.3756 37.0524C93.0903 37.0524 93.707 37.2754 94.2244 37.7191C94.743 38.1617 95.1061 38.7665 95.3135 39.5334L93.2301 40.2564C92.9934 39.5447 92.4996 39.1877 91.7533 39.1877C91.1941 39.1877 90.7691 39.36 90.4793 39.7057C90.1885 40.0503 90.043 40.5244 90.043 41.1269V46.0066H87.8199V37.3013V37.3002ZM97.2097 41.6709C97.2097 40.7609 97.3856 39.9568 97.7373 39.2552C98.064 38.5834 98.5765 38.0191 99.2142 37.629C99.8455 37.2461 100.577 37.0547 101.406 37.0547C102.204 37.0547 102.916 37.2518 103.544 37.6459C104.171 38.0401 104.66 38.5919 105.013 39.3037C105.365 40.0154 105.541 40.8274 105.541 41.7362V42.4254H99.4329C99.4633 42.9738 99.6606 43.4164 100.024 43.7565C100.387 44.0966 100.862 44.2656 101.454 44.2656C101.867 44.2656 102.251 44.171 102.604 43.9784C102.956 43.7869 103.34 43.457 103.754 42.984L105.138 44.4807C104.662 45.0381 104.113 45.4739 103.49 45.787C102.858 46.1012 102.16 46.2614 101.454 46.2544C100.614 46.2544 99.8737 46.0629 99.2311 45.68C98.5881 45.2957 98.0699 44.7341 97.7385 44.0628C97.3867 43.3658 97.2097 42.5684 97.2097 41.6709ZM103.304 40.717C103.288 40.4878 103.227 40.2639 103.124 40.0583C103.022 39.8527 102.879 39.6694 102.706 39.5188C102.349 39.2011 101.885 39.0308 101.407 39.0424C100.879 39.0424 100.444 39.1967 100.101 39.503C99.7587 39.8093 99.5467 40.2147 99.4633 40.7193H103.303L103.304 40.717ZM108.061 43.0504V37.3002H110.282V42.5076C110.282 43.5707 110.78 44.1011 111.775 44.1011C112.222 44.1011 112.576 43.957 112.841 43.6653C113.104 43.3759 113.237 42.9896 113.237 42.5076V37.3002H115.458V46.0055H113.33V45.2329H113.298C113.071 45.5404 112.757 45.7859 112.358 45.9728C111.967 46.1578 111.539 46.2532 111.107 46.2521C110.132 46.2521 109.381 45.9706 108.852 45.4075C108.324 44.8422 108.059 44.0561 108.059 43.0493L108.061 43.0504ZM117.746 37.3002H119.705V38.0559H119.737C119.911 37.7608 120.138 37.5333 120.412 37.3745C120.686 37.2169 120.989 37.1358 121.322 37.1358C121.976 37.1358 122.498 37.459 122.891 38.1043H122.923C123.336 37.459 123.907 37.1358 124.633 37.1358C125.233 37.1358 125.721 37.361 126.093 37.8092C126.467 38.2586 126.653 38.8442 126.653 39.5661V46.0077H124.6V39.9782C124.6 39.7271 124.538 39.5356 124.414 39.4039C124.289 39.2721 124.113 39.2068 123.885 39.2068C123.788 39.2026 123.69 39.2202 123.6 39.2584C123.509 39.2966 123.429 39.3544 123.364 39.4275C123.235 39.5762 123.17 39.7766 123.17 40.0278V46.0077H121.226V39.9782C121.226 39.7372 121.166 39.548 121.048 39.4118C120.928 39.2766 120.76 39.2057 120.542 39.2057C120.44 39.2011 120.339 39.2186 120.246 39.2569C120.152 39.2952 120.067 39.3534 119.998 39.4275C119.863 39.5762 119.795 39.7766 119.795 40.0278V46.0077H117.744V37.3002H117.746ZM47.7713 57.712H45.5955V55.6095H47.7713V54.329C47.7713 53.5621 48.0126 52.9573 48.4939 52.5136C48.9765 52.071 49.6416 51.8481 50.4916 51.8481H52.8862V53.9337H50.7554C50.539 53.9337 50.3721 53.9934 50.2594 54.1139C50.1444 54.2355 50.088 54.4045 50.088 54.6241V55.6095H53.3833V57.712H50.088V63.3474H47.7713V57.712ZM55.6685 58.9936C55.6685 58.096 55.8455 57.2987 56.1984 56.6039C56.5288 55.9324 57.0433 55.3685 57.682 54.9777C58.3201 54.5892 59.0472 54.3943 59.8668 54.3943C60.6954 54.3943 61.4294 54.5892 62.0663 54.9777C62.7052 55.3685 63.2201 55.9324 63.5511 56.6039C63.9039 57.2987 64.0798 58.096 64.0798 58.9936C64.0798 59.8923 63.9028 60.6874 63.5511 61.3845C63.2203 62.0557 62.7054 62.6193 62.0663 63.0095C61.4294 63.3981 60.6954 63.5929 59.8668 63.5929C59.0472 63.5929 58.3201 63.3981 57.682 63.0095C57.0431 62.6191 56.5282 62.0556 56.1972 61.3845C55.8455 60.6874 55.6685 59.8912 55.6685 58.9936ZM61.8566 58.9936C61.8566 58.2278 61.683 57.6276 61.3358 57.194C60.9885 56.7615 60.4993 56.5453 59.8668 56.5453C59.2445 56.5453 58.7597 56.7615 58.4125 57.194C58.0653 57.6276 57.8917 58.2278 57.8917 58.9936C57.8917 59.7605 58.0653 60.3596 58.4125 60.7932C58.7597 61.2257 59.2445 61.4419 59.8668 61.4419C60.488 61.4419 60.975 61.2223 61.3279 60.7842C61.6808 60.3473 61.8566 59.7493 61.8566 58.9936ZM66.5194 60.3889V54.641H68.7426V59.8484C68.7426 60.9103 69.2397 61.4419 70.2352 61.4419C70.6805 61.4419 71.0356 61.2966 71.3006 61.0061C71.5644 60.7166 71.6963 60.3304 71.6963 59.8472V54.6398H73.9194V63.3463H71.7899V62.5748H71.7583C71.5116 62.8957 71.1883 63.1497 70.8181 63.3136C70.4269 63.4984 69.9994 63.5939 69.5667 63.5929C68.5926 63.5929 67.8418 63.3113 67.312 62.7471C66.7843 62.1829 66.5194 61.3957 66.5194 60.3889ZM76.8269 54.6398H79.0512V55.4619H79.0817C79.4142 55.1106 79.7716 54.8448 80.1538 54.6646C80.5371 54.4844 80.9723 54.3943 81.4615 54.3943C81.9993 54.3943 82.501 54.5261 82.9677 54.7952C83.4344 55.0644 83.8132 55.4743 84.103 56.0284C84.3927 56.5802 84.5381 57.2672 84.5381 58.0893V63.3463H82.3149V58.4024C82.3149 57.8438 82.1797 57.3944 81.9102 57.0543C81.6408 56.7154 81.253 56.5442 80.7445 56.5442C80.2158 56.5442 79.8009 56.7064 79.501 57.0284C79.2 57.3517 79.0501 57.7987 79.0501 58.3686V63.3463H76.8281V54.6387L76.8269 54.6398ZM86.6531 58.9936C86.6531 58.1174 86.8143 57.3291 87.1356 56.6286C87.4569 55.927 87.9067 55.3797 88.4884 54.9844C89.0699 54.5903 89.7587 54.3843 90.4613 54.3943C91.3948 54.3943 92.1253 54.6567 92.654 55.1826H92.6845V51.3548H94.9065V63.3474H92.8547V62.5917H92.8243C92.2132 63.2595 91.4151 63.594 90.4309 63.594C89.7048 63.594 89.0555 63.4026 88.4805 63.0197C87.9056 62.6356 87.4546 62.0962 87.1344 61.4014C86.8131 60.7065 86.6519 59.9036 86.6519 58.9947H86.6531V58.9936ZM92.6845 59.5511V58.4193C92.6845 58.0904 92.601 57.7841 92.4364 57.4981C92.2694 57.212 92.0309 56.9741 91.7442 56.8077C91.4451 56.632 91.1036 56.5413 90.7567 56.5453C90.1749 56.5453 89.7172 56.7672 89.3813 57.2098C89.0431 57.6546 88.8751 58.2481 88.8751 58.9936C88.8751 59.7267 89.0453 60.318 89.388 60.7662C89.7308 61.2155 90.1817 61.4396 90.7409 61.4396C91.2989 61.4396 91.7645 61.2561 92.1321 60.8901C92.4996 60.5229 92.6845 60.077 92.6845 59.5511ZM97.7215 61.0151C97.7215 60.2042 97.9831 59.5736 98.5062 59.1254C99.0293 58.6772 99.9041 58.3483 101.126 58.14C101.769 58.0307 102.207 57.9069 102.44 57.7706C102.674 57.6343 102.789 57.4496 102.789 57.2188C102.791 57.0943 102.761 56.9714 102.701 56.8623C102.641 56.7531 102.554 56.6613 102.447 56.596C102.221 56.4417 101.909 56.3651 101.515 56.3651C101.07 56.3651 100.683 56.507 100.356 56.7931C100.029 57.078 99.8207 57.4553 99.7271 57.926L97.6584 57.4339C97.7621 56.8415 97.9955 56.3156 98.3585 55.855C98.7234 55.3937 99.1924 55.0251 99.7271 54.7795C100.287 54.5197 100.897 54.3877 101.514 54.3932C102.571 54.3932 103.416 54.7052 104.049 55.3279C104.681 55.9541 104.996 56.7863 104.996 57.8258V63.3451H103.008V62.3766H102.976C102.738 62.7595 102.403 63.0568 101.973 63.2708C101.544 63.4848 101.06 63.5906 100.52 63.5906C99.9808 63.5906 99.4983 63.4825 99.0744 63.264C98.662 63.0572 98.3168 62.7378 98.0789 62.3428C97.8387 61.9411 97.715 61.4807 97.7215 61.0128V61.0151ZM102.883 60.1108V59.1254H102.853C102.744 59.3034 102.58 59.4416 102.387 59.5195C102.169 59.6186 101.826 59.7177 101.361 59.8157C100.78 59.9475 100.38 60.086 100.163 60.2346C100.06 60.3003 99.9758 60.3916 99.9185 60.4995C99.8612 60.6075 99.833 60.7285 99.8365 60.8507C99.8306 60.9632 99.854 61.0753 99.9044 61.1762C99.9548 61.277 100.03 61.3631 100.124 61.4261C100.316 61.5579 100.593 61.6232 100.956 61.6232C101.287 61.6232 101.604 61.5556 101.904 61.4171C102.205 61.2786 102.443 61.0939 102.62 60.8597C102.796 60.6254 102.884 60.3754 102.884 60.1119L102.883 60.1108ZM112.304 56.7435V60.2425C112.304 60.5376 112.368 60.7516 112.499 60.8822C112.628 61.0151 112.842 61.0804 113.144 61.0804H115.025V63.3463H112.942C112.029 63.3463 111.324 63.1188 110.828 62.6649C110.331 62.2099 110.082 61.5613 110.082 60.7178V56.7424H108.061V54.641H110.082V52.4224H112.305V54.641H115.538V56.7446H112.306L112.304 56.7435ZM126.234 61.1953V63.3463H118.135V61.1953H121.073V56.7919H118.288V54.641H123.296V61.1953H126.234ZM121.025 50.9606H123.312V53.276H121.025V50.9606ZM128.364 58.9936C128.364 58.096 128.54 57.2987 128.892 56.6039C129.222 55.932 129.737 55.3679 130.377 54.9777C131.014 54.5892 131.743 54.3943 132.561 54.3943C133.39 54.3943 134.124 54.5892 134.761 54.9777C135.4 55.3684 135.915 55.9324 136.246 56.6039C136.598 57.2987 136.774 58.096 136.774 58.9936C136.774 59.8923 136.598 60.6874 136.246 61.3845C135.916 62.056 135.401 62.6197 134.761 63.0095C134.124 63.3981 133.39 63.5929 132.561 63.5929C131.743 63.5929 131.014 63.3981 130.377 63.0095C129.738 62.6191 129.223 62.0556 128.892 61.3845C128.54 60.6874 128.364 59.8912 128.364 58.9936ZM134.551 58.9936C134.551 58.2278 134.378 57.6276 134.03 57.194C133.682 56.7615 133.193 56.5453 132.561 56.5453C131.939 56.5453 131.455 56.7615 131.107 57.194C130.76 57.6276 130.587 58.2278 130.587 58.9936C130.587 59.7605 130.759 60.3596 131.107 60.7932C131.455 61.2257 131.939 61.4419 132.561 61.4419C133.183 61.4419 133.67 61.2223 134.022 60.7842C134.374 60.3461 134.551 59.7493 134.551 58.9936ZM139.139 54.6398H141.361V55.4619H141.392C141.697 55.1314 142.06 54.8609 142.464 54.6646C142.874 54.4785 143.32 54.3862 143.77 54.3943C144.31 54.3943 144.812 54.5261 145.278 54.7952C145.745 55.0644 146.124 55.4743 146.414 56.0284C146.703 56.5802 146.849 57.2672 146.849 58.0893V63.3463H144.626V58.4024C144.626 57.8438 144.49 57.3944 144.221 57.0543C143.951 56.7154 143.563 56.5442 143.054 56.5442C142.526 56.5442 142.112 56.7064 141.812 57.0284C141.511 57.3517 141.361 57.7987 141.361 58.3686V63.3463H139.139V54.6398Z" fill="white"/>
<path d="M24.1414 59.2717V70.2203L11.5645 50.8074L24.1414 59.2717Z" fill="#18ABD3"/>
<path d="M36.7187 50.8074L24.1406 70.2203V59.2717L36.7187 50.8074Z" fill="#6B7ABA"/>
<path d="M36.7187 48.0719L24.1406 40.5209V56.5373L36.7187 48.0719Z" fill="#A566A6"/>
<path d="M36.7187 48.072L24.1406 25.0002V40.5199L36.7187 48.072Z" fill="#F08A78"/>
<path d="M24.1414 25.0002V40.52L11.5645 48.0732L24.1414 25.0002Z" fill="#FFEB5C"/>
<path d="M24.1414 40.52V56.5375L11.5645 48.0721L24.1414 40.52Z" fill="#58B36F"/>
</g>
<defs>
<clipPath id="clip0_761_24177">
<rect width="136.411" height="46.173" fill="white" transform="translate(11 25.0001)"/>
</clipPath>
</defs>
</svg>
