<svg width="121" height="72" viewBox="0 0 121 72" fill="none" xmlns="http://www.w3.org/2000/svg">
<path d="M3.2947 18.6334C1.72027 20.6683 1.65466 20.9309 2.70429 23.1627C3.55711 25.0007 5.65636 25.8541 7.75561 25.132C8.87083 24.8038 9.13324 25.0007 9.13324 26.1166C9.13324 28.3485 7.95241 29.9239 5.32835 31.368C3.68831 32.287 3.42591 32.6152 4.54113 32.287C9.59245 30.9742 12.4133 27.6264 12.4133 23.0971C12.4133 17.7144 6.37798 14.7605 3.2947 18.6334Z" fill="#E01296"/>
<path d="M60.957 35.6356V54.3436H63.9091C66.402 54.3436 66.8612 54.1467 66.8612 53.0307C66.8612 51.521 67.3204 51.3897 68.7636 52.6369C70.1412 53.8184 73.8149 55 76.0454 55C78.6695 55 83.3272 53.2277 85.0984 51.521C88.2473 48.6327 89.2969 45.4162 89.0345 39.8367C88.8377 35.373 88.5753 34.454 86.804 32.2222C82.7367 27.1677 75.783 25.3954 70.4693 28.0867C69.026 28.8088 67.7796 29.3996 67.714 29.3996C67.5828 29.3996 67.5172 26.5769 67.5172 23.1635V16.9275H64.2371H60.957V35.6356ZM79.9815 33.8632C82.4087 35.6356 83.524 39.7054 82.6055 43.1844C81.4903 47.3199 79.3911 49.0922 75.7174 49.0922C72.3061 49.0922 70.3381 48.3045 68.698 46.2039C67.1236 44.366 67.1236 37.5392 68.5668 35.373C70.9285 32.0252 76.5046 31.3032 79.9815 33.8632Z" fill="white"/>
<path d="M114.097 23.4269V29.8598L111.014 28.2844C104.781 25.0679 96.7124 27.5623 93.4979 33.6671C91.3987 37.6712 91.5955 44.5637 93.8915 48.4365C97.2372 54.2131 105.044 56.5762 111.014 53.491C113.9 51.9812 114.097 51.9812 114.097 53.0971C114.097 54.1474 114.622 54.3443 117.049 54.3443H120.001V35.6363V16.9283H117.049H114.097V23.4269ZM111.538 34.3891C114.884 37.6056 114.884 43.8416 111.473 47.255C109.898 48.7648 109.045 49.093 106.29 49.093C103.601 49.093 102.617 48.7648 100.911 47.255C98.2212 44.8919 97.4996 39.6405 99.3365 36.2271C101.698 31.7634 107.865 30.8444 111.538 34.3891Z" fill="white"/>
<path d="M18.5152 28.1533C13.9231 30.3851 13.0703 33.0765 13.0703 44.6951V54.3445H16.3504H19.6305V45.2203C19.6305 36.5555 19.6961 35.9647 21.1393 34.258C22.4513 32.7482 23.2386 32.4857 25.8626 32.4857C28.4867 32.4857 29.2739 32.7482 30.5859 34.258C32.0292 35.9647 32.0948 36.5555 32.0948 45.2203V54.3445H35.3748H38.6549V45.6141C38.6549 39.9689 38.9829 36.3586 39.5077 35.3083C40.623 33.0765 44.3623 31.8949 47.5111 32.7482C51.0536 33.7329 51.7752 36.0303 51.7752 46.1392V54.4102L54.9241 54.2132L58.0074 54.0163L57.9418 44.4982C57.8762 33.7985 57.1546 31.1728 53.4809 28.5471C51.8408 27.3656 50.5288 27.103 46.8551 27.103C42.5254 27.103 42.0006 27.2999 38.7861 29.5974L35.3092 32.0918L33.21 30.3195C28.7491 26.5122 23.3698 25.7245 18.5152 28.1533Z" fill="white"/>
</svg>
