<svg width="160" height="47" viewBox="0 0 160 47" fill="none" xmlns="http://www.w3.org/2000/svg">
<g clip-path="url(#clip0_2480_694)">
<path d="M153.868 13.309V0.384277H159.798V13.309H153.868ZM143.431 13.309V0.384277H149.361V13.309H143.431ZM113.603 45.4599H121.015V29.1917C121.015 22.247 124.573 19.0962 127.776 19.0962C130.978 19.0962 133.053 21.2825 133.053 26.5552V45.4599H140.466V24.9476C140.466 17.4243 136.671 12.666 130.503 12.666C126.175 12.666 122.854 15.1094 121.015 20.4464V0.384277H113.603V45.4599ZM0.871094 45.4599H29.0392V39.0298H18.6614V0.384277H12.4941C12.2569 5.78564 10.8337 7.13598 4.01406 7.13598H0.871094V13.309H11.2488V39.0298H0.871094V45.4599ZM94.7448 19.0962C98.4215 19.0962 101.327 22.247 101.683 26.7482H109.333C108.266 18.1959 102.454 12.666 94.7448 12.666C86.3833 12.666 79.7417 19.6749 79.7417 29.3844C79.7417 39.0942 86.3833 46.103 94.7448 46.103C102.454 46.103 108.266 40.6374 109.333 32.0851H101.683C101.327 36.5863 98.4215 39.6729 94.7448 39.6729C91.0681 39.6729 87.3322 36.1362 87.3322 29.3844C87.3322 22.6327 90.9495 19.0962 94.7448 19.0962ZM48.312 45.4599H55.7246V29.1917C55.7246 22.247 59.2827 19.0962 62.4851 19.0962C65.6872 19.0962 67.7628 21.2825 67.7628 26.5552V45.4599H75.1754V24.9476C75.1754 17.4243 71.3802 12.666 65.2129 12.666C60.8839 12.666 57.563 15.1094 55.7246 20.4464V13.309H48.312V45.4599ZM33.4867 0.384277V8.42203H40.8993V0.384277H33.4867ZM33.4867 13.309V45.4599H40.8993V13.309H33.4867Z" fill="white"/>
</g>
<defs>
<clipPath id="clip0_2480_694">
<rect width="158.927" height="45.7188" fill="white" transform="translate(0.871094 0.384277)"/>
</clipPath>
</defs>
</svg>
