<svg width="160" height="96" viewBox="0 0 160 96" fill="none" xmlns="http://www.w3.org/2000/svg">
<path d="M70.0664 34.3119H75.811V57.2099H81.5556V28.5874H75.811C72.6515 28.5874 70.0664 31.1634 70.0664 34.3119Z" fill="white"/>
<path d="M87.3008 40.0366V57.2101H93.0454V45.7611C93.0454 42.6126 90.4603 40.0366 87.3008 40.0366Z" fill="white"/>
<path d="M110.278 40.0366H98.7891V57.2101H104.534V45.7611H110.278V51.4856C110.278 54.6341 112.863 57.2101 116.023 57.2101V45.7611C116.023 42.6126 113.438 40.0366 110.278 40.0366Z" fill="white"/>
<path d="M150.493 40.0364H144.748V34.3119C144.748 31.1634 142.163 28.5874 139.003 28.5874V51.4854H127.514V45.7609H133.259V40.0364H127.514C124.355 40.0364 121.77 42.6124 121.77 45.7609V51.4854C121.77 54.6339 124.355 57.2099 127.514 57.2099H144.748V45.7609H150.493V51.4854C150.493 54.6339 153.078 57.2099 156.237 57.2099V45.7609C156.237 42.6124 153.652 40.0364 150.493 40.0364Z" fill="white"/>
<path d="M87.3008 28.5874V34.3119H93.0454C93.0454 31.1634 90.4603 28.5874 87.3008 28.5874Z" fill="white"/>
<path d="M46.9293 26.5979C46.9293 26.5979 49.2846 26.6981 51.7261 26.97C46.2112 22.648 40.9836 21.3886 36.747 21.3886C30.9018 21.3886 26.9524 23.7786 26.7226 23.9217L28.5609 21.0165C28.5609 21.0165 21.2078 20.3152 18.6227 28.0576C17.9621 26.4118 17.3445 24.0219 17.3445 24.0219C17.3445 24.0219 13.5244 27.3564 15.3196 32.8948C10.9393 31.3063 4.67768 29.088 4.44789 29.0451C4.11758 29.0022 4.01704 29.1453 4.01704 29.1453C4.01704 29.1453 3.91651 29.2884 4.20375 29.5174C4.72076 29.9467 14.6159 37.2169 16.7701 38.6194C16.2962 40.3081 16.2962 41.1095 16.7701 41.911C17.4307 42.9843 17.4738 43.5567 17.3876 44.3582C17.2871 45.1596 16.4398 52.0576 16.2531 52.902C16.0664 53.7464 14.0845 56.7517 14.185 57.639C14.2855 58.5263 15.5063 62.3331 16.5834 62.7482C17.3876 63.0344 19.3552 63.6355 20.6764 63.6355C21.1504 63.6355 21.5668 63.5353 21.7535 63.3492C22.5578 62.648 22.7876 62.5049 23.3477 62.5049H23.4913C23.7211 62.5049 24.0083 62.5478 24.3386 62.5478C25.0854 62.5478 26.0764 62.4047 26.7944 61.7464C27.8285 60.716 29.6237 59.2991 30.1838 58.6551C30.8875 57.7678 31.2609 56.5371 31.0742 55.3206C30.9306 54.19 31.5481 53.2025 32.2518 52.2294C33.1422 51.0559 34.7938 48.9378 34.7938 48.9378C38.0395 51.385 40.0645 55.0916 40.0645 59.2133C40.0645 66.5406 33.6593 72.4512 25.746 72.4512C24.5253 72.4512 23.3477 72.3081 22.17 72.0219C25.7891 73.2956 28.8625 73.7106 31.347 73.7106C36.6752 73.7106 39.49 71.7929 39.49 71.7929C39.49 71.7929 38.4991 73.0666 36.905 74.512H36.948C45.7517 73.2956 50.0458 66.0684 50.0458 66.0684C50.0458 66.0684 49.7154 68.4154 49.299 70.004C61.018 61.2312 59.0504 50.2544 58.993 49.868C59.0935 50.0111 60.2712 51.4136 60.8744 52.1721C62.7988 32.8376 46.9293 26.5979 46.9293 26.5979Z" fill="#1B314F"/>
<path d="M46.3722 58.0388C46.4727 57.6667 46.8892 57.4234 47.3631 57.1945C47.6934 57.0084 48.1099 56.7651 48.1673 56.6363C48.354 55.563 48.4546 54.4753 48.4546 53.402C48.4546 53.173 48.0812 52.7866 47.7509 52.5147C47.3775 52.1426 47.0041 51.7705 46.9466 51.3841C46.6163 48.3358 45.4817 45.3733 43.6435 42.9404C43.7871 44.6292 43.744 46.69 43.2701 49.0943C46.6594 55.0478 44.5482 62.5612 40.168 67.1122C43.1121 64.851 45.3238 61.6596 46.3722 58.0388Z" fill="white"/>
<path d="M29.4092 55.3629C28.8922 53.345 26.8672 52.2717 26.2066 52.3146C25.4598 52.4148 24.4114 52.5436 24.0811 52.7869C24.6986 51.8423 25.5459 51.3844 26.3933 51.1411C27.097 49.1232 28.6049 44.9872 28.9353 44.7153C29.122 44.5722 29.5959 44.4291 30.4001 44.2001C30.8741 44.0999 31.5347 43.9139 31.6209 43.828C31.8076 43.5418 33.6889 39.0481 33.8325 38.7189C33.7895 38.3897 32.8416 35.9998 31.8506 33.6956C29.4523 35.4273 26.8528 34.9694 26.8528 34.9694C26.8528 34.9694 28.6911 34.4541 30.5725 31.6778C32.4108 28.9157 30.673 25.1089 30.673 25.1089C30.673 25.1089 24.2247 34.769 23.4204 34.9694C22.6162 35.1554 22.0561 34.1679 22.0561 34.1679C22.0561 34.1679 20.3614 38.5758 19.8875 40.1787C19.4136 41.7672 19.988 43.2699 20.4045 44.0284C20.8784 44.7726 21.8694 46.6617 20.505 48.5794C20.6917 47.735 19.8444 46.4184 19.2269 45.6169C18.9971 47.6778 18.3795 52.6151 18.1928 53.4023C18.0923 53.9604 17.762 54.5758 17.2019 55.6491C16.9147 56.2073 16.3546 57.1948 16.2109 57.667C16.3976 58.5114 17.1014 60.5293 17.5753 61.1447C18.2359 61.3736 19.1694 61.6169 19.9737 61.76C20.3471 61.76 20.821 61.574 21.4816 60.9586C22.7024 59.828 23.5066 59.227 23.7364 57.9962C23.9662 56.8227 23.88 54.9908 24.4401 54.4756C24.9571 53.9604 26.0917 53.7314 26.9821 53.9604C26.2784 53.9604 25.4741 54.2896 25.4741 54.2896C25.4741 54.2896 26.8385 54.0606 27.3555 55.0338C27.8725 56.0212 27.456 56.5794 26.6087 57.1518C25.905 57.6241 23.8369 59.7851 23.1188 60.7153H23.5497H23.7364H24.0236H24.5406C25.1007 60.7153 25.4885 60.6151 25.6752 60.4291C26.1491 59.9568 26.7523 59.4416 27.3268 58.9264C27.8869 58.4112 28.6911 57.71 28.8778 57.4667C29.2512 56.9085 29.4954 56.193 29.3948 55.4488V55.3629H29.4092ZM27.0539 32.5651L30.2134 27.9139C30.2134 27.9139 30.6443 29.7887 29.5528 31.0624C28.1885 32.608 27.0108 32.5651 27.0539 32.5651ZM18.3508 58.7976C17.7333 58.8406 17.5035 58.0964 17.6471 57.667C17.7907 57.2949 19.3418 54.5758 19.3418 54.5758L18.9684 56.4506C18.9684 56.4506 19.7152 56.3504 19.7152 57.1948C19.7152 57.8531 18.954 58.7404 18.3508 58.7976ZM23.2912 44.9014C23.0039 45.9747 20.6056 45.5168 21.496 42.0821C21.496 42.0821 21.9268 43.7278 22.3433 43.5847C22.7742 43.4416 27.5709 35.9425 27.5709 35.9425C27.5709 35.9425 26.9534 37.9175 26.5369 38.905C28.1885 39.2341 28.6624 41.1518 27.7576 42.1965C26.8672 43.1697 24.6124 44.5722 23.2912 44.9014Z" fill="white"/>
<path d="M34.0727 31.105C33.7423 31.6202 33.412 32.0925 33.0817 32.4646C33.7854 34.1962 35.6237 38.7472 35.6237 38.9905C35.6237 39.2767 34.7333 41.5665 34.6328 41.6667C34.5322 41.7096 33.4551 41.8098 33.0386 41.8098C32.5647 42.9404 32.0908 44.0137 32.0046 44.1569C31.861 44.3429 31.4445 44.486 30.5397 44.715C30.0658 44.8581 29.3621 45.0442 29.2615 45.1443C29.0318 45.4306 27.7536 48.7508 26.9062 51.0978C28.0408 50.9118 29.0318 51.1408 29.2615 51.2409C31.0998 47.7633 32.5647 45.8885 32.9381 45.8885C33.3115 45.8456 37.7923 46.5039 39.53 42.325C41.2247 38.1891 38.7832 34.6828 38.6827 34.5397C38.7832 34.5826 42.546 36.3286 43.4795 41.9529C45.605 44.6291 46.9693 47.8635 47.3427 51.2982C47.3427 51.5272 47.7161 51.8563 47.9603 52.1425C48.3911 52.5719 48.8076 52.9869 48.8076 53.4163C48.8076 54.5468 48.7071 55.6631 48.5204 56.7508C48.4198 57.1229 47.9603 57.4091 47.4863 57.6381C47.1991 57.8241 46.7826 58.0674 46.7395 58.1962C45.7055 61.9028 43.3502 65.1944 40.2912 67.5415C46.7826 64.4502 51.2634 57.8241 51.2634 50.2248C51.2634 40.3071 43.7236 32.1354 34.0727 31.105Z" fill="white"/>
<path d="M26.6792 55.7355C26.6792 55.0772 25.7887 54.9341 25.401 55.0343C25.0276 55.1344 24.9271 55.7355 24.884 56.0647C24.8409 56.3938 24.884 57.4243 24.4531 58.0396C24.5537 57.9395 25.1999 57.2382 25.5302 56.909C26.0185 56.494 26.6792 56.3509 26.6792 55.7355Z" fill="white"/>
<path d="M19.0538 37.1161C19.3841 36.5007 19.0969 36.0856 18.824 35.8424C18.781 35.7994 18.7235 35.7422 18.7235 35.7422C18.1634 35.4559 14.6305 34.1536 11.1406 32.9229C14.1996 34.9407 17.589 36.9157 18.1634 37.1876C18.5799 37.388 18.8671 37.4452 19.0538 37.1161Z" fill="white"/>
<path d="M32.3925 34.969C32.2201 34.554 32.0334 34.1247 31.8467 33.6953C29.5058 35.384 26.9925 34.9833 26.8633 34.969C26.9925 34.9833 29.4914 35.7704 32.3925 34.969Z" fill="#94A6C3"/>
<path d="M37.3004 31.7352C36.252 31.4346 35.1749 31.22 34.0691 31.1055C33.7388 31.6207 33.4084 32.0929 33.0781 32.465C33.2792 32.9516 33.5664 33.6529 33.868 34.4257C35.0313 33.8675 36.2233 33.0232 37.3004 31.7352Z" fill="#94A6C3"/>
<path d="M29.4049 55.3631C28.8879 53.3452 26.8629 52.2719 26.2023 52.3148C25.4555 52.415 24.4071 52.5438 24.0768 52.7871C24.6943 51.8426 25.5416 51.3846 26.389 51.1413C26.6331 50.4544 26.9634 49.5241 27.3081 48.5796C26.5039 49.0089 23.6603 50.5116 23.4161 50.669C23.1289 50.8551 22.138 52.83 21.3912 54.8909C20.9603 53.5742 20.0268 52.7728 19.9837 52.7299C20.0268 52.9588 21.0178 56.8658 20.6874 58.0393C20.3571 59.2558 18.2891 60.3435 18.2891 60.3435L21.4055 61.0304C21.4342 61.0018 21.463 60.9731 21.4917 60.9445C22.7124 59.8139 23.5167 59.2129 23.7464 57.9821C23.9762 56.8086 23.8901 54.9767 24.4502 54.4615C24.9672 53.9463 26.1017 53.7173 26.9922 53.9463C26.7336 53.9463 26.4751 53.9892 26.231 54.0465C27.0352 54.0608 28.098 54.3613 28.0693 55.9642C28.0693 57.1807 26.7049 57.2808 25.3406 58.4114C25.0677 58.6404 24.7661 58.898 24.4645 59.1842C23.9188 59.771 23.4161 60.3435 23.1289 60.7155H24.5363C25.0964 60.7155 25.4842 60.6154 25.6709 60.4293C26.1448 59.957 26.748 59.4418 27.3225 58.9266C27.8826 58.4114 28.6868 57.7102 28.8735 57.4669C29.2469 56.9087 29.4911 56.1932 29.3905 55.449V55.3631H29.4049Z" fill="#94A6C3"/>
<path d="M33.3092 44.6726C31.6576 44.6726 29.4459 45.7459 29.4459 45.7459L27.2773 51.0411C28.2396 50.9552 29.0438 51.1413 29.2592 51.2271C31.0975 47.7495 32.5624 45.8747 32.9358 45.8747C33.3092 45.8318 37.79 46.4901 39.5277 42.3112C41.2224 38.1753 38.7809 34.669 38.6804 34.5259C40.6623 41.0089 36.282 44.6153 33.3092 44.6726Z" fill="#94A6C3"/>
<path d="M46.3682 58.0393C46.4688 57.6672 46.8853 57.4239 47.3592 57.1949C47.6895 57.0089 48.106 56.7656 48.1634 56.6368C48.3501 55.5635 48.4507 54.4758 48.4507 53.4025C48.4507 53.1735 48.0773 52.7871 47.747 52.5152C47.3736 52.1431 47.0002 51.7567 46.9427 51.3846C46.6124 48.3363 45.4778 45.3738 43.6396 42.9409C43.7832 44.6296 43.7401 46.6905 43.2662 49.0805C46.6555 55.0339 44.5443 62.5474 40.1641 67.0983C43.1082 64.8515 45.3199 61.6601 46.3682 58.0393Z" fill="#94A6C3"/>
<path d="M50.7342 49.2234C49.0539 39.7493 39.4317 34.8692 38.6992 34.54C39.0008 34.6832 42.4189 36.4148 43.4242 41.6098C45.7651 44.3289 47.23 47.735 47.6321 51.3272C47.6321 51.5561 47.9624 51.8853 48.2927 52.1715C48.7236 52.6009 49.1401 53.0159 49.1401 53.4452C49.1401 54.5758 49.0395 55.6921 48.8528 56.7798C48.7523 57.1518 48.2927 57.3951 47.8188 57.6671C47.5316 57.8531 47.1151 58.0964 47.072 58.2252C46.1098 61.617 44.0992 64.6366 41.4279 66.9264C41.2125 67.1125 40.9971 67.2842 40.7673 67.4703C45.8369 64.608 49.4129 60.2574 50.5762 55.3057C51.0214 53.345 51.1076 51.2985 50.7342 49.2234Z" fill="#94A6C3"/>
<path d="M23.6641 44.0148L26.1199 39.8359C26.1199 39.8359 27.5273 40.5372 26.8236 41.6678C25.9188 42.9844 23.6641 44.0148 23.6641 44.0148Z" fill="#FFD923"/>
<path d="M51.5509 43.499C51.7807 43.9284 57.5827 54.5759 51.5078 66.211C52.4557 65.2665 53.2456 64.2933 53.9636 63.3488C58.0136 57.7244 57.4535 49.982 52.786 44.8157C52.3982 44.3863 51.9817 43.9141 51.5509 43.499Z" fill="#D82122"/>
<path d="M59.6051 48.3789C59.5046 42.3682 57.4796 37.2161 53.5733 33.0802C53.5302 33.0372 53.5302 33.0372 53.4727 32.98C50.0403 29.3735 44.9994 27.6705 40.0016 28.3861C38.1203 28.6151 36.2389 29.0015 34.774 29.4594C34.5442 29.5024 34.3001 29.5596 34.0703 29.6455H34.1708C34.5442 29.6025 41.4234 29.2734 47.8287 33.4952C54.4781 37.8601 57.4796 42.6973 59.6051 48.3789Z" fill="#D82122"/>
<path d="M46.3214 25.1517C43.2193 23.6061 39.9592 22.8047 36.7135 22.7617C35.4928 22.7617 34.3582 22.8619 33.3242 23.0479C29.6476 23.7063 26.6317 26.3395 25.5977 29.8458C25.5977 29.8458 26.3445 28.6723 28.1396 27.4558C28.8003 26.5685 29.8343 25.1517 30.8253 23.9782C31.1125 24.5936 31.4428 25.3377 31.529 25.7098C34.789 24.4934 39.3129 23.8351 46.3214 25.1517Z" fill="#D82122"/>
<path d="M16.7911 27.2129C16.6905 27.585 14.8666 33.9678 20.3671 34.1539C17.1788 32.2361 16.7911 27.2558 16.7911 27.2129Z" fill="#D82122"/>
<path d="M25.7971 22.6616C25.4668 22.8047 18.3578 25.1088 22.4078 31.2484C22.4078 31.2484 21.5604 25.1947 25.7971 22.6616Z" fill="#D82122"/>
</svg>
