<svg width="160" height="96" viewBox="0 0 160 96" fill="none" xmlns="http://www.w3.org/2000/svg">
<g clip-path="url(#clip0_2345_942)">
<path fill-rule="evenodd" clip-rule="evenodd" d="M2.06997 34.8293C10.6599 29.9652 20.9057 31.2071 25.1489 32.5525C25.9768 32.7595 26.3908 33.5874 26.1838 34.4154C25.9768 35.2433 25.1489 35.6573 24.3209 35.4503C20.4917 34.3119 11.1773 33.1735 3.62236 37.5202C3.41537 37.5202 3.31188 37.6237 3.31188 37.8306C3.62236 43.7297 6.72714 55.114 17.3869 61.0131C18.1114 61.427 18.4218 62.3585 18.0079 63.0829C17.5939 63.8074 16.6625 64.0143 15.938 63.7039C3.93284 56.9768 0.621066 44.4542 0.310587 37.9341C0.207094 36.6922 0.931544 35.4503 2.06997 34.8293Z" fill="white"/>
<path fill-rule="evenodd" clip-rule="evenodd" d="M30.6318 34.6221C31.4598 34.6221 32.1842 35.243 32.1842 36.071C32.8052 46.9377 27.1131 54.8032 23.4908 58.2184C22.5594 59.0464 21.214 59.3569 19.972 58.8394C17.3847 57.701 14.9009 55.4241 12.831 53.0438C10.7612 50.6635 9.0018 48.1796 8.07036 46.5238C7.65639 45.7993 7.86338 44.8679 8.58783 44.4539C9.31228 44.0399 10.2437 44.2469 10.6577 44.9714C11.5891 46.5238 13.245 48.9041 15.1079 51.0774C17.0742 53.3543 19.2476 55.2172 21.1105 56.0451C21.214 56.0451 21.3175 56.0451 21.4209 55.9416C24.6292 53.0438 29.7004 45.9028 29.1829 36.1745C29.1829 35.45 29.8039 34.7256 30.6318 34.6221Z" fill="white"/>
<path fill-rule="evenodd" clip-rule="evenodd" d="M14.4874 40.4179C11.7966 40.7284 9.51976 41.3493 8.38134 41.7633C7.65689 42.0738 6.72545 41.6598 6.41497 40.9353C6.1045 40.2109 6.41497 39.383 7.24292 39.0725C8.69182 38.4515 11.1756 37.7271 14.1769 37.5201C17.0747 37.2096 20.5935 37.3131 23.9053 38.4515C25.3542 38.969 26.2856 40.3144 26.1821 41.8668C25.9751 45.0751 24.5262 48.3868 21.5249 52.2161C21.0075 52.837 20.076 52.9405 19.4551 52.5265C18.8341 52.0091 18.7306 51.0776 19.1446 50.4567C21.9389 46.9379 23.0773 44.1436 23.1808 41.7633C23.1808 41.6598 23.0773 41.4528 22.8703 41.4528C20.1795 40.2109 17.1782 40.1074 14.4874 40.4179Z" fill="white"/>
<path fill-rule="evenodd" clip-rule="evenodd" d="M2.17232 34.726C2.17232 34.726 2.06883 34.726 2.06883 34.8295C2.06883 34.8295 1.96533 34.8295 1.96533 34.933C0.930404 35.554 0.309447 36.7959 0.309447 38.0378C0.619926 44.4544 3.9317 56.977 15.9369 63.6005C16.6613 64.0145 17.5928 63.704 18.0067 62.9796C18.4207 62.2551 18.1102 61.3237 17.3858 60.9097C6.72601 55.1141 3.62122 43.7299 3.31074 37.8308C3.31074 37.6238 3.41423 37.5203 3.51773 37.4168C11.0727 33.0701 20.3871 34.2086 24.2163 35.347C25.0442 35.554 25.8722 35.14 26.0792 34.3121C26.2862 33.4841 25.8722 32.6562 25.0442 32.4492C20.9045 31.2073 10.7622 29.9654 2.17232 34.726ZM1.86184 34.519C10.5552 29.5514 20.9045 30.8968 25.1477 32.2422C26.0792 32.5527 26.5966 33.5876 26.3897 34.519C26.0792 35.4505 25.0442 35.9679 24.1128 35.761C22.2499 35.14 18.9382 34.6225 15.2124 34.726C11.5902 34.726 7.45046 35.554 3.72471 37.6238C3.62122 37.6238 3.62122 37.7273 3.62122 37.8308C3.9317 43.7299 6.93299 54.9071 17.4893 60.8062C18.3172 61.3237 18.6277 62.3586 18.2137 63.2901C17.6963 64.118 16.6613 64.4285 15.7299 64.0145C3.72471 57.184 0.309447 44.5579 -0.00103167 38.0378C-0.104525 36.5889 0.723418 35.2435 1.86184 34.519ZM30.6329 34.4155C31.6678 34.3121 32.4957 35.14 32.4957 36.0714C33.1167 47.0417 27.3211 55.0106 23.6988 58.4259C22.6639 59.3573 21.215 59.6678 19.8696 59.1503C17.1788 58.0119 14.695 55.6316 12.6251 53.3547C10.5552 50.9744 8.79586 48.4906 7.76093 46.7312C7.24347 45.9033 7.55395 44.7648 8.38189 44.2474C9.20983 43.7299 10.3483 44.0404 10.8657 44.8683C11.7972 46.4207 13.3495 48.8011 15.3159 50.9744C17.2823 53.1478 19.3521 55.0106 21.215 55.8386C24.3198 52.9408 29.3909 45.9033 28.8735 36.2784C28.77 35.2435 29.5979 34.4155 30.6329 34.4155ZM14.488 40.7286C11.7972 41.0391 9.62381 41.66 8.48538 42.074C7.55395 42.488 6.51902 41.9705 6.10505 41.0391C5.79457 40.2111 6.20854 39.0727 7.13998 38.7622C8.58888 38.1413 11.1762 37.4168 14.1775 37.1064C17.1788 36.7959 20.6975 36.8994 24.0093 38.0378C25.5617 38.5553 26.7001 40.0042 26.4931 41.7635C26.2862 45.0753 24.7338 48.4906 21.7325 52.2163C21.1115 53.0443 19.9731 53.1478 19.1452 52.5268C18.3172 51.9058 18.2137 50.7674 18.8347 50.043C21.629 46.5242 22.6639 43.8334 22.8709 41.5566C20.0766 40.5216 17.1788 40.4181 14.488 40.7286ZM30.6329 34.6225C31.4608 34.6225 32.1853 35.2435 32.1853 36.0714C32.8062 46.9382 27.1141 54.8036 23.4919 58.2189C22.5604 59.0469 21.215 59.3573 19.9731 58.8399C17.3858 57.7014 14.9019 55.4246 12.8321 53.0443C10.7622 50.6639 9.00285 48.1801 8.07141 46.5242C7.65744 45.7998 7.86443 44.8683 8.58888 44.4544C9.31333 44.0404 10.2448 44.2474 10.6587 44.9718C11.5902 46.5242 13.2461 48.9046 15.1089 51.0779C17.0753 53.3547 19.2486 55.2176 21.1115 56.0456C21.215 56.0456 21.3185 56.0456 21.422 55.9421C24.6303 53.0443 29.7014 45.9033 29.184 36.1749C29.184 35.4505 29.8049 34.726 30.6329 34.6225ZM8.38189 41.7635C9.52031 41.3496 11.7972 40.7286 14.488 40.4181C17.1788 40.1077 20.1801 40.2111 22.9744 41.1426C23.1814 41.2461 23.2849 41.3496 23.2849 41.4531C23.0779 43.8334 22.043 46.6277 19.2486 50.1465C18.7312 50.7674 18.8347 51.6989 19.5591 52.2163C20.1801 52.7338 21.1115 52.6303 21.629 51.9058C24.6303 48.0766 26.0792 44.7648 26.2862 41.5566C26.3897 40.0042 25.3547 38.6588 24.0093 38.1413C20.6975 37.0029 17.1788 37.0029 14.281 37.2099C11.3832 37.5203 8.79586 38.2448 7.34696 38.7622C6.41553 39.3832 6.10505 40.2111 6.41553 40.9356C6.72601 41.7635 7.55395 42.074 8.38189 41.7635Z" fill="white"/>
<path d="M47.8126 58.4258C46.2602 58.4258 44.8113 58.1153 43.4659 57.3908C42.224 56.6664 41.189 55.6314 40.4646 54.286C39.7401 52.9406 39.3262 51.2847 39.3262 49.4219C39.3262 47.559 39.7401 45.9031 40.5681 44.5577C41.396 43.2123 42.5345 42.1774 43.8799 41.5564C45.2253 40.832 46.6742 40.5215 48.2266 40.5215C49.2615 40.5215 50.1929 40.7285 51.0209 41.0389C51.8488 41.3494 52.5733 41.8669 53.1942 42.3844L50.8139 45.6961C49.9859 45.0752 49.2615 44.6612 48.537 44.6612C47.2951 44.6612 46.3637 45.0752 45.6392 46.0066C44.9148 46.8346 44.6043 48.0765 44.6043 49.5254C44.6043 50.9743 44.9148 52.2162 45.6392 53.0441C46.3637 53.8721 47.2951 54.3895 48.4335 54.3895C48.951 54.3895 49.572 54.286 50.0894 54.0791C50.6069 53.8721 51.1244 53.5616 51.5383 53.1476L53.5047 56.4594C52.6768 57.1838 51.7453 57.7013 50.7104 58.0118C49.6755 58.2188 48.744 58.4258 47.8126 58.4258Z" fill="white"/>
<path d="M58.9891 58.4248C57.4367 58.4248 56.1948 57.9073 55.2634 56.9759C54.3319 55.9409 53.918 54.699 53.918 53.2501C53.918 51.4907 54.6424 50.0418 56.1948 49.0069C57.7472 47.972 60.1275 47.351 63.5428 46.937C63.5428 46.2126 63.2323 45.5916 62.8184 45.1777C62.4044 44.7637 61.7834 44.4532 60.852 44.4532C60.1275 44.4532 59.4031 44.5567 58.6786 44.8672C57.9542 45.1777 57.1263 45.4881 56.2983 46.0056L54.4354 42.6938C55.4704 42.0729 56.7123 41.4519 57.8507 41.0379C59.0926 40.624 60.3345 40.417 61.6799 40.417C63.8533 40.417 65.5092 41.0379 66.7511 42.2799C67.8895 43.5218 68.5105 45.4881 68.5105 48.0755V57.9073H64.3708L64.0603 56.1479H63.9568C63.2323 56.7689 62.5079 57.2863 61.6799 57.7003C60.7485 58.2178 59.9206 58.4248 58.9891 58.4248ZM60.645 54.492C61.266 54.492 61.6799 54.3885 62.0939 54.0781C62.5079 53.7676 62.9219 53.4571 63.4393 53.0431V50.0418C61.6799 50.2488 60.438 50.6628 59.7136 51.1803C58.9891 51.6977 58.6786 52.2152 58.6786 52.9396C58.6786 53.4571 58.8856 53.8711 59.1961 54.1815C59.6101 54.3885 60.024 54.492 60.645 54.492Z" fill="white"/>
<path d="M76.0673 58.4252C74.308 58.4252 73.066 57.9078 72.4451 56.8729C71.8241 55.8379 71.4102 54.389 71.4102 52.7331V33.7939H76.4813V52.8366C76.4813 53.3541 76.5848 53.7681 76.7918 53.9751C76.9988 54.182 77.2058 54.2855 77.4127 54.2855C77.5162 54.2855 77.6197 54.2855 77.7232 54.2855C77.8267 54.2855 77.9302 54.2855 78.0337 54.182L78.6547 57.9078C78.3442 58.0113 78.0337 58.1148 77.6197 58.2183C77.1023 58.3218 76.5848 58.4252 76.0673 58.4252Z" fill="white"/>
<path d="M79.7929 58.0111V40.9348H84.864V58.0111H79.7929ZM82.2767 38.3475C81.4488 38.3475 80.7243 38.1405 80.2069 37.623C79.6894 37.2091 79.4824 36.4846 79.4824 35.7602C79.4824 34.9322 79.7929 34.3113 80.3104 33.7938C80.7243 33.2763 81.4488 33.0693 82.2767 33.0693C83.1047 33.0693 83.8291 33.2763 84.3466 33.7938C84.864 34.3113 85.1745 34.9322 85.1745 35.7602C85.1745 36.5881 84.864 37.2091 84.3466 37.7265C83.8291 38.1405 83.2082 38.3475 82.2767 38.3475Z" fill="white"/>
<path d="M87.8652 58.0108V40.9345H92.0049L92.3154 43.1078H92.4189C93.1434 42.3834 93.8678 41.7624 94.6958 41.2449C95.5237 40.7275 96.4551 40.417 97.5936 40.417C98.8355 40.417 99.7669 40.624 100.491 41.1414C101.216 41.6589 101.837 42.2799 102.251 43.2113C102.975 42.3834 103.803 41.7624 104.631 41.2449C105.459 40.624 106.494 40.417 107.632 40.417C109.495 40.417 110.841 41.0379 111.669 42.2799C112.497 43.5218 113.014 45.1777 113.014 47.351V58.0108H107.943V48.0755C107.943 46.8336 107.736 46.0056 107.425 45.4881C107.115 45.0742 106.597 44.7637 105.873 44.7637C105.045 44.7637 104.01 45.2812 102.975 46.4196V58.0108H97.904V48.0755C97.904 46.8336 97.6971 46.0056 97.3866 45.4881C97.0761 45.0742 96.5586 44.7637 95.8342 44.7637C95.0062 44.7637 93.9713 45.2812 92.9364 46.4196V58.0108H87.8652Z" fill="white"/>
<path d="M123.672 58.4248C122.016 58.4248 120.567 58.1143 119.222 57.3898C117.876 56.6654 116.841 55.6304 116.117 54.285C115.392 52.9396 114.979 51.3872 114.979 49.4209C114.979 47.558 115.392 46.0056 116.117 44.6602C116.945 43.3148 117.876 42.2799 119.118 41.5554C120.36 40.831 121.706 40.417 123.051 40.417C124.707 40.417 126.052 40.831 127.087 41.5554C128.122 42.2799 128.95 43.2113 129.468 44.4532C129.985 45.6951 130.295 47.0405 130.295 48.5929C130.295 49.0069 130.295 49.4209 130.192 49.9383C130.192 50.3523 130.088 50.6628 130.088 50.8698H119.843C120.05 52.1117 120.567 53.0431 121.395 53.6641C122.223 54.285 123.154 54.492 124.293 54.492C125.535 54.492 126.777 54.0781 128.019 53.3536L129.675 56.4584C128.847 57.0793 127.812 57.4933 126.777 57.9073C125.742 58.2178 124.603 58.4248 123.672 58.4248ZM119.843 47.558H126.052C126.052 46.6266 125.845 45.7986 125.328 45.2812C124.914 44.6602 124.189 44.3497 123.154 44.3497C122.327 44.3497 121.706 44.6602 121.085 45.1777C120.464 45.6951 120.05 46.5231 119.843 47.558Z" fill="white"/>
<path d="M132.367 58.0118V40.9355H136.507L136.817 43.9367H136.921C137.542 42.7983 138.266 41.9704 139.198 41.3494C140.026 40.7285 140.957 40.5215 141.785 40.5215C142.303 40.5215 142.716 40.5215 143.027 40.625C143.337 40.625 143.648 40.7285 143.855 40.832L143.027 45.1787C142.716 45.0752 142.406 44.9717 142.096 44.9717C141.785 44.9717 141.475 44.8682 141.164 44.8682C140.543 44.8682 139.819 45.0752 139.094 45.5926C138.37 46.0066 137.852 46.8345 137.335 47.973V57.9083H132.367V58.0118Z" fill="white"/>
<path d="M151.719 58.4258C150.27 58.4258 148.925 58.1153 147.579 57.3908C146.337 56.6664 145.302 55.6314 144.474 54.286C143.646 52.9406 143.336 51.2847 143.336 49.4219C143.336 47.559 143.75 45.9031 144.474 44.5577C145.199 43.2123 146.234 42.1774 147.579 41.5564C148.821 40.832 150.27 40.5215 151.719 40.5215C153.168 40.5215 154.513 40.832 155.755 41.5564C156.997 42.2809 158.032 43.2123 158.86 44.5577C159.688 45.9031 159.998 47.559 159.998 49.4219C159.998 51.2847 159.584 52.9406 158.86 54.286C158.032 55.6314 157.1 56.6664 155.755 57.3908C154.513 58.0118 153.168 58.4258 151.719 58.4258ZM151.719 54.286C152.754 54.286 153.582 53.8721 154.099 52.9406C154.617 52.0092 154.927 50.8708 154.927 49.4219C154.927 47.973 154.617 46.7311 154.099 45.9031C153.582 45.0752 152.754 44.5577 151.719 44.5577C150.684 44.5577 149.856 44.9717 149.339 45.9031C148.821 46.7311 148.614 47.973 148.614 49.4219C148.614 50.8708 148.821 52.1127 149.339 52.9406C149.856 53.8721 150.58 54.286 151.719 54.286Z" fill="white"/>
</g>
<defs>
<clipPath id="clip0_2345_942">
<rect width="160" height="33.1177" fill="white" transform="translate(0 31)"/>
</clipPath>
</defs>
</svg>
