<svg width="161" height="96" viewBox="0 0 161 96" fill="none" xmlns="http://www.w3.org/2000/svg">
<g clip-path="url(#clip0_761_24186)">
<mask id="mask0_761_24186" style="mask-type:luminance" maskUnits="userSpaceOnUse" x="17" y="26" width="127" height="44">
<path d="M143.398 26.3153H17.332V69.1756H143.398V26.3153Z" fill="white"/>
</mask>
<g mask="url(#mask0_761_24186)">
<path d="M67.2637 54.7606H71.6391V48.0918H67.5752V44.9809H74.9214V54.7606H78.6709V57.8715H67.2637V54.7606ZM75.7284 41.1572C75.731 41.4925 75.6645 41.8245 75.533 42.1329C75.4097 42.4261 75.2286 42.6916 75.0005 42.9135C74.7692 43.1337 74.4995 43.31 74.2048 43.4339C73.9022 43.5627 73.5766 43.6291 73.2477 43.6291C72.9186 43.6291 72.593 43.5627 72.2904 43.4339C72.0012 43.3077 71.7366 43.1316 71.5088 42.9135C71.2798 42.6924 71.0986 42.4267 70.9763 42.1329C70.8478 41.8237 70.7817 41.4921 70.7817 41.1572C70.7817 40.8224 70.8478 40.4908 70.9763 40.1816C71.0994 39.8882 71.2805 39.6227 71.5088 39.401C71.7367 39.1837 72.0013 39.0085 72.2904 38.8834C72.5926 38.7528 72.9184 38.6855 73.2477 38.6855C73.5769 38.6855 73.9026 38.7528 74.2048 38.8834C74.4994 39.0063 74.769 39.1816 75.0005 39.401C75.2271 39.621 75.408 39.8833 75.533 40.1731C75.6653 40.4842 75.7318 40.8193 75.7284 41.1572Z" fill="white"/>
<path d="M83.0762 39.6752H94.5881V42.9531H86.5142V47.116H94.2766V50.391H86.5142V54.5964H94.8996V57.8743H83.0762V39.6752Z" fill="white"/>
<path d="M107.478 44.9809H111.1L107.985 51.0416V51.5082L111.293 57.8828H107.507L105.082 52.8374H104.615L102.194 57.8828H98.416L101.724 51.5082V51.0416L98.5718 44.9809H102.219L104.615 49.7152H105.082L107.478 44.9809Z" fill="white"/>
<path d="M117.742 52.498C117.759 52.8659 117.855 53.2259 118.025 53.5529C118.192 53.8739 118.423 54.1569 118.705 54.3843C118.999 54.6235 119.334 54.8084 119.693 54.9301C120.075 55.0618 120.476 55.1277 120.88 55.1253C121.533 55.1652 122.183 55.017 122.755 54.6983C123.155 54.4472 123.48 54.0911 123.692 53.6688L126.504 55.23C126.325 55.5946 126.106 55.9389 125.853 56.2566C125.548 56.6384 125.182 56.968 124.771 57.2323C124.271 57.5529 123.728 57.7986 123.157 57.9619C122.432 58.1629 121.683 58.2582 120.931 58.2447C120.024 58.2557 119.123 58.0964 118.274 57.7752C117.496 57.4767 116.79 57.0159 116.204 56.4235C115.605 55.8077 115.144 55.0723 114.85 54.2655C114.515 53.3404 114.351 52.362 114.366 51.3781V51.2197C114.354 50.2936 114.528 49.3744 114.876 48.5159C115.192 47.7337 115.666 47.025 116.269 46.4345C116.866 45.8584 117.569 45.4032 118.34 45.0939C119.15 44.7694 120.015 44.6061 120.888 44.6132C121.875 44.5867 122.855 44.788 123.751 45.2014C124.506 45.5554 125.181 46.0597 125.734 46.6834C126.244 47.2609 126.633 47.9339 126.881 48.663C127.117 49.336 127.24 50.0429 127.246 50.7558V52.498H117.742ZM120.84 47.5827C120.109 47.5502 119.391 47.7755 118.81 48.2191C118.325 48.5911 117.97 49.1055 117.793 49.6896H123.887C123.834 49.3859 123.72 49.096 123.552 48.8371C123.384 48.5781 123.166 48.3555 122.91 48.1823C122.304 47.7633 121.577 47.553 120.84 47.5827Z" fill="white"/>
<path d="M143.397 53.1485C143.153 54.5874 142.41 55.8947 141.299 56.842C140.198 57.7848 138.727 58.2561 136.886 58.2561C135.978 58.2632 135.073 58.1129 134.216 57.8121C133.421 57.5372 132.69 57.1042 132.066 56.5394C131.445 55.9657 130.956 55.2641 130.633 54.4834C130.274 53.6003 130.096 52.6537 130.112 51.7005V51.3895C130.098 50.4281 130.275 49.4735 130.633 48.5811C130.962 47.7765 131.455 47.0492 132.081 46.4458C132.702 45.8542 133.437 45.3944 134.241 45.0939C135.087 44.7779 135.983 44.6189 136.886 44.6245C138.689 44.6245 140.151 45.0959 141.273 46.0386C142.397 46.9795 143.15 48.2885 143.397 49.7321L140.166 50.5805C140.07 49.828 139.722 49.13 139.177 48.6009C138.623 48.0353 137.841 47.7524 136.833 47.7524C136.378 47.7504 135.926 47.8389 135.504 48.0126C135.094 48.1834 134.721 48.4354 134.411 48.7536C134.088 49.0899 133.836 49.4882 133.669 49.9244C133.478 50.4177 133.382 50.9425 133.386 51.4714V51.6298C133.379 52.1497 133.476 52.6658 133.669 53.1485C133.833 53.5672 134.087 53.9454 134.411 54.2571C134.725 54.5523 135.097 54.7777 135.504 54.919C135.932 55.0675 136.381 55.1421 136.833 55.1395C137.841 55.1395 138.609 54.8878 139.138 54.3844C139.695 53.8312 140.056 53.1111 140.166 52.334L143.397 53.1485Z" fill="white"/>
<path d="M35.2355 34.8364C33.6929 34.988 32.2707 35.7349 31.2714 36.9182C30.2722 38.1015 29.775 39.6275 29.8859 41.1715C29.9119 41.5823 29.8235 41.9924 29.6305 42.3564C29.4376 42.7202 29.1477 43.0237 28.7928 43.2332C28.4329 43.4526 28.0192 43.5681 27.5976 43.5669C27.1982 43.558 26.808 43.4459 26.4648 43.2416C25.5189 42.6444 24.4235 42.3258 23.3043 42.3225C23.0714 42.3268 22.8388 42.3438 22.6077 42.3734C21.148 42.6025 19.8261 43.366 18.8993 44.5152C17.9726 45.6644 17.5073 47.117 17.5943 48.5899C17.6812 50.0629 18.3141 51.4508 19.3697 52.4833C20.4252 53.5157 21.8279 54.1189 23.3043 54.1752C23.4935 54.1796 23.6827 54.1712 23.8707 54.1498C25.2505 54.0177 26.5408 53.4085 27.5186 52.4273C28.4964 51.4461 29.1004 50.1548 29.226 48.7763C29.2515 48.4619 29.2515 48.146 29.226 47.8317C29.1996 47.4204 29.2881 47.0099 29.4816 46.6458C29.6751 46.2819 29.9661 45.9786 30.3219 45.77C30.6732 45.5533 31.0788 45.4405 31.4916 45.4448C31.8927 45.4417 32.2861 45.5546 32.6243 45.77C33.578 46.3673 34.6819 46.6822 35.8075 46.6778C36.0396 46.6905 36.2721 46.6905 36.5042 46.6778C37.9951 46.4826 39.3565 45.7307 40.3146 44.5734C41.2726 43.416 41.7562 41.9393 41.6678 40.4404C41.5796 38.9414 40.926 37.5315 39.8386 36.4944C38.7514 35.4572 37.311 34.8699 35.8075 34.8506C35.619 34.8381 35.4298 34.8381 35.2411 34.8506" fill="#FCD15A"/>
<path d="M47.752 42.3395C46.209 42.491 44.7862 43.2383 43.7869 44.4223C42.7876 45.6062 42.2908 47.1329 42.4023 48.6773C42.4225 49.0813 42.3338 49.4833 42.1455 49.8414C41.9572 50.1995 41.6763 50.5007 41.3319 50.7136L41.3064 50.739C40.947 50.9581 40.5323 51.0699 40.1113 51.0614C39.7125 51.0518 39.3226 50.9409 38.9785 50.739C38.0533 50.1482 36.9815 49.8264 35.8835 49.8096C34.7855 49.7928 33.7044 50.0817 32.7614 50.644C31.8186 51.2063 31.0511 52.0197 30.5451 52.9931C30.039 53.9664 29.8144 55.0613 29.8964 56.1548C29.9223 56.5658 29.834 56.9759 29.6411 57.3397C29.4482 57.7037 29.1581 58.0071 28.8032 58.2167C28.4407 58.4401 28.0228 58.5576 27.5968 58.556C27.1974 58.5471 26.8071 58.435 26.464 58.2307C25.5181 57.6335 24.4226 57.3149 23.3035 57.3116C23.0705 57.3159 22.838 57.3329 22.6068 57.3625C21.1357 57.5767 19.7982 58.3334 18.8579 59.4835C17.9177 60.6335 17.4429 62.0936 17.5271 63.5758C17.6114 65.0582 18.2485 66.4553 19.3129 67.4917C20.3774 68.5282 21.792 69.1289 23.278 69.1756C23.4672 69.1796 23.6564 69.171 23.8444 69.1501C25.2208 69.0171 26.5071 68.4068 27.4797 67.4251C28.4523 66.4434 29.0498 65.1525 29.1686 63.7767C29.194 63.4632 29.194 63.1484 29.1686 62.8349C29.1464 62.4274 29.237 62.0216 29.4303 61.6619C29.6235 61.3023 29.9122 61.0027 30.2645 60.7959L30.29 60.7704C30.6517 60.5523 31.0684 60.4423 31.4908 60.4537C31.8913 60.4513 32.2844 60.5631 32.6236 60.7761C33.5688 61.3749 34.6647 61.6936 35.784 61.6952C36.0077 61.6952 36.2316 61.6726 36.4553 61.6726C37.9846 61.5185 39.392 60.7704 40.3742 59.5896C41.3563 58.4088 41.8346 56.8898 41.7057 55.3602C41.689 55.0511 41.736 54.7419 41.8439 54.4516C41.9516 54.1614 42.1179 53.8963 42.3324 53.6729C42.5469 53.4494 42.8051 53.2722 43.0908 53.1524C43.3766 53.0326 43.684 52.9725 43.994 52.976C44.3945 52.9736 44.7876 53.0855 45.1267 53.2984C46.0721 53.8969 47.168 54.2155 48.2872 54.2176C48.5202 54.2133 48.7527 54.1963 48.9839 54.1668C50.4748 53.9715 51.8362 53.2196 52.7943 52.0623C53.7523 50.9049 54.2359 49.4283 54.1475 47.9293C54.0593 46.4303 53.4057 45.0204 52.3183 43.9833C51.2311 42.9461 49.7907 42.3588 48.2872 42.3395C48.1059 42.3139 47.922 42.3139 47.7407 42.3395" fill="#FCD15A"/>
<path d="M27.6024 36.7511L27.3504 35.5209H27.3759C27.477 35.4805 27.5691 35.4205 27.6466 35.3442C27.7242 35.2679 27.7858 35.1769 27.8277 35.0766C27.8697 34.9762 27.8911 34.8685 27.8908 34.7598C27.8906 34.6511 27.8686 34.5435 27.8262 34.4434L28.7806 33.8155C28.8316 33.8664 28.8825 33.8919 28.908 33.9399L27.7271 36.7794C27.6875 36.7631 27.6452 36.7545 27.6024 36.7539V36.7511ZM27.6251 32.2544L28.5795 32.8822C28.5059 33.0851 28.5059 33.3072 28.5795 33.5101L27.6251 34.1351C27.4802 33.993 27.2891 33.9075 27.0865 33.894C26.8839 33.8805 26.6832 33.94 26.5206 34.0616L26.0194 33.6091C26.1045 33.4839 26.15 33.3361 26.15 33.1848C26.15 33.0336 26.1045 32.8858 26.0194 32.7606L26.5206 32.3081C26.6682 32.4138 26.8433 32.4747 27.0247 32.4835C27.1353 32.492 27.2464 32.4762 27.3501 32.4371C27.4539 32.398 27.5478 32.3366 27.6251 32.2572V32.2544ZM25.1896 30.2012L25.3397 30.1248L26.3705 31.1797C26.2854 31.2911 26.2311 31.4229 26.2132 31.562C26.1953 31.701 26.2144 31.8423 26.2686 31.9716C26.2941 32.0196 26.2941 32.0451 26.3196 32.096L25.8268 32.5372C25.6873 32.4296 25.5172 32.3691 25.341 32.3645C25.1649 32.36 24.9918 32.4115 24.8469 32.5117L23.9973 31.6633C24.0977 31.5186 24.1493 31.3458 24.1447 31.1699C24.1402 30.9939 24.0796 30.824 23.9718 30.6848L24.4505 30.1333C24.5603 30.2063 24.6863 30.2515 24.8176 30.2648C24.9489 30.2781 25.0815 30.2592 25.2038 30.2096L25.1896 30.2012ZM27.7922 31.9914C27.8342 31.8908 27.8558 31.7829 27.8557 31.6739C27.8556 31.565 27.8339 31.4571 27.7917 31.3566C27.7496 31.2561 27.6878 31.165 27.6101 31.0885C27.5324 31.012 27.4403 30.9517 27.3391 30.911H27.2994L27.5515 29.6327C27.6028 29.6367 27.6544 29.628 27.7016 29.6072L28.857 32.5117C28.806 32.5372 28.7579 32.5853 28.7069 32.6107L27.7922 31.9914ZM19.401 29.7289C19.503 29.6808 19.8032 29.5281 19.8542 29.2792L20.9869 29.5026C20.9828 29.672 21.0198 29.8398 21.0946 29.9919L20.0666 31.0072C19.929 30.9097 19.765 30.8565 19.5964 30.8545L19.401 29.7289ZM25.5436 29.9014C25.6464 29.7455 25.6988 29.5619 25.6937 29.3753L26.801 29.1236C26.8401 29.222 26.8997 29.311 26.9759 29.3846C27.0521 29.4582 27.143 29.5148 27.2428 29.5507L26.9992 30.8403C26.8883 30.8438 26.778 30.86 26.6707 30.8884C26.6262 30.9087 26.5844 30.9343 26.5461 30.9647L25.5436 29.9014ZM23.6094 27.9217L24.2607 28.8606C24.1253 29.0049 24.0458 29.1925 24.0365 29.39C24.0272 29.5875 24.0886 29.7818 24.2097 29.9381L23.734 30.5038C23.6042 30.4312 23.4579 30.3931 23.3092 30.3931C23.1604 30.3931 23.0142 30.4312 22.8844 30.5038L22.4511 29.9919C22.5728 29.8296 22.6323 29.6291 22.6188 29.4268C22.6053 29.2244 22.5197 29.0336 22.3775 28.8889L22.9948 27.9471C23.0764 27.974 23.1611 27.9902 23.2469 27.9952C23.3679 27.9966 23.4877 27.9715 23.598 27.9217H23.6094ZM19.8796 28.9737V28.8239L22.5785 27.6445C22.6267 27.6954 22.6776 27.769 22.7286 27.8199L22.0999 28.773C21.999 28.7297 21.8903 28.7072 21.7805 28.7066C21.6706 28.706 21.5618 28.7275 21.4604 28.7697C21.359 28.8119 21.2671 28.8739 21.1902 28.9522C21.1132 29.0305 21.0528 29.1234 21.0124 29.2255L19.8796 28.9737ZM23.8444 27.7463C23.8872 27.7024 23.9208 27.6505 23.9435 27.5936L26.733 28.6485V28.8239L25.6286 29.1067C25.5857 29.0076 25.5238 28.9179 25.4462 28.8428C25.3686 28.7677 25.2769 28.7086 25.1764 28.6689C25.0759 28.6292 24.9686 28.6098 24.8605 28.6116C24.7525 28.6134 24.6458 28.6366 24.5467 28.6796H24.5213L23.8444 27.7463ZM23.2412 26.3323C23.0498 26.3354 22.8652 26.4043 22.7187 26.5275C22.5722 26.6506 22.4727 26.8204 22.4369 27.0082C22.4114 27.1247 22.4114 27.2453 22.4369 27.3617L19.7635 28.5241C19.7299 28.4672 19.6879 28.4157 19.6389 28.3714C19.4753 28.263 19.279 28.2146 19.0837 28.2345C18.8883 28.2543 18.7059 28.3411 18.5674 28.4801C18.4288 28.6191 18.3428 28.8017 18.3239 28.9969C18.305 29.1921 18.3544 29.3878 18.4637 29.5507C18.4891 29.5761 18.5146 29.6016 18.5401 29.6016C17.8697 30.4639 17.4583 31.4986 17.3535 32.5853V33.1877C17.3535 34.7778 17.9861 36.3028 19.112 37.4272C20.2379 38.5517 21.765 39.1833 23.3573 39.1833C23.5582 39.1785 23.7586 39.1625 23.9577 39.1352C25.0785 39.0154 26.1422 38.5799 27.0247 37.8795C27.0247 37.905 27.0474 37.905 27.0474 37.9304C27.1807 38.0635 27.3615 38.1384 27.5501 38.1384C27.7386 38.1384 27.9194 38.0635 28.0527 37.9304C28.186 37.7973 28.261 37.6167 28.261 37.4284C28.261 37.2402 28.186 37.0596 28.0527 36.9264C28.0242 36.8956 27.9907 36.8698 27.9536 36.8501L29.1346 34.022C29.3442 34.065 29.5624 34.0255 29.7435 33.9117C29.9247 33.7979 30.0549 33.6186 30.1068 33.4113C30.1586 33.2039 30.1283 32.9846 30.0221 32.799C29.9159 32.6135 29.742 32.4761 29.5366 32.4156H29.5083C29.443 32.397 29.3752 32.3894 29.3073 32.393C29.2562 32.3891 29.2049 32.3968 29.1572 32.4156L28.0018 29.4998C28.1196 29.4559 28.2261 29.3864 28.3138 29.2964C28.4014 29.2064 28.468 29.0981 28.5086 28.9793C28.5493 28.8605 28.563 28.7341 28.5489 28.6093C28.5347 28.4846 28.493 28.3645 28.4268 28.2578C28.3605 28.1511 28.2714 28.0604 28.1658 27.9923C28.0602 27.9241 27.9407 27.8803 27.8161 27.8638C27.6915 27.8473 27.5647 27.8587 27.445 27.8971C27.3253 27.9354 27.2156 27.9999 27.1238 28.0857C27.0058 28.153 26.908 28.2506 26.8406 28.3685L24.0596 27.2938C24.0809 27.1882 24.0807 27.0794 24.0592 26.9739C24.0376 26.8684 23.9951 26.7682 23.9341 26.6794C23.8731 26.5905 23.7949 26.5148 23.7041 26.4566C23.6133 26.3985 23.5118 26.3591 23.4055 26.3408C23.3573 26.3408 23.3063 26.3153 23.2554 26.3153L23.2412 26.3323Z" fill="#FCD15A"/>
</g>
</g>
<defs>
<clipPath id="clip0_761_24186">
<rect width="126.066" height="43.4907" fill="white" transform="translate(17.332 26)"/>
</clipPath>
</defs>
</svg>
