<svg width="153" height="48" viewBox="0 0 153 48" fill="none" xmlns="http://www.w3.org/2000/svg">
<g clip-path="url(#clip0_2425_2227)">
<path d="M136.725 41.869C128.878 41.869 122.326 38.7562 121.456 31.3205C121.429 31.0905 121.594 30.8821 121.824 30.8528L129.875 29.8221C130.127 29.7897 130.351 29.9831 130.373 30.2364C130.696 33.9403 133.316 35.6137 136.926 35.6137C140.754 35.6137 142.702 34.2011 142.702 31.7125C142.702 29.4928 140.15 28.6857 134.844 27.4077C128.398 25.8607 122.488 23.8429 122.488 16.9149C122.488 9.51604 129.002 6.62377 136.255 6.62377C143.509 6.62377 149.728 9.02385 150.775 16.3721C150.808 16.599 150.651 16.8105 150.426 16.8489L142.642 18.1786C142.387 18.222 142.153 18.0324 142.126 17.7756C141.766 14.3489 139.599 12.8119 136.389 12.8119C133.636 12.8119 131.352 13.8208 131.352 16.175C131.352 18.4619 133.77 19.2691 138.27 20.2779C144.246 21.6232 151.701 23.2375 151.701 31.2417C151.701 39.3131 144.582 41.869 136.725 41.869Z" fill="white"/>
<path d="M116.199 9.8276C118.886 12.5181 119.221 16.1502 119.221 20.5223V41.1449C119.221 41.3833 119.028 41.5766 118.79 41.5766H110.183C109.945 41.5766 109.752 41.3833 109.752 41.1449V21.3294C109.752 18.2353 109.484 16.6211 108.006 15.2086C106.797 14.0651 105.656 13.8633 103.641 13.8633C100.753 13.8633 97.3955 15.8139 97.3955 22.7418V41.1449C97.3955 41.3833 97.2025 41.5766 96.9645 41.5766H88.4246C88.1865 41.5766 87.9936 41.3833 87.9936 41.1449V7.90514C87.9936 7.66672 88.1865 7.47343 88.4246 7.47343H96.8973C97.1353 7.47343 97.3283 7.66672 97.3283 7.90514V11.5654C97.3283 11.7722 97.6352 11.8376 97.7313 11.6546C99.6208 8.05942 103.212 6.66628 107.268 6.66628C111.566 6.66628 114.05 7.67521 116.199 9.8276Z" fill="white"/>
<path d="M80.5534 10.9502C83.8138 14.271 85.4563 19.3182 85.5946 25.7099C85.5997 25.9449 85.4138 26.1397 85.1795 26.1471L61.4706 26.8978C61.2306 26.9054 61.0425 27.109 61.059 27.3488C61.4267 32.7014 64.1877 35.3583 69.0902 35.2031C73.2271 35.0721 75.315 33.1962 75.9649 29.9165C76.0078 29.6993 76.2013 29.5418 76.422 29.5542L84.6796 30.0213C84.9454 30.0362 85.1342 30.2887 85.0689 30.5473C83.2335 37.8135 77.768 41.5906 69.3004 41.8587C64.0646 42.0244 59.85 40.4755 56.9439 37.8083C53.6222 34.7506 51.8713 30.3646 51.6931 24.7173C51.5232 19.3391 52.8557 14.7208 56.0451 11.4569C58.9071 8.47259 62.8858 6.79883 68.1214 6.63307C73.424 6.46518 77.6388 8.01414 80.5534 10.9502ZM68.3272 13.1542C65.5751 13.2414 63.654 14.1097 62.4318 15.8308C61.6104 16.9604 61.1323 18.3582 60.9447 19.9754C60.915 20.2309 61.1225 20.4484 61.3792 20.4403L75.3919 19.9965C75.6462 19.9886 75.8389 19.7624 75.7992 19.5106C75.5048 17.6418 74.9116 16.0781 73.7586 14.9339C72.4408 13.6296 70.7436 13.0777 68.3272 13.1542Z" fill="white"/>
<path d="M21.2673 1.34031L8.38001 22.5455C8.27894 22.7118 8.04411 22.7303 7.91874 22.5814C6.7842 21.2343 2.55742 15.5033 7.78763 10.2797C12.5602 5.51325 18.6392 2.11486 20.8921 0.940306C21.1477 0.807047 21.4169 1.09416 21.2673 1.34031Z" fill="white"/>
<path d="M20.5455 47.5152C20.8027 47.6951 21.1196 47.3881 20.9472 47.126C18.0687 42.7477 8.49998 28.1803 7.17816 25.9934C5.87442 23.8366 3.31015 20.252 3.09624 17.1853C3.07488 16.879 2.65153 16.817 2.54503 17.1049C2.37328 17.5691 2.19042 18.1233 2.02 18.7565C-0.131411 26.7484 2.9931 35.2292 9.77889 39.9788L20.5455 47.5152Z" fill="white"/>
<path d="M22.3152 47.1319L35.2025 25.9266C35.3036 25.7604 35.5385 25.7419 35.6639 25.8907C36.7984 27.2378 41.0251 32.9688 35.795 38.1924C31.0224 42.9589 24.9435 46.3573 22.6906 47.5317C22.435 47.665 22.1656 47.3779 22.3152 47.1319Z" fill="white"/>
<path d="M23.0331 0.960402C22.776 0.780379 22.459 1.08739 22.6315 1.34957C25.51 5.72779 35.0788 20.2952 36.4005 22.482C37.7043 24.6389 40.2685 28.2234 40.4825 31.2903C40.5038 31.5964 40.9272 31.6587 41.0337 31.3708C41.2054 30.9063 41.3882 30.3521 41.5587 29.7189C43.7101 21.7271 40.5856 13.2464 33.7998 8.49661L23.0331 0.960402Z" fill="white"/>
</g>
<defs>
<clipPath id="clip0_2425_2227">
<rect width="151.525" height="47.025" fill="white" transform="translate(0.570312 0.725342)"/>
</clipPath>
</defs>
</svg>
