<svg width="160" height="96" viewBox="0 0 160 96" fill="none" xmlns="http://www.w3.org/2000/svg">
<path d="M8.27067 29.5766C8.93121 28.3529 9.8845 27.3097 11.0465 26.539L30.547 13L10.5663 45.8493C10.5663 45.8493 8.82055 42.9161 8.13968 41.4318C7.29124 39.5656 6.86334 37.5377 6.88594 35.4898C6.90857 33.442 7.3812 31.4238 8.27067 29.5766ZM0.222535 52.237C0.442709 55.3785 1.33539 58.4368 2.8408 61.2072C4.34622 63.9779 6.42961 66.3965 8.95149 68.3016L30.5207 83.2552C30.5207 83.2552 17.0258 63.9188 5.64322 44.6778C4.49084 42.645 3.71615 40.4225 3.35622 38.1166C3.19689 37.0725 3.19689 36.0103 3.35622 34.9662C3.05943 35.513 2.48333 36.6326 2.48333 36.6326C1.32919 38.9728 0.543157 41.4754 0.152704 44.053C-0.0720365 46.7775 -0.0486643 49.5166 0.222535 52.237ZM55.215 54.8406C54.5165 53.3566 52.7882 50.4231 52.7882 50.4231L32.8427 83.2552L52.3431 69.7248C53.505 68.9542 54.4584 67.9111 55.119 66.6874C56.0084 64.8401 56.4809 62.8219 56.5037 60.7742C56.5263 58.7263 56.0984 56.6982 55.2499 54.832L55.215 54.8406ZM63.132 44.0268C62.9118 40.8856 62.0191 37.8271 60.5139 35.0566C59.0084 32.2861 56.925 29.8673 54.403 27.9623L32.8687 13C32.8687 13 46.355 32.3364 57.7464 51.5774C58.8956 53.6109 59.6673 55.8334 60.0246 58.1386C60.1839 59.1827 60.1839 60.2449 60.0246 61.2891C60.3214 60.7422 60.8974 59.6227 60.8974 59.6227C62.0516 57.2824 62.8377 54.7798 63.228 52.2022C63.4557 49.4779 63.4353 46.7388 63.1671 44.0182L63.132 44.0268Z" fill="url(#paint0_linear_2288_657)"/>
<path d="M99.6103 63.6925H79.1914V31.3979H99.6103V37.4888H83.8021L85.7781 35.6484V44.4998H98.0734V50.2839H85.7781V59.442L83.8021 57.6016H99.6103V63.6925Z" fill="white"/>
<path d="M111.586 63.6925H105.043V31.3979H111.586L127.745 55.7613H125.769V31.3979H132.268V63.6925H125.769L109.566 39.373H111.586V63.6925Z" fill="white"/>
<path d="M136.549 40.6434C136.549 38.7154 137.047 37.0211 138.042 35.5604C139.067 34.0706 140.458 32.9021 142.214 32.0549C144 31.2078 146.034 30.7842 148.318 30.7842C150.601 30.7842 152.563 31.1932 154.202 32.0111C155.871 32.7998 157.159 33.9245 158.066 35.3852C159.003 36.8458 159.471 38.5839 159.471 40.5996H152.928C152.899 39.3727 152.46 38.4087 151.611 37.7076C150.791 37.0065 149.664 36.6559 148.23 36.6559C146.678 36.6559 145.434 36.9919 144.497 37.6637C143.59 38.3356 143.136 39.2558 143.136 40.4243C143.136 41.476 143.414 42.2939 143.97 42.8782C144.556 43.4332 145.449 43.8422 146.649 44.1051L151.611 45.1568C154.451 45.741 156.558 46.7489 157.934 48.1803C159.31 49.6117 159.998 51.5835 159.998 54.0958C159.998 56.1407 159.501 57.9373 158.505 59.4856C157.51 61.0046 156.09 62.1877 154.246 63.0349C152.431 63.8528 150.294 64.2618 147.835 64.2618C145.493 64.2618 143.429 63.8674 141.643 63.0787C139.887 62.2607 138.525 61.1215 137.559 59.6608C136.593 58.171 136.096 56.4474 136.066 54.4902H142.653C142.653 55.7171 143.107 56.6811 144.014 57.3822C144.951 58.0541 146.239 58.3901 147.879 58.3901C149.577 58.3901 150.923 58.0687 151.918 57.4261C152.914 56.7542 153.411 55.8632 153.411 54.7531C153.411 53.7599 153.163 53.0004 152.665 52.4745C152.167 51.9195 151.333 51.5251 150.162 51.2914L145.156 50.2398C142.316 49.6555 140.165 48.56 138.701 46.9534C137.267 45.3467 136.549 43.2434 136.549 40.6434Z" fill="white"/>
<defs>
<linearGradient id="paint0_linear_2288_657" x1="106.573" y1="91.5817" x2="69.2354" y2="-58.0893" gradientUnits="userSpaceOnUse">
<stop stop-color="#44BCF0"/>
<stop offset="0.378795" stop-color="#7298F8"/>
<stop offset="1" stop-color="#A099FF"/>
</linearGradient>
</defs>
</svg>
