<svg width="160" height="96" viewBox="0 0 160 96" fill="none" xmlns="http://www.w3.org/2000/svg">
<path d="M67.7954 39.0845C66.7218 39.0845 65.8398 39.9669 65.8398 41.064C65.8398 42.1611 66.7224 42.9955 67.7954 42.9955C68.8684 42.9955 69.751 42.1131 69.751 41.064C69.751 40.015 68.8921 39.0845 67.7954 39.0845Z" fill="white"/>
<path d="M69.3948 44.208H66.2227V55.9399H69.3948V44.208Z" fill="white"/>
<path d="M103.022 43.8979C101.758 43.8979 100.351 44.4465 99.6352 45.6628V44.2081H96.5586V55.94H99.7307V49.1919C99.7307 47.8327 100.542 46.7599 101.925 46.7599C103.451 46.7599 104.095 47.7853 104.095 49.0964V55.94H107.267V48.5479C107.267 45.973 105.931 43.8979 103.022 43.8979Z" fill="white"/>
<path d="M114.63 43.8506C111.124 43.8506 108.477 46.4498 108.477 50.0738C108.477 53.6978 111.124 56.2976 114.63 56.2976C118.136 56.2976 120.783 53.6747 120.783 50.0738C120.783 46.4729 118.136 43.8506 114.63 43.8506ZM114.63 53.4126C113.079 53.4126 111.649 52.268 111.649 50.0744C111.649 47.8808 113.079 46.7363 114.63 46.7363C116.18 46.7363 117.611 47.8571 117.611 50.0744C117.611 52.2917 116.18 53.4126 114.63 53.4126Z" fill="white"/>
<path d="M135.475 43.8745C133.924 43.8745 132.684 44.3994 131.754 45.8297C131.158 44.566 129.869 43.8745 128.272 43.8745C126.984 43.8745 125.482 44.4942 124.838 45.6388V44.2084H121.809V55.9402H124.981V49.073C124.981 47.7855 125.792 46.7602 127.175 46.7602C128.558 46.7602 129.25 47.7138 129.25 48.9781V55.9409H132.398V49.0736C132.398 47.8099 133.209 46.7608 134.568 46.7608C136.023 46.7608 136.643 47.7144 136.643 48.9788V55.9415H139.72V48.3354C139.72 45.1876 137.645 43.8764 135.475 43.8764V43.8745Z" fill="white"/>
<path d="M149.29 44.208L146.404 51.0753L143.28 44.208H139.727L144.711 54.4608L141.944 60.5655H145.307L152.677 44.208H149.29Z" fill="white"/>
<path d="M76.7509 53.4119C75.2004 53.4119 73.7698 52.2674 73.7698 50.0738C73.7698 47.8802 75.201 46.7357 76.7509 46.7357C77.7127 46.7357 78.5616 47.1681 79.0679 48.0262L82.0596 47.0452C81.0971 45.0881 79.1696 43.8506 76.7509 43.8506C73.2448 43.8506 70.5977 46.4498 70.5977 50.0738C70.5977 53.6978 73.2448 56.2976 76.7509 56.2976C79.6646 56.2976 81.8642 54.4847 82.524 51.8056H79.2295C78.7576 52.8734 77.8251 53.4126 76.7509 53.4126V53.4119Z" fill="white"/>
<path d="M89.2001 43.8506C85.694 43.8506 83.0469 46.4498 83.0469 50.0738C83.0469 53.6978 85.694 56.2976 89.2001 56.2976C92.7061 56.2976 95.3533 53.6747 95.3533 50.0738C95.3533 46.4729 92.7061 43.8506 89.2001 43.8506ZM89.2001 53.4126C87.6496 53.4126 86.219 52.268 86.219 50.0744C86.219 47.8808 87.6502 46.7363 89.2001 46.7363C90.7499 46.7363 92.1812 47.8571 92.1812 50.0744C92.1812 52.2917 90.7499 53.4126 89.2001 53.4126Z" fill="white"/>
<path d="M62.0373 45.6654C62.6877 44.8036 62.8231 43.9761 62.8231 42.9863C62.8231 41.9966 61.9218 39.0322 58.6374 39.0322H51.1016V55.9289H59.2416C63.2963 55.9289 65.0078 53.1212 65.0078 50.1581C65.0078 48.7995 64.4417 47.0359 62.0367 45.6648L62.0373 45.6654ZM54.2843 41.6252H58.1224C59.0056 41.6252 59.7209 42.341 59.7209 43.2235C59.7209 44.1065 59.005 44.8217 58.1224 44.8217H54.2843V41.6246V41.6252ZM58.8658 53.3359H54.2843V47.4153H58.8658C60.5012 47.4153 61.8263 48.7409 61.8263 50.3753C61.8263 52.1876 60.6479 53.3352 58.8658 53.3352V53.3359Z" fill="white"/>
<path d="M28.953 44.5089C29.4586 43.4855 29.8112 42.2018 29.8112 40.6041C29.8112 38.4124 28.9349 36.4285 27.3432 35.0175C25.7728 33.6252 23.648 32.8894 21.1987 32.8894L12.7585 32.8501C11.1294 32.8501 9.80859 34.1706 9.80859 35.7994V60.8102H24.5737C30.0871 60.8102 33.3098 56.2121 33.3098 52.0645C33.3098 48.9136 31.5602 46.0304 28.9536 44.5089H28.953ZM21.1981 35.0462C25.1604 35.0462 27.6541 37.4208 27.6541 40.6041C27.6541 44.8765 24.4339 46.8305 21.1756 46.8305C18.1146 46.8305 15.5935 44.3099 15.5935 40.4032V38.2464C15.5935 36.8304 14.7465 35.5592 13.4357 35.1404V35.0462H21.1975H21.1981Z" fill="#FF4E17"/>
</svg>
