<svg width="161" height="96" viewBox="0 0 161 96" fill="none" xmlns="http://www.w3.org/2000/svg">
<g clip-path="url(#clip0_761_22897)">
<mask id="mask0_761_22897" style="mask-type:luminance" maskUnits="userSpaceOnUse" x="25" y="24" width="110" height="48">
<path d="M134.105 24.0005H25.666V71.7061H134.105V24.0005Z" fill="white"/>
</mask>
<g mask="url(#mask0_761_22897)">
<path d="M31.2662 35.2248C31.7135 34.3962 32.359 33.6899 33.1458 33.168L46.35 24.0005L32.8207 46.2434C32.8207 46.2434 31.6386 44.2572 31.1776 43.2522C30.6031 41.9886 30.3133 40.6154 30.3286 39.2288C30.3439 37.8421 30.664 36.4756 31.2662 35.2248ZM25.8167 50.5686C25.9658 52.6957 26.5702 54.7666 27.5896 56.6425C28.6089 58.5186 30.0196 60.1563 31.7272 61.4462L46.3322 71.5716C46.3322 71.5716 37.1945 58.4786 29.4871 45.4501C28.7069 44.0737 28.1823 42.5688 27.9386 41.0074C27.8307 40.3004 27.8307 39.5812 27.9386 38.8742C27.7376 39.2445 27.3475 40.0025 27.3475 40.0025C26.566 41.5872 26.0338 43.2817 25.7694 45.0271C25.6172 46.8719 25.6331 48.7266 25.8167 50.5686ZM63.0531 52.3315C62.5802 51.3267 61.4099 49.3403 61.4099 49.3403L47.9044 71.5716L61.1085 62.41C61.8953 61.8881 62.5408 61.1818 62.9881 60.3532C63.5904 59.1024 63.9103 57.7358 63.9257 56.3493C63.941 54.9626 63.6513 53.5893 63.0767 52.3257L63.0531 52.3315ZM68.4139 45.0093C68.2648 42.8823 67.6603 40.8114 66.6411 38.9354C65.6217 37.0595 64.211 35.4217 62.5033 34.1318L47.922 24.0005C47.922 24.0005 57.0538 37.0936 64.7672 50.122C65.5453 51.4989 66.0679 53.0038 66.3098 54.5647C66.4177 55.2717 66.4177 55.9909 66.3098 56.6979C66.5108 56.3276 66.9008 55.5696 66.9008 55.5696C67.6824 53.985 68.2146 52.2904 68.4789 50.5451C68.6331 48.7004 68.6192 46.8457 68.4376 45.0035L68.4139 45.0093Z" fill="url(#paint0_linear_761_22897)"/>
<path d="M93.1151 58.3251H79.2891V36.4579H93.1151V40.5821H82.4111L83.7491 39.3359V45.3294H92.0744V49.2459H83.7491V55.4471L82.4111 54.2009H93.1151V58.3251Z" fill="white"/>
<path d="M101.221 58.3252H96.791V36.4579H101.221L112.163 52.9548H110.825V36.4579H115.226V58.3252H110.825L99.8536 41.858H101.221V58.3252Z" fill="white"/>
<path d="M118.128 42.7185C118.128 41.413 118.465 40.2658 119.139 39.2768C119.833 38.268 120.774 37.4767 121.963 36.9031C123.173 36.3295 124.55 36.0427 126.096 36.0427C127.643 36.0427 128.971 36.3196 130.081 36.8734C131.211 37.4075 132.083 38.1691 132.697 39.1581C133.332 40.1471 133.649 41.324 133.649 42.6889H129.218C129.199 41.8581 128.901 41.2053 128.326 40.7306C127.771 40.2559 127.008 40.0185 126.037 40.0185C124.986 40.0185 124.144 40.246 123.51 40.7009C122.895 41.1559 122.588 41.779 122.588 42.5702C122.588 43.2823 122.776 43.8361 123.153 44.2317C123.549 44.6076 124.154 44.8845 124.967 45.0625L128.326 45.7746C130.249 46.1702 131.676 46.8527 132.608 47.8219C133.54 48.7911 134.005 50.1263 134.005 51.8274C134.005 53.212 133.668 54.4285 132.995 55.4769C132.321 56.5055 131.359 57.3066 130.11 57.8802C128.881 58.4341 127.434 58.711 125.769 58.711C124.184 58.711 122.786 58.444 121.577 57.9099C120.388 57.356 119.466 56.5846 118.812 55.5956C118.158 54.5868 117.821 53.4197 117.801 52.0945H122.261C122.261 52.9252 122.568 53.578 123.183 54.0527C123.817 54.5077 124.689 54.7351 125.799 54.7351C126.949 54.7351 127.861 54.5176 128.535 54.0824C129.208 53.6274 129.545 53.0241 129.545 52.2725C129.545 51.5999 129.377 51.0857 129.04 50.7296C128.703 50.3538 128.138 50.0867 127.345 49.9285L123.956 49.2164C122.033 48.8208 120.576 48.079 119.585 46.9911C118.613 45.9032 118.128 44.479 118.128 42.7185Z" fill="white"/>
</g>
</g>
<defs>
<linearGradient id="paint0_linear_761_22897" x1="97.8288" y1="77.2096" x2="72.5466" y2="-24.1354" gradientUnits="userSpaceOnUse">
<stop stop-color="#44BCF0"/>
<stop offset="0.378795" stop-color="#7298F8"/>
<stop offset="1" stop-color="#A099FF"/>
</linearGradient>
<clipPath id="clip0_761_22897">
<rect width="108.439" height="47.7057" fill="white" transform="translate(25.666 23.9999)"/>
</clipPath>
</defs>
</svg>
