<svg width="121" height="72" viewBox="0 0 121 72" fill="none" xmlns="http://www.w3.org/2000/svg">
<g clip-path="url(#clip0_1635_6183)">
<path d="M32.1211 50.0969H33.5139V44.464H32.1211V42.7379H36.4806V43.9371C36.758 43.4768 37.1077 43.1315 37.5298 42.9014C37.9639 42.6712 38.4704 42.5562 39.0493 42.5562C39.7487 42.5562 40.3517 42.7197 40.8582 43.0468C41.3647 43.3617 41.7566 43.822 42.034 44.4277C42.3114 45.0334 42.4501 45.742 42.4501 46.5536V50.0969H43.6439V51.823H38.181V50.0969H39.3025V46.7899C39.3025 46.0146 39.194 45.4331 38.9769 45.0455C38.7598 44.6579 38.4584 44.464 38.0724 44.464C37.783 44.464 37.5298 44.5731 37.3127 44.7911C37.0956 44.997 36.9268 45.2938 36.8062 45.6814C36.6977 46.0691 36.6434 46.5173 36.6434 47.026V50.0969H37.7287V51.823H32.1211V50.0969Z" fill="white"/>
<path d="M49.4328 52.0048C48.4198 52.0048 47.5213 51.8049 46.7375 51.4051C45.9657 51.0054 45.3627 50.4482 44.9285 49.7335C44.4944 49.0187 44.2773 48.2011 44.2773 47.2804C44.2773 46.3598 44.4944 45.5422 44.9285 44.8275C45.3627 44.1127 45.9717 43.5555 46.7556 43.1558C47.5394 42.756 48.4318 42.5562 49.4328 42.5562C50.4337 42.5562 51.3261 42.756 52.1101 43.1558C52.8941 43.5555 53.5031 44.1127 53.9371 44.8275C54.3711 45.5422 54.5881 46.3598 54.5881 47.2804C54.5881 48.189 54.3651 49.0006 53.9191 49.7153C53.4846 50.43 52.8756 50.9933 52.0921 51.4051C51.308 51.8049 50.4217 52.0048 49.4328 52.0048ZM49.4328 50.3149C49.8066 50.3149 50.1262 50.2059 50.3915 49.9878C50.6568 49.7577 50.8558 49.4185 50.9885 48.9703C51.1211 48.5221 51.1874 47.9588 51.1874 47.2804C51.1874 46.6021 51.1211 46.0388 50.9885 45.5906C50.8558 45.1303 50.6568 44.7911 50.3915 44.5731C50.1262 44.3429 49.8066 44.2278 49.4328 44.2278C49.0469 44.2278 48.7213 44.3429 48.456 44.5731C48.2027 44.7911 48.0037 45.1303 47.859 45.5906C47.7264 46.0388 47.66 46.6021 47.66 47.2804C47.66 47.9588 47.7264 48.5221 47.859 48.9703C48.0037 49.4185 48.2027 49.7577 48.456 49.9878C48.7213 50.2059 49.0469 50.3149 49.4328 50.3149Z" fill="white"/>
<path d="M55.8029 44.4644H54.7539V42.7383H59.5654V44.4644H59.0589L60.3074 49.6066H60.3614L61.3024 46.118L60.7594 44.4644H60.0179V42.7383H65.1189V44.4644H64.2869L65.6979 49.6248H65.7704L67.0184 44.4644H66.0779V42.7383H69.9129V44.4644H68.8454L66.8014 51.8234H63.4729L62.3154 47.4444L61.1214 51.8234H57.8289L55.8029 44.4644Z" fill="white"/>
<path d="M3.02916 26.3024H2V24.5669H6.71991V26.3024H6.22308L7.4474 31.4723H7.50065L8.42335 27.9648L7.891 26.3024H7.1635V24.5669H12.1673V26.3024H11.3511L12.7352 31.4906H12.8061L14.0304 26.3024H13.1077V24.5669H16.8695V26.3024H15.8226L13.8175 33.701H10.5527L9.417 29.2984L8.2459 33.701H5.01648L3.02916 26.3024Z" fill="white"/>
<path d="M24.3539 33.4819C24.0818 33.5793 23.7269 33.6646 23.2892 33.7376C23.0408 33.7742 22.7865 33.8046 22.5262 33.829C22.2778 33.8655 22.0235 33.8838 21.7632 33.8838C20.8524 33.8838 20.0361 33.6889 19.3145 33.2992C18.593 32.9094 18.0251 32.3614 17.6111 31.655C17.2089 30.9487 17.0078 30.1327 17.0078 29.2071C17.0078 28.2572 17.2089 27.4168 17.6111 26.6861C18.0251 25.9554 18.5989 25.389 19.3323 24.9871C20.0657 24.5852 20.9056 24.3843 21.8519 24.3843C22.7983 24.3843 23.6263 24.5852 24.3361 24.9871C25.0577 25.3769 25.6137 25.931 26.004 26.6495C26.3944 27.3559 26.5955 28.178 26.6073 29.1158C26.6073 29.201 26.6014 29.2923 26.5896 29.3898C26.5896 29.475 26.5837 29.5664 26.5719 29.6638H20.184C20.2313 30.2606 20.326 30.766 20.4679 31.1801C20.6217 31.5941 20.8169 31.9047 21.0535 32.1118C21.29 32.3188 21.5621 32.4223 21.8697 32.4223C22.1418 32.4223 22.4434 32.3188 22.7746 32.1118C23.1177 31.9047 23.4134 31.6611 23.6618 31.381C23.9221 31.1009 24.0818 30.8512 24.1409 30.632V30.5224H25.9331V34.304H24.3539V33.4819ZM23.4312 28.5677C23.372 27.9466 23.2715 27.4411 23.1295 27.0514C22.9876 26.6495 22.8042 26.3512 22.5794 26.1563C22.3547 25.9614 22.0944 25.864 21.7987 25.864C21.503 25.864 21.2427 25.9675 21.018 26.1745C20.7932 26.3694 20.6099 26.6678 20.4679 27.0697C20.3378 27.4716 20.2491 27.9709 20.2017 28.5677H23.4312Z" fill="white"/>
<path d="M33.7462 33.8841C33.1783 33.8841 32.6815 33.7744 32.2557 33.5552C31.8298 33.3238 31.469 32.9828 31.1733 32.5322V33.7014H28.2633V22.6491H26.8438V20.9136H31.3153V25.6085C31.5992 25.2066 31.9422 24.9021 32.3444 24.6951C32.7585 24.4881 33.2257 24.3845 33.7462 24.3845C34.5151 24.3845 35.2071 24.5855 35.8223 24.9874C36.4374 25.3771 36.9164 25.9313 37.2595 26.6498C37.6025 27.3684 37.7741 28.1965 37.7741 29.1343C37.7741 30.0721 37.6025 30.9002 37.2595 31.6188C36.9164 32.3373 36.4374 32.8976 35.8223 33.2995C35.219 33.6892 34.5269 33.8841 33.7462 33.8841ZM32.8944 32.0207C33.2138 32.0207 33.4859 31.9233 33.7107 31.7284C33.9473 31.5213 34.1306 31.2047 34.2607 30.7784C34.3909 30.3522 34.4559 29.8041 34.4559 29.1343C34.4559 28.4645 34.3909 27.9164 34.2607 27.4902C34.1306 27.0517 33.9473 26.7351 33.7107 26.5402C33.4859 26.3453 33.2138 26.2479 32.8944 26.2479C32.5632 26.2479 32.2616 26.3758 31.9895 26.6315C31.7293 26.8751 31.5222 27.2161 31.3685 27.6545C31.2265 28.093 31.1556 28.5862 31.1556 29.1343C31.1556 29.6702 31.2265 30.1573 31.3685 30.5958C31.5222 31.0342 31.7293 31.3813 31.9895 31.6371C32.2616 31.8928 32.5632 32.0207 32.8944 32.0207Z" fill="white"/>
<path d="M39.3281 28.6591H40.9961V28.7505C40.9961 29.2133 41.1439 29.7187 41.4396 30.2667C41.7472 30.8148 42.1376 31.2776 42.6108 31.6552C43.0958 32.0205 43.5808 32.2032 44.0658 32.2032C44.4206 32.2032 44.7164 32.1058 44.953 31.9109C45.1896 31.7039 45.3611 31.4298 45.4676 31.0888C45.5858 30.7357 45.645 30.3337 45.645 29.8831C45.645 29.396 45.5799 28.988 45.4498 28.6591C45.3197 28.3303 45.1422 28.0867 44.9175 27.9284C44.7046 27.7579 44.4621 27.6727 44.19 27.6727C43.9889 27.6727 43.7819 27.7153 43.5689 27.8006C43.3678 27.8858 43.1786 28.0076 43.0011 28.1659L42.8237 28.3303L41.972 27.1612L45.5918 24.0007H42.4865C42.179 24.0007 41.9424 24.019 41.7768 24.0556C41.623 24.0921 41.5047 24.1591 41.4219 24.2565C41.3509 24.3539 41.3154 24.5062 41.3154 24.7132V25.3343H39.6298V20H41.3332V20.9134H49.0873V22.6306L44.8288 26.5766C44.9826 26.5157 45.1541 26.4731 45.3433 26.4487C45.5326 26.4121 45.7101 26.3939 45.8757 26.3939C46.5144 26.3939 47.0882 26.5401 47.5968 26.8323C48.1173 27.1124 48.5254 27.5144 48.8212 28.038C49.1169 28.5495 49.2648 29.1402 49.2648 29.8101C49.2648 30.5895 49.0696 31.2898 48.6792 31.9109C48.2889 32.532 47.727 33.0253 46.9935 33.3906C46.2601 33.7438 45.3907 33.9204 44.3852 33.9204C44.0066 33.9204 43.6281 33.8778 43.2495 33.7925C42.871 33.7073 42.5339 33.5916 42.2381 33.4454C42.0489 33.3846 41.8478 33.3237 41.6348 33.2628C41.4337 33.1897 41.2326 33.1288 41.0315 33.0801V34.231H39.3281V28.6591Z" fill="white"/>
<path d="M50.2383 35.6193H51.6046V26.3025H50.2383V24.567H54.5146V25.7179C54.8101 25.2794 55.1711 24.9506 55.5971 24.7314C56.0346 24.5 56.5376 24.3843 57.1051 24.3843C57.8741 24.3843 58.5661 24.5791 59.1811 24.9689C59.7966 25.3586 60.2756 25.9127 60.6186 26.6313C60.9616 27.3498 61.1331 28.1841 61.1331 29.134C61.1331 30.0718 60.9556 30.9 60.6006 31.6185C60.2576 32.3371 59.7786 32.8973 59.1636 33.2992C58.5601 33.6889 57.8741 33.8838 57.1051 33.8838C56.5731 33.8838 56.1056 33.7803 55.7036 33.5732C55.3011 33.3662 54.9581 33.0556 54.6741 32.6415V35.7106H56.8921V37.3547H50.2383V35.6193ZM56.2536 32.0204C56.5611 32.0204 56.8331 31.923 57.0696 31.7281C57.3061 31.5211 57.4836 31.2044 57.6021 30.7782C57.7321 30.3519 57.7971 29.8039 57.7971 29.134C57.7971 28.4642 57.7321 27.9161 57.6021 27.4899C57.4836 27.0514 57.3061 26.7348 57.0696 26.54C56.8331 26.3451 56.5611 26.2477 56.2536 26.2477C55.9106 26.2477 55.6031 26.3755 55.3306 26.6313C55.0706 26.8749 54.8696 27.2159 54.7276 27.6543C54.5856 28.0927 54.5146 28.586 54.5146 29.134C54.5146 29.6699 54.5856 30.1571 54.7276 30.5955C54.8696 31.0339 55.0706 31.381 55.3306 31.6368C55.6031 31.8925 55.9106 32.0204 56.2536 32.0204Z" fill="white"/>
<path d="M61.8477 31.9655H63.2142V26.3024H61.8477V24.5669H66.1242V25.8091C66.3017 25.3707 66.5557 25.0297 66.8872 24.7861C67.2182 24.5425 67.5967 24.4207 68.0227 24.4207C68.2002 24.4207 68.4072 24.4573 68.6437 24.5303C68.7147 24.5547 68.7857 24.579 68.8567 24.6034C68.9277 24.6278 68.9927 24.6521 69.0517 24.6765V23.8179H70.6312V28.6589H69.1052V28.4032C69.1052 28.1109 69.0102 27.8125 68.8212 27.5081C68.6437 27.1914 68.4192 26.9296 68.1467 26.7225C67.8867 26.5155 67.6502 26.4119 67.4372 26.4119C67.2122 26.4119 67.0112 26.5094 66.8337 26.7042C66.6682 26.8869 66.5322 27.1549 66.4257 27.5081C66.3312 27.8491 66.2837 28.2631 66.2837 28.7503V31.9655H68.4487V33.701H61.8477V31.9655Z" fill="white"/>
<path d="M71.7773 31.9657H73.1438V26.3025H71.7773V24.567H76.2133V31.9657H77.5798V33.7012H71.7773V31.9657ZM72.4518 20.0913H76.5328L74.5808 23.745H74.4033L72.4518 20.0913Z" fill="white"/>
<path d="M79.1352 26.3024H78.0352V24.5669H83.7312V26.3024H82.5242L84.2812 31.1435H84.3342L86.1087 26.3024H84.6537V24.5669H89.0722V26.3024H87.9717L85.0972 33.701H82.0452L79.1352 26.3024Z" fill="white"/>
<path d="M91.8397 33.884C90.9172 33.884 90.2017 33.6587 89.6927 33.2081C89.1842 32.7453 88.9297 32.1303 88.9297 31.363C88.9297 30.547 89.2432 29.9137 89.8702 29.4631C90.4972 29.0125 91.4257 28.7384 92.6562 28.641C93.2357 28.5923 93.6912 28.5132 94.0222 28.4035C94.3652 28.2939 94.6137 28.1417 94.7677 27.9468C94.9332 27.7398 95.0162 27.4718 95.0162 27.143C95.0162 26.6924 94.9332 26.3697 94.7677 26.1748C94.6022 25.98 94.3537 25.8825 94.0222 25.8825C93.6912 25.8825 93.3302 25.9982 92.9402 26.2296C92.5617 26.461 92.2362 26.7472 91.9642 27.0882C91.6922 27.4292 91.5382 27.752 91.5027 28.0564V28.2026H89.9237V23.9644H91.4852V24.7499C91.9227 24.7012 92.3307 24.6403 92.7092 24.5672C92.9342 24.5063 93.1707 24.4637 93.4192 24.4393C93.6677 24.4028 93.9277 24.3845 94.1997 24.3845C95.4062 24.3845 96.3467 24.7134 97.0212 25.371C97.6952 26.0287 98.0327 26.9482 98.0327 28.1295V31.9658H99.1682V33.7014H95.1047V32.2947C94.7617 32.8305 94.3122 33.2324 93.7562 33.5004C93.2122 33.7561 92.5732 33.884 91.8397 33.884ZM93.1352 32.1668C93.4427 32.1668 93.7442 32.0633 94.0402 31.8562C94.3477 31.637 94.5962 31.3447 94.7852 30.9794C94.9867 30.6018 95.0872 30.1756 95.0872 29.7006V28.7324C94.9332 28.9029 94.7382 29.0551 94.5017 29.1891C94.2647 29.3109 93.9752 29.4022 93.6322 29.4631C93.1472 29.5484 92.7802 29.7188 92.5317 29.9746C92.2837 30.2182 92.1592 30.5531 92.1592 30.9794C92.1592 31.3325 92.2482 31.6187 92.4252 31.838C92.6027 32.0572 92.8392 32.1668 93.1352 32.1668Z" fill="white"/>
<path d="M106.612 33.5004C106.352 33.5978 105.991 33.677 105.53 33.7379C105.281 33.7866 105.033 33.8231 104.784 33.8475C104.536 33.8718 104.287 33.884 104.039 33.884C103.116 33.884 102.288 33.6831 101.555 33.2811C100.821 32.8671 100.248 32.3008 99.834 31.5822C99.4315 30.8515 99.2305 30.0355 99.2305 29.1343C99.2305 28.2209 99.4315 27.4049 99.834 26.6863C100.248 25.9678 100.821 25.4075 101.555 25.0057C102.288 24.5916 103.116 24.3845 104.039 24.3845C104.477 24.3845 104.926 24.4272 105.388 24.5124C105.813 24.5855 106.162 24.6646 106.434 24.7499V23.9644H108.014L107.996 28.4583H106.346V28.3122C106.31 27.9955 106.168 27.6606 105.92 27.3074C105.671 26.9543 105.382 26.6559 105.05 26.4123C104.719 26.1687 104.418 26.0469 104.145 26.0469C103.802 26.0469 103.507 26.1626 103.258 26.394C103.01 26.6254 102.815 26.9725 102.673 27.4353C102.543 27.886 102.478 28.4522 102.478 29.1343C102.478 29.8041 102.543 30.3704 102.673 30.8332C102.815 31.2838 103.01 31.6248 103.258 31.8562C103.507 32.0877 103.802 32.2033 104.145 32.2033C104.441 32.2033 104.767 32.0877 105.121 31.8562C105.476 31.6127 105.784 31.3143 106.044 30.9611C106.304 30.6079 106.464 30.273 106.523 29.9563V29.8102H108.173V34.3042H106.612V33.5004Z" fill="white"/>
<path d="M109.734 32.5136H111.296V33.2991C111.296 33.6401 111.414 34.0055 111.65 34.3952C111.887 34.7971 112.171 35.132 112.502 35.4C112.845 35.6801 113.153 35.8201 113.425 35.8201C113.567 35.8201 113.685 35.7714 113.78 35.674C113.874 35.5766 113.922 35.4487 113.922 35.2903V35.2721C113.922 35.1625 113.88 35.0041 113.797 34.7971C113.726 34.6022 113.549 34.2004 113.265 33.5914C113.194 33.4331 113.111 33.2626 113.017 33.0799C112.934 32.8972 112.845 32.7023 112.751 32.4953L109.787 26.3024H108.723V24.5669H114.348V26.3024H113.301L114.773 29.8647C114.809 29.9621 114.85 30.0717 114.898 30.1935C114.945 30.3031 114.992 30.4188 115.04 30.5406C115.146 30.8085 115.223 31.0217 115.27 31.18C115.294 31.0704 115.318 30.973 115.341 30.8877C115.365 30.7903 115.394 30.6868 115.43 30.5772L116.832 26.3024H115.359V24.5669H119.759V26.3024H118.553L116.53 31.6915C116.518 31.7159 116.512 31.7402 116.512 31.7646C116.512 31.7767 116.506 31.7951 116.495 31.8194C116.388 32.1239 116.311 32.404 116.264 32.6597C116.228 32.9155 116.211 33.1956 116.211 33.5001V33.7924C116.211 34.584 116.098 35.2599 115.874 35.8201C115.661 36.3804 115.353 36.8066 114.951 37.0989C114.549 37.3912 114.081 37.5373 113.549 37.5373C113.289 37.5373 113.023 37.513 112.751 37.4643C112.478 37.4277 112.224 37.373 111.988 37.2999C111.727 37.2268 111.508 37.1355 111.331 37.0259V37.8662H109.734V32.5136Z" fill="white"/>
<path d="M3.33203 43.8146C3.33203 43.2623 3.77975 42.8145 4.33203 42.8145H26.1756C26.7279 42.8145 27.1756 43.2623 27.1756 43.8146V50.9485C27.1756 51.5008 26.7279 51.9486 26.1756 51.9486H4.33203C3.77975 51.9486 3.33203 51.5008 3.33203 50.9485V43.8146Z" fill="white"/>
</g>
<defs>
<clipPath id="clip0_1635_6183">
<rect width="118" height="32.0049" fill="white" transform="translate(2 20)"/>
</clipPath>
</defs>
</svg>
