<svg width="121" height="72" viewBox="0 0 121 72" fill="none" xmlns="http://www.w3.org/2000/svg">
<g clip-path="url(#clip0_1635_6388)">
<path d="M38.9535 36.4593V36.1649C38.9535 35.4251 38.7005 34.8589 38.1946 34.4664C37.7039 34.0587 37.06 33.8549 36.2627 33.8549C35.6494 33.8549 35.1665 33.9606 34.8138 34.172C34.4765 34.3682 34.1545 34.6702 33.8479 35.0779C33.7559 35.1986 33.6562 35.2817 33.5489 35.327C33.4416 35.3723 33.2959 35.3949 33.1119 35.3949H32.422C32.2533 35.3949 32.1 35.3345 31.962 35.2137C31.8394 35.093 31.7857 34.9495 31.801 34.7834C31.847 34.3305 32.0693 33.8851 32.468 33.4473C32.8819 32.9943 33.4263 32.6244 34.1009 32.3375C34.7755 32.0507 35.4961 31.9072 36.2627 31.9072C37.6886 31.9072 38.8385 32.2998 39.7125 33.0849C40.6017 33.87 41.0464 34.9722 41.0464 36.3914V43.2988C41.0464 43.4649 40.985 43.6083 40.8624 43.7291C40.7397 43.8499 40.594 43.9103 40.4254 43.9103H39.5745C39.4058 43.9103 39.2601 43.8499 39.1375 43.7291C39.0148 43.6083 38.9535 43.4649 38.9535 43.2988V42.3703C38.7082 42.9138 38.1869 43.3441 37.3896 43.6612C36.5923 43.9782 35.7951 44.1367 34.9978 44.1367C34.2158 44.1367 33.5183 44.0009 32.905 43.7291C32.2916 43.4422 31.8164 43.0572 31.479 42.5741C31.1571 42.091 30.9961 41.5474 30.9961 40.9435C30.9961 39.8111 31.4254 38.9279 32.284 38.2938C33.1426 37.6445 34.2848 37.2067 35.7107 36.9802L38.9535 36.4593ZM38.9535 38.2711L36.2397 38.7014C35.2431 38.8524 34.4688 39.1015 33.9169 39.4488C33.3649 39.7809 33.0889 40.2037 33.0889 40.717C33.0889 41.0945 33.2653 41.4342 33.6179 41.7361C33.9705 42.0381 34.5072 42.1891 35.2278 42.1891C36.3317 42.1891 37.2286 41.8796 37.9186 41.2606C38.6085 40.6415 38.9535 39.8338 38.9535 38.8373V38.2711Z" fill="white"/>
<path d="M46.4952 43.2986C46.4952 43.4647 46.4336 43.6081 46.311 43.7289C46.1884 43.8497 46.043 43.9101 45.874 43.9101H45.0231C44.8545 43.9101 44.7087 43.8497 44.5861 43.7289C44.4634 43.6081 44.4023 43.4647 44.4023 43.2986V28.4421C44.4023 28.276 44.4634 28.1326 44.5861 28.0118C44.7087 27.891 44.8545 27.8306 45.0231 27.8306H45.874C46.043 27.8306 46.1884 27.891 46.311 28.0118C46.4336 28.1326 46.4952 28.276 46.4952 28.4421V43.2986Z" fill="white"/>
<path d="M54.7794 42.1891C56.3126 42.1891 57.3476 41.6003 57.8845 40.4226C57.9915 40.1961 58.099 40.0376 58.2065 39.947C58.3135 39.8564 58.4593 39.8111 58.6431 39.8111H59.3334C59.5019 39.8111 59.6473 39.8715 59.77 39.9923C59.893 40.098 59.9541 40.2263 59.9541 40.3773C59.9541 40.8906 59.7472 41.4417 59.3334 42.0306C58.9191 42.6194 58.3211 43.1176 57.5393 43.5253C56.7576 43.9329 55.8376 44.1367 54.7794 44.1367C53.6908 44.1367 52.7481 43.9103 51.9508 43.4573C51.1534 43.0044 50.5403 42.3854 50.1108 41.6003C49.6814 40.8001 49.4441 39.9093 49.3978 38.9279C49.3826 38.7467 49.375 38.3995 49.375 37.8861C49.375 37.5238 49.3826 37.2671 49.3978 37.1161C49.536 35.5761 50.0649 34.3229 50.9849 33.3567C51.9048 32.3904 53.1695 31.9072 54.7794 31.9072C55.8376 31.9072 56.7496 32.1111 57.5162 32.5187C58.2983 32.9113 58.8888 33.402 59.287 33.9908C59.7013 34.5645 59.9234 35.1081 59.9541 35.6214C59.9693 35.7875 59.9082 35.9309 59.77 36.0517C59.6473 36.1725 59.5019 36.2329 59.3334 36.2329H58.6431C58.4593 36.2329 58.3135 36.1876 58.2065 36.097C58.099 36.0064 57.9915 35.8479 57.8845 35.6214C57.3476 34.4437 56.3126 33.8549 54.7794 33.8549C53.9361 33.8549 53.2003 34.1342 52.5715 34.6929C51.9432 35.2515 51.5829 36.097 51.4906 37.2293C51.4754 37.3954 51.4678 37.6672 51.4678 38.0446C51.4678 38.3919 51.4754 38.6486 51.4906 38.8147C51.598 39.947 51.9584 40.7925 52.5715 41.3511C53.2003 41.9098 53.9361 42.1891 54.7794 42.1891Z" fill="white"/>
<path d="M73.3321 43.2986C73.3321 43.4647 73.271 43.6081 73.1479 43.7289C73.0253 43.8497 72.8799 43.9101 72.7113 43.9101H71.86C71.6915 43.9101 71.5461 43.8497 71.4234 43.7289C71.3004 43.6081 71.2393 43.4647 71.2393 43.2986V37.3197C71.2393 36.1874 70.9557 35.3268 70.3884 34.738C69.8212 34.1492 69.0314 33.8548 68.0196 33.8548C67.0229 33.8548 66.2331 34.1492 65.6507 34.738C65.0835 35.3268 64.7998 36.1874 64.7998 37.3197V43.2986C64.7998 43.4647 64.7383 43.6081 64.6157 43.7289C64.493 43.8497 64.3472 43.9101 64.1787 43.9101H63.3278C63.1592 43.9101 63.0134 43.8497 62.8908 43.7289C62.7681 43.6081 62.707 43.4647 62.707 43.2986V28.4421C62.707 28.276 62.7681 28.1326 62.8908 28.0118C63.0134 27.891 63.1592 27.8306 63.3278 27.8306H64.1787C64.3472 27.8306 64.493 27.891 64.6157 28.0118C64.7383 28.1326 64.7998 28.276 64.7998 28.4421V33.4471C65.137 33.0093 65.5972 32.6469 66.1796 32.36C66.7776 32.0581 67.5058 31.9071 68.3643 31.9071C69.3302 31.9071 70.1891 32.1109 70.9405 32.5186C71.6915 32.9262 72.2743 33.515 72.6881 34.285C73.1176 35.0399 73.3321 35.9383 73.3321 36.98V43.2986Z" fill="white"/>
<path d="M81.3907 31.9072C83.0313 31.9072 84.3267 32.4206 85.2775 33.4473C86.2282 34.4739 86.7036 35.8705 86.7036 37.637V38.2485C86.7036 38.4146 86.6421 38.558 86.5194 38.6788C86.3968 38.7996 86.251 38.8599 86.0824 38.8599H78.1709V38.9958C78.2017 39.9923 78.5085 40.7774 79.0909 41.3511C79.6889 41.9098 80.4555 42.1891 81.3907 42.1891C82.1572 42.1891 82.7477 42.091 83.1615 41.8947C83.5909 41.6984 83.9744 41.4191 84.3116 41.0567C84.4342 40.9359 84.5417 40.8529 84.6335 40.8076C84.741 40.7623 84.8788 40.7397 85.0474 40.7397H85.7377C85.9214 40.7397 86.0748 40.8001 86.1975 40.9208C86.3201 41.0416 86.3736 41.1851 86.3585 41.3511C86.2969 41.7588 86.0672 42.1815 85.6686 42.6194C85.2851 43.0421 84.7254 43.4045 83.9896 43.7064C83.269 43.9933 82.4029 44.1367 81.3907 44.1367C80.4096 44.1367 79.5355 43.9178 78.769 43.48C78.0024 43.027 77.3892 42.408 76.929 41.6229C76.4844 40.8378 76.2164 39.9546 76.1241 38.9732C76.0937 38.5202 76.0781 38.173 76.0781 37.9314C76.0781 37.6898 76.0937 37.3426 76.1241 36.8896C76.2164 35.9535 76.4844 35.1081 76.929 34.3531C77.3892 33.5982 77.9948 33.0019 78.7462 32.564C79.5128 32.1262 80.3944 31.9072 81.3907 31.9072ZM84.6335 36.9576V36.8896C84.6335 35.9686 84.3348 35.2364 83.7367 34.6929C83.1539 34.1342 82.3722 33.8549 81.3907 33.8549C80.5014 33.8549 79.7424 34.1342 79.1141 34.6929C78.5005 35.2515 78.1865 35.9837 78.1709 36.8896V36.9576H84.6335Z" fill="white"/>
<path d="M91.5733 33.4473C91.9412 32.9792 92.3555 32.6093 92.8152 32.3375C93.2754 32.0507 93.8886 31.9072 94.6552 31.9072C96.4492 31.9072 97.7063 32.564 98.427 33.8776C98.8716 33.2434 99.3773 32.7603 99.945 32.4281C100.512 32.0809 101.256 31.9072 102.176 31.9072C103.678 31.9072 104.79 32.3526 105.51 33.2434C106.246 34.1342 106.614 35.3949 106.614 37.0255V43.2988C106.614 43.4649 106.553 43.6083 106.43 43.7291C106.308 43.8499 106.162 43.9103 105.993 43.9103H105.142C104.974 43.9103 104.828 43.8499 104.705 43.7291C104.583 43.6083 104.521 43.4649 104.521 43.2988V37.252C104.521 34.9873 103.617 33.8549 101.808 33.8549C100.98 33.8549 100.32 34.1267 99.8299 34.6702C99.3389 35.2137 99.0937 36.0215 99.0937 37.0935V43.2988C99.0937 43.4649 99.0326 43.6083 98.9099 43.7291C98.7873 43.8499 98.6415 43.9103 98.4729 43.9103H97.622C97.4535 43.9103 97.3077 43.8499 97.185 43.7291C97.0624 43.6083 97.0009 43.4649 97.0009 43.2988V37.252C97.0009 34.9873 96.0965 33.8549 94.2873 33.8549C93.4592 33.8549 92.8001 34.1267 92.3095 34.6702C91.8186 35.2137 91.5733 36.0215 91.5733 37.0935V43.2988C91.5733 43.4649 91.5122 43.6083 91.3895 43.7291C91.2669 43.8499 91.1211 43.9103 90.9525 43.9103H90.1017C89.9327 43.9103 89.7873 43.8499 89.6646 43.7291C89.542 43.6083 89.4805 43.4649 89.4805 43.2988V32.7452C89.4805 32.5791 89.542 32.4357 89.6646 32.3149C89.7873 32.1941 89.9327 32.1337 90.1017 32.1337H90.9525C91.1211 32.1337 91.2669 32.1941 91.3895 32.3149C91.5122 32.4357 91.5733 32.5791 91.5733 32.7452V33.4473Z" fill="white"/>
<path d="M113.055 47.6698C112.917 48.0321 112.695 48.2133 112.388 48.2133H111.445C111.292 48.2133 111.161 48.1605 111.054 48.0548C110.946 47.9491 110.893 47.8208 110.893 47.6698C110.893 47.6094 110.901 47.5565 110.916 47.5112L113.124 42.778L108.57 32.8358C108.555 32.7905 108.547 32.7377 108.547 32.6773C108.547 32.5263 108.601 32.398 108.708 32.2923C108.815 32.1866 108.946 32.1338 109.099 32.1338H110.042C110.348 32.1338 110.571 32.3149 110.709 32.6773L114.25 40.3774L117.839 32.6773C117.976 32.3149 118.199 32.1338 118.505 32.1338H119.448C119.602 32.1338 119.732 32.1866 119.839 32.2923C119.947 32.398 120 32.5263 120 32.6773C120 32.7377 119.992 32.7905 119.977 32.8358L113.055 47.6698Z" fill="white"/>
<path d="M22.3013 36.4179L14.5789 23.3083C14.5416 23.2436 14.4874 23.1897 14.422 23.152C14.3565 23.1143 14.2821 23.0942 14.2062 23.0938C14.1303 23.0933 14.0556 23.1124 13.9897 23.1493C13.9238 23.1861 13.869 23.2394 13.8307 23.3036L11.5179 27.2318C11.4422 27.3604 11.4023 27.5063 11.4023 27.6548C11.4023 27.8032 11.4422 27.9491 11.5179 28.0777L16.5534 36.63C16.6292 36.7587 16.7383 36.8656 16.8697 36.9398C17.0011 37.0141 17.15 37.0531 17.3017 37.0529H21.9272C22.003 37.0527 22.0773 37.033 22.1428 36.9958C22.2083 36.9586 22.2628 36.9052 22.3006 36.8409C22.3385 36.7767 22.3585 36.7037 22.3586 36.6295C22.3587 36.5553 22.339 36.4823 22.3013 36.4179Z" fill="#787EFA"/>
<path d="M2.05955 43.2696L9.78193 30.16C9.81982 30.0957 9.87431 30.0424 9.93988 30.0053C10.0054 29.9683 10.0798 29.9487 10.1554 29.9487C10.2311 29.9487 10.3055 29.9683 10.371 30.0053C10.4366 30.0424 10.4911 30.0957 10.529 30.16L12.8429 34.0846C12.9187 34.2134 12.9585 34.3595 12.9585 34.5081C12.9585 34.6568 12.9187 34.8029 12.8429 34.9317L7.80741 43.484C7.73189 43.6126 7.62304 43.7196 7.49189 43.7938C7.36074 43.8681 7.21189 43.9071 7.06039 43.9069H2.43365C2.35744 43.9072 2.28248 43.8878 2.21641 43.8506C2.15033 43.8134 2.0955 43.7596 2.05749 43.6949C2.01948 43.6301 1.99964 43.5567 2 43.482C2.00037 43.4072 2.02091 43.334 2.05955 43.2696Z" fill="#787EFA"/>
<path d="M10.5287 43.9044H25.9735C26.0492 43.9043 26.1237 43.8847 26.1892 43.8475C26.2548 43.8103 26.3092 43.7568 26.347 43.6925C26.3848 43.6281 26.4047 43.5551 26.4046 43.4808C26.4045 43.4066 26.3844 43.3336 26.3464 43.2694L24.036 39.3424C23.9602 39.2137 23.8511 39.1068 23.7198 39.0326C23.5884 38.9583 23.4394 38.9193 23.2878 38.9194H13.2168C13.0651 38.9193 12.9162 38.9583 12.7848 39.0326C12.6535 39.1068 12.5444 39.2137 12.4686 39.3424L10.1558 43.2694C10.1178 43.3336 10.0977 43.4066 10.0977 43.4808C10.0975 43.5551 10.1173 43.6281 10.1551 43.6925C10.1929 43.7568 10.2474 43.8103 10.313 43.8475C10.3785 43.8847 10.4529 43.9043 10.5287 43.9044Z" fill="#787EFA"/>
</g>
<defs>
<clipPath id="clip0_1635_6388">
<rect width="118" height="25.3067" fill="white" transform="translate(2 23)"/>
</clipPath>
</defs>
</svg>
