<svg width="160" height="96" viewBox="0 0 160 96" fill="none" xmlns="http://www.w3.org/2000/svg">
<g clip-path="url(#clip0_1224_2466)">
<path d="M71.8409 43.9746L72.7115 42.2362C71.4347 41.396 69.6645 40.8455 67.8363 40.8455C65.0504 40.8455 62.5256 42.0913 62.5256 44.9887C62.4966 50.3779 71.0575 48.4946 70.9704 52.2033C70.9414 53.7389 69.4904 54.4343 67.6911 54.4343C65.892 54.4343 63.9186 53.71 62.6128 52.4931L61.7422 54.1445C63.1931 55.5352 65.4276 56.2887 67.6041 56.2887C70.5351 56.2887 73.2049 54.9558 73.2049 51.9715C73.2049 46.4954 64.6732 48.2628 64.6732 44.8149C64.6732 43.3663 65.979 42.7577 67.6911 42.7577C69.1132 42.7577 70.6511 43.2214 71.8409 43.9746Z" fill="white"/>
<path d="M82.9569 40.8743C78.517 40.9032 75.3828 44.0324 75.3828 48.5814C75.3828 53.1302 78.4879 56.2885 82.9861 56.2885C85.5397 56.2885 87.6872 55.3612 89.1381 53.7677L87.8903 52.4639C86.7005 53.7098 85.0465 54.4052 83.1602 54.4052C80.1711 54.4052 77.9947 52.4349 77.6173 49.4216H90.0958C90.3279 44.2643 87.8903 40.8743 82.9569 40.8743ZM77.6173 47.6252C77.9366 44.6698 80.026 42.7576 82.9569 42.7576C85.946 42.7576 87.9193 44.6698 88.0644 47.6252H77.6173Z" fill="white"/>
<path d="M104.666 44.6988L105.914 43.1342C104.521 41.7145 102.49 40.8743 100.023 40.8743C95.6123 40.8743 92.4492 44.0615 92.4492 48.5814C92.4492 53.1302 95.5833 56.2885 100.023 56.2885C102.664 56.2885 104.782 55.3033 106.146 53.6518L104.841 52.3191C103.767 53.5939 102.113 54.2892 100.11 54.2892C96.9472 54.2892 94.6837 51.9714 94.6837 48.5814C94.6837 45.2203 96.9472 42.9025 100.11 42.9025C101.968 42.9025 103.506 43.5689 104.666 44.6988Z" fill="white"/>
<path d="M112.514 44.3511V40.9612H110.25V56.2015H112.514V48.0888C112.775 45.0175 114.777 43.0184 117.998 43.0763V40.8743C115.415 40.9032 113.529 42.1201 112.514 44.3511Z" fill="white"/>
<path d="M127.086 40.8743C122.646 40.9032 119.512 44.0324 119.512 48.5814C119.512 53.1302 122.617 56.2885 127.115 56.2885C129.669 56.2885 131.816 55.3612 133.267 53.7677L132.019 52.4639C130.829 53.7098 129.175 54.4052 127.289 54.4052C124.3 54.4052 122.123 52.4349 121.746 49.4216H134.225C134.457 44.2643 132.019 40.8743 127.086 40.8743ZM121.746 47.6252C122.065 44.6698 124.155 42.7576 127.086 42.7576C130.075 42.7576 132.048 44.6698 132.193 47.6252H121.746Z" fill="white"/>
<path d="M145.366 53.4202C144.524 53.9128 143.712 54.1736 142.928 54.2025C141.623 54.2025 140.897 53.4491 140.897 51.5948V43.1924H145.743V41.4249H140.897V37.4265H138.662V41.4249H136.457V43.1924H138.662V51.9715C138.662 54.9848 140.317 56.3176 142.551 56.2886C143.77 56.2886 144.931 55.8829 146.004 55.1586L145.366 53.4202Z" fill="white"/>
<path d="M45.5599 34.7225C42.0214 31.1858 37.321 29.2397 32.3206 29.2397C21.9938 29.2397 13.5938 37.6341 13.5938 47.9521C13.5938 58.2702 21.9938 66.6646 32.3206 66.6646C37.321 66.6646 42.0251 64.7185 45.5599 61.1819C49.0984 57.6452 51.0437 52.9484 51.0437 47.9521C51.0437 42.9559 49.0984 38.2554 45.5599 34.7225ZM32.3206 65.3697C22.7098 65.3697 14.8907 57.5554 14.8907 47.9521C14.8907 38.349 22.7098 30.5346 32.3206 30.5346C41.9314 30.5346 49.7505 38.349 49.7505 47.9521C49.7505 57.5554 41.9314 65.3697 32.3206 65.3697Z" fill="white"/>
<path d="M38.469 48.3939C37.2696 47.3236 35.6989 46.6088 34.177 45.9163L34.1659 45.9126C31.482 44.6888 29.1618 43.6296 29.3267 41.126C29.3979 40.1716 30.0913 39.5953 30.6611 39.2847C31.3021 38.9329 32.1529 38.7233 32.9401 38.7233C33.0338 38.7233 33.1276 38.727 33.2175 38.7308C35.5077 38.8842 37.3144 39.8535 39.08 41.867L39.185 41.9905L39.3086 41.8857L39.9983 41.2869L40.122 41.1784L40.0133 41.0549C38.0455 38.8019 35.9088 37.6679 33.2963 37.492C33.1837 37.4808 33.0639 37.4771 32.9327 37.4771C32.8539 37.4771 32.7677 37.4771 32.6778 37.4808H32.5652C30.8523 37.4808 28.9743 38.0422 27.5462 38.9853C25.8407 40.1118 24.8849 41.6611 24.8587 43.349C24.7912 47.4544 28.1534 48.8355 31.1184 50.0593L31.126 50.063L31.1559 50.0742C33.7798 51.1596 36.0437 52.0952 35.995 54.6026C35.9726 56.2568 33.6036 57.1699 31.9768 57.1699H31.9093H31.7481V57.1738C29.323 57.1027 27.1564 56.0584 25.3085 54.0787L25.196 53.9589L25.0761 54.0675L24.4051 54.6887L24.2852 54.8011L24.3976 54.9207C26.4967 57.1775 29.0868 58.39 31.8906 58.4237H32.018C33.8285 58.4237 35.7964 57.9372 37.2808 57.1176C39.1399 56.1034 40.2232 54.6251 40.3357 52.9559C40.4631 51.1222 39.8522 49.6289 38.469 48.3939ZM29.7652 44.8235C30.8336 45.7366 32.2804 46.3917 33.6785 47.0241L33.7047 47.0354C35.1855 47.7165 36.5873 48.3601 37.6031 49.2546C38.7276 50.2427 39.2036 51.3878 39.1025 52.8586C39.0087 54.3144 37.9255 55.2875 36.9396 55.875C37.1308 55.4858 37.2358 55.0629 37.247 54.6139C37.2696 53.1019 36.6885 51.8931 35.4666 50.9125C34.3983 50.0555 32.9814 49.4754 31.6095 48.9104C28.7569 47.7389 26.0619 46.6311 26.1106 43.3602C26.1256 42.1027 26.8828 40.9126 28.2434 40.0107C28.2885 39.9808 28.3334 39.9508 28.3821 39.9209C28.2209 40.2727 28.131 40.6394 28.1085 41.0249C27.9998 42.5406 28.5434 43.7831 29.7652 44.8235Z" fill="white"/>
</g>
<defs>
<clipPath id="clip0_1224_2466">
<rect width="132.408" height="37.5447" fill="white" transform="translate(13.5938 29.2275)"/>
</clipPath>
</defs>
</svg>
