<svg width="160" height="96" viewBox="0 0 160 96" fill="none" xmlns="http://www.w3.org/2000/svg">
<path d="M51.2187 44.7804L51.2206 44.7784C51.8609 44.0798 52.656 43.7323 53.6185 43.7323H63.2548C63.7607 43.7323 64.1708 43.3228 64.1708 42.8176C64.1708 42.3125 63.7607 41.9029 63.2548 41.9029H53.6185C52.0903 41.9029 50.8055 42.3837 49.7775 43.351L49.776 43.3524C48.7694 44.3215 48.2676 45.5518 48.2676 47.0286L48.2987 56.1558C48.3005 56.6941 48.738 57.1295 49.2771 57.1295C49.8175 57.1295 50.2555 56.6921 50.2555 56.1525V52.3173L63.1513 52.3477C63.6581 52.3488 64.0695 51.939 64.0695 51.433C64.0695 50.9286 63.6607 50.5195 63.1556 50.5183L50.2555 50.4879V47.1912C50.2555 46.2628 50.5751 45.4621 51.2187 44.7804ZM92.1575 44.7804L92.1593 44.7784C92.7996 44.0798 93.5947 43.7323 94.5573 43.7323H104.194C104.699 43.7323 105.11 43.3228 105.11 42.8176C105.11 42.3125 104.699 41.9029 104.194 41.9029H94.5573C93.0074 41.9029 91.7214 42.3833 90.7148 43.3524C89.7082 44.3215 89.2063 45.5518 89.2063 47.0286V52.0038C89.2063 53.4806 89.7082 54.7109 90.7148 55.6799C91.7214 56.6491 93.0074 57.1295 94.5573 57.1295H104.194C104.699 57.1295 105.11 56.7199 105.11 56.2148C105.11 55.7096 104.699 55.3001 104.194 55.3001H94.5573C93.5933 55.3001 92.798 54.9623 92.1584 54.2854C91.5136 53.5814 91.1942 52.7693 91.1942 51.8412V50.6915L104.09 50.7218C104.597 50.723 105.008 50.3131 105.008 49.8071C105.008 49.3028 104.599 48.8935 104.094 48.8924L91.1942 48.862V47.1912C91.1942 46.2628 91.5138 45.4621 92.1575 44.7804ZM109.379 43.5432L109.378 43.5446C108.347 44.4916 107.832 45.7012 107.832 47.1586V56.1213C107.832 56.6601 108.27 57.0969 108.809 57.0969C109.349 57.0969 109.786 56.6601 109.786 56.1213V47.1586C109.786 46.2576 110.124 45.5045 110.807 44.8881C111.493 44.2689 112.304 43.96 113.251 43.96H120.783C121.729 43.96 122.54 44.2689 123.226 44.8881C123.909 45.5045 124.246 46.2576 124.246 47.1586V56.1213C124.246 56.6601 124.685 57.0969 125.224 57.0969C125.763 57.0969 126.201 56.6601 126.201 56.1213V47.3863C126.201 45.9072 125.675 44.6564 124.626 43.6458C123.598 42.6345 122.313 42.1305 120.783 42.1305H113.251C111.724 42.1305 110.429 42.5997 109.379 43.5432ZM84.2177 42.846V46.5528H69.7571V42.846C69.7571 42.3072 69.3197 41.8704 68.78 41.8704C68.2405 41.8704 67.803 42.3072 67.803 42.846V56.1213C67.803 56.6601 68.2405 57.0969 68.78 57.0969C69.3197 57.0969 69.7571 56.6601 69.7571 56.1213V48.3823H84.2177V56.1213C84.2177 56.6601 84.6552 57.0969 85.1947 57.0969C85.7344 57.0969 86.1719 56.6601 86.1719 56.1213V42.846C86.1719 42.3072 85.7344 41.8704 85.1947 41.8704C84.6552 41.8704 84.2177 42.3072 84.2177 42.846ZM129.893 42.9809V55.9864C129.893 56.5998 130.391 57.0969 131.005 57.0969C131.62 57.0969 132.118 56.5998 132.118 55.9864V42.9809C132.118 42.3676 131.62 41.8704 131.005 41.8704C130.391 41.8704 129.893 42.3676 129.893 42.9809ZM151.982 57.0969H152.064C152.584 57.0969 153.01 56.6838 153.026 56.1643C153.035 55.8659 152.905 55.5804 152.673 55.3916L145.611 49.6296L152.675 43.8359C152.905 43.6467 153.035 43.3617 153.026 43.064C153.01 42.544 152.584 42.1305 152.062 42.1305H151.982C151.739 42.1305 151.504 42.2147 151.317 42.3687L144.073 48.3198L136.829 42.3687C136.642 42.2147 136.407 42.1305 136.163 42.1305H136.082C135.561 42.1305 135.134 42.544 135.119 43.064C135.11 43.3617 135.24 43.6467 135.47 43.8359L142.533 49.6296L135.473 55.3916C135.241 55.5804 135.11 55.8659 135.119 56.1643C135.134 56.6838 135.561 57.0969 136.081 57.0969H136.163C136.407 57.0969 136.642 57.0127 136.829 56.8588L144.073 50.9077L151.317 56.8588C151.504 57.0127 151.739 57.0969 151.982 57.0969Z" fill="white" stroke="white" stroke-width="0.0541817"/>
<path fill-rule="evenodd" clip-rule="evenodd" d="M7.55169 39.6502C7.31715 39.7215 7.14648 39.9392 7.14648 40.1967V49.342V58.0963C7.14648 58.4117 7.40258 58.6675 7.71849 58.6675C8.03439 58.6675 8.29048 58.4117 8.29048 58.0963V49.342V46.7905L21.1702 55.6613L21.216 66.6373C21.217 66.8963 21.3906 67.1143 21.6275 67.1833C21.7915 67.257 21.9874 67.2525 22.1539 67.1542L36.6952 58.5634C36.967 58.4028 37.0571 58.0524 36.8962 57.7809C36.7354 57.5094 36.3845 57.4196 36.1126 57.5802L22.3561 65.7074L22.3299 59.4146L36.615 50.8009C36.8854 50.6378 36.9723 50.2868 36.809 50.0167C36.6456 49.7467 36.2941 49.66 36.0236 49.823L22.3243 58.0835L22.2911 50.1449L36.3355 41.6622C36.5249 41.5478 36.6241 41.3413 36.6103 41.135C36.6213 40.9314 36.5223 40.7285 36.3354 40.6154L21.8243 31.8378C21.673 31.7381 21.4789 31.7137 21.3035 31.7812C21.271 31.7937 21.2395 31.8091 21.2096 31.8274L7.55169 39.6502ZM21.5006 32.9776L34.9922 41.1385L21.4224 49.3346C21.2347 49.4479 21.1356 49.6519 21.1473 49.8562C21.1465 49.8693 21.146 49.8824 21.1461 49.8957L21.1644 54.2696L8.48249 45.535C8.42249 45.4936 8.35737 45.4653 8.29048 45.4494V40.544L12.8388 37.9389L21.2729 43.1639C21.5414 43.3301 21.8939 43.2477 22.0605 42.9797C22.2271 42.7116 22.1445 42.3595 21.876 42.1932L13.9663 37.293L21.5006 32.9776Z" fill="white"/>
<path d="M7.55041 39.6499L7.69278 40.117L7.74572 40.101L7.79371 40.0735L7.55041 39.6499ZM8.2892 46.7902L8.56682 46.3883L7.80025 45.8603V46.7902H8.2892ZM21.169 55.661L21.6578 55.659L21.6568 55.404L21.4465 55.259L21.169 55.661ZM21.6263 67.1831L21.8268 66.7378L21.7958 66.7239L21.7631 66.7144L21.6263 67.1831ZM22.3548 65.7072L21.8659 65.7092L21.8695 66.5612L22.6039 66.1274L22.3548 65.7072ZM22.3286 59.4143L22.0758 58.9963L21.8385 59.1395L21.8397 59.4163L22.3286 59.4143ZM22.323 58.0832L21.834 58.0852L21.8377 58.9462L22.5758 58.5011L22.323 58.0832ZM22.2899 50.1447L22.0369 49.7269L21.7998 49.8701L21.801 50.1467L22.2899 50.1447ZM36.609 41.1348L36.1209 41.1086L36.1192 41.1379L36.1212 41.1672L36.609 41.1348ZM21.823 31.8376L21.5539 32.2451L21.5617 32.2503L21.5697 32.2552L21.823 31.8376ZM21.3023 31.781L21.4771 32.237L21.4784 32.2365L21.3023 31.781ZM21.2083 31.8272L21.4516 32.2509L21.4635 32.2437L21.2083 31.8272ZM34.9909 41.1382L35.244 41.556L35.9351 41.1385L35.2443 40.7206L34.9909 41.1382ZM21.4994 32.9773L21.7527 32.5598L21.5061 32.4106L21.2561 32.5538L21.4994 32.9773ZM21.146 49.856L21.6339 49.8871L21.6359 49.8577L21.6342 49.8283L21.146 49.856ZM21.1631 54.2694L20.8855 54.6712L21.656 55.2019L21.6521 54.2673L21.1631 54.2694ZM8.2892 45.4492H7.80025V45.8348L8.17586 45.9241L8.2892 45.4492ZM8.2892 40.5437L8.04592 40.1202L7.80025 40.2609V40.5437H8.2892ZM12.8375 37.9386L13.0953 37.5237L12.8473 37.3701L12.5942 37.5151L12.8375 37.9386ZM13.965 37.2928L13.7217 36.8693L13.011 37.2764L13.7072 37.7077L13.965 37.2928ZM7.63415 40.1965C7.63415 40.1598 7.65835 40.1275 7.69278 40.117L7.40806 39.1829C6.97339 39.315 6.65625 39.7181 6.65625 40.1965H7.63415ZM7.63415 49.3417V40.1965H6.65625V49.3417H7.63415ZM7.63415 58.096V49.3417H6.65625V58.096H7.63415ZM7.71721 58.179C7.67134 58.179 7.63415 58.1419 7.63415 58.096H6.65625C6.65625 58.6811 7.13126 59.1554 7.71721 59.1554V58.179ZM7.80025 58.096C7.80025 58.1419 7.76306 58.179 7.71721 58.179V59.1554C8.30315 59.1554 8.77816 58.6811 8.77816 58.096H7.80025ZM7.80025 49.3417V58.096H8.77816V49.3417H7.80025ZM7.80025 46.7902V49.3417H8.77816V46.7902H7.80025ZM21.4465 55.259L8.56682 46.3883L8.01158 47.1921L20.8913 56.0629L21.4465 55.259ZM21.7037 66.635L21.6578 55.659L20.68 55.663L20.7258 66.6391L21.7037 66.635ZM21.7631 66.7144C21.7285 66.7043 21.7038 66.6719 21.7037 66.635L20.7258 66.6391C20.7278 67.1202 21.0502 67.5239 21.4894 67.6518L21.7631 66.7144ZM21.9037 66.7337C21.8798 66.7477 21.8519 66.7491 21.8268 66.7378L21.4257 67.6284C21.7284 67.7643 22.0925 67.7567 22.4016 67.5741L21.9037 66.7337ZM36.4448 58.1429L21.9037 66.7337L22.4016 67.5741L36.9429 58.9833L36.4448 58.1429ZM36.4741 58.0293C36.4974 58.0687 36.4843 58.1195 36.4448 58.1429L36.9429 58.9833C37.4471 58.6853 37.614 58.0356 37.3158 57.5321L36.4741 58.0293ZM36.3603 58.0002C36.3998 57.9768 36.4507 57.9898 36.4741 58.0293L37.3158 57.5321C37.0173 57.0284 36.3666 56.8618 35.8624 57.1597L36.3603 58.0002ZM22.6039 66.1274L36.3603 58.0002L35.8624 57.1597L22.1058 65.2869L22.6039 66.1274ZM21.8397 59.4163L21.8659 65.7092L22.8438 65.7051L22.8175 59.4122L21.8397 59.4163ZM36.361 50.3826L22.0758 58.9963L22.5814 59.8322L36.8665 51.2186L36.361 50.3826ZM36.3891 50.2689C36.4128 50.308 36.4002 50.359 36.361 50.3826L36.8665 51.2186C37.3681 50.9161 37.5291 50.265 37.2263 49.7641L36.3891 50.2689ZM36.2752 50.2407C36.3144 50.2171 36.3655 50.2296 36.3891 50.2689L37.2263 49.7641C36.9234 49.2632 36.2711 49.1024 35.7696 49.4048L36.2752 50.2407ZM22.5758 58.5011L36.2752 50.2407L35.7696 49.4048L22.0703 57.6652L22.5758 58.5011ZM21.801 50.1467L21.834 58.0852L22.812 58.0812L22.7788 50.1426L21.801 50.1467ZM36.0813 41.2441L22.0369 49.7269L22.5429 50.5625L36.5873 42.0797L36.0813 41.2441ZM36.1212 41.1672C36.1233 41.1985 36.1081 41.2279 36.0813 41.2441L36.5873 42.0797C36.9391 41.8672 37.1223 41.4835 37.097 41.1024L36.1212 41.1672ZM36.0808 41.0327C36.1074 41.0488 36.1225 41.0776 36.1209 41.1086L37.0973 41.161C37.1175 40.7846 36.9347 40.4076 36.5875 40.1976L36.0808 41.0327ZM21.5697 32.2552L36.0808 41.0327L36.5875 40.1976L22.0765 31.42L21.5697 32.2552ZM21.4784 32.2365C21.5024 32.2272 21.531 32.2301 21.5539 32.2451L22.0923 31.43C21.8125 31.2456 21.4528 31.1997 21.1263 31.3255L21.4784 32.2365ZM21.4635 32.2437C21.4677 32.2411 21.4723 32.2388 21.4771 32.237L21.1274 31.325C21.0672 31.3481 21.0088 31.3767 20.9531 31.4107L21.4635 32.2437ZM7.79371 40.0735L21.4516 32.2509L20.965 31.4037L7.30713 39.2264L7.79371 40.0735ZM35.2443 40.7206L21.7527 32.5598L21.246 33.3949L34.7376 41.5558L35.2443 40.7206ZM21.6742 49.7521L35.244 41.556L34.7379 40.7205L21.168 48.9166L21.6742 49.7521ZM21.6342 49.8283C21.6325 49.7972 21.6475 49.7682 21.6742 49.7521L21.168 48.9166C20.8194 49.1271 20.6363 49.506 20.6578 49.8838L21.6342 49.8283ZM21.6338 49.8933C21.6338 49.8912 21.6338 49.8891 21.6339 49.8871L20.6581 49.8249C20.6566 49.849 20.6558 49.8732 20.6559 49.8973L21.6338 49.8933ZM21.6521 54.2673L21.6338 49.8933L20.6559 49.8973L20.6741 54.2713L21.6521 54.2673ZM8.20359 45.9366L20.8855 54.6712L21.4407 53.8674L8.75883 45.1328L8.20359 45.9366ZM8.17586 45.9241C8.18486 45.9263 8.19413 45.9301 8.20359 45.9366L8.75883 45.1328C8.64828 45.0567 8.52731 45.0039 8.40255 44.9742L8.17586 45.9241ZM7.80025 40.5437V45.4492H8.77816V40.5437H7.80025ZM12.5942 37.5151L8.04592 40.1202L8.53249 40.9672L13.0808 38.3621L12.5942 37.5151ZM21.5294 42.7487L13.0953 37.5237L12.5797 38.3535L21.0138 43.5785L21.5294 42.7487ZM21.6437 42.722C21.6196 42.761 21.5684 42.7729 21.5294 42.7487L21.0138 43.5785C21.5118 43.887 22.1658 43.7339 22.4747 43.2367L21.6437 42.722ZM21.617 42.6078C21.656 42.632 21.6679 42.6831 21.6437 42.722L22.4747 43.2367C22.7836 42.7397 22.6304 42.0865 22.1326 41.7781L21.617 42.6078ZM13.7072 37.7077L21.617 42.6078L22.1326 41.7781L14.2228 36.8779L13.7072 37.7077ZM21.2561 32.5538L13.7217 36.8693L14.2083 37.7163L21.7427 33.4009L21.2561 32.5538Z" fill="white"/>
</svg>
