<svg width="160" height="96" viewBox="0 0 160 96" fill="none" xmlns="http://www.w3.org/2000/svg">
<g clip-path="url(#clip0_1224_7753)">
<path d="M97.7883 63.3408C95.5164 63.3408 93.5111 62.9341 91.7721 62.1207C90.0332 61.3073 88.6729 60.1433 87.6912 58.6288C86.7096 57.1142 86.2188 55.2912 86.2188 53.1595V52.9503C86.2188 52.4153 86.6525 51.9815 87.1875 51.9815H90.7192C91.2543 51.9815 91.688 52.4153 91.688 52.9503V53.1595C91.688 54.9265 92.2349 56.2588 93.3287 57.1563C94.4226 58.0258 95.9091 58.4605 97.7883 58.4605C99.6955 58.4605 101.112 58.0819 102.038 57.3246C102.991 56.5673 103.468 55.5997 103.468 54.4217C103.468 53.6083 103.23 52.9492 102.753 52.4443C102.304 51.9394 101.631 51.5328 100.733 51.2243C99.8638 50.8876 98.798 50.5791 97.5359 50.2987L96.5682 50.0883C94.5488 49.6395 92.8099 49.0786 91.3514 48.4055C89.921 47.7043 88.8131 46.7927 88.0278 45.6708C87.2705 44.549 86.8918 43.0905 86.8918 41.2954C86.8918 39.5004 87.3126 37.9718 88.154 36.7097C89.0235 35.4195 90.2295 34.4378 91.7721 33.7647C93.3428 33.0635 95.1799 32.7129 97.2835 32.7129C99.387 32.7129 101.252 33.0775 102.879 33.8067C104.534 34.5079 105.824 35.5737 106.749 37.0042C107.703 38.4065 108.18 40.1735 108.18 42.3051V42.5986C108.18 43.1335 107.746 43.5673 107.211 43.5673H103.679C103.144 43.5673 102.711 43.1335 102.711 42.5986V42.3051C102.711 41.1832 102.486 40.2857 102.038 39.6126C101.617 38.9114 101 38.4065 100.186 38.098C99.373 37.7614 98.4053 37.5932 97.2835 37.5932C95.6006 37.5932 94.3525 37.9157 93.5391 38.5608C92.7538 39.1778 92.3611 40.0333 92.3611 41.1271C92.3611 41.8564 92.5434 42.4734 92.908 42.9783C93.3007 43.4831 93.8757 43.9038 94.633 44.2405C95.3903 44.577 96.3579 44.8715 97.5359 45.1239L98.5036 45.3343C100.607 45.783 102.43 46.358 103.973 47.0592C105.543 47.7604 106.764 48.686 107.633 49.8359C108.502 50.9859 108.937 52.4583 108.937 54.2534C108.937 56.0484 108.474 57.6331 107.549 59.0074C106.651 60.3537 105.361 61.4195 103.678 62.2048C102.023 62.9621 100.06 63.3408 97.7883 63.3408Z" fill="#F8FCFC"/>
<path d="M114.043 38.3469C113.508 38.348 113.074 38.7817 113.074 39.3167V61.7824C113.074 62.3175 113.508 62.7511 114.043 62.7511H131.29C131.825 62.7511 132.259 62.3175 132.259 61.7824V58.6714C132.259 58.1363 131.825 57.7026 131.29 57.7026H118.628V50.4243H129.86C130.395 50.4243 130.828 49.9906 130.828 49.4555V46.3445C130.828 45.8095 130.395 45.3757 129.86 45.3757H118.628V39.1397C118.683 38.7341 119.017 38.4118 119.442 38.3498H131.038C131.573 38.3498 132.006 37.9161 132.006 37.3811V34.27C132.006 33.735 131.573 33.3013 131.038 33.3013H119.593C119.059 33.3013 118.625 33.7341 118.624 34.2685L118.62 37.419C118.62 37.9277 118.185 38.339 117.648 38.339C116.444 38.339 115.244 38.3446 114.043 38.3469Z" fill="#F8FCFC"/>
<path fill-rule="evenodd" clip-rule="evenodd" d="M67.7241 51.1192C67.6561 51.6025 67.2198 51.9746 66.6904 51.9746H63.2148C63.1755 51.9746 63.1368 51.9765 63.0986 51.9805C62.5831 52.0026 62.1719 52.4274 62.1719 52.9484V61.7824C62.1719 62.3175 62.6056 62.7511 63.1406 62.7511H66.7565C67.2916 62.7511 67.7253 62.3175 67.7253 61.7824V61.6406C67.7306 61.6001 67.7334 61.5588 67.7334 61.5169V52.9618C67.7334 52.4575 68.1793 51.9809 68.694 51.9809H74.2884C76.0834 51.9809 77.6821 51.6163 79.0845 50.887C80.515 50.1298 81.6368 49.078 82.4502 47.7317C83.2917 46.3574 83.7124 44.7587 83.7124 42.9356V42.3466C83.7124 40.4954 83.3056 38.8968 82.4923 37.5505C81.7069 36.2042 80.5991 35.1664 79.1686 34.4372C77.7663 33.6799 76.1396 33.3013 74.2884 33.3013H63.1407C62.6057 33.3013 62.1719 33.7351 62.172 34.2701L62.1731 45.9637C62.1732 46.4987 62.6069 46.9324 63.1419 46.9324C63.7515 46.9324 64.361 46.9333 64.9707 46.9343H64.9719C65.5823 46.9352 66.193 46.9361 66.8041 46.9361C67.3128 46.9361 67.7241 47.3706 67.7241 47.908V48.9922V51.1192ZM67.7253 38.3498V46.0132C67.748 46.499 68.1073 46.8902 68.5625 46.9324H73.7414C75.0597 46.9324 76.1255 46.5678 76.9389 45.8385C77.7523 45.1093 78.1589 44.1136 78.1589 42.8514V42.4308C78.1589 41.1686 77.7523 40.1729 76.9389 39.4437C76.1255 38.7144 75.0597 38.3498 73.7414 38.3498H67.7253Z" fill="#F8FCFC"/>
<g clip-path="url(#clip1_1224_7753)">
<path d="M56.2297 49.9417C56.2297 50.4975 55.8653 50.9591 55.3841 51.0658C55.3153 51.0807 55.2443 51.0882 55.1709 51.0882H51.6348C51.0482 51.0882 50.5738 51.6018 50.5738 52.237V56.0658C50.5738 56.4628 50.3881 56.8103 50.1062 57.0187C49.994 57.1006 49.8656 57.1601 49.7281 57.1924C49.6594 57.2073 49.5883 57.2147 49.515 57.2147H45.9789C45.3922 57.2147 44.9178 57.7284 44.9178 58.3636V62.1924C44.9178 62.8277 44.4435 63.3413 43.8568 63.3413H40.3206C39.734 63.3413 39.2596 62.8277 39.2596 62.1924V58.3636C39.2596 57.7284 39.734 57.2147 40.3206 57.2147H43.8568C44.4435 57.2147 44.9178 56.7011 44.9178 56.0658V52.237C44.9178 51.6018 45.3922 51.0882 45.9789 51.0882H49.515C50.1017 51.0882 50.5761 50.5745 50.5761 49.9393V44.9615C50.5761 41.5869 48.0552 38.8474 44.9385 38.8375C41.824 38.8499 39.3008 41.5869 39.3008 44.9615V49.9393C39.3008 50.5745 38.8264 51.0882 38.2398 51.0882H34.7037C34.117 51.0882 33.6426 51.6018 33.6426 52.237V62.1924C33.6426 62.8277 33.1682 63.3413 32.5816 63.3413H29.0454C28.4588 63.3413 27.9844 62.8277 27.9844 62.1924V52.237C27.9844 51.6018 28.4588 51.0882 29.0454 51.0882H32.5816C33.1682 51.0882 33.6426 50.5745 33.6426 49.9393V44.9392C33.6426 38.1873 38.6981 32.7134 44.9361 32.7134C51.1742 32.7134 56.2297 38.1873 56.2297 44.9417V49.9417Z" fill="#F8FCFC"/>
</g>
</g>
<defs>
<clipPath id="clip0_1224_7753">
<rect width="118.011" height="30.5734" fill="white" transform="translate(20.9961 32.7131)"/>
</clipPath>
<clipPath id="clip1_1224_7753">
<rect width="28.6336" height="30.6279" fill="white" transform="translate(27.9844 32.7131)"/>
</clipPath>
</defs>
</svg>
