<svg width="161" height="96" viewBox="0 0 161 96" fill="none" xmlns="http://www.w3.org/2000/svg">
<path d="M48.3414 53.013C48.2234 52.9683 48.2072 52.9094 48.2072 52.8591C48.2072 52.7779 48.227 52.7556 48.2407 52.7388C48.2544 52.719 48.2936 52.6774 48.4115 52.6185C49.9641 51.7381 50.7536 50.4303 50.7536 48.7365C50.7536 47.0428 50.2076 45.8441 49.1304 44.9439C48.0587 44.0331 46.6033 43.569 44.8011 43.569H37.416V62.459H44.7955C46.6648 62.459 48.1589 61.9949 49.228 61.0841C50.3225 60.1672 50.8761 58.8481 50.8761 57.1605C50.8761 55.0814 50.0225 53.6837 48.3383 53.0104L48.3414 53.013ZM47.0654 50.9563C46.5001 51.3893 45.649 51.6076 44.5383 51.6076H40.237V46.1274H44.5383C45.649 46.1274 46.5001 46.3452 47.0679 46.7788C47.6413 47.2038 47.9326 47.9049 47.9326 48.8665C47.9326 49.8281 47.6418 50.5293 47.0679 50.9542L47.0654 50.9563ZM40.237 54.1645H44.5383C45.7192 54.1645 46.6119 54.3909 47.1965 54.8408C47.7705 55.2657 48.0613 56.0034 48.0613 57.032C48.0613 58.0607 47.7705 58.8095 47.1965 59.2482C46.6144 59.6813 45.7192 59.8996 44.5383 59.8996H40.237V54.1619V54.1645Z" fill="white"/>
<path d="M63.1076 55.8661C63.1076 57.4202 62.7492 58.6078 62.0466 59.3958C61.3639 60.1614 60.3594 60.5498 59.0666 60.5498C57.9278 60.5498 57.0463 60.2396 56.447 59.6247C55.8476 59.0099 55.5431 58.0935 55.5431 56.9029V48.7536H52.9824V57.2918C52.9824 59.0439 53.4832 60.4218 54.4684 61.389C55.4536 62.3562 56.8247 62.8477 58.546 62.8477C60.4066 62.8477 61.8504 62.213 62.83 60.9752L62.9587 60.8468C62.9866 60.8189 63.0151 60.8021 63.0344 60.8021C63.0929 60.8021 63.104 60.8133 63.104 60.8722V62.4623H65.6647V48.7541H63.104V55.8667H63.1076V55.8661Z" fill="white"/>
<path d="M71.129 48.7538H68.5684V62.459H71.129V48.7538Z" fill="white"/>
<path d="M69.847 43.5217C68.9431 43.5217 68.207 44.2569 68.207 45.1621V45.2657C68.207 46.1684 68.9431 46.9061 69.847 46.9061C70.7509 46.9061 71.487 46.171 71.487 45.2657V45.1621C71.487 44.2599 70.7509 43.5217 69.847 43.5217Z" fill="white"/>
<path d="M84.8045 50.344C84.8045 50.439 84.7765 50.439 84.7343 50.439C84.7094 50.439 84.6367 50.439 84.5355 50.2963C83.4639 49.0133 81.9302 48.3624 79.9856 48.3624C78.8296 48.3624 77.73 48.6361 76.7143 49.1783C75.696 49.7038 74.8511 50.5197 74.2045 51.6072C73.5746 52.6917 73.2559 54.0356 73.2559 55.6039C73.2559 57.1718 73.5746 58.5162 74.207 59.6032C74.8537 60.6877 75.6986 61.5122 76.7173 62.057C77.7331 62.5824 78.8327 62.848 79.9882 62.848C81.9357 62.848 83.4664 62.1966 84.5442 60.9085C84.6392 60.7745 84.7145 60.7745 84.7399 60.7745C84.7791 60.7745 84.8096 60.7745 84.8096 60.8694V62.4596H87.3702V43.5696H84.8096V50.344H84.8045ZM83.6683 51.9789C84.5076 52.8339 84.9331 54.0554 84.9331 55.6065C84.9331 57.1575 84.5076 58.3903 83.6657 59.262C82.8432 60.117 81.7349 60.5506 80.372 60.5506C79.0096 60.5506 77.8902 60.1175 77.0534 59.2651C76.2308 58.3933 75.8109 57.1606 75.8109 55.6095C75.8109 54.0585 76.2278 52.8344 77.0508 51.9794C77.8901 51.1076 79.0065 50.6659 80.3695 50.6659C81.7319 50.6659 82.8401 51.1076 83.6632 51.9794H83.6683V51.9789Z" fill="white"/>
<path d="M92.8009 43.5697H90.2402V62.4596H92.8009V43.5697Z" fill="white"/>
<path d="M101.671 46.6548C102.687 46.0456 103.882 45.7379 105.223 45.7379C107.036 45.7379 108.424 46.1908 109.35 47.0793C110.277 47.9708 110.817 49.1863 110.951 50.6901L110.96 50.7907H113.774L113.769 50.6734C113.716 49.3823 113.371 48.1551 112.742 47.0209C112.112 45.8836 111.152 44.953 109.896 44.2569C108.656 43.5416 107.126 43.178 105.349 43.178C103.418 43.178 101.697 43.5918 100.234 44.4108C98.7669 45.213 97.617 46.37 96.8138 47.851C96.0298 49.3295 95.6328 51.0648 95.6328 53.0099C95.6328 54.9549 96.0217 56.6908 96.7883 58.1687C97.5748 59.6497 98.7166 60.818 100.183 61.6369C101.646 62.4361 103.384 62.8443 105.351 62.8443C107.844 62.8443 109.817 62.1985 111.216 60.9216C112.635 59.6442 113.357 57.8611 113.357 55.6282V53.6745H103.683V56.2318H110.537C110.511 57.4392 110.097 58.4201 109.303 59.1497C108.48 59.9041 107.196 60.2869 105.486 60.2869C104.025 60.2869 102.749 59.9879 101.7 59.3954C100.65 58.7861 99.836 57.9281 99.2793 56.8492C98.7364 55.7454 98.4593 54.4543 98.4593 53.0094C98.4593 51.5644 98.742 50.3012 99.3043 49.1975C99.864 48.0993 100.662 47.2413 101.677 46.6513L101.671 46.6548Z" fill="white"/>
<path d="M125.742 55.8663C125.742 57.4204 125.383 58.608 124.681 59.3959C123.999 60.1616 122.994 60.55 121.701 60.55C120.559 60.55 119.681 60.2397 119.082 59.6249C118.483 59.0101 118.178 58.0937 118.178 56.9031V48.7538H115.617V57.292C115.617 59.0441 116.118 60.422 117.106 61.3892C118.091 62.3564 119.462 62.8479 121.183 62.8479C123.044 62.8479 124.491 62.2132 125.467 60.9754L125.596 60.847C125.624 60.8191 125.652 60.8023 125.672 60.8023C125.731 60.8023 125.742 60.8135 125.742 60.8724V62.4625H128.303V48.7543H125.742V55.8663Z" fill="white"/>
<path d="M133.762 48.7538H131.201V62.459H133.762V48.7538Z" fill="white"/>
<path d="M132.479 43.5219C131.575 43.5219 130.836 44.257 130.836 45.1623V45.2658C130.836 46.1686 131.572 46.9063 132.479 46.9063C133.385 46.9063 134.122 46.1711 134.122 45.2658V45.1623C134.121 44.2601 133.385 43.5219 132.479 43.5219Z" fill="white"/>
<path d="M147.435 50.344C147.435 50.439 147.407 50.439 147.365 50.439C147.34 50.439 147.268 50.439 147.166 50.2963C146.095 49.0133 144.562 48.3624 142.616 48.3624C141.461 48.3624 140.361 48.6361 139.346 49.1783C138.327 49.7038 137.482 50.5197 136.835 51.6072C136.206 52.6917 135.887 54.0356 135.887 55.6039C135.887 57.1718 136.206 58.5162 136.838 59.6032C137.485 60.6877 138.33 61.5122 139.348 62.057C140.364 62.5824 141.464 62.848 142.62 62.848C144.567 62.848 146.098 62.1966 147.175 60.9085C147.27 60.7745 147.346 60.7745 147.371 60.7745C147.41 60.7745 147.441 60.7745 147.441 60.8694V62.4596H150.002V43.5696H147.441V50.344H147.435ZM146.3 51.9789C147.139 52.8339 147.564 54.0554 147.564 55.6065C147.564 57.1575 147.139 58.3903 146.297 59.262C145.474 60.117 144.366 60.5506 143.003 60.5506C141.64 60.5506 140.521 60.1175 139.684 59.2651C138.862 58.3933 138.442 57.1606 138.442 55.6095C138.442 54.0585 138.859 52.8344 139.682 51.9794C140.521 51.1076 141.638 50.6659 143 50.6659C144.363 50.6659 145.471 51.1076 146.294 51.9794H146.3V51.9789Z" fill="white"/>
<path d="M155.434 43.5696H152.873V62.4596H155.434V43.5696Z" fill="white"/>
<path d="M29.7113 43.6221V62.4897H21.8463V56.9334C21.8463 54.4922 19.8752 52.513 17.4535 52.513C15.0317 52.513 13.0607 54.4922 13.0607 56.9334V62.4897H5.22852V43.6221H9.8123V46.3483C9.8123 47.515 10.7558 48.4584 11.9132 48.4584C13.0706 48.4584 14.0141 47.515 14.0141 46.3483V43.6221H20.8898V46.3368C20.8898 47.5035 21.8333 48.4468 22.9907 48.4468C24.1481 48.4468 25.0916 47.5035 25.0916 46.3368V43.6221H29.7113Z" fill="#7F8CFF"/>
<path d="M16.3848 33.6771V45.3846H18.4287V40.1356C18.4287 40.1356 18.9509 39.0576 20.8549 39.5331C23.3744 40.1625 26.4785 39.736 28.4712 36.1167C22.4328 38.1125 22.271 31.254 16.3848 33.6771Z" fill="#7F8CFF"/>
</svg>
