<svg width="160" height="96" viewBox="0 0 160 96" fill="none" xmlns="http://www.w3.org/2000/svg">
<g clip-path="url(#clip0_1328_1069)">
<path d="M129.406 36.3055C129.406 35.1235 130.362 34.1675 131.514 34.1675C132.667 34.1675 133.651 35.1235 133.651 36.3055C133.651 37.4876 132.695 38.4158 131.514 38.4158C130.334 38.4158 129.406 37.4876 129.406 36.3055Z" fill="white"/>
<path d="M156.434 36.959V41.374H159.424V44.4263H156.434V51.1219C156.434 52.3977 156.996 52.9297 158.271 52.9297C158.743 52.9297 159.306 52.8393 159.455 52.8114V55.6552C159.247 55.7456 158.597 55.9819 157.353 55.9819C154.69 55.9819 153.035 54.3827 153.035 51.6851V44.4263H150.371V41.374H151.113H153.329V39.1978C153.329 39.1735 153.329 39.1456 153.329 39.1213V36.959H156.437H156.434Z" fill="white"/>
<path d="M39.08 52.4017C39.7397 53.5454 40.639 54.4563 41.7815 55.1341C42.9413 55.7947 44.2435 56.1249 45.688 56.1249C46.7402 56.1249 47.7124 55.9476 48.6049 55.5895C49.4973 55.2141 50.2647 54.7065 50.9071 54.0634C51.5495 53.4028 52.0113 52.6624 52.2995 51.842L49.2229 50.4479C48.9556 51.1988 48.5111 51.7967 47.8861 52.2417C47.261 52.6868 46.5318 52.9127 45.6915 52.9127C44.924 52.9127 44.2366 52.725 43.6323 52.3495C43.0454 51.974 42.5802 51.4561 42.2399 50.7956C41.8996 50.135 41.7329 49.3771 41.7329 48.5185C41.7329 47.6598 41.903 46.9019 42.2399 46.2415C42.5802 45.5809 43.042 45.063 43.6323 44.6875C44.24 44.312 44.924 44.1244 45.6915 44.1244C46.511 44.1244 47.2333 44.3468 47.8583 44.7953C48.5007 45.2402 48.9556 45.8312 49.2229 46.5613L52.2995 45.2228C52.0148 44.3468 51.5426 43.5994 50.8828 42.9736C50.2404 42.3305 49.473 41.8299 48.5806 41.4753C47.6881 41.0998 46.7263 40.9121 45.6915 40.9121C44.2469 40.9121 42.9447 41.2424 41.785 41.9029C40.6426 42.5634 39.7431 43.4638 39.0834 44.6075C38.4237 45.7513 38.0938 47.0445 38.0938 48.4907C38.0938 49.9368 38.4237 51.2406 39.0834 52.4017H39.08Z" fill="white"/>
<path d="M57.4873 41.2352H54.1953V55.8048H57.699V47.6909C57.699 46.5854 58.0012 45.7267 58.6089 45.1183C59.2165 44.4926 60.0187 44.1797 61.0153 44.1797H62.2722V41.0718H61.4145C60.3971 41.0718 59.5256 41.2873 58.7929 41.7149C58.2442 42.0452 57.8101 42.5666 57.4837 43.2828V41.2317L57.4873 41.2352Z" fill="white"/>
<path fill-rule="evenodd" clip-rule="evenodd" d="M70.4627 40.9292C74.7825 40.9292 77.9528 44.1588 77.9528 48.5739C77.9528 52.9889 74.7859 56.2497 70.4627 56.2497C66.1395 56.2497 63.0039 53.0202 63.0039 48.5739C63.0039 44.1275 66.1707 40.9292 70.4627 40.9292ZM70.4627 53.1662C72.5947 53.1662 74.4872 51.5949 74.4872 48.5739C74.4872 45.5528 72.5913 44.0406 70.4627 44.0406C68.334 44.0406 66.4381 45.5807 66.4381 48.5739C66.4381 51.567 68.3619 53.1662 70.4627 53.1662Z" fill="white"/>
<path d="M82.0914 51.0631L79.1016 51.8939C79.2787 53.5243 80.8761 56.2499 85.0499 56.2499C88.7203 56.2499 90.4947 53.8198 90.4947 51.6262C90.4947 49.4325 89.0745 47.8334 86.3521 47.239L84.161 46.7939C83.272 46.6166 82.7095 46.0535 82.7095 45.2818C82.7095 44.3917 83.5672 43.6235 84.7825 43.6235C86.7063 43.6235 87.3279 44.9585 87.4459 45.7858L90.3454 44.9549C90.1093 43.5331 88.8072 40.9258 84.7825 40.9258C81.7928 40.9258 79.4835 43.0603 79.4835 45.5772C79.4835 47.5623 80.817 49.2206 83.3624 49.7837L85.4944 50.2565C86.6473 50.4929 87.182 51.0874 87.182 51.8556C87.182 52.7456 86.4424 53.5139 85.0222 53.5139C83.1887 53.5139 82.2095 52.3597 82.0914 51.056V51.0631Z" fill="white"/>
<path d="M91.6445 51.8937L94.6343 51.0628C94.7524 52.3666 95.7281 53.5207 97.5651 53.5207C98.9852 53.5207 99.7249 52.749 99.7249 51.8625C99.7249 51.0907 99.1937 50.4997 98.0373 50.2633L95.9052 49.7905C93.3598 49.2274 92.0265 47.5691 92.0265 45.584C92.0265 43.0637 94.3356 40.9326 97.3254 40.9326C101.35 40.9326 102.652 43.5399 102.888 44.9618L99.9889 45.7927C99.8708 44.9618 99.2491 43.6303 97.3254 43.6303C96.1135 43.6303 95.2524 44.4021 95.2524 45.2886C95.2524 46.0604 95.8149 46.6235 96.7038 46.8009L98.895 47.2458C101.617 47.8368 103.038 49.4985 103.038 51.633C103.038 53.7675 101.263 56.2567 97.5928 56.2567C93.4189 56.2567 91.8216 53.5311 91.6445 51.9007V51.8937Z" fill="white"/>
<path d="M108.562 41.2353H105.27V55.8049H108.773V47.2599C108.773 46.6167 108.888 46.064 109.121 45.5982C109.353 45.1323 109.683 44.7778 110.11 44.5275C110.537 44.2598 111.03 44.1241 111.583 44.1241C112.134 44.1241 112.645 44.2598 113.055 44.5275C113.481 44.7778 113.812 45.1358 114.045 45.5982C114.277 46.064 114.391 46.6167 114.391 47.2599V55.8049H117.895V47.2599C117.895 46.6167 118.01 46.064 118.243 45.5982C118.476 45.1323 118.805 44.7778 119.232 44.5275C119.66 44.2598 120.152 44.1241 120.705 44.1241C121.292 44.1241 121.792 44.2598 122.201 44.5275C122.611 44.7778 122.934 45.1358 123.164 45.5982C123.396 46.064 123.51 46.6167 123.51 47.2599V55.8049H127.014V46.4325C127.014 45.3444 126.782 44.3884 126.32 43.568C125.858 42.7302 125.216 42.0766 124.392 41.6142C123.59 41.1484 122.67 40.9189 121.635 40.9189C120.476 40.9189 119.452 41.2144 118.559 41.802C117.986 42.1705 117.503 42.6606 117.114 43.2725C116.794 42.7232 116.35 42.2504 115.777 41.8576C114.867 41.2318 113.815 40.9189 112.621 40.9189C111.534 40.9189 110.59 41.1762 109.783 41.6942C109.26 42.0314 108.85 42.4868 108.554 43.0535V41.2388L108.562 41.2353Z" fill="white"/>
<path d="M133.231 55.8046H129.828V41.374H133.231V55.8046Z" fill="white"/>
<path d="M136.312 41.3711V55.8017H139.785V47.3401C139.785 46.7039 139.91 46.1547 140.157 45.6957C140.403 45.2369 140.747 44.8823 141.191 44.6354C141.632 44.3713 142.135 44.2392 142.702 44.2392C143.268 44.2392 143.789 44.3713 144.212 44.6354C144.653 44.8823 144.997 45.2369 145.247 45.6957C145.493 46.1547 145.619 46.7039 145.619 47.3401V55.8017H149.091V46.5162C149.091 45.4385 148.862 44.4894 148.403 43.6759C147.946 42.8451 147.299 42.1985 146.469 41.7396C145.657 41.2807 144.719 41.0513 143.66 41.0513C142.602 41.0513 141.733 41.2807 140.959 41.7396C140.375 42.0803 139.914 42.5461 139.58 43.1406V41.3711H136.319H136.312Z" fill="white"/>
<path fill-rule="evenodd" clip-rule="evenodd" d="M24.3118 49.8009C21.8082 48.5181 18.4677 48.087 16.5058 47.941C19.1761 47.7428 24.4021 47.0162 26.5898 44.3324C30.0137 41.7668 29.8503 33.0862 29.8503 33.0862C29.8503 33.0862 21.6346 32.1789 18.0476 36.2741C15.8182 38.4955 15.1273 42.3544 14.9258 45.0416C14.7244 42.3578 14.0334 38.4955 11.8041 36.2741C8.21702 32.1754 0.00120145 33.0862 0.00120145 33.0862C0.00120145 33.0862 -0.0994998 38.499 1.54297 42.0415C2.35205 43.7867 3.83132 45.2085 5.53977 46.0846C8.0434 47.3674 11.3839 47.7984 13.3458 47.9444C11.3839 48.0905 8.0434 48.5215 5.53977 49.8043C3.83132 50.6803 2.35205 52.1022 1.54297 53.8474C-0.0994998 57.3863 0.00120145 62.7991 0.00120145 62.7991C0.00120145 62.7991 8.21702 63.7065 11.8041 59.6113C14.0334 57.3899 14.7244 53.5276 14.9258 50.8437C15.1273 53.5276 15.8182 57.3899 18.0476 59.6113C21.6346 63.7065 29.8503 62.7991 29.8503 62.7991C29.8503 62.7991 29.9546 57.3863 28.3086 53.8439C27.4995 52.0988 26.0203 50.6769 24.3118 49.8009ZM24.5861 57.3933C24.5445 57.3829 20.256 56.1592 14.7522 48.7996C13.1375 50.0616 9.08166 53.399 5.2203 57.9565L5.04668 58.1616L5.11613 57.9009C5.12654 57.8556 6.38357 53.4337 14.0403 47.8019C13.3007 46.7033 11.561 44.176 4.84527 38.2209L4.69596 38.0888L4.89389 38.1166C5.03626 38.1375 8.48787 38.6798 14.7938 46.8146C14.7938 46.8146 14.8737 46.9258 15.0195 47.1205C15.9085 46.5052 18.4816 44.6766 24.2667 38.134L24.3986 37.9845L24.3709 38.1827C24.3501 38.3252 23.8083 41.7634 15.7349 48.0522C17.2593 49.9781 20.4123 53.6979 24.6417 57.2856L24.85 57.4629L24.5897 57.3933H24.5861Z" fill="url(#paint0_linear_1328_1069)"/>
</g>
<defs>
<linearGradient id="paint0_linear_1328_1069" x1="0.0428712" y1="33.0445" x2="29.8427" y2="62.8068" gradientUnits="userSpaceOnUse">
<stop stop-color="#5EDD4D"/>
<stop offset="1" stop-color="#05CE6C"/>
</linearGradient>
<clipPath id="clip0_1328_1069">
<rect width="160" height="29.8847" fill="white" transform="translate(0 33)"/>
</clipPath>
</defs>
</svg>
