<svg width="121" height="72" viewBox="0 0 121 72" fill="none" xmlns="http://www.w3.org/2000/svg">
<g clip-path="url(#clip0_1635_6593)">
<path d="M17.7843 27.001H2V29.3166H16.6284V35.2996H7.2964C6.65848 35.2996 6.14057 35.8176 6.14057 36.4579V41.035H8.45233V37.6162H17.7843C18.4223 37.6162 18.9401 37.0982 18.9401 36.4579V28.1583C18.9401 27.519 18.4232 27 17.7843 27V27.001Z" fill="white"/>
<path d="M4.31177 42.7676H10.2812V39.45H12.5929V43.927C12.5929 44.5672 12.0749 45.0852 11.4369 45.0852H3.15583C2.51694 45.0852 2 44.5662 2 43.927V32.3087C2 31.6684 2.51791 31.1504 3.15583 31.1504H14.7996V33.466H4.31177V42.7676Z" fill="white"/>
<path d="M17.7843 27.001H2V29.3166H16.6284V35.2996H7.2964C6.65848 35.2996 6.14057 35.8176 6.14057 36.4579V41.035H8.45233V37.6162H17.7843C18.4223 37.6162 18.9401 37.0982 18.9401 36.4579V28.1583C18.9401 27.519 18.4232 27 17.7843 27V27.001Z" fill="white"/>
<path d="M99.5462 27.002H86.4801C85.8464 27.002 85.332 27.517 85.332 28.1522V43.9198C85.332 44.5551 85.8464 45.0701 86.4801 45.0701H99.5149C99.819 45.0701 100.112 44.9488 100.327 44.7334C100.542 44.518 100.663 44.2254 100.663 43.9198V38.7484H98.3669V42.7694H87.6289V29.3035H98.3981V31.1372H90.608C89.9736 31.1372 89.4599 31.6522 89.4599 32.2875V39.7805C89.4599 40.4158 89.9736 40.9308 90.608 40.9308H96.5372V38.6292H91.7554V33.4368H99.5462C100.18 33.4368 100.694 32.9218 100.694 32.2865V28.1522C100.694 27.517 100.18 27.002 99.5462 27.002Z" fill="white"/>
<path d="M4.31177 42.7676H10.2812V39.45H12.5929V43.927C12.5929 44.5672 12.0749 45.0852 11.4369 45.0852H3.15583C2.51694 45.0852 2 44.5662 2 43.927V32.3087C2 31.6684 2.51791 31.1504 3.15583 31.1504H14.7996V33.466H4.31177V42.7676Z" fill="white"/>
<path d="M81.3547 45.0842H77.2143C76.5764 45.0842 76.0586 44.5661 76.0586 43.9258V28.1583C76.0586 27.519 76.5757 27 77.2143 27H82.5167V29.3166H78.37V42.7675H80.1997V31.1503H82.5111V43.9258C82.5111 44.5651 81.994 45.0842 81.3547 45.0842Z" fill="white"/>
<path d="M22.816 45.0842H26.9566C27.5956 45.0842 28.1125 44.5651 28.1125 43.9258V31.1503H25.8017V42.7675H23.9719V29.3166H28.1184V27H22.816C22.1771 27 21.6602 27.519 21.6602 28.1583V43.9258C21.6602 44.5661 22.178 45.0842 22.816 45.0842Z" fill="white"/>
<path d="M56.3111 28.1583V43.9258C56.3111 44.5651 55.7942 45.0841 55.1562 45.0841H50.0147V42.7675H54.0003V29.3166H47.942L44.6383 37.0841C44.4563 37.511 44.0384 37.7876 43.5755 37.7876C43.1125 37.7876 42.6945 37.511 42.5126 37.0841L39.209 29.3166H33.1506V42.7675H37.1361V45.0841H31.9947C31.3568 45.0841 30.8398 44.5651 30.8398 43.9258V28.1583C30.8398 27.519 31.3568 27.001 31.9947 27.001H39.9719C40.4358 27.001 40.8538 27.2775 41.0357 27.7044L43.5755 33.6763L46.1152 27.7044C46.2972 27.2775 46.7151 27.001 47.1791 27.001H55.1562C55.7942 27.001 56.3111 27.519 56.3111 28.1583Z" fill="white"/>
<path d="M52.1706 40.9339V32.3087C52.1706 31.6684 51.6527 31.1504 51.0147 31.1504H49.9409C49.4779 31.1504 49.059 31.4269 48.878 31.8538L45.3284 40.0892H41.8227L38.2731 31.8538C38.0922 31.4269 37.6732 31.1504 37.2103 31.1504H36.1363C35.4984 31.1504 34.9805 31.6684 34.9805 32.3087V40.9339H37.1362V34.3468L40.3109 41.7015C40.4919 42.1283 40.9108 42.4049 41.3738 42.4049H45.7773C46.2402 42.4049 46.6592 42.1283 46.8402 41.7015L50.0148 34.3468V40.9339H52.1706Z" fill="white"/>
<path d="M71.1206 42.7676H61.4407V31.1504H59.1289V43.9259C59.1289 44.5652 59.6459 45.0843 60.2848 45.0843H72.2767C72.9146 45.0843 73.4325 44.5662 73.4325 43.9259V38.6714H71.1206V42.7676Z" fill="white"/>
<path d="M64.4251 40.9349C63.7863 40.9349 63.2693 40.4158 63.2693 39.7765H63.2683V29.3166H59.1797V27H64.4242C65.0631 27 65.58 27.519 65.58 28.1583V38.6192H69.2906V40.9349H64.4251Z" fill="white"/>
<path fill-rule="evenodd" clip-rule="evenodd" d="M108.746 31.1372H114.712C115.333 31.1372 115.837 31.6422 115.837 32.2645V39.8085C115.837 40.4308 115.333 40.9358 114.712 40.9358H108.746C108.125 40.9358 107.621 40.4308 107.621 39.8085V32.2645C107.621 31.6422 108.125 31.1372 108.746 31.1372ZM109.872 33.3917H113.586V38.6813H109.872V33.3917Z" fill="white"/>
<path fill-rule="evenodd" clip-rule="evenodd" d="M118.799 27.002H104.66C104.027 27.002 103.512 27.517 103.512 28.1522V43.9198C103.512 44.5551 104.027 45.0701 104.66 45.0701H118.799C119.433 45.0701 119.947 44.5551 119.947 43.9198V28.1522C119.947 27.517 119.433 27.002 118.799 27.002ZM117.652 42.7694H105.809V29.3035H117.652V42.7694Z" fill="white"/>
</g>
<defs>
<clipPath id="clip0_1635_6593">
<rect width="118" height="18.0851" fill="white" transform="translate(2 27)"/>
</clipPath>
</defs>
</svg>
