<svg width="161" height="96" viewBox="0 0 161 96" fill="none" xmlns="http://www.w3.org/2000/svg">
<rect x="5.14844" y="29" width="38" height="38" rx="19" fill="#8963D2"/>
<path d="M54.6279 46.5V33.4091H59.7927C60.7856 33.4091 61.6315 33.5987 62.3303 33.978C63.0292 34.353 63.5618 34.875 63.9283 35.544C64.2991 36.2088 64.4844 36.9759 64.4844 37.8452C64.4844 38.7145 64.2969 39.4815 63.9219 40.1463C63.5469 40.8111 63.0036 41.3288 62.292 41.6996C61.5846 42.0703 60.728 42.2557 59.7224 42.2557H56.4305V40.0376H59.2749C59.8076 40.0376 60.2465 39.946 60.5917 39.7628C60.9411 39.5753 61.2011 39.3175 61.3715 38.9893C61.5462 38.657 61.6336 38.2756 61.6336 37.8452C61.6336 37.4105 61.5462 37.0312 61.3715 36.7074C61.2011 36.3793 60.9411 36.1257 60.5917 35.9467C60.2422 35.7635 59.7991 35.6719 59.2621 35.6719H57.3957V46.5H54.6279ZM73.2472 42.3196V36.6818H75.9702V46.5H73.3559V44.7166H73.2536C73.032 45.2919 72.6634 45.7543 72.1478 46.1037C71.6364 46.4531 71.0121 46.6278 70.2749 46.6278C69.6187 46.6278 69.0413 46.4787 68.5427 46.1804C68.0441 45.8821 67.6542 45.4581 67.3729 44.9084C67.0959 44.3587 66.9553 43.7003 66.9511 42.9332V36.6818H69.6741V42.4474C69.6783 43.027 69.8339 43.4851 70.1407 43.8217C70.4475 44.1584 70.8587 44.3267 71.3744 44.3267C71.7025 44.3267 72.0093 44.2521 72.2948 44.103C72.5803 43.9496 72.8104 43.7237 72.9852 43.4254C73.1641 43.1271 73.2515 42.7585 73.2472 42.3196ZM78.8683 46.5V36.6818H81.5082V38.3949H81.6105C81.7895 37.7855 82.0899 37.3253 82.5118 37.0142C82.9337 36.6989 83.4195 36.5412 83.9692 36.5412C84.1055 36.5412 84.2526 36.5497 84.4102 36.5668C84.5679 36.5838 84.7064 36.6072 84.8257 36.6371V39.0533C84.6979 39.0149 84.521 38.9808 84.2952 38.951C84.0693 38.9212 83.8626 38.9062 83.6751 38.9062C83.2746 38.9062 82.9166 38.9936 82.6013 39.1683C82.2902 39.3388 82.043 39.5774 81.8598 39.8842C81.6808 40.1911 81.5913 40.5447 81.5913 40.9453V46.5H78.8683ZM86.9536 50.1818V36.6818H89.6382V38.331H89.7597C89.879 38.0668 90.0516 37.7983 90.2774 37.5256C90.5075 37.2486 90.8058 37.0185 91.1723 36.8352C91.543 36.6477 92.0033 36.554 92.553 36.554C93.2689 36.554 93.9294 36.7415 94.5345 37.1165C95.1396 37.4872 95.6233 38.0476 95.9855 38.7976C96.3477 39.5433 96.5288 40.4787 96.5288 41.6037C96.5288 42.6989 96.352 43.6236 95.9983 44.3778C95.6489 45.1278 95.1716 45.6967 94.5665 46.0845C93.9656 46.468 93.2923 46.6598 92.5466 46.6598C92.0182 46.6598 91.5686 46.5724 91.1979 46.3977C90.8314 46.223 90.531 46.0036 90.2966 45.7393C90.0622 45.4709 89.8832 45.2003 89.7597 44.9276H89.6766V50.1818H86.9536ZM89.619 41.5909C89.619 42.1747 89.7 42.6839 89.8619 43.1186C90.0239 43.5533 90.2582 43.892 90.5651 44.1349C90.8719 44.3736 91.2448 44.4929 91.6837 44.4929C92.1269 44.4929 92.5019 44.3714 92.8087 44.1286C93.1155 43.8814 93.3477 43.5405 93.5054 43.1058C93.6673 42.6669 93.7483 42.1619 93.7483 41.5909C93.7483 41.0241 93.6695 40.5256 93.5118 40.0952C93.3541 39.6648 93.1219 39.3281 92.8151 39.0852C92.5082 38.8423 92.1311 38.7209 91.6837 38.7209C91.2405 38.7209 90.8655 38.8381 90.5587 39.0724C90.2561 39.3068 90.0239 39.6392 89.8619 40.0696C89.7 40.5 89.619 41.0071 89.619 41.5909ZM101.787 33.4091V46.5H99.0642V33.4091H101.787ZM109.163 46.6918C108.153 46.6918 107.284 46.4872 106.555 46.0781C105.831 45.6648 105.272 45.081 104.88 44.3267C104.488 43.5682 104.292 42.6712 104.292 41.6357C104.292 40.6257 104.488 39.7393 104.88 38.9766C105.272 38.2138 105.824 37.6193 106.536 37.1932C107.252 36.767 108.091 36.554 109.054 36.554C109.702 36.554 110.305 36.6584 110.863 36.8672C111.426 37.0717 111.916 37.3807 112.333 37.794C112.755 38.2074 113.083 38.7273 113.318 39.3537C113.552 39.9759 113.669 40.7045 113.669 41.5398V42.2876H105.379V40.6001H111.106C111.106 40.2081 111.021 39.8608 110.85 39.5582C110.68 39.2557 110.443 39.0192 110.141 38.8487C109.843 38.674 109.495 38.5866 109.099 38.5866C108.686 38.5866 108.319 38.6825 108 38.8743C107.684 39.0618 107.437 39.3153 107.258 39.6349C107.079 39.9503 106.987 40.3018 106.983 40.6896V42.294C106.983 42.7798 107.073 43.1996 107.252 43.5533C107.435 43.907 107.693 44.1797 108.025 44.3714C108.358 44.5632 108.752 44.6591 109.208 44.6591C109.51 44.6591 109.787 44.6165 110.039 44.5312C110.29 44.446 110.505 44.3182 110.684 44.1477C110.863 43.9773 111 43.7685 111.093 43.5213L113.612 43.6875C113.484 44.2926 113.222 44.821 112.826 45.2727C112.434 45.7202 111.926 46.0696 111.304 46.321C110.686 46.5682 109.973 46.6918 109.163 46.6918ZM120.858 46.5H116.217V33.4091H120.896C122.213 33.4091 123.347 33.6712 124.297 34.1953C125.247 34.7152 125.978 35.4631 126.489 36.4389C127.005 37.4148 127.263 38.5824 127.263 39.9418C127.263 41.3054 127.005 42.4773 126.489 43.4574C125.978 44.4375 125.243 45.1896 124.284 45.7138C123.33 46.2379 122.188 46.5 120.858 46.5ZM118.985 44.1286H120.743C121.561 44.1286 122.249 43.9837 122.808 43.6939C123.37 43.3999 123.792 42.946 124.073 42.3324C124.359 41.7145 124.502 40.9176 124.502 39.9418C124.502 38.9744 124.359 38.1839 124.073 37.5703C123.792 36.9567 123.372 36.505 122.814 36.2152C122.256 35.9254 121.568 35.7805 120.749 35.7805H118.985V44.1286ZM131.551 46.5H128.585L133.105 33.4091H136.671L141.184 46.5H138.218L134.939 36.4006H134.837L131.551 46.5ZM131.366 41.3544H138.372V43.5149H131.366V41.3544ZM154.894 39.9545C154.894 41.3821 154.624 42.5966 154.083 43.598C153.546 44.5994 152.813 45.3643 151.884 45.8928C150.959 46.4169 149.919 46.679 148.764 46.679C147.601 46.679 146.557 46.4148 145.632 45.8864C144.708 45.358 143.977 44.593 143.44 43.5916C142.903 42.5902 142.634 41.3778 142.634 39.9545C142.634 38.527 142.903 37.3125 143.44 36.3111C143.977 35.3097 144.708 34.5469 145.632 34.0227C146.557 33.4943 147.601 33.2301 148.764 33.2301C149.919 33.2301 150.959 33.4943 151.884 34.0227C152.813 34.5469 153.546 35.3097 154.083 36.3111C154.624 37.3125 154.894 38.527 154.894 39.9545ZM152.088 39.9545C152.088 39.0298 151.95 38.25 151.673 37.6151C151.4 36.9801 151.014 36.4986 150.516 36.1705C150.017 35.8423 149.433 35.6783 148.764 35.6783C148.095 35.6783 147.511 35.8423 147.013 36.1705C146.514 36.4986 146.127 36.9801 145.85 37.6151C145.577 38.25 145.44 39.0298 145.44 39.9545C145.44 40.8793 145.577 41.6591 145.85 42.294C146.127 42.929 146.514 43.4105 147.013 43.7386C147.511 44.0668 148.095 44.2308 148.764 44.2308C149.433 44.2308 150.017 44.0668 150.516 43.7386C151.014 43.4105 151.4 42.929 151.673 42.294C151.95 41.6591 152.088 40.8793 152.088 39.9545Z" fill="white"/>
<path d="M54.1934 62.5V55.2273H58.4015V55.8239H54.8575V58.5618H58.0713V59.1584H54.8575V62.5H54.1934ZM61.4449 62.6243C61.1158 62.6243 60.8151 62.5604 60.5429 62.4325C60.2706 62.3023 60.054 62.1153 59.893 61.8714C59.732 61.6252 59.6515 61.3269 59.6515 60.9766C59.6515 60.7067 59.7024 60.4794 59.8042 60.2947C59.906 60.1101 60.0505 59.9586 60.2375 59.8402C60.4245 59.7218 60.6459 59.6283 60.9015 59.5597C61.1572 59.491 61.439 59.4377 61.7467 59.3999C62.0521 59.362 62.3102 59.3288 62.5209 59.3004C62.7339 59.272 62.8961 59.227 63.0074 59.1655C63.1186 59.1039 63.1743 59.0045 63.1743 58.8672V58.7393C63.1743 58.3677 63.063 58.0753 62.8405 57.8622C62.6203 57.6468 62.3031 57.5391 61.8888 57.5391C61.4958 57.5391 61.175 57.6255 60.9264 57.7983C60.6802 57.9711 60.5074 58.1747 60.4079 58.4091L59.8078 58.1925C59.9309 57.8942 60.1014 57.6562 60.3192 57.4787C60.537 57.2988 60.7808 57.1697 61.0507 57.0916C61.3206 57.0111 61.594 56.9709 61.871 56.9709C62.0793 56.9709 62.296 56.9981 62.5209 57.0526C62.7481 57.107 62.9588 57.2017 63.153 57.3366C63.3471 57.4692 63.5045 57.6551 63.6253 57.8942C63.746 58.1309 63.8064 58.4316 63.8064 58.7962V62.5H63.1743V61.6371H63.1352C63.0595 61.7981 62.947 61.9543 62.7979 62.1058C62.6487 62.2573 62.4617 62.3816 62.2368 62.4787C62.0119 62.5758 61.7479 62.6243 61.4449 62.6243ZM61.5301 62.0455C61.8663 62.0455 62.1575 61.9709 62.4037 61.8217C62.6499 61.6726 62.8393 61.4749 62.9719 61.2287C63.1068 60.9801 63.1743 60.7067 63.1743 60.4084V59.62C63.1269 59.665 63.0476 59.7053 62.9363 59.7408C62.8274 59.7763 62.7008 59.8082 62.5564 59.8366C62.4143 59.8627 62.2723 59.8852 62.1302 59.9041C61.9882 59.9231 61.8604 59.9396 61.7467 59.9538C61.439 59.9917 61.1762 60.0509 60.9584 60.1314C60.7406 60.2119 60.5737 60.3232 60.4577 60.4652C60.3416 60.6049 60.2836 60.7848 60.2836 61.005C60.2836 61.3364 60.402 61.5933 60.6388 61.7756C60.8755 61.9555 61.1726 62.0455 61.5301 62.0455ZM65.4878 62.5V57.0455H66.1022V57.8835H66.1483C66.2573 57.6089 66.4466 57.3875 66.7165 57.2195C66.9888 57.049 67.2965 56.9638 67.6398 56.9638C67.6919 56.9638 67.7499 56.965 67.8138 56.9673C67.8778 56.9697 67.931 56.9721 67.9736 56.9744V57.6172C67.9452 57.6125 67.8955 57.6054 67.8245 57.5959C67.7535 57.5864 67.6765 57.5817 67.5937 57.5817C67.3096 57.5817 67.0563 57.642 66.8337 57.7628C66.6135 57.8812 66.4395 58.0457 66.3117 58.2564C66.1839 58.4671 66.1199 58.7074 66.1199 58.9773V62.5H65.4878ZM71.017 62.6136C70.5293 62.6136 70.1043 62.4917 69.7421 62.2479C69.3823 62.004 69.1029 61.6702 68.904 61.2464C68.7052 60.8227 68.6057 60.3397 68.6057 59.7976C68.6057 59.2507 68.7064 58.7642 68.9076 58.3381C69.1112 57.9119 69.3929 57.5781 69.7528 57.3366C70.1126 57.0928 70.5305 56.9709 71.0063 56.9709C71.3709 56.9709 71.7011 57.0419 71.9971 57.1839C72.293 57.3236 72.5368 57.5213 72.7286 57.777C72.9227 58.0303 73.0447 58.3262 73.0944 58.6648H72.4552C72.3889 58.357 72.2291 58.0942 71.9758 57.8764C71.7248 57.6562 71.4052 57.5462 71.017 57.5462C70.6689 57.5462 70.3612 57.6409 70.0937 57.8303C69.8261 58.0173 69.6166 58.2789 69.4651 58.6151C69.316 58.9489 69.2414 59.3359 69.2414 59.7763C69.2414 60.219 69.3148 60.6108 69.4616 60.9517C69.6083 61.2902 69.8143 61.5554 70.0795 61.7472C70.347 61.9389 70.6595 62.0348 71.017 62.0348C71.2584 62.0348 71.4786 61.9898 71.6775 61.8999C71.8787 61.8075 72.0468 61.6773 72.1817 61.5092C72.319 61.3411 72.4114 61.1411 72.4587 60.9091H73.0979C73.0506 61.2382 72.9334 61.5317 72.7464 61.7898C72.5617 62.0455 72.3214 62.2467 72.0255 62.3935C71.7319 62.5402 71.3957 62.6136 71.017 62.6136ZM75.9761 62.6243C75.647 62.6243 75.3464 62.5604 75.0741 62.4325C74.8019 62.3023 74.5853 62.1153 74.4243 61.8714C74.2633 61.6252 74.1828 61.3269 74.1828 60.9766C74.1828 60.7067 74.2337 60.4794 74.3355 60.2947C74.4373 60.1101 74.5817 59.9586 74.7687 59.8402C74.9558 59.7218 75.1771 59.6283 75.4328 59.5597C75.6885 59.491 75.9702 59.4377 76.278 59.3999C76.5834 59.362 76.8414 59.3288 77.0521 59.3004C77.2652 59.272 77.4273 59.227 77.5386 59.1655C77.6499 59.1039 77.7055 59.0045 77.7055 58.8672V58.7393C77.7055 58.3677 77.5943 58.0753 77.3717 57.8622C77.1515 57.6468 76.8343 57.5391 76.42 57.5391C76.027 57.5391 75.7062 57.6255 75.4577 57.7983C75.2114 57.9711 75.0386 58.1747 74.9392 58.4091L74.339 58.1925C74.4622 57.8942 74.6326 57.6562 74.8504 57.4787C75.0682 57.2988 75.3121 57.1697 75.5819 57.0916C75.8518 57.0111 76.1253 56.9709 76.4023 56.9709C76.6106 56.9709 76.8272 56.9981 77.0521 57.0526C77.2794 57.107 77.4901 57.2017 77.6842 57.3366C77.8783 57.4692 78.0358 57.6551 78.1565 57.8942C78.2773 58.1309 78.3376 58.4316 78.3376 58.7962V62.5H77.7055V61.6371H77.6665C77.5907 61.7981 77.4782 61.9543 77.3291 62.1058C77.18 62.2573 76.9929 62.3816 76.768 62.4787C76.5431 62.5758 76.2791 62.6243 75.9761 62.6243ZM76.0613 62.0455C76.3975 62.0455 76.6887 61.9709 76.9349 61.8217C77.1811 61.6726 77.3705 61.4749 77.5031 61.2287C77.6381 60.9801 77.7055 60.7067 77.7055 60.4084V59.62C77.6582 59.665 77.5789 59.7053 77.4676 59.7408C77.3587 59.7763 77.232 59.8082 77.0876 59.8366C76.9456 59.8627 76.8035 59.8852 76.6615 59.9041C76.5194 59.9231 76.3916 59.9396 76.278 59.9538C75.9702 59.9917 75.7074 60.0509 75.4896 60.1314C75.2718 60.2119 75.1049 60.3232 74.9889 60.4652C74.8729 60.6049 74.8149 60.7848 74.8149 61.005C74.8149 61.3364 74.9333 61.5933 75.17 61.7756C75.4068 61.9555 75.7039 62.0455 76.0613 62.0455ZM83.6839 58.2422L83.105 58.4055C83.0482 58.2422 82.9677 58.0942 82.8635 57.9616C82.7594 57.8291 82.6233 57.7237 82.4552 57.6456C82.2894 57.5675 82.0835 57.5284 81.8373 57.5284C81.468 57.5284 81.1649 57.616 80.9282 57.7912C80.6914 57.9664 80.5731 58.1925 80.5731 58.4695C80.5731 58.7038 80.6536 58.8944 80.8145 59.0412C80.9779 59.1856 81.2288 59.3004 81.5674 59.3857L82.3912 59.5881C82.8482 59.6993 83.1903 59.8757 83.4175 60.1172C83.6472 60.3587 83.762 60.6617 83.762 61.0263C83.762 61.334 83.6768 61.6075 83.5063 61.8466C83.3358 62.0857 83.0979 62.2739 82.7925 62.4112C82.4895 62.5462 82.1379 62.6136 81.7378 62.6136C81.2052 62.6136 80.766 62.4941 80.4204 62.255C80.0747 62.0135 79.8534 61.6655 79.7563 61.2109L80.3635 61.0618C80.4417 61.3861 80.5944 61.6312 80.8216 61.7969C81.0513 61.9626 81.3531 62.0455 81.7272 62.0455C82.1462 62.0455 82.4812 61.9519 82.7322 61.7649C82.9831 61.5755 83.1086 61.3388 83.1086 61.0547C83.1086 60.8345 83.0352 60.6499 82.8884 60.5007C82.7416 60.3492 82.5191 60.2379 82.2208 60.1669L81.3295 59.9538C80.856 59.8402 80.5056 59.6603 80.2783 59.4141C80.051 59.1679 79.9374 58.8625 79.9374 58.4979C79.9374 58.1972 80.0191 57.9332 80.1824 57.706C80.3458 57.4763 80.5707 57.2964 80.8572 57.1662C81.1436 57.036 81.4703 56.9709 81.8373 56.9709C82.3368 56.9709 82.7357 57.0845 83.034 57.3118C83.3347 57.5367 83.5513 57.8468 83.6839 58.2422ZM87.2945 57.0455V57.5959H84.6915V57.0455H87.2945ZM85.5047 55.7386H86.1404V61.076C86.1404 61.3033 86.1794 61.482 86.2575 61.6122C86.3357 61.7401 86.4375 61.8312 86.5629 61.8857C86.6884 61.9377 86.8222 61.9638 86.9642 61.9638C87.0471 61.9638 87.1181 61.959 87.1773 61.9496C87.2365 61.9377 87.2886 61.9259 87.3335 61.9141L87.4685 62.4858C87.4069 62.5095 87.3312 62.5308 87.2412 62.5497C87.1512 62.571 87.04 62.5817 86.9074 62.5817C86.6754 62.5817 86.4517 62.5308 86.2362 62.429C86.0232 62.3272 85.848 62.1757 85.7107 61.9744C85.5734 61.7732 85.5047 61.5234 85.5047 61.2251V55.7386ZM90.8767 62.6136C90.3677 62.6136 89.9273 62.4953 89.5557 62.2585C89.184 62.0194 88.8963 61.6892 88.6927 61.2678C88.4915 60.844 88.3909 60.3563 88.3909 59.8047C88.3909 59.2554 88.4915 58.7678 88.6927 58.3416C88.8963 57.9131 89.1769 57.5781 89.5344 57.3366C89.8942 57.0928 90.3097 56.9709 90.7808 56.9709C91.0767 56.9709 91.362 57.0253 91.6366 57.1342C91.9113 57.2408 92.1575 57.4053 92.3753 57.6278C92.5954 57.848 92.7694 58.1262 92.8973 58.4624C93.0251 58.7962 93.089 59.1915 93.089 59.6484V59.9609H88.8277V59.4034H92.4427C92.4427 59.053 92.3717 58.7382 92.2297 58.4588C92.09 58.1771 91.8947 57.9545 91.6437 57.7912C91.3952 57.6278 91.1075 57.5462 90.7808 57.5462C90.4352 57.5462 90.1309 57.6385 89.8682 57.8232C89.6054 58.0078 89.3994 58.2517 89.2503 58.5547C89.1035 58.8577 89.0289 59.1892 89.0265 59.549V59.8828C89.0265 60.3161 89.1011 60.6948 89.2503 61.0192C89.4018 61.3411 89.616 61.5909 89.893 61.7685C90.17 61.946 90.4979 62.0348 90.8767 62.0348C91.1347 62.0348 91.3608 61.9946 91.555 61.9141C91.7515 61.8336 91.916 61.7259 92.0486 61.5909C92.1835 61.4536 92.2853 61.3033 92.354 61.1399L92.9541 61.3352C92.8712 61.5649 92.7351 61.7768 92.5457 61.9709C92.3587 62.165 92.1243 62.3213 91.8426 62.4396C91.5632 62.5556 91.2413 62.6136 90.8767 62.6136ZM94.482 62.5V57.0455H95.0963V57.8835H95.1425C95.2514 57.6089 95.4408 57.3875 95.7107 57.2195C95.9829 57.049 96.2907 56.9638 96.634 56.9638C96.686 56.9638 96.7441 56.965 96.808 56.9673C96.8719 56.9697 96.9252 56.9721 96.9678 56.9744V57.6172C96.9394 57.6125 96.8896 57.6054 96.8186 57.5959C96.7476 57.5864 96.6707 57.5817 96.5878 57.5817C96.3037 57.5817 96.0504 57.642 95.8279 57.7628C95.6077 57.8812 95.4337 58.0457 95.3058 58.2564C95.178 58.4671 95.1141 58.7074 95.1141 58.9773V62.5H94.482ZM100.99 62.5V55.2273H105.209V55.8239H101.654V58.5618H104.985V59.1584H101.654V61.9034H105.28V62.5H100.99ZM108.927 62.6136C108.439 62.6136 108.014 62.4917 107.652 62.2479C107.292 62.004 107.013 61.6702 106.814 61.2464C106.615 60.8227 106.516 60.3397 106.516 59.7976C106.516 59.2507 106.617 58.7642 106.818 58.3381C107.021 57.9119 107.303 57.5781 107.663 57.3366C108.023 57.0928 108.441 56.9709 108.916 56.9709C109.281 56.9709 109.611 57.0419 109.907 57.1839C110.203 57.3236 110.447 57.5213 110.639 57.777C110.833 58.0303 110.955 58.3262 111.005 58.6648H110.365C110.299 58.357 110.139 58.0942 109.886 57.8764C109.635 57.6562 109.315 57.5462 108.927 57.5462C108.579 57.5462 108.271 57.6409 108.004 57.8303C107.736 58.0173 107.527 58.2789 107.375 58.6151C107.226 58.9489 107.152 59.3359 107.152 59.7763C107.152 60.219 107.225 60.6108 107.372 60.9517C107.518 61.2902 107.724 61.5554 107.99 61.7472C108.257 61.9389 108.57 62.0348 108.927 62.0348C109.169 62.0348 109.389 61.9898 109.588 61.8999C109.789 61.8075 109.957 61.6773 110.092 61.5092C110.229 61.3411 110.322 61.1411 110.369 60.9091H111.008C110.961 61.2382 110.844 61.5317 110.657 61.7898C110.472 62.0455 110.232 62.2467 109.936 62.3935C109.642 62.5402 109.306 62.6136 108.927 62.6136ZM114.483 62.6136C114.012 62.6136 113.595 62.4941 113.233 62.255C112.873 62.0159 112.591 61.6856 112.388 61.2642C112.184 60.8404 112.082 60.3516 112.082 59.7976C112.082 59.2389 112.184 58.7476 112.388 58.3239C112.591 57.8977 112.873 57.5663 113.233 57.3295C113.595 57.0904 114.012 56.9709 114.483 56.9709C114.954 56.9709 115.369 57.0904 115.729 57.3295C116.089 57.5687 116.371 57.9001 116.574 58.3239C116.78 58.7476 116.883 59.2389 116.883 59.7976C116.883 60.3516 116.782 60.8404 116.578 61.2642C116.374 61.6856 116.092 62.0159 115.729 62.255C115.369 62.4941 114.954 62.6136 114.483 62.6136ZM114.483 62.0348C114.862 62.0348 115.182 61.933 115.445 61.7294C115.708 61.5258 115.907 61.2547 116.042 60.9162C116.179 60.5777 116.248 60.2048 116.248 59.7976C116.248 59.3904 116.179 59.0163 116.042 58.6754C115.907 58.3345 115.708 58.0611 115.445 57.8551C115.182 57.6491 114.862 57.5462 114.483 57.5462C114.106 57.5462 113.786 57.6491 113.521 57.8551C113.258 58.0611 113.058 58.3345 112.92 58.6754C112.785 59.0163 112.718 59.3904 112.718 59.7976C112.718 60.2048 112.785 60.5777 112.92 60.9162C113.058 61.2547 113.258 61.5258 113.521 61.7294C113.783 61.933 114.104 62.0348 114.483 62.0348ZM121.936 58.2422L121.357 58.4055C121.3 58.2422 121.22 58.0942 121.116 57.9616C121.011 57.8291 120.875 57.7237 120.707 57.6456C120.541 57.5675 120.335 57.5284 120.089 57.5284C119.72 57.5284 119.417 57.616 119.18 57.7912C118.943 57.9664 118.825 58.1925 118.825 58.4695C118.825 58.7038 118.906 58.8944 119.066 59.0412C119.23 59.1856 119.481 59.3004 119.819 59.3857L120.643 59.5881C121.1 59.6993 121.442 59.8757 121.669 60.1172C121.899 60.3587 122.014 60.6617 122.014 61.0263C122.014 61.334 121.929 61.6075 121.758 61.8466C121.588 62.0857 121.35 62.2739 121.044 62.4112C120.741 62.5462 120.39 62.6136 119.99 62.6136C119.457 62.6136 119.018 62.4941 118.672 62.255C118.327 62.0135 118.105 61.6655 118.008 61.2109L118.616 61.0618C118.694 61.3861 118.846 61.6312 119.074 61.7969C119.303 61.9626 119.605 62.0455 119.979 62.0455C120.398 62.0455 120.733 61.9519 120.984 61.7649C121.235 61.5755 121.361 61.3388 121.361 61.0547C121.361 60.8345 121.287 60.6499 121.14 60.5007C120.994 60.3492 120.771 60.2379 120.473 60.1669L119.581 59.9538C119.108 59.8402 118.758 59.6603 118.53 59.4141C118.303 59.1679 118.189 58.8625 118.189 58.4979C118.189 58.1972 118.271 57.9332 118.434 57.706C118.598 57.4763 118.823 57.2964 119.109 57.1662C119.396 57.036 119.722 56.9709 120.089 56.9709C120.589 56.9709 120.988 57.0845 121.286 57.3118C121.587 57.5367 121.803 57.8468 121.936 58.2422ZM123.838 64.5455C123.713 64.5455 123.596 64.5336 123.487 64.5099C123.378 64.4863 123.291 64.4602 123.228 64.4318L123.398 63.8743C123.613 63.9406 123.805 63.9643 123.973 63.9453C124.141 63.9287 124.291 63.853 124.421 63.718C124.551 63.5855 124.667 63.3819 124.769 63.1072L124.968 62.5533L122.961 57.0455H123.647L125.266 61.6655H125.316L126.935 57.0455H127.62L125.312 63.3629C125.215 63.6257 125.095 63.8447 124.953 64.0199C124.811 64.1974 124.647 64.3288 124.46 64.4141C124.275 64.5017 124.068 64.5455 123.838 64.5455ZM132.522 58.2422L131.943 58.4055C131.886 58.2422 131.806 58.0942 131.701 57.9616C131.597 57.8291 131.461 57.7237 131.293 57.6456C131.127 57.5675 130.921 57.5284 130.675 57.5284C130.306 57.5284 130.003 57.616 129.766 57.7912C129.529 57.9664 129.411 58.1925 129.411 58.4695C129.411 58.7038 129.491 58.8944 129.652 59.0412C129.816 59.1856 130.067 59.3004 130.405 59.3857L131.229 59.5881C131.686 59.6993 132.028 59.8757 132.255 60.1172C132.485 60.3587 132.6 60.6617 132.6 61.0263C132.6 61.334 132.515 61.6075 132.344 61.8466C132.174 62.0857 131.936 62.2739 131.63 62.4112C131.327 62.5462 130.976 62.6136 130.576 62.6136C130.043 62.6136 129.604 62.4941 129.258 62.255C128.913 62.0135 128.691 61.6655 128.594 61.2109L129.201 61.0618C129.28 61.3861 129.432 61.6312 129.66 61.7969C129.889 61.9626 130.191 62.0455 130.565 62.0455C130.984 62.0455 131.319 61.9519 131.57 61.7649C131.821 61.5755 131.946 61.3388 131.946 61.0547C131.946 60.8345 131.873 60.6499 131.726 60.5007C131.58 60.3492 131.357 60.2379 131.059 60.1669L130.167 59.9538C129.694 59.8402 129.343 59.6603 129.116 59.4141C128.889 59.1679 128.775 58.8625 128.775 58.4979C128.775 58.1972 128.857 57.9332 129.02 57.706C129.184 57.4763 129.409 57.2964 129.695 57.1662C129.982 57.036 130.308 56.9709 130.675 56.9709C131.175 56.9709 131.574 57.0845 131.872 57.3118C132.173 57.5367 132.389 57.8468 132.522 58.2422ZM136.132 57.0455V57.5959H133.529V57.0455H136.132ZM134.343 55.7386H134.978V61.076C134.978 61.3033 135.017 61.482 135.095 61.6122C135.174 61.7401 135.275 61.8312 135.401 61.8857C135.526 61.9377 135.66 61.9638 135.802 61.9638C135.885 61.9638 135.956 61.959 136.015 61.9496C136.074 61.9377 136.126 61.9259 136.171 61.9141L136.306 62.4858C136.245 62.5095 136.169 62.5308 136.079 62.5497C135.989 62.571 135.878 62.5817 135.745 62.5817C135.513 62.5817 135.29 62.5308 135.074 62.429C134.861 62.3272 134.686 62.1757 134.549 61.9744C134.411 61.7732 134.343 61.5234 134.343 61.2251V55.7386ZM139.715 62.6136C139.206 62.6136 138.765 62.4953 138.394 62.2585C138.022 62.0194 137.734 61.6892 137.531 61.2678C137.329 60.844 137.229 60.3563 137.229 59.8047C137.229 59.2554 137.329 58.7678 137.531 58.3416C137.734 57.9131 138.015 57.5781 138.372 57.3366C138.732 57.0928 139.148 56.9709 139.619 56.9709C139.915 56.9709 140.2 57.0253 140.475 57.1342C140.749 57.2408 140.995 57.4053 141.213 57.6278C141.433 57.848 141.607 58.1262 141.735 58.4624C141.863 58.7962 141.927 59.1915 141.927 59.6484V59.9609H137.666V59.4034H141.281C141.281 59.053 141.21 58.7382 141.068 58.4588C140.928 58.1771 140.733 57.9545 140.482 57.7912C140.233 57.6278 139.945 57.5462 139.619 57.5462C139.273 57.5462 138.969 57.6385 138.706 57.8232C138.443 58.0078 138.237 58.2517 138.088 58.5547C137.941 58.8577 137.867 59.1892 137.864 59.549V59.8828C137.864 60.3161 137.939 60.6948 138.088 61.0192C138.24 61.3411 138.454 61.5909 138.731 61.7685C139.008 61.946 139.336 62.0348 139.715 62.0348C139.973 62.0348 140.199 61.9946 140.393 61.9141C140.589 61.8336 140.754 61.7259 140.886 61.5909C141.021 61.4536 141.123 61.3033 141.192 61.1399L141.792 61.3352C141.709 61.5649 141.573 61.7768 141.384 61.9709C141.197 62.165 140.962 62.3213 140.68 62.4396C140.401 62.5556 140.079 62.6136 139.715 62.6136ZM143.32 62.5V57.0455H143.934V57.8835H143.991C144.1 57.6018 144.281 57.3804 144.534 57.2195C144.79 57.0561 145.097 56.9744 145.454 56.9744C145.831 56.9744 146.139 57.0632 146.381 57.2408C146.625 57.416 146.807 57.6574 146.928 57.9652H146.974C147.097 57.6622 147.297 57.4219 147.574 57.2443C147.853 57.0644 148.192 56.9744 148.59 56.9744C149.096 56.9744 149.496 57.1342 149.79 57.4538C150.084 57.7711 150.23 58.2351 150.23 58.8459V62.5H149.598V58.8459C149.598 58.415 149.488 58.0919 149.268 57.8764C149.048 57.661 148.758 57.5533 148.398 57.5533C147.981 57.5533 147.661 57.6811 147.436 57.9368C147.211 58.1925 147.098 58.5168 147.098 58.9098V62.5H146.452V58.7891C146.452 58.4197 146.349 58.1214 146.143 57.8942C145.937 57.6669 145.647 57.5533 145.273 57.5533C145.022 57.5533 144.796 57.6148 144.595 57.7379C144.396 57.861 144.238 58.0327 144.122 58.2528C144.009 58.4706 143.952 58.7216 143.952 59.0057V62.5H143.32Z" fill="white"/>
</svg>
