<svg width="1281" height="48" viewBox="0 0 1281 48" fill="none" xmlns="http://www.w3.org/2000/svg">
<g clip-path="url(#clip0_2545_1050)">
<path d="M1305.5 0.375C1305.43 -0.0420684 1304.5 -0.0439454 1304.5 -0.0439454C1270.58 1.86162 1278.46 16.6137 1261.85 21.9531L1215.49 21.9531C1241.02 17.2414 1239.79 5.2014 1248.78 1.125C1248.78 1.12335 1249.57 0.774065 1249.5 0.374999C1249.43 -0.0373067 1248.52 -0.0438394 1248.5 -0.043946C1214.58 1.86153 1222.46 16.6137 1205.85 21.9531L1159.74 21.9531C1185.27 17.2414 1184.04 5.20138 1193.03 1.125C1193.04 1.11837 1193.82 0.771188 1193.75 0.374999C1193.68 -0.0420697 1192.75 -0.0439467 1192.75 -0.0439467C1158.83 1.86161 1166.71 16.6137 1150.1 21.9531L1103.99 21.9531C1129.52 17.2414 1128.29 5.20138 1137.28 1.125C1137.29 1.11837 1138.07 0.771187 1138 0.374998C1137.93 -0.0420704 1137 -0.0439474 1137 -0.0439474C1103.08 1.86161 1110.96 16.6137 1094.35 21.9531L1048.24 21.9531C1073.77 17.2414 1072.54 5.20138 1081.53 1.125C1081.54 1.11837 1082.32 0.771186 1082.25 0.374997C1082.18 -0.0420711 1081.25 -0.043948 1081.25 -0.043948C1047.33 1.86161 1055.21 16.6137 1038.6 21.9531L992.494 21.9531C1018.02 17.2414 1016.79 5.20138 1025.78 1.125C1025.79 1.11837 1026.57 0.771186 1026.5 0.374997C1026.43 -0.0420717 1025.5 -0.0439487 1025.5 -0.0439487C991.582 1.86161 999.457 16.6137 982.853 21.9531L936.244 21.9531C961.769 17.2415 960.542 5.20149 969.529 1.125C969.529 1.125 970.32 0.775023 970.25 0.374996C970.177 -0.0393237 969.262 -0.0439002 969.25 -0.0439494C935.332 1.86154 943.207 16.6138 926.603 21.9531L880.494 21.9531C906.019 17.2415 904.792 5.20149 913.779 1.125C913.779 1.125 914.57 0.775022 914.5 0.374995C914.427 -0.0393244 913.512 -0.0439008 913.5 -0.04395C879.582 1.86154 887.457 16.6138 870.853 21.9531L824.245 21.9531C849.77 17.2414 848.543 5.20138 857.53 1.12499C857.545 1.11837 858.32 0.771184 858.25 0.374995C858.177 -0.0420737 857.25 -0.0439507 857.25 -0.0439507C823.333 1.86161 831.208 16.6137 814.604 21.9531L768.239 21.9531C793.769 17.2421 792.541 5.20085 801.529 1.12402C801.529 1.12402 802.32 0.77386 802.25 0.374017C802.177 -0.0403253 801.262 -0.0458559 801.25 -0.0459045C767.329 1.85973 775.209 16.6148 758.599 21.9531L712.489 21.9531C738.019 17.2421 736.791 5.20085 745.779 1.12402C745.779 1.12402 746.57 0.773859 746.5 0.374017C746.427 -0.040326 745.512 -0.0458565 745.5 -0.0459052C711.579 1.85973 719.459 16.6148 702.849 21.9531L656.739 21.9531C682.269 17.2421 681.041 5.20085 690.029 1.12402C690.029 1.12402 690.82 0.773859 690.75 0.374016C690.677 -0.0403267 689.762 -0.0458572 689.75 -0.0459058C655.829 1.85973 663.709 16.6148 647.099 21.9531L600.989 21.9531C626.519 17.2421 625.291 5.20075 634.279 1.12402C634.279 1.12402 635.069 0.773841 635 0.374015C634.928 -0.0383078 634.021 -0.0458004 634 -0.0459065C600.079 1.85972 607.958 16.6148 591.349 21.9531L545.239 21.9531C570.769 17.2421 569.541 5.20075 578.529 1.12401C578.529 1.12401 579.319 0.77384 579.25 0.374015C579.178 -0.0383085 578.271 -0.0458011 578.25 -0.0459072C544.329 1.85972 552.208 16.6148 535.599 21.9531L489.489 21.9531C515.019 17.2421 513.791 5.20075 522.779 1.12401C522.779 1.12401 523.569 0.77384 523.5 0.374014C523.428 -0.0383092 522.521 -0.0458017 522.5 -0.0459078C488.579 1.85972 496.458 16.6148 479.849 21.9531L433.739 21.9531C459.269 17.242 458.041 5.20066 467.029 1.12401C467.036 1.12088 467.818 0.772086 467.749 0.374013C467.676 -0.0431352 466.749 -0.0459085 466.749 -0.0459085C432.829 1.8598 440.708 16.6147 424.099 21.9531L377.989 21.9531C403.519 17.242 402.291 5.20066 411.279 1.12401C411.286 1.12088 412.068 0.772085 411.999 0.374013C411.926 -0.0431359 410.999 -0.0459092 410.999 -0.0459092C377.079 1.8598 384.958 16.6147 368.349 21.9531L322.239 21.9531C347.769 17.242 346.541 5.19969 355.529 1.12304C355.547 1.1153 356.319 0.768572 356.25 0.373036C356.176 -0.0437066 355.249 -0.0459098 355.249 -0.0459098C321.329 1.85983 329.208 16.6148 312.599 21.9531L266.489 21.9531C292.019 17.242 290.791 5.19969 299.779 1.12303C299.797 1.1153 300.569 0.768571 300.5 0.373035C300.426 -0.0437072 299.499 -0.0459105 299.499 -0.0459105C265.579 1.85983 273.458 16.6148 256.849 21.9531L210.239 21.9531C235.77 17.2421 234.541 5.19976 243.529 1.12303C243.529 1.12303 244.32 0.773062 244.25 0.373034C244.176 -0.0431654 243.252 -0.0459057 243.25 -0.0459112C209.329 1.85973 217.209 16.6149 200.599 21.9531L154.489 21.9531C180.02 17.2421 178.791 5.19976 187.779 1.12303C187.779 1.12303 188.57 0.773062 188.5 0.373034C188.426 -0.0431661 187.502 -0.0459064 187.5 -0.0459118C153.579 1.85973 161.459 16.6149 144.849 21.9531L98.2402 21.9531C123.77 17.242 122.542 5.19969 131.53 1.12303C131.548 1.1153 132.32 0.768569 132.251 0.373033C132.177 -0.0437092 131.25 -0.0459125 131.25 -0.0459125C97.3298 1.85983 105.209 16.6148 88.5996 21.9531L42.4902 21.9531C68.0202 17.242 66.7919 5.19969 75.7803 1.12303C75.7976 1.1153 76.5704 0.768569 76.501 0.373032C76.4273 -0.0437099 75.5 -0.0459132 75.5 -0.0459132C41.5798 1.85983 49.4591 16.6148 32.8496 21.9531L-15.7607 21.9531C9.7696 17.2421 8.54099 5.19976 17.5293 1.12303C17.5293 1.12303 18.3202 0.77306 18.25 0.373031C18.1763 -0.0431681 17.252 -0.0459084 17.25 -0.0459139C-23.9143 2.26665 -3.5195 23.5032 -40.0371 23.8681C-30.2145 23.8265 -22.4559 23.1467 -16.25 22.039L-16.25 24.2041C-18.2679 24.1325 -20.3853 24.0937 -22.6084 24.0849C-20.2657 24.1065 -18.1566 24.213 -16.25 24.3955L-16.25 25.9531L-8.04492 25.9531C8.75595 31.252 0.731825 46.0879 34.751 47.999C34.753 47.999 35.6779 47.9958 35.751 47.5791C35.8205 47.1792 35.0303 46.8291 35.0303 46.8291C26.0111 42.738 27.2785 30.6291 1.47266 25.9531L52.4551 25.9531C69.2553 31.2521 61.2317 46.0878 95.25 47.999C95.25 47.999 96.1778 47.9962 96.251 47.5791C96.3204 47.1793 95.5303 46.8291 95.5303 46.8291C86.5107 42.7382 87.7784 30.6292 61.9727 25.9531L108.205 25.9531C125.005 31.2521 116.982 46.0878 151 47.999C151 47.999 151.928 47.9962 152.001 47.5791C152.07 47.1793 151.28 46.8291 151.28 46.8291C142.261 42.7382 143.528 30.6292 117.723 25.9531L168.704 25.9531C185.505 31.252 177.481 46.0879 211.5 47.999C211.502 47.999 212.427 47.9958 212.5 47.5791C212.57 47.1793 211.779 46.8291 211.779 46.8291C202.76 42.738 204.028 30.6291 178.222 25.9531L224.454 25.9531C241.255 31.252 233.231 46.0879 267.25 47.999C267.252 47.999 268.177 47.9958 268.25 47.5791C268.32 47.1793 267.529 46.8291 267.529 46.8291C258.51 42.738 259.778 30.6291 233.972 25.9531L284.954 25.9531C301.754 31.2521 293.731 46.0878 327.749 47.999C327.749 47.999 328.677 47.9962 328.75 47.5791C328.819 47.1793 328.029 46.8291 328.029 46.8291C319.01 42.7382 320.277 30.6292 294.472 25.9531L340.704 25.9531C357.504 31.2521 349.481 46.0878 383.499 47.999C383.499 47.999 384.427 47.9962 384.5 47.5791C384.569 47.1793 383.779 46.8291 383.779 46.8291C374.76 42.7382 376.027 30.6292 350.222 25.9531L396.454 25.9531C413.254 31.2521 405.231 46.0878 439.249 47.999C439.249 47.999 440.175 47.9967 440.249 47.5801C440.318 47.1852 439.549 46.8389 439.529 46.8301C430.51 42.7392 431.777 30.6293 405.972 25.9531L452.204 25.9531C469.005 31.2521 460.981 46.0879 495 47.999C495.021 47.9989 495.927 47.992 496 47.5801C496.07 47.1836 495.293 46.8362 495.279 46.8301C486.26 42.7392 487.528 30.6292 461.722 25.9531L507.954 25.9531C524.755 31.2521 516.731 46.0879 550.75 47.999C550.771 47.9989 551.677 47.992 551.75 47.5801C551.82 47.1836 551.043 46.8362 551.029 46.8301C542.01 42.7392 543.278 30.6292 517.472 25.9531L563.704 25.9531C580.505 31.2521 572.481 46.0879 606.5 47.999C606.521 47.9989 607.427 47.992 607.5 47.5801C607.57 47.1836 606.793 46.8362 606.779 46.8301C597.76 42.7392 599.028 30.6292 573.222 25.9531L619.454 25.9531C636.255 31.252 628.231 46.0879 662.25 47.999C662.262 47.999 663.177 47.994 663.25 47.5801C663.32 47.18 662.529 46.8301 662.529 46.8301C653.51 42.7392 654.778 30.6292 628.972 25.9531L675.204 25.9531C692.005 31.252 683.981 46.0879 718 47.999C718.012 47.999 718.927 47.994 719 47.5801C719.07 47.18 718.279 46.8301 718.279 46.8301C709.26 42.7392 710.528 30.6292 684.722 25.9531L730.954 25.9531C747.755 31.252 739.731 46.0879 773.75 47.999C773.762 47.999 774.677 47.994 774.75 47.5801C774.82 47.18 774.029 46.8301 774.029 46.8301C765.01 42.7392 766.278 30.6292 740.472 25.9531L786.943 25.9531C803.752 31.2503 795.722 46.0885 829.745 48C829.745 48 830.672 47.9981 830.745 47.581C830.815 47.1849 830.04 46.8377 830.025 46.831C821.005 42.7397 822.274 30.628 796.458 25.9531L846.943 25.9531C863.752 31.2503 855.722 46.0885 889.745 48C889.745 48 890.672 47.9981 890.745 47.581C890.815 47.1849 890.04 46.8377 890.025 46.831C881.005 42.7397 882.274 30.628 856.458 25.9531L902.943 25.9531C919.752 31.2503 911.722 46.0885 945.745 48C945.745 48 946.672 47.9981 946.745 47.5811C946.815 47.1853 946.042 46.8384 946.025 46.8311C937.005 42.7397 938.274 30.628 912.458 25.9531L963.943 25.9531C980.752 31.2503 972.722 46.0885 1006.75 48C1006.75 48 1007.67 47.9981 1007.75 47.5811C1007.81 47.1853 1007.04 46.8384 1007.03 46.8311C998.005 42.7397 999.274 30.628 973.458 25.9531L1018.94 25.9531C1035.75 31.2503 1027.72 46.0885 1061.75 48C1061.75 48 1062.67 47.9981 1062.75 47.5811C1062.81 47.1854 1062.04 46.8386 1062.03 46.8311C1053 42.7397 1054.27 30.628 1028.46 25.9531L1074.94 25.9531C1091.75 31.2503 1083.72 46.0885 1117.75 48C1117.75 48 1118.67 47.9981 1118.75 47.5811C1118.81 47.1854 1118.04 46.8386 1118.03 46.8311C1109 42.7397 1110.27 30.628 1084.46 25.9531L1130.94 25.9531C1147.75 31.2503 1139.72 46.0885 1173.75 48C1173.75 48 1174.67 47.9981 1174.75 47.5811C1174.81 47.1854 1174.04 46.8386 1174.03 46.8311C1165 42.7397 1166.27 30.628 1140.46 25.9531L1186.94 25.9531C1203.75 31.2503 1195.72 46.0885 1229.75 48C1229.75 48 1230.67 47.9981 1230.75 47.5811C1230.81 47.1853 1230.04 46.8384 1230.03 46.8311C1221 42.7397 1222.27 30.628 1196.46 25.9531L1242.94 25.9531C1259.75 31.2503 1251.72 46.0885 1285.75 48C1285.75 48 1286.67 47.9981 1286.75 47.5811C1286.81 47.1849 1286.04 46.8377 1286.03 46.8311C1277 42.7397 1278.27 30.628 1252.46 25.9531L1287.75 25.9531L1287.75 21.9531L1271.49 21.9531C1297.02 17.2414 1295.79 5.20139 1304.78 1.125C1304.79 1.11837 1305.57 0.771189 1305.5 0.375ZM-22.6084 24.0849C-22.9016 24.0822 -23.1984 24.0791 -23.499 24.0791C-23.2003 24.0791 -22.9034 24.0838 -22.6084 24.0849ZM22.75 11.748C22.7497 9.53912 20.959 7.74803 18.75 7.74803C16.541 7.74803 14.7503 9.53912 14.75 11.748C14.75 13.9572 16.5409 15.748 18.75 15.748C20.9591 15.748 22.75 13.9572 22.75 11.748ZM40.251 36.2041C40.2507 33.9952 38.46 32.2041 36.251 32.2041C34.042 32.2041 32.2512 33.9952 32.251 36.2041C32.251 38.4132 34.0418 40.2041 36.251 40.2041C38.4601 40.2041 40.251 38.4132 40.251 36.2041ZM81 11.748C80.9997 9.53912 79.209 7.74803 77 7.74803C74.7912 7.7483 73.0003 9.53928 73 11.748C73 13.957 74.7911 15.7478 77 15.748C79.2091 15.748 81 13.9572 81 11.748ZM100.75 36.2041C100.75 33.9952 98.959 32.2041 96.75 32.2041C94.5412 32.2044 92.7503 33.9953 92.75 36.2041C92.75 38.4131 94.5411 40.2038 96.75 40.2041C98.9591 40.2041 100.75 38.4132 100.75 36.2041ZM136.75 11.748C136.75 9.53912 134.959 7.74803 132.75 7.74803C130.541 7.7483 128.75 9.53928 128.75 11.748C128.75 13.957 130.541 15.7478 132.75 15.748C134.959 15.748 136.75 13.9572 136.75 11.748ZM156.5 36.2041C156.5 33.9952 154.709 32.2041 152.5 32.2041C150.291 32.2044 148.5 33.9953 148.5 36.2041C148.5 38.4131 150.291 40.2038 152.5 40.2041C154.709 40.2041 156.5 38.4132 156.5 36.2041ZM193 11.748C193 9.53912 191.209 7.74803 189 7.74803C186.791 7.74803 185 9.53912 185 11.748C185 13.9572 186.791 15.748 189 15.748C191.209 15.748 193 13.9572 193 11.748ZM217 36.2041C217 33.9952 215.209 32.2041 213 32.2041C210.791 32.2041 209 33.9952 209 36.2041C209 38.4132 210.791 40.2041 213 40.2041C215.209 40.2041 217 38.4132 217 36.2041ZM248.75 11.748C248.75 9.53912 246.959 7.74803 244.75 7.74803C242.541 7.74803 240.75 9.53912 240.75 11.748C240.75 13.9572 242.541 15.748 244.75 15.748C246.959 15.748 248.75 13.9572 248.75 11.748ZM272.75 36.2041C272.75 33.9952 270.959 32.2041 268.75 32.2041C266.541 32.2041 264.75 33.9952 264.75 36.2041C264.75 38.4132 266.541 40.2041 268.75 40.2041C270.959 40.2041 272.75 38.4132 272.75 36.2041ZM304.999 11.748C304.999 9.53912 303.208 7.74803 300.999 7.74803C298.79 7.7483 296.999 9.53928 296.999 11.748C296.999 13.957 298.79 15.7478 300.999 15.748C303.208 15.748 304.999 13.9572 304.999 11.748ZM333.249 36.2041C333.249 33.9952 331.458 32.2041 329.249 32.2041C327.04 32.2044 325.249 33.9953 325.249 36.2041C325.249 38.4131 327.04 40.2038 329.249 40.2041C331.458 40.2041 333.249 38.4132 333.249 36.2041ZM360.749 11.748C360.749 9.53912 358.958 7.74804 356.749 7.74804C354.54 7.7483 352.749 9.53928 352.749 11.748C352.749 13.957 354.54 15.7478 356.749 15.748C358.958 15.748 360.749 13.9572 360.749 11.748ZM388.999 36.2041C388.999 33.9952 387.208 32.2041 384.999 32.2041C382.79 32.2044 380.999 33.9953 380.999 36.2041C380.999 38.4131 382.79 40.2038 384.999 40.2041C387.208 40.2041 388.999 38.4132 388.999 36.2041ZM416.499 11.749C416.499 9.53987 414.708 7.74901 412.499 7.74901C410.29 7.74928 408.499 9.54004 408.499 11.749C408.499 13.9578 410.29 15.7487 412.499 15.749C414.708 15.749 416.499 13.9579 416.499 11.749ZM444.749 36.2051C444.749 33.9959 442.958 32.2051 440.749 32.2051C438.54 32.2053 436.749 33.9961 436.749 36.2051C436.749 38.4138 438.54 40.2048 440.749 40.2051C442.958 40.2051 444.749 38.414 444.749 36.2051ZM472.249 11.749C472.249 9.53987 470.458 7.74901 468.249 7.74901C466.04 7.74928 464.249 9.54004 464.249 11.749C464.249 13.9578 466.04 15.7487 468.249 15.749C470.458 15.749 472.249 13.9579 472.249 11.749ZM500.5 36.2051C500.5 33.996 498.709 32.2052 496.5 32.2051C494.291 32.2051 492.5 33.9959 492.5 36.2051C492.5 38.414 494.291 40.2051 496.5 40.2051C498.709 40.2049 500.5 38.4139 500.5 36.2051ZM528 11.749C528 9.53996 526.209 7.74915 524 7.74901C521.791 7.74901 520 9.53987 520 11.749C520 13.9579 521.791 15.749 524 15.749C526.209 15.7489 528 13.9579 528 11.749ZM556.25 36.2051C556.25 33.996 554.459 32.2052 552.25 32.2051C550.041 32.2051 548.25 33.9959 548.25 36.2051C548.25 38.414 550.041 40.2051 552.25 40.2051C554.459 40.2049 556.25 38.4139 556.25 36.2051ZM583.75 11.749C583.75 9.53996 581.959 7.74915 579.75 7.74901C577.541 7.74901 575.75 9.53988 575.75 11.749C575.75 13.9579 577.541 15.749 579.75 15.749C581.959 15.7489 583.75 13.9579 583.75 11.749ZM612 36.2051C612 33.996 610.209 32.2052 608 32.2051C605.791 32.2051 604 33.9959 604 36.2051C604 38.414 605.791 40.2051 608 40.2051C610.209 40.2049 612 38.4139 612 36.2051ZM639.5 11.749C639.5 9.53996 637.709 7.74915 635.5 7.74902C633.291 7.74902 631.5 9.53988 631.5 11.749C631.5 13.9579 633.291 15.749 635.5 15.749C637.709 15.7489 639.5 13.9579 639.5 11.749ZM667.75 36.2051C667.75 33.9959 665.959 32.2051 663.75 32.2051C661.541 32.2051 659.75 33.9959 659.75 36.2051C659.75 38.414 661.541 40.2051 663.75 40.2051C665.959 40.2051 667.75 38.414 667.75 36.2051ZM695.25 11.749C695.25 9.53988 693.459 7.74902 691.25 7.74902C689.041 7.74902 687.25 9.53988 687.25 11.749C687.25 13.9579 689.041 15.749 691.25 15.749C693.459 15.749 695.25 13.9579 695.25 11.749ZM723.5 36.2051C723.5 33.9959 721.709 32.2051 719.5 32.2051C717.291 32.2051 715.5 33.9959 715.5 36.2051C715.5 38.414 717.291 40.2051 719.5 40.2051C721.709 40.2051 723.5 38.414 723.5 36.2051ZM751 11.749C751 9.53988 749.209 7.74902 747 7.74902C744.791 7.74902 743 9.53988 743 11.749C743 13.9579 744.791 15.749 747 15.749C749.209 15.749 751 13.9579 751 11.749ZM779.25 36.2051C779.25 33.9959 777.459 32.2051 775.25 32.2051C773.041 32.2051 771.25 33.9959 771.25 36.2051C771.25 38.414 773.041 40.2051 775.25 40.2051C777.459 40.2051 779.25 38.414 779.25 36.2051ZM806.75 11.749C806.75 9.53988 804.959 7.74902 802.75 7.74902C800.541 7.74902 798.75 9.53988 798.75 11.749C798.75 13.9579 800.541 15.749 802.75 15.749C804.959 15.749 806.75 13.9579 806.75 11.749ZM834.75 36.206C834.75 33.9969 832.959 32.206 830.75 32.206C828.541 32.206 826.75 33.9969 826.75 36.206C826.75 38.4152 828.541 40.206 830.75 40.206C832.959 40.206 834.75 38.4152 834.75 36.206ZM862.75 11.75C862.75 9.54086 860.959 7.74999 858.75 7.74999C856.541 7.75026 854.75 9.54102 854.75 11.75C854.75 13.959 856.541 15.7497 858.75 15.75C860.959 15.75 862.75 13.9591 862.75 11.75ZM895.75 36.206C895.75 33.9969 893.959 32.206 891.75 32.206C889.541 32.206 887.75 33.9969 887.75 36.206C887.75 38.4152 889.541 40.206 891.75 40.206C893.959 40.206 895.75 38.4152 895.75 36.206ZM919 11.75C919 9.54086 917.209 7.75 915 7.75C912.791 7.75 911 9.54086 911 11.75C911 13.9591 912.791 15.75 915 15.75C917.209 15.75 919 13.9591 919 11.75ZM950.75 36.2061C950.75 33.9969 948.959 32.2061 946.75 32.2061C944.541 32.2061 942.75 33.9969 942.75 36.2061C942.75 38.4152 944.541 40.2061 946.75 40.2061C948.959 40.206 950.75 38.4152 950.75 36.2061ZM974.75 11.75C974.75 9.54086 972.959 7.75 970.75 7.75C968.541 7.75 966.75 9.54086 966.75 11.75C966.75 13.9591 968.541 15.75 970.75 15.75C972.959 15.75 974.75 13.9591 974.75 11.75ZM1011.75 36.2061C1011.75 33.9969 1009.96 32.2061 1007.75 32.2061C1005.54 32.2061 1003.75 33.9969 1003.75 36.2061C1003.75 38.4152 1005.54 40.2061 1007.75 40.2061C1009.96 40.206 1011.75 38.4152 1011.75 36.2061ZM1031 11.75C1031 9.54086 1029.21 7.75 1027 7.75C1024.79 7.75026 1023 9.54102 1023 11.75C1023 13.959 1024.79 15.7497 1027 15.75C1029.21 15.75 1031 13.9591 1031 11.75ZM1067.75 36.2061C1067.75 33.9969 1065.96 32.2061 1063.75 32.2061C1061.54 32.2061 1059.75 33.9969 1059.75 36.2061C1059.75 38.4152 1061.54 40.2061 1063.75 40.2061C1065.96 40.206 1067.75 38.4152 1067.75 36.2061ZM1086.75 11.75C1086.75 9.54086 1084.96 7.75 1082.75 7.75C1080.54 7.75026 1078.75 9.54102 1078.75 11.75C1078.75 13.959 1080.54 15.7497 1082.75 15.75C1084.96 15.75 1086.75 13.9591 1086.75 11.75ZM1122.75 36.2061C1122.75 33.9969 1120.96 32.2061 1118.75 32.2061C1116.54 32.2061 1114.75 33.9969 1114.75 36.2061C1114.75 38.4152 1116.54 40.2061 1118.75 40.2061C1120.96 40.206 1122.75 38.4152 1122.75 36.2061ZM1142.5 11.75C1142.5 9.54086 1140.71 7.75 1138.5 7.75C1136.29 7.75026 1134.5 9.54102 1134.5 11.75C1134.5 13.959 1136.29 15.7497 1138.5 15.75C1140.71 15.75 1142.5 13.9591 1142.5 11.75ZM1178.75 36.2061C1178.75 33.9969 1176.96 32.2061 1174.75 32.2061C1172.54 32.2061 1170.75 33.9969 1170.75 36.2061C1170.75 38.4152 1172.54 40.2061 1174.75 40.2061C1176.96 40.206 1178.75 38.4152 1178.75 36.2061ZM1198.25 11.75C1198.25 9.54086 1196.46 7.75 1194.25 7.75C1192.04 7.75026 1190.25 9.54102 1190.25 11.75C1190.25 13.959 1192.04 15.7497 1194.25 15.75C1196.46 15.75 1198.25 13.9591 1198.25 11.75ZM1234.75 36.2061C1234.75 33.9969 1232.96 32.2061 1230.75 32.2061C1228.54 32.2061 1226.75 33.9969 1226.75 36.2061C1226.75 38.4152 1228.54 40.2061 1230.75 40.2061C1232.96 40.206 1234.75 38.4152 1234.75 36.2061ZM1254 11.75C1254 9.54094 1252.21 7.75013 1250 7.75C1247.79 7.75 1246 9.54086 1246 11.75C1246 13.9591 1247.79 15.75 1250 15.75C1252.21 15.7499 1254 13.9591 1254 11.75ZM1290.75 36.2061C1290.75 33.9969 1288.96 32.2061 1286.75 32.2061C1284.54 32.2061 1282.75 33.9969 1282.75 36.2061C1282.75 38.4152 1284.54 40.2061 1286.75 40.2061C1288.96 40.2061 1290.75 38.4152 1290.75 36.2061ZM1310 11.75C1310 9.54086 1308.21 7.75 1306 7.75C1303.79 7.75 1302 9.54086 1302 11.75C1302 13.9591 1303.79 15.75 1306 15.75C1308.21 15.75 1310 13.9591 1310 11.75Z" fill="#13080E"/>
<path d="M1305.5 0.375C1305.43 -0.0420684 1304.5 -0.0439454 1304.5 -0.0439454C1270.58 1.86162 1278.46 16.6137 1261.85 21.9531L1215.49 21.9531C1241.02 17.2414 1239.79 5.2014 1248.78 1.125C1248.78 1.12335 1249.57 0.774065 1249.5 0.374999C1249.43 -0.0373067 1248.52 -0.0438394 1248.5 -0.043946C1214.58 1.86153 1222.46 16.6137 1205.85 21.9531L1159.74 21.9531C1185.27 17.2414 1184.04 5.20138 1193.03 1.125C1193.04 1.11837 1193.82 0.771188 1193.75 0.374999C1193.68 -0.0420697 1192.75 -0.0439467 1192.75 -0.0439467C1158.83 1.86161 1166.71 16.6137 1150.1 21.9531L1103.99 21.9531C1129.52 17.2414 1128.29 5.20138 1137.28 1.125C1137.29 1.11837 1138.07 0.771187 1138 0.374998C1137.93 -0.0420704 1137 -0.0439474 1137 -0.0439474C1103.08 1.86161 1110.96 16.6137 1094.35 21.9531L1048.24 21.9531C1073.77 17.2414 1072.54 5.20138 1081.53 1.125C1081.54 1.11837 1082.32 0.771186 1082.25 0.374997C1082.18 -0.0420711 1081.25 -0.043948 1081.25 -0.043948C1047.33 1.86161 1055.21 16.6137 1038.6 21.9531L992.494 21.9531C1018.02 17.2414 1016.79 5.20138 1025.78 1.125C1025.79 1.11837 1026.57 0.771186 1026.5 0.374997C1026.43 -0.0420717 1025.5 -0.0439487 1025.5 -0.0439487C991.582 1.86161 999.457 16.6137 982.853 21.9531L936.244 21.9531C961.769 17.2415 960.542 5.20149 969.529 1.125C969.529 1.125 970.32 0.775023 970.25 0.374996C970.177 -0.0393237 969.262 -0.0439002 969.25 -0.0439494C935.332 1.86154 943.207 16.6138 926.603 21.9531L880.494 21.9531C906.019 17.2415 904.792 5.20149 913.779 1.125C913.779 1.125 914.57 0.775022 914.5 0.374995C914.427 -0.0393244 913.512 -0.0439008 913.5 -0.04395C879.582 1.86154 887.457 16.6138 870.853 21.9531L824.245 21.9531C849.77 17.2414 848.543 5.20138 857.53 1.12499C857.545 1.11837 858.32 0.771184 858.25 0.374995C858.177 -0.0420737 857.25 -0.0439507 857.25 -0.0439507C823.333 1.86161 831.208 16.6137 814.604 21.9531L768.239 21.9531C793.769 17.2421 792.541 5.20085 801.529 1.12402C801.529 1.12402 802.32 0.77386 802.25 0.374017C802.177 -0.0403253 801.262 -0.0458559 801.25 -0.0459045C767.329 1.85973 775.209 16.6148 758.599 21.9531L712.489 21.9531C738.019 17.2421 736.791 5.20085 745.779 1.12402C745.779 1.12402 746.57 0.773859 746.5 0.374017C746.427 -0.040326 745.512 -0.0458565 745.5 -0.0459052C711.579 1.85973 719.459 16.6148 702.849 21.9531L656.739 21.9531C682.269 17.2421 681.041 5.20085 690.029 1.12402C690.029 1.12402 690.82 0.773859 690.75 0.374016C690.677 -0.0403267 689.762 -0.0458572 689.75 -0.0459058C655.829 1.85973 663.709 16.6148 647.099 21.9531L600.989 21.9531C626.519 17.2421 625.291 5.20075 634.279 1.12402C634.279 1.12402 635.069 0.773841 635 0.374015C634.928 -0.0383078 634.021 -0.0458004 634 -0.0459065C600.079 1.85972 607.958 16.6148 591.349 21.9531L545.239 21.9531C570.769 17.2421 569.541 5.20075 578.529 1.12401C578.529 1.12401 579.319 0.77384 579.25 0.374015C579.178 -0.0383085 578.271 -0.0458011 578.25 -0.0459072C544.329 1.85972 552.208 16.6148 535.599 21.9531L489.489 21.9531C515.019 17.2421 513.791 5.20075 522.779 1.12401C522.779 1.12401 523.569 0.77384 523.5 0.374014C523.428 -0.0383092 522.521 -0.0458017 522.5 -0.0459078C488.579 1.85972 496.458 16.6148 479.849 21.9531L433.739 21.9531C459.269 17.242 458.041 5.20066 467.029 1.12401C467.036 1.12088 467.818 0.772086 467.749 0.374013C467.676 -0.0431352 466.749 -0.0459085 466.749 -0.0459085C432.829 1.8598 440.708 16.6147 424.099 21.9531L377.989 21.9531C403.519 17.242 402.291 5.20066 411.279 1.12401C411.286 1.12088 412.068 0.772085 411.999 0.374013C411.926 -0.0431359 410.999 -0.0459092 410.999 -0.0459092C377.079 1.8598 384.958 16.6147 368.349 21.9531L322.239 21.9531C347.769 17.242 346.541 5.19969 355.529 1.12304C355.547 1.1153 356.319 0.768572 356.25 0.373036C356.176 -0.0437066 355.249 -0.0459098 355.249 -0.0459098C321.329 1.85983 329.208 16.6148 312.599 21.9531L266.489 21.9531C292.019 17.242 290.791 5.19969 299.779 1.12303C299.797 1.1153 300.569 0.768571 300.5 0.373035C300.426 -0.0437072 299.499 -0.0459105 299.499 -0.0459105C265.579 1.85983 273.458 16.6148 256.849 21.9531L210.239 21.9531C235.77 17.2421 234.541 5.19976 243.529 1.12303C243.529 1.12303 244.32 0.773062 244.25 0.373034C244.176 -0.0431654 243.252 -0.0459057 243.25 -0.0459112C209.329 1.85973 217.209 16.6149 200.599 21.9531L154.489 21.9531C180.02 17.2421 178.791 5.19976 187.779 1.12303C187.779 1.12303 188.57 0.773062 188.5 0.373034C188.426 -0.0431661 187.502 -0.0459064 187.5 -0.0459118C153.579 1.85973 161.459 16.6149 144.849 21.9531L98.2402 21.9531C123.77 17.242 122.542 5.19969 131.53 1.12303C131.548 1.1153 132.32 0.768569 132.251 0.373033C132.177 -0.0437092 131.25 -0.0459125 131.25 -0.0459125C97.3298 1.85983 105.209 16.6148 88.5996 21.9531L42.4902 21.9531C68.0202 17.242 66.7919 5.19969 75.7803 1.12303C75.7976 1.1153 76.5704 0.768569 76.501 0.373032C76.4273 -0.0437099 75.5 -0.0459132 75.5 -0.0459132C41.5798 1.85983 49.4591 16.6148 32.8496 21.9531L-15.7607 21.9531C9.7696 17.2421 8.54099 5.19976 17.5293 1.12303C17.5293 1.12303 18.3202 0.77306 18.25 0.373031C18.1763 -0.0431681 17.252 -0.0459084 17.25 -0.0459139C-23.9143 2.26665 -3.5195 23.5032 -40.0371 23.8681C-30.2145 23.8265 -22.4559 23.1467 -16.25 22.039L-16.25 24.2041C-18.2679 24.1325 -20.3853 24.0937 -22.6084 24.0849C-20.2657 24.1065 -18.1566 24.213 -16.25 24.3955L-16.25 25.9531L-8.04492 25.9531C8.75595 31.252 0.731825 46.0879 34.751 47.999C34.753 47.999 35.6779 47.9958 35.751 47.5791C35.8205 47.1792 35.0303 46.8291 35.0303 46.8291C26.0111 42.738 27.2785 30.6291 1.47266 25.9531L52.4551 25.9531C69.2553 31.2521 61.2317 46.0878 95.25 47.999C95.25 47.999 96.1778 47.9962 96.251 47.5791C96.3204 47.1793 95.5303 46.8291 95.5303 46.8291C86.5107 42.7382 87.7784 30.6292 61.9727 25.9531L108.205 25.9531C125.005 31.2521 116.982 46.0878 151 47.999C151 47.999 151.928 47.9962 152.001 47.5791C152.07 47.1793 151.28 46.8291 151.28 46.8291C142.261 42.7382 143.528 30.6292 117.723 25.9531L168.704 25.9531C185.505 31.252 177.481 46.0879 211.5 47.999C211.502 47.999 212.427 47.9958 212.5 47.5791C212.57 47.1793 211.779 46.8291 211.779 46.8291C202.76 42.738 204.028 30.6291 178.222 25.9531L224.454 25.9531C241.255 31.252 233.231 46.0879 267.25 47.999C267.252 47.999 268.177 47.9958 268.25 47.5791C268.32 47.1793 267.529 46.8291 267.529 46.8291C258.51 42.738 259.778 30.6291 233.972 25.9531L284.954 25.9531C301.754 31.2521 293.731 46.0878 327.749 47.999C327.749 47.999 328.677 47.9962 328.75 47.5791C328.819 47.1793 328.029 46.8291 328.029 46.8291C319.01 42.7382 320.277 30.6292 294.472 25.9531L340.704 25.9531C357.504 31.2521 349.481 46.0878 383.499 47.999C383.499 47.999 384.427 47.9962 384.5 47.5791C384.569 47.1793 383.779 46.8291 383.779 46.8291C374.76 42.7382 376.027 30.6292 350.222 25.9531L396.454 25.9531C413.254 31.2521 405.231 46.0878 439.249 47.999C439.249 47.999 440.175 47.9967 440.249 47.5801C440.318 47.1852 439.549 46.8389 439.529 46.8301C430.51 42.7392 431.777 30.6293 405.972 25.9531L452.204 25.9531C469.005 31.2521 460.981 46.0879 495 47.999C495.021 47.9989 495.927 47.992 496 47.5801C496.07 47.1836 495.293 46.8362 495.279 46.8301C486.26 42.7392 487.528 30.6292 461.722 25.9531L507.954 25.9531C524.755 31.2521 516.731 46.0879 550.75 47.999C550.771 47.9989 551.677 47.992 551.75 47.5801C551.82 47.1836 551.043 46.8362 551.029 46.8301C542.01 42.7392 543.278 30.6292 517.472 25.9531L563.704 25.9531C580.505 31.2521 572.481 46.0879 606.5 47.999C606.521 47.9989 607.427 47.992 607.5 47.5801C607.57 47.1836 606.793 46.8362 606.779 46.8301C597.76 42.7392 599.028 30.6292 573.222 25.9531L619.454 25.9531C636.255 31.252 628.231 46.0879 662.25 47.999C662.262 47.999 663.177 47.994 663.25 47.5801C663.32 47.18 662.529 46.8301 662.529 46.8301C653.51 42.7392 654.778 30.6292 628.972 25.9531L675.204 25.9531C692.005 31.252 683.981 46.0879 718 47.999C718.012 47.999 718.927 47.994 719 47.5801C719.07 47.18 718.279 46.8301 718.279 46.8301C709.26 42.7392 710.528 30.6292 684.722 25.9531L730.954 25.9531C747.755 31.252 739.731 46.0879 773.75 47.999C773.762 47.999 774.677 47.994 774.75 47.5801C774.82 47.18 774.029 46.8301 774.029 46.8301C765.01 42.7392 766.278 30.6292 740.472 25.9531L786.943 25.9531C803.752 31.2503 795.722 46.0885 829.745 48C829.745 48 830.672 47.9981 830.745 47.581C830.815 47.1849 830.04 46.8377 830.025 46.831C821.005 42.7397 822.274 30.628 796.458 25.9531L846.943 25.9531C863.752 31.2503 855.722 46.0885 889.745 48C889.745 48 890.672 47.9981 890.745 47.581C890.815 47.1849 890.04 46.8377 890.025 46.831C881.005 42.7397 882.274 30.628 856.458 25.9531L902.943 25.9531C919.752 31.2503 911.722 46.0885 945.745 48C945.745 48 946.672 47.9981 946.745 47.5811C946.815 47.1853 946.042 46.8384 946.025 46.8311C937.005 42.7397 938.274 30.628 912.458 25.9531L963.943 25.9531C980.752 31.2503 972.722 46.0885 1006.75 48C1006.75 48 1007.67 47.9981 1007.75 47.5811C1007.81 47.1853 1007.04 46.8384 1007.03 46.8311C998.005 42.7397 999.274 30.628 973.458 25.9531L1018.94 25.9531C1035.75 31.2503 1027.72 46.0885 1061.75 48C1061.75 48 1062.67 47.9981 1062.75 47.5811C1062.81 47.1854 1062.04 46.8386 1062.03 46.8311C1053 42.7397 1054.27 30.628 1028.46 25.9531L1074.94 25.9531C1091.75 31.2503 1083.72 46.0885 1117.75 48C1117.75 48 1118.67 47.9981 1118.75 47.5811C1118.81 47.1854 1118.04 46.8386 1118.03 46.8311C1109 42.7397 1110.27 30.628 1084.46 25.9531L1130.94 25.9531C1147.75 31.2503 1139.72 46.0885 1173.75 48C1173.75 48 1174.67 47.9981 1174.75 47.5811C1174.81 47.1854 1174.04 46.8386 1174.03 46.8311C1165 42.7397 1166.27 30.628 1140.46 25.9531L1186.94 25.9531C1203.75 31.2503 1195.72 46.0885 1229.75 48C1229.75 48 1230.67 47.9981 1230.75 47.5811C1230.81 47.1853 1230.04 46.8384 1230.03 46.8311C1221 42.7397 1222.27 30.628 1196.46 25.9531L1242.94 25.9531C1259.75 31.2503 1251.72 46.0885 1285.75 48C1285.75 48 1286.67 47.9981 1286.75 47.5811C1286.81 47.1849 1286.04 46.8377 1286.03 46.8311C1277 42.7397 1278.27 30.628 1252.46 25.9531L1287.75 25.9531L1287.75 21.9531L1271.49 21.9531C1297.02 17.2414 1295.79 5.20139 1304.78 1.125C1304.79 1.11837 1305.57 0.771189 1305.5 0.375ZM-22.6084 24.0849C-22.9016 24.0822 -23.1984 24.0791 -23.499 24.0791C-23.2003 24.0791 -22.9034 24.0838 -22.6084 24.0849ZM22.75 11.748C22.7497 9.53912 20.959 7.74803 18.75 7.74803C16.541 7.74803 14.7503 9.53912 14.75 11.748C14.75 13.9572 16.5409 15.748 18.75 15.748C20.9591 15.748 22.75 13.9572 22.75 11.748ZM40.251 36.2041C40.2507 33.9952 38.46 32.2041 36.251 32.2041C34.042 32.2041 32.2512 33.9952 32.251 36.2041C32.251 38.4132 34.0418 40.2041 36.251 40.2041C38.4601 40.2041 40.251 38.4132 40.251 36.2041ZM81 11.748C80.9997 9.53912 79.209 7.74803 77 7.74803C74.7912 7.7483 73.0003 9.53928 73 11.748C73 13.957 74.7911 15.7478 77 15.748C79.2091 15.748 81 13.9572 81 11.748ZM100.75 36.2041C100.75 33.9952 98.959 32.2041 96.75 32.2041C94.5412 32.2044 92.7503 33.9953 92.75 36.2041C92.75 38.4131 94.5411 40.2038 96.75 40.2041C98.9591 40.2041 100.75 38.4132 100.75 36.2041ZM136.75 11.748C136.75 9.53912 134.959 7.74803 132.75 7.74803C130.541 7.7483 128.75 9.53928 128.75 11.748C128.75 13.957 130.541 15.7478 132.75 15.748C134.959 15.748 136.75 13.9572 136.75 11.748ZM156.5 36.2041C156.5 33.9952 154.709 32.2041 152.5 32.2041C150.291 32.2044 148.5 33.9953 148.5 36.2041C148.5 38.4131 150.291 40.2038 152.5 40.2041C154.709 40.2041 156.5 38.4132 156.5 36.2041ZM193 11.748C193 9.53912 191.209 7.74803 189 7.74803C186.791 7.74803 185 9.53912 185 11.748C185 13.9572 186.791 15.748 189 15.748C191.209 15.748 193 13.9572 193 11.748ZM217 36.2041C217 33.9952 215.209 32.2041 213 32.2041C210.791 32.2041 209 33.9952 209 36.2041C209 38.4132 210.791 40.2041 213 40.2041C215.209 40.2041 217 38.4132 217 36.2041ZM248.75 11.748C248.75 9.53912 246.959 7.74803 244.75 7.74803C242.541 7.74803 240.75 9.53912 240.75 11.748C240.75 13.9572 242.541 15.748 244.75 15.748C246.959 15.748 248.75 13.9572 248.75 11.748ZM272.75 36.2041C272.75 33.9952 270.959 32.2041 268.75 32.2041C266.541 32.2041 264.75 33.9952 264.75 36.2041C264.75 38.4132 266.541 40.2041 268.75 40.2041C270.959 40.2041 272.75 38.4132 272.75 36.2041ZM304.999 11.748C304.999 9.53912 303.208 7.74803 300.999 7.74803C298.79 7.7483 296.999 9.53928 296.999 11.748C296.999 13.957 298.79 15.7478 300.999 15.748C303.208 15.748 304.999 13.9572 304.999 11.748ZM333.249 36.2041C333.249 33.9952 331.458 32.2041 329.249 32.2041C327.04 32.2044 325.249 33.9953 325.249 36.2041C325.249 38.4131 327.04 40.2038 329.249 40.2041C331.458 40.2041 333.249 38.4132 333.249 36.2041ZM360.749 11.748C360.749 9.53912 358.958 7.74804 356.749 7.74804C354.54 7.7483 352.749 9.53928 352.749 11.748C352.749 13.957 354.54 15.7478 356.749 15.748C358.958 15.748 360.749 13.9572 360.749 11.748ZM388.999 36.2041C388.999 33.9952 387.208 32.2041 384.999 32.2041C382.79 32.2044 380.999 33.9953 380.999 36.2041C380.999 38.4131 382.79 40.2038 384.999 40.2041C387.208 40.2041 388.999 38.4132 388.999 36.2041ZM416.499 11.749C416.499 9.53987 414.708 7.74901 412.499 7.74901C410.29 7.74928 408.499 9.54004 408.499 11.749C408.499 13.9578 410.29 15.7487 412.499 15.749C414.708 15.749 416.499 13.9579 416.499 11.749ZM444.749 36.2051C444.749 33.9959 442.958 32.2051 440.749 32.2051C438.54 32.2053 436.749 33.9961 436.749 36.2051C436.749 38.4138 438.54 40.2048 440.749 40.2051C442.958 40.2051 444.749 38.414 444.749 36.2051ZM472.249 11.749C472.249 9.53987 470.458 7.74901 468.249 7.74901C466.04 7.74928 464.249 9.54004 464.249 11.749C464.249 13.9578 466.04 15.7487 468.249 15.749C470.458 15.749 472.249 13.9579 472.249 11.749ZM500.5 36.2051C500.5 33.996 498.709 32.2052 496.5 32.2051C494.291 32.2051 492.5 33.9959 492.5 36.2051C492.5 38.414 494.291 40.2051 496.5 40.2051C498.709 40.2049 500.5 38.4139 500.5 36.2051ZM528 11.749C528 9.53996 526.209 7.74915 524 7.74901C521.791 7.74901 520 9.53987 520 11.749C520 13.9579 521.791 15.749 524 15.749C526.209 15.7489 528 13.9579 528 11.749ZM556.25 36.2051C556.25 33.996 554.459 32.2052 552.25 32.2051C550.041 32.2051 548.25 33.9959 548.25 36.2051C548.25 38.414 550.041 40.2051 552.25 40.2051C554.459 40.2049 556.25 38.4139 556.25 36.2051ZM583.75 11.749C583.75 9.53996 581.959 7.74915 579.75 7.74901C577.541 7.74901 575.75 9.53988 575.75 11.749C575.75 13.9579 577.541 15.749 579.75 15.749C581.959 15.7489 583.75 13.9579 583.75 11.749ZM612 36.2051C612 33.996 610.209 32.2052 608 32.2051C605.791 32.2051 604 33.9959 604 36.2051C604 38.414 605.791 40.2051 608 40.2051C610.209 40.2049 612 38.4139 612 36.2051ZM639.5 11.749C639.5 9.53996 637.709 7.74915 635.5 7.74902C633.291 7.74902 631.5 9.53988 631.5 11.749C631.5 13.9579 633.291 15.749 635.5 15.749C637.709 15.7489 639.5 13.9579 639.5 11.749ZM667.75 36.2051C667.75 33.9959 665.959 32.2051 663.75 32.2051C661.541 32.2051 659.75 33.9959 659.75 36.2051C659.75 38.414 661.541 40.2051 663.75 40.2051C665.959 40.2051 667.75 38.414 667.75 36.2051ZM695.25 11.749C695.25 9.53988 693.459 7.74902 691.25 7.74902C689.041 7.74902 687.25 9.53988 687.25 11.749C687.25 13.9579 689.041 15.749 691.25 15.749C693.459 15.749 695.25 13.9579 695.25 11.749ZM723.5 36.2051C723.5 33.9959 721.709 32.2051 719.5 32.2051C717.291 32.2051 715.5 33.9959 715.5 36.2051C715.5 38.414 717.291 40.2051 719.5 40.2051C721.709 40.2051 723.5 38.414 723.5 36.2051ZM751 11.749C751 9.53988 749.209 7.74902 747 7.74902C744.791 7.74902 743 9.53988 743 11.749C743 13.9579 744.791 15.749 747 15.749C749.209 15.749 751 13.9579 751 11.749ZM779.25 36.2051C779.25 33.9959 777.459 32.2051 775.25 32.2051C773.041 32.2051 771.25 33.9959 771.25 36.2051C771.25 38.414 773.041 40.2051 775.25 40.2051C777.459 40.2051 779.25 38.414 779.25 36.2051ZM806.75 11.749C806.75 9.53988 804.959 7.74902 802.75 7.74902C800.541 7.74902 798.75 9.53988 798.75 11.749C798.75 13.9579 800.541 15.749 802.75 15.749C804.959 15.749 806.75 13.9579 806.75 11.749ZM834.75 36.206C834.75 33.9969 832.959 32.206 830.75 32.206C828.541 32.206 826.75 33.9969 826.75 36.206C826.75 38.4152 828.541 40.206 830.75 40.206C832.959 40.206 834.75 38.4152 834.75 36.206ZM862.75 11.75C862.75 9.54086 860.959 7.74999 858.75 7.74999C856.541 7.75026 854.75 9.54102 854.75 11.75C854.75 13.959 856.541 15.7497 858.75 15.75C860.959 15.75 862.75 13.9591 862.75 11.75ZM895.75 36.206C895.75 33.9969 893.959 32.206 891.75 32.206C889.541 32.206 887.75 33.9969 887.75 36.206C887.75 38.4152 889.541 40.206 891.75 40.206C893.959 40.206 895.75 38.4152 895.75 36.206ZM919 11.75C919 9.54086 917.209 7.75 915 7.75C912.791 7.75 911 9.54086 911 11.75C911 13.9591 912.791 15.75 915 15.75C917.209 15.75 919 13.9591 919 11.75ZM950.75 36.2061C950.75 33.9969 948.959 32.2061 946.75 32.2061C944.541 32.2061 942.75 33.9969 942.75 36.2061C942.75 38.4152 944.541 40.2061 946.75 40.2061C948.959 40.206 950.75 38.4152 950.75 36.2061ZM974.75 11.75C974.75 9.54086 972.959 7.75 970.75 7.75C968.541 7.75 966.75 9.54086 966.75 11.75C966.75 13.9591 968.541 15.75 970.75 15.75C972.959 15.75 974.75 13.9591 974.75 11.75ZM1011.75 36.2061C1011.75 33.9969 1009.96 32.2061 1007.75 32.2061C1005.54 32.2061 1003.75 33.9969 1003.75 36.2061C1003.75 38.4152 1005.54 40.2061 1007.75 40.2061C1009.96 40.206 1011.75 38.4152 1011.75 36.2061ZM1031 11.75C1031 9.54086 1029.21 7.75 1027 7.75C1024.79 7.75026 1023 9.54102 1023 11.75C1023 13.959 1024.79 15.7497 1027 15.75C1029.21 15.75 1031 13.9591 1031 11.75ZM1067.75 36.2061C1067.75 33.9969 1065.96 32.2061 1063.75 32.2061C1061.54 32.2061 1059.75 33.9969 1059.75 36.2061C1059.75 38.4152 1061.54 40.2061 1063.75 40.2061C1065.96 40.206 1067.75 38.4152 1067.75 36.2061ZM1086.75 11.75C1086.75 9.54086 1084.96 7.75 1082.75 7.75C1080.54 7.75026 1078.75 9.54102 1078.75 11.75C1078.75 13.959 1080.54 15.7497 1082.75 15.75C1084.96 15.75 1086.75 13.9591 1086.75 11.75ZM1122.75 36.2061C1122.75 33.9969 1120.96 32.2061 1118.75 32.2061C1116.54 32.2061 1114.75 33.9969 1114.75 36.2061C1114.75 38.4152 1116.54 40.2061 1118.75 40.2061C1120.96 40.206 1122.75 38.4152 1122.75 36.2061ZM1142.5 11.75C1142.5 9.54086 1140.71 7.75 1138.5 7.75C1136.29 7.75026 1134.5 9.54102 1134.5 11.75C1134.5 13.959 1136.29 15.7497 1138.5 15.75C1140.71 15.75 1142.5 13.9591 1142.5 11.75ZM1178.75 36.2061C1178.75 33.9969 1176.96 32.2061 1174.75 32.2061C1172.54 32.2061 1170.75 33.9969 1170.75 36.2061C1170.75 38.4152 1172.54 40.2061 1174.75 40.2061C1176.96 40.206 1178.75 38.4152 1178.75 36.2061ZM1198.25 11.75C1198.25 9.54086 1196.46 7.75 1194.25 7.75C1192.04 7.75026 1190.25 9.54102 1190.25 11.75C1190.25 13.959 1192.04 15.7497 1194.25 15.75C1196.46 15.75 1198.25 13.9591 1198.25 11.75ZM1234.75 36.2061C1234.75 33.9969 1232.96 32.2061 1230.75 32.2061C1228.54 32.2061 1226.75 33.9969 1226.75 36.2061C1226.75 38.4152 1228.54 40.2061 1230.75 40.2061C1232.96 40.206 1234.75 38.4152 1234.75 36.2061ZM1254 11.75C1254 9.54094 1252.21 7.75013 1250 7.75C1247.79 7.75 1246 9.54086 1246 11.75C1246 13.9591 1247.79 15.75 1250 15.75C1252.21 15.7499 1254 13.9591 1254 11.75ZM1290.75 36.2061C1290.75 33.9969 1288.96 32.2061 1286.75 32.2061C1284.54 32.2061 1282.75 33.9969 1282.75 36.2061C1282.75 38.4152 1284.54 40.2061 1286.75 40.2061C1288.96 40.2061 1290.75 38.4152 1290.75 36.2061ZM1310 11.75C1310 9.54086 1308.21 7.75 1306 7.75C1303.79 7.75 1302 9.54086 1302 11.75C1302 13.9591 1303.79 15.75 1306 15.75C1308.21 15.75 1310 13.9591 1310 11.75Z" fill="url(#paint0_linear_2545_1050)" style="mix-blend-mode:screen"/>
</g>
<defs>
<linearGradient id="paint0_linear_2545_1050" x1="-40.2994" y1="27.8606" x2="567.56" y2="-645.382" gradientUnits="userSpaceOnUse">
<stop stop-color="#FABB00" stop-opacity="0.8"/>
<stop offset="0.230426" stop-color="#FABB00" stop-opacity="0.14"/>
<stop offset="0.416667" stop-color="#FABB00" stop-opacity="0.8"/>
<stop offset="0.526042" stop-color="#FABB00" stop-opacity="0.14"/>
<stop offset="0.697117" stop-color="#FABB00" stop-opacity="0.54"/>
<stop offset="1" stop-color="#FABB00" stop-opacity="0.24"/>
</linearGradient>
<clipPath id="clip0_2545_1050">
<rect width="1281" height="48" fill="white"/>
</clipPath>
</defs>
</svg>
