<svg width="846" height="48" viewBox="0 0 846 48" fill="none" xmlns="http://www.w3.org/2000/svg">
<path d="M841.503 0.418945C841.43 0.0023722 840.504 -6.55403e-08 840.504 -6.55403e-08C806.613 1.90402 814.488 16.6468 797.891 21.9795L751.821 21.9795C777.334 17.2737 776.105 5.24124 785.086 1.16797C785.086 1.16797 785.876 0.818599 785.806 0.418945C785.732 0.00237162 784.807 -7.29724e-07 784.807 -7.29724e-07C750.916 1.90402 758.791 16.6468 742.193 21.9795L696.122 21.9795C721.634 17.2736 720.406 5.24124 729.387 1.16797C729.387 1.16797 730.177 0.818598 730.106 0.418944C730.033 0.0023728 729.107 -1.39393e-06 729.107 -1.39393e-06C695.217 1.90402 703.092 16.6468 686.494 21.9795L640.425 21.9795C665.937 17.2736 664.709 5.24123 673.689 1.16797C673.689 1.16797 674.479 0.818598 674.409 0.418943C674.336 0.00237213 673.41 -2.05811e-06 673.41 -2.05811e-06C639.52 1.90402 647.394 16.6468 630.797 21.9795L584.728 21.9795C610.24 17.2736 609.012 5.24123 617.992 1.16797C617.992 1.16797 618.782 0.818597 618.712 0.418943C618.639 0.00237147 617.713 -2.7223e-06 617.713 -2.7223e-06C583.822 1.90402 591.697 16.6468 575.1 21.9795L529.029 21.9795C554.542 17.2737 553.313 5.24124 562.294 1.16797C562.294 1.16797 563.084 0.818596 563.014 0.418942C562.94 0.00233204 562.015 -3.38649e-06 562.015 -3.38649e-06C528.124 1.90402 535.999 16.6468 519.401 21.9795L473.331 21.9795C498.843 17.2736 497.615 5.24123 506.596 1.16796C506.596 1.16796 507.386 0.818596 507.315 0.418941C507.242 0.00237199 506.316 -4.05069e-06 506.316 -4.05069e-06C472.426 1.90402 480.301 16.6468 463.703 21.9795L417.634 21.9795C443.146 17.2736 441.918 5.24123 450.898 1.16796C450.898 1.16796 451.688 0.818595 451.618 0.418941C451.545 0.00237132 450.619 -4.71487e-06 450.619 -4.71487e-06C416.729 1.90402 424.603 16.6468 408.006 21.9795L361.936 21.9795C387.448 17.2737 386.22 5.24125 395.2 1.16796C395.2 1.16796 395.991 0.81859 395.921 0.41894C395.848 0.00218115 394.921 -5.37906e-06 394.921 -5.37906e-06C361.03 1.90403 368.905 16.6469 352.308 21.9795L306.237 21.9795C331.75 17.2736 330.521 5.24123 339.502 1.16796C339.502 1.16796 340.292 0.818594 340.222 0.418939C340.148 0.00237184 339.223 -6.04326e-06 339.223 -6.04326e-06C305.332 1.90402 313.207 16.6468 296.609 21.9795L250.041 21.9795C275.554 17.2736 274.326 5.24115 283.307 1.16796C283.328 1.15853 284.096 0.813096 284.026 0.418939C283.954 0.00763287 283.051 0.000120431 283.027 -6.71338e-06C249.136 1.90395 257.011 16.6469 240.413 21.9795L194.344 21.9795C219.856 17.2736 218.628 5.24123 227.608 1.16796C227.608 1.16796 228.398 0.818592 228.328 0.418938C228.255 0.00237235 227.329 -7.37758e-06 227.329 -7.37758e-06C193.439 1.90401 201.313 16.6468 184.716 21.9795L138.146 21.9795C163.658 17.2736 162.43 5.24123 171.41 1.16796C171.41 1.16796 172.2 0.818592 172.13 0.418937C172.057 0.00237168 171.131 -8.04773e-06 171.131 -8.04773e-06C137.24 1.90401 145.115 16.6468 128.518 21.9795L82.4482 21.9795C107.961 17.2736 106.732 5.24123 115.713 1.16796C115.713 1.16796 116.503 0.818591 116.433 0.418937C116.359 0.00237286 115.434 -8.71192e-06 115.434 -8.71192e-06C81.5432 1.90401 89.4178 16.6468 72.8203 21.9795L24.252 21.9795C49.7643 17.2736 48.5361 5.24123 57.5166 1.16796C57.5166 1.16796 58.3064 0.81859 58.2363 0.418936C58.163 0.00237217 57.2373 -9.4059e-06 57.2373 -9.4059e-06C23.3469 1.90401 31.2215 16.6468 14.624 21.9795L4.78711 21.9795L4.78711 23.706C3.31029 23.8113 1.72002 23.8754 0.00390654 23.8926C1.65595 23.8856 3.24949 23.8595 4.78711 23.8174L4.78711 25.9756L31.9707 25.9756C48.7511 31.2704 40.7381 46.0907 74.7227 48C74.7227 48 75.6483 47.9976 75.7217 47.581C75.7918 47.1814 75.002 46.832 75.002 46.832C65.9916 42.7452 67.2576 30.648 41.4814 25.9756L92.4121 25.9756C109.194 31.2702 101.18 46.0907 135.165 48C135.165 48 136.091 47.9977 136.164 47.581C136.234 47.1814 135.444 46.832 135.444 46.832C126.434 42.7453 127.7 30.648 101.924 25.9756L148.11 25.9756C164.891 31.2704 156.878 46.0907 190.862 48C190.862 48 191.788 47.9976 191.861 47.581C191.931 47.1814 191.142 46.832 191.142 46.832C182.131 42.7452 183.397 30.648 157.621 25.9756L208.555 25.9756C225.335 31.2704 217.322 46.0907 251.307 48C251.307 48 252.232 47.9976 252.306 47.581C252.376 47.1814 251.586 46.832 251.586 46.832C242.576 42.7452 243.842 30.648 218.065 25.9756L264.252 25.9756C281.032 31.2704 273.019 46.0907 307.004 48C307.004 48 307.93 47.9976 308.003 47.581C308.073 47.1814 307.283 46.832 307.283 46.832C298.273 42.7452 299.539 30.648 273.763 25.9756L324.694 25.9756C341.475 31.2704 333.462 46.0907 367.446 48C367.446 48 368.372 47.9976 368.445 47.581C368.515 47.1814 367.726 46.832 367.726 46.832C358.715 42.7452 359.981 30.648 334.205 25.9756L380.393 25.9756C397.173 31.2704 389.16 46.0907 423.145 48C423.145 48 424.07 47.9976 424.144 47.581C424.214 47.1814 423.424 46.832 423.424 46.832C414.413 42.7452 415.679 30.648 389.903 25.9756L436.091 25.9756C452.871 31.2704 444.858 46.0907 478.843 48C478.843 48 479.768 47.9976 479.842 47.5811C479.912 47.1814 479.122 46.832 479.122 46.832C470.112 42.7452 471.378 30.648 445.602 25.9756L491.788 25.9756C508.569 31.2704 500.555 46.0907 534.54 48C534.54 48 535.466 47.9976 535.539 47.5811C535.609 47.1814 534.819 46.832 534.819 46.832C525.809 42.7452 527.075 30.648 501.299 25.9756L547.486 25.9756C564.267 31.2704 556.254 46.0907 590.238 48C590.238 48 591.164 47.9976 591.237 47.5811C591.307 47.1814 590.518 46.832 590.518 46.832C581.507 42.7452 582.773 30.648 556.997 25.9756L603.185 25.9756C619.965 31.2704 611.952 46.0907 645.937 48C645.937 48 646.862 47.9976 646.936 47.5811C647.006 47.1814 646.216 46.832 646.216 46.832C637.205 42.7452 638.471 30.648 612.695 25.9756L658.883 25.9756C675.663 31.2704 667.65 46.0907 701.635 48C701.635 48 702.56 47.9976 702.634 47.5811C702.704 47.1814 701.914 46.832 701.914 46.832C692.904 42.7452 694.17 30.648 668.394 25.9756L714.58 25.9756C731.36 31.2705 723.347 46.0907 757.332 48C757.332 48 758.258 47.9976 758.331 47.5811C758.401 47.1814 757.611 46.832 757.611 46.832C748.601 42.7452 749.867 30.648 724.091 25.9756L770.277 25.9756C787.058 31.2704 779.045 46.0907 813.029 48C813.029 48 813.955 47.9976 814.028 47.5811C814.098 47.1814 813.309 46.832 813.309 46.832C804.298 42.7452 805.564 30.648 779.788 25.9756L832.014 25.9756L832.014 21.9795L807.519 21.9795C833.031 17.2737 831.803 5.24124 840.783 1.16797C840.783 1.16797 841.573 0.8186 841.503 0.418945ZM62.7324 11.7832C62.7323 9.57622 60.9433 7.78713 58.7363 7.7871C56.5293 7.7871 54.7403 9.57621 54.7402 11.7832C54.7402 13.9903 56.5293 15.7793 58.7363 15.7793C60.9434 15.7793 62.7324 13.9903 62.7324 11.7832ZM80.2168 36.2168C80.2168 34.0098 78.4277 32.2208 76.2207 32.2207C74.0136 32.2207 72.2246 34.0097 72.2246 36.2168C72.2247 38.4238 74.0137 40.2129 76.2207 40.2129C78.4276 40.2128 80.2167 38.4237 80.2168 36.2168ZM120.929 11.7832C120.929 9.57627 119.14 7.78719 116.933 7.7871C114.726 7.7871 112.937 9.57621 112.937 11.7832C112.937 13.9903 114.726 15.7793 116.933 15.7793C119.14 15.7792 120.929 13.9902 120.929 11.7832ZM140.661 36.2168C140.661 34.0098 138.872 32.2208 136.665 32.2207C134.458 32.2207 132.669 34.0097 132.669 36.2168C132.669 38.4238 134.458 40.2129 136.665 40.2129C138.872 40.2128 140.661 38.4237 140.661 36.2168ZM176.627 11.7832C176.627 9.57624 174.838 7.78716 172.631 7.7871C170.424 7.7871 168.635 9.57621 168.635 11.7832C168.635 13.9903 170.424 15.7793 172.631 15.7793C174.838 15.7792 176.627 13.9902 176.627 11.7832ZM196.358 36.2168C196.358 34.0097 194.569 32.2207 192.362 32.2207C190.155 32.2207 188.366 34.0097 188.366 36.2168C188.366 38.4238 190.155 40.2129 192.362 40.2129C194.569 40.2129 196.358 38.4238 196.358 36.2168ZM232.823 11.7832C232.823 9.57627 231.034 7.78719 228.827 7.7871C226.62 7.7871 224.831 9.57621 224.831 11.7832C224.831 13.9903 226.62 15.7793 228.827 15.7793C231.034 15.7792 232.823 13.9902 232.823 11.7832ZM256.801 36.2168C256.801 34.0098 255.012 32.2208 252.805 32.2207C250.598 32.2207 248.809 34.0097 248.809 36.2168C248.809 38.4238 250.598 40.2129 252.805 40.2129C255.012 40.2128 256.801 38.4237 256.801 36.2168ZM288.521 11.7832C288.521 9.5763 286.732 7.78726 284.525 7.7871C282.318 7.7871 280.529 9.57621 280.529 11.7832C280.529 13.9903 282.318 15.7793 284.525 15.7793C286.732 15.7791 288.521 13.9902 288.521 11.7832ZM312.499 36.2168C312.499 34.0098 310.71 32.2208 308.503 32.2207C306.296 32.2207 304.507 34.0097 304.507 36.2168C304.507 38.4238 306.296 40.2129 308.503 40.2129C310.71 40.2128 312.499 38.4237 312.499 36.2168ZM344.719 11.7832C344.719 9.57624 342.93 7.78716 340.723 7.7871C338.516 7.7871 336.727 9.57621 336.727 11.7832C336.727 13.9903 338.516 15.7793 340.723 15.7793C342.93 15.7792 344.719 13.9902 344.719 11.7832ZM372.942 36.2168C372.942 34.0098 371.153 32.2208 368.946 32.2207C366.739 32.2207 364.95 34.0097 364.95 36.2168C364.95 38.4238 366.739 40.2129 368.946 40.2129C371.153 40.2128 372.942 38.4237 372.942 36.2168ZM400.417 11.7832C400.417 9.57627 398.628 7.7872 396.421 7.7871C394.214 7.7871 392.425 9.57622 392.425 11.7832C392.425 13.9903 394.214 15.7793 396.421 15.7793C398.628 15.7792 400.417 13.9902 400.417 11.7832ZM428.641 36.2168C428.641 34.0098 426.852 32.2208 424.645 32.2207C422.437 32.2207 420.648 34.0097 420.648 36.2168C420.649 38.4238 422.438 40.2129 424.645 40.2129C426.851 40.2128 428.641 38.4237 428.641 36.2168ZM456.114 11.7832C456.114 9.57627 454.325 7.7872 452.118 7.7871C449.911 7.7871 448.122 9.57622 448.122 11.7832C448.122 13.9903 449.911 15.7793 452.118 15.7793C454.325 15.7792 456.114 13.9902 456.114 11.7832ZM484.338 36.2168C484.338 34.0098 482.549 32.2208 480.342 32.2207C478.135 32.2207 476.346 34.0097 476.346 36.2168C476.346 38.4238 478.135 40.2129 480.342 40.2129C482.549 40.2128 484.338 38.4237 484.338 36.2168ZM511.813 11.7832C511.812 9.57624 510.023 7.78716 507.816 7.78711C505.609 7.78711 503.82 9.57621 503.82 11.7832C503.82 13.9903 505.609 15.7793 507.816 15.7793C510.023 15.7792 511.813 13.9902 511.813 11.7832ZM540.036 36.2168C540.036 34.0098 538.247 32.2208 536.04 32.2207C533.833 32.2207 532.044 34.0097 532.044 36.2168C532.044 38.4238 533.833 40.2129 536.04 40.2129C538.247 40.2128 540.036 38.4237 540.036 36.2168ZM567.511 11.7832C567.511 9.57627 565.722 7.7872 563.515 7.78711C561.308 7.78711 559.519 9.57622 559.519 11.7832C559.519 13.9903 561.308 15.7793 563.515 15.7793C565.722 15.7792 567.511 13.9902 567.511 11.7832ZM595.734 36.2168C595.734 34.0098 593.945 32.2208 591.738 32.2207C589.531 32.2207 587.742 34.0097 587.742 36.2168C587.742 38.4238 589.531 40.2129 591.738 40.2129C593.945 40.2128 595.734 38.4237 595.734 36.2168ZM623.208 11.7832C623.208 9.57627 621.419 7.7872 619.212 7.78711C617.005 7.78711 615.216 9.57622 615.216 11.7832C615.216 13.9903 617.005 15.7793 619.212 15.7793C621.419 15.7792 623.208 13.9902 623.208 11.7832ZM651.432 36.2168C651.432 34.0098 649.643 32.2208 647.436 32.2207C645.228 32.2207 643.439 34.0097 643.439 36.2168C643.44 38.4238 645.229 40.2129 647.436 40.2129C649.642 40.2128 651.432 38.4237 651.432 36.2168ZM678.906 11.7832C678.906 9.57626 677.117 7.78718 674.91 7.78711C672.703 7.78711 670.914 9.57621 670.914 11.7832C670.914 13.9903 672.703 15.7793 674.91 15.7793C677.117 15.7792 678.906 13.9902 678.906 11.7832ZM707.131 36.2168C707.131 34.0098 705.342 32.2208 703.135 32.2207C700.928 32.2207 699.139 34.0097 699.139 36.2168C699.139 38.4238 700.928 40.2129 703.135 40.2129C705.342 40.2128 707.131 38.4237 707.131 36.2168ZM734.604 11.7832C734.603 9.57627 732.814 7.7872 730.607 7.78711C728.4 7.78711 726.611 9.57622 726.611 11.7832C726.611 13.9903 728.4 15.7793 730.607 15.7793C732.814 15.7792 734.604 13.9902 734.604 11.7832ZM762.828 36.2168C762.828 34.0098 761.039 32.2208 758.832 32.2207C756.625 32.2207 754.836 34.0097 754.836 36.2168C754.836 38.4238 756.625 40.2129 758.832 40.2129C761.039 40.2128 762.828 38.4237 762.828 36.2168ZM790.303 11.7832C790.303 9.57627 788.514 7.7872 786.307 7.78711C784.1 7.78711 782.311 9.57622 782.311 11.7832C782.311 13.9903 784.1 15.7793 786.307 15.7793C788.514 15.7792 790.303 13.9902 790.303 11.7832ZM818.525 36.2168C818.525 34.0098 816.736 32.2208 814.529 32.2207C812.322 32.2207 810.533 34.0097 810.533 36.2168C810.533 38.4238 812.322 40.2129 814.529 40.2129C816.736 40.2128 818.525 38.4237 818.525 36.2168ZM846 11.7832C846 9.57627 844.211 7.7872 842.004 7.78711C839.797 7.78711 838.008 9.57621 838.008 11.7832C838.008 13.9903 839.797 15.7793 842.004 15.7793C844.211 15.7792 846 13.9902 846 11.7832Z" fill="#13080E"/>
<path d="M841.503 0.418945C841.43 0.0023722 840.504 -6.55403e-08 840.504 -6.55403e-08C806.613 1.90402 814.488 16.6468 797.891 21.9795L751.821 21.9795C777.334 17.2737 776.105 5.24124 785.086 1.16797C785.086 1.16797 785.876 0.818599 785.806 0.418945C785.732 0.00237162 784.807 -7.29724e-07 784.807 -7.29724e-07C750.916 1.90402 758.791 16.6468 742.193 21.9795L696.122 21.9795C721.634 17.2736 720.406 5.24124 729.387 1.16797C729.387 1.16797 730.177 0.818598 730.106 0.418944C730.033 0.0023728 729.107 -1.39393e-06 729.107 -1.39393e-06C695.217 1.90402 703.092 16.6468 686.494 21.9795L640.425 21.9795C665.937 17.2736 664.709 5.24123 673.689 1.16797C673.689 1.16797 674.479 0.818598 674.409 0.418943C674.336 0.00237213 673.41 -2.05811e-06 673.41 -2.05811e-06C639.52 1.90402 647.394 16.6468 630.797 21.9795L584.728 21.9795C610.24 17.2736 609.012 5.24123 617.992 1.16797C617.992 1.16797 618.782 0.818597 618.712 0.418943C618.639 0.00237147 617.713 -2.7223e-06 617.713 -2.7223e-06C583.822 1.90402 591.697 16.6468 575.1 21.9795L529.029 21.9795C554.542 17.2737 553.313 5.24124 562.294 1.16797C562.294 1.16797 563.084 0.818596 563.014 0.418942C562.94 0.00233204 562.015 -3.38649e-06 562.015 -3.38649e-06C528.124 1.90402 535.999 16.6468 519.401 21.9795L473.331 21.9795C498.843 17.2736 497.615 5.24123 506.596 1.16796C506.596 1.16796 507.386 0.818596 507.315 0.418941C507.242 0.00237199 506.316 -4.05069e-06 506.316 -4.05069e-06C472.426 1.90402 480.301 16.6468 463.703 21.9795L417.634 21.9795C443.146 17.2736 441.918 5.24123 450.898 1.16796C450.898 1.16796 451.688 0.818595 451.618 0.418941C451.545 0.00237132 450.619 -4.71487e-06 450.619 -4.71487e-06C416.729 1.90402 424.603 16.6468 408.006 21.9795L361.936 21.9795C387.448 17.2737 386.22 5.24125 395.2 1.16796C395.2 1.16796 395.991 0.81859 395.921 0.41894C395.848 0.00218115 394.921 -5.37906e-06 394.921 -5.37906e-06C361.03 1.90403 368.905 16.6469 352.308 21.9795L306.237 21.9795C331.75 17.2736 330.521 5.24123 339.502 1.16796C339.502 1.16796 340.292 0.818594 340.222 0.418939C340.148 0.00237184 339.223 -6.04326e-06 339.223 -6.04326e-06C305.332 1.90402 313.207 16.6468 296.609 21.9795L250.041 21.9795C275.554 17.2736 274.326 5.24115 283.307 1.16796C283.328 1.15853 284.096 0.813096 284.026 0.418939C283.954 0.00763287 283.051 0.000120431 283.027 -6.71338e-06C249.136 1.90395 257.011 16.6469 240.413 21.9795L194.344 21.9795C219.856 17.2736 218.628 5.24123 227.608 1.16796C227.608 1.16796 228.398 0.818592 228.328 0.418938C228.255 0.00237235 227.329 -7.37758e-06 227.329 -7.37758e-06C193.439 1.90401 201.313 16.6468 184.716 21.9795L138.146 21.9795C163.658 17.2736 162.43 5.24123 171.41 1.16796C171.41 1.16796 172.2 0.818592 172.13 0.418937C172.057 0.00237168 171.131 -8.04773e-06 171.131 -8.04773e-06C137.24 1.90401 145.115 16.6468 128.518 21.9795L82.4482 21.9795C107.961 17.2736 106.732 5.24123 115.713 1.16796C115.713 1.16796 116.503 0.818591 116.433 0.418937C116.359 0.00237286 115.434 -8.71192e-06 115.434 -8.71192e-06C81.5432 1.90401 89.4178 16.6468 72.8203 21.9795L24.252 21.9795C49.7643 17.2736 48.5361 5.24123 57.5166 1.16796C57.5166 1.16796 58.3064 0.81859 58.2363 0.418936C58.163 0.00237217 57.2373 -9.4059e-06 57.2373 -9.4059e-06C23.3469 1.90401 31.2215 16.6468 14.624 21.9795L4.78711 21.9795L4.78711 23.706C3.31029 23.8113 1.72002 23.8754 0.00390654 23.8926C1.65595 23.8856 3.24949 23.8595 4.78711 23.8174L4.78711 25.9756L31.9707 25.9756C48.7511 31.2704 40.7381 46.0907 74.7227 48C74.7227 48 75.6483 47.9976 75.7217 47.581C75.7918 47.1814 75.002 46.832 75.002 46.832C65.9916 42.7452 67.2576 30.648 41.4814 25.9756L92.4121 25.9756C109.194 31.2702 101.18 46.0907 135.165 48C135.165 48 136.091 47.9977 136.164 47.581C136.234 47.1814 135.444 46.832 135.444 46.832C126.434 42.7453 127.7 30.648 101.924 25.9756L148.11 25.9756C164.891 31.2704 156.878 46.0907 190.862 48C190.862 48 191.788 47.9976 191.861 47.581C191.931 47.1814 191.142 46.832 191.142 46.832C182.131 42.7452 183.397 30.648 157.621 25.9756L208.555 25.9756C225.335 31.2704 217.322 46.0907 251.307 48C251.307 48 252.232 47.9976 252.306 47.581C252.376 47.1814 251.586 46.832 251.586 46.832C242.576 42.7452 243.842 30.648 218.065 25.9756L264.252 25.9756C281.032 31.2704 273.019 46.0907 307.004 48C307.004 48 307.93 47.9976 308.003 47.581C308.073 47.1814 307.283 46.832 307.283 46.832C298.273 42.7452 299.539 30.648 273.763 25.9756L324.694 25.9756C341.475 31.2704 333.462 46.0907 367.446 48C367.446 48 368.372 47.9976 368.445 47.581C368.515 47.1814 367.726 46.832 367.726 46.832C358.715 42.7452 359.981 30.648 334.205 25.9756L380.393 25.9756C397.173 31.2704 389.16 46.0907 423.145 48C423.145 48 424.07 47.9976 424.144 47.581C424.214 47.1814 423.424 46.832 423.424 46.832C414.413 42.7452 415.679 30.648 389.903 25.9756L436.091 25.9756C452.871 31.2704 444.858 46.0907 478.843 48C478.843 48 479.768 47.9976 479.842 47.5811C479.912 47.1814 479.122 46.832 479.122 46.832C470.112 42.7452 471.378 30.648 445.602 25.9756L491.788 25.9756C508.569 31.2704 500.555 46.0907 534.54 48C534.54 48 535.466 47.9976 535.539 47.5811C535.609 47.1814 534.819 46.832 534.819 46.832C525.809 42.7452 527.075 30.648 501.299 25.9756L547.486 25.9756C564.267 31.2704 556.254 46.0907 590.238 48C590.238 48 591.164 47.9976 591.237 47.5811C591.307 47.1814 590.518 46.832 590.518 46.832C581.507 42.7452 582.773 30.648 556.997 25.9756L603.185 25.9756C619.965 31.2704 611.952 46.0907 645.937 48C645.937 48 646.862 47.9976 646.936 47.5811C647.006 47.1814 646.216 46.832 646.216 46.832C637.205 42.7452 638.471 30.648 612.695 25.9756L658.883 25.9756C675.663 31.2704 667.65 46.0907 701.635 48C701.635 48 702.56 47.9976 702.634 47.5811C702.704 47.1814 701.914 46.832 701.914 46.832C692.904 42.7452 694.17 30.648 668.394 25.9756L714.58 25.9756C731.36 31.2705 723.347 46.0907 757.332 48C757.332 48 758.258 47.9976 758.331 47.5811C758.401 47.1814 757.611 46.832 757.611 46.832C748.601 42.7452 749.867 30.648 724.091 25.9756L770.277 25.9756C787.058 31.2704 779.045 46.0907 813.029 48C813.029 48 813.955 47.9976 814.028 47.5811C814.098 47.1814 813.309 46.832 813.309 46.832C804.298 42.7452 805.564 30.648 779.788 25.9756L832.014 25.9756L832.014 21.9795L807.519 21.9795C833.031 17.2737 831.803 5.24124 840.783 1.16797C840.783 1.16797 841.573 0.8186 841.503 0.418945ZM62.7324 11.7832C62.7323 9.57622 60.9433 7.78713 58.7363 7.7871C56.5293 7.7871 54.7403 9.57621 54.7402 11.7832C54.7402 13.9903 56.5293 15.7793 58.7363 15.7793C60.9434 15.7793 62.7324 13.9903 62.7324 11.7832ZM80.2168 36.2168C80.2168 34.0098 78.4277 32.2208 76.2207 32.2207C74.0136 32.2207 72.2246 34.0097 72.2246 36.2168C72.2247 38.4238 74.0137 40.2129 76.2207 40.2129C78.4276 40.2128 80.2167 38.4237 80.2168 36.2168ZM120.929 11.7832C120.929 9.57627 119.14 7.78719 116.933 7.7871C114.726 7.7871 112.937 9.57621 112.937 11.7832C112.937 13.9903 114.726 15.7793 116.933 15.7793C119.14 15.7792 120.929 13.9902 120.929 11.7832ZM140.661 36.2168C140.661 34.0098 138.872 32.2208 136.665 32.2207C134.458 32.2207 132.669 34.0097 132.669 36.2168C132.669 38.4238 134.458 40.2129 136.665 40.2129C138.872 40.2128 140.661 38.4237 140.661 36.2168ZM176.627 11.7832C176.627 9.57624 174.838 7.78716 172.631 7.7871C170.424 7.7871 168.635 9.57621 168.635 11.7832C168.635 13.9903 170.424 15.7793 172.631 15.7793C174.838 15.7792 176.627 13.9902 176.627 11.7832ZM196.358 36.2168C196.358 34.0097 194.569 32.2207 192.362 32.2207C190.155 32.2207 188.366 34.0097 188.366 36.2168C188.366 38.4238 190.155 40.2129 192.362 40.2129C194.569 40.2129 196.358 38.4238 196.358 36.2168ZM232.823 11.7832C232.823 9.57627 231.034 7.78719 228.827 7.7871C226.62 7.7871 224.831 9.57621 224.831 11.7832C224.831 13.9903 226.62 15.7793 228.827 15.7793C231.034 15.7792 232.823 13.9902 232.823 11.7832ZM256.801 36.2168C256.801 34.0098 255.012 32.2208 252.805 32.2207C250.598 32.2207 248.809 34.0097 248.809 36.2168C248.809 38.4238 250.598 40.2129 252.805 40.2129C255.012 40.2128 256.801 38.4237 256.801 36.2168ZM288.521 11.7832C288.521 9.5763 286.732 7.78726 284.525 7.7871C282.318 7.7871 280.529 9.57621 280.529 11.7832C280.529 13.9903 282.318 15.7793 284.525 15.7793C286.732 15.7791 288.521 13.9902 288.521 11.7832ZM312.499 36.2168C312.499 34.0098 310.71 32.2208 308.503 32.2207C306.296 32.2207 304.507 34.0097 304.507 36.2168C304.507 38.4238 306.296 40.2129 308.503 40.2129C310.71 40.2128 312.499 38.4237 312.499 36.2168ZM344.719 11.7832C344.719 9.57624 342.93 7.78716 340.723 7.7871C338.516 7.7871 336.727 9.57621 336.727 11.7832C336.727 13.9903 338.516 15.7793 340.723 15.7793C342.93 15.7792 344.719 13.9902 344.719 11.7832ZM372.942 36.2168C372.942 34.0098 371.153 32.2208 368.946 32.2207C366.739 32.2207 364.95 34.0097 364.95 36.2168C364.95 38.4238 366.739 40.2129 368.946 40.2129C371.153 40.2128 372.942 38.4237 372.942 36.2168ZM400.417 11.7832C400.417 9.57627 398.628 7.7872 396.421 7.7871C394.214 7.7871 392.425 9.57622 392.425 11.7832C392.425 13.9903 394.214 15.7793 396.421 15.7793C398.628 15.7792 400.417 13.9902 400.417 11.7832ZM428.641 36.2168C428.641 34.0098 426.852 32.2208 424.645 32.2207C422.437 32.2207 420.648 34.0097 420.648 36.2168C420.649 38.4238 422.438 40.2129 424.645 40.2129C426.851 40.2128 428.641 38.4237 428.641 36.2168ZM456.114 11.7832C456.114 9.57627 454.325 7.7872 452.118 7.7871C449.911 7.7871 448.122 9.57622 448.122 11.7832C448.122 13.9903 449.911 15.7793 452.118 15.7793C454.325 15.7792 456.114 13.9902 456.114 11.7832ZM484.338 36.2168C484.338 34.0098 482.549 32.2208 480.342 32.2207C478.135 32.2207 476.346 34.0097 476.346 36.2168C476.346 38.4238 478.135 40.2129 480.342 40.2129C482.549 40.2128 484.338 38.4237 484.338 36.2168ZM511.813 11.7832C511.812 9.57624 510.023 7.78716 507.816 7.78711C505.609 7.78711 503.82 9.57621 503.82 11.7832C503.82 13.9903 505.609 15.7793 507.816 15.7793C510.023 15.7792 511.813 13.9902 511.813 11.7832ZM540.036 36.2168C540.036 34.0098 538.247 32.2208 536.04 32.2207C533.833 32.2207 532.044 34.0097 532.044 36.2168C532.044 38.4238 533.833 40.2129 536.04 40.2129C538.247 40.2128 540.036 38.4237 540.036 36.2168ZM567.511 11.7832C567.511 9.57627 565.722 7.7872 563.515 7.78711C561.308 7.78711 559.519 9.57622 559.519 11.7832C559.519 13.9903 561.308 15.7793 563.515 15.7793C565.722 15.7792 567.511 13.9902 567.511 11.7832ZM595.734 36.2168C595.734 34.0098 593.945 32.2208 591.738 32.2207C589.531 32.2207 587.742 34.0097 587.742 36.2168C587.742 38.4238 589.531 40.2129 591.738 40.2129C593.945 40.2128 595.734 38.4237 595.734 36.2168ZM623.208 11.7832C623.208 9.57627 621.419 7.7872 619.212 7.78711C617.005 7.78711 615.216 9.57622 615.216 11.7832C615.216 13.9903 617.005 15.7793 619.212 15.7793C621.419 15.7792 623.208 13.9902 623.208 11.7832ZM651.432 36.2168C651.432 34.0098 649.643 32.2208 647.436 32.2207C645.228 32.2207 643.439 34.0097 643.439 36.2168C643.44 38.4238 645.229 40.2129 647.436 40.2129C649.642 40.2128 651.432 38.4237 651.432 36.2168ZM678.906 11.7832C678.906 9.57626 677.117 7.78718 674.91 7.78711C672.703 7.78711 670.914 9.57621 670.914 11.7832C670.914 13.9903 672.703 15.7793 674.91 15.7793C677.117 15.7792 678.906 13.9902 678.906 11.7832ZM707.131 36.2168C707.131 34.0098 705.342 32.2208 703.135 32.2207C700.928 32.2207 699.139 34.0097 699.139 36.2168C699.139 38.4238 700.928 40.2129 703.135 40.2129C705.342 40.2128 707.131 38.4237 707.131 36.2168ZM734.604 11.7832C734.603 9.57627 732.814 7.7872 730.607 7.78711C728.4 7.78711 726.611 9.57622 726.611 11.7832C726.611 13.9903 728.4 15.7793 730.607 15.7793C732.814 15.7792 734.604 13.9902 734.604 11.7832ZM762.828 36.2168C762.828 34.0098 761.039 32.2208 758.832 32.2207C756.625 32.2207 754.836 34.0097 754.836 36.2168C754.836 38.4238 756.625 40.2129 758.832 40.2129C761.039 40.2128 762.828 38.4237 762.828 36.2168ZM790.303 11.7832C790.303 9.57627 788.514 7.7872 786.307 7.78711C784.1 7.78711 782.311 9.57622 782.311 11.7832C782.311 13.9903 784.1 15.7793 786.307 15.7793C788.514 15.7792 790.303 13.9902 790.303 11.7832ZM818.525 36.2168C818.525 34.0098 816.736 32.2208 814.529 32.2207C812.322 32.2207 810.533 34.0097 810.533 36.2168C810.533 38.4238 812.322 40.2129 814.529 40.2129C816.736 40.2128 818.525 38.4237 818.525 36.2168ZM846 11.7832C846 9.57627 844.211 7.7872 842.004 7.78711C839.797 7.78711 838.008 9.57621 838.008 11.7832C838.008 13.9903 839.797 15.7793 842.004 15.7793C844.211 15.7792 846 13.9902 846 11.7832Z" fill="url(#paint0_linear_2545_683)" style="mix-blend-mode:screen"/>
<defs>
<linearGradient id="paint0_linear_2545_683" x1="-0.245574" y1="27.8798" x2="408.269" y2="-400.871" gradientUnits="userSpaceOnUse">
<stop stop-color="#FABB00" stop-opacity="0.8"/>
<stop offset="0.317708" stop-color="#FABB00" stop-opacity="0.24"/>
<stop offset="0.416667" stop-color="#FABB00" stop-opacity="0.8"/>
<stop offset="0.526042" stop-color="#FABB00" stop-opacity="0.14"/>
<stop offset="0.6875" stop-color="#FABB00" stop-opacity="0.54"/>
<stop offset="1" stop-color="#FABB00" stop-opacity="0.24"/>
</linearGradient>
</defs>
</svg>
