<svg width="390" height="48" viewBox="0 0 390 48" fill="none" xmlns="http://www.w3.org/2000/svg">
<path fill-rule="evenodd" clip-rule="evenodd" d="M607.507 11.7834C607.507 9.57633 609.297 7.78714 611.504 7.78714C613.711 7.78714 615.5 9.57633 615.5 11.7834C615.5 13.9905 613.711 15.7797 611.504 15.7797C609.297 15.7797 607.507 13.9905 607.507 11.7834ZM19.5431 21.9794L66.1124 21.9794C72.4335 19.9477 75.2044 16.5508 78.0858 13.0183C82.7686 7.27748 87.7434 1.17868 108.723 6.88471e-05C108.723 6.88471e-05 109.649 0.00231953 109.722 0.419079C109.792 0.818733 109.002 1.16838 109.002 1.16838C105.966 2.54535 104.097 4.83193 101.967 7.43756C97.7962 12.5393 92.6255 18.8642 75.7394 21.9794L121.811 21.9794C128.132 19.9477 130.903 16.5508 133.784 13.0182C138.467 7.27744 143.442 1.17864 164.421 2.75497e-05C164.421 2.75497e-05 165.347 0.00227823 165.42 0.419038C165.491 0.818692 164.701 1.16834 164.701 1.16834C161.665 2.54531 159.795 4.83188 157.665 7.4375C153.494 12.5393 148.324 18.8642 131.437 21.9794L177.509 21.9794C183.83 19.9477 186.601 16.5508 189.482 13.0183C194.165 7.27747 199.14 1.17868 220.119 7.01755e-05C220.119 7.01755e-05 221.046 0.00232086 221.119 0.419077C221.189 0.818731 220.399 1.16838 220.399 1.16838C217.363 2.54535 215.494 4.83192 213.363 7.43754C209.193 12.5393 204.022 18.8642 187.136 21.9794L233.206 21.9794C239.527 19.9477 242.298 16.5508 245.18 13.0183C249.862 7.27748 254.837 1.17868 275.817 7.08397e-05C275.817 7.08397e-05 276.743 0.00232152 276.816 0.419077C276.886 0.818732 276.096 1.16838 276.096 1.16838C273.06 2.54535 271.191 4.83192 269.061 7.43754C264.89 12.5393 259.719 18.8642 242.833 21.9794L288.904 21.9794C295.225 19.9477 297.996 16.5508 300.878 13.0182C305.561 7.27743 310.535 1.17864 331.515 2.95422e-05C331.515 2.95422e-05 332.441 0.00228022 332.514 0.419036C332.584 0.81869 331.794 1.16834 331.794 1.16834C328.758 2.54531 326.889 4.83189 324.759 7.43751C320.588 12.5393 315.418 18.8643 298.531 21.9794L344.603 21.9794C350.924 19.9477 353.695 16.5508 356.576 13.0183C361.259 7.27747 366.234 1.17868 387.213 6.83534e-05C387.213 6.83534e-05 388.139 0.00231904 388.212 0.419079C388.283 0.818733 387.493 1.16838 387.493 1.16838C384.457 2.54535 382.587 4.83192 380.457 7.43755C376.286 12.5393 371.116 18.8642 354.23 21.9794L400.3 21.9794C406.621 19.9477 409.392 16.5508 412.273 13.0183C416.956 7.27747 421.931 1.17868 442.91 6.90176e-05C442.91 6.90176e-05 443.837 0.0023197 443.91 0.419079C443.98 0.818734 443.19 1.16838 443.19 1.16838C440.154 2.54535 438.285 4.83192 436.154 7.43755C431.984 12.5393 426.813 18.8642 409.927 21.9794L455.997 21.9794C462.318 19.9477 465.089 16.5508 467.971 13.0183C472.653 7.27748 477.628 1.17868 498.608 6.96818e-05C498.608 6.96818e-05 499.534 0.00232036 499.607 0.41908C499.677 0.818734 498.887 1.16838 498.887 1.16838C495.851 2.54535 493.982 4.83193 491.852 7.43755C487.681 12.5393 482.51 18.8642 465.624 21.9794L511.696 21.9794C518.017 19.9477 520.788 16.5508 523.67 13.0183C528.353 7.27747 533.327 1.17868 554.307 7.0346e-05C554.307 7.0346e-05 555.233 0.00232103 555.306 0.419077C555.376 0.818731 554.586 1.16838 554.586 1.16838C551.55 2.54535 549.681 4.83193 547.551 7.43755C543.38 12.5393 538.21 18.8643 521.323 21.9794L567.394 21.9794C573.715 19.9477 576.486 16.5508 579.367 13.0183C584.05 7.27748 589.025 1.17868 610.004 7.10101e-05C610.004 7.10101e-05 610.93 0.00232169 611.003 0.419077C611.074 0.818732 610.284 1.16838 610.284 1.16838C607.248 2.54535 605.378 4.83193 603.248 7.43755C599.077 12.5393 593.907 18.8643 577.02 21.9794L601.514 21.9794L601.514 25.9757L549.3 25.9757C566.382 29.0746 571.583 35.436 575.774 40.5625C577.904 43.1681 579.773 45.4547 582.809 46.8317C582.809 46.8317 583.599 47.1813 583.529 47.581C583.456 47.9977 582.53 48 582.53 48C561.55 46.8214 556.575 40.7226 551.892 34.9818C548.99 31.4231 546.199 28.002 539.778 25.9757L493.603 25.9757C510.685 29.0746 515.885 35.4361 520.076 40.5625C522.206 43.1681 524.076 45.4547 527.112 46.8317C527.112 46.8317 527.902 47.1813 527.831 47.581C527.758 47.9977 526.832 48 526.832 48C505.853 46.8214 500.878 40.7226 496.195 34.9818C493.292 31.4231 490.502 28.002 484.08 25.9757L437.906 25.9757C454.988 29.0746 460.188 35.436 464.379 40.5625C466.509 43.1681 468.378 45.4547 471.414 46.8317C471.414 46.8317 472.204 47.1813 472.134 47.581C472.061 47.9977 471.135 48 471.135 48C450.156 46.8214 445.181 40.7226 440.498 34.9818C437.595 31.4231 434.805 28.0019 428.383 25.9757L382.207 25.9757C399.289 29.0746 404.49 35.436 408.681 40.5625C410.811 43.1681 412.68 45.4547 415.716 46.8317C415.716 46.8317 416.506 47.1813 416.436 47.581C416.363 47.9977 415.437 48 415.437 48C394.457 46.8214 389.482 40.7226 384.8 34.9818C381.897 31.4231 379.106 28.0019 372.685 25.9757L326.509 25.9757C343.591 29.0746 348.792 35.436 352.983 40.5625C355.113 43.1681 356.982 45.4547 360.018 46.8317C360.018 46.8317 360.808 47.1813 360.738 47.581C360.665 47.9977 359.739 48 359.739 48C338.759 46.8214 333.784 40.7226 329.101 34.9818C326.199 31.4231 323.408 28.0019 316.987 25.9757L270.811 25.9757C287.893 29.0746 293.093 35.436 297.284 40.5625C299.414 43.1681 301.284 45.4547 304.32 46.8317C304.32 46.8317 305.11 47.1813 305.04 47.581C304.966 47.9977 304.04 48 304.04 48C283.061 46.8214 278.086 40.7226 273.403 34.9818C270.5 31.4231 267.71 28.0019 261.288 25.9757L215.113 25.9757C232.196 29.0746 237.396 35.436 241.587 40.5625C243.717 43.1681 245.586 45.4547 248.622 46.8317C248.622 46.8317 249.412 47.1813 249.342 47.581C249.269 47.9977 248.343 48 248.343 48C227.364 46.8214 222.389 40.7226 217.706 34.9818C214.803 31.4231 212.013 28.0019 205.591 25.9757L159.415 25.9757C176.497 29.0746 181.698 35.436 185.889 40.5625C188.019 43.1681 189.888 45.4547 192.924 46.8317C192.924 46.8317 193.714 47.1813 193.644 47.581C193.571 47.9977 192.645 48 192.645 48C171.665 46.8214 166.69 40.7226 162.008 34.9818C159.105 31.4231 156.314 28.0019 149.893 25.9757L103.717 25.9757C120.799 29.0746 126 35.436 130.191 40.5625C132.321 43.1681 134.19 45.4547 137.226 46.8317C137.226 46.8317 138.016 47.1813 137.946 47.581C137.873 47.9977 136.947 48 136.947 48C115.967 46.8214 110.992 40.7226 106.309 34.9818C103.407 31.4231 100.616 28.0019 94.1947 25.9757L43.2745 25.9757C60.3567 29.0746 65.5573 35.436 69.7482 40.5625C71.8783 43.1681 73.7476 45.4547 76.7836 46.8317C76.7836 46.8317 77.5735 47.1813 77.5034 47.581C77.4303 47.9977 76.5042 48 76.5042 48C55.5247 46.8214 50.5499 40.7226 45.8671 34.9818C42.9642 31.4231 40.1736 28.0019 33.7523 25.9757L-12.4227 25.9757C4.65942 29.0746 9.85999 35.436 14.0509 40.5625C16.181 43.1681 18.0504 45.4547 21.0864 46.8317C21.0864 46.8317 21.8763 47.1813 21.8062 47.581C21.733 47.9977 20.8069 48 20.8069 48C-0.172607 46.8214 -5.1474 40.7226 -9.8302 34.9818C-12.733 31.4231 -15.5237 28.0019 -21.945 25.9757L-72.8671 25.9757C-55.7849 29.0745 -50.5844 35.436 -46.3934 40.5625C-44.2633 43.1681 -42.394 45.4547 -39.358 46.8317C-39.358 46.8317 -38.5681 47.1813 -38.6382 47.581C-38.7113 47.9977 -39.6374 48 -39.6374 48C-60.6169 46.8214 -65.5917 40.7226 -70.2745 34.9818C-73.1774 31.4231 -75.968 28.0019 -82.3893 25.9757L-128.565 25.9757C-111.482 29.0745 -106.282 35.436 -102.091 40.5625C-99.9608 43.1681 -98.0914 45.4547 -95.0554 46.8317C-95.0554 46.8317 -94.2655 47.1813 -94.3356 47.581C-94.4088 47.9977 -95.3348 48 -95.3348 48C-116.314 46.8214 -121.289 40.7226 -125.972 34.9818C-128.875 31.4231 -131.665 28.0019 -138.087 25.9757L-189.007 25.9757C-171.925 29.0745 -166.724 35.436 -162.533 40.5625C-160.403 43.1681 -158.534 45.4547 -155.498 46.8317C-155.498 46.8317 -154.708 47.1813 -154.778 47.581C-154.851 47.9977 -155.777 48 -155.777 48C-176.757 46.8214 -181.731 40.7226 -186.414 34.9818C-189.317 31.4231 -192.108 28.0019 -198.529 25.9757L-225.713 25.9756L-225.713 23.8208C-227.547 23.8711 -229.46 23.8971 -231.458 23.8971C-229.37 23.8971 -227.462 23.8313 -225.713 23.7066L-225.713 21.9793L-215.873 21.9793C-209.552 19.9477 -206.781 16.5508 -203.9 13.0183C-199.217 7.27748 -194.242 1.17868 -173.262 6.92992e-05C-173.262 6.92992e-05 -172.336 0.00231998 -172.263 0.419079C-172.193 0.818734 -172.983 1.16838 -172.983 1.16838C-176.019 2.54535 -177.888 4.83193 -180.018 7.43756C-184.189 12.5393 -189.36 18.8642 -206.246 21.9794L-157.677 21.9794C-151.356 19.9477 -148.585 16.5508 -145.703 13.0183C-141.02 7.27748 -136.046 1.17868 -115.066 6.99932e-05C-115.066 6.99932e-05 -114.14 0.00232068 -114.067 0.41908C-113.997 0.818735 -114.787 1.16838 -114.787 1.16838C-117.823 2.54535 -119.692 4.83193 -121.822 7.43756C-125.993 12.5393 -131.164 18.8642 -148.05 21.9794L-101.979 21.9794C-95.6583 19.9477 -92.8874 16.5508 -90.006 13.0183C-85.3232 7.27748 -80.3484 1.17868 -59.3688 7.06573e-05C-59.3688 7.06573e-05 -58.4427 0.00232134 -58.3696 0.419077C-58.2995 0.818731 -59.0894 1.16838 -59.0894 1.16838C-62.1254 2.54535 -63.9948 4.83193 -66.1249 7.43756C-70.2956 12.5393 -75.4662 18.8642 -92.3524 21.9794L-45.7811 21.9794C-39.46 19.9477 -36.6891 16.5508 -33.8077 13.0183C-29.1249 7.27748 -24.1501 1.17868 -3.17059 7.13275e-05C-3.17059 7.13275e-05 -2.24451 0.00232201 -2.17139 0.419078C-2.10126 0.818732 -2.89117 1.16838 -2.89117 1.16838C-5.92718 2.54536 -7.79651 4.83193 -9.92664 7.43756C-14.0974 12.5393 -19.268 18.8642 -36.1541 21.9794L9.9162 21.9794C16.2374 19.9477 19.0082 16.5507 21.8897 13.0182C26.5725 7.27743 31.5473 1.17864 52.5269 3.003e-05C52.5269 3.003e-05 53.4529 0.00228071 53.5261 0.419036C53.5962 0.818691 52.8063 1.16834 52.8063 1.16834C49.7703 2.54531 47.9009 4.83189 45.7708 7.43752C41.6001 12.5393 36.4294 18.8642 19.5431 21.9794ZM580.033 36.2166C580.033 38.4237 581.822 40.2129 584.029 40.2129C586.236 40.2129 588.025 38.4237 588.025 36.2166C588.025 34.0095 586.236 32.2204 584.029 32.2204C581.822 32.2204 580.033 34.0095 580.033 36.2166ZM524.336 36.2166C524.336 38.4237 526.125 40.2129 528.332 40.2129C530.539 40.2129 532.328 38.4237 532.328 36.2166C532.328 34.0095 530.539 32.2204 528.332 32.2204C526.125 32.2204 524.336 34.0095 524.336 36.2166ZM468.638 36.2166C468.638 38.4237 470.428 40.2129 472.635 40.2129C474.842 40.2129 476.631 38.4237 476.631 36.2166C476.631 34.0095 474.842 32.2204 472.635 32.2204C470.428 32.2204 468.638 34.0095 468.638 36.2166ZM412.939 36.2166C412.939 38.4237 414.728 40.2129 416.935 40.2129C419.142 40.2129 420.932 38.4237 420.932 36.2166C420.932 34.0095 419.142 32.2204 416.935 32.2204C414.728 32.2204 412.939 34.0095 412.939 36.2166ZM357.242 36.2166C357.242 38.4237 359.031 40.2129 361.238 40.2129C363.445 40.2129 365.234 38.4237 365.234 36.2166C365.234 34.0095 363.445 32.2204 361.238 32.2204C359.031 32.2204 357.242 34.0095 357.242 36.2166ZM301.544 36.2166C301.544 38.4237 303.333 40.2129 305.54 40.2129C307.747 40.2129 309.536 38.4237 309.536 36.2166C309.536 34.0095 307.747 32.2203 305.54 32.2203C303.333 32.2203 301.544 34.0095 301.544 36.2166ZM245.845 36.2166C245.845 38.4237 247.635 40.2129 249.842 40.2129C252.049 40.2129 253.838 38.4237 253.838 36.2166C253.838 34.0096 252.049 32.2204 249.842 32.2204C247.635 32.2204 245.845 34.0096 245.845 36.2166ZM194.144 40.2129C191.937 40.2129 190.148 38.4237 190.148 36.2166C190.148 34.0095 191.937 32.2204 194.144 32.2204C196.351 32.2204 198.141 34.0095 198.141 36.2166C198.141 38.4237 196.351 40.2129 194.144 40.2129ZM74.0064 36.2166C74.0064 38.4237 75.7957 40.2129 78.0027 40.2129C80.2098 40.2129 81.999 38.4237 81.999 36.2166C81.999 34.0095 80.2098 32.2203 78.0027 32.2203C75.7957 32.2203 74.0064 34.0095 74.0064 36.2166ZM-38.1377 40.2129C-40.3447 40.2129 -42.134 38.4237 -42.134 36.2166C-42.134 34.0095 -40.3447 32.2203 -38.1377 32.2203C-35.9306 32.2203 -34.1414 34.0095 -34.1414 36.2166C-34.1414 38.4237 -35.9306 40.2129 -38.1377 40.2129ZM-158.276 36.2166C-158.276 38.4237 -156.487 40.2129 -154.279 40.2129C-152.072 40.2129 -150.283 38.4237 -150.283 36.2166C-150.283 34.0096 -152.072 32.2204 -154.279 32.2204C-156.487 32.2204 -158.276 34.0095 -158.276 36.2166ZM134.45 36.2166C134.45 38.4237 136.239 40.2129 138.446 40.2129C140.653 40.2129 142.442 38.4237 142.442 36.2166C142.442 34.0095 140.653 32.2203 138.446 32.2203C136.239 32.2203 134.45 34.0095 134.45 36.2166ZM22.3045 40.2129C20.0975 40.2129 18.3082 38.4237 18.3082 36.2166C18.3082 34.0095 20.0975 32.2204 22.3045 32.2204C24.5116 32.2204 26.3008 34.0095 26.3008 36.2166C26.3008 38.4237 24.5116 40.2129 22.3045 40.2129ZM-97.8314 36.2166C-97.8314 38.4237 -96.0422 40.2129 -93.8351 40.2129C-91.6281 40.2129 -89.8389 38.4237 -89.8389 36.2166C-89.8389 34.0095 -91.6281 32.2204 -93.8351 32.2204C-96.0422 32.2204 -97.8314 34.0095 -97.8314 36.2166ZM551.81 11.7834C551.81 9.57635 553.599 7.78716 555.806 7.78716C558.014 7.78716 559.803 9.57635 559.803 11.7834C559.803 13.9905 558.014 15.7797 555.806 15.7797C553.599 15.7797 551.81 13.9905 551.81 11.7834ZM496.111 11.7834C496.111 9.57635 497.9 7.78716 500.107 7.78716C502.314 7.78716 504.104 9.57635 504.104 11.7834C504.104 13.9905 502.314 15.7797 500.107 15.7797C497.9 15.7797 496.111 13.9905 496.111 11.7834ZM440.414 11.7834C440.414 9.57633 442.203 7.78715 444.41 7.78715C446.617 7.78715 448.406 9.57633 448.406 11.7834C448.406 13.9905 446.617 15.7797 444.41 15.7797C442.203 15.7797 440.414 13.9905 440.414 11.7834ZM384.715 11.7834C384.715 9.57635 386.505 7.78716 388.712 7.78716C390.919 7.78716 392.708 9.57635 392.708 11.7834C392.708 13.9905 390.919 15.7797 388.712 15.7797C386.505 15.7797 384.715 13.9905 384.715 11.7834ZM329.018 11.7834C329.018 9.57635 330.807 7.78716 333.014 7.78716C335.222 7.78716 337.011 9.57635 337.011 11.7834C337.011 13.9905 335.222 15.7797 333.014 15.7797C330.807 15.7797 329.018 13.9905 329.018 11.7834ZM273.32 11.7834C273.32 9.57633 275.109 7.78715 277.316 7.78715C279.523 7.78715 281.313 9.57633 281.313 11.7834C281.313 13.9905 279.523 15.7797 277.316 15.7797C275.109 15.7797 273.32 13.9905 273.32 11.7834ZM217.622 11.7834C217.622 9.57635 219.411 7.78716 221.618 7.78716C223.825 7.78716 225.614 9.57635 225.614 11.7834C225.614 13.9905 223.825 15.7797 221.618 15.7797C219.411 15.7797 217.622 13.9905 217.622 11.7834ZM161.924 11.7834C161.924 9.57635 163.714 7.78716 165.921 7.78716C168.128 7.78716 169.917 9.57635 169.917 11.7834C169.917 13.9905 168.128 15.7797 165.921 15.7797C163.714 15.7797 161.924 13.9905 161.924 11.7834ZM54.0251 7.78714C51.8181 7.78714 50.0288 9.57633 50.0288 11.7834C50.0288 13.9905 51.8181 15.7797 54.0251 15.7797C56.2322 15.7797 58.0214 13.9905 58.0214 11.7834C58.0214 9.57633 56.2322 7.78714 54.0251 7.78714ZM-61.8655 11.7834C-61.8655 9.57633 -60.0763 7.78714 -57.8693 7.78714C-55.6622 7.78714 -53.873 9.57633 -53.873 11.7834C-53.873 13.9905 -55.6622 15.7797 -57.8693 15.7797C-60.0763 15.7797 -61.8655 13.9905 -61.8655 11.7834ZM110.223 7.78714C108.015 7.78714 106.226 9.57633 106.226 11.7834C106.226 13.9905 108.015 15.7797 110.223 15.7797C112.43 15.7797 114.219 13.9905 114.219 11.7834C114.219 9.57633 112.43 7.78714 110.223 7.78714ZM-5.66931 11.7834C-5.66931 9.57635 -3.88007 7.78717 -1.67303 7.78717C0.534058 7.78717 2.32324 9.57635 2.32324 11.7834C2.32324 13.9905 0.534058 15.7797 -1.67303 15.7797C-3.88007 15.7797 -5.66931 13.9905 -5.66931 11.7834ZM-113.568 7.78716C-115.775 7.78716 -117.564 9.57635 -117.564 11.7834C-117.564 13.9905 -115.775 15.7797 -113.568 15.7797C-111.36 15.7797 -109.571 13.9905 -109.571 11.7834C-109.571 9.57635 -111.36 7.78716 -113.568 7.78716ZM-175.76 11.7834C-175.76 9.57633 -173.971 7.78715 -171.764 7.78715C-169.557 7.78715 -167.767 9.57633 -167.767 11.7834C-167.767 13.9905 -169.557 15.7797 -171.764 15.7797C-173.971 15.7797 -175.76 13.9905 -175.76 11.7834Z" fill="#13080E"/>
<path fill-rule="evenodd" clip-rule="evenodd" d="M607.507 11.7834C607.507 9.57633 609.297 7.78714 611.504 7.78714C613.711 7.78714 615.5 9.57633 615.5 11.7834C615.5 13.9905 613.711 15.7797 611.504 15.7797C609.297 15.7797 607.507 13.9905 607.507 11.7834ZM19.5431 21.9794L66.1124 21.9794C72.4335 19.9477 75.2044 16.5508 78.0858 13.0183C82.7686 7.27748 87.7434 1.17868 108.723 6.88471e-05C108.723 6.88471e-05 109.649 0.00231953 109.722 0.419079C109.792 0.818733 109.002 1.16838 109.002 1.16838C105.966 2.54535 104.097 4.83193 101.967 7.43756C97.7962 12.5393 92.6255 18.8642 75.7394 21.9794L121.811 21.9794C128.132 19.9477 130.903 16.5508 133.784 13.0182C138.467 7.27744 143.442 1.17864 164.421 2.75497e-05C164.421 2.75497e-05 165.347 0.00227823 165.42 0.419038C165.491 0.818692 164.701 1.16834 164.701 1.16834C161.665 2.54531 159.795 4.83188 157.665 7.4375C153.494 12.5393 148.324 18.8642 131.437 21.9794L177.509 21.9794C183.83 19.9477 186.601 16.5508 189.482 13.0183C194.165 7.27747 199.14 1.17868 220.119 7.01755e-05C220.119 7.01755e-05 221.046 0.00232086 221.119 0.419077C221.189 0.818731 220.399 1.16838 220.399 1.16838C217.363 2.54535 215.494 4.83192 213.363 7.43754C209.193 12.5393 204.022 18.8642 187.136 21.9794L233.206 21.9794C239.527 19.9477 242.298 16.5508 245.18 13.0183C249.862 7.27748 254.837 1.17868 275.817 7.08397e-05C275.817 7.08397e-05 276.743 0.00232152 276.816 0.419077C276.886 0.818732 276.096 1.16838 276.096 1.16838C273.06 2.54535 271.191 4.83192 269.061 7.43754C264.89 12.5393 259.719 18.8642 242.833 21.9794L288.904 21.9794C295.225 19.9477 297.996 16.5508 300.878 13.0182C305.561 7.27743 310.535 1.17864 331.515 2.95422e-05C331.515 2.95422e-05 332.441 0.00228022 332.514 0.419036C332.584 0.81869 331.794 1.16834 331.794 1.16834C328.758 2.54531 326.889 4.83189 324.759 7.43751C320.588 12.5393 315.418 18.8643 298.531 21.9794L344.603 21.9794C350.924 19.9477 353.695 16.5508 356.576 13.0183C361.259 7.27747 366.234 1.17868 387.213 6.83534e-05C387.213 6.83534e-05 388.139 0.00231904 388.212 0.419079C388.283 0.818733 387.493 1.16838 387.493 1.16838C384.457 2.54535 382.587 4.83192 380.457 7.43755C376.286 12.5393 371.116 18.8642 354.23 21.9794L400.3 21.9794C406.621 19.9477 409.392 16.5508 412.273 13.0183C416.956 7.27747 421.931 1.17868 442.91 6.90176e-05C442.91 6.90176e-05 443.837 0.0023197 443.91 0.419079C443.98 0.818734 443.19 1.16838 443.19 1.16838C440.154 2.54535 438.285 4.83192 436.154 7.43755C431.984 12.5393 426.813 18.8642 409.927 21.9794L455.997 21.9794C462.318 19.9477 465.089 16.5508 467.971 13.0183C472.653 7.27748 477.628 1.17868 498.608 6.96818e-05C498.608 6.96818e-05 499.534 0.00232036 499.607 0.41908C499.677 0.818734 498.887 1.16838 498.887 1.16838C495.851 2.54535 493.982 4.83193 491.852 7.43755C487.681 12.5393 482.51 18.8642 465.624 21.9794L511.696 21.9794C518.017 19.9477 520.788 16.5508 523.67 13.0183C528.353 7.27747 533.327 1.17868 554.307 7.0346e-05C554.307 7.0346e-05 555.233 0.00232103 555.306 0.419077C555.376 0.818731 554.586 1.16838 554.586 1.16838C551.55 2.54535 549.681 4.83193 547.551 7.43755C543.38 12.5393 538.21 18.8643 521.323 21.9794L567.394 21.9794C573.715 19.9477 576.486 16.5508 579.367 13.0183C584.05 7.27748 589.025 1.17868 610.004 7.10101e-05C610.004 7.10101e-05 610.93 0.00232169 611.003 0.419077C611.074 0.818732 610.284 1.16838 610.284 1.16838C607.248 2.54535 605.378 4.83193 603.248 7.43755C599.077 12.5393 593.907 18.8643 577.02 21.9794L601.514 21.9794L601.514 25.9757L549.3 25.9757C566.382 29.0746 571.583 35.436 575.774 40.5625C577.904 43.1681 579.773 45.4547 582.809 46.8317C582.809 46.8317 583.599 47.1813 583.529 47.581C583.456 47.9977 582.53 48 582.53 48C561.55 46.8214 556.575 40.7226 551.892 34.9818C548.99 31.4231 546.199 28.002 539.778 25.9757L493.603 25.9757C510.685 29.0746 515.885 35.4361 520.076 40.5625C522.206 43.1681 524.076 45.4547 527.112 46.8317C527.112 46.8317 527.902 47.1813 527.831 47.581C527.758 47.9977 526.832 48 526.832 48C505.853 46.8214 500.878 40.7226 496.195 34.9818C493.292 31.4231 490.502 28.002 484.08 25.9757L437.906 25.9757C454.988 29.0746 460.188 35.436 464.379 40.5625C466.509 43.1681 468.378 45.4547 471.414 46.8317C471.414 46.8317 472.204 47.1813 472.134 47.581C472.061 47.9977 471.135 48 471.135 48C450.156 46.8214 445.181 40.7226 440.498 34.9818C437.595 31.4231 434.805 28.0019 428.383 25.9757L382.207 25.9757C399.289 29.0746 404.49 35.436 408.681 40.5625C410.811 43.1681 412.68 45.4547 415.716 46.8317C415.716 46.8317 416.506 47.1813 416.436 47.581C416.363 47.9977 415.437 48 415.437 48C394.457 46.8214 389.482 40.7226 384.8 34.9818C381.897 31.4231 379.106 28.0019 372.685 25.9757L326.509 25.9757C343.591 29.0746 348.792 35.436 352.983 40.5625C355.113 43.1681 356.982 45.4547 360.018 46.8317C360.018 46.8317 360.808 47.1813 360.738 47.581C360.665 47.9977 359.739 48 359.739 48C338.759 46.8214 333.784 40.7226 329.101 34.9818C326.199 31.4231 323.408 28.0019 316.987 25.9757L270.811 25.9757C287.893 29.0746 293.093 35.436 297.284 40.5625C299.414 43.1681 301.284 45.4547 304.32 46.8317C304.32 46.8317 305.11 47.1813 305.04 47.581C304.966 47.9977 304.04 48 304.04 48C283.061 46.8214 278.086 40.7226 273.403 34.9818C270.5 31.4231 267.71 28.0019 261.288 25.9757L215.113 25.9757C232.196 29.0746 237.396 35.436 241.587 40.5625C243.717 43.1681 245.586 45.4547 248.622 46.8317C248.622 46.8317 249.412 47.1813 249.342 47.581C249.269 47.9977 248.343 48 248.343 48C227.364 46.8214 222.389 40.7226 217.706 34.9818C214.803 31.4231 212.013 28.0019 205.591 25.9757L159.415 25.9757C176.497 29.0746 181.698 35.436 185.889 40.5625C188.019 43.1681 189.888 45.4547 192.924 46.8317C192.924 46.8317 193.714 47.1813 193.644 47.581C193.571 47.9977 192.645 48 192.645 48C171.665 46.8214 166.69 40.7226 162.008 34.9818C159.105 31.4231 156.314 28.0019 149.893 25.9757L103.717 25.9757C120.799 29.0746 126 35.436 130.191 40.5625C132.321 43.1681 134.19 45.4547 137.226 46.8317C137.226 46.8317 138.016 47.1813 137.946 47.581C137.873 47.9977 136.947 48 136.947 48C115.967 46.8214 110.992 40.7226 106.309 34.9818C103.407 31.4231 100.616 28.0019 94.1947 25.9757L43.2745 25.9757C60.3567 29.0746 65.5573 35.436 69.7482 40.5625C71.8783 43.1681 73.7476 45.4547 76.7836 46.8317C76.7836 46.8317 77.5735 47.1813 77.5034 47.581C77.4303 47.9977 76.5042 48 76.5042 48C55.5247 46.8214 50.5499 40.7226 45.8671 34.9818C42.9642 31.4231 40.1736 28.0019 33.7523 25.9757L-12.4227 25.9757C4.65942 29.0746 9.85999 35.436 14.0509 40.5625C16.181 43.1681 18.0504 45.4547 21.0864 46.8317C21.0864 46.8317 21.8763 47.1813 21.8062 47.581C21.733 47.9977 20.8069 48 20.8069 48C-0.172607 46.8214 -5.1474 40.7226 -9.8302 34.9818C-12.733 31.4231 -15.5237 28.0019 -21.945 25.9757L-72.8671 25.9757C-55.7849 29.0745 -50.5844 35.436 -46.3934 40.5625C-44.2633 43.1681 -42.394 45.4547 -39.358 46.8317C-39.358 46.8317 -38.5681 47.1813 -38.6382 47.581C-38.7113 47.9977 -39.6374 48 -39.6374 48C-60.6169 46.8214 -65.5917 40.7226 -70.2745 34.9818C-73.1774 31.4231 -75.968 28.0019 -82.3893 25.9757L-128.565 25.9757C-111.482 29.0745 -106.282 35.436 -102.091 40.5625C-99.9608 43.1681 -98.0914 45.4547 -95.0554 46.8317C-95.0554 46.8317 -94.2655 47.1813 -94.3356 47.581C-94.4088 47.9977 -95.3348 48 -95.3348 48C-116.314 46.8214 -121.289 40.7226 -125.972 34.9818C-128.875 31.4231 -131.665 28.0019 -138.087 25.9757L-189.007 25.9757C-171.925 29.0745 -166.724 35.436 -162.533 40.5625C-160.403 43.1681 -158.534 45.4547 -155.498 46.8317C-155.498 46.8317 -154.708 47.1813 -154.778 47.581C-154.851 47.9977 -155.777 48 -155.777 48C-176.757 46.8214 -181.731 40.7226 -186.414 34.9818C-189.317 31.4231 -192.108 28.0019 -198.529 25.9757L-225.713 25.9756L-225.713 23.8208C-227.547 23.8711 -229.46 23.8971 -231.458 23.8971C-229.37 23.8971 -227.462 23.8313 -225.713 23.7066L-225.713 21.9793L-215.873 21.9793C-209.552 19.9477 -206.781 16.5508 -203.9 13.0183C-199.217 7.27748 -194.242 1.17868 -173.262 6.92992e-05C-173.262 6.92992e-05 -172.336 0.00231998 -172.263 0.419079C-172.193 0.818734 -172.983 1.16838 -172.983 1.16838C-176.019 2.54535 -177.888 4.83193 -180.018 7.43756C-184.189 12.5393 -189.36 18.8642 -206.246 21.9794L-157.677 21.9794C-151.356 19.9477 -148.585 16.5508 -145.703 13.0183C-141.02 7.27748 -136.046 1.17868 -115.066 6.99932e-05C-115.066 6.99932e-05 -114.14 0.00232068 -114.067 0.41908C-113.997 0.818735 -114.787 1.16838 -114.787 1.16838C-117.823 2.54535 -119.692 4.83193 -121.822 7.43756C-125.993 12.5393 -131.164 18.8642 -148.05 21.9794L-101.979 21.9794C-95.6583 19.9477 -92.8874 16.5508 -90.006 13.0183C-85.3232 7.27748 -80.3484 1.17868 -59.3688 7.06573e-05C-59.3688 7.06573e-05 -58.4427 0.00232134 -58.3696 0.419077C-58.2995 0.818731 -59.0894 1.16838 -59.0894 1.16838C-62.1254 2.54535 -63.9948 4.83193 -66.1249 7.43756C-70.2956 12.5393 -75.4662 18.8642 -92.3524 21.9794L-45.7811 21.9794C-39.46 19.9477 -36.6891 16.5508 -33.8077 13.0183C-29.1249 7.27748 -24.1501 1.17868 -3.17059 7.13275e-05C-3.17059 7.13275e-05 -2.24451 0.00232201 -2.17139 0.419078C-2.10126 0.818732 -2.89117 1.16838 -2.89117 1.16838C-5.92718 2.54536 -7.79651 4.83193 -9.92664 7.43756C-14.0974 12.5393 -19.268 18.8642 -36.1541 21.9794L9.9162 21.9794C16.2374 19.9477 19.0082 16.5507 21.8897 13.0182C26.5725 7.27743 31.5473 1.17864 52.5269 3.003e-05C52.5269 3.003e-05 53.4529 0.00228071 53.5261 0.419036C53.5962 0.818691 52.8063 1.16834 52.8063 1.16834C49.7703 2.54531 47.9009 4.83189 45.7708 7.43752C41.6001 12.5393 36.4294 18.8642 19.5431 21.9794ZM580.033 36.2166C580.033 38.4237 581.822 40.2129 584.029 40.2129C586.236 40.2129 588.025 38.4237 588.025 36.2166C588.025 34.0095 586.236 32.2204 584.029 32.2204C581.822 32.2204 580.033 34.0095 580.033 36.2166ZM524.336 36.2166C524.336 38.4237 526.125 40.2129 528.332 40.2129C530.539 40.2129 532.328 38.4237 532.328 36.2166C532.328 34.0095 530.539 32.2204 528.332 32.2204C526.125 32.2204 524.336 34.0095 524.336 36.2166ZM468.638 36.2166C468.638 38.4237 470.428 40.2129 472.635 40.2129C474.842 40.2129 476.631 38.4237 476.631 36.2166C476.631 34.0095 474.842 32.2204 472.635 32.2204C470.428 32.2204 468.638 34.0095 468.638 36.2166ZM412.939 36.2166C412.939 38.4237 414.728 40.2129 416.935 40.2129C419.142 40.2129 420.932 38.4237 420.932 36.2166C420.932 34.0095 419.142 32.2204 416.935 32.2204C414.728 32.2204 412.939 34.0095 412.939 36.2166ZM357.242 36.2166C357.242 38.4237 359.031 40.2129 361.238 40.2129C363.445 40.2129 365.234 38.4237 365.234 36.2166C365.234 34.0095 363.445 32.2204 361.238 32.2204C359.031 32.2204 357.242 34.0095 357.242 36.2166ZM301.544 36.2166C301.544 38.4237 303.333 40.2129 305.54 40.2129C307.747 40.2129 309.536 38.4237 309.536 36.2166C309.536 34.0095 307.747 32.2203 305.54 32.2203C303.333 32.2203 301.544 34.0095 301.544 36.2166ZM245.845 36.2166C245.845 38.4237 247.635 40.2129 249.842 40.2129C252.049 40.2129 253.838 38.4237 253.838 36.2166C253.838 34.0096 252.049 32.2204 249.842 32.2204C247.635 32.2204 245.845 34.0096 245.845 36.2166ZM194.144 40.2129C191.937 40.2129 190.148 38.4237 190.148 36.2166C190.148 34.0095 191.937 32.2204 194.144 32.2204C196.351 32.2204 198.141 34.0095 198.141 36.2166C198.141 38.4237 196.351 40.2129 194.144 40.2129ZM74.0064 36.2166C74.0064 38.4237 75.7957 40.2129 78.0027 40.2129C80.2098 40.2129 81.999 38.4237 81.999 36.2166C81.999 34.0095 80.2098 32.2203 78.0027 32.2203C75.7957 32.2203 74.0064 34.0095 74.0064 36.2166ZM-38.1377 40.2129C-40.3447 40.2129 -42.134 38.4237 -42.134 36.2166C-42.134 34.0095 -40.3447 32.2203 -38.1377 32.2203C-35.9306 32.2203 -34.1414 34.0095 -34.1414 36.2166C-34.1414 38.4237 -35.9306 40.2129 -38.1377 40.2129ZM-158.276 36.2166C-158.276 38.4237 -156.487 40.2129 -154.279 40.2129C-152.072 40.2129 -150.283 38.4237 -150.283 36.2166C-150.283 34.0096 -152.072 32.2204 -154.279 32.2204C-156.487 32.2204 -158.276 34.0095 -158.276 36.2166ZM134.45 36.2166C134.45 38.4237 136.239 40.2129 138.446 40.2129C140.653 40.2129 142.442 38.4237 142.442 36.2166C142.442 34.0095 140.653 32.2203 138.446 32.2203C136.239 32.2203 134.45 34.0095 134.45 36.2166ZM22.3045 40.2129C20.0975 40.2129 18.3082 38.4237 18.3082 36.2166C18.3082 34.0095 20.0975 32.2204 22.3045 32.2204C24.5116 32.2204 26.3008 34.0095 26.3008 36.2166C26.3008 38.4237 24.5116 40.2129 22.3045 40.2129ZM-97.8314 36.2166C-97.8314 38.4237 -96.0422 40.2129 -93.8351 40.2129C-91.6281 40.2129 -89.8389 38.4237 -89.8389 36.2166C-89.8389 34.0095 -91.6281 32.2204 -93.8351 32.2204C-96.0422 32.2204 -97.8314 34.0095 -97.8314 36.2166ZM551.81 11.7834C551.81 9.57635 553.599 7.78716 555.806 7.78716C558.014 7.78716 559.803 9.57635 559.803 11.7834C559.803 13.9905 558.014 15.7797 555.806 15.7797C553.599 15.7797 551.81 13.9905 551.81 11.7834ZM496.111 11.7834C496.111 9.57635 497.9 7.78716 500.107 7.78716C502.314 7.78716 504.104 9.57635 504.104 11.7834C504.104 13.9905 502.314 15.7797 500.107 15.7797C497.9 15.7797 496.111 13.9905 496.111 11.7834ZM440.414 11.7834C440.414 9.57633 442.203 7.78715 444.41 7.78715C446.617 7.78715 448.406 9.57633 448.406 11.7834C448.406 13.9905 446.617 15.7797 444.41 15.7797C442.203 15.7797 440.414 13.9905 440.414 11.7834ZM384.715 11.7834C384.715 9.57635 386.505 7.78716 388.712 7.78716C390.919 7.78716 392.708 9.57635 392.708 11.7834C392.708 13.9905 390.919 15.7797 388.712 15.7797C386.505 15.7797 384.715 13.9905 384.715 11.7834ZM329.018 11.7834C329.018 9.57635 330.807 7.78716 333.014 7.78716C335.222 7.78716 337.011 9.57635 337.011 11.7834C337.011 13.9905 335.222 15.7797 333.014 15.7797C330.807 15.7797 329.018 13.9905 329.018 11.7834ZM273.32 11.7834C273.32 9.57633 275.109 7.78715 277.316 7.78715C279.523 7.78715 281.313 9.57633 281.313 11.7834C281.313 13.9905 279.523 15.7797 277.316 15.7797C275.109 15.7797 273.32 13.9905 273.32 11.7834ZM217.622 11.7834C217.622 9.57635 219.411 7.78716 221.618 7.78716C223.825 7.78716 225.614 9.57635 225.614 11.7834C225.614 13.9905 223.825 15.7797 221.618 15.7797C219.411 15.7797 217.622 13.9905 217.622 11.7834ZM161.924 11.7834C161.924 9.57635 163.714 7.78716 165.921 7.78716C168.128 7.78716 169.917 9.57635 169.917 11.7834C169.917 13.9905 168.128 15.7797 165.921 15.7797C163.714 15.7797 161.924 13.9905 161.924 11.7834ZM54.0251 7.78714C51.8181 7.78714 50.0288 9.57633 50.0288 11.7834C50.0288 13.9905 51.8181 15.7797 54.0251 15.7797C56.2322 15.7797 58.0214 13.9905 58.0214 11.7834C58.0214 9.57633 56.2322 7.78714 54.0251 7.78714ZM-61.8655 11.7834C-61.8655 9.57633 -60.0763 7.78714 -57.8693 7.78714C-55.6622 7.78714 -53.873 9.57633 -53.873 11.7834C-53.873 13.9905 -55.6622 15.7797 -57.8693 15.7797C-60.0763 15.7797 -61.8655 13.9905 -61.8655 11.7834ZM110.223 7.78714C108.015 7.78714 106.226 9.57633 106.226 11.7834C106.226 13.9905 108.015 15.7797 110.223 15.7797C112.43 15.7797 114.219 13.9905 114.219 11.7834C114.219 9.57633 112.43 7.78714 110.223 7.78714ZM-5.66931 11.7834C-5.66931 9.57635 -3.88007 7.78717 -1.67303 7.78717C0.534058 7.78717 2.32324 9.57635 2.32324 11.7834C2.32324 13.9905 0.534058 15.7797 -1.67303 15.7797C-3.88007 15.7797 -5.66931 13.9905 -5.66931 11.7834ZM-113.568 7.78716C-115.775 7.78716 -117.564 9.57635 -117.564 11.7834C-117.564 13.9905 -115.775 15.7797 -113.568 15.7797C-111.36 15.7797 -109.571 13.9905 -109.571 11.7834C-109.571 9.57635 -111.36 7.78716 -113.568 7.78716ZM-175.76 11.7834C-175.76 9.57633 -173.971 7.78715 -171.764 7.78715C-169.557 7.78715 -167.767 9.57633 -167.767 11.7834C-167.767 13.9905 -169.557 15.7797 -171.764 15.7797C-173.971 15.7797 -175.76 13.9905 -175.76 11.7834Z" fill="url(#paint0_linear_427_2037)" style="mix-blend-mode:screen"/>
<defs>
<linearGradient id="paint0_linear_427_2037" x1="-231.708" y1="27.8798" x2="176.784" y2="-401.335" gradientUnits="userSpaceOnUse">
<stop stop-color="#FABB00" stop-opacity="0.8"/>
<stop offset="0.317708" stop-color="#FABB00" stop-opacity="0.24"/>
<stop offset="0.416667" stop-color="#FABB00" stop-opacity="0.8"/>
<stop offset="0.526042" stop-color="#FABB00" stop-opacity="0.14"/>
<stop offset="0.6875" stop-color="#FABB00" stop-opacity="0.54"/>
<stop offset="1" stop-color="#FABB00" stop-opacity="0.24"/>
</linearGradient>
</defs>
</svg>
