<svg width="368" height="400" viewBox="0 0 368 400" fill="none" xmlns="http://www.w3.org/2000/svg">
<path d="M91.7968 258.762C91.8256 258.147 91.8592 254.734 89.4592 252.2C87.8656 250.52 85.6384 249.67 82.8448 249.67C75.4912 249.67 73.2112 257.408 73.0288 261.507L72.1936 282.781L91.6336 277.496L91.792 258.757L91.7968 258.762Z" fill="#EFEBE6"/>
<path d="M39.9856 277.688C40.0192 277.184 40.0624 275.206 38.6224 273.522C37.4608 272.163 35.7328 271.41 33.4816 271.28C31.672 271.179 30.064 271.712 28.84 272.835C26.512 274.962 26.32 278.442 26.3056 278.941L25.432 297.973L39.5104 291.694L39.9856 277.683V277.688Z" fill="#EFEBE6"/>
<path d="M64.2208 284.173V282.819L65.0848 267.704C65.224 266.835 65.6752 262.966 63.3376 260.187C62.3392 259.002 60.4384 257.59 57.016 257.59C49.552 257.59 47.2384 264.949 47.0512 268.832L46.0432 290.307L62.8768 284.624L64.2208 284.168V284.173Z" fill="#EFEBE6"/>
<path d="M247.552 296H268.427V277.357L247.552 275.71V296Z" fill="#EFEBE6"/>
<path d="M119.507 251.922C119.574 251.24 119.747 247.952 117.438 245.336C115.59 243.238 112.739 242.178 108.966 242.173C100.398 242.173 98.1328 250.438 98.1328 254.806V276.622L118.725 272.888L119.507 251.922Z" fill="#EFEBE6"/>
<path d="M215.09 301.17C215.09 297.238 212.488 289.808 202.643 289.808C192.798 289.808 190.197 297.238 190.197 301.17V325.203H215.094V301.17H215.09Z" fill="#EFEBE6"/>
<path d="M308.877 283.674L288.611 279.637V297.43L308.877 299.85V283.674Z" fill="#EFEBE6"/>
<path d="M232.202 334.635H213.136V358.962H232.202V334.635Z" fill="#EFEBE6"/>
<path d="M184.029 0.416016L0.323242 295.227L184.029 399.776L367.734 295.227L184.029 0.416016ZM337.562 272.437L332.066 270.814L212.608 184.026L214.84 180.901L334.83 268.078L337.562 272.437ZM184.029 200.955L159.971 167.514L184.029 180.651L208.086 167.514L184.029 200.955ZM185.949 213.714V271.981H182.109V213.714C182.742 213.8 183.381 213.848 184.034 213.848C184.686 213.848 185.32 213.8 185.949 213.714ZM153.222 180.896L155.454 184.021L126.774 204.858L125.037 201.373L153.222 180.896ZM116.766 184.76L115.034 181.285L146.253 171.142L148.418 174.171L148.509 174.445L116.766 184.76ZM160.11 190.539L162.462 193.832L140.325 224.302L138.995 219.603L160.11 190.539ZM168.539 202.342L171.314 206.23L155.176 255.891L151.12 255.949L168.539 202.342ZM158.061 161.053L184.029 121.083L209.997 161.053L184.029 175.237L158.061 161.053ZM199.518 202.347L215.032 250.098H210.995L196.744 206.235L199.518 202.347ZM205.595 193.842L207.947 190.549L252.174 251.422L247.043 250.894L205.595 193.842ZM290.613 197.542L219.467 174.426L221.81 171.147L287.435 192.469L290.613 197.538V197.542ZM268.845 162.814H224.978C225.04 161.528 224.925 160.237 224.632 158.974H266.435L268.845 162.814ZM254.546 140L220.533 151.05L218.378 147.714L252.443 136.645L254.546 140ZM242.502 120.786L214.25 141.31L212.166 138.08L240.462 117.522L242.507 120.786H242.502ZM230.018 100.866L207.846 131.384L205.614 127.923L227.819 97.3568L230.018 100.866ZM211.25 70.9232L213.909 75.1664L199.73 118.803L197.042 114.642L211.245 70.9232H211.25ZM182.118 30.6272L184.038 27.5072L185.958 30.5696V106.539C185.325 106.453 184.686 106.405 184.038 106.405C183.39 106.405 182.752 106.453 182.118 106.539V30.6224V30.6272ZM156.99 71.4368L171.026 114.637L168.342 118.798L154.346 75.728L156.99 71.4368ZM140.675 97.9376L162.458 127.918L160.226 131.379L138.496 101.47L140.675 97.9328V97.9376ZM128.306 118.026L155.906 138.075L153.822 141.306L126.29 121.304L128.31 118.026H128.306ZM116.642 136.971L149.69 147.709L147.534 151.045L114.568 140.331L116.642 136.966V136.971ZM103.096 158.97H143.435C143.142 160.232 143.027 161.523 143.09 162.81H100.734L103.101 158.97H103.096ZM59.9776 210.709C67.696 204.603 85.624 191.25 99.3424 187.472C108.846 203.062 113.411 215.067 115.197 220.458C95.56 223.822 64.5712 234.21 33.1552 253.755L59.9728 210.709H59.9776ZM8.61764 293.13L25.696 265.726C61.5856 240.915 98.4304 228.728 119.243 225.805L125.594 224.696C126.352 224.562 127.13 224.85 127.619 225.445C127.965 225.867 128.133 226.405 128.09 226.952L127.24 237.378C126.726 243.661 127.451 249.882 129.395 255.858L134.186 270.637L150.683 269.442C153.011 269.269 155.229 270.387 156.472 272.36C157.379 273.8 157.854 275.461 157.854 277.165V284.245C134.594 283.798 70.1296 290.389 32.6272 306.805L8.60805 293.13H8.61764ZM107.502 349.424L93.8368 341.643L114.026 339.656L113.872 315.018C113.92 314.23 114.093 309.766 111.328 306.762C109.686 304.971 107.411 304.064 104.565 304.064C100.389 304.064 97.0576 305.312 94.6672 307.774C90.9808 311.566 90.9568 316.885 90.9712 317.571L90.5584 339.786L79.048 333.238L79.3744 318.565C79.4704 317.739 79.744 313.832 77.392 311.173C76.4608 310.122 74.7328 308.869 71.7904 308.869H71.7424C63.232 309.085 60.9808 317.067 60.9808 321.258V322.947L39.136 310.51C59.6512 302.317 85.6816 297.368 104.637 294.594C126.914 291.334 147.347 289.966 157.864 290.168V297.469L167.224 331.246L177.222 332.11C184.974 332.778 191.363 338.557 192.755 346.155L192.971 347.35C179.824 347.13 134.282 346.592 107.512 349.424V349.434L107.502 349.424ZM184.024 392.965L181.067 391.28L180.947 375.699C181.058 374.643 181.499 368.624 177.765 364.4C175.398 361.726 171.947 360.373 167.498 360.373C163.048 360.373 159.587 361.726 157.197 364.4C153.405 368.643 153.808 374.701 153.904 375.699V375.824L116.531 354.555C144.232 352.525 183.914 353.086 194.042 353.274L199.677 384.046H199.682L184.019 392.965H184.024ZM198.592 345.085C196.72 334.87 188.142 327.109 177.722 326.211L171.851 325.702L163.802 296.662V286.731L226.331 284.461L230.565 312.752L253.672 353.312L205.149 380.926L198.587 345.085H198.592ZM280.629 310.654C269.747 310.654 266.872 320.038 266.872 325.006V345.819L258.846 350.384L236.296 310.808L231.438 278.37L221.358 278.734V265.064C237.366 265.179 314.848 267.195 356.656 294.709L294.376 330.152V325.002H294.381C294.381 320.043 291.506 310.654 280.624 310.654H280.629Z" fill="#EFEBE6"/>
<path d="M147.76 302.12C145.432 299.998 142.408 299.082 138.77 299.394C128.853 300.234 126.011 309.272 125.896 313.938V338.557L152.253 337.266V313.429C152.253 313.136 152.205 306.166 147.76 302.12Z" fill="#EFEBE6"/>
</svg>
