<svg width="425" height="110" viewBox="0 0 425 110" fill="none" xmlns="http://www.w3.org/2000/svg">
<path d="M0 67.8873V0H15.1003V67.8873H0ZM11.5417 67.8873V54.8099H48.7635V67.8873H11.5417ZM11.5417 39.5208V26.9242H45.3972V39.5208H11.5417ZM11.5417 12.9813V0H48.2826V12.9813H11.5417Z" fill="#F8FCFC"/>
<path d="M73.7464 67.8873V0.961576H88.8468V67.8873H73.7464ZM52.4905 13.1736V0H110.103V13.1736H52.4905Z" fill="#F8FCFC"/>
<path d="M118.535 67.8873V0H133.635V67.8873H118.535ZM160.566 67.8873V0H175.762V67.8873H160.566ZM127.576 39.5208V26.4434H165.567V39.5208H127.576Z" fill="#F8FCFC"/>
<path d="M195.717 38.5592V31.8282H214.376C218.48 31.8282 221.622 30.7705 223.802 28.655C226.046 26.5395 227.168 23.7189 227.168 20.1931C227.168 16.7955 226.078 14.007 223.898 11.8274C221.718 9.58372 218.576 8.46188 214.472 8.46188H195.717V1.44236H214.568C218.8 1.44236 222.455 2.24368 225.533 3.84631C228.675 5.44894 231.079 7.66056 232.746 10.4812C234.478 13.2377 235.343 16.4109 235.343 20.0008C235.343 23.7189 234.478 26.9883 232.746 29.8089C231.079 32.5654 228.675 34.7129 225.533 36.2515C222.455 37.79 218.8 38.5592 214.568 38.5592H195.717ZM190.427 67.8873V1.44236H198.506V67.8873H190.427ZM229.669 67.8873L205.143 37.5977L212.837 35.0976L239.864 67.8873H229.669Z" fill="#F8FCFC"/>
<path d="M267.329 68.8489C262.905 68.8489 258.898 67.7912 255.307 65.6757C251.78 63.5602 248.959 60.7076 246.843 57.1177C244.791 53.5278 243.765 49.4892 243.765 45.0018C243.765 40.5786 244.791 36.604 246.843 33.0783C248.959 29.5525 251.78 26.7318 255.307 24.6164C258.898 22.5009 262.905 21.4432 267.329 21.4432C271.754 21.4432 275.761 22.5009 279.352 24.6164C282.943 26.6677 285.764 29.4884 287.816 33.0783C289.932 36.604 290.99 40.5786 290.99 45.0018C290.99 49.4892 289.932 53.5278 287.816 57.1177C285.764 60.7076 282.943 63.5602 279.352 65.6757C275.761 67.7912 271.754 68.8489 267.329 68.8489ZM267.329 61.4448C270.407 61.4448 273.132 60.7396 275.505 59.3293C277.877 57.919 279.737 55.9638 281.083 53.4637C282.43 50.9636 283.103 48.143 283.103 45.0018C283.103 41.9248 282.398 39.1682 280.987 36.7323C279.641 34.2963 277.781 32.4052 275.409 31.0589C273.1 29.6486 270.407 28.9435 267.329 28.9435C264.38 28.9435 261.687 29.6486 259.25 31.0589C256.878 32.4052 255.018 34.2963 253.672 36.7323C252.325 39.1682 251.652 41.9248 251.652 45.0018C251.652 48.143 252.325 50.9636 253.672 53.4637C255.018 55.9638 256.878 57.919 259.25 59.3293C261.687 60.7396 264.38 61.4448 267.329 61.4448Z" fill="#F8FCFC"/>
<path d="M301.222 67.8873V22.4047H309.012V67.8873H301.222ZM332.288 67.8873V40.1939C332.288 36.6681 331.198 33.8796 329.018 31.8282C326.838 29.7127 324.113 28.655 320.843 28.655C318.598 28.655 316.579 29.1358 314.783 30.0974C313.052 31.0589 311.641 32.4051 310.551 34.136C309.525 35.8027 309.012 37.822 309.012 40.1939L305.646 38.6554C305.646 35.1937 306.383 32.1808 307.858 29.6166C309.397 27.0524 311.481 25.0651 314.11 23.6548C316.739 22.1804 319.688 21.4432 322.959 21.4432C326.165 21.4432 329.05 22.1483 331.615 23.5586C334.18 24.969 336.199 26.9562 337.674 29.5204C339.213 32.0846 339.982 35.1617 339.982 38.7516V67.8873H332.288ZM363.258 67.8873V40.1939C363.258 36.6681 362.168 33.8796 359.988 31.8282C357.808 29.7127 355.083 28.655 351.813 28.655C349.633 28.655 347.645 29.1358 345.85 30.0974C344.054 31.0589 342.611 32.4051 341.521 34.136C340.495 35.8027 339.982 37.822 339.982 40.1939L335.462 38.6554C335.654 35.1937 336.584 32.1808 338.251 29.6166C339.918 27.0524 342.098 25.0651 344.792 23.6548C347.485 22.1804 350.434 21.4432 353.64 21.4432C356.91 21.4432 359.828 22.1483 362.393 23.5586C365.022 24.969 367.105 26.9883 368.644 29.6166C370.183 32.1808 370.953 35.2258 370.953 38.7516V67.8873H363.258Z" fill="#F8FCFC"/>
<path d="M404.189 68.8489C399.636 68.8489 395.533 67.8232 391.878 65.7719C388.287 63.7205 385.434 60.8999 383.318 57.31C381.266 53.7201 380.24 49.6494 380.24 45.098C380.24 40.6106 381.266 36.604 383.318 33.0783C385.37 29.4884 388.159 26.6677 391.686 24.6164C395.212 22.5009 399.188 21.4432 403.612 21.4432C407.78 21.4432 411.467 22.4047 414.673 24.3279C417.879 26.2511 420.379 28.8794 422.175 32.2128C424.034 35.5463 424.964 39.3606 424.964 43.6556C424.964 44.2325 424.932 44.8736 424.868 45.5788C424.804 46.2839 424.676 47.0852 424.483 47.9827H385.626V41.5401H420.347L417.558 43.9441C417.558 40.8029 416.981 38.1105 415.827 35.8668C414.737 33.559 413.134 31.7641 411.018 30.482C408.902 29.1999 406.369 28.5588 403.42 28.5588C400.278 28.5588 397.521 29.264 395.148 30.6743C392.84 32.0205 391.044 33.9116 389.762 36.3476C388.48 38.7195 387.838 41.5722 387.838 44.9057C387.838 48.2391 388.512 51.1559 389.858 53.656C391.205 56.1561 393.128 58.1113 395.629 59.5216C398.13 60.9319 401.015 61.6371 404.285 61.6371C406.914 61.6371 409.319 61.1563 411.499 60.1947C413.743 59.2332 415.667 57.8228 417.27 55.9638L422.175 60.964C420.059 63.5282 417.43 65.4834 414.288 66.8296C411.146 68.1758 407.78 68.8489 404.189 68.8489Z" fill="#F8FCFC"/>
<path d="M0 104.327V85.4905H2.58272V104.327H0ZM12.3091 104.327V85.4905H14.8919V104.327H12.3091ZM1.75845 95.7503V93.4161H12.9411V95.7503H1.75845Z" fill="#FABB00"/>
<path d="M24.5099 104.599C23.3193 104.599 22.2386 104.309 21.2677 103.73C20.2969 103.133 19.5276 102.328 18.9598 101.314C18.4103 100.301 18.1355 99.1612 18.1355 97.8946C18.1355 96.6279 18.4103 95.4879 18.9598 94.4746C19.5276 93.4613 20.2878 92.6561 21.2403 92.059C22.2111 91.4618 23.301 91.1633 24.5099 91.1633C25.499 91.1633 26.3782 91.3714 27.1476 91.7875C27.9352 92.1856 28.5671 92.7466 29.0434 93.4704C29.5196 94.1761 29.7852 94.9994 29.8402 95.9403V99.8217C29.7852 100.744 29.5196 101.568 29.0434 102.292C28.5855 103.015 27.9627 103.585 27.175 104.002C26.4057 104.4 25.5173 104.599 24.5099 104.599ZM24.922 102.292C26.1493 102.292 27.1384 101.884 27.8894 101.07C28.6404 100.238 29.0159 99.1793 29.0159 97.8946C29.0159 97.0079 28.8419 96.2389 28.4939 95.5875C28.1642 94.918 27.6879 94.4023 27.0651 94.0404C26.4424 93.6604 25.7188 93.4704 24.8945 93.4704C24.0703 93.4704 23.3376 93.6604 22.6965 94.0404C22.0737 94.4203 21.5791 94.9451 21.2128 95.6146C20.8648 96.266 20.6908 97.017 20.6908 97.8674C20.6908 98.736 20.8648 99.505 21.2128 100.175C21.5791 100.826 22.0829 101.342 22.724 101.722C23.3651 102.102 24.0977 102.292 24.922 102.292ZM28.8511 104.327V100.853L29.3181 97.7046L28.8511 94.5832V91.4347H31.3514V104.327H28.8511Z" fill="#FABB00"/>
<path d="M40.9138 104.599C39.6316 104.599 38.4684 104.3 37.4244 103.703C36.3986 103.106 35.5835 102.301 34.979 101.287C34.3929 100.256 34.0998 99.116 34.0998 97.8674C34.0998 96.6008 34.3929 95.4608 34.979 94.4475C35.5835 93.4342 36.3986 92.638 37.4244 92.059C38.4684 91.4618 39.6316 91.1633 40.9138 91.1633C41.9212 91.1633 42.8554 91.3533 43.7163 91.7333C44.5772 92.0952 45.3191 92.629 45.9418 93.3347L44.2933 94.9632C43.8903 94.4927 43.3958 94.1399 42.8096 93.9046C42.2418 93.6513 41.6098 93.5247 40.9138 93.5247C40.0895 93.5247 39.3568 93.7146 38.7157 94.0946C38.0746 94.4565 37.5709 94.9632 37.2045 95.6146C36.8382 96.266 36.655 97.017 36.655 97.8674C36.655 98.7179 36.8382 99.4688 37.2045 100.12C37.5709 100.772 38.0746 101.287 38.7157 101.667C39.3568 102.047 40.0895 102.237 40.9138 102.237C41.6098 102.237 42.2418 102.12 42.8096 101.884C43.3958 101.631 43.8995 101.269 44.3208 100.799L45.9418 102.427C45.3374 103.115 44.5955 103.649 43.7163 104.029C42.8554 104.409 41.9212 104.599 40.9138 104.599Z" fill="#FABB00"/>
<path d="M57.6536 104.707L50.6473 97.7317L57.5162 91.0276L59.1373 92.6018L53.0377 98.4645L53.1476 96.8903L59.4395 103.079L57.6536 104.707ZM48.3943 104.327V84.9477H50.8671V104.327H48.3943Z" fill="#FABB00"/>
<path d="M61.8376 104.327V91.4347H64.3105V104.327H61.8376ZM63.0741 88.8562C62.6161 88.8562 62.2406 88.7114 61.9476 88.4219C61.6545 88.1143 61.5079 87.7343 61.5079 87.2819C61.5079 86.8477 61.6545 86.4858 61.9476 86.1962C62.2406 85.8886 62.6161 85.7348 63.0741 85.7348C63.532 85.7348 63.9075 85.8886 64.2006 86.1962C64.4936 86.4858 64.6402 86.8477 64.6402 87.2819C64.6402 87.7343 64.4936 88.1143 64.2006 88.4219C63.9075 88.7114 63.532 88.8562 63.0741 88.8562Z" fill="#FABB00"/>
<path d="M67.6249 104.327V96.9174C67.6249 95.7775 67.8631 94.7822 68.3393 93.9318C68.8339 93.0632 69.5025 92.3847 70.345 91.8961C71.206 91.4076 72.2134 91.1633 73.3674 91.1633C74.5214 91.1633 75.5197 91.4076 76.3622 91.8961C77.2232 92.3666 77.8917 93.0361 78.368 93.9046C78.8442 94.7732 79.0823 95.7775 79.0823 96.9174V104.327H76.6095V97.1074C76.6095 96.0398 76.3256 95.1713 75.7578 94.5018C75.2083 93.8323 74.4115 93.4975 73.3674 93.4975C72.3233 93.4975 71.5173 93.8323 70.9495 94.5018C70.3817 95.1713 70.0978 96.0398 70.0978 97.1074V104.327H67.6249Z" fill="#FABB00"/>
<path d="M87.171 110C86.0536 110 85.037 109.792 84.1211 109.376C83.2236 108.96 82.5092 108.39 81.978 107.666C81.4468 106.942 81.1812 106.092 81.1812 105.114C81.1812 104.391 81.2911 103.784 81.5109 103.296C81.7308 102.807 82.0605 102.364 82.5001 101.966L84.4509 103.269C84.2127 103.486 84.0296 103.739 83.9013 104.029C83.7914 104.3 83.7365 104.635 83.7365 105.033C83.7365 105.829 84.0479 106.462 84.6707 106.933C85.2934 107.403 86.1269 107.639 87.171 107.639C88.27 107.639 89.1309 107.376 89.7537 106.852C90.3765 106.345 90.6879 105.63 90.6879 104.707C90.6879 104.11 90.5413 103.576 90.2482 103.106C89.9552 102.635 89.5522 102.264 89.0393 101.993C88.5264 101.704 87.9403 101.559 87.2809 101.559C86.2917 101.559 85.3942 101.342 84.5882 100.907C83.8006 100.455 83.1686 99.8398 82.6924 99.0617C82.2345 98.2655 82.0055 97.3789 82.0055 96.4017C82.0055 95.3884 82.2436 94.4927 82.7199 93.7146C83.1961 92.9366 83.8372 92.3213 84.6432 91.869C85.4491 91.3985 86.3558 91.1633 87.3633 91.1633C88.3707 91.1633 89.2774 91.3895 90.0834 91.8418C90.8893 92.2761 91.5213 92.8732 91.9792 93.6332C92.4555 94.3751 92.6936 95.2256 92.6936 96.1846C92.6936 97.1074 92.4646 97.9398 92.0067 98.6817C91.5488 99.4236 90.926 100.012 90.1383 100.446C89.369 100.862 88.4898 101.07 87.5007 101.07L87.3358 99.7402C88.4898 99.7402 89.5064 99.9574 90.3856 100.392C91.2648 100.826 91.9609 101.432 92.4738 102.21C92.9867 102.97 93.2431 103.848 93.2431 104.843C93.2431 105.856 92.9867 106.752 92.4738 107.53C91.9792 108.308 91.2832 108.914 90.3856 109.349C89.4881 109.783 88.4165 110 87.171 110ZM87.3633 99.2788C87.9494 99.2788 88.4623 99.1521 88.9019 98.8988C89.3415 98.6455 89.6896 98.3017 89.946 97.8674C90.2024 97.4331 90.3307 96.9355 90.3307 96.3746C90.3307 95.8136 90.2024 95.316 89.946 94.8818C89.6896 94.4475 89.3415 94.1127 88.9019 93.8775C88.4623 93.6242 87.9494 93.4975 87.3633 93.4975C86.7771 93.4975 86.2551 93.6242 85.7972 93.8775C85.3575 94.1127 85.0095 94.4475 84.7531 94.8818C84.515 95.316 84.3959 95.8136 84.3959 96.3746C84.3959 96.9355 84.515 97.4331 84.7531 97.8674C85.0095 98.3017 85.3667 98.6455 85.8246 98.8988C86.2826 99.1521 86.7954 99.2788 87.3633 99.2788ZM91.045 94.3118L89.5339 92.7918L92.5837 89.7519L94.0948 91.2718L91.045 94.3118Z" fill="#FABB00"/>
<path d="M111.209 104.327V96.8089C111.209 95.8317 110.898 95.0265 110.275 94.3932C109.652 93.7599 108.846 93.4432 107.857 93.4432C107.198 93.4432 106.612 93.588 106.099 93.8775C105.586 94.167 105.183 94.5651 104.89 95.0718C104.597 95.5784 104.45 96.1575 104.45 96.8089L103.434 96.2389C103.434 95.2618 103.653 94.3932 104.093 93.6332C104.533 92.8732 105.146 92.2761 105.934 91.8418C106.722 91.3895 107.61 91.1633 108.599 91.1633C109.588 91.1633 110.458 91.3804 111.209 91.8147C111.979 92.249 112.583 92.8551 113.023 93.6332C113.462 94.4113 113.682 95.307 113.682 96.3203V104.327H111.209ZM101.977 104.327V84.9477H104.45V104.327H101.977Z" fill="#FABB00"/>
<path d="M117.057 104.327V91.4347H119.53V104.327H117.057ZM118.294 88.8562C117.836 88.8562 117.46 88.7114 117.167 88.4219C116.874 88.1143 116.728 87.7343 116.728 87.2819C116.728 86.8477 116.874 86.4858 117.167 86.1962C117.46 85.8886 117.836 85.7348 118.294 85.7348C118.752 85.7348 119.127 85.8886 119.42 86.1962C119.713 86.4858 119.86 86.8477 119.86 87.2819C119.86 87.7343 119.713 88.1143 119.42 88.4219C119.127 88.7114 118.752 88.8562 118.294 88.8562Z" fill="#FABB00"/>
<path d="M127.323 104.599C126.591 104.599 125.895 104.508 125.235 104.327C124.594 104.128 123.999 103.857 123.449 103.513C122.9 103.151 122.424 102.726 122.021 102.237L123.614 100.663C124.09 101.242 124.64 101.676 125.263 101.966C125.885 102.237 126.582 102.373 127.351 102.373C128.12 102.373 128.715 102.246 129.137 101.993C129.558 101.722 129.769 101.351 129.769 100.88C129.769 100.41 129.595 100.048 129.247 99.7945C128.917 99.5231 128.486 99.306 127.955 99.1431C127.424 98.9622 126.856 98.7903 126.252 98.6274C125.666 98.4465 125.107 98.2203 124.576 97.9488C124.045 97.6774 123.605 97.3065 123.257 96.836C122.927 96.3655 122.762 95.7413 122.762 94.9632C122.762 94.1851 122.955 93.5156 123.339 92.9547C123.724 92.3756 124.255 91.9323 124.933 91.6247C125.629 91.3171 126.462 91.1633 127.433 91.1633C128.459 91.1633 129.366 91.3442 130.153 91.7061C130.959 92.0499 131.619 92.5747 132.132 93.2804L130.538 94.8546C130.172 94.3842 129.714 94.0223 129.164 93.7689C128.633 93.5156 128.029 93.3889 127.351 93.3889C126.636 93.3889 126.087 93.5156 125.702 93.7689C125.336 94.0042 125.153 94.3389 125.153 94.7732C125.153 95.2075 125.318 95.5422 125.647 95.7775C125.977 96.0127 126.407 96.2117 126.939 96.3746C127.488 96.5374 128.056 96.7093 128.642 96.8903C129.228 97.0531 129.787 97.2793 130.318 97.5689C130.849 97.8584 131.28 98.2474 131.61 98.736C131.958 99.2245 132.132 99.8669 132.132 100.663C132.132 101.875 131.692 102.834 130.813 103.54C129.952 104.246 128.789 104.599 127.323 104.599Z" fill="#FABB00"/>
<path d="M141.192 104.599C140.404 104.599 139.681 104.436 139.021 104.11C138.38 103.766 137.867 103.278 137.483 102.644C137.098 101.993 136.906 101.197 136.906 100.256V86.0334H139.379V100.202C139.379 100.907 139.562 101.441 139.928 101.803C140.313 102.147 140.789 102.319 141.357 102.319C141.76 102.319 142.117 102.246 142.428 102.102C142.758 101.957 143.051 101.749 143.308 101.477L144.819 102.97C144.361 103.513 143.848 103.92 143.28 104.192C142.731 104.463 142.035 104.599 141.192 104.599ZM133.691 93.7146V91.4347H144.242V93.7146H133.691Z" fill="#FABB00"/>
<path d="M152.749 104.599C151.467 104.599 150.313 104.3 149.287 103.703C148.261 103.106 147.446 102.301 146.841 101.287C146.237 100.256 145.935 99.1069 145.935 97.8403C145.935 96.5917 146.237 95.4698 146.841 94.4746C147.446 93.4613 148.261 92.6561 149.287 92.059C150.313 91.4618 151.467 91.1633 152.749 91.1633C154.013 91.1633 155.157 91.4618 156.183 92.059C157.227 92.638 158.052 93.4342 158.656 94.4475C159.26 95.4608 159.563 96.5917 159.563 97.8403C159.563 99.1069 159.26 100.256 158.656 101.287C158.052 102.301 157.227 103.106 156.183 103.703C155.157 104.3 154.013 104.599 152.749 104.599ZM152.749 102.237C153.573 102.237 154.306 102.047 154.947 101.667C155.588 101.287 156.092 100.772 156.458 100.12C156.824 99.4507 157.007 98.6907 157.007 97.8403C157.007 97.0079 156.815 96.266 156.43 95.6146C156.064 94.9632 155.56 94.4565 154.919 94.0946C154.297 93.7146 153.573 93.5247 152.749 93.5247C151.924 93.5247 151.192 93.7146 150.551 94.0946C149.91 94.4565 149.406 94.9632 149.039 95.6146C148.673 96.266 148.49 97.0079 148.49 97.8403C148.49 98.6907 148.673 99.4507 149.039 100.12C149.406 100.772 149.91 101.287 150.551 101.667C151.192 102.047 151.924 102.237 152.749 102.237Z" fill="#FABB00"/>
<path d="M162.349 104.327V91.4347H164.822V104.327H162.349ZM164.822 96.9717L163.888 96.5646C163.888 94.918 164.272 93.6061 165.042 92.629C165.811 91.6518 166.919 91.1633 168.366 91.1633C169.026 91.1633 169.621 91.2809 170.152 91.5161C170.683 91.7333 171.178 92.1042 171.636 92.629L170.015 94.2846C169.74 93.9951 169.438 93.787 169.108 93.6604C168.778 93.5337 168.394 93.4704 167.954 93.4704C167.038 93.4704 166.287 93.7599 165.701 94.3389C165.115 94.918 164.822 95.7956 164.822 96.9717Z" fill="#FABB00"/>
<path d="M177.422 104.436L171.762 91.4347H174.509L178.713 101.613H177.834L182.257 91.4347H185.005L178.905 104.436H177.422ZM173.685 109.729L177.531 101.939L178.905 104.436L176.432 109.729H173.685Z" fill="#FABB00"/>
<path d="M185.508 107.313L187.212 104.083L188.091 103.866C187.999 104.065 187.88 104.228 187.734 104.354C187.605 104.481 187.44 104.544 187.239 104.544C186.854 104.544 186.497 104.391 186.167 104.083C185.856 103.757 185.7 103.359 185.7 102.889C185.7 102.364 185.874 101.93 186.222 101.586C186.57 101.224 187.01 101.043 187.541 101.043C188.017 101.043 188.439 101.224 188.805 101.586C189.171 101.93 189.355 102.364 189.355 102.889C189.355 103.088 189.309 103.332 189.217 103.622C189.144 103.893 188.988 104.246 188.75 104.68L186.937 108.073L185.508 107.313Z" fill="#FABB00"/>
<path d="M202.801 104.599C202.069 104.599 201.372 104.508 200.713 104.327C200.072 104.128 199.477 103.857 198.927 103.513C198.378 103.151 197.901 102.726 197.498 102.237L199.092 100.663C199.568 101.242 200.118 101.676 200.741 101.966C201.363 102.237 202.059 102.373 202.829 102.373C203.598 102.373 204.193 102.246 204.615 101.993C205.036 101.722 205.247 101.351 205.247 100.88C205.247 100.41 205.073 100.048 204.725 99.7945C204.395 99.5231 203.964 99.306 203.433 99.1431C202.902 98.9622 202.334 98.7903 201.73 98.6274C201.144 98.4465 200.585 98.2203 200.054 97.9488C199.522 97.6774 199.083 97.3065 198.735 96.836C198.405 96.3655 198.24 95.7413 198.24 94.9632C198.24 94.1851 198.433 93.5156 198.817 92.9547C199.202 92.3756 199.733 91.9323 200.411 91.6247C201.107 91.3171 201.94 91.1633 202.911 91.1633C203.937 91.1633 204.844 91.3442 205.631 91.7061C206.437 92.0499 207.097 92.5747 207.609 93.2804L206.016 94.8546C205.65 94.3842 205.192 94.0223 204.642 93.7689C204.111 93.5156 203.506 93.3889 202.829 93.3889C202.114 93.3889 201.565 93.5156 201.18 93.7689C200.814 94.0042 200.631 94.3389 200.631 94.7732C200.631 95.2075 200.795 95.5422 201.125 95.7775C201.455 96.0127 201.885 96.2117 202.417 96.3746C202.966 96.5374 203.534 96.7093 204.12 96.8903C204.706 97.0531 205.265 97.2793 205.796 97.5689C206.327 97.8584 206.758 98.2474 207.087 98.736C207.435 99.2245 207.609 99.8669 207.609 100.663C207.609 101.875 207.17 102.834 206.291 103.54C205.43 104.246 204.267 104.599 202.801 104.599Z" fill="#FABB00"/>
<path d="M219.61 104.327V96.8089C219.61 95.8317 219.298 95.0265 218.676 94.3932C218.053 93.7599 217.247 93.4432 216.258 93.4432C215.598 93.4432 215.012 93.588 214.499 93.8775C213.986 94.167 213.583 94.5651 213.29 95.0718C212.997 95.5784 212.851 96.1575 212.851 96.8089L211.834 96.2389C211.834 95.2618 212.054 94.3932 212.493 93.6332C212.933 92.8732 213.547 92.2761 214.334 91.8418C215.122 91.3895 216.01 91.1633 217 91.1633C217.989 91.1633 218.859 91.3804 219.61 91.8147C220.379 92.249 220.984 92.8551 221.423 93.6332C221.863 94.4113 222.083 95.307 222.083 96.3203V104.327H219.61ZM210.378 104.327V84.9477H212.851V104.327H210.378Z" fill="#FABB00"/>
<path d="M230.981 104.599C229.79 104.599 228.709 104.309 227.738 103.73C226.768 103.133 225.998 102.328 225.43 101.314C224.881 100.301 224.606 99.1612 224.606 97.8946C224.606 96.6279 224.881 95.4879 225.43 94.4746C225.998 93.4613 226.758 92.6561 227.711 92.059C228.682 91.4618 229.772 91.1633 230.981 91.1633C231.97 91.1633 232.849 91.3714 233.618 91.7875C234.406 92.1856 235.038 92.7466 235.514 93.4704C235.99 94.1761 236.256 94.9994 236.311 95.9403V99.8217C236.256 100.744 235.99 101.568 235.514 102.292C235.056 103.015 234.433 103.585 233.646 104.002C232.876 104.4 231.988 104.599 230.981 104.599ZM231.393 102.292C232.62 102.292 233.609 101.884 234.36 101.07C235.111 100.238 235.487 99.1793 235.487 97.8946C235.487 97.0079 235.313 96.2389 234.965 95.5875C234.635 94.918 234.159 94.4023 233.536 94.0404C232.913 93.6604 232.19 93.4704 231.365 93.4704C230.541 93.4704 229.808 93.6604 229.167 94.0404C228.544 94.4203 228.05 94.9451 227.684 95.6146C227.335 96.266 227.161 97.017 227.161 97.8674C227.161 98.736 227.335 99.505 227.684 100.175C228.05 100.826 228.554 101.342 229.195 101.722C229.836 102.102 230.568 102.292 231.393 102.292ZM235.322 104.327V100.853L235.789 97.7046L235.322 94.5832V91.4347H237.822V104.327H235.322Z" fill="#FABB00"/>
<path d="M248.291 104.599C247.302 104.599 246.405 104.4 245.599 104.002C244.811 103.585 244.179 103.015 243.703 102.292C243.227 101.568 242.961 100.744 242.906 99.8217V95.9403C242.961 94.9994 243.227 94.1761 243.703 93.4704C244.197 92.7466 244.838 92.1856 245.626 91.7875C246.432 91.3714 247.32 91.1633 248.291 91.1633C249.482 91.1633 250.553 91.4618 251.506 92.059C252.477 92.6561 253.237 93.4613 253.786 94.4746C254.336 95.4879 254.611 96.6279 254.611 97.8946C254.611 99.1612 254.336 100.301 253.786 101.314C253.237 102.328 252.477 103.133 251.506 103.73C250.553 104.309 249.482 104.599 248.291 104.599ZM247.879 102.292C248.703 102.292 249.427 102.102 250.05 101.722C250.672 101.342 251.167 100.826 251.533 100.175C251.9 99.505 252.083 98.736 252.083 97.8674C252.083 97.017 251.9 96.257 251.533 95.5875C251.167 94.918 250.672 94.4023 250.05 94.0404C249.427 93.6604 248.712 93.4704 247.907 93.4704C247.082 93.4704 246.359 93.6604 245.736 94.0404C245.113 94.4023 244.628 94.918 244.28 95.5875C243.932 96.257 243.758 97.026 243.758 97.8946C243.758 98.745 243.923 99.505 244.252 100.175C244.6 100.826 245.086 101.342 245.708 101.722C246.35 102.102 247.073 102.292 247.879 102.292ZM241.422 109.729V91.4347H243.895V94.8275L243.428 97.9488L243.895 101.097V109.729H241.422Z" fill="#FABB00"/>
<path d="M257.441 104.327V91.4347H259.914V104.327H257.441ZM258.678 88.8562C258.22 88.8562 257.844 88.7114 257.551 88.4219C257.258 88.1143 257.112 87.7343 257.112 87.2819C257.112 86.8477 257.258 86.4858 257.551 86.1962C257.844 85.8886 258.22 85.7348 258.678 85.7348C259.136 85.7348 259.511 85.8886 259.804 86.1962C260.098 86.4858 260.244 86.8477 260.244 87.2819C260.244 87.7343 260.098 88.1143 259.804 88.4219C259.511 88.7114 259.136 88.8562 258.678 88.8562Z" fill="#FABB00"/>
<path d="M263.229 104.327V96.9174C263.229 95.7775 263.467 94.7822 263.943 93.9318C264.438 93.0632 265.106 92.3847 265.949 91.8961C266.81 91.4076 267.817 91.1633 268.971 91.1633C270.125 91.1633 271.123 91.4076 271.966 91.8961C272.827 92.3666 273.496 93.0361 273.972 93.9046C274.448 94.7732 274.686 95.7775 274.686 96.9174V104.327H272.213V97.1074C272.213 96.0398 271.929 95.1713 271.362 94.5018C270.812 93.8323 270.015 93.4975 268.971 93.4975C267.927 93.4975 267.121 93.8323 266.553 94.5018C265.986 95.1713 265.702 96.0398 265.702 97.1074V104.327H263.229Z" fill="#FABB00"/>
<path d="M282.775 110C281.657 110 280.641 109.792 279.725 109.376C278.827 108.96 278.113 108.39 277.582 107.666C277.051 106.942 276.785 106.092 276.785 105.114C276.785 104.391 276.895 103.784 277.115 103.296C277.335 102.807 277.664 102.364 278.104 101.966L280.055 103.269C279.817 103.486 279.633 103.739 279.505 104.029C279.395 104.3 279.34 104.635 279.34 105.033C279.34 105.829 279.652 106.462 280.275 106.933C280.897 107.403 281.731 107.639 282.775 107.639C283.874 107.639 284.735 107.376 285.358 106.852C285.98 106.345 286.292 105.63 286.292 104.707C286.292 104.11 286.145 103.576 285.852 103.106C285.559 102.635 285.156 102.264 284.643 101.993C284.13 101.704 283.544 101.559 282.885 101.559C281.896 101.559 280.998 101.342 280.192 100.907C279.404 100.455 278.772 99.8398 278.296 99.0617C277.838 98.2655 277.609 97.3789 277.609 96.4017C277.609 95.3884 277.847 94.4927 278.324 93.7146C278.8 92.9366 279.441 92.3213 280.247 91.869C281.053 91.3985 281.96 91.1633 282.967 91.1633C283.975 91.1633 284.881 91.3895 285.687 91.8418C286.493 92.2761 287.125 92.8732 287.583 93.6332C288.059 94.3751 288.297 95.2256 288.297 96.1846C288.297 97.1074 288.068 97.9398 287.611 98.6817C287.153 99.4236 286.53 100.012 285.742 100.446C284.973 100.862 284.094 101.07 283.104 101.07L282.94 99.7402C284.094 99.7402 285.11 99.9574 285.989 100.392C286.869 100.826 287.565 101.432 288.078 102.21C288.59 102.97 288.847 103.848 288.847 104.843C288.847 105.856 288.59 106.752 288.078 107.53C287.583 108.308 286.887 108.914 285.989 109.349C285.092 109.783 284.02 110 282.775 110ZM282.967 99.2788C283.553 99.2788 284.066 99.1521 284.506 98.8988C284.945 98.6455 285.293 98.3017 285.55 97.8674C285.806 97.4331 285.934 96.9355 285.934 96.3746C285.934 95.8136 285.806 95.316 285.55 94.8818C285.293 94.4475 284.945 94.1127 284.506 93.8775C284.066 93.6242 283.553 93.4975 282.967 93.4975C282.381 93.4975 281.859 93.6242 281.401 93.8775C280.961 94.1127 280.613 94.4475 280.357 94.8818C280.119 95.316 280 95.8136 280 96.3746C280 96.9355 280.119 97.4331 280.357 97.8674C280.613 98.3017 280.971 98.6455 281.428 98.8988C281.886 99.1521 282.399 99.2788 282.967 99.2788ZM286.649 94.3118L285.138 92.7918L288.188 89.7519L289.699 91.2718L286.649 94.3118Z" fill="#FABB00"/>
<path d="M303.873 104.599C303.086 104.599 302.362 104.436 301.703 104.11C301.061 103.766 300.549 103.278 300.164 102.644C299.779 101.993 299.587 101.197 299.587 100.256V86.0334H302.06V100.202C302.06 100.907 302.243 101.441 302.609 101.803C302.994 102.147 303.47 102.319 304.038 102.319C304.441 102.319 304.798 102.246 305.11 102.102C305.439 101.957 305.732 101.749 305.989 101.477L307.5 102.97C307.042 103.513 306.529 103.92 305.961 104.192C305.412 104.463 304.716 104.599 303.873 104.599ZM296.372 93.7146V91.4347H306.923V93.7146H296.372Z" fill="#FABB00"/>
<path d="M319.183 104.327V96.8089C319.183 95.8317 318.871 95.0265 318.248 94.3932C317.626 93.7599 316.82 93.4432 315.831 93.4432C315.171 93.4432 314.585 93.588 314.072 93.8775C313.559 94.167 313.156 94.5651 312.863 95.0718C312.57 95.5784 312.424 96.1575 312.424 96.8089L311.407 96.2389C311.407 95.2618 311.627 94.3932 312.066 93.6332C312.506 92.8732 313.12 92.2761 313.907 91.8418C314.695 91.3895 315.583 91.1633 316.572 91.1633C317.561 91.1633 318.432 91.3804 319.183 91.8147C319.952 92.249 320.556 92.8551 320.996 93.6332C321.436 94.4113 321.655 95.307 321.655 96.3203V104.327H319.183ZM309.951 104.327V84.9477H312.424V104.327H309.951Z" fill="#FABB00"/>
<path d="M331.13 104.599C329.775 104.599 328.566 104.3 327.504 103.703C326.46 103.106 325.635 102.301 325.031 101.287C324.445 100.256 324.152 99.1069 324.152 97.8403C324.152 96.5917 324.454 95.4698 325.058 94.4746C325.663 93.4613 326.478 92.6561 327.504 92.059C328.548 91.4618 329.72 91.1633 331.021 91.1633C332.284 91.1633 333.365 91.4347 334.263 91.9775C335.179 92.5023 335.92 93.2532 336.488 94.2303L328.465 102.156L327.009 100.717L334.4 93.4432L334.427 95.2075C334.098 94.6465 333.667 94.2123 333.136 93.9046C332.605 93.5789 331.909 93.4161 331.048 93.4161C330.169 93.4161 329.39 93.6061 328.713 93.9861C328.053 94.3661 327.531 94.8908 327.146 95.5603C326.78 96.2298 326.597 96.9898 326.597 97.8403C326.597 98.7088 326.78 99.4869 327.146 100.175C327.531 100.844 328.062 101.369 328.74 101.749C329.418 102.111 330.205 102.292 331.103 102.292C331.891 102.292 332.587 102.174 333.191 101.939C333.814 101.685 334.345 101.324 334.785 100.853L336.351 102.427C335.728 103.151 334.968 103.694 334.07 104.056C333.191 104.418 332.211 104.599 331.13 104.599Z" fill="#FABB00"/>
<path d="M346.593 104.327V89.5076C346.593 88.5486 346.804 87.7162 347.225 87.0105C347.646 86.2867 348.223 85.7167 348.956 85.3005C349.707 84.8844 350.577 84.6763 351.566 84.6763C352.317 84.6763 352.967 84.8029 353.517 85.0563C354.066 85.3096 354.57 85.6805 355.028 86.1691L353.407 87.7433C353.169 87.49 352.903 87.3 352.61 87.1734C352.317 87.0286 351.96 86.9562 351.539 86.9562C350.751 86.9562 350.137 87.1824 349.698 87.6348C349.277 88.0871 349.066 88.7114 349.066 89.5076V104.327H346.593ZM343.378 93.6604V91.4347H353.215V93.6604H343.378Z" fill="#FABB00"/>
<path d="M360.947 104.599C359.884 104.599 358.923 104.363 358.062 103.893C357.219 103.404 356.56 102.735 356.084 101.884C355.607 101.034 355.369 100.048 355.369 98.926V91.4347H357.842V98.8174C357.842 99.5231 357.961 100.138 358.199 100.663C358.456 101.17 358.822 101.559 359.298 101.83C359.774 102.102 360.333 102.237 360.974 102.237C361.945 102.237 362.705 101.939 363.255 101.342C363.804 100.726 364.079 99.885 364.079 98.8174V91.4347H366.552V98.926C366.552 100.048 366.314 101.034 365.837 101.884C365.361 102.735 364.702 103.404 363.859 103.893C363.035 104.363 362.064 104.599 360.947 104.599Z" fill="#FABB00"/>
<path d="M376.158 104.599C375.37 104.599 374.647 104.436 373.987 104.11C373.346 103.766 372.833 103.278 372.449 102.644C372.064 101.993 371.872 101.197 371.872 100.256V86.0334H374.345V100.202C374.345 100.907 374.528 101.441 374.894 101.803C375.279 102.147 375.755 102.319 376.323 102.319C376.726 102.319 377.083 102.246 377.394 102.102C377.724 101.957 378.017 101.749 378.274 101.477L379.785 102.97C379.327 103.513 378.814 103.92 378.246 104.192C377.697 104.463 377.001 104.599 376.158 104.599ZM368.657 93.7146V91.4347H379.208V93.7146H368.657Z" fill="#FABB00"/>
<path d="M387.483 104.599C386.421 104.599 385.459 104.363 384.598 103.893C383.756 103.404 383.096 102.735 382.62 101.884C382.144 101.034 381.906 100.048 381.906 98.926V91.4347H384.379V98.8174C384.379 99.5231 384.498 100.138 384.736 100.663C384.992 101.17 385.359 101.559 385.835 101.83C386.311 102.102 386.87 102.237 387.511 102.237C388.482 102.237 389.242 101.939 389.791 101.342C390.341 100.726 390.616 99.885 390.616 98.8174V91.4347H393.089V98.926C393.089 100.048 392.85 101.034 392.374 101.884C391.898 102.735 391.238 103.404 390.396 103.893C389.572 104.363 388.601 104.599 387.483 104.599Z" fill="#FABB00"/>
<path d="M396.403 104.327V91.4347H398.876V104.327H396.403ZM398.876 96.9717L397.941 96.5646C397.941 94.918 398.326 93.6061 399.095 92.629C399.865 91.6518 400.973 91.1633 402.42 91.1633C403.079 91.1633 403.675 91.2809 404.206 91.5161C404.737 91.7333 405.232 92.1042 405.69 92.629L404.069 94.2846C403.794 93.9951 403.492 93.787 403.162 93.6604C402.832 93.5337 402.447 93.4704 402.008 93.4704C401.092 93.4704 400.341 93.7599 399.755 94.3389C399.169 94.918 398.876 95.7956 398.876 96.9717Z" fill="#FABB00"/>
<path d="M413.128 104.599C411.773 104.599 410.564 104.3 409.502 103.703C408.458 103.106 407.633 102.301 407.029 101.287C406.443 100.256 406.15 99.1069 406.15 97.8403C406.15 96.5917 406.452 95.4698 407.056 94.4746C407.661 93.4613 408.476 92.6561 409.502 92.059C410.546 91.4618 411.718 91.1633 413.019 91.1633C414.282 91.1633 415.363 91.4347 416.261 91.9775C417.177 92.5023 417.918 93.2532 418.486 94.2303L410.463 102.156L409.007 100.717L416.398 93.4432L416.426 95.2075C416.096 94.6465 415.665 94.2123 415.134 93.9046C414.603 93.5789 413.907 93.4161 413.046 93.4161C412.167 93.4161 411.388 93.6061 410.711 93.9861C410.051 94.3661 409.529 94.8908 409.144 95.5603C408.778 96.2298 408.595 96.9898 408.595 97.8403C408.595 98.7088 408.778 99.4869 409.144 100.175C409.529 100.844 410.06 101.369 410.738 101.749C411.416 102.111 412.203 102.292 413.101 102.292C413.889 102.292 414.585 102.174 415.189 101.939C415.812 101.685 416.343 101.324 416.783 100.853L418.349 102.427C417.726 103.151 416.966 103.694 416.068 104.056C415.189 104.418 414.209 104.599 413.128 104.599Z" fill="#FABB00"/>
<path d="M423.178 104.599C422.665 104.599 422.235 104.427 421.887 104.083C421.557 103.721 421.392 103.296 421.392 102.807C421.392 102.301 421.557 101.884 421.887 101.559C422.235 101.215 422.665 101.043 423.178 101.043C423.691 101.043 424.112 101.215 424.442 101.559C424.79 101.884 424.964 102.301 424.964 102.807C424.964 103.296 424.79 103.721 424.442 104.083C424.112 104.427 423.691 104.599 423.178 104.599Z" fill="#FABB00"/>
</svg>
