<svg width="209" height="63" viewBox="0 0 209 63" fill="none" xmlns="http://www.w3.org/2000/svg">
<path d="M52.3942 39.1386V62.6554H45.1555V59.2097C43.6905 61.7079 41.2776 62.9139 38.003 62.9139C35.3316 62.9139 33.091 62.0524 31.4537 60.2434C29.8164 58.4345 28.9547 56.0225 28.9547 52.9214V39.1386H36.1072V51.8876C36.1072 53.4382 36.538 54.5581 37.3136 55.4195C38.0892 56.2809 39.2094 56.6255 40.5882 56.6255C41.967 56.6255 43.0873 56.1948 43.8629 55.4195C44.6384 54.6442 45.0693 53.4382 45.0693 51.8876V39.1386H52.3942Z" fill="white"/>
<path d="M63.5968 39.1386V43.5318C65.3203 40.4307 67.5609 38.8802 70.3185 38.8802V46.2022H68.5088C66.8715 46.2022 65.5789 46.633 64.8033 47.4082C63.9415 48.1835 63.5968 49.5618 63.5968 51.5431V62.6554H56.3582V39.1386H63.5968Z" fill="white"/>
<path d="M81.5212 42.2397C83.1585 40 85.399 38.8802 88.4151 38.8802C91.4312 38.8802 93.9303 40 95.9985 42.2397C98.0667 44.4794 99.1008 47.4082 99.1008 50.9401C99.1008 54.4719 98.0667 57.3146 95.9985 59.5543C93.9303 61.794 91.4312 62.9139 88.4151 62.9139C85.4852 62.9139 83.1585 61.7079 81.435 59.2097V62.6554H74.1963V31.4719H81.435V42.2397H81.5212ZM90.2248 55.2472C91.2589 54.2135 91.7759 52.8352 91.7759 50.9401C91.7759 49.0449 91.2589 47.6667 90.2248 46.633C89.1907 45.5993 87.9843 45.0824 86.6055 45.0824C85.2267 45.0824 84.0202 45.5993 82.9861 46.5468C81.952 47.5805 81.435 48.9588 81.435 50.8539C81.435 52.7491 81.952 54.1273 82.9861 55.1611C84.0202 56.1948 85.2267 56.7116 86.6055 56.7116C87.9843 56.7116 89.1907 56.1948 90.2248 55.2472Z" fill="white"/>
<path d="M113.75 63C110.303 63 107.546 61.8802 105.305 59.7266C103.151 57.4869 102.031 54.5581 102.031 50.9401C102.031 47.3221 103.151 44.3933 105.305 42.2397C107.46 40.0861 110.303 38.9663 113.75 38.9663C117.197 38.9663 120.041 40 122.368 42.1536C124.608 44.3071 125.815 47.236 125.815 51.0262C125.815 51.8015 125.729 52.5768 125.643 53.2659H109.442C109.614 54.2996 110.045 55.1611 110.821 55.8502C111.596 56.5393 112.458 56.8839 113.406 56.8839C114.354 56.8839 115.043 56.7978 115.474 56.6255C115.905 56.4532 116.25 56.2809 116.508 56.1086C116.68 55.9363 117.025 55.5918 117.37 55.1611H125.212C124.522 57.4869 123.23 59.4682 121.161 60.8464C118.921 62.2247 116.508 63 113.75 63ZM116.853 46.03C115.991 45.3408 115.043 44.9963 113.837 44.9963C112.63 44.9963 111.682 45.3408 110.907 46.03C110.131 46.7191 109.614 47.5805 109.442 48.7004H118.232C118.145 47.6667 117.628 46.7191 116.853 46.03Z" fill="white"/>
<path d="M136.587 58.6929C136.587 59.8127 136.242 60.7603 135.466 61.5356C134.691 62.3109 133.743 62.6554 132.623 62.6554C131.502 62.6554 130.554 62.3109 129.779 61.5356C129.003 60.7603 128.659 59.8127 128.659 58.6929C128.659 57.573 129.003 56.6255 129.779 55.8502C130.554 55.0749 131.502 54.7303 132.623 54.7303C133.743 54.7303 134.691 55.0749 135.466 55.8502C136.242 56.7116 136.587 57.573 136.587 58.6929Z" fill="white"/>
<path d="M151.236 63C147.789 63 145.032 61.8802 142.791 59.7266C140.637 57.4869 139.517 54.5581 139.517 50.9401C139.517 47.3221 140.637 44.3933 142.791 42.2397C144.946 40.0861 147.789 38.9663 151.236 38.9663C154.683 38.9663 157.527 40 159.854 42.1536C162.094 44.3071 163.301 47.236 163.301 51.0262C163.301 51.8015 163.215 52.5768 163.128 53.2659H146.928C147.1 54.2996 147.531 55.1611 148.306 55.8502C149.082 56.5393 149.944 56.8839 150.892 56.8839C151.84 56.8839 152.529 56.7978 152.96 56.6255C153.391 56.4532 153.735 56.2809 153.994 56.1086C154.166 55.9363 154.511 55.5918 154.856 55.1611H162.698C162.008 57.4869 160.629 59.4682 158.647 60.8464C156.493 62.2247 154.08 63 151.236 63ZM154.339 46.03C153.477 45.3408 152.529 44.9963 151.323 44.9963C150.202 44.9963 149.168 45.3408 148.393 46.03C147.617 46.7191 147.1 47.5805 146.928 48.7004H155.717C155.631 47.6667 155.2 46.7191 154.339 46.03Z" fill="white"/>
<path d="M177.95 56.5393H180.536V62.6554H176.83C174.159 62.6554 172.177 62.0524 170.712 60.9326C169.247 59.8127 168.557 57.7453 168.557 54.9026V45.0824H166.403V39.0524H168.557V33.2809H175.796V39.0524H180.536V45.0824H175.796V54.9026C175.71 56.0225 176.486 56.5393 177.95 56.5393Z" fill="white"/>
<path d="M191.825 31.4719V42.5843C193.29 40.0861 195.703 38.8802 198.977 38.8802C201.649 38.8802 203.889 39.7416 205.526 41.5506C207.164 43.3596 208.025 45.7715 208.025 48.8727V62.6554H200.873V49.9064C200.873 48.3558 200.442 47.236 199.667 46.3745C198.891 45.5131 197.771 45.1685 196.392 45.1685C195.013 45.1685 193.893 45.5993 193.117 46.3745C192.342 47.236 191.911 48.3558 191.911 49.9064V62.6554H184.672V31.4719H191.825Z" fill="white"/>
<path d="M6.72162 31.4719L13.9603 25.5281L7.06632 17L6.72162 31.4719Z" fill="white"/>
<path d="M24.9045 61.6217L23.4395 62.6554L17.0626 59.4682L14.305 50.5094L4.48108 45.427H8.35894L0 41.809L8.01424 37.588L2.49906 38.2772L15.5976 27.5955L24.9045 39.1386V56.7978H22.0607L21.4575 57.7453L24.3874 61.191H24.9906V61.6217H24.9045ZM21.9745 44.5655L18.6999 40.3446L13.8741 39.397L16.6317 42.3258L19.0446 42.0674L21.9745 44.5655Z" fill="white"/>
<path d="M52.4774 19V5.392H54.713V19H52.4774ZM61.1282 19V5.392H63.3638V19H61.1282ZM54.0132 12.9736V10.9324H61.6142V12.9736H54.0132ZM72.5767 19.1944C71.6047 19.1944 70.6975 19.013 69.8551 18.6501C69.0127 18.2872 68.274 17.7882 67.639 17.1532C67.0039 16.5052 66.505 15.76 66.1421 14.9176C65.7922 14.0622 65.6172 13.1486 65.6172 12.1766C65.6172 11.2046 65.7922 10.2974 66.1421 9.45496C66.505 8.61256 66.9975 7.87384 67.6195 7.2388C68.2546 6.5908 68.9868 6.09184 69.8163 5.74192C70.6587 5.37904 71.5659 5.1976 72.5379 5.1976C73.5099 5.1976 74.4106 5.37904 75.24 5.74192C76.0824 6.09184 76.8211 6.5908 77.4562 7.2388C78.0912 7.87384 78.5837 8.61904 78.9336 9.4744C79.2965 10.3168 79.4779 11.224 79.4779 12.196C79.4779 13.168 79.2965 14.0817 78.9336 14.937C78.5837 15.7794 78.0912 16.5182 77.4562 17.1532C76.8341 17.7882 76.1019 18.2872 75.2595 18.6501C74.43 19.013 73.5358 19.1944 72.5767 19.1944ZM72.5379 17.056C73.458 17.056 74.2615 16.8486 74.9484 16.4339C75.6483 16.0192 76.1926 15.449 76.5814 14.7232C76.9831 13.9845 77.184 13.1356 77.184 12.1766C77.184 11.4638 77.0674 10.8158 76.8341 10.2326C76.6138 9.6364 76.2963 9.12448 75.8815 8.6968C75.4668 8.25616 74.9743 7.9192 74.4041 7.68592C73.8468 7.45264 73.2247 7.336 72.5379 7.336C71.6307 7.336 70.8271 7.54336 70.1273 7.95808C69.4404 8.35984 68.8961 8.9236 68.4943 9.64936C68.1055 10.3751 67.9111 11.2175 67.9111 12.1766C67.9111 12.8894 68.0213 13.5503 68.2416 14.1594C68.4749 14.7556 68.7924 15.2675 69.1942 15.6952C69.6089 16.1229 70.1014 16.4598 70.6716 16.7061C71.2419 16.9394 71.8639 17.056 72.5379 17.056ZM85.1814 19.1944C84.1058 19.1944 83.1921 19 82.4404 18.6112C81.6887 18.2224 81.0148 17.6522 80.4186 16.9005L81.935 15.3842C82.3108 15.9285 82.7579 16.3562 83.2763 16.6672C83.7947 16.9653 84.4557 17.1143 85.2592 17.1143C86.0109 17.1143 86.607 16.9588 87.0477 16.6478C87.5013 16.3367 87.7281 15.909 87.7281 15.3647C87.7281 14.9111 87.6114 14.5418 87.3782 14.2566C87.1449 13.9715 86.8338 13.7382 86.445 13.5568C86.0692 13.3624 85.648 13.1939 85.1814 13.0514C84.7278 12.8958 84.2678 12.7274 83.8012 12.5459C83.3476 12.3515 82.9264 12.1118 82.5376 11.8266C82.1618 11.5415 81.8572 11.1722 81.6239 10.7186C81.3906 10.265 81.274 9.68824 81.274 8.9884C81.274 8.18488 81.4684 7.50448 81.8572 6.9472C82.259 6.37696 82.7968 5.9428 83.4707 5.64472C84.1446 5.34664 84.8963 5.1976 85.7258 5.1976C86.62 5.1976 87.417 5.37256 88.1169 5.72248C88.8297 6.0724 89.4064 6.51952 89.847 7.06384L88.3307 8.58016C87.9419 8.13952 87.5337 7.81552 87.106 7.60816C86.6913 7.38784 86.2118 7.27768 85.6674 7.27768C84.9935 7.27768 84.4622 7.41376 84.0734 7.68592C83.6975 7.95808 83.5096 8.3404 83.5096 8.83288C83.5096 9.2476 83.6262 9.58456 83.8595 9.84376C84.0928 10.09 84.3974 10.3038 84.7732 10.4853C85.162 10.6538 85.5832 10.8158 86.0368 10.9713C86.5034 11.1268 86.9634 11.3018 87.417 11.4962C87.8836 11.6906 88.3048 11.9433 88.6806 12.2543C89.0694 12.5524 89.3805 12.9412 89.6138 13.4207C89.847 13.9002 89.9637 14.5029 89.9637 15.2286C89.9637 16.4469 89.5295 17.4124 88.6612 18.1252C87.8058 18.838 86.6459 19.1944 85.1814 19.1944ZM95.0257 19V5.7808H97.2613V19H95.0257ZM90.5934 7.4332V5.392H101.694V7.4332H90.5934ZM103.64 19V5.392H105.876V19H103.64ZM105.176 19V16.9588H112.797V19H105.176ZM105.176 13.0319V11.0685H112.136V13.0319H105.176ZM105.176 7.4332V5.392H112.699V7.4332H105.176ZM116.643 19V16.9588H120.22C121.153 16.9588 121.969 16.7579 122.669 16.3562C123.382 15.9544 123.933 15.3971 124.321 14.6843C124.723 13.9586 124.924 13.1226 124.924 12.1766C124.924 11.2434 124.723 10.4205 124.321 9.70768C123.92 8.99488 123.362 8.4376 122.65 8.03584C121.95 7.63408 121.14 7.4332 120.22 7.4332H116.643V5.392H120.278C121.263 5.392 122.177 5.56696 123.019 5.91688C123.861 6.25384 124.594 6.73336 125.216 7.35544C125.851 7.96456 126.343 8.68384 126.693 9.51328C127.043 10.3298 127.218 11.224 127.218 12.196C127.218 13.155 127.043 14.0493 126.693 14.8787C126.343 15.7082 125.857 16.4339 125.235 17.056C124.613 17.6651 123.881 18.1446 123.038 18.4946C122.196 18.8315 121.289 19 120.317 19H116.643ZM115.107 19V5.392H117.342V19H115.107ZM134.925 19V17.056H138.832C139.519 17.056 140.05 16.8422 140.426 16.4145C140.802 15.9868 140.99 15.4943 140.99 14.937C140.99 14.5612 140.906 14.2113 140.737 13.8873C140.569 13.5633 140.322 13.3041 139.998 13.1097C139.674 12.9153 139.286 12.8181 138.832 12.8181H134.925V10.8741H138.502C139.085 10.8741 139.551 10.725 139.901 10.427C140.251 10.1289 140.426 9.68824 140.426 9.10504C140.426 8.52184 140.251 8.0812 139.901 7.78312C139.551 7.48504 139.085 7.336 138.502 7.336H134.925V5.392H138.56C139.48 5.392 140.245 5.56048 140.854 5.89744C141.463 6.2344 141.917 6.66856 142.215 7.19992C142.513 7.73128 142.662 8.30152 142.662 8.91064C142.662 9.62344 142.461 10.252 142.059 10.7963C141.67 11.3406 141.094 11.7813 140.329 12.1182L140.504 11.4184C141.359 11.7683 142.027 12.2608 142.506 12.8958C142.986 13.5309 143.225 14.2761 143.225 15.1314C143.225 15.8313 143.051 16.4728 142.701 17.056C142.364 17.6392 141.858 18.1122 141.184 18.4751C140.523 18.825 139.707 19 138.735 19H134.925ZM133.389 19V5.392H135.624V19H133.389ZM149.113 13.5568L143.806 5.392H146.391L150.532 11.9044H149.327L153.467 5.392H156.014L150.668 13.5568H149.113ZM148.802 19V12.1571H151.037V19H148.802Z" fill="#F8FCFC"/>
</svg>
