<svg width="177" height="336" viewBox="0 0 177 336" fill="none" xmlns="http://www.w3.org/2000/svg">
<g style="mix-blend-mode:color-dodge" opacity="0.32">
<rect x="38.5639" y="49.9307" width="99.8614" height="26.7921" stroke="#FFF200" stroke-width="4.05941"/>
<path d="M35 105V443" stroke="#FFF200" stroke-width="4.05941"/>
<path d="M141 105V443" stroke="#FFF200" stroke-width="4.05941"/>
<path d="M17.4555 26.3861H158.723V38.1584C158.723 44.6601 153.452 49.9307 146.951 49.9307H29.2278C22.7261 49.9307 17.4555 44.6601 17.4555 38.1584V26.3861Z" stroke="#FFF200" stroke-width="4.05941"/>
<rect x="17.4555" y="76.7228" width="141.267" height="26.7921" rx="12.5842" stroke="#FFF200" stroke-width="4.05941"/>
<path d="M98.6436 432V129.494C98.6436 118.129 116.911 118.129 116.911 129.494C116.911 139.237 116.911 424.964 116.911 432" stroke="#FFF200" stroke-width="4.05941"/>
<path d="M59.2676 414.5V129.494C59.2676 118.129 77.5349 118.129 77.5349 129.494C77.5349 139.237 77.5349 407.464 77.5349 414.5" stroke="#FFF200" stroke-width="4.05941"/>
<rect x="2.0297" y="2.0297" width="172.119" height="24.3564" stroke="#FFF200" stroke-width="4.05941"/>
</g>
</svg>
