<svg width="81" height="81" viewBox="0 0 81 81" fill="none" xmlns="http://www.w3.org/2000/svg">
<path fill-rule="evenodd" clip-rule="evenodd" d="M28.3018 31.6418C29.3569 25.8066 34.4622 21.3811 40.6016 21.3811C46.7398 21.3811 51.844 25.8052 52.9004 31.6389L63.665 20.0969L74.6348 30.3274L55.7666 50.5598V79.4631H25.4414V63.385C25.2666 63.4763 25.0329 63.6047 24.749 63.7825C23.9506 64.2824 22.7402 65.1644 21.2734 66.6311L21.2646 66.6399L20.7373 67.177C19.5721 68.3989 18.8463 69.4078 18.416 70.0999C18.1698 70.4958 18.0186 70.7902 17.9365 70.9641C17.8957 71.0507 17.8724 71.1082 17.8623 71.1331C17.8634 71.13 17.8638 71.1264 17.8652 71.1223C17.866 71.1203 17.8664 71.1178 17.8672 71.1155L17.8691 71.1125V71.1106C17.8691 71.1106 17.8693 71.1108 17.8633 71.1086L13.1572 71.1389C13.1524 71.1408 13.1523 71.1418 13.1523 71.1418L13.1533 71.1438L13.1543 71.1467C13.1551 71.1488 13.1572 71.1526 13.1572 71.1526C13.1583 71.1556 13.1583 71.159 13.1592 71.1614L13.1582 71.1584C13.147 71.1316 13.1211 71.0718 13.0781 70.9827C12.9923 70.8046 12.837 70.5061 12.5869 70.1067C12.0871 69.3083 11.2049 68.0977 9.73828 66.6311L9.72852 66.6223C8.26495 65.1435 7.05956 64.2655 6.26855 63.7737C5.87256 63.5275 5.57811 63.3762 5.4043 63.2942C5.31737 63.2532 5.26004 63.23 5.23535 63.22C5.23841 63.2211 5.24201 63.2215 5.24609 63.2229C5.24812 63.2236 5.25065 63.2241 5.25293 63.2249L5.25684 63.2268H5.25879C5.25879 63.2268 5.25912 63.2244 5.26074 63.22L5.23047 58.5149C5.22882 58.5106 5.22754 58.51 5.22754 58.51L5.22559 58.511L5.22168 58.512C5.21956 58.5127 5.21582 58.5149 5.21582 58.5149C5.21305 58.5159 5.21024 58.516 5.20801 58.5168L5.21094 58.5159C5.23788 58.5046 5.29683 58.4786 5.38574 58.4358C5.56384 58.35 5.86291 58.1949 6.2627 57.9446C7.06112 57.4447 8.27163 56.5626 9.73828 55.0959L9.74707 55.0862C11.2258 53.6227 12.1029 52.4172 12.5947 51.6262C12.841 51.2301 12.9922 50.9358 13.0742 50.762L13.1494 50.593C13.1483 50.5961 13.1469 50.5997 13.1455 50.6038C13.1448 50.6058 13.1444 50.6083 13.1436 50.6106L13.1426 50.6145L13.1416 50.6165C13.1416 50.6165 13.1428 50.6167 13.1475 50.6184H17.8633C17.8671 50.617 17.8691 50.6165 17.8691 50.6165V50.6145L17.8672 50.6106C17.8664 50.6083 17.8659 50.6058 17.8652 50.6038C17.8638 50.5997 17.8624 50.5961 17.8613 50.593C17.8713 50.6177 17.8955 50.675 17.9365 50.762C18.0185 50.9358 18.1698 51.2302 18.416 51.6262C18.9078 52.4172 19.7858 53.6226 21.2646 55.0862L21.2822 55.1047L21.8193 55.6311C23.0412 56.7963 24.0501 57.5221 24.7422 57.9524C25.0313 58.1322 25.2679 58.2584 25.4414 58.3469V50.5686L6.48047 30.2366L17.4502 20.0061L28.3018 31.6418ZM30.4414 68.3782V74.4631H50.7666V68.3782H30.4414ZM15.5049 56.1497C14.9089 56.902 14.1748 57.7364 13.2725 58.6301C12.3742 59.5284 11.5371 60.2615 10.7832 60.8567C11.5379 61.454 12.3761 62.1899 13.2734 63.0959L13.8945 63.7346C14.5166 64.3927 15.0465 65.0133 15.498 65.5852C15.9529 65.0104 16.4883 64.3874 17.1182 63.7268L17.7471 63.0862C18.6416 62.1923 19.4763 61.4634 20.2275 60.8704C19.4704 60.2711 18.6292 59.5324 17.7285 58.6223C16.8303 57.7319 16.0988 56.8995 15.5049 56.1497ZM13.5459 30.4827L30.4414 48.5999V63.3782H50.7666V48.5911L67.5684 30.5735L63.9111 27.1633L50.3291 41.7258C49.5037 42.748 48.5209 43.636 47.417 44.3557C47.3823 44.3784 47.3474 44.4008 47.3125 44.4231C47.179 44.5082 47.0441 44.591 46.9072 44.6711C46.8525 44.7032 46.7974 44.7346 46.7422 44.7659C46.612 44.8394 46.4806 44.9107 46.3477 44.9797C46.2822 45.0138 46.2165 45.0474 46.1504 45.0803C46.0796 45.1155 46.009 45.151 45.9375 45.1848C45.8216 45.2397 45.7047 45.2926 45.5869 45.344C45.5079 45.3784 45.4285 45.4118 45.3486 45.4446C45.2278 45.4943 45.1061 45.5421 44.9834 45.5881C44.3753 45.8158 43.7455 45.9987 43.0967 46.1301C43.0476 46.1401 42.9985 46.15 42.9492 46.1594C42.8827 46.1721 42.8159 46.184 42.749 46.1956C42.7107 46.2022 42.6723 46.2088 42.6338 46.2151C42.5592 46.2273 42.4843 46.2384 42.4092 46.2493C42.3828 46.2531 42.3565 46.2573 42.3301 46.261C42.246 46.2726 42.1617 46.2833 42.0771 46.2932C42.0359 46.2981 41.9945 46.3024 41.9531 46.3069C41.9053 46.312 41.8575 46.3169 41.8096 46.3215C41.7404 46.3282 41.6711 46.3346 41.6016 46.3401C41.5402 46.3449 41.4786 46.3488 41.417 46.3528C41.3796 46.3552 41.3422 46.3585 41.3047 46.3606C41.2336 46.3645 41.1623 46.3666 41.0908 46.3694C41.0524 46.3709 41.0141 46.3741 40.9756 46.3752H40.9307C40.8453 46.3775 40.7597 46.3787 40.6738 46.3792L40.6045 46.3811L40.6025 46.3801L40.6016 46.3811C40.4879 46.3811 40.3746 46.3783 40.2617 46.3752C40.2321 46.3744 40.2025 46.3733 40.1729 46.3723C40.0785 46.3691 39.9844 46.3649 39.8906 46.3596C39.8714 46.3585 39.8522 46.3569 39.833 46.3557C39.7468 46.3505 39.6609 46.3451 39.5752 46.3381C39.5259 46.3341 39.4768 46.3291 39.4277 46.3245C39.354 46.3176 39.2804 46.3102 39.207 46.302C39.1826 46.2993 39.1582 46.2971 39.1338 46.2942C38.7948 46.2545 38.46 46.2012 38.1299 46.135C38.1214 46.1333 38.1129 46.1318 38.1045 46.1301C37.4341 45.9942 36.784 45.8032 36.1572 45.5647C36.0983 45.5422 36.0399 45.5187 35.9814 45.4954C35.8329 45.4362 35.6858 45.3744 35.54 45.3098C35.4877 45.2866 35.4358 45.2625 35.3838 45.2385C35.2281 45.1669 35.074 45.0927 34.9219 45.0149C34.8924 44.9998 34.8633 44.9843 34.834 44.969C33.3125 44.176 31.9742 43.0813 30.9004 41.761L17.2031 27.0725L13.5459 30.4827ZM40.6016 26.3811C36.4594 26.3811 33.1016 29.739 33.1016 33.8811C33.1017 35.62 33.6952 37.2194 34.6885 38.4915L34.7002 38.5042L34.7578 38.5754C36.1371 40.2902 38.242 41.3795 40.6025 41.3801C40.6104 41.3801 40.6182 41.3802 40.626 41.3801L41.0117 41.3694C41.085 41.3654 41.1578 41.3578 41.2305 41.3518C43.34 41.1772 45.2012 40.1314 46.458 38.5627C47.4853 37.2795 48.1014 35.6527 48.1016 33.8811C48.1016 29.739 44.7437 26.3811 40.6016 26.3811Z" fill="#EFEBE6" fill-opacity="0.16" style="mix-blend-mode:color-dodge"/>
<path d="M5.20605 58.5178C5.20064 58.5198 5.19531 58.5227 5.19531 58.5227C5.19531 58.5227 5.20126 58.5196 5.20801 58.5168L5.20605 58.5178Z" fill="#EFEBE6" fill-opacity="0.16" style="mix-blend-mode:color-dodge"/>
<path fill-rule="evenodd" clip-rule="evenodd" d="M56.9326 0.761963C57.0146 0.935778 57.1659 1.23022 57.4121 1.62622C57.9039 2.41723 58.7819 3.62262 60.2607 5.08618L60.2783 5.10474L60.8154 5.6311C62.0373 6.79632 63.0462 7.52206 63.7383 7.95239C64.1341 8.19851 64.4286 8.3498 64.6025 8.43188C64.6893 8.47285 64.7467 8.49703 64.7715 8.50708L64.7607 8.50317C64.7587 8.50247 64.7562 8.502 64.7539 8.50122L64.751 8.50024L64.749 8.49927C64.749 8.49927 64.7488 8.49944 64.7471 8.50415L64.7773 13.2102C64.7797 13.2163 64.7803 13.2161 64.7803 13.2161L64.7822 13.2151L64.7969 13.2102C64.77 13.2214 64.7102 13.2473 64.6211 13.2903C64.443 13.3761 64.1448 13.5323 63.7451 13.7825C62.9467 14.2824 61.7363 15.1644 60.2695 16.6311L60.2607 16.6399L59.7334 17.177C58.5682 18.3989 57.8424 19.4078 57.4121 20.0999C57.1659 20.4958 57.0147 20.7902 56.9326 20.9641C56.8918 21.0507 56.8685 21.1082 56.8584 21.1331C56.8595 21.13 56.8599 21.1263 56.8613 21.1223C56.862 21.1203 56.8625 21.1178 56.8633 21.1155L56.8652 21.1125V21.1106C56.8652 21.1106 56.8654 21.1108 56.8594 21.1086L52.1533 21.1389C52.1485 21.1408 52.1484 21.1418 52.1484 21.1418L52.1494 21.1438L52.1504 21.1467C52.1512 21.1488 52.1533 21.1526 52.1533 21.1526C52.1544 21.1556 52.1544 21.159 52.1553 21.1614L52.1543 21.1584C52.1431 21.1316 52.1172 21.0718 52.0742 20.9827C51.9884 20.8046 51.8331 20.5061 51.583 20.1067C51.0832 19.3083 50.201 18.0977 48.7344 16.6311L48.7246 16.6223C47.261 15.1435 46.0557 14.2655 45.2646 13.7737C44.8687 13.5275 44.5742 13.3762 44.4004 13.2942C44.3135 13.2532 44.2561 13.23 44.2314 13.22C44.2345 13.2211 44.2381 13.2215 44.2422 13.2229C44.2442 13.2236 44.2467 13.2241 44.249 13.2249L44.2529 13.2268H44.2549C44.2549 13.2268 44.2552 13.2244 44.2568 13.22L44.2266 8.51489C44.2249 8.51061 44.2236 8.51001 44.2236 8.51001L44.2217 8.51099L44.2178 8.51196C44.2157 8.51273 44.2119 8.51489 44.2119 8.51489C44.2091 8.51591 44.2063 8.51602 44.2041 8.51685L44.207 8.51587C44.234 8.50461 44.2929 8.47864 44.3818 8.43579C44.5599 8.34996 44.859 8.19488 45.2588 7.94458C46.0572 7.44468 47.2677 6.5626 48.7344 5.09595L48.7432 5.08618C50.2219 3.62267 51.099 2.41721 51.5908 1.62622C51.8371 1.23015 51.9883 0.935812 52.0703 0.761963L52.1455 0.593018C52.1444 0.596094 52.143 0.599655 52.1416 0.60376C52.1409 0.605828 52.1405 0.608267 52.1396 0.610596L52.1387 0.614502L52.1377 0.616455C52.1377 0.616455 52.1389 0.616688 52.1436 0.618408H56.8594C56.8632 0.617017 56.8652 0.616455 56.8652 0.616455V0.614502L56.8633 0.610596C56.8625 0.608319 56.862 0.605786 56.8613 0.60376C56.8599 0.599673 56.8585 0.596079 56.8574 0.593018C56.8674 0.617703 56.8916 0.675033 56.9326 0.761963ZM54.501 6.14966C53.905 6.90198 53.1709 7.73639 52.2686 8.63013C51.3703 9.5284 50.5332 10.2615 49.7793 10.8567C50.534 11.454 51.3721 12.1899 52.2695 13.0959L52.8906 13.7346C53.5127 14.3927 54.0426 15.0133 54.4941 15.5852C54.949 15.0104 55.4844 14.3874 56.1143 13.7268L56.7432 13.0862C57.6377 12.1923 58.4724 11.4634 59.2236 10.8704C58.4665 10.2711 57.6253 9.53235 56.7246 8.62231C55.8264 7.73187 55.0949 6.89951 54.501 6.14966Z" fill="#EFEBE6" fill-opacity="0.16" style="mix-blend-mode:color-dodge"/>
<path d="M44.2021 8.51782C44.1967 8.51984 44.1914 8.52271 44.1914 8.52271C44.1914 8.52271 44.1974 8.51965 44.2041 8.51685L44.2021 8.51782Z" fill="#EFEBE6" fill-opacity="0.16" style="mix-blend-mode:color-dodge"/>
</svg>
