<svg width="180" height="233" viewBox="0 0 180 233" fill="none" xmlns="http://www.w3.org/2000/svg">
<g style="mix-blend-mode:color-dodge" opacity="0.12">
<rect x="31.2002" y="56.6" width="119.2" height="22.4" rx="11.2" stroke="#EFEBE6" stroke-width="4"/>
<path d="M44 81V275" stroke="#EFEBE6" stroke-width="4"/>
<path d="M75 81V275" stroke="#EFEBE6" stroke-width="4"/>
<path d="M106 81V275" stroke="#EFEBE6" stroke-width="4"/>
<path d="M137 81V275" stroke="#EFEBE6" stroke-width="4"/>
<path d="M25.5998 36.5998C25.5998 19.3198 49.9998 19.3198 49.9998 36.5998C49.9998 53.8798 33.7331 57.9333 25.5998 57.8C17.9998 58.2 2.7998 53.72 2.7998 32.6C2.7998 11.48 17.9998 3.80004 25.5998 2.60004H90.7998" stroke="#EFEBE6" stroke-width="4"/>
<path d="M155.407 37.0777C155.407 19.5548 131.229 19.5548 131.229 37.0777C131.229 54.6005 147.348 58.711 155.407 58.5759C162.938 58.9815 178 54.4385 178 33.0217C178 11.6048 162.938 3.8169 155.407 2.60004H90.8" stroke="#EFEBE6" stroke-width="4"/>
<path d="M42.7998 25H138M48.52 41H131.054" stroke="#EFEBE6" stroke-width="4"/>
</g>
</svg>
