<svg width="81" height="81" viewBox="0 0 81 81" fill="none" xmlns="http://www.w3.org/2000/svg">
<path fill-rule="evenodd" clip-rule="evenodd" d="M54.2969 8.35107V11.8384H69.0234V26.3511L80.4492 32.9487V49.0259L69.0234 55.6226V69.3052H54.2969V72.4956L40.373 80.5347L26.4492 72.4956V69.3052H11.7305V55.6226L0.304688 49.0259V32.9487L11.7266 26.354V11.8384H26.4492V8.35107L40.373 0.312012L54.2969 8.35107ZM31.4492 69.6089L37.873 73.3169V65.8999L31.4492 62.1919V69.6089ZM42.873 65.8999V73.3169L49.2969 69.6089V62.1919L42.873 65.8999ZM16.7266 26.3511L28.1523 32.9487V49.0259L16.7305 55.6196V64.3052H26.4492V56.4185L40.373 48.3794L54.2969 56.4185V64.3052H64.0234V55.6196L52.6016 49.0259V32.9487L64.0234 26.354V16.8384H54.2969V24.4282L40.373 32.4673L26.4492 24.4282V16.8384H16.7266V26.3511ZM33.9482 57.8618L40.373 61.5698L46.7969 57.8618L40.373 54.1528L33.9482 57.8618ZM5.30469 46.1392L11.7285 49.8472V42.4302L5.30469 38.7222V46.1392ZM16.7285 42.4302V49.8472L23.1523 46.1392V38.7222L16.7285 42.4302ZM57.6016 46.1392L64.0254 49.8472V42.4302L57.6016 38.7222V46.1392ZM69.0254 42.4302V49.8472L75.4492 46.1392V38.7222L69.0254 42.4302ZM7.80371 34.3921L14.2285 38.1001L20.6523 34.3921L14.2285 30.6831L7.80371 34.3921ZM60.1006 34.3921L66.5254 38.1001L72.9492 34.3921L66.5254 30.6831L60.1006 34.3921ZM31.4492 21.5415L37.873 25.2495V17.8325L31.4492 14.1245V21.5415ZM42.873 17.8325V25.2495L49.2969 21.5415V14.1245L42.873 17.8325ZM33.9482 9.79443L40.373 13.5024L46.7969 9.79443L40.373 6.08545L33.9482 9.79443Z" fill="#EFEBE6" fill-opacity="0.16" style="mix-blend-mode:color-dodge"/>
</svg>
