<?xml version="1.0" encoding="utf-8"?>
<!-- Generator: Adobe Illustrator 27.0.0, SVG Export Plug-In . SVG Version: 6.00 Build 0)  -->
<svg version="1.1" id="Livello_1" xmlns="http://www.w3.org/2000/svg" xmlns:xlink="http://www.w3.org/1999/xlink" x="0px" y="0px"
	 viewBox="0 0 175 11" style="enable-background:new 0 0 175 11;" xml:space="preserve">
<style type="text/css">
	.st0{fill:#301320;}
</style>
<path class="st0" d="M174.8,1.7H0V0.2h174.8V1.7z M1.5,9.3H0V2.9h1.5V9.3z M3.8,7.4H2.7V2.9h1.1V7.4z M6.5,9.3H5V2.9h1.5V9.3z
	 M6.5,9.3H5V2.9h1.5V9.3z M8.7,7.4H7.7V2.9h1.1V7.4z M11.4,9.3H9.9V2.9h1.5V9.3z M11.4,9.3H9.9V2.9h1.5V9.3z M13.7,7.4h-1.1V2.9h1.1
	V7.4z M16.4,9.3h-1.5V2.9h1.5V9.3z M16.3,9.3h-1.5V2.9h1.5V9.3z M18.6,7.4h-1V2.9h1V7.4z M21.3,9.3h-1.5V2.9h1.5V9.3z M21.3,9.3
	h-1.5V2.9h1.5V9.3z M23.5,7.4h-1V2.9h1V7.4z M26.2,9.3h-1.5V2.9h1.5V9.3z M26.2,9.3h-1.5V2.9h1.5V9.3z M28.5,7.4h-1V2.9h1V7.4z
	 M31.2,9.3h-1.5V2.9h1.5V9.3z M31.2,9.3h-1.5V2.9h1.5V9.3z M33.5,7.4h-1V2.9h1V7.4z M36.2,9.3h-1.5V2.9h1.5V9.3z M36.2,9.3h-1.5V2.9
	h1.5V9.3z M38.4,7.4h-1V2.9h1V7.4z M41.1,9.3h-1.5V2.9h1.5V9.3z M41.1,9.3h-1.5V2.9h1.5V9.3z M43.3,7.4h-1V2.9h1V7.4z M46,9.3h-1.5
	V2.9H46V9.3z M46,9.3h-1.5V2.9H46V9.3z M48.3,7.4h-1V2.9h1V7.4z M51,9.3h-1.5V2.9H51V9.3z M51,9.3h-1.5V2.9H51V9.3z M53.2,7.4h-1
	V2.9h1V7.4z M56,9.3h-1.5V2.9H56V9.3z M56,9.3h-1.5V2.9H56V9.3z M58.2,7.4h-1V2.9h1V7.4z M60.9,9.3h-1.5V2.9h1.5V9.3z M60.9,9.3
	h-1.5V2.9h1.5V9.3z M63.2,7.4h-1.1V2.9h1.1V7.4z M65.9,9.3h-1.5V2.9h1.5V9.3z M65.8,9.3h-1.5V2.9h1.5V9.3z M68.1,7.4H67V2.9h1.1V7.4
	z M70.8,9.3h-1.5V2.9h1.5V9.3z M70.8,9.3h-1.5V2.9h1.5V9.3z M73,7.4H72V2.9H73V7.4z M75.8,9.3h-1.5V2.9h1.5V9.3z M75.8,9.3h-1.5V2.9
	h1.5V9.3z M78,7.4h-1.1V2.9H78V7.4z M80.7,9.3h-1.5V2.9h1.5V9.3z M80.7,9.3h-1.5V2.9h1.5V9.3z M83,7.4h-1.1V2.9H83V7.4z M85.7,9.3
	h-1.5V2.9h1.5V9.3z M85.7,9.3h-1.5V2.9h1.5V9.3z M87.9,7.4h-1.1V2.9h1.1V7.4z M90.6,9.3h-1.5V2.9h1.5V9.3z M90.6,9.3h-1.5V2.9h1.5
	V9.3z M92.8,7.4h-1.1V2.9h1.1V7.4z M95.5,9.3H94V2.9h1.5V9.3z M95.5,9.3H94V2.9h1.5V9.3z M97.8,7.4h-1.1V2.9h1.1V7.4z M100.5,9.3H99
	V2.9h1.5V9.3z M100.5,9.3H99V2.9h1.5V9.3z M102.8,7.4h-1.1V2.9h1.1V7.4z M105.4,9.3h-1.5V2.9h1.5V9.3z M105.4,9.3h-1.5V2.9h1.5V9.3z
	 M107.7,7.4h-1.1V2.9h1.1V7.4z M110.4,9.3h-1.5V2.9h1.5V9.3z M110.4,9.3h-1.5V2.9h1.5V9.3z M112.7,7.4h-1.1V2.9h1.1V7.4z M115.4,9.3
	h-1.5V2.9h1.5V9.3z M115.3,9.3h-1.5V2.9h1.5V9.3z M117.6,7.4h-1.1V2.9h1.1V7.4z M120.3,9.3h-1.5V2.9h1.5V9.3z M120.3,9.3h-1.5V2.9
	h1.5V9.3z M122.6,7.4h-1.1V2.9h1.1V7.4z M125.2,9.3h-1.5V2.9h1.5V9.3z M125.2,9.3h-1.5V2.9h1.5V9.3z M127.5,7.4h-1.1V2.9h1.1V7.4z
	 M130.2,9.3h-1.5V2.9h1.5V9.3z M130.2,9.3h-1.5V2.9h1.5V9.3z M132.4,7.4h-1.1V2.9h1.1V7.4z M135.1,9.3h-1.5V2.9h1.5V9.3z M135.1,9.3
	h-1.5V2.9h1.5V9.3z M137.4,7.4h-1.1V2.9h1.1V7.4z M140.1,9.3h-1.5V2.9h1.5V9.3z M140.1,9.3h-1.5V2.9h1.5V9.3z M142.4,7.4h-1.1V2.9
	h1.1V7.4z M145.1,9.3h-1.5V2.9h1.5V9.3z M145.1,9.3h-1.5V2.9h1.5V9.3z M147.3,7.4h-1.1V2.9h1.1V7.4z M150,9.3h-1.5V2.9h1.5V9.3z
	 M150,9.3h-1.5V2.9h1.5V9.3z M152.2,7.4h-1.1V2.9h1.1V7.4z M154.9,9.3h-1.5V2.9h1.5V9.3z M154.9,9.3h-1.5V2.9h1.5V9.3z M157.2,7.4
	h-1.1V2.9h1.1V7.4z M159.9,9.3h-1.5V2.9h1.5V9.3z M159.9,9.3h-1.5V2.9h1.5V9.3z M162.1,7.4h-1.1V2.9h1.1V7.4z M164.9,9.3h-1.5V2.9
	h1.5V9.3z M164.9,9.3h-1.5V2.9h1.5V9.3z M167.1,7.4h-1.1V2.9h1.1V7.4z M169.8,9.3h-1.5V2.9h1.5V9.3z M169.8,9.3h-1.5V2.9h1.5V9.3z
	 M172.1,7.4H171V2.9h1.1V7.4z M174.8,9.3h-1.5V2.9h1.5V9.3z M174.8,10.8H0V9.3h174.8V10.8z"/>
</svg>
