<svg width="175" height="11" viewBox="0 0 175 11" fill="none" xmlns="http://www.w3.org/2000/svg">
<rect x="174.75" y="1.70001" width="174.75" height="1.5" transform="rotate(-180 174.75 1.70001)" fill="#301320"/>
<rect x="1.5" y="9.2572" width="1.5" height="6.35717" transform="rotate(-180 1.5 9.2572)" fill="#301320"/>
<rect x="3.75" y="7.41895" width="1.05" height="4.51895" transform="rotate(-180 3.75 7.41895)" fill="#301320"/>
<rect x="6.4502" y="9.2572" width="1.5" height="6.35717" transform="rotate(-180 6.4502 9.2572)" fill="#301320"/>
<rect x="6.4502" y="9.2572" width="1.5" height="6.35717" transform="rotate(-180 6.4502 9.2572)" fill="#301320"/>
<rect x="8.7002" y="7.41895" width="1.05" height="4.51895" transform="rotate(-180 8.7002 7.41895)" fill="#301320"/>
<rect x="11.4004" y="9.2572" width="1.5" height="6.35717" transform="rotate(-180 11.4004 9.2572)" fill="#301320"/>
<rect x="11.4004" y="9.2572" width="1.5" height="6.35717" transform="rotate(-180 11.4004 9.2572)" fill="#301320"/>
<rect x="13.6504" y="7.41895" width="1.05" height="4.51895" transform="rotate(-180 13.6504 7.41895)" fill="#301320"/>
<rect x="16.3506" y="9.2572" width="1.5" height="6.35717" transform="rotate(-180 16.3506 9.2572)" fill="#301320"/>
<rect x="16.3496" y="9.2572" width="1.5" height="6.35717" transform="rotate(-180 16.3496 9.2572)" fill="#301320"/>
<rect x="18.5996" y="7.41895" width="1.05" height="4.51895" transform="rotate(-180 18.5996 7.41895)" fill="#301320"/>
<rect x="21.2998" y="9.2572" width="1.5" height="6.35717" transform="rotate(-180 21.2998 9.2572)" fill="#301320"/>
<rect x="21.2998" y="9.25726" width="1.5" height="6.35717" transform="rotate(-180 21.2998 9.25726)" fill="#301320"/>
<rect x="23.5498" y="7.41901" width="1.05" height="4.51895" transform="rotate(-180 23.5498 7.41901)" fill="#301320"/>
<rect x="26.25" y="9.2572" width="1.5" height="6.35717" transform="rotate(-180 26.25 9.2572)" fill="#301320"/>
<rect x="26.25" y="9.2572" width="1.5" height="6.35717" transform="rotate(-180 26.25 9.2572)" fill="#301320"/>
<rect x="28.5" y="7.41895" width="1.05" height="4.51895" transform="rotate(-180 28.5 7.41895)" fill="#301320"/>
<rect x="31.2002" y="9.2572" width="1.5" height="6.35717" transform="rotate(-180 31.2002 9.2572)" fill="#301320"/>
<rect x="31.2002" y="9.2572" width="1.5" height="6.35717" transform="rotate(-180 31.2002 9.2572)" fill="#301320"/>
<rect x="33.4502" y="7.41895" width="1.05" height="4.51895" transform="rotate(-180 33.4502 7.41895)" fill="#301320"/>
<rect x="36.1504" y="9.2572" width="1.5" height="6.35717" transform="rotate(-180 36.1504 9.2572)" fill="#301320"/>
<rect x="36.1504" y="9.2572" width="1.5" height="6.35717" transform="rotate(-180 36.1504 9.2572)" fill="#301320"/>
<rect x="38.4004" y="7.41895" width="1.05" height="4.51895" transform="rotate(-180 38.4004 7.41895)" fill="#301320"/>
<rect x="41.1006" y="9.2572" width="1.5" height="6.35717" transform="rotate(-180 41.1006 9.2572)" fill="#301320"/>
<rect x="41.0996" y="9.2572" width="1.5" height="6.35717" transform="rotate(-180 41.0996 9.2572)" fill="#301320"/>
<rect x="43.3496" y="7.41895" width="1.05" height="4.51895" transform="rotate(-180 43.3496 7.41895)" fill="#301320"/>
<rect x="46.0498" y="9.2572" width="1.5" height="6.35717" transform="rotate(-180 46.0498 9.2572)" fill="#301320"/>
<rect x="46.0498" y="9.25726" width="1.5" height="6.35717" transform="rotate(-180 46.0498 9.25726)" fill="#301320"/>
<rect x="48.2998" y="7.41901" width="1.05" height="4.51895" transform="rotate(-180 48.2998 7.41901)" fill="#301320"/>
<rect x="51" y="9.2572" width="1.5" height="6.35717" transform="rotate(-180 51 9.2572)" fill="#301320"/>
<rect x="51" y="9.2572" width="1.5" height="6.35717" transform="rotate(-180 51 9.2572)" fill="#301320"/>
<rect x="53.25" y="7.41895" width="1.05" height="4.51895" transform="rotate(-180 53.25 7.41895)" fill="#301320"/>
<rect x="55.9502" y="9.2572" width="1.5" height="6.35717" transform="rotate(-180 55.9502 9.2572)" fill="#301320"/>
<rect x="55.9502" y="9.2572" width="1.5" height="6.35717" transform="rotate(-180 55.9502 9.2572)" fill="#301320"/>
<rect x="58.2002" y="7.41895" width="1.05" height="4.51895" transform="rotate(-180 58.2002 7.41895)" fill="#301320"/>
<rect x="60.9004" y="9.2572" width="1.5" height="6.35717" transform="rotate(-180 60.9004 9.2572)" fill="#301320"/>
<rect x="60.9004" y="9.2572" width="1.5" height="6.35717" transform="rotate(-180 60.9004 9.2572)" fill="#301320"/>
<rect x="63.1504" y="7.41895" width="1.05" height="4.51895" transform="rotate(-180 63.1504 7.41895)" fill="#301320"/>
<rect x="65.8506" y="9.2572" width="1.5" height="6.35717" transform="rotate(-180 65.8506 9.2572)" fill="#301320"/>
<rect x="65.8496" y="9.2572" width="1.5" height="6.35717" transform="rotate(-180 65.8496 9.2572)" fill="#301320"/>
<rect x="68.0996" y="7.41895" width="1.05" height="4.51895" transform="rotate(-180 68.0996 7.41895)" fill="#301320"/>
<rect x="70.7998" y="9.2572" width="1.5" height="6.35717" transform="rotate(-180 70.7998 9.2572)" fill="#301320"/>
<rect x="70.7998" y="9.2572" width="1.5" height="6.35717" transform="rotate(-180 70.7998 9.2572)" fill="#301320"/>
<rect x="73.0498" y="7.41895" width="1.05" height="4.51895" transform="rotate(-180 73.0498 7.41895)" fill="#301320"/>
<rect x="75.75" y="9.2572" width="1.5" height="6.35717" transform="rotate(-180 75.75 9.2572)" fill="#301320"/>
<rect x="75.75" y="9.2572" width="1.5" height="6.35717" transform="rotate(-180 75.75 9.2572)" fill="#301320"/>
<rect x="78" y="7.41895" width="1.05" height="4.51895" transform="rotate(-180 78 7.41895)" fill="#301320"/>
<rect x="80.7002" y="9.2572" width="1.5" height="6.35717" transform="rotate(-180 80.7002 9.2572)" fill="#301320"/>
<rect x="80.7002" y="9.2572" width="1.5" height="6.35717" transform="rotate(-180 80.7002 9.2572)" fill="#301320"/>
<rect x="82.9502" y="7.41895" width="1.05" height="4.51895" transform="rotate(-180 82.9502 7.41895)" fill="#301320"/>
<rect x="85.6504" y="9.2572" width="1.5" height="6.35717" transform="rotate(-180 85.6504 9.2572)" fill="#301320"/>
<rect x="85.6504" y="9.2572" width="1.5" height="6.35717" transform="rotate(-180 85.6504 9.2572)" fill="#301320"/>
<rect x="87.9004" y="7.41895" width="1.05" height="4.51895" transform="rotate(-180 87.9004 7.41895)" fill="#301320"/>
<rect x="90.6006" y="9.2572" width="1.5" height="6.35717" transform="rotate(-180 90.6006 9.2572)" fill="#301320"/>
<rect x="90.5996" y="9.2572" width="1.5" height="6.35717" transform="rotate(-180 90.5996 9.2572)" fill="#301320"/>
<rect x="92.8496" y="7.41895" width="1.05" height="4.51895" transform="rotate(-180 92.8496 7.41895)" fill="#301320"/>
<rect x="95.5498" y="9.2572" width="1.5" height="6.35717" transform="rotate(-180 95.5498 9.2572)" fill="#301320"/>
<rect x="95.5498" y="9.2572" width="1.5" height="6.35717" transform="rotate(-180 95.5498 9.2572)" fill="#301320"/>
<rect x="97.7998" y="7.41895" width="1.05" height="4.51895" transform="rotate(-180 97.7998 7.41895)" fill="#301320"/>
<rect x="100.5" y="9.2572" width="1.5" height="6.35717" transform="rotate(-180 100.5 9.2572)" fill="#301320"/>
<rect x="100.5" y="9.2572" width="1.5" height="6.35717" transform="rotate(-180 100.5 9.2572)" fill="#301320"/>
<rect x="102.75" y="7.41895" width="1.05" height="4.51895" transform="rotate(-180 102.75 7.41895)" fill="#301320"/>
<rect x="105.45" y="9.2572" width="1.5" height="6.35717" transform="rotate(-180 105.45 9.2572)" fill="#301320"/>
<rect x="105.45" y="9.2572" width="1.5" height="6.35717" transform="rotate(-180 105.45 9.2572)" fill="#301320"/>
<rect x="107.7" y="7.41895" width="1.05" height="4.51895" transform="rotate(-180 107.7 7.41895)" fill="#301320"/>
<rect x="110.4" y="9.2572" width="1.5" height="6.35717" transform="rotate(-180 110.4 9.2572)" fill="#301320"/>
<rect x="110.4" y="9.2572" width="1.5" height="6.35717" transform="rotate(-180 110.4 9.2572)" fill="#301320"/>
<rect x="112.65" y="7.41895" width="1.05" height="4.51895" transform="rotate(-180 112.65 7.41895)" fill="#301320"/>
<rect x="115.351" y="9.2572" width="1.5" height="6.35717" transform="rotate(-180 115.351 9.2572)" fill="#301320"/>
<rect x="115.35" y="9.2572" width="1.5" height="6.35717" transform="rotate(-180 115.35 9.2572)" fill="#301320"/>
<rect x="117.6" y="7.41895" width="1.05" height="4.51895" transform="rotate(-180 117.6 7.41895)" fill="#301320"/>
<rect x="120.3" y="9.2572" width="1.5" height="6.35717" transform="rotate(-180 120.3 9.2572)" fill="#301320"/>
<rect x="120.3" y="9.2572" width="1.5" height="6.35717" transform="rotate(-180 120.3 9.2572)" fill="#301320"/>
<rect x="122.55" y="7.41895" width="1.05" height="4.51895" transform="rotate(-180 122.55 7.41895)" fill="#301320"/>
<rect x="125.25" y="9.2572" width="1.5" height="6.35717" transform="rotate(-180 125.25 9.2572)" fill="#301320"/>
<rect x="125.25" y="9.2572" width="1.5" height="6.35717" transform="rotate(-180 125.25 9.2572)" fill="#301320"/>
<rect x="127.5" y="7.41895" width="1.05" height="4.51895" transform="rotate(-180 127.5 7.41895)" fill="#301320"/>
<rect x="130.2" y="9.2572" width="1.5" height="6.35717" transform="rotate(-180 130.2 9.2572)" fill="#301320"/>
<rect x="130.2" y="9.2572" width="1.5" height="6.35717" transform="rotate(-180 130.2 9.2572)" fill="#301320"/>
<rect x="132.45" y="7.41895" width="1.05" height="4.51895" transform="rotate(-180 132.45 7.41895)" fill="#301320"/>
<rect x="135.15" y="9.2572" width="1.5" height="6.35717" transform="rotate(-180 135.15 9.2572)" fill="#301320"/>
<rect x="135.15" y="9.2572" width="1.5" height="6.35717" transform="rotate(-180 135.15 9.2572)" fill="#301320"/>
<rect x="137.4" y="7.41895" width="1.05" height="4.51895" transform="rotate(-180 137.4 7.41895)" fill="#301320"/>
<rect x="140.101" y="9.2572" width="1.5" height="6.35717" transform="rotate(-180 140.101 9.2572)" fill="#301320"/>
<rect x="140.1" y="9.2572" width="1.5" height="6.35717" transform="rotate(-180 140.1 9.2572)" fill="#301320"/>
<rect x="142.35" y="7.41895" width="1.05" height="4.51895" transform="rotate(-180 142.35 7.41895)" fill="#301320"/>
<rect x="145.05" y="9.2572" width="1.5" height="6.35717" transform="rotate(-180 145.05 9.2572)" fill="#301320"/>
<rect x="145.05" y="9.2572" width="1.5" height="6.35717" transform="rotate(-180 145.05 9.2572)" fill="#301320"/>
<rect x="147.3" y="7.41895" width="1.05" height="4.51895" transform="rotate(-180 147.3 7.41895)" fill="#301320"/>
<rect x="150" y="9.2572" width="1.5" height="6.35717" transform="rotate(-180 150 9.2572)" fill="#301320"/>
<rect x="150" y="9.2572" width="1.5" height="6.35717" transform="rotate(-180 150 9.2572)" fill="#301320"/>
<rect x="152.25" y="7.41895" width="1.05" height="4.51895" transform="rotate(-180 152.25 7.41895)" fill="#301320"/>
<rect x="154.95" y="9.2572" width="1.5" height="6.35717" transform="rotate(-180 154.95 9.2572)" fill="#301320"/>
<rect x="154.95" y="9.2572" width="1.5" height="6.35717" transform="rotate(-180 154.95 9.2572)" fill="#301320"/>
<rect x="157.2" y="7.41895" width="1.05" height="4.51895" transform="rotate(-180 157.2 7.41895)" fill="#301320"/>
<rect x="159.9" y="9.2572" width="1.5" height="6.35717" transform="rotate(-180 159.9 9.2572)" fill="#301320"/>
<rect x="159.9" y="9.2572" width="1.5" height="6.35717" transform="rotate(-180 159.9 9.2572)" fill="#301320"/>
<rect x="162.15" y="7.41895" width="1.05" height="4.51895" transform="rotate(-180 162.15 7.41895)" fill="#301320"/>
<rect x="164.851" y="9.2572" width="1.5" height="6.35717" transform="rotate(-180 164.851 9.2572)" fill="#301320"/>
<rect x="164.85" y="9.2572" width="1.5" height="6.35717" transform="rotate(-180 164.85 9.2572)" fill="#301320"/>
<rect x="167.1" y="7.41895" width="1.05" height="4.51895" transform="rotate(-180 167.1 7.41895)" fill="#301320"/>
<rect x="169.8" y="9.2572" width="1.5" height="6.35717" transform="rotate(-180 169.8 9.2572)" fill="#301320"/>
<rect x="169.8" y="9.2572" width="1.5" height="6.35717" transform="rotate(-180 169.8 9.2572)" fill="#301320"/>
<rect x="172.05" y="7.41895" width="1.05" height="4.51895" transform="rotate(-180 172.05 7.41895)" fill="#301320"/>
<rect x="174.75" y="9.2572" width="1.5" height="6.35717" transform="rotate(-180 174.75 9.2572)" fill="#301320"/>
<rect x="174.75" y="10.7572" width="174.75" height="1.5" transform="rotate(-180 174.75 10.7572)" fill="#301320"/>
</svg>
