<?xml version="1.0" encoding="utf-8"?>
<!-- Generator: Adobe Illustrator 27.0.0, SVG Export Plug-In . SVG Version: 6.00 Build 0)  -->
<svg version="1.1" id="Livello_1" xmlns="http://www.w3.org/2000/svg" xmlns:xlink="http://www.w3.org/1999/xlink" x="0px" y="0px"
	 viewBox="0 0 49 843.7" style="enable-background:new 0 0 49 843.7;" xml:space="preserve">
<style type="text/css">
	.st0{fill-rule:evenodd;clip-rule:evenodd;fill:#13080E;}
	.st1{fill-rule:evenodd;clip-rule:evenodd;fill:url(#SVGID_1_);}
</style>
<path class="st0" d="M11.8,8c-2.2,0-4-1.8-4-4s1.8-4,4-4c2.2,0,4,1.8,4,4S14,8,11.8,8z M22,596.5v-46.6c-2-6.3-5.4-9.1-9-12
	c-5.7-4.7-11.9-9.7-13-30.7c0,0,0-0.9,0.4-1c0.4-0.1,0.7,0.7,0.7,0.7c1.4,3,3.7,4.9,6.3,7c5.1,4.2,11.4,9.4,14.6,26.3v-46.1
	c-2-6.3-5.4-9.1-9-12c-5.7-4.7-11.9-9.7-13-30.7c0,0,0-0.9,0.4-1c0.4-0.1,0.7,0.7,0.7,0.7c1.4,3,3.7,4.9,6.3,7
	c5.1,4.2,11.4,9.4,14.6,26.3v-46.1c-2-6.3-5.4-9.1-9-12c-5.7-4.7-11.9-9.7-13-30.7c0,0,0-0.9,0.4-1c0.4-0.1,0.7,0.7,0.7,0.7
	c1.4,3,3.7,4.9,6.3,7c5.1,4.2,11.4,9.4,14.6,26.3v-46.1c-2-6.3-5.4-9.1-9-12C7.3,366,1.2,361,0,340c0,0,0-0.9,0.4-1
	c0.4-0.1,0.7,0.7,0.7,0.7c1.4,3,3.7,4.9,6.3,7c5.1,4.2,11.4,9.4,14.6,26.3v-46.1c-2-6.3-5.4-9.1-9-12c-5.7-4.7-11.9-9.7-13-30.7
	c0,0,0-0.9,0.4-1c0.4-0.1,0.7,0.7,0.7,0.7c1.4,3,3.7,4.9,6.3,7c5.1,4.2,11.4,9.4,14.6,26.3v-46.1c-2-6.3-5.4-9.1-9-12
	c-5.7-4.7-11.9-9.7-13-30.7c0,0,0-0.9,0.4-1c0.4-0.1,0.7,0.7,0.7,0.7c1.4,3,3.7,4.9,6.3,7c5.1,4.2,11.4,9.4,14.6,26.3v-46.1
	c-2-6.3-5.4-9.1-9-12c-5.7-4.7-11.9-9.7-13-30.7c0,0,0-0.9,0.4-1c0.4-0.1,0.7,0.7,0.7,0.7c1.4,3,3.7,4.9,6.3,7
	c5.1,4.2,11.4,9.4,14.6,26.3v-46.1c-2-6.3-5.4-9.1-9-12C7.3,143,1.2,138,0,117c0,0,0-0.9,0.4-1c0.4-0.1,0.7,0.7,0.7,0.7
	c1.4,3,3.7,4.9,6.3,7c5.1,4.2,11.4,9.4,14.6,26.3v-46.1c-2-6.3-5.4-9.1-9-12C7.3,87.2,1.2,82.2,0,61.3c0,0,0-0.9,0.4-1
	C0.8,60.2,1.2,61,1.2,61c1.4,3,3.7,4.9,6.3,7c5.1,4.2,11.4,9.4,14.6,26.3V48.2c-2-6.3-5.4-9.1-9-12C7.3,31.5,1.2,26.5,0,5.5
	c0,0,0-0.9,0.4-1c0.4-0.1,0.7,0.7,0.7,0.7c1.4,3,3.7,4.9,6.3,7c5.1,4.2,11.4,9.4,14.6,26.3V14h4v52.3c3.1-17.1,9.5-22.3,14.6-26.5
	c2.6-2.1,4.9-4,6.3-7c0,0,0.3-0.8,0.8-0.7c0.4,0.1,0.4,1,0.4,1c-1.2,21-7.3,26-13,30.7c-3.6,2.9-7,5.7-9,12.1V122
	c3.1-17.1,9.5-22.3,14.6-26.5c2.6-2.1,4.9-4,6.3-7c0,0,0.3-0.8,0.8-0.7c0.4,0.1,0.4,1,0.4,1c-1.2,21-7.3,26-13,30.7
	c-3.6,2.9-7,5.7-9,12.1v46.2c3.1-17.1,9.5-22.3,14.6-26.5c2.6-2.1,4.9-4,6.3-7c0,0,0.3-0.8,0.8-0.7c0.4,0.1,0.4,1,0.4,1
	c-1.2,21-7.3,26-13,30.7c-3.6,2.9-7,5.7-9,12.1v46.2c3.1-17.1,9.5-22.3,14.6-26.5c2.6-2.1,4.9-4,6.3-7c0,0,0.3-0.8,0.8-0.7
	c0.4,0.1,0.4,1,0.4,1c-1.2,21-7.3,26-13,30.7c-3.6,2.9-7,5.7-9,12.1v46.2c3.1-17.1,9.5-22.3,14.6-26.5c2.6-2.1,4.9-4,6.3-7
	c0,0,0.3-0.8,0.8-0.7c0.4,0.1,0.4,1,0.4,1c-1.2,21-7.3,26-13,30.7c-3.6,2.9-7,5.7-9,12.1V345c3.1-17.1,9.5-22.3,14.6-26.5
	c2.6-2.1,4.9-4,6.3-7c0,0,0.3-0.8,0.8-0.7c0.4,0.1,0.4,1,0.4,1c-1.2,21-7.3,26-13,30.7c-3.6,2.9-7,5.7-9,12.1v46.2
	c3.1-17.1,9.5-22.3,14.6-26.5c2.6-2.1,4.9-4,6.3-7c0,0,0.3-0.8,0.8-0.7c0.4,0.1,0.4,1,0.4,1c-1.2,21-7.3,26-13,30.7
	c-3.6,2.9-7,5.7-9,12.1v46.2c3.1-17.1,9.5-22.3,14.6-26.5c2.6-2.1,4.9-4,6.3-7c0,0,0.3-0.8,0.8-0.7c0.4,0.1,0.4,1,0.4,1
	c-1.2,21-7.3,26-13,30.7c-3.6,2.9-7,5.7-9,12.1v46.2c3.1-17.1,9.5-22.3,14.6-26.5c2.6-2.1,4.9-4,6.3-7c0,0,0.3-0.8,0.8-0.7
	c0.4,0.1,0.4,1,0.4,1c-1.2,21-7.3,26-13,30.7c-3.6,2.9-7,5.7-9,12.1v51c3.1-17.1,9.5-22.3,14.6-26.5c2.6-2.1,4.9-4,6.3-7
	c0,0,0.3-0.8,0.8-0.7c0.4,0.1,0.4,1,0.4,1c-1.2,21-7.3,26-13,30.7c-3.6,2.9-7,5.7-9,12.1v46.2c3.1-17.1,9.5-22.3,14.6-26.5
	c2.6-2.1,4.9-4,6.3-7c0,0,0.3-0.8,0.8-0.7c0.4,0.1,0.4,1,0.4,1c-1.2,21-7.3,26-13,30.7c-3.6,2.9-7,5.7-9,12.1v51
	c3.1-17.1,9.5-22.3,14.6-26.5c2.6-2.1,4.9-4,6.3-7c0,0,0.3-0.8,0.8-0.7c0.4,0.1,0.4,1,0.4,1c-1.2,21-7.3,26-13,30.7
	c-3.6,2.9-7,5.7-9,12.1v46.2c3.1-17.1,9.5-22.3,14.6-26.5c2.6-2.1,4.9-4,6.3-7c0,0,0.3-0.8,0.8-0.7c0.4,0.1,0.4,1,0.4,1
	c-1.2,21-7.3,26-13,30.7c-3.6,2.9-7,5.7-9,12.1v51c3.1-17.1,9.5-22.3,14.6-26.5c2.6-2.1,4.9-4,6.3-7c0,0,0.3-0.8,0.8-0.7
	c0.4,0.1,0.4,1,0.4,1c-1.2,21-7.3,26-13,30.7c-3.6,2.9-7,5.7-9,12.1V842h-2.2c0.1,1.8,0.1,3.8,0.1,5.8c0-2.1-0.1-4-0.2-5.8H22v-9.8
	c-2-6.3-5.4-9.1-9-12c-5.7-4.7-11.9-9.7-13-30.7c0,0,0-0.9,0.4-1c0.4-0.1,0.7,0.7,0.7,0.7c1.4,3,3.7,4.9,6.3,7
	c5.1,4.2,11.4,9.3,14.6,26.3v-48.6c-2-6.3-5.4-9.1-9-12c-5.7-4.7-11.9-9.7-13-30.7c0,0,0-0.9,0.4-1c0.4-0.1,0.7,0.7,0.7,0.7
	c1.4,3,3.7,4.9,6.3,7c5.1,4.2,11.4,9.3,14.6,26.3v-46.1c-2-6.3-5.4-9.1-9-12c-5.7-4.7-11.9-9.7-13-30.7c0,0,0-0.9,0.4-1
	c0.4-0.1,0.7,0.7,0.7,0.7c1.4,3,3.7,4.9,6.3,7c5.1,4.2,11.4,9.3,14.6,26.3v-46.6c-2-6.3-5.4-9.1-9-12c-5.7-4.7-11.9-9.7-13-30.7
	c0,0,0-0.9,0.4-1c0.4-0.1,0.7,0.7,0.7,0.7c1.4,3,3.7,4.9,6.3,7c5.1,4.2,11.4,9.4,14.6,26.3v-46.1c-2-6.3-5.4-9.1-9-12
	c-5.7-4.7-11.9-9.7-13-30.7c0,0,0-0.9,0.4-1c0.4-0.1,0.7,0.7,0.7,0.7c1.4,3,3.7,4.9,6.3,7C12.6,574.4,18.9,579.6,22,596.5z
	 M36.3,35.5c2.2,0,4-1.8,4-4c0-2.2-1.8-4-4-4c-2.2,0-4,1.8-4,4C32.3,33.7,34,35.5,36.3,35.5z M36.3,91.2c2.2,0,4-1.8,4-4s-1.8-4-4-4
	c-2.2,0-4,1.8-4,4S34,91.2,36.3,91.2z M36.3,147c2.2,0,4-1.8,4-4s-1.8-4-4-4c-2.2,0-4,1.8-4,4S34,147,36.3,147z M36.3,202.8
	c2.2,0,4-1.8,4-4s-1.8-4-4-4c-2.2,0-4,1.8-4,4S34,202.8,36.3,202.8z M36.3,258.5c2.2,0,4-1.8,4-4c0-2.2-1.8-4-4-4c-2.2,0-4,1.8-4,4
	C32.3,256.7,34,258.5,36.3,258.5z M36.3,314.2c2.2,0,4-1.8,4-4s-1.8-4-4-4c-2.2,0-4,1.8-4,4S34,314.2,36.3,314.2z M36.3,370
	c2.2,0,4-1.8,4-4c0-2.2-1.8-4-4-4c-2.2,0-4,1.8-4,4C32.3,368.2,34,370,36.3,370z M40.3,421.8c0,2.2-1.8,4-4,4c-2.2,0-4-1.8-4-4
	c0-2.2,1.8-4,4-4C38.5,417.8,40.3,419.5,40.3,421.8z M36.3,542c2.2,0,4-1.8,4-4s-1.8-4-4-4c-2.2,0-4,1.8-4,4S34,542,36.3,542z
	 M40.3,654.2c0,2.2-1.8,4-4,4c-2.2,0-4-1.8-4-4c0-2.2,1.8-4,4-4C38.5,650.2,40.3,652,40.3,654.2z M36.3,774.5c2.2,0,4-1.8,4-4
	c0-2.2-1.8-4-4-4c-2.2,0-4,1.8-4,4C32.3,772.7,34,774.5,36.3,774.5z M36.3,481.5c2.2,0,4-1.8,4-4c0-2.2-1.8-4-4-4c-2.2,0-4,1.8-4,4
	C32.3,479.7,34,481.5,36.3,481.5z M40.3,593.8c0,2.2-1.8,4-4,4c-2.2,0-4-1.8-4-4s1.8-4,4-4C38.5,589.8,40.3,591.5,40.3,593.8z
	 M36.3,714c2.2,0,4-1.8,4-4c0-2.2-1.8-4-4-4c-2.2,0-4,1.8-4,4C32.3,712.2,34,714,36.3,714z M11.8,63.8c-2.2,0-4-1.8-4-4s1.8-4,4-4
	c2.2,0,4,1.8,4,4S14,63.8,11.8,63.8z M11.8,119.5c-2.2,0-4-1.8-4-4s1.8-4,4-4c2.2,0,4,1.8,4,4S14,119.5,11.8,119.5z M11.8,175.2
	c-2.2,0-4-1.8-4-4s1.8-4,4-4c2.2,0,4,1.8,4,4S14,175.2,11.8,175.2z M11.8,231c-2.2,0-4-1.8-4-4s1.8-4,4-4c2.2,0,4,1.8,4,4
	S14,231,11.8,231z M11.8,286.8c-2.2,0-4-1.8-4-4s1.8-4,4-4c2.2,0,4,1.8,4,4S14,286.8,11.8,286.8z M11.8,342.5c-2.2,0-4-1.8-4-4
	c0-2.2,1.8-4,4-4c2.2,0,4,1.8,4,4C15.8,340.7,14,342.5,11.8,342.5z M11.8,398.2c-2.2,0-4-1.8-4-4c0-2.2,1.8-4,4-4c2.2,0,4,1.8,4,4
	C15.8,396.5,14,398.2,11.8,398.2z M11.8,454c-2.2,0-4-1.8-4-4c0-2.2,1.8-4,4-4c2.2,0,4,1.8,4,4C15.8,452.2,14,454,11.8,454z
	 M7.8,562c0,2.2,1.8,4,4,4c2.2,0,4-1.8,4-4s-1.8-4-4-4C9.6,558,7.8,559.8,7.8,562z M11.8,678c-2.2,0-4-1.8-4-4c0-2.2,1.8-4,4-4
	c2.2,0,4,1.8,4,4C15.8,676.2,14,678,11.8,678z M7.8,505.8c0,2.2,1.8,4,4,4c2.2,0,4-1.8,4-4c0-2.2-1.8-4-4-4
	C9.6,501.8,7.8,503.5,7.8,505.8z M11.8,621.8c-2.2,0-4-1.8-4-4s1.8-4,4-4c2.2,0,4,1.8,4,4S14,621.8,11.8,621.8z M7.8,729.8
	c0,2.2,1.8,4,4,4c2.2,0,4-1.8,4-4c0-2.2-1.8-4-4-4C9.6,725.8,7.8,727.5,7.8,729.8z M11.8,792c-2.2,0-4-1.8-4-4s1.8-4,4-4
	c2.2,0,4,1.8,4,4S14,792,11.8,792z"/>
<linearGradient id="SVGID_1_" gradientUnits="userSpaceOnUse" x1="235.4748" y1="225.9888" x2="-194.1411" y2="634.8627" gradientTransform="matrix(1 0 0 -1 0 855.89)">
	<stop  offset="0" style="stop-color:#FABB00;stop-opacity:0.8"/>
	<stop  offset="0.3177" style="stop-color:#FABB00;stop-opacity:0.24"/>
	<stop  offset="0.4167" style="stop-color:#FABB00;stop-opacity:0.8"/>
	<stop  offset="0.526" style="stop-color:#FABB00;stop-opacity:0.14"/>
	<stop  offset="0.6875" style="stop-color:#FABB00;stop-opacity:0.54"/>
	<stop  offset="1" style="stop-color:#FABB00;stop-opacity:0.24"/>
</linearGradient>
<path class="st1" d="M11.8,8c-2.2,0-4-1.8-4-4s1.8-4,4-4c2.2,0,4,1.8,4,4S14,8,11.8,8z M22,596.5v-46.6c-2-6.3-5.4-9.1-9-12
	c-5.7-4.7-11.9-9.7-13-30.7c0,0,0-0.9,0.4-1c0.4-0.1,0.7,0.7,0.7,0.7c1.4,3,3.7,4.9,6.3,7c5.1,4.2,11.4,9.4,14.6,26.3v-46.1
	c-2-6.3-5.4-9.1-9-12c-5.7-4.7-11.9-9.7-13-30.7c0,0,0-0.9,0.4-1c0.4-0.1,0.7,0.7,0.7,0.7c1.4,3,3.7,4.9,6.3,7
	c5.1,4.2,11.4,9.4,14.6,26.3v-46.1c-2-6.3-5.4-9.1-9-12c-5.7-4.7-11.9-9.7-13-30.7c0,0,0-0.9,0.4-1c0.4-0.1,0.7,0.7,0.7,0.7
	c1.4,3,3.7,4.9,6.3,7c5.1,4.2,11.4,9.4,14.6,26.3v-46.1c-2-6.3-5.4-9.1-9-12C7.3,366,1.2,361,0,340c0,0,0-0.9,0.4-1
	c0.4-0.1,0.7,0.7,0.7,0.7c1.4,3,3.7,4.9,6.3,7c5.1,4.2,11.4,9.4,14.6,26.3v-46.1c-2-6.3-5.4-9.1-9-12c-5.7-4.7-11.9-9.7-13-30.7
	c0,0,0-0.9,0.4-1c0.4-0.1,0.7,0.7,0.7,0.7c1.4,3,3.7,4.9,6.3,7c5.1,4.2,11.4,9.4,14.6,26.3v-46.1c-2-6.3-5.4-9.1-9-12
	c-5.7-4.7-11.9-9.7-13-30.7c0,0,0-0.9,0.4-1c0.4-0.1,0.7,0.7,0.7,0.7c1.4,3,3.7,4.9,6.3,7c5.1,4.2,11.4,9.4,14.6,26.3v-46.1
	c-2-6.3-5.4-9.1-9-12c-5.7-4.7-11.9-9.7-13-30.7c0,0,0-0.9,0.4-1c0.4-0.1,0.7,0.7,0.7,0.7c1.4,3,3.7,4.9,6.3,7
	c5.1,4.2,11.4,9.4,14.6,26.3v-46.1c-2-6.3-5.4-9.1-9-12C7.3,143,1.2,138,0,117c0,0,0-0.9,0.4-1c0.4-0.1,0.7,0.7,0.7,0.7
	c1.4,3,3.7,4.9,6.3,7c5.1,4.2,11.4,9.4,14.6,26.3v-46.1c-2-6.3-5.4-9.1-9-12C7.3,87.2,1.2,82.2,0,61.3c0,0,0-0.9,0.4-1
	C0.8,60.2,1.2,61,1.2,61c1.4,3,3.7,4.9,6.3,7c5.1,4.2,11.4,9.4,14.6,26.3V48.2c-2-6.3-5.4-9.1-9-12C7.3,31.5,1.2,26.5,0,5.5
	c0,0,0-0.9,0.4-1c0.4-0.1,0.7,0.7,0.7,0.7c1.4,3,3.7,4.9,6.3,7c5.1,4.2,11.4,9.4,14.6,26.3V14h4v52.3c3.1-17.1,9.5-22.3,14.6-26.5
	c2.6-2.1,4.9-4,6.3-7c0,0,0.3-0.8,0.8-0.7c0.4,0.1,0.4,1,0.4,1c-1.2,21-7.3,26-13,30.7c-3.6,2.9-7,5.7-9,12.1V122
	c3.1-17.1,9.5-22.3,14.6-26.5c2.6-2.1,4.9-4,6.3-7c0,0,0.3-0.8,0.8-0.7c0.4,0.1,0.4,1,0.4,1c-1.2,21-7.3,26-13,30.7
	c-3.6,2.9-7,5.7-9,12.1v46.2c3.1-17.1,9.5-22.3,14.6-26.5c2.6-2.1,4.9-4,6.3-7c0,0,0.3-0.8,0.8-0.7c0.4,0.1,0.4,1,0.4,1
	c-1.2,21-7.3,26-13,30.7c-3.6,2.9-7,5.7-9,12.1v46.2c3.1-17.1,9.5-22.3,14.6-26.5c2.6-2.1,4.9-4,6.3-7c0,0,0.3-0.8,0.8-0.7
	c0.4,0.1,0.4,1,0.4,1c-1.2,21-7.3,26-13,30.7c-3.6,2.9-7,5.7-9,12.1v46.2c3.1-17.1,9.5-22.3,14.6-26.5c2.6-2.1,4.9-4,6.3-7
	c0,0,0.3-0.8,0.8-0.7c0.4,0.1,0.4,1,0.4,1c-1.2,21-7.3,26-13,30.7c-3.6,2.9-7,5.7-9,12.1V345c3.1-17.1,9.5-22.3,14.6-26.5
	c2.6-2.1,4.9-4,6.3-7c0,0,0.3-0.8,0.8-0.7c0.4,0.1,0.4,1,0.4,1c-1.2,21-7.3,26-13,30.7c-3.6,2.9-7,5.7-9,12.1v46.2
	c3.1-17.1,9.5-22.3,14.6-26.5c2.6-2.1,4.9-4,6.3-7c0,0,0.3-0.8,0.8-0.7c0.4,0.1,0.4,1,0.4,1c-1.2,21-7.3,26-13,30.7
	c-3.6,2.9-7,5.7-9,12.1v46.2c3.1-17.1,9.5-22.3,14.6-26.5c2.6-2.1,4.9-4,6.3-7c0,0,0.3-0.8,0.8-0.7c0.4,0.1,0.4,1,0.4,1
	c-1.2,21-7.3,26-13,30.7c-3.6,2.9-7,5.7-9,12.1v46.2c3.1-17.1,9.5-22.3,14.6-26.5c2.6-2.1,4.9-4,6.3-7c0,0,0.3-0.8,0.8-0.7
	c0.4,0.1,0.4,1,0.4,1c-1.2,21-7.3,26-13,30.7c-3.6,2.9-7,5.7-9,12.1v51c3.1-17.1,9.5-22.3,14.6-26.5c2.6-2.1,4.9-4,6.3-7
	c0,0,0.3-0.8,0.8-0.7c0.4,0.1,0.4,1,0.4,1c-1.2,21-7.3,26-13,30.7c-3.6,2.9-7,5.7-9,12.1v46.2c3.1-17.1,9.5-22.3,14.6-26.5
	c2.6-2.1,4.9-4,6.3-7c0,0,0.3-0.8,0.8-0.7c0.4,0.1,0.4,1,0.4,1c-1.2,21-7.3,26-13,30.7c-3.6,2.9-7,5.7-9,12.1v51
	c3.1-17.1,9.5-22.3,14.6-26.5c2.6-2.1,4.9-4,6.3-7c0,0,0.3-0.8,0.8-0.7c0.4,0.1,0.4,1,0.4,1c-1.2,21-7.3,26-13,30.7
	c-3.6,2.9-7,5.7-9,12.1v46.2c3.1-17.1,9.5-22.3,14.6-26.5c2.6-2.1,4.9-4,6.3-7c0,0,0.3-0.8,0.8-0.7c0.4,0.1,0.4,1,0.4,1
	c-1.2,21-7.3,26-13,30.7c-3.6,2.9-7,5.7-9,12.1v51c3.1-17.1,9.5-22.3,14.6-26.5c2.6-2.1,4.9-4,6.3-7c0,0,0.3-0.8,0.8-0.7
	c0.4,0.1,0.4,1,0.4,1c-1.2,21-7.3,26-13,30.7c-3.6,2.9-7,5.7-9,12.1V842h-2.2c0.1,1.8,0.1,3.8,0.1,5.8c0-2.1-0.1-4-0.2-5.8H22v-9.8
	c-2-6.3-5.4-9.1-9-12c-5.7-4.7-11.9-9.7-13-30.7c0,0,0-0.9,0.4-1c0.4-0.1,0.7,0.7,0.7,0.7c1.4,3,3.7,4.9,6.3,7
	c5.1,4.2,11.4,9.3,14.6,26.3v-48.6c-2-6.3-5.4-9.1-9-12c-5.7-4.7-11.9-9.7-13-30.7c0,0,0-0.9,0.4-1c0.4-0.1,0.7,0.7,0.7,0.7
	c1.4,3,3.7,4.9,6.3,7c5.1,4.2,11.4,9.3,14.6,26.3v-46.1c-2-6.3-5.4-9.1-9-12c-5.7-4.7-11.9-9.7-13-30.7c0,0,0-0.9,0.4-1
	c0.4-0.1,0.7,0.7,0.7,0.7c1.4,3,3.7,4.9,6.3,7c5.1,4.2,11.4,9.3,14.6,26.3v-46.6c-2-6.3-5.4-9.1-9-12c-5.7-4.7-11.9-9.7-13-30.7
	c0,0,0-0.9,0.4-1c0.4-0.1,0.7,0.7,0.7,0.7c1.4,3,3.7,4.9,6.3,7c5.1,4.2,11.4,9.4,14.6,26.3v-46.1c-2-6.3-5.4-9.1-9-12
	c-5.7-4.7-11.9-9.7-13-30.7c0,0,0-0.9,0.4-1c0.4-0.1,0.7,0.7,0.7,0.7c1.4,3,3.7,4.9,6.3,7C12.6,574.4,18.9,579.6,22,596.5z
	 M36.3,35.5c2.2,0,4-1.8,4-4c0-2.2-1.8-4-4-4c-2.2,0-4,1.8-4,4C32.3,33.7,34,35.5,36.3,35.5z M36.3,91.2c2.2,0,4-1.8,4-4s-1.8-4-4-4
	c-2.2,0-4,1.8-4,4S34,91.2,36.3,91.2z M36.3,147c2.2,0,4-1.8,4-4s-1.8-4-4-4c-2.2,0-4,1.8-4,4S34,147,36.3,147z M36.3,202.8
	c2.2,0,4-1.8,4-4s-1.8-4-4-4c-2.2,0-4,1.8-4,4S34,202.8,36.3,202.8z M36.3,258.5c2.2,0,4-1.8,4-4c0-2.2-1.8-4-4-4c-2.2,0-4,1.8-4,4
	C32.3,256.7,34,258.5,36.3,258.5z M36.3,314.2c2.2,0,4-1.8,4-4s-1.8-4-4-4c-2.2,0-4,1.8-4,4S34,314.2,36.3,314.2z M36.3,370
	c2.2,0,4-1.8,4-4c0-2.2-1.8-4-4-4c-2.2,0-4,1.8-4,4C32.3,368.2,34,370,36.3,370z M40.3,421.8c0,2.2-1.8,4-4,4c-2.2,0-4-1.8-4-4
	c0-2.2,1.8-4,4-4C38.5,417.8,40.3,419.5,40.3,421.8z M36.3,542c2.2,0,4-1.8,4-4s-1.8-4-4-4c-2.2,0-4,1.8-4,4S34,542,36.3,542z
	 M40.3,654.2c0,2.2-1.8,4-4,4c-2.2,0-4-1.8-4-4c0-2.2,1.8-4,4-4C38.5,650.2,40.3,652,40.3,654.2z M36.3,774.5c2.2,0,4-1.8,4-4
	c0-2.2-1.8-4-4-4c-2.2,0-4,1.8-4,4C32.3,772.7,34,774.5,36.3,774.5z M36.3,481.5c2.2,0,4-1.8,4-4c0-2.2-1.8-4-4-4c-2.2,0-4,1.8-4,4
	C32.3,479.7,34,481.5,36.3,481.5z M40.3,593.8c0,2.2-1.8,4-4,4c-2.2,0-4-1.8-4-4s1.8-4,4-4C38.5,589.8,40.3,591.5,40.3,593.8z
	 M36.3,714c2.2,0,4-1.8,4-4c0-2.2-1.8-4-4-4c-2.2,0-4,1.8-4,4C32.3,712.2,34,714,36.3,714z M11.8,63.8c-2.2,0-4-1.8-4-4s1.8-4,4-4
	c2.2,0,4,1.8,4,4S14,63.8,11.8,63.8z M11.8,119.5c-2.2,0-4-1.8-4-4s1.8-4,4-4c2.2,0,4,1.8,4,4S14,119.5,11.8,119.5z M11.8,175.2
	c-2.2,0-4-1.8-4-4s1.8-4,4-4c2.2,0,4,1.8,4,4S14,175.2,11.8,175.2z M11.8,231c-2.2,0-4-1.8-4-4s1.8-4,4-4c2.2,0,4,1.8,4,4
	S14,231,11.8,231z M11.8,286.8c-2.2,0-4-1.8-4-4s1.8-4,4-4c2.2,0,4,1.8,4,4S14,286.8,11.8,286.8z M11.8,342.5c-2.2,0-4-1.8-4-4
	c0-2.2,1.8-4,4-4c2.2,0,4,1.8,4,4C15.8,340.7,14,342.5,11.8,342.5z M11.8,398.2c-2.2,0-4-1.8-4-4c0-2.2,1.8-4,4-4c2.2,0,4,1.8,4,4
	C15.8,396.5,14,398.2,11.8,398.2z M11.8,454c-2.2,0-4-1.8-4-4c0-2.2,1.8-4,4-4c2.2,0,4,1.8,4,4C15.8,452.2,14,454,11.8,454z
	 M7.8,562c0,2.2,1.8,4,4,4c2.2,0,4-1.8,4-4s-1.8-4-4-4C9.6,558,7.8,559.8,7.8,562z M11.8,678c-2.2,0-4-1.8-4-4c0-2.2,1.8-4,4-4
	c2.2,0,4,1.8,4,4C15.8,676.2,14,678,11.8,678z M7.8,505.8c0,2.2,1.8,4,4,4c2.2,0,4-1.8,4-4c0-2.2-1.8-4-4-4
	C9.6,501.8,7.8,503.5,7.8,505.8z M11.8,621.8c-2.2,0-4-1.8-4-4s1.8-4,4-4c2.2,0,4,1.8,4,4S14,621.8,11.8,621.8z M7.8,729.8
	c0,2.2,1.8,4,4,4c2.2,0,4-1.8,4-4c0-2.2-1.8-4-4-4C9.6,725.8,7.8,727.5,7.8,729.8z M11.8,792c-2.2,0-4-1.8-4-4s1.8-4,4-4
	c2.2,0,4,1.8,4,4S14,792,11.8,792z"/>
</svg>
