<svg width="48" height="783" viewBox="0 0 48 783" fill="none" xmlns="http://www.w3.org/2000/svg">
<g style="mix-blend-mode:color-dodge" opacity="0.06" clip-path="url(#clip0_223_3715)">
<path fill-rule="evenodd" clip-rule="evenodd" d="M11.7945 -7C9.58533 -7 7.79447 -8.79086 7.79447 -11C7.79447 -13.2091 9.58533 -15 11.7945 -15C14.0036 -15 15.7945 -13.2091 15.7945 -11C15.7945 -8.79086 14.0036 -7 11.7945 -7ZM22 581.515L22 534.901C19.9664 528.574 16.5663 525.8 13.0304 522.916C7.28424 518.229 1.17974 513.25 3.05176e-05 492.25C3.05176e-05 492.25 0.002285 491.324 0.419434 491.25C0.819462 491.18 1.16943 491.971 1.16943 491.971C2.5477 495.01 4.8364 496.881 7.44446 499.013C12.551 503.187 18.8819 508.363 22 525.265L22 479.151C19.9664 472.824 16.5663 470.05 13.0304 467.166C7.28424 462.479 1.17974 457.5 3.05176e-05 436.5C3.05176e-05 436.5 0.002285 435.574 0.419434 435.5C0.819462 435.43 1.16943 436.221 1.16943 436.221C2.5477 439.26 4.83641 441.131 7.44447 443.263C12.5511 447.438 18.882 452.613 22 469.515L22 423.401C19.9664 417.074 16.5663 414.301 13.0304 411.416C7.28428 406.729 1.17978 401.75 6.48499e-05 380.751C6.48499e-05 380.751 0.00231934 379.824 0.419464 379.751C0.819496 379.68 1.16946 380.471 1.16946 380.471C2.54773 383.51 4.83644 385.381 7.4445 387.513C12.5511 391.688 18.8819 396.863 22 413.765L22 367.651C19.9664 361.324 16.5663 358.551 13.0304 355.666C7.28428 350.979 1.17978 346 6.48499e-05 325.001C6.48499e-05 325.001 0.00231934 324.074 0.419464 324.001C0.819496 323.93 1.16946 324.721 1.16946 324.721C2.54773 327.76 4.83644 329.631 7.4445 331.763C12.5511 335.938 18.882 341.113 22 358.015L22 311.901C19.9664 305.574 16.5663 302.8 13.0304 299.916C7.28428 295.229 1.17978 290.25 6.48499e-05 269.25C6.48499e-05 269.25 0.00231934 268.323 0.419464 268.25C0.819496 268.18 1.16946 268.971 1.16946 268.971C2.54773 272.01 4.83644 273.881 7.4445 276.013C12.5511 280.187 18.882 285.363 22 302.265L22 256.151C19.9664 249.824 16.5663 247.05 13.0304 244.166C7.28428 239.479 1.17978 234.5 6.48499e-05 213.5C6.48499e-05 213.5 0.00231934 212.573 0.419464 212.5C0.819496 212.43 1.16946 213.221 1.16946 213.221C2.54773 216.26 4.83644 218.131 7.4445 220.263C12.5511 224.437 18.882 229.613 22 246.515L22 200.401C19.9664 194.074 16.5663 191.3 13.0304 188.416C7.28428 183.729 1.17978 178.75 6.48499e-05 157.75C6.48499e-05 157.75 0.00231934 156.823 0.419464 156.75C0.819496 156.68 1.16946 157.471 1.16946 157.471C2.54773 160.51 4.83644 162.381 7.4445 164.513C12.5511 168.687 18.882 173.863 22 190.765L22 144.651C19.9664 138.324 16.5663 135.55 13.0304 132.666C7.28428 127.979 1.17978 122.999 6.48499e-05 102C6.48499e-05 102 0.00231934 101.073 0.419464 101C0.819496 100.93 1.16946 101.72 1.16946 101.72C2.54773 104.759 4.83644 106.63 7.4445 108.762C12.5511 112.937 18.882 118.113 22 135.015L22 88.9008C19.9664 82.5736 16.5663 79.8001 13.0304 76.9159C7.28428 72.2288 1.17978 67.2493 6.48499e-05 46.2501C6.48499e-05 46.2501 0.00231934 45.3232 0.419464 45.25C0.819496 45.1798 1.16946 45.9705 1.16946 45.9705C2.54773 49.0093 4.83644 50.8804 7.4445 53.0125C12.5511 57.1871 18.882 62.3627 22 79.265L22 33.1508C19.9664 26.8236 16.5663 24.0501 13.0304 21.1659C7.28428 16.4788 1.17978 11.4993 6.48499e-05 -9.49987C6.48499e-05 -9.49987 0.00231934 -10.4268 0.419464 -10.5C0.819496 -10.5702 1.16946 -9.77953 1.16946 -9.77953C2.54773 -6.74068 4.83644 -4.86964 7.4445 -2.73753C12.5511 1.43714 18.882 6.61268 22 23.515L22 -1H26L26 51.2607C29.1018 34.1627 35.4692 28.9573 40.6005 24.7625C43.2085 22.6304 45.4973 20.7593 46.8755 17.7205C46.8755 17.7205 47.2255 16.9298 47.6255 17C48.0427 17.0732 48.0449 18.0001 48.0449 18.0001C46.8652 38.9993 40.7607 43.9788 35.0145 48.6659C31.4525 51.5715 28.0282 54.3647 26 60.792L26 107.011C29.1018 89.9127 35.4692 84.7073 40.6005 80.5125C43.2085 78.3804 45.4973 76.5093 46.8755 73.4705C46.8755 73.4705 47.2255 72.6798 47.6255 72.75C48.0427 72.8232 48.0449 73.7501 48.0449 73.7501C46.8652 94.7493 40.7607 99.7288 35.0145 104.416C31.4525 107.321 28.0282 110.115 26 116.542L26 162.761C29.1018 145.663 35.4692 140.457 40.6005 136.262C43.2085 134.13 45.4973 132.259 46.8755 129.22C46.8755 129.22 47.2255 128.43 47.6255 128.5C48.0427 128.573 48.0449 129.5 48.0449 129.5C46.8652 150.499 40.7607 155.479 35.0145 160.166C31.4525 163.071 28.0282 165.865 26 172.292L26 218.511C29.1018 201.413 35.4692 196.208 40.6005 192.013C43.2085 189.881 45.4973 188.01 46.8755 184.971C46.8755 184.971 47.2255 184.18 47.6255 184.25C48.0427 184.323 48.0449 185.25 48.0449 185.25C46.8652 206.25 40.7607 211.229 35.0145 215.916C31.4525 218.822 28.0282 221.615 26 228.042L26 274.261C29.1018 257.163 35.4692 251.958 40.6005 247.763C43.2085 245.631 45.4973 243.76 46.8755 240.721C46.8755 240.721 47.2255 239.93 47.6255 240C48.0427 240.073 48.0449 241 48.0449 241C46.8652 262 40.7607 266.979 35.0145 271.666C31.4525 274.572 28.0282 277.365 26 283.792L26 330.011C29.1018 312.913 35.4692 307.708 40.6005 303.513C43.2085 301.381 45.4973 299.51 46.8755 296.471C46.8755 296.471 47.2255 295.68 47.6255 295.75C48.0427 295.823 48.0449 296.75 48.0449 296.75C46.8652 317.75 40.7607 322.729 35.0145 327.416C31.4525 330.322 28.0282 333.115 26 339.542L26 385.761C29.1018 368.663 35.4692 363.458 40.6005 359.263C43.2085 357.131 45.4973 355.26 46.8755 352.221C46.8755 352.221 47.2255 351.43 47.6255 351.501C48.0427 351.574 48.0449 352.501 48.0449 352.501C46.8652 373.5 40.7607 378.479 35.0145 383.166C31.4525 386.072 28.0282 388.865 26 395.292L26 441.511C29.1018 424.413 35.4692 419.208 40.6005 415.013C43.2085 412.881 45.4972 411.01 46.8755 407.971C46.8755 407.971 47.2255 407.18 47.6255 407.25C48.0426 407.324 48.0449 408.25 48.0449 408.25C46.8652 429.25 40.7607 434.229 35.0145 438.916C31.4525 441.822 28.0282 444.615 26 451.042L26 497.261C29.1018 480.163 35.4692 474.958 40.6005 470.763C43.2085 468.631 45.4972 466.76 46.8755 463.721C46.8755 463.721 47.2255 462.93 47.6255 463C48.0426 463.074 48.0449 464 48.0449 464C46.8652 485 40.7607 489.979 35.0145 494.666C31.4525 497.572 28.0282 500.365 26 506.792L26 557.76C29.1018 540.662 35.4692 535.457 40.6005 531.262C43.2085 529.13 45.4972 527.259 46.8755 524.22C46.8755 524.22 47.2255 523.43 47.6255 523.5C48.0426 523.573 48.0449 524.5 48.0449 524.5C46.8652 545.499 40.7607 550.479 35.0145 555.166C31.4525 558.071 28.0282 560.865 26 567.292L26 613.51C29.1018 596.412 35.4692 591.207 40.6005 587.012C43.2085 584.88 45.4972 583.009 46.8755 579.97C46.8755 579.97 47.2255 579.18 47.6255 579.25C48.0426 579.323 48.0449 580.25 48.0449 580.25C46.8652 601.249 40.7607 606.229 35.0145 610.916C31.4525 613.821 28.0282 616.615 26 623.042L26 674.01C29.1018 656.912 35.4692 651.707 40.6005 647.512C43.2085 645.38 45.4972 643.509 46.8755 640.47C46.8755 640.47 47.2255 639.679 47.6255 639.749C48.0426 639.823 48.0449 640.75 48.0449 640.75C46.8652 661.749 40.7607 666.728 35.0145 671.415C31.4525 674.321 28.0282 677.114 26 683.541L26 729.76C29.1018 712.662 35.4692 707.457 40.6005 703.262C43.2085 701.13 45.4972 699.259 46.8755 696.22C46.8755 696.22 47.2255 695.429 47.6255 695.499C48.0426 695.573 48.0449 696.5 48.0449 696.5C46.8652 717.499 40.7607 722.478 35.0145 727.165C31.4525 730.071 28.0282 732.864 26 739.291L26 790.26C29.1018 773.162 35.4692 767.956 40.6005 763.761C43.2085 761.629 45.4972 759.758 46.8755 756.719C46.8755 756.719 47.2255 755.929 47.6255 755.999C48.0426 756.072 48.0449 756.999 48.0449 756.999C46.8652 777.998 40.7607 782.978 35.0145 787.665C31.4525 790.57 28.0282 793.364 26 799.791L26 827H23.8431C23.8934 828.836 23.9194 830.751 23.9194 832.75C23.9194 830.66 23.8536 828.751 23.7288 827H22V817.151C19.9664 810.823 16.5662 808.05 13.0304 805.166C7.28424 800.479 1.17974 795.499 3.05176e-05 774.5C3.05176e-05 774.5 0.002285 773.573 0.419434 773.5C0.819462 773.43 1.16943 774.22 1.16943 774.22C2.5477 777.259 4.83641 779.13 7.44447 781.262C12.551 785.437 18.8819 790.612 22 807.515L22 758.9C19.9664 752.573 16.5663 749.799 13.0304 746.915C7.28424 742.228 1.17974 737.249 3.05176e-05 716.25C3.05176e-05 716.25 0.002285 715.323 0.419434 715.249C0.819462 715.179 1.16943 715.97 1.16943 715.97C2.5477 719.009 4.83641 720.88 7.44447 723.012C12.551 727.186 18.8819 732.362 22 749.264L22 703.15C19.9664 696.823 16.5663 694.049 13.0304 691.165C7.28424 686.478 1.17974 681.499 3.05176e-05 660.5C3.05176e-05 660.5 0.002285 659.573 0.419434 659.499C0.819462 659.429 1.16943 660.22 1.16943 660.22C2.5477 663.259 4.83641 665.13 7.44447 667.262C12.5511 671.436 18.8819 676.612 22 693.514L22 646.901C19.9664 640.573 16.5663 637.8 13.0304 634.916C7.28424 630.229 1.17974 625.249 3.05176e-05 604.25C3.05176e-05 604.25 0.002285 603.323 0.419434 603.25C0.819462 603.18 1.16943 603.97 1.16943 603.97C2.5477 607.009 4.83641 608.88 7.44447 611.012C12.5511 615.187 18.8819 620.363 22 637.265L22 591.151C19.9664 584.823 16.5663 582.05 13.0304 579.166C7.28424 574.479 1.17974 569.499 3.05176e-05 548.5C3.05176e-05 548.5 0.002285 547.573 0.419434 547.5C0.819462 547.43 1.16943 548.22 1.16943 548.22C2.5477 551.259 4.83641 553.13 7.44447 555.262C12.5511 559.437 18.8819 564.612 22 581.515ZM36.2505 20.5C38.4597 20.5 40.2505 18.7091 40.2505 16.5C40.2505 14.2909 38.4597 12.5 36.2505 12.5C34.0414 12.5 32.2505 14.2909 32.2505 16.5C32.2505 18.7091 34.0414 20.5 36.2505 20.5ZM36.2505 76.25C38.4597 76.25 40.2505 74.4591 40.2505 72.25C40.2505 70.0409 38.4597 68.25 36.2505 68.25C34.0414 68.25 32.2505 70.0409 32.2505 72.25C32.2505 74.4591 34.0414 76.25 36.2505 76.25ZM36.2505 132C38.4597 132 40.2505 130.209 40.2505 128C40.2505 125.791 38.4597 124 36.2505 124C34.0414 124 32.2505 125.791 32.2505 128C32.2505 130.209 34.0414 132 36.2505 132ZM36.2505 187.75C38.4597 187.75 40.2505 185.959 40.2505 183.75C40.2505 181.541 38.4597 179.75 36.2505 179.75C34.0414 179.75 32.2505 181.541 32.2505 183.75C32.2505 185.959 34.0414 187.75 36.2505 187.75ZM36.2505 243.5C38.4597 243.5 40.2505 241.709 40.2505 239.5C40.2505 237.291 38.4597 235.5 36.2505 235.5C34.0414 235.5 32.2505 237.291 32.2505 239.5C32.2505 241.709 34.0414 243.5 36.2505 243.5ZM36.2505 299.25C38.4597 299.25 40.2505 297.459 40.2505 295.25C40.2505 293.041 38.4597 291.25 36.2505 291.25C34.0414 291.25 32.2505 293.041 32.2505 295.25C32.2505 297.459 34.0414 299.25 36.2505 299.25ZM36.2505 355C38.4597 355 40.2505 353.21 40.2505 351C40.2505 348.791 38.4597 347 36.2505 347C34.0414 347 32.2505 348.791 32.2505 351C32.2505 353.21 34.0414 355 36.2505 355ZM40.2505 406.75C40.2505 408.96 38.4596 410.75 36.2505 410.75C34.0413 410.75 32.2505 408.96 32.2505 406.75C32.2505 404.541 34.0413 402.75 36.2505 402.75C38.4596 402.75 40.2505 404.541 40.2505 406.75ZM36.2505 527C38.4596 527 40.2505 525.209 40.2505 523C40.2505 520.791 38.4596 519 36.2505 519C34.0413 519 32.2505 520.791 32.2505 523C32.2505 525.209 34.0413 527 36.2505 527ZM40.2505 639.25C40.2505 641.459 38.4596 643.25 36.2505 643.25C34.0413 643.25 32.2505 641.459 32.2505 639.25C32.2505 637.04 34.0413 635.25 36.2505 635.25C38.4596 635.25 40.2505 637.04 40.2505 639.25ZM36.2505 759.499C38.4596 759.499 40.2505 757.708 40.2505 755.499C40.2505 753.29 38.4596 751.499 36.2505 751.499C34.0413 751.499 32.2505 753.29 32.2505 755.499C32.2505 757.708 34.0413 759.499 36.2505 759.499ZM36.2505 466.5C38.4596 466.5 40.2505 464.71 40.2505 462.5C40.2505 460.291 38.4596 458.5 36.2505 458.5C34.0413 458.5 32.2505 460.291 32.2505 462.5C32.2505 464.71 34.0413 466.5 36.2505 466.5ZM40.2505 578.75C40.2505 580.959 38.4596 582.75 36.2505 582.75C34.0413 582.75 32.2505 580.959 32.2505 578.75C32.2505 576.541 34.0413 574.75 36.2505 574.75C38.4596 574.75 40.2505 576.541 40.2505 578.75ZM36.2505 699C38.4596 699 40.2505 697.209 40.2505 695C40.2505 692.79 38.4596 691 36.2505 691C34.0413 691 32.2505 692.79 32.2505 695C32.2505 697.209 34.0413 699 36.2505 699ZM11.7945 48.75C9.58533 48.75 7.79447 46.9591 7.79447 44.75C7.79447 42.5409 9.58533 40.75 11.7945 40.75C14.0036 40.75 15.7945 42.5409 15.7945 44.75C15.7945 46.9591 14.0036 48.75 11.7945 48.75ZM11.7945 104.5C9.58533 104.5 7.79447 102.709 7.79447 100.5C7.79447 98.2909 9.58533 96.5 11.7945 96.5C14.0036 96.5 15.7945 98.2909 15.7945 100.5C15.7945 102.709 14.0036 104.5 11.7945 104.5ZM11.7945 160.25C9.58533 160.25 7.79447 158.459 7.79447 156.25C7.79447 154.041 9.58533 152.25 11.7945 152.25C14.0036 152.25 15.7945 154.041 15.7945 156.25C15.7945 158.459 14.0036 160.25 11.7945 160.25ZM11.7945 216C9.58533 216 7.79447 214.209 7.79447 212C7.79447 209.791 9.58533 208 11.7945 208C14.0036 208 15.7945 209.791 15.7945 212C15.7945 214.209 14.0036 216 11.7945 216ZM11.7945 271.75C9.58533 271.75 7.79447 269.959 7.79447 267.75C7.79447 265.541 9.58533 263.75 11.7945 263.75C14.0036 263.75 15.7945 265.541 15.7945 267.75C15.7945 269.959 14.0036 271.75 11.7945 271.75ZM11.7945 327.5C9.58533 327.5 7.79447 325.71 7.79447 323.5C7.79447 321.291 9.58533 319.5 11.7945 319.5C14.0036 319.5 15.7945 321.291 15.7945 323.5C15.7945 325.71 14.0036 327.5 11.7945 327.5ZM11.7945 383.25C9.58533 383.25 7.79447 381.46 7.79447 379.25C7.79447 377.041 9.58533 375.25 11.7945 375.25C14.0036 375.25 15.7945 377.041 15.7945 379.25C15.7945 381.46 14.0036 383.25 11.7945 383.25ZM11.7944 439C9.58529 439 7.79443 437.21 7.79443 435C7.79443 432.791 9.58529 431 11.7944 431C14.0036 431 15.7944 432.791 15.7944 435C15.7944 437.21 14.0036 439 11.7944 439ZM7.79443 547C7.79443 549.209 9.58529 551 11.7944 551C14.0036 551 15.7944 549.209 15.7944 547C15.7944 544.791 14.0036 543 11.7944 543C9.58529 543 7.79443 544.791 7.79443 547ZM11.7944 663C9.58529 663 7.79443 661.209 7.79443 659C7.79443 656.79 9.58529 655 11.7944 655C14.0036 655 15.7944 656.79 15.7944 659C15.7944 661.209 14.0036 663 11.7944 663ZM7.79443 490.75C7.79443 492.96 9.58529 494.75 11.7944 494.75C14.0036 494.75 15.7944 492.96 15.7944 490.75C15.7944 488.541 14.0036 486.75 11.7944 486.75C9.58529 486.75 7.79443 488.541 7.79443 490.75ZM11.7944 606.75C9.58529 606.75 7.79443 604.959 7.79443 602.75C7.79443 600.541 9.58529 598.75 11.7944 598.75C14.0036 598.75 15.7944 600.541 15.7944 602.75C15.7944 604.959 14.0036 606.75 11.7944 606.75ZM7.79443 714.75C7.79443 716.959 9.58529 718.75 11.7944 718.75C14.0036 718.75 15.7944 716.959 15.7944 714.75C15.7944 712.54 14.0036 710.75 11.7944 710.75C9.58529 710.75 7.79443 712.54 7.79443 714.75ZM11.7944 777C9.58529 777 7.79443 775.209 7.79443 773C7.79443 770.791 9.58529 769 11.7944 769C14.0036 769 15.7944 770.791 15.7944 773C15.7944 775.209 14.0036 777 11.7944 777Z" fill="#EFEBE6"/>
</g>
<defs>
<clipPath id="clip0_223_3715">
<rect width="48" height="783" fill="white"/>
</clipPath>
</defs>
</svg>
