<svg width="49" height="810" viewBox="0 0 49 810" fill="none" xmlns="http://www.w3.org/2000/svg">
<path fill-rule="evenodd" clip-rule="evenodd" d="M11.7945 -15C9.58533 -15 7.79447 -16.7909 7.79447 -19C7.79447 -21.2091 9.58533 -23 11.7945 -23C14.0036 -23 15.7945 -21.2091 15.7945 -19C15.7945 -16.7909 14.0036 -15 11.7945 -15ZM22 573.515L22 526.901C19.9664 520.574 16.5663 517.8 13.0304 514.916C7.28424 510.229 1.17974 505.25 3.05176e-05 484.25C3.05176e-05 484.25 0.002285 483.324 0.419434 483.25C0.819462 483.18 1.16943 483.971 1.16943 483.971C2.5477 487.01 4.8364 488.881 7.44446 491.013C12.551 495.187 18.8819 500.363 22 517.265L22 471.151C19.9664 464.824 16.5663 462.05 13.0304 459.166C7.28424 454.479 1.17974 449.5 3.05176e-05 428.5C3.05176e-05 428.5 0.002285 427.574 0.419434 427.5C0.819462 427.43 1.16943 428.221 1.16943 428.221C2.5477 431.26 4.83641 433.131 7.44447 435.263C12.5511 439.438 18.882 444.613 22 461.515L22 415.401C19.9664 409.074 16.5663 406.301 13.0304 403.416C7.28428 398.729 1.17978 393.75 6.48499e-05 372.751C6.48499e-05 372.751 0.00231934 371.824 0.419464 371.751C0.819496 371.68 1.16946 372.471 1.16946 372.471C2.54773 375.51 4.83644 377.381 7.4445 379.513C12.5511 383.688 18.8819 388.863 22 405.765L22 359.651C19.9664 353.324 16.5663 350.551 13.0304 347.666C7.28428 342.979 1.17978 338 6.48499e-05 317.001C6.48499e-05 317.001 0.00231934 316.074 0.419464 316.001C0.819496 315.93 1.16946 316.721 1.16946 316.721C2.54773 319.76 4.83644 321.631 7.4445 323.763C12.5511 327.938 18.882 333.113 22 350.015L22 303.901C19.9664 297.574 16.5663 294.8 13.0304 291.916C7.28428 287.229 1.17978 282.25 6.48499e-05 261.25C6.48499e-05 261.25 0.00231934 260.323 0.419464 260.25C0.819496 260.18 1.16946 260.971 1.16946 260.971C2.54773 264.01 4.83644 265.881 7.4445 268.013C12.5511 272.187 18.882 277.363 22 294.265L22 248.151C19.9664 241.824 16.5663 239.05 13.0304 236.166C7.28428 231.479 1.17978 226.5 6.48499e-05 205.5C6.48499e-05 205.5 0.00231934 204.573 0.419464 204.5C0.819496 204.43 1.16946 205.221 1.16946 205.221C2.54773 208.26 4.83644 210.131 7.4445 212.263C12.5511 216.437 18.882 221.613 22 238.515L22 192.401C19.9664 186.074 16.5663 183.3 13.0304 180.416C7.28428 175.729 1.17978 170.75 6.48499e-05 149.75C6.48499e-05 149.75 0.00231934 148.823 0.419464 148.75C0.819496 148.68 1.16946 149.471 1.16946 149.471C2.54773 152.51 4.83644 154.381 7.4445 156.513C12.5511 160.687 18.882 165.863 22 182.765L22 136.651C19.9664 130.324 16.5663 127.55 13.0304 124.666C7.28428 119.979 1.17978 114.999 6.48499e-05 94.0001C6.48499e-05 94.0001 0.00231934 93.0732 0.419464 93C0.819496 92.9298 1.16946 93.7205 1.16946 93.7205C2.54773 96.7593 4.83644 98.6304 7.4445 100.762C12.5511 104.937 18.882 110.113 22 127.015L22 80.9008C19.9664 74.5736 16.5663 71.8001 13.0304 68.9159C7.28428 64.2288 1.17978 59.2493 6.48499e-05 38.2501C6.48499e-05 38.2501 0.00231934 37.3232 0.419464 37.25C0.819496 37.1798 1.16946 37.9705 1.16946 37.9705C2.54773 41.0093 4.83644 42.8804 7.4445 45.0125C12.5511 49.1871 18.882 54.3627 22 71.265L22 25.1508C19.9664 18.8236 16.5663 16.0501 13.0304 13.1659C7.28428 8.47876 1.17978 3.49931 6.48499e-05 -17.4999C6.48499e-05 -17.4999 0.00231934 -18.4268 0.419464 -18.5C0.819496 -18.5702 1.16946 -17.7795 1.16946 -17.7795C2.54773 -14.7407 4.83644 -12.8696 7.4445 -10.7375C12.5511 -6.56286 18.882 -1.38732 22 15.515L22 -9H26L26 43.2607C29.1018 26.1627 35.4692 20.9573 40.6005 16.7625C43.2085 14.6304 45.4973 12.7593 46.8755 9.72047C46.8755 9.72047 47.2255 8.92983 47.6255 9.00002C48.0427 9.0732 48.0449 10.0001 48.0449 10.0001C46.8652 30.9993 40.7607 35.9788 35.0145 40.6659C31.4525 43.5715 28.0282 46.3647 26 52.792L26 99.0107C29.1018 81.9127 35.4692 76.7073 40.6005 72.5125C43.2085 70.3804 45.4973 68.5093 46.8755 65.4705C46.8755 65.4705 47.2255 64.6798 47.6255 64.75C48.0427 64.8232 48.0449 65.7501 48.0449 65.7501C46.8652 86.7493 40.7607 91.7288 35.0145 96.4159C31.4525 99.3215 28.0282 102.115 26 108.542L26 154.761C29.1018 137.663 35.4692 132.457 40.6005 128.262C43.2085 126.13 45.4973 124.259 46.8755 121.22C46.8755 121.22 47.2255 120.43 47.6255 120.5C48.0427 120.573 48.0449 121.5 48.0449 121.5C46.8652 142.499 40.7607 147.479 35.0145 152.166C31.4525 155.071 28.0282 157.865 26 164.292L26 210.511C29.1018 193.413 35.4692 188.208 40.6005 184.013C43.2085 181.881 45.4973 180.01 46.8755 176.971C46.8755 176.971 47.2255 176.18 47.6255 176.25C48.0427 176.323 48.0449 177.25 48.0449 177.25C46.8652 198.25 40.7607 203.229 35.0145 207.916C31.4525 210.822 28.0282 213.615 26 220.042L26 266.261C29.1018 249.163 35.4692 243.958 40.6005 239.763C43.2085 237.631 45.4973 235.76 46.8755 232.721C46.8755 232.721 47.2255 231.93 47.6255 232C48.0427 232.073 48.0449 233 48.0449 233C46.8652 254 40.7607 258.979 35.0145 263.666C31.4525 266.572 28.0282 269.365 26 275.792L26 322.011C29.1018 304.913 35.4692 299.708 40.6005 295.513C43.2085 293.381 45.4973 291.51 46.8755 288.471C46.8755 288.471 47.2255 287.68 47.6255 287.75C48.0427 287.823 48.0449 288.75 48.0449 288.75C46.8652 309.75 40.7607 314.729 35.0145 319.416C31.4525 322.322 28.0282 325.115 26 331.542L26 377.761C29.1018 360.663 35.4692 355.458 40.6005 351.263C43.2085 349.131 45.4973 347.26 46.8755 344.221C46.8755 344.221 47.2255 343.43 47.6255 343.501C48.0427 343.574 48.0449 344.501 48.0449 344.501C46.8652 365.5 40.7607 370.479 35.0145 375.166C31.4525 378.072 28.0282 380.865 26 387.292L26 433.511C29.1018 416.413 35.4692 411.208 40.6005 407.013C43.2085 404.881 45.4972 403.01 46.8755 399.971C46.8755 399.971 47.2255 399.18 47.6255 399.25C48.0426 399.324 48.0449 400.25 48.0449 400.25C46.8652 421.25 40.7607 426.229 35.0145 430.916C31.4525 433.822 28.0282 436.615 26 443.042L26 489.261C29.1018 472.163 35.4692 466.958 40.6005 462.763C43.2085 460.631 45.4972 458.76 46.8755 455.721C46.8755 455.721 47.2255 454.93 47.6255 455C48.0426 455.074 48.0449 456 48.0449 456C46.8652 477 40.7607 481.979 35.0145 486.666C31.4525 489.572 28.0282 492.365 26 498.792L26 549.76C29.1018 532.662 35.4692 527.457 40.6005 523.262C43.2085 521.13 45.4972 519.259 46.8755 516.22C46.8755 516.22 47.2255 515.43 47.6255 515.5C48.0426 515.573 48.0449 516.5 48.0449 516.5C46.8652 537.499 40.7607 542.479 35.0145 547.166C31.4525 550.071 28.0282 552.865 26 559.292L26 605.51C29.1018 588.412 35.4692 583.207 40.6005 579.012C43.2085 576.88 45.4972 575.009 46.8755 571.97C46.8755 571.97 47.2255 571.18 47.6255 571.25C48.0426 571.323 48.0449 572.25 48.0449 572.25C46.8652 593.249 40.7607 598.229 35.0145 602.916C31.4525 605.821 28.0282 608.615 26 615.042L26 666.01C29.1018 648.912 35.4692 643.707 40.6005 639.512C43.2085 637.38 45.4972 635.509 46.8755 632.47C46.8755 632.47 47.2255 631.679 47.6255 631.749C48.0426 631.823 48.0449 632.75 48.0449 632.75C46.8652 653.749 40.7607 658.728 35.0145 663.415C31.4525 666.321 28.0282 669.114 26 675.541L26 721.76C29.1018 704.662 35.4692 699.457 40.6005 695.262C43.2085 693.13 45.4972 691.259 46.8755 688.22C46.8755 688.22 47.2255 687.429 47.6255 687.499C48.0426 687.573 48.0449 688.5 48.0449 688.5C46.8652 709.499 40.7607 714.478 35.0145 719.165C31.4525 722.071 28.0282 724.864 26 731.291L26 782.26C29.1018 765.162 35.4692 759.956 40.6005 755.761C43.2085 753.629 45.4972 751.758 46.8755 748.719C46.8755 748.719 47.2255 747.929 47.6255 747.999C48.0426 748.072 48.0449 748.999 48.0449 748.999C46.8652 769.998 40.7607 774.978 35.0145 779.665C31.4525 782.57 28.0282 785.364 26 791.791L26 819H23.8431C23.8934 820.836 23.9194 822.751 23.9194 824.75C23.9194 822.66 23.8536 820.751 23.7288 819H22V809.151C19.9664 802.823 16.5662 800.05 13.0304 797.166C7.28424 792.479 1.17974 787.499 3.05176e-05 766.5C3.05176e-05 766.5 0.002285 765.573 0.419434 765.5C0.819462 765.43 1.16943 766.22 1.16943 766.22C2.5477 769.259 4.83641 771.13 7.44447 773.262C12.551 777.437 18.8819 782.612 22 799.515L22 750.9C19.9664 744.573 16.5663 741.799 13.0304 738.915C7.28424 734.228 1.17974 729.249 3.05176e-05 708.25C3.05176e-05 708.25 0.002285 707.323 0.419434 707.249C0.819462 707.179 1.16943 707.97 1.16943 707.97C2.5477 711.009 4.83641 712.88 7.44447 715.012C12.551 719.186 18.8819 724.362 22 741.264L22 695.15C19.9664 688.823 16.5663 686.049 13.0304 683.165C7.28424 678.478 1.17974 673.499 3.05176e-05 652.5C3.05176e-05 652.5 0.002285 651.573 0.419434 651.499C0.819462 651.429 1.16943 652.22 1.16943 652.22C2.5477 655.259 4.83641 657.13 7.44447 659.262C12.5511 663.436 18.8819 668.612 22 685.514L22 638.901C19.9664 632.573 16.5663 629.8 13.0304 626.916C7.28424 622.229 1.17974 617.249 3.05176e-05 596.25C3.05176e-05 596.25 0.002285 595.323 0.419434 595.25C0.819462 595.18 1.16943 595.97 1.16943 595.97C2.5477 599.009 4.83641 600.88 7.44447 603.012C12.5511 607.187 18.8819 612.363 22 629.265L22 583.151C19.9664 576.823 16.5663 574.05 13.0304 571.166C7.28424 566.479 1.17974 561.499 3.05176e-05 540.5C3.05176e-05 540.5 0.002285 539.573 0.419434 539.5C0.819462 539.43 1.16943 540.22 1.16943 540.22C2.5477 543.259 4.83641 545.13 7.44447 547.262C12.5511 551.437 18.8819 556.612 22 573.515ZM36.2505 12.5C38.4597 12.5 40.2505 10.7091 40.2505 8.5C40.2505 6.29086 38.4597 4.5 36.2505 4.5C34.0414 4.5 32.2505 6.29086 32.2505 8.5C32.2505 10.7091 34.0414 12.5 36.2505 12.5ZM36.2505 68.25C38.4597 68.25 40.2505 66.4591 40.2505 64.25C40.2505 62.0409 38.4597 60.25 36.2505 60.25C34.0414 60.25 32.2505 62.0409 32.2505 64.25C32.2505 66.4591 34.0414 68.25 36.2505 68.25ZM36.2505 124C38.4597 124 40.2505 122.209 40.2505 120C40.2505 117.791 38.4597 116 36.2505 116C34.0414 116 32.2505 117.791 32.2505 120C32.2505 122.209 34.0414 124 36.2505 124ZM36.2505 179.75C38.4597 179.75 40.2505 177.959 40.2505 175.75C40.2505 173.541 38.4597 171.75 36.2505 171.75C34.0414 171.75 32.2505 173.541 32.2505 175.75C32.2505 177.959 34.0414 179.75 36.2505 179.75ZM36.2505 235.5C38.4597 235.5 40.2505 233.709 40.2505 231.5C40.2505 229.291 38.4597 227.5 36.2505 227.5C34.0414 227.5 32.2505 229.291 32.2505 231.5C32.2505 233.709 34.0414 235.5 36.2505 235.5ZM36.2505 291.25C38.4597 291.25 40.2505 289.459 40.2505 287.25C40.2505 285.041 38.4597 283.25 36.2505 283.25C34.0414 283.25 32.2505 285.041 32.2505 287.25C32.2505 289.459 34.0414 291.25 36.2505 291.25ZM36.2505 347C38.4597 347 40.2505 345.21 40.2505 343C40.2505 340.791 38.4597 339 36.2505 339C34.0414 339 32.2505 340.791 32.2505 343C32.2505 345.21 34.0414 347 36.2505 347ZM40.2505 398.75C40.2505 400.96 38.4596 402.75 36.2505 402.75C34.0413 402.75 32.2505 400.96 32.2505 398.75C32.2505 396.541 34.0413 394.75 36.2505 394.75C38.4596 394.75 40.2505 396.541 40.2505 398.75ZM36.2505 519C38.4596 519 40.2505 517.209 40.2505 515C40.2505 512.791 38.4596 511 36.2505 511C34.0413 511 32.2505 512.791 32.2505 515C32.2505 517.209 34.0413 519 36.2505 519ZM40.2505 631.25C40.2505 633.459 38.4596 635.25 36.2505 635.25C34.0413 635.25 32.2505 633.459 32.2505 631.25C32.2505 629.04 34.0413 627.25 36.2505 627.25C38.4596 627.25 40.2505 629.04 40.2505 631.25ZM36.2505 751.499C38.4596 751.499 40.2505 749.708 40.2505 747.499C40.2505 745.29 38.4596 743.499 36.2505 743.499C34.0413 743.499 32.2505 745.29 32.2505 747.499C32.2505 749.708 34.0413 751.499 36.2505 751.499ZM36.2505 458.5C38.4596 458.5 40.2505 456.71 40.2505 454.5C40.2505 452.291 38.4596 450.5 36.2505 450.5C34.0413 450.5 32.2505 452.291 32.2505 454.5C32.2505 456.71 34.0413 458.5 36.2505 458.5ZM40.2505 570.75C40.2505 572.959 38.4596 574.75 36.2505 574.75C34.0413 574.75 32.2505 572.959 32.2505 570.75C32.2505 568.541 34.0413 566.75 36.2505 566.75C38.4596 566.75 40.2505 568.541 40.2505 570.75ZM36.2505 691C38.4596 691 40.2505 689.209 40.2505 687C40.2505 684.79 38.4596 683 36.2505 683C34.0413 683 32.2505 684.79 32.2505 687C32.2505 689.209 34.0413 691 36.2505 691ZM11.7945 40.75C9.58533 40.75 7.79447 38.9591 7.79447 36.75C7.79447 34.5409 9.58533 32.75 11.7945 32.75C14.0036 32.75 15.7945 34.5409 15.7945 36.75C15.7945 38.9591 14.0036 40.75 11.7945 40.75ZM11.7945 96.5C9.58533 96.5 7.79447 94.7091 7.79447 92.5C7.79447 90.2909 9.58533 88.5 11.7945 88.5C14.0036 88.5 15.7945 90.2909 15.7945 92.5C15.7945 94.7091 14.0036 96.5 11.7945 96.5ZM11.7945 152.25C9.58533 152.25 7.79447 150.459 7.79447 148.25C7.79447 146.041 9.58533 144.25 11.7945 144.25C14.0036 144.25 15.7945 146.041 15.7945 148.25C15.7945 150.459 14.0036 152.25 11.7945 152.25ZM11.7945 208C9.58533 208 7.79447 206.209 7.79447 204C7.79447 201.791 9.58533 200 11.7945 200C14.0036 200 15.7945 201.791 15.7945 204C15.7945 206.209 14.0036 208 11.7945 208ZM11.7945 263.75C9.58533 263.75 7.79447 261.959 7.79447 259.75C7.79447 257.541 9.58533 255.75 11.7945 255.75C14.0036 255.75 15.7945 257.541 15.7945 259.75C15.7945 261.959 14.0036 263.75 11.7945 263.75ZM11.7945 319.5C9.58533 319.5 7.79447 317.71 7.79447 315.5C7.79447 313.291 9.58533 311.5 11.7945 311.5C14.0036 311.5 15.7945 313.291 15.7945 315.5C15.7945 317.71 14.0036 319.5 11.7945 319.5ZM11.7945 375.25C9.58533 375.25 7.79447 373.46 7.79447 371.25C7.79447 369.041 9.58533 367.25 11.7945 367.25C14.0036 367.25 15.7945 369.041 15.7945 371.25C15.7945 373.46 14.0036 375.25 11.7945 375.25ZM11.7944 431C9.58529 431 7.79443 429.21 7.79443 427C7.79443 424.791 9.58529 423 11.7944 423C14.0036 423 15.7944 424.791 15.7944 427C15.7944 429.21 14.0036 431 11.7944 431ZM7.79443 539C7.79443 541.209 9.58529 543 11.7944 543C14.0036 543 15.7944 541.209 15.7944 539C15.7944 536.791 14.0036 535 11.7944 535C9.58529 535 7.79443 536.791 7.79443 539ZM11.7944 655C9.58529 655 7.79443 653.209 7.79443 651C7.79443 648.79 9.58529 647 11.7944 647C14.0036 647 15.7944 648.79 15.7944 651C15.7944 653.209 14.0036 655 11.7944 655ZM7.79443 482.75C7.79443 484.96 9.58529 486.75 11.7944 486.75C14.0036 486.75 15.7944 484.96 15.7944 482.75C15.7944 480.541 14.0036 478.75 11.7944 478.75C9.58529 478.75 7.79443 480.541 7.79443 482.75ZM11.7944 598.75C9.58529 598.75 7.79443 596.959 7.79443 594.75C7.79443 592.541 9.58529 590.75 11.7944 590.75C14.0036 590.75 15.7944 592.541 15.7944 594.75C15.7944 596.959 14.0036 598.75 11.7944 598.75ZM7.79443 706.75C7.79443 708.959 9.58529 710.75 11.7944 710.75C14.0036 710.75 15.7944 708.959 15.7944 706.75C15.7944 704.54 14.0036 702.75 11.7944 702.75C9.58529 702.75 7.79443 704.54 7.79443 706.75ZM11.7944 769C9.58529 769 7.79443 767.209 7.79443 765C7.79443 762.791 9.58529 761 11.7944 761C14.0036 761 15.7944 762.791 15.7944 765C15.7944 767.209 14.0036 769 11.7944 769Z" fill="#13080E"/>
<path fill-rule="evenodd" clip-rule="evenodd" d="M11.7945 -15C9.58533 -15 7.79447 -16.7909 7.79447 -19C7.79447 -21.2091 9.58533 -23 11.7945 -23C14.0036 -23 15.7945 -21.2091 15.7945 -19C15.7945 -16.7909 14.0036 -15 11.7945 -15ZM22 573.515L22 526.901C19.9664 520.574 16.5663 517.8 13.0304 514.916C7.28424 510.229 1.17974 505.25 3.05176e-05 484.25C3.05176e-05 484.25 0.002285 483.324 0.419434 483.25C0.819462 483.18 1.16943 483.971 1.16943 483.971C2.5477 487.01 4.8364 488.881 7.44446 491.013C12.551 495.187 18.8819 500.363 22 517.265L22 471.151C19.9664 464.824 16.5663 462.05 13.0304 459.166C7.28424 454.479 1.17974 449.5 3.05176e-05 428.5C3.05176e-05 428.5 0.002285 427.574 0.419434 427.5C0.819462 427.43 1.16943 428.221 1.16943 428.221C2.5477 431.26 4.83641 433.131 7.44447 435.263C12.5511 439.438 18.882 444.613 22 461.515L22 415.401C19.9664 409.074 16.5663 406.301 13.0304 403.416C7.28428 398.729 1.17978 393.75 6.48499e-05 372.751C6.48499e-05 372.751 0.00231934 371.824 0.419464 371.751C0.819496 371.68 1.16946 372.471 1.16946 372.471C2.54773 375.51 4.83644 377.381 7.4445 379.513C12.5511 383.688 18.8819 388.863 22 405.765L22 359.651C19.9664 353.324 16.5663 350.551 13.0304 347.666C7.28428 342.979 1.17978 338 6.48499e-05 317.001C6.48499e-05 317.001 0.00231934 316.074 0.419464 316.001C0.819496 315.93 1.16946 316.721 1.16946 316.721C2.54773 319.76 4.83644 321.631 7.4445 323.763C12.5511 327.938 18.882 333.113 22 350.015L22 303.901C19.9664 297.574 16.5663 294.8 13.0304 291.916C7.28428 287.229 1.17978 282.25 6.48499e-05 261.25C6.48499e-05 261.25 0.00231934 260.323 0.419464 260.25C0.819496 260.18 1.16946 260.971 1.16946 260.971C2.54773 264.01 4.83644 265.881 7.4445 268.013C12.5511 272.187 18.882 277.363 22 294.265L22 248.151C19.9664 241.824 16.5663 239.05 13.0304 236.166C7.28428 231.479 1.17978 226.5 6.48499e-05 205.5C6.48499e-05 205.5 0.00231934 204.573 0.419464 204.5C0.819496 204.43 1.16946 205.221 1.16946 205.221C2.54773 208.26 4.83644 210.131 7.4445 212.263C12.5511 216.437 18.882 221.613 22 238.515L22 192.401C19.9664 186.074 16.5663 183.3 13.0304 180.416C7.28428 175.729 1.17978 170.75 6.48499e-05 149.75C6.48499e-05 149.75 0.00231934 148.823 0.419464 148.75C0.819496 148.68 1.16946 149.471 1.16946 149.471C2.54773 152.51 4.83644 154.381 7.4445 156.513C12.5511 160.687 18.882 165.863 22 182.765L22 136.651C19.9664 130.324 16.5663 127.55 13.0304 124.666C7.28428 119.979 1.17978 114.999 6.48499e-05 94.0001C6.48499e-05 94.0001 0.00231934 93.0732 0.419464 93C0.819496 92.9298 1.16946 93.7205 1.16946 93.7205C2.54773 96.7593 4.83644 98.6304 7.4445 100.762C12.5511 104.937 18.882 110.113 22 127.015L22 80.9008C19.9664 74.5736 16.5663 71.8001 13.0304 68.9159C7.28428 64.2288 1.17978 59.2493 6.48499e-05 38.2501C6.48499e-05 38.2501 0.00231934 37.3232 0.419464 37.25C0.819496 37.1798 1.16946 37.9705 1.16946 37.9705C2.54773 41.0093 4.83644 42.8804 7.4445 45.0125C12.5511 49.1871 18.882 54.3627 22 71.265L22 25.1508C19.9664 18.8236 16.5663 16.0501 13.0304 13.1659C7.28428 8.47876 1.17978 3.49931 6.48499e-05 -17.4999C6.48499e-05 -17.4999 0.00231934 -18.4268 0.419464 -18.5C0.819496 -18.5702 1.16946 -17.7795 1.16946 -17.7795C2.54773 -14.7407 4.83644 -12.8696 7.4445 -10.7375C12.5511 -6.56286 18.882 -1.38732 22 15.515L22 -9H26L26 43.2607C29.1018 26.1627 35.4692 20.9573 40.6005 16.7625C43.2085 14.6304 45.4973 12.7593 46.8755 9.72047C46.8755 9.72047 47.2255 8.92983 47.6255 9.00002C48.0427 9.0732 48.0449 10.0001 48.0449 10.0001C46.8652 30.9993 40.7607 35.9788 35.0145 40.6659C31.4525 43.5715 28.0282 46.3647 26 52.792L26 99.0107C29.1018 81.9127 35.4692 76.7073 40.6005 72.5125C43.2085 70.3804 45.4973 68.5093 46.8755 65.4705C46.8755 65.4705 47.2255 64.6798 47.6255 64.75C48.0427 64.8232 48.0449 65.7501 48.0449 65.7501C46.8652 86.7493 40.7607 91.7288 35.0145 96.4159C31.4525 99.3215 28.0282 102.115 26 108.542L26 154.761C29.1018 137.663 35.4692 132.457 40.6005 128.262C43.2085 126.13 45.4973 124.259 46.8755 121.22C46.8755 121.22 47.2255 120.43 47.6255 120.5C48.0427 120.573 48.0449 121.5 48.0449 121.5C46.8652 142.499 40.7607 147.479 35.0145 152.166C31.4525 155.071 28.0282 157.865 26 164.292L26 210.511C29.1018 193.413 35.4692 188.208 40.6005 184.013C43.2085 181.881 45.4973 180.01 46.8755 176.971C46.8755 176.971 47.2255 176.18 47.6255 176.25C48.0427 176.323 48.0449 177.25 48.0449 177.25C46.8652 198.25 40.7607 203.229 35.0145 207.916C31.4525 210.822 28.0282 213.615 26 220.042L26 266.261C29.1018 249.163 35.4692 243.958 40.6005 239.763C43.2085 237.631 45.4973 235.76 46.8755 232.721C46.8755 232.721 47.2255 231.93 47.6255 232C48.0427 232.073 48.0449 233 48.0449 233C46.8652 254 40.7607 258.979 35.0145 263.666C31.4525 266.572 28.0282 269.365 26 275.792L26 322.011C29.1018 304.913 35.4692 299.708 40.6005 295.513C43.2085 293.381 45.4973 291.51 46.8755 288.471C46.8755 288.471 47.2255 287.68 47.6255 287.75C48.0427 287.823 48.0449 288.75 48.0449 288.75C46.8652 309.75 40.7607 314.729 35.0145 319.416C31.4525 322.322 28.0282 325.115 26 331.542L26 377.761C29.1018 360.663 35.4692 355.458 40.6005 351.263C43.2085 349.131 45.4973 347.26 46.8755 344.221C46.8755 344.221 47.2255 343.43 47.6255 343.501C48.0427 343.574 48.0449 344.501 48.0449 344.501C46.8652 365.5 40.7607 370.479 35.0145 375.166C31.4525 378.072 28.0282 380.865 26 387.292L26 433.511C29.1018 416.413 35.4692 411.208 40.6005 407.013C43.2085 404.881 45.4972 403.01 46.8755 399.971C46.8755 399.971 47.2255 399.18 47.6255 399.25C48.0426 399.324 48.0449 400.25 48.0449 400.25C46.8652 421.25 40.7607 426.229 35.0145 430.916C31.4525 433.822 28.0282 436.615 26 443.042L26 489.261C29.1018 472.163 35.4692 466.958 40.6005 462.763C43.2085 460.631 45.4972 458.76 46.8755 455.721C46.8755 455.721 47.2255 454.93 47.6255 455C48.0426 455.074 48.0449 456 48.0449 456C46.8652 477 40.7607 481.979 35.0145 486.666C31.4525 489.572 28.0282 492.365 26 498.792L26 549.76C29.1018 532.662 35.4692 527.457 40.6005 523.262C43.2085 521.13 45.4972 519.259 46.8755 516.22C46.8755 516.22 47.2255 515.43 47.6255 515.5C48.0426 515.573 48.0449 516.5 48.0449 516.5C46.8652 537.499 40.7607 542.479 35.0145 547.166C31.4525 550.071 28.0282 552.865 26 559.292L26 605.51C29.1018 588.412 35.4692 583.207 40.6005 579.012C43.2085 576.88 45.4972 575.009 46.8755 571.97C46.8755 571.97 47.2255 571.18 47.6255 571.25C48.0426 571.323 48.0449 572.25 48.0449 572.25C46.8652 593.249 40.7607 598.229 35.0145 602.916C31.4525 605.821 28.0282 608.615 26 615.042L26 666.01C29.1018 648.912 35.4692 643.707 40.6005 639.512C43.2085 637.38 45.4972 635.509 46.8755 632.47C46.8755 632.47 47.2255 631.679 47.6255 631.749C48.0426 631.823 48.0449 632.75 48.0449 632.75C46.8652 653.749 40.7607 658.728 35.0145 663.415C31.4525 666.321 28.0282 669.114 26 675.541L26 721.76C29.1018 704.662 35.4692 699.457 40.6005 695.262C43.2085 693.13 45.4972 691.259 46.8755 688.22C46.8755 688.22 47.2255 687.429 47.6255 687.499C48.0426 687.573 48.0449 688.5 48.0449 688.5C46.8652 709.499 40.7607 714.478 35.0145 719.165C31.4525 722.071 28.0282 724.864 26 731.291L26 782.26C29.1018 765.162 35.4692 759.956 40.6005 755.761C43.2085 753.629 45.4972 751.758 46.8755 748.719C46.8755 748.719 47.2255 747.929 47.6255 747.999C48.0426 748.072 48.0449 748.999 48.0449 748.999C46.8652 769.998 40.7607 774.978 35.0145 779.665C31.4525 782.57 28.0282 785.364 26 791.791L26 819H23.8431C23.8934 820.836 23.9194 822.751 23.9194 824.75C23.9194 822.66 23.8536 820.751 23.7288 819H22V809.151C19.9664 802.823 16.5662 800.05 13.0304 797.166C7.28424 792.479 1.17974 787.499 3.05176e-05 766.5C3.05176e-05 766.5 0.002285 765.573 0.419434 765.5C0.819462 765.43 1.16943 766.22 1.16943 766.22C2.5477 769.259 4.83641 771.13 7.44447 773.262C12.551 777.437 18.8819 782.612 22 799.515L22 750.9C19.9664 744.573 16.5663 741.799 13.0304 738.915C7.28424 734.228 1.17974 729.249 3.05176e-05 708.25C3.05176e-05 708.25 0.002285 707.323 0.419434 707.249C0.819462 707.179 1.16943 707.97 1.16943 707.97C2.5477 711.009 4.83641 712.88 7.44447 715.012C12.551 719.186 18.8819 724.362 22 741.264L22 695.15C19.9664 688.823 16.5663 686.049 13.0304 683.165C7.28424 678.478 1.17974 673.499 3.05176e-05 652.5C3.05176e-05 652.5 0.002285 651.573 0.419434 651.499C0.819462 651.429 1.16943 652.22 1.16943 652.22C2.5477 655.259 4.83641 657.13 7.44447 659.262C12.5511 663.436 18.8819 668.612 22 685.514L22 638.901C19.9664 632.573 16.5663 629.8 13.0304 626.916C7.28424 622.229 1.17974 617.249 3.05176e-05 596.25C3.05176e-05 596.25 0.002285 595.323 0.419434 595.25C0.819462 595.18 1.16943 595.97 1.16943 595.97C2.5477 599.009 4.83641 600.88 7.44447 603.012C12.5511 607.187 18.8819 612.363 22 629.265L22 583.151C19.9664 576.823 16.5663 574.05 13.0304 571.166C7.28424 566.479 1.17974 561.499 3.05176e-05 540.5C3.05176e-05 540.5 0.002285 539.573 0.419434 539.5C0.819462 539.43 1.16943 540.22 1.16943 540.22C2.5477 543.259 4.83641 545.13 7.44447 547.262C12.5511 551.437 18.8819 556.612 22 573.515ZM36.2505 12.5C38.4597 12.5 40.2505 10.7091 40.2505 8.5C40.2505 6.29086 38.4597 4.5 36.2505 4.5C34.0414 4.5 32.2505 6.29086 32.2505 8.5C32.2505 10.7091 34.0414 12.5 36.2505 12.5ZM36.2505 68.25C38.4597 68.25 40.2505 66.4591 40.2505 64.25C40.2505 62.0409 38.4597 60.25 36.2505 60.25C34.0414 60.25 32.2505 62.0409 32.2505 64.25C32.2505 66.4591 34.0414 68.25 36.2505 68.25ZM36.2505 124C38.4597 124 40.2505 122.209 40.2505 120C40.2505 117.791 38.4597 116 36.2505 116C34.0414 116 32.2505 117.791 32.2505 120C32.2505 122.209 34.0414 124 36.2505 124ZM36.2505 179.75C38.4597 179.75 40.2505 177.959 40.2505 175.75C40.2505 173.541 38.4597 171.75 36.2505 171.75C34.0414 171.75 32.2505 173.541 32.2505 175.75C32.2505 177.959 34.0414 179.75 36.2505 179.75ZM36.2505 235.5C38.4597 235.5 40.2505 233.709 40.2505 231.5C40.2505 229.291 38.4597 227.5 36.2505 227.5C34.0414 227.5 32.2505 229.291 32.2505 231.5C32.2505 233.709 34.0414 235.5 36.2505 235.5ZM36.2505 291.25C38.4597 291.25 40.2505 289.459 40.2505 287.25C40.2505 285.041 38.4597 283.25 36.2505 283.25C34.0414 283.25 32.2505 285.041 32.2505 287.25C32.2505 289.459 34.0414 291.25 36.2505 291.25ZM36.2505 347C38.4597 347 40.2505 345.21 40.2505 343C40.2505 340.791 38.4597 339 36.2505 339C34.0414 339 32.2505 340.791 32.2505 343C32.2505 345.21 34.0414 347 36.2505 347ZM40.2505 398.75C40.2505 400.96 38.4596 402.75 36.2505 402.75C34.0413 402.75 32.2505 400.96 32.2505 398.75C32.2505 396.541 34.0413 394.75 36.2505 394.75C38.4596 394.75 40.2505 396.541 40.2505 398.75ZM36.2505 519C38.4596 519 40.2505 517.209 40.2505 515C40.2505 512.791 38.4596 511 36.2505 511C34.0413 511 32.2505 512.791 32.2505 515C32.2505 517.209 34.0413 519 36.2505 519ZM40.2505 631.25C40.2505 633.459 38.4596 635.25 36.2505 635.25C34.0413 635.25 32.2505 633.459 32.2505 631.25C32.2505 629.04 34.0413 627.25 36.2505 627.25C38.4596 627.25 40.2505 629.04 40.2505 631.25ZM36.2505 751.499C38.4596 751.499 40.2505 749.708 40.2505 747.499C40.2505 745.29 38.4596 743.499 36.2505 743.499C34.0413 743.499 32.2505 745.29 32.2505 747.499C32.2505 749.708 34.0413 751.499 36.2505 751.499ZM36.2505 458.5C38.4596 458.5 40.2505 456.71 40.2505 454.5C40.2505 452.291 38.4596 450.5 36.2505 450.5C34.0413 450.5 32.2505 452.291 32.2505 454.5C32.2505 456.71 34.0413 458.5 36.2505 458.5ZM40.2505 570.75C40.2505 572.959 38.4596 574.75 36.2505 574.75C34.0413 574.75 32.2505 572.959 32.2505 570.75C32.2505 568.541 34.0413 566.75 36.2505 566.75C38.4596 566.75 40.2505 568.541 40.2505 570.75ZM36.2505 691C38.4596 691 40.2505 689.209 40.2505 687C40.2505 684.79 38.4596 683 36.2505 683C34.0413 683 32.2505 684.79 32.2505 687C32.2505 689.209 34.0413 691 36.2505 691ZM11.7945 40.75C9.58533 40.75 7.79447 38.9591 7.79447 36.75C7.79447 34.5409 9.58533 32.75 11.7945 32.75C14.0036 32.75 15.7945 34.5409 15.7945 36.75C15.7945 38.9591 14.0036 40.75 11.7945 40.75ZM11.7945 96.5C9.58533 96.5 7.79447 94.7091 7.79447 92.5C7.79447 90.2909 9.58533 88.5 11.7945 88.5C14.0036 88.5 15.7945 90.2909 15.7945 92.5C15.7945 94.7091 14.0036 96.5 11.7945 96.5ZM11.7945 152.25C9.58533 152.25 7.79447 150.459 7.79447 148.25C7.79447 146.041 9.58533 144.25 11.7945 144.25C14.0036 144.25 15.7945 146.041 15.7945 148.25C15.7945 150.459 14.0036 152.25 11.7945 152.25ZM11.7945 208C9.58533 208 7.79447 206.209 7.79447 204C7.79447 201.791 9.58533 200 11.7945 200C14.0036 200 15.7945 201.791 15.7945 204C15.7945 206.209 14.0036 208 11.7945 208ZM11.7945 263.75C9.58533 263.75 7.79447 261.959 7.79447 259.75C7.79447 257.541 9.58533 255.75 11.7945 255.75C14.0036 255.75 15.7945 257.541 15.7945 259.75C15.7945 261.959 14.0036 263.75 11.7945 263.75ZM11.7945 319.5C9.58533 319.5 7.79447 317.71 7.79447 315.5C7.79447 313.291 9.58533 311.5 11.7945 311.5C14.0036 311.5 15.7945 313.291 15.7945 315.5C15.7945 317.71 14.0036 319.5 11.7945 319.5ZM11.7945 375.25C9.58533 375.25 7.79447 373.46 7.79447 371.25C7.79447 369.041 9.58533 367.25 11.7945 367.25C14.0036 367.25 15.7945 369.041 15.7945 371.25C15.7945 373.46 14.0036 375.25 11.7945 375.25ZM11.7944 431C9.58529 431 7.79443 429.21 7.79443 427C7.79443 424.791 9.58529 423 11.7944 423C14.0036 423 15.7944 424.791 15.7944 427C15.7944 429.21 14.0036 431 11.7944 431ZM7.79443 539C7.79443 541.209 9.58529 543 11.7944 543C14.0036 543 15.7944 541.209 15.7944 539C15.7944 536.791 14.0036 535 11.7944 535C9.58529 535 7.79443 536.791 7.79443 539ZM11.7944 655C9.58529 655 7.79443 653.209 7.79443 651C7.79443 648.79 9.58529 647 11.7944 647C14.0036 647 15.7944 648.79 15.7944 651C15.7944 653.209 14.0036 655 11.7944 655ZM7.79443 482.75C7.79443 484.96 9.58529 486.75 11.7944 486.75C14.0036 486.75 15.7944 484.96 15.7944 482.75C15.7944 480.541 14.0036 478.75 11.7944 478.75C9.58529 478.75 7.79443 480.541 7.79443 482.75ZM11.7944 598.75C9.58529 598.75 7.79443 596.959 7.79443 594.75C7.79443 592.541 9.58529 590.75 11.7944 590.75C14.0036 590.75 15.7944 592.541 15.7944 594.75C15.7944 596.959 14.0036 598.75 11.7944 598.75ZM7.79443 706.75C7.79443 708.959 9.58529 710.75 11.7944 710.75C14.0036 710.75 15.7944 708.959 15.7944 706.75C15.7944 704.54 14.0036 702.75 11.7944 702.75C9.58529 702.75 7.79443 704.54 7.79443 706.75ZM11.7944 769C9.58529 769 7.79443 767.209 7.79443 765C7.79443 762.791 9.58529 761 11.7944 761C14.0036 761 15.7944 762.791 15.7944 765C15.7944 767.209 14.0036 769 11.7944 769Z" fill="url(#paint0_linear_218_2419)" style="mix-blend-mode:screen"/>
<defs>
<linearGradient id="paint0_linear_218_2419" x1="27.9059" y1="825" x2="-401.71" y2="416.126" gradientUnits="userSpaceOnUse">
<stop stop-color="#FABB00" stop-opacity="0.8"/>
<stop offset="0.317708" stop-color="#FABB00" stop-opacity="0.24"/>
<stop offset="0.416667" stop-color="#FABB00" stop-opacity="0.8"/>
<stop offset="0.526042" stop-color="#FABB00" stop-opacity="0.14"/>
<stop offset="0.6875" stop-color="#FABB00" stop-opacity="0.54"/>
<stop offset="1" stop-color="#FABB00" stop-opacity="0.24"/>
</linearGradient>
</defs>
</svg>
