<svg width="1440" height="36" viewBox="0 0 1440 36" fill="none" xmlns="http://www.w3.org/2000/svg">
<g>
<rect x="1440.5" y="5.00012" width="1440.5" height="5" transform="rotate(-180 1440.5 5.00012)" fill="#EFEBE6"/>
<rect x="5" y="30.1907" width="5" height="21.1906" transform="rotate(-180 5 30.1907)" fill="#EFEBE6"/>
<rect x="12.5" y="24.0632" width="3.5" height="15.0632" transform="rotate(-180 12.5 24.0632)" fill="#EFEBE6"/>
<rect x="21.5" y="30.1906" width="5" height="21.1906" transform="rotate(-180 21.5 30.1906)" fill="#EFEBE6"/>
<rect x="21.5" y="30.1907" width="5" height="21.1906" transform="rotate(-180 21.5 30.1907)" fill="#EFEBE6"/>
<rect x="29" y="24.0632" width="3.5" height="15.0632" transform="rotate(-180 29 24.0632)" fill="#EFEBE6"/>
<rect x="38" y="30.1906" width="5" height="21.1906" transform="rotate(-180 38 30.1906)" fill="#EFEBE6"/>
<rect x="38" y="30.1907" width="5" height="21.1906" transform="rotate(-180 38 30.1907)" fill="#EFEBE6"/>
<rect x="45.5" y="24.0632" width="3.5" height="15.0632" transform="rotate(-180 45.5 24.0632)" fill="#EFEBE6"/>
<rect x="54.5" y="30.1906" width="5" height="21.1906" transform="rotate(-180 54.5 30.1906)" fill="#EFEBE6"/>
<rect x="54.5" y="30.1907" width="5" height="21.1906" transform="rotate(-180 54.5 30.1907)" fill="#EFEBE6"/>
<rect x="62" y="24.0632" width="3.5" height="15.0632" transform="rotate(-180 62 24.0632)" fill="#EFEBE6"/>
<rect x="71" y="30.1906" width="5" height="21.1906" transform="rotate(-180 71 30.1906)" fill="#EFEBE6"/>
<rect x="71" y="30.1907" width="5" height="21.1906" transform="rotate(-180 71 30.1907)" fill="#EFEBE6"/>
<rect x="78.5" y="24.0632" width="3.5" height="15.0632" transform="rotate(-180 78.5 24.0632)" fill="#EFEBE6"/>
<rect x="87.5" y="30.1906" width="5" height="21.1906" transform="rotate(-180 87.5 30.1906)" fill="#EFEBE6"/>
<rect x="87.5" y="30.1907" width="5" height="21.1906" transform="rotate(-180 87.5 30.1907)" fill="#EFEBE6"/>
<rect x="95" y="24.0632" width="3.5" height="15.0632" transform="rotate(-180 95 24.0632)" fill="#EFEBE6"/>
<rect x="104" y="30.1906" width="5" height="21.1906" transform="rotate(-180 104 30.1906)" fill="#EFEBE6"/>
<rect x="104" y="30.1907" width="5" height="21.1906" transform="rotate(-180 104 30.1907)" fill="#EFEBE6"/>
<rect x="111.5" y="24.0632" width="3.5" height="15.0632" transform="rotate(-180 111.5 24.0632)" fill="#EFEBE6"/>
<rect x="120.5" y="30.1906" width="5" height="21.1906" transform="rotate(-180 120.5 30.1906)" fill="#EFEBE6"/>
<rect x="120.5" y="30.1907" width="5" height="21.1906" transform="rotate(-180 120.5 30.1907)" fill="#EFEBE6"/>
<rect x="128" y="24.0632" width="3.5" height="15.0632" transform="rotate(-180 128 24.0632)" fill="#EFEBE6"/>
<rect x="137" y="30.1906" width="5" height="21.1906" transform="rotate(-180 137 30.1906)" fill="#EFEBE6"/>
<rect x="137" y="30.1907" width="5" height="21.1906" transform="rotate(-180 137 30.1907)" fill="#EFEBE6"/>
<rect x="144.5" y="24.0632" width="3.5" height="15.0632" transform="rotate(-180 144.5 24.0632)" fill="#EFEBE6"/>
<rect x="153.5" y="30.1906" width="5" height="21.1906" transform="rotate(-180 153.5 30.1906)" fill="#EFEBE6"/>
<rect x="153.5" y="30.1907" width="5" height="21.1906" transform="rotate(-180 153.5 30.1907)" fill="#EFEBE6"/>
<rect x="161" y="24.0632" width="3.5" height="15.0632" transform="rotate(-180 161 24.0632)" fill="#EFEBE6"/>
<rect x="170" y="30.1906" width="5" height="21.1906" transform="rotate(-180 170 30.1906)" fill="#EFEBE6"/>
<rect x="170" y="30.1907" width="5" height="21.1906" transform="rotate(-180 170 30.1907)" fill="#EFEBE6"/>
<rect x="177.5" y="24.0632" width="3.5" height="15.0632" transform="rotate(-180 177.5 24.0632)" fill="#EFEBE6"/>
<rect x="186.5" y="30.1906" width="5" height="21.1906" transform="rotate(-180 186.5 30.1906)" fill="#EFEBE6"/>
<rect x="186.5" y="30.1907" width="5" height="21.1906" transform="rotate(-180 186.5 30.1907)" fill="#EFEBE6"/>
<rect x="194" y="24.0632" width="3.5" height="15.0632" transform="rotate(-180 194 24.0632)" fill="#EFEBE6"/>
<rect x="203" y="30.1906" width="5" height="21.1906" transform="rotate(-180 203 30.1906)" fill="#EFEBE6"/>
<rect x="203" y="30.1907" width="5" height="21.1906" transform="rotate(-180 203 30.1907)" fill="#EFEBE6"/>
<rect x="210.5" y="24.0632" width="3.5" height="15.0632" transform="rotate(-180 210.5 24.0632)" fill="#EFEBE6"/>
<rect x="219.5" y="30.1906" width="5" height="21.1906" transform="rotate(-180 219.5 30.1906)" fill="#EFEBE6"/>
<rect x="219.5" y="30.1907" width="5" height="21.1906" transform="rotate(-180 219.5 30.1907)" fill="#EFEBE6"/>
<rect x="227" y="24.0632" width="3.5" height="15.0632" transform="rotate(-180 227 24.0632)" fill="#EFEBE6"/>
<rect x="236" y="30.1906" width="5" height="21.1906" transform="rotate(-180 236 30.1906)" fill="#EFEBE6"/>
<rect x="236" y="30.1907" width="5" height="21.1906" transform="rotate(-180 236 30.1907)" fill="#EFEBE6"/>
<rect x="243.5" y="24.0632" width="3.5" height="15.0632" transform="rotate(-180 243.5 24.0632)" fill="#EFEBE6"/>
<rect x="252.5" y="30.1906" width="5" height="21.1906" transform="rotate(-180 252.5 30.1906)" fill="#EFEBE6"/>
<rect x="252.5" y="30.1907" width="5" height="21.1906" transform="rotate(-180 252.5 30.1907)" fill="#EFEBE6"/>
<rect x="260" y="24.0632" width="3.5" height="15.0632" transform="rotate(-180 260 24.0632)" fill="#EFEBE6"/>
<rect x="269" y="30.1906" width="5" height="21.1906" transform="rotate(-180 269 30.1906)" fill="#EFEBE6"/>
<rect x="269" y="30.1907" width="5" height="21.1906" transform="rotate(-180 269 30.1907)" fill="#EFEBE6"/>
<rect x="276.5" y="24.0632" width="3.5" height="15.0632" transform="rotate(-180 276.5 24.0632)" fill="#EFEBE6"/>
<rect x="285.5" y="30.1906" width="5" height="21.1906" transform="rotate(-180 285.5 30.1906)" fill="#EFEBE6"/>
<rect x="285.5" y="30.1907" width="5" height="21.1906" transform="rotate(-180 285.5 30.1907)" fill="#EFEBE6"/>
<rect x="293" y="24.0632" width="3.5" height="15.0632" transform="rotate(-180 293 24.0632)" fill="#EFEBE6"/>
<rect x="302" y="30.1906" width="5" height="21.1906" transform="rotate(-180 302 30.1906)" fill="#EFEBE6"/>
<rect x="302" y="30.1907" width="5" height="21.1906" transform="rotate(-180 302 30.1907)" fill="#EFEBE6"/>
<rect x="309.5" y="24.0632" width="3.5" height="15.0632" transform="rotate(-180 309.5 24.0632)" fill="#EFEBE6"/>
<rect x="318.5" y="30.1906" width="5" height="21.1906" transform="rotate(-180 318.5 30.1906)" fill="#EFEBE6"/>
<rect x="318.5" y="30.1907" width="5" height="21.1906" transform="rotate(-180 318.5 30.1907)" fill="#EFEBE6"/>
<rect x="326" y="24.0632" width="3.5" height="15.0632" transform="rotate(-180 326 24.0632)" fill="#EFEBE6"/>
<rect x="335" y="30.1906" width="5" height="21.1906" transform="rotate(-180 335 30.1906)" fill="#EFEBE6"/>
<rect x="335" y="30.1907" width="5" height="21.1906" transform="rotate(-180 335 30.1907)" fill="#EFEBE6"/>
<rect x="342.5" y="24.0632" width="3.5" height="15.0632" transform="rotate(-180 342.5 24.0632)" fill="#EFEBE6"/>
<rect x="351.5" y="30.1906" width="5" height="21.1906" transform="rotate(-180 351.5 30.1906)" fill="#EFEBE6"/>
<rect x="351.5" y="30.1907" width="5" height="21.1906" transform="rotate(-180 351.5 30.1907)" fill="#EFEBE6"/>
<rect x="359" y="24.0632" width="3.5" height="15.0632" transform="rotate(-180 359 24.0632)" fill="#EFEBE6"/>
<rect x="368" y="30.1906" width="5" height="21.1906" transform="rotate(-180 368 30.1906)" fill="#EFEBE6"/>
<rect x="368" y="30.1907" width="5" height="21.1906" transform="rotate(-180 368 30.1907)" fill="#EFEBE6"/>
<rect x="375.5" y="24.0632" width="3.5" height="15.0632" transform="rotate(-180 375.5 24.0632)" fill="#EFEBE6"/>
<rect x="384.5" y="30.1906" width="5" height="21.1906" transform="rotate(-180 384.5 30.1906)" fill="#EFEBE6"/>
<rect x="384.5" y="30.1907" width="5" height="21.1906" transform="rotate(-180 384.5 30.1907)" fill="#EFEBE6"/>
<rect x="392" y="24.0632" width="3.5" height="15.0632" transform="rotate(-180 392 24.0632)" fill="#EFEBE6"/>
<rect x="401" y="30.1906" width="5" height="21.1906" transform="rotate(-180 401 30.1906)" fill="#EFEBE6"/>
<rect x="401" y="30.1907" width="5" height="21.1906" transform="rotate(-180 401 30.1907)" fill="#EFEBE6"/>
<rect x="408.5" y="24.0632" width="3.5" height="15.0632" transform="rotate(-180 408.5 24.0632)" fill="#EFEBE6"/>
<rect x="417.5" y="30.1906" width="5" height="21.1906" transform="rotate(-180 417.5 30.1906)" fill="#EFEBE6"/>
<rect x="417.5" y="30.1907" width="5" height="21.1906" transform="rotate(-180 417.5 30.1907)" fill="#EFEBE6"/>
<rect x="425" y="24.0632" width="3.5" height="15.0632" transform="rotate(-180 425 24.0632)" fill="#EFEBE6"/>
<rect x="434" y="30.1906" width="5" height="21.1906" transform="rotate(-180 434 30.1906)" fill="#EFEBE6"/>
<rect x="434" y="30.1907" width="5" height="21.1906" transform="rotate(-180 434 30.1907)" fill="#EFEBE6"/>
<rect x="441.5" y="24.0632" width="3.5" height="15.0632" transform="rotate(-180 441.5 24.0632)" fill="#EFEBE6"/>
<rect x="450.5" y="30.1906" width="5" height="21.1906" transform="rotate(-180 450.5 30.1906)" fill="#EFEBE6"/>
<rect x="450.5" y="30.1907" width="5" height="21.1906" transform="rotate(-180 450.5 30.1907)" fill="#EFEBE6"/>
<rect x="458" y="24.0632" width="3.5" height="15.0632" transform="rotate(-180 458 24.0632)" fill="#EFEBE6"/>
<rect x="467" y="30.1906" width="5" height="21.1906" transform="rotate(-180 467 30.1906)" fill="#EFEBE6"/>
<rect x="467" y="30.1907" width="5" height="21.1906" transform="rotate(-180 467 30.1907)" fill="#EFEBE6"/>
<rect x="474.5" y="24.0632" width="3.5" height="15.0632" transform="rotate(-180 474.5 24.0632)" fill="#EFEBE6"/>
<rect x="483.5" y="30.1906" width="5" height="21.1906" transform="rotate(-180 483.5 30.1906)" fill="#EFEBE6"/>
<rect x="483.5" y="30.1907" width="5" height="21.1906" transform="rotate(-180 483.5 30.1907)" fill="#EFEBE6"/>
<rect x="491" y="24.0632" width="3.5" height="15.0632" transform="rotate(-180 491 24.0632)" fill="#EFEBE6"/>
<rect x="500" y="30.1906" width="5" height="21.1906" transform="rotate(-180 500 30.1906)" fill="#EFEBE6"/>
<rect x="500" y="30.1907" width="5" height="21.1906" transform="rotate(-180 500 30.1907)" fill="#EFEBE6"/>
<rect x="507.5" y="24.0632" width="3.5" height="15.0632" transform="rotate(-180 507.5 24.0632)" fill="#EFEBE6"/>
<rect x="516.5" y="30.1906" width="5" height="21.1906" transform="rotate(-180 516.5 30.1906)" fill="#EFEBE6"/>
<rect x="516.5" y="30.1907" width="5" height="21.1906" transform="rotate(-180 516.5 30.1907)" fill="#EFEBE6"/>
<rect x="524" y="24.0632" width="3.5" height="15.0632" transform="rotate(-180 524 24.0632)" fill="#EFEBE6"/>
<rect x="533" y="30.1906" width="5" height="21.1906" transform="rotate(-180 533 30.1906)" fill="#EFEBE6"/>
<rect x="533" y="30.1907" width="5" height="21.1906" transform="rotate(-180 533 30.1907)" fill="#EFEBE6"/>
<rect x="540.5" y="24.0632" width="3.5" height="15.0632" transform="rotate(-180 540.5 24.0632)" fill="#EFEBE6"/>
<rect x="549.5" y="30.1906" width="5" height="21.1906" transform="rotate(-180 549.5 30.1906)" fill="#EFEBE6"/>
<rect x="549.5" y="30.1907" width="5" height="21.1906" transform="rotate(-180 549.5 30.1907)" fill="#EFEBE6"/>
<rect x="557" y="24.0632" width="3.5" height="15.0632" transform="rotate(-180 557 24.0632)" fill="#EFEBE6"/>
<rect x="566" y="30.1906" width="5" height="21.1906" transform="rotate(-180 566 30.1906)" fill="#EFEBE6"/>
<rect x="566" y="30.1907" width="5" height="21.1906" transform="rotate(-180 566 30.1907)" fill="#EFEBE6"/>
<rect x="573.5" y="24.0632" width="3.5" height="15.0632" transform="rotate(-180 573.5 24.0632)" fill="#EFEBE6"/>
<rect x="582.5" y="30.1906" width="5" height="21.1906" transform="rotate(-180 582.5 30.1906)" fill="#EFEBE6"/>
<rect x="582.5" y="30.1907" width="5" height="21.1906" transform="rotate(-180 582.5 30.1907)" fill="#EFEBE6"/>
<rect x="590" y="24.0632" width="3.5" height="15.0632" transform="rotate(-180 590 24.0632)" fill="#EFEBE6"/>
<rect x="599" y="30.1906" width="5" height="21.1906" transform="rotate(-180 599 30.1906)" fill="#EFEBE6"/>
<rect x="599" y="30.1907" width="5" height="21.1906" transform="rotate(-180 599 30.1907)" fill="#EFEBE6"/>
<rect x="606.5" y="24.0632" width="3.5" height="15.0632" transform="rotate(-180 606.5 24.0632)" fill="#EFEBE6"/>
<rect x="615.5" y="30.1906" width="5" height="21.1906" transform="rotate(-180 615.5 30.1906)" fill="#EFEBE6"/>
<rect x="615.5" y="30.1907" width="5" height="21.1906" transform="rotate(-180 615.5 30.1907)" fill="#EFEBE6"/>
<rect x="623" y="24.0632" width="3.5" height="15.0632" transform="rotate(-180 623 24.0632)" fill="#EFEBE6"/>
<rect x="632" y="30.1906" width="5" height="21.1906" transform="rotate(-180 632 30.1906)" fill="#EFEBE6"/>
<rect x="632" y="30.1907" width="5" height="21.1906" transform="rotate(-180 632 30.1907)" fill="#EFEBE6"/>
<rect x="639.5" y="24.0632" width="3.5" height="15.0632" transform="rotate(-180 639.5 24.0632)" fill="#EFEBE6"/>
<rect x="648.5" y="30.1906" width="5" height="21.1906" transform="rotate(-180 648.5 30.1906)" fill="#EFEBE6"/>
<rect x="648.5" y="30.1907" width="5" height="21.1906" transform="rotate(-180 648.5 30.1907)" fill="#EFEBE6"/>
<rect x="656" y="24.0632" width="3.5" height="15.0632" transform="rotate(-180 656 24.0632)" fill="#EFEBE6"/>
<rect x="665" y="30.1906" width="5" height="21.1906" transform="rotate(-180 665 30.1906)" fill="#EFEBE6"/>
<rect x="665" y="30.1907" width="5" height="21.1906" transform="rotate(-180 665 30.1907)" fill="#EFEBE6"/>
<rect x="672.5" y="24.0632" width="3.5" height="15.0632" transform="rotate(-180 672.5 24.0632)" fill="#EFEBE6"/>
<rect x="681.5" y="30.1906" width="5" height="21.1906" transform="rotate(-180 681.5 30.1906)" fill="#EFEBE6"/>
<rect x="681.5" y="30.1907" width="5" height="21.1906" transform="rotate(-180 681.5 30.1907)" fill="#EFEBE6"/>
<rect x="689" y="24.0632" width="3.5" height="15.0632" transform="rotate(-180 689 24.0632)" fill="#EFEBE6"/>
<rect x="698" y="30.1906" width="5" height="21.1906" transform="rotate(-180 698 30.1906)" fill="#EFEBE6"/>
<rect x="698" y="30.1907" width="5" height="21.1906" transform="rotate(-180 698 30.1907)" fill="#EFEBE6"/>
<rect x="705.5" y="24.0632" width="3.5" height="15.0632" transform="rotate(-180 705.5 24.0632)" fill="#EFEBE6"/>
<rect x="714.5" y="30.1906" width="5" height="21.1906" transform="rotate(-180 714.5 30.1906)" fill="#EFEBE6"/>
<rect x="714.5" y="30.1907" width="5" height="21.1906" transform="rotate(-180 714.5 30.1907)" fill="#EFEBE6"/>
<rect x="722" y="24.0632" width="3.5" height="15.0632" transform="rotate(-180 722 24.0632)" fill="#EFEBE6"/>
<rect x="731" y="30.1906" width="5" height="21.1906" transform="rotate(-180 731 30.1906)" fill="#EFEBE6"/>
<rect x="731" y="30.1907" width="5" height="21.1906" transform="rotate(-180 731 30.1907)" fill="#EFEBE6"/>
<rect x="738.5" y="24.0632" width="3.5" height="15.0632" transform="rotate(-180 738.5 24.0632)" fill="#EFEBE6"/>
<rect x="747.5" y="30.1906" width="5" height="21.1906" transform="rotate(-180 747.5 30.1906)" fill="#EFEBE6"/>
<rect x="747.5" y="30.1907" width="5" height="21.1906" transform="rotate(-180 747.5 30.1907)" fill="#EFEBE6"/>
<rect x="755" y="24.0632" width="3.5" height="15.0632" transform="rotate(-180 755 24.0632)" fill="#EFEBE6"/>
<rect x="764" y="30.1906" width="5" height="21.1906" transform="rotate(-180 764 30.1906)" fill="#EFEBE6"/>
<rect x="764" y="30.1907" width="5" height="21.1906" transform="rotate(-180 764 30.1907)" fill="#EFEBE6"/>
<rect x="771.5" y="24.0632" width="3.5" height="15.0632" transform="rotate(-180 771.5 24.0632)" fill="#EFEBE6"/>
<rect x="780.5" y="30.1906" width="5" height="21.1906" transform="rotate(-180 780.5 30.1906)" fill="#EFEBE6"/>
<rect x="780.5" y="30.1907" width="5" height="21.1906" transform="rotate(-180 780.5 30.1907)" fill="#EFEBE6"/>
<rect x="788" y="24.0632" width="3.5" height="15.0632" transform="rotate(-180 788 24.0632)" fill="#EFEBE6"/>
<rect x="797" y="30.1906" width="5" height="21.1906" transform="rotate(-180 797 30.1906)" fill="#EFEBE6"/>
<rect x="797" y="30.1907" width="5" height="21.1906" transform="rotate(-180 797 30.1907)" fill="#EFEBE6"/>
<rect x="804.5" y="24.0632" width="3.5" height="15.0632" transform="rotate(-180 804.5 24.0632)" fill="#EFEBE6"/>
<rect x="813.5" y="30.1906" width="5" height="21.1906" transform="rotate(-180 813.5 30.1906)" fill="#EFEBE6"/>
<rect x="813.5" y="30.1907" width="5" height="21.1906" transform="rotate(-180 813.5 30.1907)" fill="#EFEBE6"/>
<rect x="821" y="24.0632" width="3.5" height="15.0632" transform="rotate(-180 821 24.0632)" fill="#EFEBE6"/>
<rect x="830" y="30.1906" width="5" height="21.1906" transform="rotate(-180 830 30.1906)" fill="#EFEBE6"/>
<rect x="830" y="30.1907" width="5" height="21.1906" transform="rotate(-180 830 30.1907)" fill="#EFEBE6"/>
<rect x="837.5" y="24.0632" width="3.5" height="15.0632" transform="rotate(-180 837.5 24.0632)" fill="#EFEBE6"/>
<rect x="846.5" y="30.1906" width="5" height="21.1906" transform="rotate(-180 846.5 30.1906)" fill="#EFEBE6"/>
<rect x="846.5" y="30.1907" width="5" height="21.1906" transform="rotate(-180 846.5 30.1907)" fill="#EFEBE6"/>
<rect x="854" y="24.0632" width="3.5" height="15.0632" transform="rotate(-180 854 24.0632)" fill="#EFEBE6"/>
<rect x="863" y="30.1906" width="5" height="21.1906" transform="rotate(-180 863 30.1906)" fill="#EFEBE6"/>
<rect x="863" y="30.1907" width="5" height="21.1906" transform="rotate(-180 863 30.1907)" fill="#EFEBE6"/>
<rect x="870.5" y="24.0632" width="3.5" height="15.0632" transform="rotate(-180 870.5 24.0632)" fill="#EFEBE6"/>
<rect x="879.5" y="30.1906" width="5" height="21.1906" transform="rotate(-180 879.5 30.1906)" fill="#EFEBE6"/>
<rect x="879.5" y="30.1907" width="5" height="21.1906" transform="rotate(-180 879.5 30.1907)" fill="#EFEBE6"/>
<rect x="887" y="24.0632" width="3.5" height="15.0632" transform="rotate(-180 887 24.0632)" fill="#EFEBE6"/>
<rect x="896" y="30.1906" width="5" height="21.1906" transform="rotate(-180 896 30.1906)" fill="#EFEBE6"/>
<rect x="896" y="30.1907" width="5" height="21.1906" transform="rotate(-180 896 30.1907)" fill="#EFEBE6"/>
<rect x="903.5" y="24.0632" width="3.5" height="15.0632" transform="rotate(-180 903.5 24.0632)" fill="#EFEBE6"/>
<rect x="912.5" y="30.1906" width="5" height="21.1906" transform="rotate(-180 912.5 30.1906)" fill="#EFEBE6"/>
<rect x="912.5" y="30.1907" width="5" height="21.1906" transform="rotate(-180 912.5 30.1907)" fill="#EFEBE6"/>
<rect x="920" y="24.0632" width="3.5" height="15.0632" transform="rotate(-180 920 24.0632)" fill="#EFEBE6"/>
<rect x="929" y="30.1906" width="5" height="21.1906" transform="rotate(-180 929 30.1906)" fill="#EFEBE6"/>
<rect x="929" y="30.1907" width="5" height="21.1906" transform="rotate(-180 929 30.1907)" fill="#EFEBE6"/>
<rect x="936.5" y="24.0632" width="3.5" height="15.0632" transform="rotate(-180 936.5 24.0632)" fill="#EFEBE6"/>
<rect x="945.5" y="30.1906" width="5" height="21.1906" transform="rotate(-180 945.5 30.1906)" fill="#EFEBE6"/>
<rect x="945.5" y="30.1907" width="5" height="21.1906" transform="rotate(-180 945.5 30.1907)" fill="#EFEBE6"/>
<rect x="953" y="24.0632" width="3.5" height="15.0632" transform="rotate(-180 953 24.0632)" fill="#EFEBE6"/>
<rect x="962" y="30.1906" width="5" height="21.1906" transform="rotate(-180 962 30.1906)" fill="#EFEBE6"/>
<rect x="962" y="30.1907" width="5" height="21.1906" transform="rotate(-180 962 30.1907)" fill="#EFEBE6"/>
<rect x="969.5" y="24.0632" width="3.5" height="15.0632" transform="rotate(-180 969.5 24.0632)" fill="#EFEBE6"/>
<rect x="978.5" y="30.1906" width="5" height="21.1906" transform="rotate(-180 978.5 30.1906)" fill="#EFEBE6"/>
<rect x="978.5" y="30.1907" width="5" height="21.1906" transform="rotate(-180 978.5 30.1907)" fill="#EFEBE6"/>
<rect x="986" y="24.0632" width="3.5" height="15.0632" transform="rotate(-180 986 24.0632)" fill="#EFEBE6"/>
<rect x="995" y="30.1906" width="5" height="21.1906" transform="rotate(-180 995 30.1906)" fill="#EFEBE6"/>
<rect x="995" y="30.1907" width="5" height="21.1906" transform="rotate(-180 995 30.1907)" fill="#EFEBE6"/>
<rect x="1002.5" y="24.0632" width="3.5" height="15.0632" transform="rotate(-180 1002.5 24.0632)" fill="#EFEBE6"/>
<rect x="1011.5" y="30.1906" width="5" height="21.1906" transform="rotate(-180 1011.5 30.1906)" fill="#EFEBE6"/>
<rect x="1011.5" y="30.1907" width="5" height="21.1906" transform="rotate(-180 1011.5 30.1907)" fill="#EFEBE6"/>
<rect x="1019" y="24.0632" width="3.5" height="15.0632" transform="rotate(-180 1019 24.0632)" fill="#EFEBE6"/>
<rect x="1028" y="30.1906" width="5" height="21.1906" transform="rotate(-180 1028 30.1906)" fill="#EFEBE6"/>
<rect x="1028" y="30.1907" width="5" height="21.1906" transform="rotate(-180 1028 30.1907)" fill="#EFEBE6"/>
<rect x="1035.5" y="24.0632" width="3.5" height="15.0632" transform="rotate(-180 1035.5 24.0632)" fill="#EFEBE6"/>
<rect x="1044.5" y="30.1906" width="5" height="21.1906" transform="rotate(-180 1044.5 30.1906)" fill="#EFEBE6"/>
<rect x="1044.5" y="30.1907" width="5" height="21.1906" transform="rotate(-180 1044.5 30.1907)" fill="#EFEBE6"/>
<rect x="1052" y="24.0632" width="3.5" height="15.0632" transform="rotate(-180 1052 24.0632)" fill="#EFEBE6"/>
<rect x="1061" y="30.1906" width="5" height="21.1906" transform="rotate(-180 1061 30.1906)" fill="#EFEBE6"/>
<rect x="1061" y="30.1907" width="5" height="21.1906" transform="rotate(-180 1061 30.1907)" fill="#EFEBE6"/>
<rect x="1068.5" y="24.0632" width="3.5" height="15.0632" transform="rotate(-180 1068.5 24.0632)" fill="#EFEBE6"/>
<rect x="1077.5" y="30.1906" width="5" height="21.1906" transform="rotate(-180 1077.5 30.1906)" fill="#EFEBE6"/>
<rect x="1077.5" y="30.1907" width="5" height="21.1906" transform="rotate(-180 1077.5 30.1907)" fill="#EFEBE6"/>
<rect x="1085" y="24.0632" width="3.5" height="15.0632" transform="rotate(-180 1085 24.0632)" fill="#EFEBE6"/>
<rect x="1094" y="30.1906" width="5" height="21.1906" transform="rotate(-180 1094 30.1906)" fill="#EFEBE6"/>
<rect x="1094" y="30.1907" width="5" height="21.1906" transform="rotate(-180 1094 30.1907)" fill="#EFEBE6"/>
<rect x="1101.5" y="24.0632" width="3.5" height="15.0632" transform="rotate(-180 1101.5 24.0632)" fill="#EFEBE6"/>
<rect x="1110.5" y="30.1906" width="5" height="21.1906" transform="rotate(-180 1110.5 30.1906)" fill="#EFEBE6"/>
<rect x="1110.5" y="30.1907" width="5" height="21.1906" transform="rotate(-180 1110.5 30.1907)" fill="#EFEBE6"/>
<rect x="1118" y="24.0632" width="3.5" height="15.0632" transform="rotate(-180 1118 24.0632)" fill="#EFEBE6"/>
<rect x="1127" y="30.1906" width="5" height="21.1906" transform="rotate(-180 1127 30.1906)" fill="#EFEBE6"/>
<rect x="1127" y="30.1907" width="5" height="21.1906" transform="rotate(-180 1127 30.1907)" fill="#EFEBE6"/>
<rect x="1134.5" y="24.0632" width="3.5" height="15.0632" transform="rotate(-180 1134.5 24.0632)" fill="#EFEBE6"/>
<rect x="1143.5" y="30.1906" width="5" height="21.1906" transform="rotate(-180 1143.5 30.1906)" fill="#EFEBE6"/>
<rect x="1143.5" y="30.1907" width="5" height="21.1906" transform="rotate(-180 1143.5 30.1907)" fill="#EFEBE6"/>
<rect x="1151" y="24.0632" width="3.5" height="15.0632" transform="rotate(-180 1151 24.0632)" fill="#EFEBE6"/>
<rect x="1160" y="30.1906" width="5" height="21.1906" transform="rotate(-180 1160 30.1906)" fill="#EFEBE6"/>
<rect x="1160" y="30.1907" width="5" height="21.1906" transform="rotate(-180 1160 30.1907)" fill="#EFEBE6"/>
<rect x="1167.5" y="24.0632" width="3.5" height="15.0632" transform="rotate(-180 1167.5 24.0632)" fill="#EFEBE6"/>
<rect x="1176.5" y="30.1906" width="5" height="21.1906" transform="rotate(-180 1176.5 30.1906)" fill="#EFEBE6"/>
<rect x="1176.5" y="30.1907" width="5" height="21.1906" transform="rotate(-180 1176.5 30.1907)" fill="#EFEBE6"/>
<rect x="1184" y="24.0632" width="3.5" height="15.0632" transform="rotate(-180 1184 24.0632)" fill="#EFEBE6"/>
<rect x="1193" y="30.1906" width="5" height="21.1906" transform="rotate(-180 1193 30.1906)" fill="#EFEBE6"/>
<rect x="1193" y="30.1907" width="5" height="21.1906" transform="rotate(-180 1193 30.1907)" fill="#EFEBE6"/>
<rect x="1200.5" y="24.0632" width="3.5" height="15.0632" transform="rotate(-180 1200.5 24.0632)" fill="#EFEBE6"/>
<rect x="1209.5" y="30.1906" width="5" height="21.1906" transform="rotate(-180 1209.5 30.1906)" fill="#EFEBE6"/>
<rect x="1209.5" y="30.1907" width="5" height="21.1906" transform="rotate(-180 1209.5 30.1907)" fill="#EFEBE6"/>
<rect x="1217" y="24.0632" width="3.5" height="15.0632" transform="rotate(-180 1217 24.0632)" fill="#EFEBE6"/>
<rect x="1226" y="30.1906" width="5" height="21.1906" transform="rotate(-180 1226 30.1906)" fill="#EFEBE6"/>
<rect x="1226" y="30.1907" width="5" height="21.1906" transform="rotate(-180 1226 30.1907)" fill="#EFEBE6"/>
<rect x="1233.5" y="24.0632" width="3.5" height="15.0632" transform="rotate(-180 1233.5 24.0632)" fill="#EFEBE6"/>
<rect x="1242.5" y="30.1906" width="5" height="21.1906" transform="rotate(-180 1242.5 30.1906)" fill="#EFEBE6"/>
<rect x="1242.5" y="30.1907" width="5" height="21.1906" transform="rotate(-180 1242.5 30.1907)" fill="#EFEBE6"/>
<rect x="1250" y="24.0632" width="3.5" height="15.0632" transform="rotate(-180 1250 24.0632)" fill="#EFEBE6"/>
<rect x="1259" y="30.1906" width="5" height="21.1906" transform="rotate(-180 1259 30.1906)" fill="#EFEBE6"/>
<rect x="1259" y="30.1907" width="5" height="21.1906" transform="rotate(-180 1259 30.1907)" fill="#EFEBE6"/>
<rect x="1266.5" y="24.0632" width="3.5" height="15.0632" transform="rotate(-180 1266.5 24.0632)" fill="#EFEBE6"/>
<rect x="1275.5" y="30.1906" width="5" height="21.1906" transform="rotate(-180 1275.5 30.1906)" fill="#EFEBE6"/>
<rect x="1275.5" y="30.1907" width="5" height="21.1906" transform="rotate(-180 1275.5 30.1907)" fill="#EFEBE6"/>
<rect x="1283" y="24.0632" width="3.5" height="15.0632" transform="rotate(-180 1283 24.0632)" fill="#EFEBE6"/>
<rect x="1292" y="30.1906" width="5" height="21.1906" transform="rotate(-180 1292 30.1906)" fill="#EFEBE6"/>
<rect x="1292" y="30.1907" width="5" height="21.1906" transform="rotate(-180 1292 30.1907)" fill="#EFEBE6"/>
<rect x="1299.5" y="24.0632" width="3.5" height="15.0632" transform="rotate(-180 1299.5 24.0632)" fill="#EFEBE6"/>
<rect x="1308.5" y="30.1906" width="5" height="21.1906" transform="rotate(-180 1308.5 30.1906)" fill="#EFEBE6"/>
<rect x="1308.5" y="30.1907" width="5" height="21.1906" transform="rotate(-180 1308.5 30.1907)" fill="#EFEBE6"/>
<rect x="1316" y="24.0632" width="3.5" height="15.0632" transform="rotate(-180 1316 24.0632)" fill="#EFEBE6"/>
<rect x="1325" y="30.1906" width="5" height="21.1906" transform="rotate(-180 1325 30.1906)" fill="#EFEBE6"/>
<rect x="1325" y="30.1907" width="5" height="21.1906" transform="rotate(-180 1325 30.1907)" fill="#EFEBE6"/>
<rect x="1332.5" y="24.0632" width="3.5" height="15.0632" transform="rotate(-180 1332.5 24.0632)" fill="#EFEBE6"/>
<rect x="1341.5" y="30.1906" width="5" height="21.1906" transform="rotate(-180 1341.5 30.1906)" fill="#EFEBE6"/>
<rect x="1341.5" y="30.1907" width="5" height="21.1906" transform="rotate(-180 1341.5 30.1907)" fill="#EFEBE6"/>
<rect x="1349" y="24.0632" width="3.5" height="15.0632" transform="rotate(-180 1349 24.0632)" fill="#EFEBE6"/>
<rect x="1358" y="30.1906" width="5" height="21.1906" transform="rotate(-180 1358 30.1906)" fill="#EFEBE6"/>
<rect x="1358" y="30.1907" width="5" height="21.1906" transform="rotate(-180 1358 30.1907)" fill="#EFEBE6"/>
<rect x="1365.5" y="24.0632" width="3.5" height="15.0632" transform="rotate(-180 1365.5 24.0632)" fill="#EFEBE6"/>
<rect x="1374.5" y="30.1906" width="5" height="21.1906" transform="rotate(-180 1374.5 30.1906)" fill="#EFEBE6"/>
<rect x="1374.5" y="30.1907" width="5" height="21.1906" transform="rotate(-180 1374.5 30.1907)" fill="#EFEBE6"/>
<rect x="1382" y="24.0632" width="3.5" height="15.0632" transform="rotate(-180 1382 24.0632)" fill="#EFEBE6"/>
<rect x="1391" y="30.1906" width="5" height="21.1906" transform="rotate(-180 1391 30.1906)" fill="#EFEBE6"/>
<rect x="1391" y="30.1907" width="5" height="21.1906" transform="rotate(-180 1391 30.1907)" fill="#EFEBE6"/>
<rect x="1398.5" y="24.0632" width="3.5" height="15.0632" transform="rotate(-180 1398.5 24.0632)" fill="#EFEBE6"/>
<rect x="1407.5" y="30.1906" width="5" height="21.1906" transform="rotate(-180 1407.5 30.1906)" fill="#EFEBE6"/>
<rect x="1407.5" y="30.1907" width="5" height="21.1906" transform="rotate(-180 1407.5 30.1907)" fill="#EFEBE6"/>
<rect x="1415" y="24.0632" width="3.5" height="15.0632" transform="rotate(-180 1415 24.0632)" fill="#EFEBE6"/>
<rect x="1424" y="30.1906" width="5" height="21.1906" transform="rotate(-180 1424 30.1906)" fill="#EFEBE6"/>
<rect x="1424" y="30.1907" width="5" height="21.1906" transform="rotate(-180 1424 30.1907)" fill="#EFEBE6"/>
<rect x="1431.5" y="24.0632" width="3.5" height="15.0632" transform="rotate(-180 1431.5 24.0632)" fill="#EFEBE6"/>
<rect x="1440.5" y="30.1906" width="5" height="21.1906" transform="rotate(-180 1440.5 30.1906)" fill="#EFEBE6"/>
<rect x="1440.5" y="35.1907" width="1440.5" height="5" transform="rotate(-180 1440.5 35.1907)" fill="#EFEBE6"/>
</g>
</svg>
