<svg width="1440" height="27" viewBox="0 0 1440 27" fill="none" xmlns="http://www.w3.org/2000/svg">
<g>
<rect x="1080" y="26.5519" width="537.5" height="5.36147" transform="rotate(-180 1080 26.5519)" fill="#EFEBE6"/>
<rect x="542.274" y="26.5519" width="542.274" height="5.36147" transform="rotate(-180 542.274 26.5519)" fill="#EFEBE6"/>
<rect x="542.322" y="21.1907" width="4.59554" height="21.1906" transform="rotate(-180 542.322 21.1907)" fill="#EFEBE6"/>
<rect x="4.5957" y="21.1906" width="4.59554" height="21.1906" transform="rotate(-180 4.5957 21.1906)" fill="#EFEBE6"/>
<rect x="550.236" y="15.0632" width="3.57431" height="15.0632" transform="rotate(-180 550.236 15.0632)" fill="#EFEBE6"/>
<rect x="12.5098" y="15.0631" width="3.57431" height="15.0632" transform="rotate(-180 12.5098 15.0631)" fill="#EFEBE6"/>
<rect x="567.597" y="15.0632" width="3.57431" height="15.0632" transform="rotate(-180 567.597 15.0632)" fill="#EFEBE6"/>
<rect x="29.8711" y="15.0631" width="3.57431" height="15.0632" transform="rotate(-180 29.8711 15.0631)" fill="#EFEBE6"/>
<rect x="584.958" y="15.0632" width="3.57431" height="15.0632" transform="rotate(-180 584.958 15.0632)" fill="#EFEBE6"/>
<rect x="47.2314" y="15.0632" width="3.57431" height="15.0632" transform="rotate(-180 47.2314 15.0632)" fill="#EFEBE6"/>
<rect x="602.318" y="15.0632" width="3.57431" height="15.0632" transform="rotate(-180 602.318 15.0632)" fill="#EFEBE6"/>
<rect x="64.5928" y="15.0632" width="3.57431" height="15.0632" transform="rotate(-180 64.5928 15.0632)" fill="#EFEBE6"/>
<rect x="619.68" y="15.0632" width="3.57431" height="15.0632" transform="rotate(-180 619.68 15.0632)" fill="#EFEBE6"/>
<rect x="81.9541" y="15.0632" width="3.57431" height="15.0632" transform="rotate(-180 81.9541 15.0632)" fill="#EFEBE6"/>
<rect x="637.041" y="15.0632" width="3.57431" height="15.0632" transform="rotate(-180 637.041 15.0632)" fill="#EFEBE6"/>
<rect x="99.3145" y="15.0632" width="3.57431" height="15.0632" transform="rotate(-180 99.3145 15.0632)" fill="#EFEBE6"/>
<rect x="654.401" y="15.0632" width="3.57431" height="15.0632" transform="rotate(-180 654.401 15.0632)" fill="#EFEBE6"/>
<rect x="116.676" y="15.0632" width="3.57431" height="15.0632" transform="rotate(-180 116.676 15.0632)" fill="#EFEBE6"/>
<rect x="671.763" y="15.0632" width="3.57431" height="15.0632" transform="rotate(-180 671.763 15.0632)" fill="#EFEBE6"/>
<rect x="134.037" y="15.0632" width="3.57431" height="15.0632" transform="rotate(-180 134.037 15.0632)" fill="#EFEBE6"/>
<rect x="689.123" y="15.0632" width="3.57431" height="15.0632" transform="rotate(-180 689.123 15.0632)" fill="#EFEBE6"/>
<rect x="151.397" y="15.0632" width="3.57431" height="15.0632" transform="rotate(-180 151.397 15.0632)" fill="#EFEBE6"/>
<rect x="706.484" y="15.0632" width="3.57431" height="15.0632" transform="rotate(-180 706.484 15.0632)" fill="#EFEBE6"/>
<rect x="168.759" y="15.0632" width="3.57431" height="15.0632" transform="rotate(-180 168.759 15.0632)" fill="#EFEBE6"/>
<rect x="723.846" y="15.0632" width="3.57431" height="15.0632" transform="rotate(-180 723.846 15.0632)" fill="#EFEBE6"/>
<rect x="186.119" y="15.0632" width="3.57431" height="15.0632" transform="rotate(-180 186.119 15.0632)" fill="#EFEBE6"/>
<rect x="741.207" y="15.0632" width="3.57431" height="15.0632" transform="rotate(-180 741.207 15.0632)" fill="#EFEBE6"/>
<rect x="203.48" y="15.0632" width="3.57431" height="15.0632" transform="rotate(-180 203.48 15.0632)" fill="#EFEBE6"/>
<rect x="758.567" y="15.0632" width="3.57431" height="15.0632" transform="rotate(-180 758.567 15.0632)" fill="#EFEBE6"/>
<rect x="220.841" y="15.0632" width="3.57431" height="15.0632" transform="rotate(-180 220.841 15.0632)" fill="#EFEBE6"/>
<rect x="775.929" y="15.0632" width="3.57431" height="15.0632" transform="rotate(-180 775.929 15.0632)" fill="#EFEBE6"/>
<rect x="238.202" y="15.0632" width="3.57431" height="15.0632" transform="rotate(-180 238.202 15.0632)" fill="#EFEBE6"/>
<rect x="793.289" y="15.0632" width="3.57431" height="15.0632" transform="rotate(-180 793.289 15.0632)" fill="#EFEBE6"/>
<rect x="255.563" y="15.0632" width="3.57431" height="15.0632" transform="rotate(-180 255.563 15.0632)" fill="#EFEBE6"/>
<rect x="810.649" y="15.0632" width="3.57431" height="15.0632" transform="rotate(-180 810.649 15.0632)" fill="#EFEBE6"/>
<rect x="272.924" y="15.0632" width="3.57431" height="15.0632" transform="rotate(-180 272.924 15.0632)" fill="#EFEBE6"/>
<rect x="828.011" y="15.0632" width="3.57431" height="15.0632" transform="rotate(-180 828.011 15.0632)" fill="#EFEBE6"/>
<rect x="290.285" y="15.0632" width="3.57431" height="15.0632" transform="rotate(-180 290.285 15.0632)" fill="#EFEBE6"/>
<rect x="845.372" y="15.0632" width="3.57431" height="15.0632" transform="rotate(-180 845.372 15.0632)" fill="#EFEBE6"/>
<rect x="307.646" y="15.0632" width="3.57431" height="15.0632" transform="rotate(-180 307.646 15.0632)" fill="#EFEBE6"/>
<rect x="862.732" y="15.0632" width="3.57431" height="15.0632" transform="rotate(-180 862.732 15.0632)" fill="#EFEBE6"/>
<rect x="325.007" y="15.0632" width="3.57431" height="15.0632" transform="rotate(-180 325.007 15.0632)" fill="#EFEBE6"/>
<rect x="880.094" y="15.0632" width="3.57431" height="15.0632" transform="rotate(-180 880.094 15.0632)" fill="#EFEBE6"/>
<rect x="342.368" y="15.0632" width="3.57431" height="15.0632" transform="rotate(-180 342.368 15.0632)" fill="#EFEBE6"/>
<rect x="897.455" y="15.0632" width="3.57431" height="15.0632" transform="rotate(-180 897.455 15.0632)" fill="#EFEBE6"/>
<rect x="359.729" y="15.0632" width="3.57431" height="15.0632" transform="rotate(-180 359.729 15.0632)" fill="#EFEBE6"/>
<rect x="914.815" y="15.0632" width="3.57431" height="15.0632" transform="rotate(-180 914.815 15.0632)" fill="#EFEBE6"/>
<rect x="377.09" y="15.0632" width="3.57431" height="15.0632" transform="rotate(-180 377.09 15.0632)" fill="#EFEBE6"/>
<rect x="932.177" y="15.0632" width="3.57431" height="15.0632" transform="rotate(-180 932.177 15.0632)" fill="#EFEBE6"/>
<rect x="394.45" y="15.0632" width="3.57431" height="15.0632" transform="rotate(-180 394.45 15.0632)" fill="#EFEBE6"/>
<rect x="949.537" y="15.0632" width="3.57431" height="15.0632" transform="rotate(-180 949.537 15.0632)" fill="#EFEBE6"/>
<rect x="411.812" y="15.0632" width="3.57431" height="15.0632" transform="rotate(-180 411.812 15.0632)" fill="#EFEBE6"/>
<rect x="966.898" y="15.0632" width="3.57431" height="15.0632" transform="rotate(-180 966.898 15.0632)" fill="#EFEBE6"/>
<rect x="429.172" y="15.0632" width="3.57431" height="15.0632" transform="rotate(-180 429.172 15.0632)" fill="#EFEBE6"/>
<rect x="984.26" y="15.0632" width="3.57431" height="15.0632" transform="rotate(-180 984.26 15.0632)" fill="#EFEBE6"/>
<rect x="446.533" y="15.0632" width="3.57431" height="15.0632" transform="rotate(-180 446.533 15.0632)" fill="#EFEBE6"/>
<rect x="1001.62" y="15.0633" width="3.57431" height="15.0632" transform="rotate(-180 1001.62 15.0633)" fill="#EFEBE6"/>
<rect x="463.895" y="15.0632" width="3.57431" height="15.0632" transform="rotate(-180 463.895 15.0632)" fill="#EFEBE6"/>
<rect x="1018.98" y="15.0632" width="3.57431" height="15.0632" transform="rotate(-180 1018.98 15.0632)" fill="#EFEBE6"/>
<rect x="481.256" y="15.0632" width="3.57431" height="15.0632" transform="rotate(-180 481.256 15.0632)" fill="#EFEBE6"/>
<rect x="1036.34" y="15.0633" width="3.57431" height="15.0632" transform="rotate(-180 1036.34 15.0633)" fill="#EFEBE6"/>
<rect x="498.616" y="15.0632" width="3.57431" height="15.0632" transform="rotate(-180 498.616 15.0632)" fill="#EFEBE6"/>
<rect x="1053.7" y="15.0632" width="3.57431" height="15.0632" transform="rotate(-180 1053.7 15.0632)" fill="#EFEBE6"/>
<rect x="515.978" y="15.0632" width="3.57431" height="15.0632" transform="rotate(-180 515.978 15.0632)" fill="#EFEBE6"/>
<rect x="1071.06" y="15.0633" width="3.57431" height="15.0632" transform="rotate(-180 1071.06 15.0633)" fill="#EFEBE6"/>
<rect x="533.338" y="15.0632" width="3.57431" height="15.0632" transform="rotate(-180 533.338 15.0632)" fill="#EFEBE6"/>
<rect x="559.427" y="21.1907" width="4.59554" height="21.1906" transform="rotate(-180 559.427 21.1907)" fill="#EFEBE6"/>
<rect x="21.7012" y="21.1906" width="4.59554" height="21.1906" transform="rotate(-180 21.7012 21.1906)" fill="#EFEBE6"/>
<rect x="576.788" y="21.1907" width="4.59554" height="21.1906" transform="rotate(-180 576.788 21.1907)" fill="#EFEBE6"/>
<rect x="39.0615" y="21.1906" width="4.59554" height="21.1906" transform="rotate(-180 39.0615 21.1906)" fill="#EFEBE6"/>
<rect x="593.894" y="21.1907" width="4.59554" height="21.1906" transform="rotate(-180 593.894 21.1907)" fill="#EFEBE6"/>
<rect x="56.168" y="21.1906" width="4.59554" height="21.1906" transform="rotate(-180 56.168 21.1906)" fill="#EFEBE6"/>
<rect x="611.255" y="21.1907" width="4.59554" height="21.1906" transform="rotate(-180 611.255 21.1907)" fill="#EFEBE6"/>
<rect x="73.5283" y="21.1906" width="4.59554" height="21.1906" transform="rotate(-180 73.5283 21.1906)" fill="#EFEBE6"/>
<rect x="628.615" y="21.1907" width="4.59554" height="21.1906" transform="rotate(-180 628.615 21.1907)" fill="#EFEBE6"/>
<rect x="90.8896" y="21.1906" width="4.59554" height="21.1906" transform="rotate(-180 90.8896 21.1906)" fill="#EFEBE6"/>
<rect x="645.977" y="21.1907" width="4.59554" height="21.1906" transform="rotate(-180 645.977 21.1907)" fill="#EFEBE6"/>
<rect x="108.251" y="21.1906" width="4.59554" height="21.1906" transform="rotate(-180 108.251 21.1906)" fill="#EFEBE6"/>
<rect x="663.338" y="21.1907" width="4.59554" height="21.1906" transform="rotate(-180 663.338 21.1907)" fill="#EFEBE6"/>
<rect x="125.611" y="21.1907" width="4.59554" height="21.1906" transform="rotate(-180 125.611 21.1907)" fill="#EFEBE6"/>
<rect x="680.698" y="21.1907" width="4.59554" height="21.1906" transform="rotate(-180 680.698 21.1907)" fill="#EFEBE6"/>
<rect x="142.973" y="21.1907" width="4.59554" height="21.1906" transform="rotate(-180 142.973 21.1907)" fill="#EFEBE6"/>
<rect x="698.06" y="21.1907" width="4.59554" height="21.1906" transform="rotate(-180 698.06 21.1907)" fill="#EFEBE6"/>
<rect x="160.334" y="21.1907" width="4.59554" height="21.1906" transform="rotate(-180 160.334 21.1907)" fill="#EFEBE6"/>
<rect x="715.42" y="21.1907" width="4.59554" height="21.1906" transform="rotate(-180 715.42 21.1907)" fill="#EFEBE6"/>
<rect x="177.694" y="21.1907" width="4.59554" height="21.1906" transform="rotate(-180 177.694 21.1907)" fill="#EFEBE6"/>
<rect x="732.781" y="21.1907" width="4.59554" height="21.1906" transform="rotate(-180 732.781 21.1907)" fill="#EFEBE6"/>
<rect x="195.056" y="21.1907" width="4.59554" height="21.1906" transform="rotate(-180 195.056 21.1907)" fill="#EFEBE6"/>
<rect x="750.143" y="21.1907" width="4.59554" height="21.1906" transform="rotate(-180 750.143 21.1907)" fill="#EFEBE6"/>
<rect x="212.416" y="21.1907" width="4.59554" height="21.1906" transform="rotate(-180 212.416 21.1907)" fill="#EFEBE6"/>
<rect x="767.504" y="21.1907" width="4.59554" height="21.1906" transform="rotate(-180 767.504 21.1907)" fill="#EFEBE6"/>
<rect x="229.777" y="21.1907" width="4.59554" height="21.1906" transform="rotate(-180 229.777 21.1907)" fill="#EFEBE6"/>
<rect x="784.864" y="21.1907" width="4.59554" height="21.1906" transform="rotate(-180 784.864 21.1907)" fill="#EFEBE6"/>
<rect x="247.138" y="21.1907" width="4.59554" height="21.1906" transform="rotate(-180 247.138 21.1907)" fill="#EFEBE6"/>
<rect x="802.226" y="21.1907" width="4.59554" height="21.1906" transform="rotate(-180 802.226 21.1907)" fill="#EFEBE6"/>
<rect x="264.499" y="21.1907" width="4.59554" height="21.1906" transform="rotate(-180 264.499 21.1907)" fill="#EFEBE6"/>
<rect x="819.586" y="21.1907" width="4.59554" height="21.1906" transform="rotate(-180 819.586 21.1907)" fill="#EFEBE6"/>
<rect x="281.86" y="21.1907" width="4.59554" height="21.1906" transform="rotate(-180 281.86 21.1907)" fill="#EFEBE6"/>
<rect x="836.947" y="21.1907" width="4.59554" height="21.1906" transform="rotate(-180 836.947 21.1907)" fill="#EFEBE6"/>
<rect x="299.221" y="21.1907" width="4.59554" height="21.1906" transform="rotate(-180 299.221 21.1907)" fill="#EFEBE6"/>
<rect x="854.308" y="21.1907" width="4.59554" height="21.1906" transform="rotate(-180 854.308 21.1907)" fill="#EFEBE6"/>
<rect x="316.582" y="21.1907" width="4.59554" height="21.1906" transform="rotate(-180 316.582 21.1907)" fill="#EFEBE6"/>
<rect x="871.669" y="21.1907" width="4.59554" height="21.1906" transform="rotate(-180 871.669 21.1907)" fill="#EFEBE6"/>
<rect x="333.942" y="21.1907" width="4.59554" height="21.1906" transform="rotate(-180 333.942 21.1907)" fill="#EFEBE6"/>
<rect x="889.029" y="21.1907" width="4.59554" height="21.1906" transform="rotate(-180 889.029 21.1907)" fill="#EFEBE6"/>
<rect x="351.304" y="21.1907" width="4.59554" height="21.1906" transform="rotate(-180 351.304 21.1907)" fill="#EFEBE6"/>
<rect x="906.391" y="21.1907" width="4.59554" height="21.1906" transform="rotate(-180 906.391 21.1907)" fill="#EFEBE6"/>
<rect x="368.665" y="21.1907" width="4.59554" height="21.1906" transform="rotate(-180 368.665 21.1907)" fill="#EFEBE6"/>
<rect x="923.752" y="21.1907" width="4.59554" height="21.1906" transform="rotate(-180 923.752 21.1907)" fill="#EFEBE6"/>
<rect x="386.026" y="21.1907" width="4.59554" height="21.1906" transform="rotate(-180 386.026 21.1907)" fill="#EFEBE6"/>
<rect x="941.112" y="21.1907" width="4.59554" height="21.1906" transform="rotate(-180 941.112 21.1907)" fill="#EFEBE6"/>
<rect x="403.387" y="21.1907" width="4.59554" height="21.1906" transform="rotate(-180 403.387 21.1907)" fill="#EFEBE6"/>
<rect x="958.474" y="21.1907" width="4.59554" height="21.1906" transform="rotate(-180 958.474 21.1907)" fill="#EFEBE6"/>
<rect x="420.748" y="21.1907" width="4.59554" height="21.1906" transform="rotate(-180 420.748 21.1907)" fill="#EFEBE6"/>
<rect x="975.834" y="21.1907" width="4.59554" height="21.1906" transform="rotate(-180 975.834 21.1907)" fill="#EFEBE6"/>
<rect x="438.108" y="21.1907" width="4.59554" height="21.1906" transform="rotate(-180 438.108 21.1907)" fill="#EFEBE6"/>
<rect x="993.195" y="21.1907" width="4.59554" height="21.1906" transform="rotate(-180 993.195 21.1907)" fill="#EFEBE6"/>
<rect x="455.469" y="21.1907" width="4.59554" height="21.1906" transform="rotate(-180 455.469 21.1907)" fill="#EFEBE6"/>
<rect x="1010.56" y="21.1907" width="4.59554" height="21.1906" transform="rotate(-180 1010.56 21.1907)" fill="#EFEBE6"/>
<rect x="472.83" y="21.1907" width="4.59554" height="21.1906" transform="rotate(-180 472.83 21.1907)" fill="#EFEBE6"/>
<rect x="1027.92" y="21.1907" width="4.59554" height="21.1906" transform="rotate(-180 1027.92 21.1907)" fill="#EFEBE6"/>
<rect x="490.191" y="21.1907" width="4.59554" height="21.1906" transform="rotate(-180 490.191 21.1907)" fill="#EFEBE6"/>
<rect x="1045.28" y="21.1907" width="4.59554" height="21.1906" transform="rotate(-180 1045.28 21.1907)" fill="#EFEBE6"/>
<rect x="507.552" y="21.1907" width="4.59554" height="21.1906" transform="rotate(-180 507.552 21.1907)" fill="#EFEBE6"/>
<rect x="1062.64" y="21.1907" width="4.59554" height="21.1906" transform="rotate(-180 1062.64 21.1907)" fill="#EFEBE6"/>
<rect x="524.913" y="21.1907" width="4.59554" height="21.1906" transform="rotate(-180 524.913 21.1907)" fill="#EFEBE6"/>
<rect x="1080" y="21.1907" width="4.59554" height="21.1906" transform="rotate(-180 1080 21.1907)" fill="#EFEBE6"/>
<rect x="1444.27" y="26.5519" width="542.274" height="5.36147" transform="rotate(-180 1444.27 26.5519)" fill="#EFEBE6"/>
<rect x="1444.32" y="21.1907" width="4.59554" height="21.1906" transform="rotate(-180 1444.32 21.1907)" fill="#EFEBE6"/>
<rect x="906.596" y="21.1906" width="4.59554" height="21.1906" transform="rotate(-180 906.596 21.1906)" fill="#EFEBE6"/>
<rect x="914.51" y="15.0631" width="3.57431" height="15.0632" transform="rotate(-180 914.51 15.0631)" fill="#EFEBE6"/>
<rect x="931.871" y="15.0631" width="3.57431" height="15.0632" transform="rotate(-180 931.871 15.0631)" fill="#EFEBE6"/>
<rect x="949.231" y="15.0632" width="3.57431" height="15.0632" transform="rotate(-180 949.231 15.0632)" fill="#EFEBE6"/>
<rect x="966.593" y="15.0632" width="3.57431" height="15.0632" transform="rotate(-180 966.593 15.0632)" fill="#EFEBE6"/>
<rect x="983.954" y="15.0632" width="3.57431" height="15.0632" transform="rotate(-180 983.954 15.0632)" fill="#EFEBE6"/>
<rect x="1001.31" y="15.0632" width="3.57431" height="15.0632" transform="rotate(-180 1001.31 15.0632)" fill="#EFEBE6"/>
<rect x="1018.68" y="15.0632" width="3.57431" height="15.0632" transform="rotate(-180 1018.68 15.0632)" fill="#EFEBE6"/>
<rect x="1036.04" y="15.0632" width="3.57431" height="15.0632" transform="rotate(-180 1036.04 15.0632)" fill="#EFEBE6"/>
<rect x="1053.4" y="15.0632" width="3.57431" height="15.0632" transform="rotate(-180 1053.4 15.0632)" fill="#EFEBE6"/>
<rect x="1070.76" y="15.0632" width="3.57431" height="15.0632" transform="rotate(-180 1070.76 15.0632)" fill="#EFEBE6"/>
<rect x="1088.12" y="15.0632" width="3.57431" height="15.0632" transform="rotate(-180 1088.12 15.0632)" fill="#EFEBE6"/>
<rect x="1105.48" y="15.0632" width="3.57431" height="15.0632" transform="rotate(-180 1105.48 15.0632)" fill="#EFEBE6"/>
<rect x="1122.84" y="15.0632" width="3.57431" height="15.0632" transform="rotate(-180 1122.84 15.0632)" fill="#EFEBE6"/>
<rect x="1140.2" y="15.0632" width="3.57431" height="15.0632" transform="rotate(-180 1140.2 15.0632)" fill="#EFEBE6"/>
<rect x="1157.56" y="15.0632" width="3.57431" height="15.0632" transform="rotate(-180 1157.56 15.0632)" fill="#EFEBE6"/>
<rect x="1174.92" y="15.0632" width="3.57431" height="15.0632" transform="rotate(-180 1174.92 15.0632)" fill="#EFEBE6"/>
<rect x="1192.29" y="15.0632" width="3.57431" height="15.0632" transform="rotate(-180 1192.29 15.0632)" fill="#EFEBE6"/>
<rect x="1209.65" y="15.0632" width="3.57431" height="15.0632" transform="rotate(-180 1209.65 15.0632)" fill="#EFEBE6"/>
<rect x="1227.01" y="15.0632" width="3.57431" height="15.0632" transform="rotate(-180 1227.01 15.0632)" fill="#EFEBE6"/>
<rect x="1244.37" y="15.0632" width="3.57431" height="15.0632" transform="rotate(-180 1244.37 15.0632)" fill="#EFEBE6"/>
<rect x="1261.73" y="15.0632" width="3.57431" height="15.0632" transform="rotate(-180 1261.73 15.0632)" fill="#EFEBE6"/>
<rect x="1279.09" y="15.0632" width="3.57431" height="15.0632" transform="rotate(-180 1279.09 15.0632)" fill="#EFEBE6"/>
<rect x="1296.45" y="15.0632" width="3.57431" height="15.0632" transform="rotate(-180 1296.45 15.0632)" fill="#EFEBE6"/>
<rect x="1313.81" y="15.0632" width="3.57431" height="15.0632" transform="rotate(-180 1313.81 15.0632)" fill="#EFEBE6"/>
<rect x="1331.17" y="15.0632" width="3.57431" height="15.0632" transform="rotate(-180 1331.17 15.0632)" fill="#EFEBE6"/>
<rect x="1348.53" y="15.0632" width="3.57431" height="15.0632" transform="rotate(-180 1348.53 15.0632)" fill="#EFEBE6"/>
<rect x="1365.89" y="15.0632" width="3.57431" height="15.0632" transform="rotate(-180 1365.89 15.0632)" fill="#EFEBE6"/>
<rect x="1383.26" y="15.0632" width="3.57431" height="15.0632" transform="rotate(-180 1383.26 15.0632)" fill="#EFEBE6"/>
<rect x="1400.62" y="15.0632" width="3.57431" height="15.0632" transform="rotate(-180 1400.62 15.0632)" fill="#EFEBE6"/>
<rect x="1417.98" y="15.0632" width="3.57431" height="15.0632" transform="rotate(-180 1417.98 15.0632)" fill="#EFEBE6"/>
<rect x="1435.34" y="15.0632" width="3.57431" height="15.0632" transform="rotate(-180 1435.34 15.0632)" fill="#EFEBE6"/>
<rect x="923.701" y="21.1906" width="4.59554" height="21.1906" transform="rotate(-180 923.701 21.1906)" fill="#EFEBE6"/>
<rect x="941.062" y="21.1906" width="4.59554" height="21.1906" transform="rotate(-180 941.062 21.1906)" fill="#EFEBE6"/>
<rect x="958.168" y="21.1906" width="4.59554" height="21.1906" transform="rotate(-180 958.168 21.1906)" fill="#EFEBE6"/>
<rect x="975.528" y="21.1906" width="4.59554" height="21.1906" transform="rotate(-180 975.528 21.1906)" fill="#EFEBE6"/>
<rect x="992.89" y="21.1906" width="4.59554" height="21.1906" transform="rotate(-180 992.89 21.1906)" fill="#EFEBE6"/>
<rect x="1010.25" y="21.1906" width="4.59554" height="21.1906" transform="rotate(-180 1010.25 21.1906)" fill="#EFEBE6"/>
<rect x="1027.61" y="21.1907" width="4.59554" height="21.1906" transform="rotate(-180 1027.61 21.1907)" fill="#EFEBE6"/>
<rect x="1044.97" y="21.1907" width="4.59554" height="21.1906" transform="rotate(-180 1044.97 21.1907)" fill="#EFEBE6"/>
<rect x="1062.33" y="21.1907" width="4.59554" height="21.1906" transform="rotate(-180 1062.33 21.1907)" fill="#EFEBE6"/>
<rect x="1079.69" y="21.1907" width="4.59554" height="21.1906" transform="rotate(-180 1079.69 21.1907)" fill="#EFEBE6"/>
<rect x="1097.06" y="21.1907" width="4.59554" height="21.1906" transform="rotate(-180 1097.06 21.1907)" fill="#EFEBE6"/>
<rect x="1114.42" y="21.1907" width="4.59554" height="21.1906" transform="rotate(-180 1114.42 21.1907)" fill="#EFEBE6"/>
<rect x="1131.78" y="21.1907" width="4.59554" height="21.1906" transform="rotate(-180 1131.78 21.1907)" fill="#EFEBE6"/>
<rect x="1149.14" y="21.1907" width="4.59554" height="21.1906" transform="rotate(-180 1149.14 21.1907)" fill="#EFEBE6"/>
<rect x="1166.5" y="21.1907" width="4.59554" height="21.1906" transform="rotate(-180 1166.5 21.1907)" fill="#EFEBE6"/>
<rect x="1183.86" y="21.1907" width="4.59554" height="21.1906" transform="rotate(-180 1183.86 21.1907)" fill="#EFEBE6"/>
<rect x="1201.22" y="21.1907" width="4.59554" height="21.1906" transform="rotate(-180 1201.22 21.1907)" fill="#EFEBE6"/>
<rect x="1218.58" y="21.1907" width="4.59554" height="21.1906" transform="rotate(-180 1218.58 21.1907)" fill="#EFEBE6"/>
<rect x="1235.94" y="21.1907" width="4.59554" height="21.1906" transform="rotate(-180 1235.94 21.1907)" fill="#EFEBE6"/>
<rect x="1253.3" y="21.1907" width="4.59554" height="21.1906" transform="rotate(-180 1253.3 21.1907)" fill="#EFEBE6"/>
<rect x="1270.67" y="21.1907" width="4.59554" height="21.1906" transform="rotate(-180 1270.67 21.1907)" fill="#EFEBE6"/>
<rect x="1288.03" y="21.1907" width="4.59554" height="21.1906" transform="rotate(-180 1288.03 21.1907)" fill="#EFEBE6"/>
<rect x="1305.39" y="21.1907" width="4.59554" height="21.1906" transform="rotate(-180 1305.39 21.1907)" fill="#EFEBE6"/>
<rect x="1322.75" y="21.1907" width="4.59554" height="21.1906" transform="rotate(-180 1322.75 21.1907)" fill="#EFEBE6"/>
<rect x="1340.11" y="21.1907" width="4.59554" height="21.1906" transform="rotate(-180 1340.11 21.1907)" fill="#EFEBE6"/>
<rect x="1357.47" y="21.1907" width="4.59554" height="21.1906" transform="rotate(-180 1357.47 21.1907)" fill="#EFEBE6"/>
<rect x="1374.83" y="21.1907" width="4.59554" height="21.1906" transform="rotate(-180 1374.83 21.1907)" fill="#EFEBE6"/>
<rect x="1392.19" y="21.1907" width="4.59554" height="21.1906" transform="rotate(-180 1392.19 21.1907)" fill="#EFEBE6"/>
<rect x="1409.55" y="21.1907" width="4.59554" height="21.1906" transform="rotate(-180 1409.55 21.1907)" fill="#EFEBE6"/>
<rect x="1426.91" y="21.1907" width="4.59554" height="21.1906" transform="rotate(-180 1426.91 21.1907)" fill="#EFEBE6"/>
</g>
</svg>
